G04 #@! TF.GenerationSoftware,KiCad,Pcbnew,(6.0.9)*
G04 #@! TF.CreationDate,2024-03-06T21:09:06-08:00*
G04 #@! TF.ProjectId,IMX585_MIPI_Breakout_v3,494d5835-3835-45f4-9d49-50495f427265,rev?*
G04 #@! TF.SameCoordinates,Original*
G04 #@! TF.FileFunction,Legend,Bot*
G04 #@! TF.FilePolarity,Positive*
%FSLAX46Y46*%
G04 Gerber Fmt 4.6, Leading zero omitted, Abs format (unit mm)*
G04 Created by KiCad (PCBNEW (6.0.9)) date 2024-03-06 21:09:06*
%MOMM*%
%LPD*%
G01*
G04 APERTURE LIST*
%ADD10C,0.150000*%
%ADD11C,0.200000*%
%ADD12C,0.100000*%
%ADD13C,0.350000*%
G04 APERTURE END LIST*
D10*
X161652380Y-112564285D02*
X160652380Y-112564285D01*
X161652380Y-113611904D02*
X161176190Y-113278571D01*
X161652380Y-113040476D02*
X160652380Y-113040476D01*
X160652380Y-113421428D01*
X160700000Y-113516666D01*
X160747619Y-113564285D01*
X160842857Y-113611904D01*
X160985714Y-113611904D01*
X161080952Y-113564285D01*
X161128571Y-113516666D01*
X161176190Y-113421428D01*
X161176190Y-113040476D01*
X161604761Y-114754761D02*
X161652380Y-114897619D01*
X161652380Y-115135714D01*
X161604761Y-115230952D01*
X161557142Y-115278571D01*
X161461904Y-115326190D01*
X161366666Y-115326190D01*
X161271428Y-115278571D01*
X161223809Y-115230952D01*
X161176190Y-115135714D01*
X161128571Y-114945238D01*
X161080952Y-114850000D01*
X161033333Y-114802380D01*
X160938095Y-114754761D01*
X160842857Y-114754761D01*
X160747619Y-114802380D01*
X160700000Y-114850000D01*
X160652380Y-114945238D01*
X160652380Y-115183333D01*
X160700000Y-115326190D01*
X160985714Y-115659523D02*
X161652380Y-115850000D01*
X161176190Y-116040476D01*
X161652380Y-116230952D01*
X160985714Y-116421428D01*
X161652380Y-116802380D02*
X160985714Y-116802380D01*
X160652380Y-116802380D02*
X160700000Y-116754761D01*
X160747619Y-116802380D01*
X160700000Y-116850000D01*
X160652380Y-116802380D01*
X160747619Y-116802380D01*
X160985714Y-117135714D02*
X160985714Y-117516666D01*
X160652380Y-117278571D02*
X161509523Y-117278571D01*
X161604761Y-117326190D01*
X161652380Y-117421428D01*
X161652380Y-117516666D01*
X161604761Y-118278571D02*
X161652380Y-118183333D01*
X161652380Y-117992857D01*
X161604761Y-117897619D01*
X161557142Y-117850000D01*
X161461904Y-117802380D01*
X161176190Y-117802380D01*
X161080952Y-117850000D01*
X161033333Y-117897619D01*
X160985714Y-117992857D01*
X160985714Y-118183333D01*
X161033333Y-118278571D01*
X161652380Y-118707142D02*
X160652380Y-118707142D01*
X161652380Y-119135714D02*
X161128571Y-119135714D01*
X161033333Y-119088095D01*
X160985714Y-118992857D01*
X160985714Y-118850000D01*
X161033333Y-118754761D01*
X161080952Y-118707142D01*
D11*
X165082642Y-93007142D02*
X165811214Y-93007142D01*
X165896928Y-93050000D01*
X165939785Y-93092857D01*
X165982642Y-93178571D01*
X165982642Y-93350000D01*
X165939785Y-93435714D01*
X165896928Y-93478571D01*
X165811214Y-93521428D01*
X165082642Y-93521428D01*
X165939785Y-93907142D02*
X165982642Y-93992857D01*
X165982642Y-94164285D01*
X165939785Y-94250000D01*
X165854071Y-94292857D01*
X165811214Y-94292857D01*
X165725500Y-94250000D01*
X165682642Y-94164285D01*
X165682642Y-94035714D01*
X165639785Y-93950000D01*
X165554071Y-93907142D01*
X165511214Y-93907142D01*
X165425500Y-93950000D01*
X165382642Y-94035714D01*
X165382642Y-94164285D01*
X165425500Y-94250000D01*
X165939785Y-95021428D02*
X165982642Y-94935714D01*
X165982642Y-94764285D01*
X165939785Y-94678571D01*
X165854071Y-94635714D01*
X165511214Y-94635714D01*
X165425500Y-94678571D01*
X165382642Y-94764285D01*
X165382642Y-94935714D01*
X165425500Y-95021428D01*
X165511214Y-95064285D01*
X165596928Y-95064285D01*
X165682642Y-94635714D01*
X165511214Y-96435714D02*
X165511214Y-96135714D01*
X165982642Y-96135714D02*
X165082642Y-96135714D01*
X165082642Y-96564285D01*
X165982642Y-96907142D02*
X165082642Y-96907142D01*
X165082642Y-97250000D01*
X165125500Y-97335714D01*
X165168357Y-97378571D01*
X165254071Y-97421428D01*
X165382642Y-97421428D01*
X165468357Y-97378571D01*
X165511214Y-97335714D01*
X165554071Y-97250000D01*
X165554071Y-96907142D01*
X165896928Y-98321428D02*
X165939785Y-98278571D01*
X165982642Y-98150000D01*
X165982642Y-98064285D01*
X165939785Y-97935714D01*
X165854071Y-97850000D01*
X165768357Y-97807142D01*
X165596928Y-97764285D01*
X165468357Y-97764285D01*
X165296928Y-97807142D01*
X165211214Y-97850000D01*
X165125500Y-97935714D01*
X165082642Y-98064285D01*
X165082642Y-98150000D01*
X165125500Y-98278571D01*
X165168357Y-98321428D01*
X165382642Y-99307142D02*
X165982642Y-99478571D01*
X165554071Y-99650000D01*
X165982642Y-99821428D01*
X165382642Y-99992857D01*
X165982642Y-100335714D02*
X165382642Y-100335714D01*
X165082642Y-100335714D02*
X165125500Y-100292857D01*
X165168357Y-100335714D01*
X165125500Y-100378571D01*
X165082642Y-100335714D01*
X165168357Y-100335714D01*
X165382642Y-100635714D02*
X165382642Y-100978571D01*
X165082642Y-100764285D02*
X165854071Y-100764285D01*
X165939785Y-100807142D01*
X165982642Y-100892857D01*
X165982642Y-100978571D01*
X165982642Y-101278571D02*
X165082642Y-101278571D01*
X165982642Y-101664285D02*
X165511214Y-101664285D01*
X165425500Y-101621428D01*
X165382642Y-101535714D01*
X165382642Y-101407142D01*
X165425500Y-101321428D01*
X165468357Y-101278571D01*
X165939785Y-103164285D02*
X165982642Y-103078571D01*
X165982642Y-102907142D01*
X165939785Y-102821428D01*
X165896928Y-102778571D01*
X165811214Y-102735714D01*
X165554071Y-102735714D01*
X165468357Y-102778571D01*
X165425500Y-102821428D01*
X165382642Y-102907142D01*
X165382642Y-103078571D01*
X165425500Y-103164285D01*
X165982642Y-103678571D02*
X165939785Y-103592857D01*
X165896928Y-103550000D01*
X165811214Y-103507142D01*
X165554071Y-103507142D01*
X165468357Y-103550000D01*
X165425500Y-103592857D01*
X165382642Y-103678571D01*
X165382642Y-103807142D01*
X165425500Y-103892857D01*
X165468357Y-103935714D01*
X165554071Y-103978571D01*
X165811214Y-103978571D01*
X165896928Y-103935714D01*
X165939785Y-103892857D01*
X165982642Y-103807142D01*
X165982642Y-103678571D01*
X165382642Y-104364285D02*
X165982642Y-104364285D01*
X165468357Y-104364285D02*
X165425500Y-104407142D01*
X165382642Y-104492857D01*
X165382642Y-104621428D01*
X165425500Y-104707142D01*
X165511214Y-104750000D01*
X165982642Y-104750000D01*
X165382642Y-105050000D02*
X165382642Y-105392857D01*
X165082642Y-105178571D02*
X165854071Y-105178571D01*
X165939785Y-105221428D01*
X165982642Y-105307142D01*
X165982642Y-105392857D01*
X165982642Y-106078571D02*
X165511214Y-106078571D01*
X165425500Y-106035714D01*
X165382642Y-105950000D01*
X165382642Y-105778571D01*
X165425500Y-105692857D01*
X165939785Y-106078571D02*
X165982642Y-105992857D01*
X165982642Y-105778571D01*
X165939785Y-105692857D01*
X165854071Y-105650000D01*
X165768357Y-105650000D01*
X165682642Y-105692857D01*
X165639785Y-105778571D01*
X165639785Y-105992857D01*
X165596928Y-106078571D01*
X165939785Y-106892857D02*
X165982642Y-106807142D01*
X165982642Y-106635714D01*
X165939785Y-106550000D01*
X165896928Y-106507142D01*
X165811214Y-106464285D01*
X165554071Y-106464285D01*
X165468357Y-106507142D01*
X165425500Y-106550000D01*
X165382642Y-106635714D01*
X165382642Y-106807142D01*
X165425500Y-106892857D01*
X165382642Y-107150000D02*
X165382642Y-107492857D01*
X165082642Y-107278571D02*
X165854071Y-107278571D01*
X165939785Y-107321428D01*
X165982642Y-107407142D01*
X165982642Y-107492857D01*
X165382642Y-108478571D02*
X166282642Y-108478571D01*
X165425500Y-108478571D02*
X165382642Y-108564285D01*
X165382642Y-108735714D01*
X165425500Y-108821428D01*
X165468357Y-108864285D01*
X165554071Y-108907142D01*
X165811214Y-108907142D01*
X165896928Y-108864285D01*
X165939785Y-108821428D01*
X165982642Y-108735714D01*
X165982642Y-108564285D01*
X165939785Y-108478571D01*
X165982642Y-109292857D02*
X165382642Y-109292857D01*
X165082642Y-109292857D02*
X165125500Y-109250000D01*
X165168357Y-109292857D01*
X165125500Y-109335714D01*
X165082642Y-109292857D01*
X165168357Y-109292857D01*
X165382642Y-109721428D02*
X165982642Y-109721428D01*
X165468357Y-109721428D02*
X165425500Y-109764285D01*
X165382642Y-109850000D01*
X165382642Y-109978571D01*
X165425500Y-110064285D01*
X165511214Y-110107142D01*
X165982642Y-110107142D01*
X167431642Y-96221428D02*
X167388785Y-96135714D01*
X167345928Y-96092857D01*
X167260214Y-96050000D01*
X167003071Y-96050000D01*
X166917357Y-96092857D01*
X166874500Y-96135714D01*
X166831642Y-96221428D01*
X166831642Y-96350000D01*
X166874500Y-96435714D01*
X166917357Y-96478571D01*
X167003071Y-96521428D01*
X167260214Y-96521428D01*
X167345928Y-96478571D01*
X167388785Y-96435714D01*
X167431642Y-96350000D01*
X167431642Y-96221428D01*
X166831642Y-96907142D02*
X167431642Y-96907142D01*
X166917357Y-96907142D02*
X166874500Y-96950000D01*
X166831642Y-97035714D01*
X166831642Y-97164285D01*
X166874500Y-97250000D01*
X166960214Y-97292857D01*
X167431642Y-97292857D01*
X166831642Y-98278571D02*
X166831642Y-98621428D01*
X166531642Y-98407142D02*
X167303071Y-98407142D01*
X167388785Y-98450000D01*
X167431642Y-98535714D01*
X167431642Y-98621428D01*
X167431642Y-98921428D02*
X166531642Y-98921428D01*
X167431642Y-99307142D02*
X166960214Y-99307142D01*
X166874500Y-99264285D01*
X166831642Y-99178571D01*
X166831642Y-99050000D01*
X166874500Y-98964285D01*
X166917357Y-98921428D01*
X167388785Y-100078571D02*
X167431642Y-99992857D01*
X167431642Y-99821428D01*
X167388785Y-99735714D01*
X167303071Y-99692857D01*
X166960214Y-99692857D01*
X166874500Y-99735714D01*
X166831642Y-99821428D01*
X166831642Y-99992857D01*
X166874500Y-100078571D01*
X166960214Y-100121428D01*
X167045928Y-100121428D01*
X167131642Y-99692857D01*
X167388785Y-101150000D02*
X167431642Y-101235714D01*
X167431642Y-101407142D01*
X167388785Y-101492857D01*
X167303071Y-101535714D01*
X167260214Y-101535714D01*
X167174500Y-101492857D01*
X167131642Y-101407142D01*
X167131642Y-101278571D01*
X167088785Y-101192857D01*
X167003071Y-101150000D01*
X166960214Y-101150000D01*
X166874500Y-101192857D01*
X166831642Y-101278571D01*
X166831642Y-101407142D01*
X166874500Y-101492857D01*
X167431642Y-102307142D02*
X166960214Y-102307142D01*
X166874500Y-102264285D01*
X166831642Y-102178571D01*
X166831642Y-102007142D01*
X166874500Y-101921428D01*
X167388785Y-102307142D02*
X167431642Y-102221428D01*
X167431642Y-102007142D01*
X167388785Y-101921428D01*
X167303071Y-101878571D01*
X167217357Y-101878571D01*
X167131642Y-101921428D01*
X167088785Y-102007142D01*
X167088785Y-102221428D01*
X167045928Y-102307142D01*
X167431642Y-102735714D02*
X166831642Y-102735714D01*
X166917357Y-102735714D02*
X166874500Y-102778571D01*
X166831642Y-102864285D01*
X166831642Y-102992857D01*
X166874500Y-103078571D01*
X166960214Y-103121428D01*
X167431642Y-103121428D01*
X166960214Y-103121428D02*
X166874500Y-103164285D01*
X166831642Y-103250000D01*
X166831642Y-103378571D01*
X166874500Y-103464285D01*
X166960214Y-103507142D01*
X167431642Y-103507142D01*
X167388785Y-104278571D02*
X167431642Y-104192857D01*
X167431642Y-104021428D01*
X167388785Y-103935714D01*
X167303071Y-103892857D01*
X166960214Y-103892857D01*
X166874500Y-103935714D01*
X166831642Y-104021428D01*
X166831642Y-104192857D01*
X166874500Y-104278571D01*
X166960214Y-104321428D01*
X167045928Y-104321428D01*
X167131642Y-103892857D01*
X167388785Y-105350000D02*
X167431642Y-105435714D01*
X167431642Y-105607142D01*
X167388785Y-105692857D01*
X167303071Y-105735714D01*
X167260214Y-105735714D01*
X167174500Y-105692857D01*
X167131642Y-105607142D01*
X167131642Y-105478571D01*
X167088785Y-105392857D01*
X167003071Y-105350000D01*
X166960214Y-105350000D01*
X166874500Y-105392857D01*
X166831642Y-105478571D01*
X166831642Y-105607142D01*
X166874500Y-105692857D01*
X167431642Y-106121428D02*
X166831642Y-106121428D01*
X166531642Y-106121428D02*
X166574500Y-106078571D01*
X166617357Y-106121428D01*
X166574500Y-106164285D01*
X166531642Y-106121428D01*
X166617357Y-106121428D01*
X167431642Y-106935714D02*
X166531642Y-106935714D01*
X167388785Y-106935714D02*
X167431642Y-106850000D01*
X167431642Y-106678571D01*
X167388785Y-106592857D01*
X167345928Y-106550000D01*
X167260214Y-106507142D01*
X167003071Y-106507142D01*
X166917357Y-106550000D01*
X166874500Y-106592857D01*
X166831642Y-106678571D01*
X166831642Y-106850000D01*
X166874500Y-106935714D01*
X167388785Y-107707142D02*
X167431642Y-107621428D01*
X167431642Y-107450000D01*
X167388785Y-107364285D01*
X167303071Y-107321428D01*
X166960214Y-107321428D01*
X166874500Y-107364285D01*
X166831642Y-107450000D01*
X166831642Y-107621428D01*
X166874500Y-107707142D01*
X166960214Y-107750000D01*
X167045928Y-107750000D01*
X167131642Y-107321428D01*
X161215285Y-96685714D02*
X161258142Y-96814285D01*
X161258142Y-97028571D01*
X161215285Y-97114285D01*
X161172428Y-97157142D01*
X161086714Y-97200000D01*
X161001000Y-97200000D01*
X160915285Y-97157142D01*
X160872428Y-97114285D01*
X160829571Y-97028571D01*
X160786714Y-96857142D01*
X160743857Y-96771428D01*
X160701000Y-96728571D01*
X160615285Y-96685714D01*
X160529571Y-96685714D01*
X160443857Y-96728571D01*
X160401000Y-96771428D01*
X160358142Y-96857142D01*
X160358142Y-97071428D01*
X160401000Y-97200000D01*
X160658142Y-97457142D02*
X160658142Y-97800000D01*
X160358142Y-97585714D02*
X161129571Y-97585714D01*
X161215285Y-97628571D01*
X161258142Y-97714285D01*
X161258142Y-97800000D01*
X161258142Y-98485714D02*
X160786714Y-98485714D01*
X160701000Y-98442857D01*
X160658142Y-98357142D01*
X160658142Y-98185714D01*
X160701000Y-98100000D01*
X161215285Y-98485714D02*
X161258142Y-98400000D01*
X161258142Y-98185714D01*
X161215285Y-98100000D01*
X161129571Y-98057142D01*
X161043857Y-98057142D01*
X160958142Y-98100000D01*
X160915285Y-98185714D01*
X160915285Y-98400000D01*
X160872428Y-98485714D01*
X161258142Y-98914285D02*
X160658142Y-98914285D01*
X160829571Y-98914285D02*
X160743857Y-98957142D01*
X160701000Y-99000000D01*
X160658142Y-99085714D01*
X160658142Y-99171428D01*
X161258142Y-99600000D02*
X161215285Y-99514285D01*
X161129571Y-99471428D01*
X160358142Y-99471428D01*
X161258142Y-99942857D02*
X160658142Y-99942857D01*
X160358142Y-99942857D02*
X160401000Y-99900000D01*
X160443857Y-99942857D01*
X160401000Y-99985714D01*
X160358142Y-99942857D01*
X160443857Y-99942857D01*
X160658142Y-100757142D02*
X161386714Y-100757142D01*
X161472428Y-100714285D01*
X161515285Y-100671428D01*
X161558142Y-100585714D01*
X161558142Y-100457142D01*
X161515285Y-100371428D01*
X161215285Y-100757142D02*
X161258142Y-100671428D01*
X161258142Y-100500000D01*
X161215285Y-100414285D01*
X161172428Y-100371428D01*
X161086714Y-100328571D01*
X160829571Y-100328571D01*
X160743857Y-100371428D01*
X160701000Y-100414285D01*
X160658142Y-100500000D01*
X160658142Y-100671428D01*
X160701000Y-100757142D01*
X161258142Y-101185714D02*
X160358142Y-101185714D01*
X161258142Y-101571428D02*
X160786714Y-101571428D01*
X160701000Y-101528571D01*
X160658142Y-101442857D01*
X160658142Y-101314285D01*
X160701000Y-101228571D01*
X160743857Y-101185714D01*
X160658142Y-101871428D02*
X160658142Y-102214285D01*
X160358142Y-102000000D02*
X161129571Y-102000000D01*
X161215285Y-102042857D01*
X161258142Y-102128571D01*
X161258142Y-102214285D01*
X160786714Y-102514285D02*
X160786714Y-102814285D01*
X161258142Y-102942857D02*
X161258142Y-102514285D01*
X160358142Y-102514285D01*
X160358142Y-102942857D01*
X160658142Y-103242857D02*
X161258142Y-103457142D01*
X160658142Y-103671428D02*
X161258142Y-103457142D01*
X161472428Y-103371428D01*
X161515285Y-103328571D01*
X161558142Y-103242857D01*
X161215285Y-104357142D02*
X161258142Y-104271428D01*
X161258142Y-104100000D01*
X161215285Y-104014285D01*
X161129571Y-103971428D01*
X160786714Y-103971428D01*
X160701000Y-104014285D01*
X160658142Y-104100000D01*
X160658142Y-104271428D01*
X160701000Y-104357142D01*
X160786714Y-104400000D01*
X160872428Y-104400000D01*
X160958142Y-103971428D01*
X160658142Y-105385714D02*
X161258142Y-105600000D01*
X160658142Y-105814285D01*
X161258142Y-106628571D02*
X161258142Y-106114285D01*
X161258142Y-106371428D02*
X160358142Y-106371428D01*
X160486714Y-106285714D01*
X160572428Y-106200000D01*
X160615285Y-106114285D01*
X161172428Y-107014285D02*
X161215285Y-107057142D01*
X161258142Y-107014285D01*
X161215285Y-106971428D01*
X161172428Y-107014285D01*
X161258142Y-107014285D01*
X160358142Y-107828571D02*
X160358142Y-107657142D01*
X160401000Y-107571428D01*
X160443857Y-107528571D01*
X160572428Y-107442857D01*
X160743857Y-107400000D01*
X161086714Y-107400000D01*
X161172428Y-107442857D01*
X161215285Y-107485714D01*
X161258142Y-107571428D01*
X161258142Y-107742857D01*
X161215285Y-107828571D01*
X161172428Y-107871428D01*
X161086714Y-107914285D01*
X160872428Y-107914285D01*
X160786714Y-107871428D01*
X160743857Y-107828571D01*
X160701000Y-107742857D01*
X160701000Y-107571428D01*
X160743857Y-107485714D01*
X160786714Y-107442857D01*
X160872428Y-107400000D01*
X162707142Y-94371428D02*
X161807142Y-94371428D01*
X161807142Y-94585714D01*
X161850000Y-94714285D01*
X161935714Y-94800000D01*
X162021428Y-94842857D01*
X162192857Y-94885714D01*
X162321428Y-94885714D01*
X162492857Y-94842857D01*
X162578571Y-94800000D01*
X162664285Y-94714285D01*
X162707142Y-94585714D01*
X162707142Y-94371428D01*
X162664285Y-95614285D02*
X162707142Y-95528571D01*
X162707142Y-95357142D01*
X162664285Y-95271428D01*
X162578571Y-95228571D01*
X162235714Y-95228571D01*
X162150000Y-95271428D01*
X162107142Y-95357142D01*
X162107142Y-95528571D01*
X162150000Y-95614285D01*
X162235714Y-95657142D01*
X162321428Y-95657142D01*
X162407142Y-95228571D01*
X162664285Y-96000000D02*
X162707142Y-96085714D01*
X162707142Y-96257142D01*
X162664285Y-96342857D01*
X162578571Y-96385714D01*
X162535714Y-96385714D01*
X162450000Y-96342857D01*
X162407142Y-96257142D01*
X162407142Y-96128571D01*
X162364285Y-96042857D01*
X162278571Y-96000000D01*
X162235714Y-96000000D01*
X162150000Y-96042857D01*
X162107142Y-96128571D01*
X162107142Y-96257142D01*
X162150000Y-96342857D01*
X162707142Y-96771428D02*
X162107142Y-96771428D01*
X161807142Y-96771428D02*
X161850000Y-96728571D01*
X161892857Y-96771428D01*
X161850000Y-96814285D01*
X161807142Y-96771428D01*
X161892857Y-96771428D01*
X162107142Y-97585714D02*
X162835714Y-97585714D01*
X162921428Y-97542857D01*
X162964285Y-97500000D01*
X163007142Y-97414285D01*
X163007142Y-97285714D01*
X162964285Y-97200000D01*
X162664285Y-97585714D02*
X162707142Y-97500000D01*
X162707142Y-97328571D01*
X162664285Y-97242857D01*
X162621428Y-97200000D01*
X162535714Y-97157142D01*
X162278571Y-97157142D01*
X162192857Y-97200000D01*
X162150000Y-97242857D01*
X162107142Y-97328571D01*
X162107142Y-97500000D01*
X162150000Y-97585714D01*
X162107142Y-98014285D02*
X162707142Y-98014285D01*
X162192857Y-98014285D02*
X162150000Y-98057142D01*
X162107142Y-98142857D01*
X162107142Y-98271428D01*
X162150000Y-98357142D01*
X162235714Y-98400000D01*
X162707142Y-98400000D01*
X162664285Y-99171428D02*
X162707142Y-99085714D01*
X162707142Y-98914285D01*
X162664285Y-98828571D01*
X162578571Y-98785714D01*
X162235714Y-98785714D01*
X162150000Y-98828571D01*
X162107142Y-98914285D01*
X162107142Y-99085714D01*
X162150000Y-99171428D01*
X162235714Y-99214285D01*
X162321428Y-99214285D01*
X162407142Y-98785714D01*
X162707142Y-99985714D02*
X161807142Y-99985714D01*
X162664285Y-99985714D02*
X162707142Y-99900000D01*
X162707142Y-99728571D01*
X162664285Y-99642857D01*
X162621428Y-99600000D01*
X162535714Y-99557142D01*
X162278571Y-99557142D01*
X162192857Y-99600000D01*
X162150000Y-99642857D01*
X162107142Y-99728571D01*
X162107142Y-99900000D01*
X162150000Y-99985714D01*
X162707142Y-101100000D02*
X161807142Y-101100000D01*
X162150000Y-101100000D02*
X162107142Y-101185714D01*
X162107142Y-101357142D01*
X162150000Y-101442857D01*
X162192857Y-101485714D01*
X162278571Y-101528571D01*
X162535714Y-101528571D01*
X162621428Y-101485714D01*
X162664285Y-101442857D01*
X162707142Y-101357142D01*
X162707142Y-101185714D01*
X162664285Y-101100000D01*
X162107142Y-101828571D02*
X162707142Y-102042857D01*
X162107142Y-102257142D02*
X162707142Y-102042857D01*
X162921428Y-101957142D01*
X162964285Y-101914285D01*
X163007142Y-101828571D01*
X161807142Y-103200000D02*
X162707142Y-103414285D01*
X162064285Y-103585714D01*
X162707142Y-103757142D01*
X161807142Y-103971428D01*
X162707142Y-104314285D02*
X162107142Y-104314285D01*
X161807142Y-104314285D02*
X161850000Y-104271428D01*
X161892857Y-104314285D01*
X161850000Y-104357142D01*
X161807142Y-104314285D01*
X161892857Y-104314285D01*
X162707142Y-104871428D02*
X162664285Y-104785714D01*
X162578571Y-104742857D01*
X161807142Y-104742857D01*
X162707142Y-105342857D02*
X162664285Y-105257142D01*
X162578571Y-105214285D01*
X161807142Y-105214285D01*
X161807142Y-106285714D02*
X162707142Y-106500000D01*
X162064285Y-106671428D01*
X162707142Y-106842857D01*
X161807142Y-107057142D01*
X162707142Y-107400000D02*
X161807142Y-107400000D01*
X162707142Y-107785714D02*
X162235714Y-107785714D01*
X162150000Y-107742857D01*
X162107142Y-107657142D01*
X162107142Y-107528571D01*
X162150000Y-107442857D01*
X162192857Y-107400000D01*
X162707142Y-108600000D02*
X162235714Y-108600000D01*
X162150000Y-108557142D01*
X162107142Y-108471428D01*
X162107142Y-108300000D01*
X162150000Y-108214285D01*
X162664285Y-108600000D02*
X162707142Y-108514285D01*
X162707142Y-108300000D01*
X162664285Y-108214285D01*
X162578571Y-108171428D01*
X162492857Y-108171428D01*
X162407142Y-108214285D01*
X162364285Y-108300000D01*
X162364285Y-108514285D01*
X162321428Y-108600000D01*
X162107142Y-109028571D02*
X162707142Y-109028571D01*
X162192857Y-109028571D02*
X162150000Y-109071428D01*
X162107142Y-109157142D01*
X162107142Y-109285714D01*
X162150000Y-109371428D01*
X162235714Y-109414285D01*
X162707142Y-109414285D01*
X162107142Y-110228571D02*
X162835714Y-110228571D01*
X162921428Y-110185714D01*
X162964285Y-110142857D01*
X163007142Y-110057142D01*
X163007142Y-109928571D01*
X162964285Y-109842857D01*
X162664285Y-110228571D02*
X162707142Y-110142857D01*
X162707142Y-109971428D01*
X162664285Y-109885714D01*
X162621428Y-109842857D01*
X162535714Y-109800000D01*
X162278571Y-109800000D01*
X162192857Y-109842857D01*
X162150000Y-109885714D01*
X162107142Y-109971428D01*
X162107142Y-110142857D01*
X162150000Y-110228571D01*
X163341857Y-98100000D02*
X163299000Y-98142857D01*
X163256142Y-98228571D01*
X163256142Y-98442857D01*
X163299000Y-98528571D01*
X163341857Y-98571428D01*
X163427571Y-98614285D01*
X163513285Y-98614285D01*
X163641857Y-98571428D01*
X164156142Y-98057142D01*
X164156142Y-98614285D01*
X163256142Y-99171428D02*
X163256142Y-99257142D01*
X163299000Y-99342857D01*
X163341857Y-99385714D01*
X163427571Y-99428571D01*
X163599000Y-99471428D01*
X163813285Y-99471428D01*
X163984714Y-99428571D01*
X164070428Y-99385714D01*
X164113285Y-99342857D01*
X164156142Y-99257142D01*
X164156142Y-99171428D01*
X164113285Y-99085714D01*
X164070428Y-99042857D01*
X163984714Y-99000000D01*
X163813285Y-98957142D01*
X163599000Y-98957142D01*
X163427571Y-99000000D01*
X163341857Y-99042857D01*
X163299000Y-99085714D01*
X163256142Y-99171428D01*
X163341857Y-99814285D02*
X163299000Y-99857142D01*
X163256142Y-99942857D01*
X163256142Y-100157142D01*
X163299000Y-100242857D01*
X163341857Y-100285714D01*
X163427571Y-100328571D01*
X163513285Y-100328571D01*
X163641857Y-100285714D01*
X164156142Y-99771428D01*
X164156142Y-100328571D01*
X163556142Y-101100000D02*
X164156142Y-101100000D01*
X163213285Y-100885714D02*
X163856142Y-100671428D01*
X163856142Y-101228571D01*
X163213285Y-102214285D02*
X164370428Y-101442857D01*
X163256142Y-102685714D02*
X163256142Y-102771428D01*
X163299000Y-102857142D01*
X163341857Y-102900000D01*
X163427571Y-102942857D01*
X163599000Y-102985714D01*
X163813285Y-102985714D01*
X163984714Y-102942857D01*
X164070428Y-102900000D01*
X164113285Y-102857142D01*
X164156142Y-102771428D01*
X164156142Y-102685714D01*
X164113285Y-102600000D01*
X164070428Y-102557142D01*
X163984714Y-102514285D01*
X163813285Y-102471428D01*
X163599000Y-102471428D01*
X163427571Y-102514285D01*
X163341857Y-102557142D01*
X163299000Y-102600000D01*
X163256142Y-102685714D01*
X163341857Y-103328571D02*
X163299000Y-103371428D01*
X163256142Y-103457142D01*
X163256142Y-103671428D01*
X163299000Y-103757142D01*
X163341857Y-103800000D01*
X163427571Y-103842857D01*
X163513285Y-103842857D01*
X163641857Y-103800000D01*
X164156142Y-103285714D01*
X164156142Y-103842857D01*
X163213285Y-104871428D02*
X164370428Y-104100000D01*
X163256142Y-105342857D02*
X163256142Y-105428571D01*
X163299000Y-105514285D01*
X163341857Y-105557142D01*
X163427571Y-105600000D01*
X163599000Y-105642857D01*
X163813285Y-105642857D01*
X163984714Y-105600000D01*
X164070428Y-105557142D01*
X164113285Y-105514285D01*
X164156142Y-105428571D01*
X164156142Y-105342857D01*
X164113285Y-105257142D01*
X164070428Y-105214285D01*
X163984714Y-105171428D01*
X163813285Y-105128571D01*
X163599000Y-105128571D01*
X163427571Y-105171428D01*
X163341857Y-105214285D01*
X163299000Y-105257142D01*
X163256142Y-105342857D01*
X163256142Y-105942857D02*
X163256142Y-106500000D01*
X163599000Y-106200000D01*
X163599000Y-106328571D01*
X163641857Y-106414285D01*
X163684714Y-106457142D01*
X163770428Y-106500000D01*
X163984714Y-106500000D01*
X164070428Y-106457142D01*
X164113285Y-106414285D01*
X164156142Y-106328571D01*
X164156142Y-106071428D01*
X164113285Y-105985714D01*
X164070428Y-105942857D01*
D10*
G04 #@! TO.C,J6*
X163621428Y-114200000D02*
X164050000Y-114200000D01*
X164135714Y-114171428D01*
X164192857Y-114114285D01*
X164221428Y-114028571D01*
X164221428Y-113971428D01*
X163621428Y-114742857D02*
X163621428Y-114628571D01*
X163650000Y-114571428D01*
X163678571Y-114542857D01*
X163764285Y-114485714D01*
X163878571Y-114457142D01*
X164107142Y-114457142D01*
X164164285Y-114485714D01*
X164192857Y-114514285D01*
X164221428Y-114571428D01*
X164221428Y-114685714D01*
X164192857Y-114742857D01*
X164164285Y-114771428D01*
X164107142Y-114800000D01*
X163964285Y-114800000D01*
X163907142Y-114771428D01*
X163878571Y-114742857D01*
X163850000Y-114685714D01*
X163850000Y-114571428D01*
X163878571Y-114514285D01*
X163907142Y-114485714D01*
X163964285Y-114457142D01*
D12*
X164640000Y-119535000D02*
X163690000Y-119535000D01*
X163690000Y-115065000D02*
X163690000Y-116015000D01*
X167610000Y-115435000D02*
X167610000Y-119165000D01*
X164640000Y-115065000D02*
X163690000Y-115065000D01*
X163690000Y-116015000D02*
X163000000Y-116015000D01*
X163690000Y-119535000D02*
X163690000Y-118585000D01*
G04 #@! TO.C,U4*
X153450000Y-96650000D02*
X133750000Y-96650000D01*
X133750000Y-96650000D02*
X133750000Y-113150000D01*
X133750000Y-113150000D02*
X153450000Y-113150000D01*
X153450000Y-113150000D02*
X153450000Y-96650000D01*
D13*
X136875000Y-99500000D02*
G75*
G03*
X136875000Y-99500000I-175000J0D01*
G01*
G04 #@! TD*
M02*
