G04 #@! TF.GenerationSoftware,KiCad,Pcbnew,8.0.4*
G04 #@! TF.CreationDate,2024-09-15T19:08:50-07:00*
G04 #@! TF.ProjectId,IMX585_MIPI_Breakout_v3,494d5835-3835-45f4-9d49-50495f427265,rev?*
G04 #@! TF.SameCoordinates,Original*
G04 #@! TF.FileFunction,Soldermask,Top*
G04 #@! TF.FilePolarity,Negative*
%FSLAX46Y46*%
G04 Gerber Fmt 4.6, Leading zero omitted, Abs format (unit mm)*
G04 Created by KiCad (PCBNEW 8.0.4) date 2024-09-15 19:08:50*
%MOMM*%
%LPD*%
G01*
G04 APERTURE LIST*
%ADD10C,0.010000*%
%ADD11R,0.600000X0.600000*%
%ADD12R,0.400000X0.400000*%
%ADD13R,1.000000X1.050000*%
%ADD14R,1.050000X2.200000*%
%ADD15R,0.700000X0.300000*%
%ADD16C,1.000000*%
%ADD17C,4.600000*%
%ADD18R,0.900000X1.200000*%
%ADD19R,0.250000X0.500000*%
%ADD20R,1.600000X0.900000*%
%ADD21R,0.650000X0.850000*%
%ADD22R,0.449999X0.299999*%
%ADD23R,1.300000X0.300000*%
%ADD24R,2.200000X1.800000*%
%ADD25R,1.600000X1.000000*%
%ADD26R,2.000000X1.200000*%
%ADD27R,0.349999X1.000001*%
%ADD28R,0.254000X1.168400*%
G04 APERTURE END LIST*
D10*
G04 #@! TO.C,U12*
X151668000Y-90026000D02*
X151675000Y-90027000D01*
X151681000Y-90028000D01*
X151687000Y-90029000D01*
X151694000Y-90031000D01*
X151700000Y-90033000D01*
X151706000Y-90036000D01*
X151712000Y-90039000D01*
X151718000Y-90042000D01*
X151723000Y-90045000D01*
X151728000Y-90049000D01*
X151734000Y-90053000D01*
X151739000Y-90057000D01*
X151743000Y-90062000D01*
X151748000Y-90066000D01*
X151752000Y-90071000D01*
X151756000Y-90077000D01*
X151760000Y-90082000D01*
X151763000Y-90088000D01*
X151766000Y-90093000D01*
X151769000Y-90099000D01*
X151772000Y-90105000D01*
X151774000Y-90111000D01*
X151776000Y-90118000D01*
X151777000Y-90124000D01*
X151778000Y-90130000D01*
X151779000Y-90137000D01*
X151780000Y-90143000D01*
X151780000Y-90150000D01*
X151780000Y-90350000D01*
X151780000Y-90357000D01*
X151779000Y-90363000D01*
X151778000Y-90370000D01*
X151777000Y-90376000D01*
X151776000Y-90382000D01*
X151774000Y-90389000D01*
X151772000Y-90395000D01*
X151769000Y-90401000D01*
X151766000Y-90407000D01*
X151763000Y-90412000D01*
X151760000Y-90418000D01*
X151756000Y-90423000D01*
X151752000Y-90429000D01*
X151748000Y-90434000D01*
X151743000Y-90438000D01*
X151739000Y-90443000D01*
X151734000Y-90447000D01*
X151728000Y-90451000D01*
X151723000Y-90455000D01*
X151718000Y-90458000D01*
X151712000Y-90461000D01*
X151706000Y-90464000D01*
X151700000Y-90467000D01*
X151694000Y-90469000D01*
X151687000Y-90471000D01*
X151681000Y-90472000D01*
X151675000Y-90473000D01*
X151668000Y-90474000D01*
X151662000Y-90475000D01*
X151655000Y-90475000D01*
X151215000Y-90475000D01*
X151208000Y-90475000D01*
X151202000Y-90474000D01*
X151195000Y-90473000D01*
X151189000Y-90472000D01*
X151183000Y-90471000D01*
X151176000Y-90469000D01*
X151170000Y-90467000D01*
X151164000Y-90464000D01*
X151158000Y-90461000D01*
X151152000Y-90458000D01*
X151147000Y-90455000D01*
X151142000Y-90451000D01*
X151136000Y-90447000D01*
X151131000Y-90443000D01*
X151127000Y-90438000D01*
X151122000Y-90434000D01*
X151118000Y-90429000D01*
X151114000Y-90423000D01*
X151110000Y-90418000D01*
X151107000Y-90412000D01*
X151104000Y-90407000D01*
X151101000Y-90401000D01*
X151098000Y-90395000D01*
X151096000Y-90389000D01*
X151094000Y-90382000D01*
X151093000Y-90376000D01*
X151092000Y-90370000D01*
X151091000Y-90363000D01*
X151090000Y-90357000D01*
X151090000Y-90350000D01*
X151090000Y-90150000D01*
X151090000Y-90143000D01*
X151091000Y-90137000D01*
X151092000Y-90130000D01*
X151093000Y-90124000D01*
X151094000Y-90118000D01*
X151096000Y-90111000D01*
X151098000Y-90105000D01*
X151101000Y-90099000D01*
X151104000Y-90093000D01*
X151107000Y-90088000D01*
X151110000Y-90082000D01*
X151114000Y-90077000D01*
X151118000Y-90071000D01*
X151122000Y-90066000D01*
X151127000Y-90062000D01*
X151131000Y-90057000D01*
X151136000Y-90053000D01*
X151142000Y-90049000D01*
X151147000Y-90045000D01*
X151152000Y-90042000D01*
X151158000Y-90039000D01*
X151164000Y-90036000D01*
X151170000Y-90033000D01*
X151176000Y-90031000D01*
X151183000Y-90029000D01*
X151189000Y-90028000D01*
X151195000Y-90027000D01*
X151202000Y-90026000D01*
X151208000Y-90025000D01*
X151215000Y-90025000D01*
X151655000Y-90025000D01*
X151662000Y-90025000D01*
X151668000Y-90026000D01*
G36*
X151668000Y-90026000D02*
G01*
X151675000Y-90027000D01*
X151681000Y-90028000D01*
X151687000Y-90029000D01*
X151694000Y-90031000D01*
X151700000Y-90033000D01*
X151706000Y-90036000D01*
X151712000Y-90039000D01*
X151718000Y-90042000D01*
X151723000Y-90045000D01*
X151728000Y-90049000D01*
X151734000Y-90053000D01*
X151739000Y-90057000D01*
X151743000Y-90062000D01*
X151748000Y-90066000D01*
X151752000Y-90071000D01*
X151756000Y-90077000D01*
X151760000Y-90082000D01*
X151763000Y-90088000D01*
X151766000Y-90093000D01*
X151769000Y-90099000D01*
X151772000Y-90105000D01*
X151774000Y-90111000D01*
X151776000Y-90118000D01*
X151777000Y-90124000D01*
X151778000Y-90130000D01*
X151779000Y-90137000D01*
X151780000Y-90143000D01*
X151780000Y-90150000D01*
X151780000Y-90350000D01*
X151780000Y-90357000D01*
X151779000Y-90363000D01*
X151778000Y-90370000D01*
X151777000Y-90376000D01*
X151776000Y-90382000D01*
X151774000Y-90389000D01*
X151772000Y-90395000D01*
X151769000Y-90401000D01*
X151766000Y-90407000D01*
X151763000Y-90412000D01*
X151760000Y-90418000D01*
X151756000Y-90423000D01*
X151752000Y-90429000D01*
X151748000Y-90434000D01*
X151743000Y-90438000D01*
X151739000Y-90443000D01*
X151734000Y-90447000D01*
X151728000Y-90451000D01*
X151723000Y-90455000D01*
X151718000Y-90458000D01*
X151712000Y-90461000D01*
X151706000Y-90464000D01*
X151700000Y-90467000D01*
X151694000Y-90469000D01*
X151687000Y-90471000D01*
X151681000Y-90472000D01*
X151675000Y-90473000D01*
X151668000Y-90474000D01*
X151662000Y-90475000D01*
X151655000Y-90475000D01*
X151215000Y-90475000D01*
X151208000Y-90475000D01*
X151202000Y-90474000D01*
X151195000Y-90473000D01*
X151189000Y-90472000D01*
X151183000Y-90471000D01*
X151176000Y-90469000D01*
X151170000Y-90467000D01*
X151164000Y-90464000D01*
X151158000Y-90461000D01*
X151152000Y-90458000D01*
X151147000Y-90455000D01*
X151142000Y-90451000D01*
X151136000Y-90447000D01*
X151131000Y-90443000D01*
X151127000Y-90438000D01*
X151122000Y-90434000D01*
X151118000Y-90429000D01*
X151114000Y-90423000D01*
X151110000Y-90418000D01*
X151107000Y-90412000D01*
X151104000Y-90407000D01*
X151101000Y-90401000D01*
X151098000Y-90395000D01*
X151096000Y-90389000D01*
X151094000Y-90382000D01*
X151093000Y-90376000D01*
X151092000Y-90370000D01*
X151091000Y-90363000D01*
X151090000Y-90357000D01*
X151090000Y-90350000D01*
X151090000Y-90150000D01*
X151090000Y-90143000D01*
X151091000Y-90137000D01*
X151092000Y-90130000D01*
X151093000Y-90124000D01*
X151094000Y-90118000D01*
X151096000Y-90111000D01*
X151098000Y-90105000D01*
X151101000Y-90099000D01*
X151104000Y-90093000D01*
X151107000Y-90088000D01*
X151110000Y-90082000D01*
X151114000Y-90077000D01*
X151118000Y-90071000D01*
X151122000Y-90066000D01*
X151127000Y-90062000D01*
X151131000Y-90057000D01*
X151136000Y-90053000D01*
X151142000Y-90049000D01*
X151147000Y-90045000D01*
X151152000Y-90042000D01*
X151158000Y-90039000D01*
X151164000Y-90036000D01*
X151170000Y-90033000D01*
X151176000Y-90031000D01*
X151183000Y-90029000D01*
X151189000Y-90028000D01*
X151195000Y-90027000D01*
X151202000Y-90026000D01*
X151208000Y-90025000D01*
X151215000Y-90025000D01*
X151655000Y-90025000D01*
X151662000Y-90025000D01*
X151668000Y-90026000D01*
G37*
X152713000Y-91071000D02*
X152720000Y-91072000D01*
X152726000Y-91073000D01*
X152732000Y-91074000D01*
X152739000Y-91076000D01*
X152745000Y-91078000D01*
X152751000Y-91081000D01*
X152757000Y-91084000D01*
X152763000Y-91087000D01*
X152768000Y-91090000D01*
X152773000Y-91094000D01*
X152779000Y-91098000D01*
X152784000Y-91102000D01*
X152788000Y-91107000D01*
X152793000Y-91111000D01*
X152797000Y-91116000D01*
X152801000Y-91122000D01*
X152805000Y-91127000D01*
X152808000Y-91132000D01*
X152811000Y-91138000D01*
X152814000Y-91144000D01*
X152817000Y-91150000D01*
X152819000Y-91156000D01*
X152821000Y-91163000D01*
X152822000Y-91169000D01*
X152823000Y-91175000D01*
X152824000Y-91182000D01*
X152825000Y-91188000D01*
X152825000Y-91195000D01*
X152825000Y-91635000D01*
X152825000Y-91642000D01*
X152824000Y-91648000D01*
X152823000Y-91655000D01*
X152822000Y-91661000D01*
X152821000Y-91667000D01*
X152819000Y-91674000D01*
X152817000Y-91680000D01*
X152814000Y-91686000D01*
X152811000Y-91692000D01*
X152808000Y-91698000D01*
X152805000Y-91703000D01*
X152801000Y-91708000D01*
X152797000Y-91714000D01*
X152793000Y-91719000D01*
X152788000Y-91723000D01*
X152784000Y-91728000D01*
X152779000Y-91732000D01*
X152773000Y-91736000D01*
X152768000Y-91740000D01*
X152763000Y-91743000D01*
X152757000Y-91746000D01*
X152751000Y-91749000D01*
X152745000Y-91752000D01*
X152739000Y-91754000D01*
X152732000Y-91756000D01*
X152726000Y-91757000D01*
X152720000Y-91758000D01*
X152713000Y-91759000D01*
X152707000Y-91760000D01*
X152700000Y-91760000D01*
X152500000Y-91760000D01*
X152493000Y-91760000D01*
X152487000Y-91759000D01*
X152480000Y-91758000D01*
X152474000Y-91757000D01*
X152468000Y-91756000D01*
X152461000Y-91754000D01*
X152455000Y-91752000D01*
X152449000Y-91749000D01*
X152443000Y-91746000D01*
X152437000Y-91743000D01*
X152432000Y-91740000D01*
X152427000Y-91736000D01*
X152421000Y-91732000D01*
X152416000Y-91728000D01*
X152412000Y-91723000D01*
X152407000Y-91719000D01*
X152403000Y-91714000D01*
X152399000Y-91708000D01*
X152395000Y-91703000D01*
X152392000Y-91698000D01*
X152389000Y-91692000D01*
X152386000Y-91686000D01*
X152383000Y-91680000D01*
X152381000Y-91674000D01*
X152379000Y-91667000D01*
X152378000Y-91661000D01*
X152377000Y-91655000D01*
X152376000Y-91648000D01*
X152375000Y-91642000D01*
X152375000Y-91635000D01*
X152375000Y-91195000D01*
X152375000Y-91188000D01*
X152376000Y-91182000D01*
X152377000Y-91175000D01*
X152378000Y-91169000D01*
X152379000Y-91163000D01*
X152381000Y-91156000D01*
X152383000Y-91150000D01*
X152386000Y-91144000D01*
X152389000Y-91138000D01*
X152392000Y-91132000D01*
X152395000Y-91127000D01*
X152399000Y-91122000D01*
X152403000Y-91116000D01*
X152407000Y-91111000D01*
X152412000Y-91107000D01*
X152416000Y-91102000D01*
X152421000Y-91098000D01*
X152427000Y-91094000D01*
X152432000Y-91090000D01*
X152438000Y-91087000D01*
X152443000Y-91084000D01*
X152449000Y-91081000D01*
X152455000Y-91078000D01*
X152461000Y-91076000D01*
X152468000Y-91074000D01*
X152474000Y-91073000D01*
X152480000Y-91072000D01*
X152487000Y-91071000D01*
X152493000Y-91070000D01*
X152500000Y-91070000D01*
X152700000Y-91070000D01*
X152707000Y-91070000D01*
X152713000Y-91071000D01*
G36*
X152713000Y-91071000D02*
G01*
X152720000Y-91072000D01*
X152726000Y-91073000D01*
X152732000Y-91074000D01*
X152739000Y-91076000D01*
X152745000Y-91078000D01*
X152751000Y-91081000D01*
X152757000Y-91084000D01*
X152763000Y-91087000D01*
X152768000Y-91090000D01*
X152773000Y-91094000D01*
X152779000Y-91098000D01*
X152784000Y-91102000D01*
X152788000Y-91107000D01*
X152793000Y-91111000D01*
X152797000Y-91116000D01*
X152801000Y-91122000D01*
X152805000Y-91127000D01*
X152808000Y-91132000D01*
X152811000Y-91138000D01*
X152814000Y-91144000D01*
X152817000Y-91150000D01*
X152819000Y-91156000D01*
X152821000Y-91163000D01*
X152822000Y-91169000D01*
X152823000Y-91175000D01*
X152824000Y-91182000D01*
X152825000Y-91188000D01*
X152825000Y-91195000D01*
X152825000Y-91635000D01*
X152825000Y-91642000D01*
X152824000Y-91648000D01*
X152823000Y-91655000D01*
X152822000Y-91661000D01*
X152821000Y-91667000D01*
X152819000Y-91674000D01*
X152817000Y-91680000D01*
X152814000Y-91686000D01*
X152811000Y-91692000D01*
X152808000Y-91698000D01*
X152805000Y-91703000D01*
X152801000Y-91708000D01*
X152797000Y-91714000D01*
X152793000Y-91719000D01*
X152788000Y-91723000D01*
X152784000Y-91728000D01*
X152779000Y-91732000D01*
X152773000Y-91736000D01*
X152768000Y-91740000D01*
X152763000Y-91743000D01*
X152757000Y-91746000D01*
X152751000Y-91749000D01*
X152745000Y-91752000D01*
X152739000Y-91754000D01*
X152732000Y-91756000D01*
X152726000Y-91757000D01*
X152720000Y-91758000D01*
X152713000Y-91759000D01*
X152707000Y-91760000D01*
X152700000Y-91760000D01*
X152500000Y-91760000D01*
X152493000Y-91760000D01*
X152487000Y-91759000D01*
X152480000Y-91758000D01*
X152474000Y-91757000D01*
X152468000Y-91756000D01*
X152461000Y-91754000D01*
X152455000Y-91752000D01*
X152449000Y-91749000D01*
X152443000Y-91746000D01*
X152437000Y-91743000D01*
X152432000Y-91740000D01*
X152427000Y-91736000D01*
X152421000Y-91732000D01*
X152416000Y-91728000D01*
X152412000Y-91723000D01*
X152407000Y-91719000D01*
X152403000Y-91714000D01*
X152399000Y-91708000D01*
X152395000Y-91703000D01*
X152392000Y-91698000D01*
X152389000Y-91692000D01*
X152386000Y-91686000D01*
X152383000Y-91680000D01*
X152381000Y-91674000D01*
X152379000Y-91667000D01*
X152378000Y-91661000D01*
X152377000Y-91655000D01*
X152376000Y-91648000D01*
X152375000Y-91642000D01*
X152375000Y-91635000D01*
X152375000Y-91195000D01*
X152375000Y-91188000D01*
X152376000Y-91182000D01*
X152377000Y-91175000D01*
X152378000Y-91169000D01*
X152379000Y-91163000D01*
X152381000Y-91156000D01*
X152383000Y-91150000D01*
X152386000Y-91144000D01*
X152389000Y-91138000D01*
X152392000Y-91132000D01*
X152395000Y-91127000D01*
X152399000Y-91122000D01*
X152403000Y-91116000D01*
X152407000Y-91111000D01*
X152412000Y-91107000D01*
X152416000Y-91102000D01*
X152421000Y-91098000D01*
X152427000Y-91094000D01*
X152432000Y-91090000D01*
X152438000Y-91087000D01*
X152443000Y-91084000D01*
X152449000Y-91081000D01*
X152455000Y-91078000D01*
X152461000Y-91076000D01*
X152468000Y-91074000D01*
X152474000Y-91073000D01*
X152480000Y-91072000D01*
X152487000Y-91071000D01*
X152493000Y-91070000D01*
X152500000Y-91070000D01*
X152700000Y-91070000D01*
X152707000Y-91070000D01*
X152713000Y-91071000D01*
G37*
X153998000Y-91026000D02*
X154005000Y-91027000D01*
X154011000Y-91028000D01*
X154017000Y-91029000D01*
X154024000Y-91031000D01*
X154030000Y-91033000D01*
X154036000Y-91036000D01*
X154042000Y-91039000D01*
X154048000Y-91042000D01*
X154053000Y-91045000D01*
X154058000Y-91049000D01*
X154064000Y-91053000D01*
X154069000Y-91057000D01*
X154073000Y-91062000D01*
X154078000Y-91066000D01*
X154082000Y-91071000D01*
X154086000Y-91077000D01*
X154090000Y-91082000D01*
X154093000Y-91088000D01*
X154096000Y-91093000D01*
X154099000Y-91099000D01*
X154102000Y-91105000D01*
X154104000Y-91111000D01*
X154106000Y-91118000D01*
X154107000Y-91124000D01*
X154108000Y-91130000D01*
X154109000Y-91137000D01*
X154110000Y-91143000D01*
X154110000Y-91150000D01*
X154110000Y-91350000D01*
X154110000Y-91357000D01*
X154109000Y-91363000D01*
X154108000Y-91370000D01*
X154107000Y-91376000D01*
X154106000Y-91382000D01*
X154104000Y-91389000D01*
X154102000Y-91395000D01*
X154099000Y-91401000D01*
X154096000Y-91407000D01*
X154093000Y-91412000D01*
X154090000Y-91418000D01*
X154086000Y-91423000D01*
X154082000Y-91429000D01*
X154078000Y-91434000D01*
X154073000Y-91438000D01*
X154069000Y-91443000D01*
X154064000Y-91447000D01*
X154058000Y-91451000D01*
X154053000Y-91455000D01*
X154048000Y-91458000D01*
X154042000Y-91461000D01*
X154036000Y-91464000D01*
X154030000Y-91467000D01*
X154024000Y-91469000D01*
X154017000Y-91471000D01*
X154011000Y-91472000D01*
X154005000Y-91473000D01*
X153998000Y-91474000D01*
X153992000Y-91475000D01*
X153985000Y-91475000D01*
X153545000Y-91475000D01*
X153538000Y-91475000D01*
X153532000Y-91474000D01*
X153525000Y-91473000D01*
X153519000Y-91472000D01*
X153513000Y-91471000D01*
X153506000Y-91469000D01*
X153500000Y-91467000D01*
X153494000Y-91464000D01*
X153488000Y-91461000D01*
X153482000Y-91458000D01*
X153477000Y-91455000D01*
X153472000Y-91451000D01*
X153466000Y-91447000D01*
X153461000Y-91443000D01*
X153457000Y-91438000D01*
X153452000Y-91434000D01*
X153448000Y-91429000D01*
X153444000Y-91423000D01*
X153440000Y-91418000D01*
X153437000Y-91412000D01*
X153434000Y-91407000D01*
X153431000Y-91401000D01*
X153428000Y-91395000D01*
X153426000Y-91389000D01*
X153424000Y-91382000D01*
X153423000Y-91376000D01*
X153422000Y-91370000D01*
X153421000Y-91363000D01*
X153420000Y-91357000D01*
X153420000Y-91350000D01*
X153420000Y-91150000D01*
X153420000Y-91143000D01*
X153421000Y-91137000D01*
X153422000Y-91130000D01*
X153423000Y-91124000D01*
X153424000Y-91118000D01*
X153426000Y-91111000D01*
X153428000Y-91105000D01*
X153431000Y-91099000D01*
X153434000Y-91093000D01*
X153437000Y-91088000D01*
X153440000Y-91082000D01*
X153444000Y-91077000D01*
X153448000Y-91071000D01*
X153452000Y-91066000D01*
X153457000Y-91062000D01*
X153461000Y-91057000D01*
X153466000Y-91053000D01*
X153472000Y-91049000D01*
X153477000Y-91045000D01*
X153482000Y-91042000D01*
X153488000Y-91039000D01*
X153494000Y-91036000D01*
X153500000Y-91033000D01*
X153506000Y-91031000D01*
X153513000Y-91029000D01*
X153519000Y-91028000D01*
X153525000Y-91027000D01*
X153532000Y-91026000D01*
X153538000Y-91025000D01*
X153545000Y-91025000D01*
X153985000Y-91025000D01*
X153992000Y-91025000D01*
X153998000Y-91026000D01*
G36*
X153998000Y-91026000D02*
G01*
X154005000Y-91027000D01*
X154011000Y-91028000D01*
X154017000Y-91029000D01*
X154024000Y-91031000D01*
X154030000Y-91033000D01*
X154036000Y-91036000D01*
X154042000Y-91039000D01*
X154048000Y-91042000D01*
X154053000Y-91045000D01*
X154058000Y-91049000D01*
X154064000Y-91053000D01*
X154069000Y-91057000D01*
X154073000Y-91062000D01*
X154078000Y-91066000D01*
X154082000Y-91071000D01*
X154086000Y-91077000D01*
X154090000Y-91082000D01*
X154093000Y-91088000D01*
X154096000Y-91093000D01*
X154099000Y-91099000D01*
X154102000Y-91105000D01*
X154104000Y-91111000D01*
X154106000Y-91118000D01*
X154107000Y-91124000D01*
X154108000Y-91130000D01*
X154109000Y-91137000D01*
X154110000Y-91143000D01*
X154110000Y-91150000D01*
X154110000Y-91350000D01*
X154110000Y-91357000D01*
X154109000Y-91363000D01*
X154108000Y-91370000D01*
X154107000Y-91376000D01*
X154106000Y-91382000D01*
X154104000Y-91389000D01*
X154102000Y-91395000D01*
X154099000Y-91401000D01*
X154096000Y-91407000D01*
X154093000Y-91412000D01*
X154090000Y-91418000D01*
X154086000Y-91423000D01*
X154082000Y-91429000D01*
X154078000Y-91434000D01*
X154073000Y-91438000D01*
X154069000Y-91443000D01*
X154064000Y-91447000D01*
X154058000Y-91451000D01*
X154053000Y-91455000D01*
X154048000Y-91458000D01*
X154042000Y-91461000D01*
X154036000Y-91464000D01*
X154030000Y-91467000D01*
X154024000Y-91469000D01*
X154017000Y-91471000D01*
X154011000Y-91472000D01*
X154005000Y-91473000D01*
X153998000Y-91474000D01*
X153992000Y-91475000D01*
X153985000Y-91475000D01*
X153545000Y-91475000D01*
X153538000Y-91475000D01*
X153532000Y-91474000D01*
X153525000Y-91473000D01*
X153519000Y-91472000D01*
X153513000Y-91471000D01*
X153506000Y-91469000D01*
X153500000Y-91467000D01*
X153494000Y-91464000D01*
X153488000Y-91461000D01*
X153482000Y-91458000D01*
X153477000Y-91455000D01*
X153472000Y-91451000D01*
X153466000Y-91447000D01*
X153461000Y-91443000D01*
X153457000Y-91438000D01*
X153452000Y-91434000D01*
X153448000Y-91429000D01*
X153444000Y-91423000D01*
X153440000Y-91418000D01*
X153437000Y-91412000D01*
X153434000Y-91407000D01*
X153431000Y-91401000D01*
X153428000Y-91395000D01*
X153426000Y-91389000D01*
X153424000Y-91382000D01*
X153423000Y-91376000D01*
X153422000Y-91370000D01*
X153421000Y-91363000D01*
X153420000Y-91357000D01*
X153420000Y-91350000D01*
X153420000Y-91150000D01*
X153420000Y-91143000D01*
X153421000Y-91137000D01*
X153422000Y-91130000D01*
X153423000Y-91124000D01*
X153424000Y-91118000D01*
X153426000Y-91111000D01*
X153428000Y-91105000D01*
X153431000Y-91099000D01*
X153434000Y-91093000D01*
X153437000Y-91088000D01*
X153440000Y-91082000D01*
X153444000Y-91077000D01*
X153448000Y-91071000D01*
X153452000Y-91066000D01*
X153457000Y-91062000D01*
X153461000Y-91057000D01*
X153466000Y-91053000D01*
X153472000Y-91049000D01*
X153477000Y-91045000D01*
X153482000Y-91042000D01*
X153488000Y-91039000D01*
X153494000Y-91036000D01*
X153500000Y-91033000D01*
X153506000Y-91031000D01*
X153513000Y-91029000D01*
X153519000Y-91028000D01*
X153525000Y-91027000D01*
X153532000Y-91026000D01*
X153538000Y-91025000D01*
X153545000Y-91025000D01*
X153985000Y-91025000D01*
X153992000Y-91025000D01*
X153998000Y-91026000D01*
G37*
X152213000Y-91071000D02*
X152220000Y-91072000D01*
X152226000Y-91073000D01*
X152232000Y-91074000D01*
X152239000Y-91076000D01*
X152245000Y-91078000D01*
X152251000Y-91081000D01*
X152257000Y-91084000D01*
X152262000Y-91087000D01*
X152268000Y-91090000D01*
X152273000Y-91094000D01*
X152279000Y-91098000D01*
X152284000Y-91102000D01*
X152288000Y-91107000D01*
X152293000Y-91111000D01*
X152297000Y-91116000D01*
X152301000Y-91122000D01*
X152305000Y-91127000D01*
X152308000Y-91132000D01*
X152311000Y-91138000D01*
X152314000Y-91144000D01*
X152317000Y-91150000D01*
X152319000Y-91156000D01*
X152321000Y-91163000D01*
X152322000Y-91169000D01*
X152323000Y-91175000D01*
X152324000Y-91182000D01*
X152325000Y-91188000D01*
X152325000Y-91195000D01*
X152325000Y-91635000D01*
X152325000Y-91642000D01*
X152324000Y-91648000D01*
X152323000Y-91655000D01*
X152322000Y-91661000D01*
X152321000Y-91667000D01*
X152319000Y-91674000D01*
X152317000Y-91680000D01*
X152314000Y-91686000D01*
X152311000Y-91692000D01*
X152308000Y-91698000D01*
X152305000Y-91703000D01*
X152301000Y-91708000D01*
X152297000Y-91714000D01*
X152293000Y-91719000D01*
X152288000Y-91723000D01*
X152284000Y-91728000D01*
X152279000Y-91732000D01*
X152273000Y-91736000D01*
X152268000Y-91740000D01*
X152262000Y-91743000D01*
X152257000Y-91746000D01*
X152251000Y-91749000D01*
X152245000Y-91752000D01*
X152239000Y-91754000D01*
X152232000Y-91756000D01*
X152226000Y-91757000D01*
X152220000Y-91758000D01*
X152213000Y-91759000D01*
X152207000Y-91760000D01*
X152200000Y-91760000D01*
X152000000Y-91760000D01*
X151993000Y-91760000D01*
X151987000Y-91759000D01*
X151980000Y-91758000D01*
X151974000Y-91757000D01*
X151968000Y-91756000D01*
X151961000Y-91754000D01*
X151955000Y-91752000D01*
X151949000Y-91749000D01*
X151943000Y-91746000D01*
X151937000Y-91743000D01*
X151932000Y-91740000D01*
X151927000Y-91736000D01*
X151921000Y-91732000D01*
X151916000Y-91728000D01*
X151912000Y-91723000D01*
X151907000Y-91719000D01*
X151903000Y-91714000D01*
X151899000Y-91708000D01*
X151895000Y-91703000D01*
X151892000Y-91698000D01*
X151889000Y-91692000D01*
X151886000Y-91686000D01*
X151883000Y-91680000D01*
X151881000Y-91674000D01*
X151879000Y-91667000D01*
X151878000Y-91661000D01*
X151877000Y-91655000D01*
X151876000Y-91648000D01*
X151875000Y-91642000D01*
X151875000Y-91635000D01*
X151875000Y-91195000D01*
X151875000Y-91188000D01*
X151876000Y-91182000D01*
X151877000Y-91175000D01*
X151878000Y-91169000D01*
X151879000Y-91163000D01*
X151881000Y-91156000D01*
X151883000Y-91150000D01*
X151886000Y-91144000D01*
X151889000Y-91138000D01*
X151892000Y-91132000D01*
X151895000Y-91127000D01*
X151899000Y-91122000D01*
X151903000Y-91116000D01*
X151907000Y-91111000D01*
X151912000Y-91107000D01*
X151916000Y-91102000D01*
X151921000Y-91098000D01*
X151927000Y-91094000D01*
X151932000Y-91090000D01*
X151938000Y-91087000D01*
X151943000Y-91084000D01*
X151949000Y-91081000D01*
X151955000Y-91078000D01*
X151961000Y-91076000D01*
X151968000Y-91074000D01*
X151974000Y-91073000D01*
X151980000Y-91072000D01*
X151987000Y-91071000D01*
X151993000Y-91070000D01*
X152000000Y-91070000D01*
X152200000Y-91070000D01*
X152207000Y-91070000D01*
X152213000Y-91071000D01*
G36*
X152213000Y-91071000D02*
G01*
X152220000Y-91072000D01*
X152226000Y-91073000D01*
X152232000Y-91074000D01*
X152239000Y-91076000D01*
X152245000Y-91078000D01*
X152251000Y-91081000D01*
X152257000Y-91084000D01*
X152262000Y-91087000D01*
X152268000Y-91090000D01*
X152273000Y-91094000D01*
X152279000Y-91098000D01*
X152284000Y-91102000D01*
X152288000Y-91107000D01*
X152293000Y-91111000D01*
X152297000Y-91116000D01*
X152301000Y-91122000D01*
X152305000Y-91127000D01*
X152308000Y-91132000D01*
X152311000Y-91138000D01*
X152314000Y-91144000D01*
X152317000Y-91150000D01*
X152319000Y-91156000D01*
X152321000Y-91163000D01*
X152322000Y-91169000D01*
X152323000Y-91175000D01*
X152324000Y-91182000D01*
X152325000Y-91188000D01*
X152325000Y-91195000D01*
X152325000Y-91635000D01*
X152325000Y-91642000D01*
X152324000Y-91648000D01*
X152323000Y-91655000D01*
X152322000Y-91661000D01*
X152321000Y-91667000D01*
X152319000Y-91674000D01*
X152317000Y-91680000D01*
X152314000Y-91686000D01*
X152311000Y-91692000D01*
X152308000Y-91698000D01*
X152305000Y-91703000D01*
X152301000Y-91708000D01*
X152297000Y-91714000D01*
X152293000Y-91719000D01*
X152288000Y-91723000D01*
X152284000Y-91728000D01*
X152279000Y-91732000D01*
X152273000Y-91736000D01*
X152268000Y-91740000D01*
X152262000Y-91743000D01*
X152257000Y-91746000D01*
X152251000Y-91749000D01*
X152245000Y-91752000D01*
X152239000Y-91754000D01*
X152232000Y-91756000D01*
X152226000Y-91757000D01*
X152220000Y-91758000D01*
X152213000Y-91759000D01*
X152207000Y-91760000D01*
X152200000Y-91760000D01*
X152000000Y-91760000D01*
X151993000Y-91760000D01*
X151987000Y-91759000D01*
X151980000Y-91758000D01*
X151974000Y-91757000D01*
X151968000Y-91756000D01*
X151961000Y-91754000D01*
X151955000Y-91752000D01*
X151949000Y-91749000D01*
X151943000Y-91746000D01*
X151937000Y-91743000D01*
X151932000Y-91740000D01*
X151927000Y-91736000D01*
X151921000Y-91732000D01*
X151916000Y-91728000D01*
X151912000Y-91723000D01*
X151907000Y-91719000D01*
X151903000Y-91714000D01*
X151899000Y-91708000D01*
X151895000Y-91703000D01*
X151892000Y-91698000D01*
X151889000Y-91692000D01*
X151886000Y-91686000D01*
X151883000Y-91680000D01*
X151881000Y-91674000D01*
X151879000Y-91667000D01*
X151878000Y-91661000D01*
X151877000Y-91655000D01*
X151876000Y-91648000D01*
X151875000Y-91642000D01*
X151875000Y-91635000D01*
X151875000Y-91195000D01*
X151875000Y-91188000D01*
X151876000Y-91182000D01*
X151877000Y-91175000D01*
X151878000Y-91169000D01*
X151879000Y-91163000D01*
X151881000Y-91156000D01*
X151883000Y-91150000D01*
X151886000Y-91144000D01*
X151889000Y-91138000D01*
X151892000Y-91132000D01*
X151895000Y-91127000D01*
X151899000Y-91122000D01*
X151903000Y-91116000D01*
X151907000Y-91111000D01*
X151912000Y-91107000D01*
X151916000Y-91102000D01*
X151921000Y-91098000D01*
X151927000Y-91094000D01*
X151932000Y-91090000D01*
X151938000Y-91087000D01*
X151943000Y-91084000D01*
X151949000Y-91081000D01*
X151955000Y-91078000D01*
X151961000Y-91076000D01*
X151968000Y-91074000D01*
X151974000Y-91073000D01*
X151980000Y-91072000D01*
X151987000Y-91071000D01*
X151993000Y-91070000D01*
X152000000Y-91070000D01*
X152200000Y-91070000D01*
X152207000Y-91070000D01*
X152213000Y-91071000D01*
G37*
X153213000Y-89241000D02*
X153220000Y-89242000D01*
X153226000Y-89243000D01*
X153232000Y-89244000D01*
X153239000Y-89246000D01*
X153245000Y-89248000D01*
X153251000Y-89251000D01*
X153257000Y-89254000D01*
X153262000Y-89257000D01*
X153268000Y-89260000D01*
X153273000Y-89264000D01*
X153279000Y-89268000D01*
X153284000Y-89272000D01*
X153288000Y-89277000D01*
X153293000Y-89281000D01*
X153297000Y-89286000D01*
X153301000Y-89292000D01*
X153305000Y-89297000D01*
X153308000Y-89302000D01*
X153311000Y-89308000D01*
X153314000Y-89314000D01*
X153317000Y-89320000D01*
X153319000Y-89326000D01*
X153321000Y-89333000D01*
X153322000Y-89339000D01*
X153323000Y-89345000D01*
X153324000Y-89352000D01*
X153325000Y-89358000D01*
X153325000Y-89365000D01*
X153325000Y-89805000D01*
X153325000Y-89812000D01*
X153324000Y-89818000D01*
X153323000Y-89825000D01*
X153322000Y-89831000D01*
X153321000Y-89837000D01*
X153319000Y-89844000D01*
X153317000Y-89850000D01*
X153314000Y-89856000D01*
X153311000Y-89862000D01*
X153308000Y-89868000D01*
X153305000Y-89873000D01*
X153301000Y-89878000D01*
X153297000Y-89884000D01*
X153293000Y-89889000D01*
X153288000Y-89893000D01*
X153284000Y-89898000D01*
X153279000Y-89902000D01*
X153273000Y-89906000D01*
X153268000Y-89910000D01*
X153262000Y-89913000D01*
X153257000Y-89916000D01*
X153251000Y-89919000D01*
X153245000Y-89922000D01*
X153239000Y-89924000D01*
X153232000Y-89926000D01*
X153226000Y-89927000D01*
X153220000Y-89928000D01*
X153213000Y-89929000D01*
X153207000Y-89930000D01*
X153200000Y-89930000D01*
X153000000Y-89930000D01*
X152993000Y-89930000D01*
X152987000Y-89929000D01*
X152980000Y-89928000D01*
X152974000Y-89927000D01*
X152968000Y-89926000D01*
X152961000Y-89924000D01*
X152955000Y-89922000D01*
X152949000Y-89919000D01*
X152943000Y-89916000D01*
X152937000Y-89913000D01*
X152932000Y-89910000D01*
X152927000Y-89906000D01*
X152921000Y-89902000D01*
X152916000Y-89898000D01*
X152912000Y-89893000D01*
X152907000Y-89889000D01*
X152903000Y-89884000D01*
X152899000Y-89878000D01*
X152895000Y-89873000D01*
X152892000Y-89868000D01*
X152889000Y-89862000D01*
X152886000Y-89856000D01*
X152883000Y-89850000D01*
X152881000Y-89844000D01*
X152879000Y-89837000D01*
X152878000Y-89831000D01*
X152877000Y-89825000D01*
X152876000Y-89818000D01*
X152875000Y-89812000D01*
X152875000Y-89805000D01*
X152875000Y-89365000D01*
X152875000Y-89358000D01*
X152876000Y-89352000D01*
X152877000Y-89345000D01*
X152878000Y-89339000D01*
X152879000Y-89333000D01*
X152881000Y-89326000D01*
X152883000Y-89320000D01*
X152886000Y-89314000D01*
X152889000Y-89308000D01*
X152892000Y-89302000D01*
X152895000Y-89297000D01*
X152899000Y-89292000D01*
X152903000Y-89286000D01*
X152907000Y-89281000D01*
X152912000Y-89277000D01*
X152916000Y-89272000D01*
X152921000Y-89268000D01*
X152927000Y-89264000D01*
X152932000Y-89260000D01*
X152938000Y-89257000D01*
X152943000Y-89254000D01*
X152949000Y-89251000D01*
X152955000Y-89248000D01*
X152961000Y-89246000D01*
X152968000Y-89244000D01*
X152974000Y-89243000D01*
X152980000Y-89242000D01*
X152987000Y-89241000D01*
X152993000Y-89240000D01*
X153000000Y-89240000D01*
X153200000Y-89240000D01*
X153207000Y-89240000D01*
X153213000Y-89241000D01*
G36*
X153213000Y-89241000D02*
G01*
X153220000Y-89242000D01*
X153226000Y-89243000D01*
X153232000Y-89244000D01*
X153239000Y-89246000D01*
X153245000Y-89248000D01*
X153251000Y-89251000D01*
X153257000Y-89254000D01*
X153262000Y-89257000D01*
X153268000Y-89260000D01*
X153273000Y-89264000D01*
X153279000Y-89268000D01*
X153284000Y-89272000D01*
X153288000Y-89277000D01*
X153293000Y-89281000D01*
X153297000Y-89286000D01*
X153301000Y-89292000D01*
X153305000Y-89297000D01*
X153308000Y-89302000D01*
X153311000Y-89308000D01*
X153314000Y-89314000D01*
X153317000Y-89320000D01*
X153319000Y-89326000D01*
X153321000Y-89333000D01*
X153322000Y-89339000D01*
X153323000Y-89345000D01*
X153324000Y-89352000D01*
X153325000Y-89358000D01*
X153325000Y-89365000D01*
X153325000Y-89805000D01*
X153325000Y-89812000D01*
X153324000Y-89818000D01*
X153323000Y-89825000D01*
X153322000Y-89831000D01*
X153321000Y-89837000D01*
X153319000Y-89844000D01*
X153317000Y-89850000D01*
X153314000Y-89856000D01*
X153311000Y-89862000D01*
X153308000Y-89868000D01*
X153305000Y-89873000D01*
X153301000Y-89878000D01*
X153297000Y-89884000D01*
X153293000Y-89889000D01*
X153288000Y-89893000D01*
X153284000Y-89898000D01*
X153279000Y-89902000D01*
X153273000Y-89906000D01*
X153268000Y-89910000D01*
X153262000Y-89913000D01*
X153257000Y-89916000D01*
X153251000Y-89919000D01*
X153245000Y-89922000D01*
X153239000Y-89924000D01*
X153232000Y-89926000D01*
X153226000Y-89927000D01*
X153220000Y-89928000D01*
X153213000Y-89929000D01*
X153207000Y-89930000D01*
X153200000Y-89930000D01*
X153000000Y-89930000D01*
X152993000Y-89930000D01*
X152987000Y-89929000D01*
X152980000Y-89928000D01*
X152974000Y-89927000D01*
X152968000Y-89926000D01*
X152961000Y-89924000D01*
X152955000Y-89922000D01*
X152949000Y-89919000D01*
X152943000Y-89916000D01*
X152937000Y-89913000D01*
X152932000Y-89910000D01*
X152927000Y-89906000D01*
X152921000Y-89902000D01*
X152916000Y-89898000D01*
X152912000Y-89893000D01*
X152907000Y-89889000D01*
X152903000Y-89884000D01*
X152899000Y-89878000D01*
X152895000Y-89873000D01*
X152892000Y-89868000D01*
X152889000Y-89862000D01*
X152886000Y-89856000D01*
X152883000Y-89850000D01*
X152881000Y-89844000D01*
X152879000Y-89837000D01*
X152878000Y-89831000D01*
X152877000Y-89825000D01*
X152876000Y-89818000D01*
X152875000Y-89812000D01*
X152875000Y-89805000D01*
X152875000Y-89365000D01*
X152875000Y-89358000D01*
X152876000Y-89352000D01*
X152877000Y-89345000D01*
X152878000Y-89339000D01*
X152879000Y-89333000D01*
X152881000Y-89326000D01*
X152883000Y-89320000D01*
X152886000Y-89314000D01*
X152889000Y-89308000D01*
X152892000Y-89302000D01*
X152895000Y-89297000D01*
X152899000Y-89292000D01*
X152903000Y-89286000D01*
X152907000Y-89281000D01*
X152912000Y-89277000D01*
X152916000Y-89272000D01*
X152921000Y-89268000D01*
X152927000Y-89264000D01*
X152932000Y-89260000D01*
X152938000Y-89257000D01*
X152943000Y-89254000D01*
X152949000Y-89251000D01*
X152955000Y-89248000D01*
X152961000Y-89246000D01*
X152968000Y-89244000D01*
X152974000Y-89243000D01*
X152980000Y-89242000D01*
X152987000Y-89241000D01*
X152993000Y-89240000D01*
X153000000Y-89240000D01*
X153200000Y-89240000D01*
X153207000Y-89240000D01*
X153213000Y-89241000D01*
G37*
X153998000Y-89526000D02*
X154005000Y-89527000D01*
X154011000Y-89528000D01*
X154017000Y-89529000D01*
X154024000Y-89531000D01*
X154030000Y-89533000D01*
X154036000Y-89536000D01*
X154042000Y-89539000D01*
X154048000Y-89542000D01*
X154053000Y-89545000D01*
X154058000Y-89549000D01*
X154064000Y-89553000D01*
X154069000Y-89557000D01*
X154073000Y-89562000D01*
X154078000Y-89566000D01*
X154082000Y-89571000D01*
X154086000Y-89577000D01*
X154090000Y-89582000D01*
X154093000Y-89588000D01*
X154096000Y-89593000D01*
X154099000Y-89599000D01*
X154102000Y-89605000D01*
X154104000Y-89611000D01*
X154106000Y-89618000D01*
X154107000Y-89624000D01*
X154108000Y-89630000D01*
X154109000Y-89637000D01*
X154110000Y-89643000D01*
X154110000Y-89650000D01*
X154110000Y-89850000D01*
X154110000Y-89857000D01*
X154109000Y-89863000D01*
X154108000Y-89870000D01*
X154107000Y-89876000D01*
X154106000Y-89882000D01*
X154104000Y-89889000D01*
X154102000Y-89895000D01*
X154099000Y-89901000D01*
X154096000Y-89907000D01*
X154093000Y-89912000D01*
X154090000Y-89918000D01*
X154086000Y-89923000D01*
X154082000Y-89929000D01*
X154078000Y-89934000D01*
X154073000Y-89938000D01*
X154069000Y-89943000D01*
X154064000Y-89947000D01*
X154058000Y-89951000D01*
X154053000Y-89955000D01*
X154048000Y-89958000D01*
X154042000Y-89961000D01*
X154036000Y-89964000D01*
X154030000Y-89967000D01*
X154024000Y-89969000D01*
X154017000Y-89971000D01*
X154011000Y-89972000D01*
X154005000Y-89973000D01*
X153998000Y-89974000D01*
X153992000Y-89975000D01*
X153985000Y-89975000D01*
X153545000Y-89975000D01*
X153538000Y-89975000D01*
X153532000Y-89974000D01*
X153525000Y-89973000D01*
X153519000Y-89972000D01*
X153513000Y-89971000D01*
X153506000Y-89969000D01*
X153500000Y-89967000D01*
X153494000Y-89964000D01*
X153488000Y-89961000D01*
X153482000Y-89958000D01*
X153477000Y-89955000D01*
X153472000Y-89951000D01*
X153466000Y-89947000D01*
X153461000Y-89943000D01*
X153457000Y-89938000D01*
X153452000Y-89934000D01*
X153448000Y-89929000D01*
X153444000Y-89923000D01*
X153440000Y-89918000D01*
X153437000Y-89912000D01*
X153434000Y-89907000D01*
X153431000Y-89901000D01*
X153428000Y-89895000D01*
X153426000Y-89889000D01*
X153424000Y-89882000D01*
X153423000Y-89876000D01*
X153422000Y-89870000D01*
X153421000Y-89863000D01*
X153420000Y-89857000D01*
X153420000Y-89850000D01*
X153420000Y-89650000D01*
X153420000Y-89643000D01*
X153421000Y-89637000D01*
X153422000Y-89630000D01*
X153423000Y-89624000D01*
X153424000Y-89618000D01*
X153426000Y-89611000D01*
X153428000Y-89605000D01*
X153431000Y-89599000D01*
X153434000Y-89593000D01*
X153437000Y-89588000D01*
X153440000Y-89582000D01*
X153444000Y-89577000D01*
X153448000Y-89571000D01*
X153452000Y-89566000D01*
X153457000Y-89562000D01*
X153461000Y-89557000D01*
X153466000Y-89553000D01*
X153472000Y-89549000D01*
X153477000Y-89545000D01*
X153482000Y-89542000D01*
X153488000Y-89539000D01*
X153494000Y-89536000D01*
X153500000Y-89533000D01*
X153506000Y-89531000D01*
X153513000Y-89529000D01*
X153519000Y-89528000D01*
X153525000Y-89527000D01*
X153532000Y-89526000D01*
X153538000Y-89525000D01*
X153545000Y-89525000D01*
X153985000Y-89525000D01*
X153992000Y-89525000D01*
X153998000Y-89526000D01*
G36*
X153998000Y-89526000D02*
G01*
X154005000Y-89527000D01*
X154011000Y-89528000D01*
X154017000Y-89529000D01*
X154024000Y-89531000D01*
X154030000Y-89533000D01*
X154036000Y-89536000D01*
X154042000Y-89539000D01*
X154048000Y-89542000D01*
X154053000Y-89545000D01*
X154058000Y-89549000D01*
X154064000Y-89553000D01*
X154069000Y-89557000D01*
X154073000Y-89562000D01*
X154078000Y-89566000D01*
X154082000Y-89571000D01*
X154086000Y-89577000D01*
X154090000Y-89582000D01*
X154093000Y-89588000D01*
X154096000Y-89593000D01*
X154099000Y-89599000D01*
X154102000Y-89605000D01*
X154104000Y-89611000D01*
X154106000Y-89618000D01*
X154107000Y-89624000D01*
X154108000Y-89630000D01*
X154109000Y-89637000D01*
X154110000Y-89643000D01*
X154110000Y-89650000D01*
X154110000Y-89850000D01*
X154110000Y-89857000D01*
X154109000Y-89863000D01*
X154108000Y-89870000D01*
X154107000Y-89876000D01*
X154106000Y-89882000D01*
X154104000Y-89889000D01*
X154102000Y-89895000D01*
X154099000Y-89901000D01*
X154096000Y-89907000D01*
X154093000Y-89912000D01*
X154090000Y-89918000D01*
X154086000Y-89923000D01*
X154082000Y-89929000D01*
X154078000Y-89934000D01*
X154073000Y-89938000D01*
X154069000Y-89943000D01*
X154064000Y-89947000D01*
X154058000Y-89951000D01*
X154053000Y-89955000D01*
X154048000Y-89958000D01*
X154042000Y-89961000D01*
X154036000Y-89964000D01*
X154030000Y-89967000D01*
X154024000Y-89969000D01*
X154017000Y-89971000D01*
X154011000Y-89972000D01*
X154005000Y-89973000D01*
X153998000Y-89974000D01*
X153992000Y-89975000D01*
X153985000Y-89975000D01*
X153545000Y-89975000D01*
X153538000Y-89975000D01*
X153532000Y-89974000D01*
X153525000Y-89973000D01*
X153519000Y-89972000D01*
X153513000Y-89971000D01*
X153506000Y-89969000D01*
X153500000Y-89967000D01*
X153494000Y-89964000D01*
X153488000Y-89961000D01*
X153482000Y-89958000D01*
X153477000Y-89955000D01*
X153472000Y-89951000D01*
X153466000Y-89947000D01*
X153461000Y-89943000D01*
X153457000Y-89938000D01*
X153452000Y-89934000D01*
X153448000Y-89929000D01*
X153444000Y-89923000D01*
X153440000Y-89918000D01*
X153437000Y-89912000D01*
X153434000Y-89907000D01*
X153431000Y-89901000D01*
X153428000Y-89895000D01*
X153426000Y-89889000D01*
X153424000Y-89882000D01*
X153423000Y-89876000D01*
X153422000Y-89870000D01*
X153421000Y-89863000D01*
X153420000Y-89857000D01*
X153420000Y-89850000D01*
X153420000Y-89650000D01*
X153420000Y-89643000D01*
X153421000Y-89637000D01*
X153422000Y-89630000D01*
X153423000Y-89624000D01*
X153424000Y-89618000D01*
X153426000Y-89611000D01*
X153428000Y-89605000D01*
X153431000Y-89599000D01*
X153434000Y-89593000D01*
X153437000Y-89588000D01*
X153440000Y-89582000D01*
X153444000Y-89577000D01*
X153448000Y-89571000D01*
X153452000Y-89566000D01*
X153457000Y-89562000D01*
X153461000Y-89557000D01*
X153466000Y-89553000D01*
X153472000Y-89549000D01*
X153477000Y-89545000D01*
X153482000Y-89542000D01*
X153488000Y-89539000D01*
X153494000Y-89536000D01*
X153500000Y-89533000D01*
X153506000Y-89531000D01*
X153513000Y-89529000D01*
X153519000Y-89528000D01*
X153525000Y-89527000D01*
X153532000Y-89526000D01*
X153538000Y-89525000D01*
X153545000Y-89525000D01*
X153985000Y-89525000D01*
X153992000Y-89525000D01*
X153998000Y-89526000D01*
G37*
X151668000Y-89526000D02*
X151675000Y-89527000D01*
X151681000Y-89528000D01*
X151687000Y-89529000D01*
X151694000Y-89531000D01*
X151700000Y-89533000D01*
X151706000Y-89536000D01*
X151712000Y-89539000D01*
X151718000Y-89542000D01*
X151723000Y-89545000D01*
X151728000Y-89549000D01*
X151734000Y-89553000D01*
X151739000Y-89557000D01*
X151743000Y-89562000D01*
X151748000Y-89566000D01*
X151752000Y-89571000D01*
X151756000Y-89577000D01*
X151760000Y-89582000D01*
X151763000Y-89588000D01*
X151766000Y-89593000D01*
X151769000Y-89599000D01*
X151772000Y-89605000D01*
X151774000Y-89611000D01*
X151776000Y-89618000D01*
X151777000Y-89624000D01*
X151778000Y-89630000D01*
X151779000Y-89637000D01*
X151780000Y-89643000D01*
X151780000Y-89650000D01*
X151780000Y-89850000D01*
X151780000Y-89857000D01*
X151779000Y-89863000D01*
X151778000Y-89870000D01*
X151777000Y-89876000D01*
X151776000Y-89882000D01*
X151774000Y-89889000D01*
X151772000Y-89895000D01*
X151769000Y-89901000D01*
X151766000Y-89907000D01*
X151763000Y-89912000D01*
X151760000Y-89918000D01*
X151756000Y-89923000D01*
X151752000Y-89929000D01*
X151748000Y-89934000D01*
X151743000Y-89938000D01*
X151739000Y-89943000D01*
X151734000Y-89947000D01*
X151728000Y-89951000D01*
X151723000Y-89955000D01*
X151718000Y-89958000D01*
X151712000Y-89961000D01*
X151706000Y-89964000D01*
X151700000Y-89967000D01*
X151694000Y-89969000D01*
X151687000Y-89971000D01*
X151681000Y-89972000D01*
X151675000Y-89973000D01*
X151668000Y-89974000D01*
X151662000Y-89975000D01*
X151655000Y-89975000D01*
X151215000Y-89975000D01*
X151208000Y-89975000D01*
X151202000Y-89974000D01*
X151195000Y-89973000D01*
X151189000Y-89972000D01*
X151183000Y-89971000D01*
X151176000Y-89969000D01*
X151170000Y-89967000D01*
X151164000Y-89964000D01*
X151158000Y-89961000D01*
X151152000Y-89958000D01*
X151147000Y-89955000D01*
X151142000Y-89951000D01*
X151136000Y-89947000D01*
X151131000Y-89943000D01*
X151127000Y-89938000D01*
X151122000Y-89934000D01*
X151118000Y-89929000D01*
X151114000Y-89923000D01*
X151110000Y-89918000D01*
X151107000Y-89912000D01*
X151104000Y-89907000D01*
X151101000Y-89901000D01*
X151098000Y-89895000D01*
X151096000Y-89889000D01*
X151094000Y-89882000D01*
X151093000Y-89876000D01*
X151092000Y-89870000D01*
X151091000Y-89863000D01*
X151090000Y-89857000D01*
X151090000Y-89850000D01*
X151090000Y-89650000D01*
X151090000Y-89643000D01*
X151091000Y-89637000D01*
X151092000Y-89630000D01*
X151093000Y-89624000D01*
X151094000Y-89618000D01*
X151096000Y-89611000D01*
X151098000Y-89605000D01*
X151101000Y-89599000D01*
X151104000Y-89593000D01*
X151107000Y-89588000D01*
X151110000Y-89582000D01*
X151114000Y-89577000D01*
X151118000Y-89571000D01*
X151122000Y-89566000D01*
X151127000Y-89562000D01*
X151131000Y-89557000D01*
X151136000Y-89553000D01*
X151142000Y-89549000D01*
X151147000Y-89545000D01*
X151152000Y-89542000D01*
X151158000Y-89539000D01*
X151164000Y-89536000D01*
X151170000Y-89533000D01*
X151176000Y-89531000D01*
X151183000Y-89529000D01*
X151189000Y-89528000D01*
X151195000Y-89527000D01*
X151202000Y-89526000D01*
X151208000Y-89525000D01*
X151215000Y-89525000D01*
X151655000Y-89525000D01*
X151662000Y-89525000D01*
X151668000Y-89526000D01*
G36*
X151668000Y-89526000D02*
G01*
X151675000Y-89527000D01*
X151681000Y-89528000D01*
X151687000Y-89529000D01*
X151694000Y-89531000D01*
X151700000Y-89533000D01*
X151706000Y-89536000D01*
X151712000Y-89539000D01*
X151718000Y-89542000D01*
X151723000Y-89545000D01*
X151728000Y-89549000D01*
X151734000Y-89553000D01*
X151739000Y-89557000D01*
X151743000Y-89562000D01*
X151748000Y-89566000D01*
X151752000Y-89571000D01*
X151756000Y-89577000D01*
X151760000Y-89582000D01*
X151763000Y-89588000D01*
X151766000Y-89593000D01*
X151769000Y-89599000D01*
X151772000Y-89605000D01*
X151774000Y-89611000D01*
X151776000Y-89618000D01*
X151777000Y-89624000D01*
X151778000Y-89630000D01*
X151779000Y-89637000D01*
X151780000Y-89643000D01*
X151780000Y-89650000D01*
X151780000Y-89850000D01*
X151780000Y-89857000D01*
X151779000Y-89863000D01*
X151778000Y-89870000D01*
X151777000Y-89876000D01*
X151776000Y-89882000D01*
X151774000Y-89889000D01*
X151772000Y-89895000D01*
X151769000Y-89901000D01*
X151766000Y-89907000D01*
X151763000Y-89912000D01*
X151760000Y-89918000D01*
X151756000Y-89923000D01*
X151752000Y-89929000D01*
X151748000Y-89934000D01*
X151743000Y-89938000D01*
X151739000Y-89943000D01*
X151734000Y-89947000D01*
X151728000Y-89951000D01*
X151723000Y-89955000D01*
X151718000Y-89958000D01*
X151712000Y-89961000D01*
X151706000Y-89964000D01*
X151700000Y-89967000D01*
X151694000Y-89969000D01*
X151687000Y-89971000D01*
X151681000Y-89972000D01*
X151675000Y-89973000D01*
X151668000Y-89974000D01*
X151662000Y-89975000D01*
X151655000Y-89975000D01*
X151215000Y-89975000D01*
X151208000Y-89975000D01*
X151202000Y-89974000D01*
X151195000Y-89973000D01*
X151189000Y-89972000D01*
X151183000Y-89971000D01*
X151176000Y-89969000D01*
X151170000Y-89967000D01*
X151164000Y-89964000D01*
X151158000Y-89961000D01*
X151152000Y-89958000D01*
X151147000Y-89955000D01*
X151142000Y-89951000D01*
X151136000Y-89947000D01*
X151131000Y-89943000D01*
X151127000Y-89938000D01*
X151122000Y-89934000D01*
X151118000Y-89929000D01*
X151114000Y-89923000D01*
X151110000Y-89918000D01*
X151107000Y-89912000D01*
X151104000Y-89907000D01*
X151101000Y-89901000D01*
X151098000Y-89895000D01*
X151096000Y-89889000D01*
X151094000Y-89882000D01*
X151093000Y-89876000D01*
X151092000Y-89870000D01*
X151091000Y-89863000D01*
X151090000Y-89857000D01*
X151090000Y-89850000D01*
X151090000Y-89650000D01*
X151090000Y-89643000D01*
X151091000Y-89637000D01*
X151092000Y-89630000D01*
X151093000Y-89624000D01*
X151094000Y-89618000D01*
X151096000Y-89611000D01*
X151098000Y-89605000D01*
X151101000Y-89599000D01*
X151104000Y-89593000D01*
X151107000Y-89588000D01*
X151110000Y-89582000D01*
X151114000Y-89577000D01*
X151118000Y-89571000D01*
X151122000Y-89566000D01*
X151127000Y-89562000D01*
X151131000Y-89557000D01*
X151136000Y-89553000D01*
X151142000Y-89549000D01*
X151147000Y-89545000D01*
X151152000Y-89542000D01*
X151158000Y-89539000D01*
X151164000Y-89536000D01*
X151170000Y-89533000D01*
X151176000Y-89531000D01*
X151183000Y-89529000D01*
X151189000Y-89528000D01*
X151195000Y-89527000D01*
X151202000Y-89526000D01*
X151208000Y-89525000D01*
X151215000Y-89525000D01*
X151655000Y-89525000D01*
X151662000Y-89525000D01*
X151668000Y-89526000D01*
G37*
X151668000Y-91026000D02*
X151675000Y-91027000D01*
X151681000Y-91028000D01*
X151687000Y-91029000D01*
X151694000Y-91031000D01*
X151700000Y-91033000D01*
X151706000Y-91036000D01*
X151712000Y-91039000D01*
X151718000Y-91042000D01*
X151723000Y-91045000D01*
X151728000Y-91049000D01*
X151734000Y-91053000D01*
X151739000Y-91057000D01*
X151743000Y-91062000D01*
X151748000Y-91066000D01*
X151752000Y-91071000D01*
X151756000Y-91077000D01*
X151760000Y-91082000D01*
X151763000Y-91088000D01*
X151766000Y-91093000D01*
X151769000Y-91099000D01*
X151772000Y-91105000D01*
X151774000Y-91111000D01*
X151776000Y-91118000D01*
X151777000Y-91124000D01*
X151778000Y-91130000D01*
X151779000Y-91137000D01*
X151780000Y-91143000D01*
X151780000Y-91150000D01*
X151780000Y-91350000D01*
X151780000Y-91357000D01*
X151779000Y-91363000D01*
X151778000Y-91370000D01*
X151777000Y-91376000D01*
X151776000Y-91382000D01*
X151774000Y-91389000D01*
X151772000Y-91395000D01*
X151769000Y-91401000D01*
X151766000Y-91407000D01*
X151763000Y-91412000D01*
X151760000Y-91418000D01*
X151756000Y-91423000D01*
X151752000Y-91429000D01*
X151748000Y-91434000D01*
X151743000Y-91438000D01*
X151739000Y-91443000D01*
X151734000Y-91447000D01*
X151728000Y-91451000D01*
X151723000Y-91455000D01*
X151718000Y-91458000D01*
X151712000Y-91461000D01*
X151706000Y-91464000D01*
X151700000Y-91467000D01*
X151694000Y-91469000D01*
X151687000Y-91471000D01*
X151681000Y-91472000D01*
X151675000Y-91473000D01*
X151668000Y-91474000D01*
X151662000Y-91475000D01*
X151655000Y-91475000D01*
X151215000Y-91475000D01*
X151208000Y-91475000D01*
X151202000Y-91474000D01*
X151195000Y-91473000D01*
X151189000Y-91472000D01*
X151183000Y-91471000D01*
X151176000Y-91469000D01*
X151170000Y-91467000D01*
X151164000Y-91464000D01*
X151158000Y-91461000D01*
X151152000Y-91458000D01*
X151147000Y-91455000D01*
X151142000Y-91451000D01*
X151136000Y-91447000D01*
X151131000Y-91443000D01*
X151127000Y-91438000D01*
X151122000Y-91434000D01*
X151118000Y-91429000D01*
X151114000Y-91423000D01*
X151110000Y-91418000D01*
X151107000Y-91412000D01*
X151104000Y-91407000D01*
X151101000Y-91401000D01*
X151098000Y-91395000D01*
X151096000Y-91389000D01*
X151094000Y-91382000D01*
X151093000Y-91376000D01*
X151092000Y-91370000D01*
X151091000Y-91363000D01*
X151090000Y-91357000D01*
X151090000Y-91350000D01*
X151090000Y-91150000D01*
X151090000Y-91143000D01*
X151091000Y-91137000D01*
X151092000Y-91130000D01*
X151093000Y-91124000D01*
X151094000Y-91118000D01*
X151096000Y-91111000D01*
X151098000Y-91105000D01*
X151101000Y-91099000D01*
X151104000Y-91093000D01*
X151107000Y-91088000D01*
X151110000Y-91082000D01*
X151114000Y-91077000D01*
X151118000Y-91071000D01*
X151122000Y-91066000D01*
X151127000Y-91062000D01*
X151131000Y-91057000D01*
X151136000Y-91053000D01*
X151142000Y-91049000D01*
X151147000Y-91045000D01*
X151152000Y-91042000D01*
X151158000Y-91039000D01*
X151164000Y-91036000D01*
X151170000Y-91033000D01*
X151176000Y-91031000D01*
X151183000Y-91029000D01*
X151189000Y-91028000D01*
X151195000Y-91027000D01*
X151202000Y-91026000D01*
X151208000Y-91025000D01*
X151215000Y-91025000D01*
X151655000Y-91025000D01*
X151662000Y-91025000D01*
X151668000Y-91026000D01*
G36*
X151668000Y-91026000D02*
G01*
X151675000Y-91027000D01*
X151681000Y-91028000D01*
X151687000Y-91029000D01*
X151694000Y-91031000D01*
X151700000Y-91033000D01*
X151706000Y-91036000D01*
X151712000Y-91039000D01*
X151718000Y-91042000D01*
X151723000Y-91045000D01*
X151728000Y-91049000D01*
X151734000Y-91053000D01*
X151739000Y-91057000D01*
X151743000Y-91062000D01*
X151748000Y-91066000D01*
X151752000Y-91071000D01*
X151756000Y-91077000D01*
X151760000Y-91082000D01*
X151763000Y-91088000D01*
X151766000Y-91093000D01*
X151769000Y-91099000D01*
X151772000Y-91105000D01*
X151774000Y-91111000D01*
X151776000Y-91118000D01*
X151777000Y-91124000D01*
X151778000Y-91130000D01*
X151779000Y-91137000D01*
X151780000Y-91143000D01*
X151780000Y-91150000D01*
X151780000Y-91350000D01*
X151780000Y-91357000D01*
X151779000Y-91363000D01*
X151778000Y-91370000D01*
X151777000Y-91376000D01*
X151776000Y-91382000D01*
X151774000Y-91389000D01*
X151772000Y-91395000D01*
X151769000Y-91401000D01*
X151766000Y-91407000D01*
X151763000Y-91412000D01*
X151760000Y-91418000D01*
X151756000Y-91423000D01*
X151752000Y-91429000D01*
X151748000Y-91434000D01*
X151743000Y-91438000D01*
X151739000Y-91443000D01*
X151734000Y-91447000D01*
X151728000Y-91451000D01*
X151723000Y-91455000D01*
X151718000Y-91458000D01*
X151712000Y-91461000D01*
X151706000Y-91464000D01*
X151700000Y-91467000D01*
X151694000Y-91469000D01*
X151687000Y-91471000D01*
X151681000Y-91472000D01*
X151675000Y-91473000D01*
X151668000Y-91474000D01*
X151662000Y-91475000D01*
X151655000Y-91475000D01*
X151215000Y-91475000D01*
X151208000Y-91475000D01*
X151202000Y-91474000D01*
X151195000Y-91473000D01*
X151189000Y-91472000D01*
X151183000Y-91471000D01*
X151176000Y-91469000D01*
X151170000Y-91467000D01*
X151164000Y-91464000D01*
X151158000Y-91461000D01*
X151152000Y-91458000D01*
X151147000Y-91455000D01*
X151142000Y-91451000D01*
X151136000Y-91447000D01*
X151131000Y-91443000D01*
X151127000Y-91438000D01*
X151122000Y-91434000D01*
X151118000Y-91429000D01*
X151114000Y-91423000D01*
X151110000Y-91418000D01*
X151107000Y-91412000D01*
X151104000Y-91407000D01*
X151101000Y-91401000D01*
X151098000Y-91395000D01*
X151096000Y-91389000D01*
X151094000Y-91382000D01*
X151093000Y-91376000D01*
X151092000Y-91370000D01*
X151091000Y-91363000D01*
X151090000Y-91357000D01*
X151090000Y-91350000D01*
X151090000Y-91150000D01*
X151090000Y-91143000D01*
X151091000Y-91137000D01*
X151092000Y-91130000D01*
X151093000Y-91124000D01*
X151094000Y-91118000D01*
X151096000Y-91111000D01*
X151098000Y-91105000D01*
X151101000Y-91099000D01*
X151104000Y-91093000D01*
X151107000Y-91088000D01*
X151110000Y-91082000D01*
X151114000Y-91077000D01*
X151118000Y-91071000D01*
X151122000Y-91066000D01*
X151127000Y-91062000D01*
X151131000Y-91057000D01*
X151136000Y-91053000D01*
X151142000Y-91049000D01*
X151147000Y-91045000D01*
X151152000Y-91042000D01*
X151158000Y-91039000D01*
X151164000Y-91036000D01*
X151170000Y-91033000D01*
X151176000Y-91031000D01*
X151183000Y-91029000D01*
X151189000Y-91028000D01*
X151195000Y-91027000D01*
X151202000Y-91026000D01*
X151208000Y-91025000D01*
X151215000Y-91025000D01*
X151655000Y-91025000D01*
X151662000Y-91025000D01*
X151668000Y-91026000D01*
G37*
X153998000Y-90026000D02*
X154005000Y-90027000D01*
X154011000Y-90028000D01*
X154017000Y-90029000D01*
X154024000Y-90031000D01*
X154030000Y-90033000D01*
X154036000Y-90036000D01*
X154042000Y-90039000D01*
X154048000Y-90042000D01*
X154053000Y-90045000D01*
X154058000Y-90049000D01*
X154064000Y-90053000D01*
X154069000Y-90057000D01*
X154073000Y-90062000D01*
X154078000Y-90066000D01*
X154082000Y-90071000D01*
X154086000Y-90077000D01*
X154090000Y-90082000D01*
X154093000Y-90088000D01*
X154096000Y-90093000D01*
X154099000Y-90099000D01*
X154102000Y-90105000D01*
X154104000Y-90111000D01*
X154106000Y-90118000D01*
X154107000Y-90124000D01*
X154108000Y-90130000D01*
X154109000Y-90137000D01*
X154110000Y-90143000D01*
X154110000Y-90150000D01*
X154110000Y-90350000D01*
X154110000Y-90357000D01*
X154109000Y-90363000D01*
X154108000Y-90370000D01*
X154107000Y-90376000D01*
X154106000Y-90382000D01*
X154104000Y-90389000D01*
X154102000Y-90395000D01*
X154099000Y-90401000D01*
X154096000Y-90407000D01*
X154093000Y-90412000D01*
X154090000Y-90418000D01*
X154086000Y-90423000D01*
X154082000Y-90429000D01*
X154078000Y-90434000D01*
X154073000Y-90438000D01*
X154069000Y-90443000D01*
X154064000Y-90447000D01*
X154058000Y-90451000D01*
X154053000Y-90455000D01*
X154048000Y-90458000D01*
X154042000Y-90461000D01*
X154036000Y-90464000D01*
X154030000Y-90467000D01*
X154024000Y-90469000D01*
X154017000Y-90471000D01*
X154011000Y-90472000D01*
X154005000Y-90473000D01*
X153998000Y-90474000D01*
X153992000Y-90475000D01*
X153985000Y-90475000D01*
X153545000Y-90475000D01*
X153538000Y-90475000D01*
X153532000Y-90474000D01*
X153525000Y-90473000D01*
X153519000Y-90472000D01*
X153513000Y-90471000D01*
X153506000Y-90469000D01*
X153500000Y-90467000D01*
X153494000Y-90464000D01*
X153488000Y-90461000D01*
X153482000Y-90458000D01*
X153477000Y-90455000D01*
X153472000Y-90451000D01*
X153466000Y-90447000D01*
X153461000Y-90443000D01*
X153457000Y-90438000D01*
X153452000Y-90434000D01*
X153448000Y-90429000D01*
X153444000Y-90423000D01*
X153440000Y-90418000D01*
X153437000Y-90412000D01*
X153434000Y-90407000D01*
X153431000Y-90401000D01*
X153428000Y-90395000D01*
X153426000Y-90389000D01*
X153424000Y-90382000D01*
X153423000Y-90376000D01*
X153422000Y-90370000D01*
X153421000Y-90363000D01*
X153420000Y-90357000D01*
X153420000Y-90350000D01*
X153420000Y-90150000D01*
X153420000Y-90143000D01*
X153421000Y-90137000D01*
X153422000Y-90130000D01*
X153423000Y-90124000D01*
X153424000Y-90118000D01*
X153426000Y-90111000D01*
X153428000Y-90105000D01*
X153431000Y-90099000D01*
X153434000Y-90093000D01*
X153437000Y-90088000D01*
X153440000Y-90082000D01*
X153444000Y-90077000D01*
X153448000Y-90071000D01*
X153452000Y-90066000D01*
X153457000Y-90062000D01*
X153461000Y-90057000D01*
X153466000Y-90053000D01*
X153472000Y-90049000D01*
X153477000Y-90045000D01*
X153482000Y-90042000D01*
X153488000Y-90039000D01*
X153494000Y-90036000D01*
X153500000Y-90033000D01*
X153506000Y-90031000D01*
X153513000Y-90029000D01*
X153519000Y-90028000D01*
X153525000Y-90027000D01*
X153532000Y-90026000D01*
X153538000Y-90025000D01*
X153545000Y-90025000D01*
X153985000Y-90025000D01*
X153992000Y-90025000D01*
X153998000Y-90026000D01*
G36*
X153998000Y-90026000D02*
G01*
X154005000Y-90027000D01*
X154011000Y-90028000D01*
X154017000Y-90029000D01*
X154024000Y-90031000D01*
X154030000Y-90033000D01*
X154036000Y-90036000D01*
X154042000Y-90039000D01*
X154048000Y-90042000D01*
X154053000Y-90045000D01*
X154058000Y-90049000D01*
X154064000Y-90053000D01*
X154069000Y-90057000D01*
X154073000Y-90062000D01*
X154078000Y-90066000D01*
X154082000Y-90071000D01*
X154086000Y-90077000D01*
X154090000Y-90082000D01*
X154093000Y-90088000D01*
X154096000Y-90093000D01*
X154099000Y-90099000D01*
X154102000Y-90105000D01*
X154104000Y-90111000D01*
X154106000Y-90118000D01*
X154107000Y-90124000D01*
X154108000Y-90130000D01*
X154109000Y-90137000D01*
X154110000Y-90143000D01*
X154110000Y-90150000D01*
X154110000Y-90350000D01*
X154110000Y-90357000D01*
X154109000Y-90363000D01*
X154108000Y-90370000D01*
X154107000Y-90376000D01*
X154106000Y-90382000D01*
X154104000Y-90389000D01*
X154102000Y-90395000D01*
X154099000Y-90401000D01*
X154096000Y-90407000D01*
X154093000Y-90412000D01*
X154090000Y-90418000D01*
X154086000Y-90423000D01*
X154082000Y-90429000D01*
X154078000Y-90434000D01*
X154073000Y-90438000D01*
X154069000Y-90443000D01*
X154064000Y-90447000D01*
X154058000Y-90451000D01*
X154053000Y-90455000D01*
X154048000Y-90458000D01*
X154042000Y-90461000D01*
X154036000Y-90464000D01*
X154030000Y-90467000D01*
X154024000Y-90469000D01*
X154017000Y-90471000D01*
X154011000Y-90472000D01*
X154005000Y-90473000D01*
X153998000Y-90474000D01*
X153992000Y-90475000D01*
X153985000Y-90475000D01*
X153545000Y-90475000D01*
X153538000Y-90475000D01*
X153532000Y-90474000D01*
X153525000Y-90473000D01*
X153519000Y-90472000D01*
X153513000Y-90471000D01*
X153506000Y-90469000D01*
X153500000Y-90467000D01*
X153494000Y-90464000D01*
X153488000Y-90461000D01*
X153482000Y-90458000D01*
X153477000Y-90455000D01*
X153472000Y-90451000D01*
X153466000Y-90447000D01*
X153461000Y-90443000D01*
X153457000Y-90438000D01*
X153452000Y-90434000D01*
X153448000Y-90429000D01*
X153444000Y-90423000D01*
X153440000Y-90418000D01*
X153437000Y-90412000D01*
X153434000Y-90407000D01*
X153431000Y-90401000D01*
X153428000Y-90395000D01*
X153426000Y-90389000D01*
X153424000Y-90382000D01*
X153423000Y-90376000D01*
X153422000Y-90370000D01*
X153421000Y-90363000D01*
X153420000Y-90357000D01*
X153420000Y-90350000D01*
X153420000Y-90150000D01*
X153420000Y-90143000D01*
X153421000Y-90137000D01*
X153422000Y-90130000D01*
X153423000Y-90124000D01*
X153424000Y-90118000D01*
X153426000Y-90111000D01*
X153428000Y-90105000D01*
X153431000Y-90099000D01*
X153434000Y-90093000D01*
X153437000Y-90088000D01*
X153440000Y-90082000D01*
X153444000Y-90077000D01*
X153448000Y-90071000D01*
X153452000Y-90066000D01*
X153457000Y-90062000D01*
X153461000Y-90057000D01*
X153466000Y-90053000D01*
X153472000Y-90049000D01*
X153477000Y-90045000D01*
X153482000Y-90042000D01*
X153488000Y-90039000D01*
X153494000Y-90036000D01*
X153500000Y-90033000D01*
X153506000Y-90031000D01*
X153513000Y-90029000D01*
X153519000Y-90028000D01*
X153525000Y-90027000D01*
X153532000Y-90026000D01*
X153538000Y-90025000D01*
X153545000Y-90025000D01*
X153985000Y-90025000D01*
X153992000Y-90025000D01*
X153998000Y-90026000D01*
G37*
X152213000Y-89241000D02*
X152220000Y-89242000D01*
X152226000Y-89243000D01*
X152232000Y-89244000D01*
X152239000Y-89246000D01*
X152245000Y-89248000D01*
X152251000Y-89251000D01*
X152257000Y-89254000D01*
X152262000Y-89257000D01*
X152268000Y-89260000D01*
X152273000Y-89264000D01*
X152279000Y-89268000D01*
X152284000Y-89272000D01*
X152288000Y-89277000D01*
X152293000Y-89281000D01*
X152297000Y-89286000D01*
X152301000Y-89292000D01*
X152305000Y-89297000D01*
X152308000Y-89302000D01*
X152311000Y-89308000D01*
X152314000Y-89314000D01*
X152317000Y-89320000D01*
X152319000Y-89326000D01*
X152321000Y-89333000D01*
X152322000Y-89339000D01*
X152323000Y-89345000D01*
X152324000Y-89352000D01*
X152325000Y-89358000D01*
X152325000Y-89365000D01*
X152325000Y-89805000D01*
X152325000Y-89812000D01*
X152324000Y-89818000D01*
X152323000Y-89825000D01*
X152322000Y-89831000D01*
X152321000Y-89837000D01*
X152319000Y-89844000D01*
X152317000Y-89850000D01*
X152314000Y-89856000D01*
X152311000Y-89862000D01*
X152308000Y-89868000D01*
X152305000Y-89873000D01*
X152301000Y-89878000D01*
X152297000Y-89884000D01*
X152293000Y-89889000D01*
X152288000Y-89893000D01*
X152284000Y-89898000D01*
X152279000Y-89902000D01*
X152273000Y-89906000D01*
X152268000Y-89910000D01*
X152262000Y-89913000D01*
X152257000Y-89916000D01*
X152251000Y-89919000D01*
X152245000Y-89922000D01*
X152239000Y-89924000D01*
X152232000Y-89926000D01*
X152226000Y-89927000D01*
X152220000Y-89928000D01*
X152213000Y-89929000D01*
X152207000Y-89930000D01*
X152200000Y-89930000D01*
X152000000Y-89930000D01*
X151993000Y-89930000D01*
X151987000Y-89929000D01*
X151980000Y-89928000D01*
X151974000Y-89927000D01*
X151968000Y-89926000D01*
X151961000Y-89924000D01*
X151955000Y-89922000D01*
X151949000Y-89919000D01*
X151943000Y-89916000D01*
X151937000Y-89913000D01*
X151932000Y-89910000D01*
X151927000Y-89906000D01*
X151921000Y-89902000D01*
X151916000Y-89898000D01*
X151912000Y-89893000D01*
X151907000Y-89889000D01*
X151903000Y-89884000D01*
X151899000Y-89878000D01*
X151895000Y-89873000D01*
X151892000Y-89868000D01*
X151889000Y-89862000D01*
X151886000Y-89856000D01*
X151883000Y-89850000D01*
X151881000Y-89844000D01*
X151879000Y-89837000D01*
X151878000Y-89831000D01*
X151877000Y-89825000D01*
X151876000Y-89818000D01*
X151875000Y-89812000D01*
X151875000Y-89805000D01*
X151875000Y-89365000D01*
X151875000Y-89358000D01*
X151876000Y-89352000D01*
X151877000Y-89345000D01*
X151878000Y-89339000D01*
X151879000Y-89333000D01*
X151881000Y-89326000D01*
X151883000Y-89320000D01*
X151886000Y-89314000D01*
X151889000Y-89308000D01*
X151892000Y-89302000D01*
X151895000Y-89297000D01*
X151899000Y-89292000D01*
X151903000Y-89286000D01*
X151907000Y-89281000D01*
X151912000Y-89277000D01*
X151916000Y-89272000D01*
X151921000Y-89268000D01*
X151927000Y-89264000D01*
X151932000Y-89260000D01*
X151938000Y-89257000D01*
X151943000Y-89254000D01*
X151949000Y-89251000D01*
X151955000Y-89248000D01*
X151961000Y-89246000D01*
X151968000Y-89244000D01*
X151974000Y-89243000D01*
X151980000Y-89242000D01*
X151987000Y-89241000D01*
X151993000Y-89240000D01*
X152000000Y-89240000D01*
X152200000Y-89240000D01*
X152207000Y-89240000D01*
X152213000Y-89241000D01*
G36*
X152213000Y-89241000D02*
G01*
X152220000Y-89242000D01*
X152226000Y-89243000D01*
X152232000Y-89244000D01*
X152239000Y-89246000D01*
X152245000Y-89248000D01*
X152251000Y-89251000D01*
X152257000Y-89254000D01*
X152262000Y-89257000D01*
X152268000Y-89260000D01*
X152273000Y-89264000D01*
X152279000Y-89268000D01*
X152284000Y-89272000D01*
X152288000Y-89277000D01*
X152293000Y-89281000D01*
X152297000Y-89286000D01*
X152301000Y-89292000D01*
X152305000Y-89297000D01*
X152308000Y-89302000D01*
X152311000Y-89308000D01*
X152314000Y-89314000D01*
X152317000Y-89320000D01*
X152319000Y-89326000D01*
X152321000Y-89333000D01*
X152322000Y-89339000D01*
X152323000Y-89345000D01*
X152324000Y-89352000D01*
X152325000Y-89358000D01*
X152325000Y-89365000D01*
X152325000Y-89805000D01*
X152325000Y-89812000D01*
X152324000Y-89818000D01*
X152323000Y-89825000D01*
X152322000Y-89831000D01*
X152321000Y-89837000D01*
X152319000Y-89844000D01*
X152317000Y-89850000D01*
X152314000Y-89856000D01*
X152311000Y-89862000D01*
X152308000Y-89868000D01*
X152305000Y-89873000D01*
X152301000Y-89878000D01*
X152297000Y-89884000D01*
X152293000Y-89889000D01*
X152288000Y-89893000D01*
X152284000Y-89898000D01*
X152279000Y-89902000D01*
X152273000Y-89906000D01*
X152268000Y-89910000D01*
X152262000Y-89913000D01*
X152257000Y-89916000D01*
X152251000Y-89919000D01*
X152245000Y-89922000D01*
X152239000Y-89924000D01*
X152232000Y-89926000D01*
X152226000Y-89927000D01*
X152220000Y-89928000D01*
X152213000Y-89929000D01*
X152207000Y-89930000D01*
X152200000Y-89930000D01*
X152000000Y-89930000D01*
X151993000Y-89930000D01*
X151987000Y-89929000D01*
X151980000Y-89928000D01*
X151974000Y-89927000D01*
X151968000Y-89926000D01*
X151961000Y-89924000D01*
X151955000Y-89922000D01*
X151949000Y-89919000D01*
X151943000Y-89916000D01*
X151937000Y-89913000D01*
X151932000Y-89910000D01*
X151927000Y-89906000D01*
X151921000Y-89902000D01*
X151916000Y-89898000D01*
X151912000Y-89893000D01*
X151907000Y-89889000D01*
X151903000Y-89884000D01*
X151899000Y-89878000D01*
X151895000Y-89873000D01*
X151892000Y-89868000D01*
X151889000Y-89862000D01*
X151886000Y-89856000D01*
X151883000Y-89850000D01*
X151881000Y-89844000D01*
X151879000Y-89837000D01*
X151878000Y-89831000D01*
X151877000Y-89825000D01*
X151876000Y-89818000D01*
X151875000Y-89812000D01*
X151875000Y-89805000D01*
X151875000Y-89365000D01*
X151875000Y-89358000D01*
X151876000Y-89352000D01*
X151877000Y-89345000D01*
X151878000Y-89339000D01*
X151879000Y-89333000D01*
X151881000Y-89326000D01*
X151883000Y-89320000D01*
X151886000Y-89314000D01*
X151889000Y-89308000D01*
X151892000Y-89302000D01*
X151895000Y-89297000D01*
X151899000Y-89292000D01*
X151903000Y-89286000D01*
X151907000Y-89281000D01*
X151912000Y-89277000D01*
X151916000Y-89272000D01*
X151921000Y-89268000D01*
X151927000Y-89264000D01*
X151932000Y-89260000D01*
X151938000Y-89257000D01*
X151943000Y-89254000D01*
X151949000Y-89251000D01*
X151955000Y-89248000D01*
X151961000Y-89246000D01*
X151968000Y-89244000D01*
X151974000Y-89243000D01*
X151980000Y-89242000D01*
X151987000Y-89241000D01*
X151993000Y-89240000D01*
X152000000Y-89240000D01*
X152200000Y-89240000D01*
X152207000Y-89240000D01*
X152213000Y-89241000D01*
G37*
X152713000Y-89241000D02*
X152720000Y-89242000D01*
X152726000Y-89243000D01*
X152732000Y-89244000D01*
X152739000Y-89246000D01*
X152745000Y-89248000D01*
X152751000Y-89251000D01*
X152757000Y-89254000D01*
X152763000Y-89257000D01*
X152768000Y-89260000D01*
X152773000Y-89264000D01*
X152779000Y-89268000D01*
X152784000Y-89272000D01*
X152788000Y-89277000D01*
X152793000Y-89281000D01*
X152797000Y-89286000D01*
X152801000Y-89292000D01*
X152805000Y-89297000D01*
X152808000Y-89302000D01*
X152811000Y-89308000D01*
X152814000Y-89314000D01*
X152817000Y-89320000D01*
X152819000Y-89326000D01*
X152821000Y-89333000D01*
X152822000Y-89339000D01*
X152823000Y-89345000D01*
X152824000Y-89352000D01*
X152825000Y-89358000D01*
X152825000Y-89365000D01*
X152825000Y-89805000D01*
X152825000Y-89812000D01*
X152824000Y-89818000D01*
X152823000Y-89825000D01*
X152822000Y-89831000D01*
X152821000Y-89837000D01*
X152819000Y-89844000D01*
X152817000Y-89850000D01*
X152814000Y-89856000D01*
X152811000Y-89862000D01*
X152808000Y-89868000D01*
X152805000Y-89873000D01*
X152801000Y-89878000D01*
X152797000Y-89884000D01*
X152793000Y-89889000D01*
X152788000Y-89893000D01*
X152784000Y-89898000D01*
X152779000Y-89902000D01*
X152773000Y-89906000D01*
X152768000Y-89910000D01*
X152763000Y-89913000D01*
X152757000Y-89916000D01*
X152751000Y-89919000D01*
X152745000Y-89922000D01*
X152739000Y-89924000D01*
X152732000Y-89926000D01*
X152726000Y-89927000D01*
X152720000Y-89928000D01*
X152713000Y-89929000D01*
X152707000Y-89930000D01*
X152700000Y-89930000D01*
X152500000Y-89930000D01*
X152493000Y-89930000D01*
X152487000Y-89929000D01*
X152480000Y-89928000D01*
X152474000Y-89927000D01*
X152468000Y-89926000D01*
X152461000Y-89924000D01*
X152455000Y-89922000D01*
X152449000Y-89919000D01*
X152443000Y-89916000D01*
X152437000Y-89913000D01*
X152432000Y-89910000D01*
X152427000Y-89906000D01*
X152421000Y-89902000D01*
X152416000Y-89898000D01*
X152412000Y-89893000D01*
X152407000Y-89889000D01*
X152403000Y-89884000D01*
X152399000Y-89878000D01*
X152395000Y-89873000D01*
X152392000Y-89868000D01*
X152389000Y-89862000D01*
X152386000Y-89856000D01*
X152383000Y-89850000D01*
X152381000Y-89844000D01*
X152379000Y-89837000D01*
X152378000Y-89831000D01*
X152377000Y-89825000D01*
X152376000Y-89818000D01*
X152375000Y-89812000D01*
X152375000Y-89805000D01*
X152375000Y-89365000D01*
X152375000Y-89358000D01*
X152376000Y-89352000D01*
X152377000Y-89345000D01*
X152378000Y-89339000D01*
X152379000Y-89333000D01*
X152381000Y-89326000D01*
X152383000Y-89320000D01*
X152386000Y-89314000D01*
X152389000Y-89308000D01*
X152392000Y-89302000D01*
X152395000Y-89297000D01*
X152399000Y-89292000D01*
X152403000Y-89286000D01*
X152407000Y-89281000D01*
X152412000Y-89277000D01*
X152416000Y-89272000D01*
X152421000Y-89268000D01*
X152427000Y-89264000D01*
X152432000Y-89260000D01*
X152438000Y-89257000D01*
X152443000Y-89254000D01*
X152449000Y-89251000D01*
X152455000Y-89248000D01*
X152461000Y-89246000D01*
X152468000Y-89244000D01*
X152474000Y-89243000D01*
X152480000Y-89242000D01*
X152487000Y-89241000D01*
X152493000Y-89240000D01*
X152500000Y-89240000D01*
X152700000Y-89240000D01*
X152707000Y-89240000D01*
X152713000Y-89241000D01*
G36*
X152713000Y-89241000D02*
G01*
X152720000Y-89242000D01*
X152726000Y-89243000D01*
X152732000Y-89244000D01*
X152739000Y-89246000D01*
X152745000Y-89248000D01*
X152751000Y-89251000D01*
X152757000Y-89254000D01*
X152763000Y-89257000D01*
X152768000Y-89260000D01*
X152773000Y-89264000D01*
X152779000Y-89268000D01*
X152784000Y-89272000D01*
X152788000Y-89277000D01*
X152793000Y-89281000D01*
X152797000Y-89286000D01*
X152801000Y-89292000D01*
X152805000Y-89297000D01*
X152808000Y-89302000D01*
X152811000Y-89308000D01*
X152814000Y-89314000D01*
X152817000Y-89320000D01*
X152819000Y-89326000D01*
X152821000Y-89333000D01*
X152822000Y-89339000D01*
X152823000Y-89345000D01*
X152824000Y-89352000D01*
X152825000Y-89358000D01*
X152825000Y-89365000D01*
X152825000Y-89805000D01*
X152825000Y-89812000D01*
X152824000Y-89818000D01*
X152823000Y-89825000D01*
X152822000Y-89831000D01*
X152821000Y-89837000D01*
X152819000Y-89844000D01*
X152817000Y-89850000D01*
X152814000Y-89856000D01*
X152811000Y-89862000D01*
X152808000Y-89868000D01*
X152805000Y-89873000D01*
X152801000Y-89878000D01*
X152797000Y-89884000D01*
X152793000Y-89889000D01*
X152788000Y-89893000D01*
X152784000Y-89898000D01*
X152779000Y-89902000D01*
X152773000Y-89906000D01*
X152768000Y-89910000D01*
X152763000Y-89913000D01*
X152757000Y-89916000D01*
X152751000Y-89919000D01*
X152745000Y-89922000D01*
X152739000Y-89924000D01*
X152732000Y-89926000D01*
X152726000Y-89927000D01*
X152720000Y-89928000D01*
X152713000Y-89929000D01*
X152707000Y-89930000D01*
X152700000Y-89930000D01*
X152500000Y-89930000D01*
X152493000Y-89930000D01*
X152487000Y-89929000D01*
X152480000Y-89928000D01*
X152474000Y-89927000D01*
X152468000Y-89926000D01*
X152461000Y-89924000D01*
X152455000Y-89922000D01*
X152449000Y-89919000D01*
X152443000Y-89916000D01*
X152437000Y-89913000D01*
X152432000Y-89910000D01*
X152427000Y-89906000D01*
X152421000Y-89902000D01*
X152416000Y-89898000D01*
X152412000Y-89893000D01*
X152407000Y-89889000D01*
X152403000Y-89884000D01*
X152399000Y-89878000D01*
X152395000Y-89873000D01*
X152392000Y-89868000D01*
X152389000Y-89862000D01*
X152386000Y-89856000D01*
X152383000Y-89850000D01*
X152381000Y-89844000D01*
X152379000Y-89837000D01*
X152378000Y-89831000D01*
X152377000Y-89825000D01*
X152376000Y-89818000D01*
X152375000Y-89812000D01*
X152375000Y-89805000D01*
X152375000Y-89365000D01*
X152375000Y-89358000D01*
X152376000Y-89352000D01*
X152377000Y-89345000D01*
X152378000Y-89339000D01*
X152379000Y-89333000D01*
X152381000Y-89326000D01*
X152383000Y-89320000D01*
X152386000Y-89314000D01*
X152389000Y-89308000D01*
X152392000Y-89302000D01*
X152395000Y-89297000D01*
X152399000Y-89292000D01*
X152403000Y-89286000D01*
X152407000Y-89281000D01*
X152412000Y-89277000D01*
X152416000Y-89272000D01*
X152421000Y-89268000D01*
X152427000Y-89264000D01*
X152432000Y-89260000D01*
X152438000Y-89257000D01*
X152443000Y-89254000D01*
X152449000Y-89251000D01*
X152455000Y-89248000D01*
X152461000Y-89246000D01*
X152468000Y-89244000D01*
X152474000Y-89243000D01*
X152480000Y-89242000D01*
X152487000Y-89241000D01*
X152493000Y-89240000D01*
X152500000Y-89240000D01*
X152700000Y-89240000D01*
X152707000Y-89240000D01*
X152713000Y-89241000D01*
G37*
X153998000Y-90526000D02*
X154005000Y-90527000D01*
X154011000Y-90528000D01*
X154017000Y-90529000D01*
X154024000Y-90531000D01*
X154030000Y-90533000D01*
X154036000Y-90536000D01*
X154042000Y-90539000D01*
X154048000Y-90542000D01*
X154053000Y-90545000D01*
X154058000Y-90549000D01*
X154064000Y-90553000D01*
X154069000Y-90557000D01*
X154073000Y-90562000D01*
X154078000Y-90566000D01*
X154082000Y-90571000D01*
X154086000Y-90577000D01*
X154090000Y-90582000D01*
X154093000Y-90588000D01*
X154096000Y-90593000D01*
X154099000Y-90599000D01*
X154102000Y-90605000D01*
X154104000Y-90611000D01*
X154106000Y-90618000D01*
X154107000Y-90624000D01*
X154108000Y-90630000D01*
X154109000Y-90637000D01*
X154110000Y-90643000D01*
X154110000Y-90650000D01*
X154110000Y-90850000D01*
X154110000Y-90857000D01*
X154109000Y-90863000D01*
X154108000Y-90870000D01*
X154107000Y-90876000D01*
X154106000Y-90882000D01*
X154104000Y-90889000D01*
X154102000Y-90895000D01*
X154099000Y-90901000D01*
X154096000Y-90907000D01*
X154093000Y-90912000D01*
X154090000Y-90918000D01*
X154086000Y-90923000D01*
X154082000Y-90929000D01*
X154078000Y-90934000D01*
X154073000Y-90938000D01*
X154069000Y-90943000D01*
X154064000Y-90947000D01*
X154058000Y-90951000D01*
X154053000Y-90955000D01*
X154048000Y-90958000D01*
X154042000Y-90961000D01*
X154036000Y-90964000D01*
X154030000Y-90967000D01*
X154024000Y-90969000D01*
X154017000Y-90971000D01*
X154011000Y-90972000D01*
X154005000Y-90973000D01*
X153998000Y-90974000D01*
X153992000Y-90975000D01*
X153985000Y-90975000D01*
X153545000Y-90975000D01*
X153538000Y-90975000D01*
X153532000Y-90974000D01*
X153525000Y-90973000D01*
X153519000Y-90972000D01*
X153513000Y-90971000D01*
X153506000Y-90969000D01*
X153500000Y-90967000D01*
X153494000Y-90964000D01*
X153488000Y-90961000D01*
X153482000Y-90958000D01*
X153477000Y-90955000D01*
X153472000Y-90951000D01*
X153466000Y-90947000D01*
X153461000Y-90943000D01*
X153457000Y-90938000D01*
X153452000Y-90934000D01*
X153448000Y-90929000D01*
X153444000Y-90923000D01*
X153440000Y-90918000D01*
X153437000Y-90912000D01*
X153434000Y-90907000D01*
X153431000Y-90901000D01*
X153428000Y-90895000D01*
X153426000Y-90889000D01*
X153424000Y-90882000D01*
X153423000Y-90876000D01*
X153422000Y-90870000D01*
X153421000Y-90863000D01*
X153420000Y-90857000D01*
X153420000Y-90850000D01*
X153420000Y-90650000D01*
X153420000Y-90643000D01*
X153421000Y-90637000D01*
X153422000Y-90630000D01*
X153423000Y-90624000D01*
X153424000Y-90618000D01*
X153426000Y-90611000D01*
X153428000Y-90605000D01*
X153431000Y-90599000D01*
X153434000Y-90593000D01*
X153437000Y-90588000D01*
X153440000Y-90582000D01*
X153444000Y-90577000D01*
X153448000Y-90571000D01*
X153452000Y-90566000D01*
X153457000Y-90562000D01*
X153461000Y-90557000D01*
X153466000Y-90553000D01*
X153472000Y-90549000D01*
X153477000Y-90545000D01*
X153482000Y-90542000D01*
X153488000Y-90539000D01*
X153494000Y-90536000D01*
X153500000Y-90533000D01*
X153506000Y-90531000D01*
X153513000Y-90529000D01*
X153519000Y-90528000D01*
X153525000Y-90527000D01*
X153532000Y-90526000D01*
X153538000Y-90525000D01*
X153545000Y-90525000D01*
X153985000Y-90525000D01*
X153992000Y-90525000D01*
X153998000Y-90526000D01*
G36*
X153998000Y-90526000D02*
G01*
X154005000Y-90527000D01*
X154011000Y-90528000D01*
X154017000Y-90529000D01*
X154024000Y-90531000D01*
X154030000Y-90533000D01*
X154036000Y-90536000D01*
X154042000Y-90539000D01*
X154048000Y-90542000D01*
X154053000Y-90545000D01*
X154058000Y-90549000D01*
X154064000Y-90553000D01*
X154069000Y-90557000D01*
X154073000Y-90562000D01*
X154078000Y-90566000D01*
X154082000Y-90571000D01*
X154086000Y-90577000D01*
X154090000Y-90582000D01*
X154093000Y-90588000D01*
X154096000Y-90593000D01*
X154099000Y-90599000D01*
X154102000Y-90605000D01*
X154104000Y-90611000D01*
X154106000Y-90618000D01*
X154107000Y-90624000D01*
X154108000Y-90630000D01*
X154109000Y-90637000D01*
X154110000Y-90643000D01*
X154110000Y-90650000D01*
X154110000Y-90850000D01*
X154110000Y-90857000D01*
X154109000Y-90863000D01*
X154108000Y-90870000D01*
X154107000Y-90876000D01*
X154106000Y-90882000D01*
X154104000Y-90889000D01*
X154102000Y-90895000D01*
X154099000Y-90901000D01*
X154096000Y-90907000D01*
X154093000Y-90912000D01*
X154090000Y-90918000D01*
X154086000Y-90923000D01*
X154082000Y-90929000D01*
X154078000Y-90934000D01*
X154073000Y-90938000D01*
X154069000Y-90943000D01*
X154064000Y-90947000D01*
X154058000Y-90951000D01*
X154053000Y-90955000D01*
X154048000Y-90958000D01*
X154042000Y-90961000D01*
X154036000Y-90964000D01*
X154030000Y-90967000D01*
X154024000Y-90969000D01*
X154017000Y-90971000D01*
X154011000Y-90972000D01*
X154005000Y-90973000D01*
X153998000Y-90974000D01*
X153992000Y-90975000D01*
X153985000Y-90975000D01*
X153545000Y-90975000D01*
X153538000Y-90975000D01*
X153532000Y-90974000D01*
X153525000Y-90973000D01*
X153519000Y-90972000D01*
X153513000Y-90971000D01*
X153506000Y-90969000D01*
X153500000Y-90967000D01*
X153494000Y-90964000D01*
X153488000Y-90961000D01*
X153482000Y-90958000D01*
X153477000Y-90955000D01*
X153472000Y-90951000D01*
X153466000Y-90947000D01*
X153461000Y-90943000D01*
X153457000Y-90938000D01*
X153452000Y-90934000D01*
X153448000Y-90929000D01*
X153444000Y-90923000D01*
X153440000Y-90918000D01*
X153437000Y-90912000D01*
X153434000Y-90907000D01*
X153431000Y-90901000D01*
X153428000Y-90895000D01*
X153426000Y-90889000D01*
X153424000Y-90882000D01*
X153423000Y-90876000D01*
X153422000Y-90870000D01*
X153421000Y-90863000D01*
X153420000Y-90857000D01*
X153420000Y-90850000D01*
X153420000Y-90650000D01*
X153420000Y-90643000D01*
X153421000Y-90637000D01*
X153422000Y-90630000D01*
X153423000Y-90624000D01*
X153424000Y-90618000D01*
X153426000Y-90611000D01*
X153428000Y-90605000D01*
X153431000Y-90599000D01*
X153434000Y-90593000D01*
X153437000Y-90588000D01*
X153440000Y-90582000D01*
X153444000Y-90577000D01*
X153448000Y-90571000D01*
X153452000Y-90566000D01*
X153457000Y-90562000D01*
X153461000Y-90557000D01*
X153466000Y-90553000D01*
X153472000Y-90549000D01*
X153477000Y-90545000D01*
X153482000Y-90542000D01*
X153488000Y-90539000D01*
X153494000Y-90536000D01*
X153500000Y-90533000D01*
X153506000Y-90531000D01*
X153513000Y-90529000D01*
X153519000Y-90528000D01*
X153525000Y-90527000D01*
X153532000Y-90526000D01*
X153538000Y-90525000D01*
X153545000Y-90525000D01*
X153985000Y-90525000D01*
X153992000Y-90525000D01*
X153998000Y-90526000D01*
G37*
X153213000Y-91071000D02*
X153220000Y-91072000D01*
X153226000Y-91073000D01*
X153232000Y-91074000D01*
X153239000Y-91076000D01*
X153245000Y-91078000D01*
X153251000Y-91081000D01*
X153257000Y-91084000D01*
X153262000Y-91087000D01*
X153268000Y-91090000D01*
X153273000Y-91094000D01*
X153279000Y-91098000D01*
X153284000Y-91102000D01*
X153288000Y-91107000D01*
X153293000Y-91111000D01*
X153297000Y-91116000D01*
X153301000Y-91122000D01*
X153305000Y-91127000D01*
X153308000Y-91132000D01*
X153311000Y-91138000D01*
X153314000Y-91144000D01*
X153317000Y-91150000D01*
X153319000Y-91156000D01*
X153321000Y-91163000D01*
X153322000Y-91169000D01*
X153323000Y-91175000D01*
X153324000Y-91182000D01*
X153325000Y-91188000D01*
X153325000Y-91195000D01*
X153325000Y-91635000D01*
X153325000Y-91642000D01*
X153324000Y-91648000D01*
X153323000Y-91655000D01*
X153322000Y-91661000D01*
X153321000Y-91667000D01*
X153319000Y-91674000D01*
X153317000Y-91680000D01*
X153314000Y-91686000D01*
X153311000Y-91692000D01*
X153308000Y-91698000D01*
X153305000Y-91703000D01*
X153301000Y-91708000D01*
X153297000Y-91714000D01*
X153293000Y-91719000D01*
X153288000Y-91723000D01*
X153284000Y-91728000D01*
X153279000Y-91732000D01*
X153273000Y-91736000D01*
X153268000Y-91740000D01*
X153262000Y-91743000D01*
X153257000Y-91746000D01*
X153251000Y-91749000D01*
X153245000Y-91752000D01*
X153239000Y-91754000D01*
X153232000Y-91756000D01*
X153226000Y-91757000D01*
X153220000Y-91758000D01*
X153213000Y-91759000D01*
X153207000Y-91760000D01*
X153200000Y-91760000D01*
X153000000Y-91760000D01*
X152993000Y-91760000D01*
X152987000Y-91759000D01*
X152980000Y-91758000D01*
X152974000Y-91757000D01*
X152968000Y-91756000D01*
X152961000Y-91754000D01*
X152955000Y-91752000D01*
X152949000Y-91749000D01*
X152943000Y-91746000D01*
X152937000Y-91743000D01*
X152932000Y-91740000D01*
X152927000Y-91736000D01*
X152921000Y-91732000D01*
X152916000Y-91728000D01*
X152912000Y-91723000D01*
X152907000Y-91719000D01*
X152903000Y-91714000D01*
X152899000Y-91708000D01*
X152895000Y-91703000D01*
X152892000Y-91698000D01*
X152889000Y-91692000D01*
X152886000Y-91686000D01*
X152883000Y-91680000D01*
X152881000Y-91674000D01*
X152879000Y-91667000D01*
X152878000Y-91661000D01*
X152877000Y-91655000D01*
X152876000Y-91648000D01*
X152875000Y-91642000D01*
X152875000Y-91635000D01*
X152875000Y-91195000D01*
X152875000Y-91188000D01*
X152876000Y-91182000D01*
X152877000Y-91175000D01*
X152878000Y-91169000D01*
X152879000Y-91163000D01*
X152881000Y-91156000D01*
X152883000Y-91150000D01*
X152886000Y-91144000D01*
X152889000Y-91138000D01*
X152892000Y-91132000D01*
X152895000Y-91127000D01*
X152899000Y-91122000D01*
X152903000Y-91116000D01*
X152907000Y-91111000D01*
X152912000Y-91107000D01*
X152916000Y-91102000D01*
X152921000Y-91098000D01*
X152927000Y-91094000D01*
X152932000Y-91090000D01*
X152938000Y-91087000D01*
X152943000Y-91084000D01*
X152949000Y-91081000D01*
X152955000Y-91078000D01*
X152961000Y-91076000D01*
X152968000Y-91074000D01*
X152974000Y-91073000D01*
X152980000Y-91072000D01*
X152987000Y-91071000D01*
X152993000Y-91070000D01*
X153000000Y-91070000D01*
X153200000Y-91070000D01*
X153207000Y-91070000D01*
X153213000Y-91071000D01*
G36*
X153213000Y-91071000D02*
G01*
X153220000Y-91072000D01*
X153226000Y-91073000D01*
X153232000Y-91074000D01*
X153239000Y-91076000D01*
X153245000Y-91078000D01*
X153251000Y-91081000D01*
X153257000Y-91084000D01*
X153262000Y-91087000D01*
X153268000Y-91090000D01*
X153273000Y-91094000D01*
X153279000Y-91098000D01*
X153284000Y-91102000D01*
X153288000Y-91107000D01*
X153293000Y-91111000D01*
X153297000Y-91116000D01*
X153301000Y-91122000D01*
X153305000Y-91127000D01*
X153308000Y-91132000D01*
X153311000Y-91138000D01*
X153314000Y-91144000D01*
X153317000Y-91150000D01*
X153319000Y-91156000D01*
X153321000Y-91163000D01*
X153322000Y-91169000D01*
X153323000Y-91175000D01*
X153324000Y-91182000D01*
X153325000Y-91188000D01*
X153325000Y-91195000D01*
X153325000Y-91635000D01*
X153325000Y-91642000D01*
X153324000Y-91648000D01*
X153323000Y-91655000D01*
X153322000Y-91661000D01*
X153321000Y-91667000D01*
X153319000Y-91674000D01*
X153317000Y-91680000D01*
X153314000Y-91686000D01*
X153311000Y-91692000D01*
X153308000Y-91698000D01*
X153305000Y-91703000D01*
X153301000Y-91708000D01*
X153297000Y-91714000D01*
X153293000Y-91719000D01*
X153288000Y-91723000D01*
X153284000Y-91728000D01*
X153279000Y-91732000D01*
X153273000Y-91736000D01*
X153268000Y-91740000D01*
X153262000Y-91743000D01*
X153257000Y-91746000D01*
X153251000Y-91749000D01*
X153245000Y-91752000D01*
X153239000Y-91754000D01*
X153232000Y-91756000D01*
X153226000Y-91757000D01*
X153220000Y-91758000D01*
X153213000Y-91759000D01*
X153207000Y-91760000D01*
X153200000Y-91760000D01*
X153000000Y-91760000D01*
X152993000Y-91760000D01*
X152987000Y-91759000D01*
X152980000Y-91758000D01*
X152974000Y-91757000D01*
X152968000Y-91756000D01*
X152961000Y-91754000D01*
X152955000Y-91752000D01*
X152949000Y-91749000D01*
X152943000Y-91746000D01*
X152937000Y-91743000D01*
X152932000Y-91740000D01*
X152927000Y-91736000D01*
X152921000Y-91732000D01*
X152916000Y-91728000D01*
X152912000Y-91723000D01*
X152907000Y-91719000D01*
X152903000Y-91714000D01*
X152899000Y-91708000D01*
X152895000Y-91703000D01*
X152892000Y-91698000D01*
X152889000Y-91692000D01*
X152886000Y-91686000D01*
X152883000Y-91680000D01*
X152881000Y-91674000D01*
X152879000Y-91667000D01*
X152878000Y-91661000D01*
X152877000Y-91655000D01*
X152876000Y-91648000D01*
X152875000Y-91642000D01*
X152875000Y-91635000D01*
X152875000Y-91195000D01*
X152875000Y-91188000D01*
X152876000Y-91182000D01*
X152877000Y-91175000D01*
X152878000Y-91169000D01*
X152879000Y-91163000D01*
X152881000Y-91156000D01*
X152883000Y-91150000D01*
X152886000Y-91144000D01*
X152889000Y-91138000D01*
X152892000Y-91132000D01*
X152895000Y-91127000D01*
X152899000Y-91122000D01*
X152903000Y-91116000D01*
X152907000Y-91111000D01*
X152912000Y-91107000D01*
X152916000Y-91102000D01*
X152921000Y-91098000D01*
X152927000Y-91094000D01*
X152932000Y-91090000D01*
X152938000Y-91087000D01*
X152943000Y-91084000D01*
X152949000Y-91081000D01*
X152955000Y-91078000D01*
X152961000Y-91076000D01*
X152968000Y-91074000D01*
X152974000Y-91073000D01*
X152980000Y-91072000D01*
X152987000Y-91071000D01*
X152993000Y-91070000D01*
X153000000Y-91070000D01*
X153200000Y-91070000D01*
X153207000Y-91070000D01*
X153213000Y-91071000D01*
G37*
X151668000Y-90526000D02*
X151675000Y-90527000D01*
X151681000Y-90528000D01*
X151687000Y-90529000D01*
X151694000Y-90531000D01*
X151700000Y-90533000D01*
X151706000Y-90536000D01*
X151712000Y-90539000D01*
X151718000Y-90542000D01*
X151723000Y-90545000D01*
X151728000Y-90549000D01*
X151734000Y-90553000D01*
X151739000Y-90557000D01*
X151743000Y-90562000D01*
X151748000Y-90566000D01*
X151752000Y-90571000D01*
X151756000Y-90577000D01*
X151760000Y-90582000D01*
X151763000Y-90588000D01*
X151766000Y-90593000D01*
X151769000Y-90599000D01*
X151772000Y-90605000D01*
X151774000Y-90611000D01*
X151776000Y-90618000D01*
X151777000Y-90624000D01*
X151778000Y-90630000D01*
X151779000Y-90637000D01*
X151780000Y-90643000D01*
X151780000Y-90650000D01*
X151780000Y-90850000D01*
X151780000Y-90857000D01*
X151779000Y-90863000D01*
X151778000Y-90870000D01*
X151777000Y-90876000D01*
X151776000Y-90882000D01*
X151774000Y-90889000D01*
X151772000Y-90895000D01*
X151769000Y-90901000D01*
X151766000Y-90907000D01*
X151763000Y-90912000D01*
X151760000Y-90918000D01*
X151756000Y-90923000D01*
X151752000Y-90929000D01*
X151748000Y-90934000D01*
X151743000Y-90938000D01*
X151739000Y-90943000D01*
X151734000Y-90947000D01*
X151728000Y-90951000D01*
X151723000Y-90955000D01*
X151718000Y-90958000D01*
X151712000Y-90961000D01*
X151706000Y-90964000D01*
X151700000Y-90967000D01*
X151694000Y-90969000D01*
X151687000Y-90971000D01*
X151681000Y-90972000D01*
X151675000Y-90973000D01*
X151668000Y-90974000D01*
X151662000Y-90975000D01*
X151655000Y-90975000D01*
X151215000Y-90975000D01*
X151208000Y-90975000D01*
X151202000Y-90974000D01*
X151195000Y-90973000D01*
X151189000Y-90972000D01*
X151183000Y-90971000D01*
X151176000Y-90969000D01*
X151170000Y-90967000D01*
X151164000Y-90964000D01*
X151158000Y-90961000D01*
X151152000Y-90958000D01*
X151147000Y-90955000D01*
X151142000Y-90951000D01*
X151136000Y-90947000D01*
X151131000Y-90943000D01*
X151127000Y-90938000D01*
X151122000Y-90934000D01*
X151118000Y-90929000D01*
X151114000Y-90923000D01*
X151110000Y-90918000D01*
X151107000Y-90912000D01*
X151104000Y-90907000D01*
X151101000Y-90901000D01*
X151098000Y-90895000D01*
X151096000Y-90889000D01*
X151094000Y-90882000D01*
X151093000Y-90876000D01*
X151092000Y-90870000D01*
X151091000Y-90863000D01*
X151090000Y-90857000D01*
X151090000Y-90850000D01*
X151090000Y-90650000D01*
X151090000Y-90643000D01*
X151091000Y-90637000D01*
X151092000Y-90630000D01*
X151093000Y-90624000D01*
X151094000Y-90618000D01*
X151096000Y-90611000D01*
X151098000Y-90605000D01*
X151101000Y-90599000D01*
X151104000Y-90593000D01*
X151107000Y-90588000D01*
X151110000Y-90582000D01*
X151114000Y-90577000D01*
X151118000Y-90571000D01*
X151122000Y-90566000D01*
X151127000Y-90562000D01*
X151131000Y-90557000D01*
X151136000Y-90553000D01*
X151142000Y-90549000D01*
X151147000Y-90545000D01*
X151152000Y-90542000D01*
X151158000Y-90539000D01*
X151164000Y-90536000D01*
X151170000Y-90533000D01*
X151176000Y-90531000D01*
X151183000Y-90529000D01*
X151189000Y-90528000D01*
X151195000Y-90527000D01*
X151202000Y-90526000D01*
X151208000Y-90525000D01*
X151215000Y-90525000D01*
X151655000Y-90525000D01*
X151662000Y-90525000D01*
X151668000Y-90526000D01*
G36*
X151668000Y-90526000D02*
G01*
X151675000Y-90527000D01*
X151681000Y-90528000D01*
X151687000Y-90529000D01*
X151694000Y-90531000D01*
X151700000Y-90533000D01*
X151706000Y-90536000D01*
X151712000Y-90539000D01*
X151718000Y-90542000D01*
X151723000Y-90545000D01*
X151728000Y-90549000D01*
X151734000Y-90553000D01*
X151739000Y-90557000D01*
X151743000Y-90562000D01*
X151748000Y-90566000D01*
X151752000Y-90571000D01*
X151756000Y-90577000D01*
X151760000Y-90582000D01*
X151763000Y-90588000D01*
X151766000Y-90593000D01*
X151769000Y-90599000D01*
X151772000Y-90605000D01*
X151774000Y-90611000D01*
X151776000Y-90618000D01*
X151777000Y-90624000D01*
X151778000Y-90630000D01*
X151779000Y-90637000D01*
X151780000Y-90643000D01*
X151780000Y-90650000D01*
X151780000Y-90850000D01*
X151780000Y-90857000D01*
X151779000Y-90863000D01*
X151778000Y-90870000D01*
X151777000Y-90876000D01*
X151776000Y-90882000D01*
X151774000Y-90889000D01*
X151772000Y-90895000D01*
X151769000Y-90901000D01*
X151766000Y-90907000D01*
X151763000Y-90912000D01*
X151760000Y-90918000D01*
X151756000Y-90923000D01*
X151752000Y-90929000D01*
X151748000Y-90934000D01*
X151743000Y-90938000D01*
X151739000Y-90943000D01*
X151734000Y-90947000D01*
X151728000Y-90951000D01*
X151723000Y-90955000D01*
X151718000Y-90958000D01*
X151712000Y-90961000D01*
X151706000Y-90964000D01*
X151700000Y-90967000D01*
X151694000Y-90969000D01*
X151687000Y-90971000D01*
X151681000Y-90972000D01*
X151675000Y-90973000D01*
X151668000Y-90974000D01*
X151662000Y-90975000D01*
X151655000Y-90975000D01*
X151215000Y-90975000D01*
X151208000Y-90975000D01*
X151202000Y-90974000D01*
X151195000Y-90973000D01*
X151189000Y-90972000D01*
X151183000Y-90971000D01*
X151176000Y-90969000D01*
X151170000Y-90967000D01*
X151164000Y-90964000D01*
X151158000Y-90961000D01*
X151152000Y-90958000D01*
X151147000Y-90955000D01*
X151142000Y-90951000D01*
X151136000Y-90947000D01*
X151131000Y-90943000D01*
X151127000Y-90938000D01*
X151122000Y-90934000D01*
X151118000Y-90929000D01*
X151114000Y-90923000D01*
X151110000Y-90918000D01*
X151107000Y-90912000D01*
X151104000Y-90907000D01*
X151101000Y-90901000D01*
X151098000Y-90895000D01*
X151096000Y-90889000D01*
X151094000Y-90882000D01*
X151093000Y-90876000D01*
X151092000Y-90870000D01*
X151091000Y-90863000D01*
X151090000Y-90857000D01*
X151090000Y-90850000D01*
X151090000Y-90650000D01*
X151090000Y-90643000D01*
X151091000Y-90637000D01*
X151092000Y-90630000D01*
X151093000Y-90624000D01*
X151094000Y-90618000D01*
X151096000Y-90611000D01*
X151098000Y-90605000D01*
X151101000Y-90599000D01*
X151104000Y-90593000D01*
X151107000Y-90588000D01*
X151110000Y-90582000D01*
X151114000Y-90577000D01*
X151118000Y-90571000D01*
X151122000Y-90566000D01*
X151127000Y-90562000D01*
X151131000Y-90557000D01*
X151136000Y-90553000D01*
X151142000Y-90549000D01*
X151147000Y-90545000D01*
X151152000Y-90542000D01*
X151158000Y-90539000D01*
X151164000Y-90536000D01*
X151170000Y-90533000D01*
X151176000Y-90531000D01*
X151183000Y-90529000D01*
X151189000Y-90528000D01*
X151195000Y-90527000D01*
X151202000Y-90526000D01*
X151208000Y-90525000D01*
X151215000Y-90525000D01*
X151655000Y-90525000D01*
X151662000Y-90525000D01*
X151668000Y-90526000D01*
G37*
G04 #@! TD*
D11*
G04 #@! TO.C,C13*
X131100000Y-113900000D03*
D12*
X130700000Y-113100000D03*
X131500000Y-113100000D03*
D11*
X131100000Y-112300000D03*
G04 #@! TD*
G04 #@! TO.C,C64*
G36*
G01*
X152195000Y-92430000D02*
X152195000Y-92770000D01*
G75*
G02*
X152055000Y-92910000I-140000J0D01*
G01*
X151775000Y-92910000D01*
G75*
G02*
X151635000Y-92770000I0J140000D01*
G01*
X151635000Y-92430000D01*
G75*
G02*
X151775000Y-92290000I140000J0D01*
G01*
X152055000Y-92290000D01*
G75*
G02*
X152195000Y-92430000I0J-140000D01*
G01*
G37*
G36*
G01*
X151235000Y-92430000D02*
X151235000Y-92770000D01*
G75*
G02*
X151095000Y-92910000I-140000J0D01*
G01*
X150815000Y-92910000D01*
G75*
G02*
X150675000Y-92770000I0J140000D01*
G01*
X150675000Y-92430000D01*
G75*
G02*
X150815000Y-92290000I140000J0D01*
G01*
X151095000Y-92290000D01*
G75*
G02*
X151235000Y-92430000I0J-140000D01*
G01*
G37*
G04 #@! TD*
G04 #@! TO.C,C33*
G36*
G01*
X137590000Y-103120000D02*
X137590000Y-102780000D01*
G75*
G02*
X137730000Y-102640000I140000J0D01*
G01*
X138010000Y-102640000D01*
G75*
G02*
X138150000Y-102780000I0J-140000D01*
G01*
X138150000Y-103120000D01*
G75*
G02*
X138010000Y-103260000I-140000J0D01*
G01*
X137730000Y-103260000D01*
G75*
G02*
X137590000Y-103120000I0J140000D01*
G01*
G37*
G36*
G01*
X138550000Y-103120000D02*
X138550000Y-102780000D01*
G75*
G02*
X138690000Y-102640000I140000J0D01*
G01*
X138970000Y-102640000D01*
G75*
G02*
X139110000Y-102780000I0J-140000D01*
G01*
X139110000Y-103120000D01*
G75*
G02*
X138970000Y-103260000I-140000J0D01*
G01*
X138690000Y-103260000D01*
G75*
G02*
X138550000Y-103120000I0J140000D01*
G01*
G37*
G04 #@! TD*
G04 #@! TO.C,C43*
G36*
G01*
X144930000Y-110940000D02*
X145270000Y-110940000D01*
G75*
G02*
X145410000Y-111080000I0J-140000D01*
G01*
X145410000Y-111360000D01*
G75*
G02*
X145270000Y-111500000I-140000J0D01*
G01*
X144930000Y-111500000D01*
G75*
G02*
X144790000Y-111360000I0J140000D01*
G01*
X144790000Y-111080000D01*
G75*
G02*
X144930000Y-110940000I140000J0D01*
G01*
G37*
G36*
G01*
X144930000Y-111900000D02*
X145270000Y-111900000D01*
G75*
G02*
X145410000Y-112040000I0J-140000D01*
G01*
X145410000Y-112320000D01*
G75*
G02*
X145270000Y-112460000I-140000J0D01*
G01*
X144930000Y-112460000D01*
G75*
G02*
X144790000Y-112320000I0J140000D01*
G01*
X144790000Y-112040000D01*
G75*
G02*
X144930000Y-111900000I140000J0D01*
G01*
G37*
G04 #@! TD*
G04 #@! TO.C,R14*
G36*
G01*
X127215000Y-112220000D02*
X127585000Y-112220000D01*
G75*
G02*
X127720000Y-112355000I0J-135000D01*
G01*
X127720000Y-112625000D01*
G75*
G02*
X127585000Y-112760000I-135000J0D01*
G01*
X127215000Y-112760000D01*
G75*
G02*
X127080000Y-112625000I0J135000D01*
G01*
X127080000Y-112355000D01*
G75*
G02*
X127215000Y-112220000I135000J0D01*
G01*
G37*
G36*
G01*
X127215000Y-113240000D02*
X127585000Y-113240000D01*
G75*
G02*
X127720000Y-113375000I0J-135000D01*
G01*
X127720000Y-113645000D01*
G75*
G02*
X127585000Y-113780000I-135000J0D01*
G01*
X127215000Y-113780000D01*
G75*
G02*
X127080000Y-113645000I0J135000D01*
G01*
X127080000Y-113375000D01*
G75*
G02*
X127215000Y-113240000I135000J0D01*
G01*
G37*
G04 #@! TD*
G04 #@! TO.C,C52*
G36*
G01*
X156720000Y-119760000D02*
X156380000Y-119760000D01*
G75*
G02*
X156240000Y-119620000I0J140000D01*
G01*
X156240000Y-119340000D01*
G75*
G02*
X156380000Y-119200000I140000J0D01*
G01*
X156720000Y-119200000D01*
G75*
G02*
X156860000Y-119340000I0J-140000D01*
G01*
X156860000Y-119620000D01*
G75*
G02*
X156720000Y-119760000I-140000J0D01*
G01*
G37*
G36*
G01*
X156720000Y-118800000D02*
X156380000Y-118800000D01*
G75*
G02*
X156240000Y-118660000I0J140000D01*
G01*
X156240000Y-118380000D01*
G75*
G02*
X156380000Y-118240000I140000J0D01*
G01*
X156720000Y-118240000D01*
G75*
G02*
X156860000Y-118380000I0J-140000D01*
G01*
X156860000Y-118660000D01*
G75*
G02*
X156720000Y-118800000I-140000J0D01*
G01*
G37*
G04 #@! TD*
G04 #@! TO.C,C4*
G36*
G01*
X137540000Y-108120000D02*
X137540000Y-107780000D01*
G75*
G02*
X137680000Y-107640000I140000J0D01*
G01*
X137960000Y-107640000D01*
G75*
G02*
X138100000Y-107780000I0J-140000D01*
G01*
X138100000Y-108120000D01*
G75*
G02*
X137960000Y-108260000I-140000J0D01*
G01*
X137680000Y-108260000D01*
G75*
G02*
X137540000Y-108120000I0J140000D01*
G01*
G37*
G36*
G01*
X138500000Y-108120000D02*
X138500000Y-107780000D01*
G75*
G02*
X138640000Y-107640000I140000J0D01*
G01*
X138920000Y-107640000D01*
G75*
G02*
X139060000Y-107780000I0J-140000D01*
G01*
X139060000Y-108120000D01*
G75*
G02*
X138920000Y-108260000I-140000J0D01*
G01*
X138640000Y-108260000D01*
G75*
G02*
X138500000Y-108120000I0J140000D01*
G01*
G37*
G04 #@! TD*
G04 #@! TO.C,R12*
G36*
G01*
X130115000Y-104220000D02*
X130485000Y-104220000D01*
G75*
G02*
X130620000Y-104355000I0J-135000D01*
G01*
X130620000Y-104625000D01*
G75*
G02*
X130485000Y-104760000I-135000J0D01*
G01*
X130115000Y-104760000D01*
G75*
G02*
X129980000Y-104625000I0J135000D01*
G01*
X129980000Y-104355000D01*
G75*
G02*
X130115000Y-104220000I135000J0D01*
G01*
G37*
G36*
G01*
X130115000Y-105240000D02*
X130485000Y-105240000D01*
G75*
G02*
X130620000Y-105375000I0J-135000D01*
G01*
X130620000Y-105645000D01*
G75*
G02*
X130485000Y-105780000I-135000J0D01*
G01*
X130115000Y-105780000D01*
G75*
G02*
X129980000Y-105645000I0J135000D01*
G01*
X129980000Y-105375000D01*
G75*
G02*
X130115000Y-105240000I135000J0D01*
G01*
G37*
G04 #@! TD*
G04 #@! TO.C,C25*
G36*
G01*
X137460000Y-103780000D02*
X137460000Y-104120000D01*
G75*
G02*
X137320000Y-104260000I-140000J0D01*
G01*
X137040000Y-104260000D01*
G75*
G02*
X136900000Y-104120000I0J140000D01*
G01*
X136900000Y-103780000D01*
G75*
G02*
X137040000Y-103640000I140000J0D01*
G01*
X137320000Y-103640000D01*
G75*
G02*
X137460000Y-103780000I0J-140000D01*
G01*
G37*
G36*
G01*
X136500000Y-103780000D02*
X136500000Y-104120000D01*
G75*
G02*
X136360000Y-104260000I-140000J0D01*
G01*
X136080000Y-104260000D01*
G75*
G02*
X135940000Y-104120000I0J140000D01*
G01*
X135940000Y-103780000D01*
G75*
G02*
X136080000Y-103640000I140000J0D01*
G01*
X136360000Y-103640000D01*
G75*
G02*
X136500000Y-103780000I0J-140000D01*
G01*
G37*
G04 #@! TD*
D13*
G04 #@! TO.C,J4*
X137050000Y-89330000D03*
D14*
X138525000Y-87805000D03*
X135575000Y-87805000D03*
G04 #@! TD*
G04 #@! TO.C,C27*
G36*
G01*
X136110000Y-99530000D02*
X136110000Y-99870000D01*
G75*
G02*
X135970000Y-100010000I-140000J0D01*
G01*
X135690000Y-100010000D01*
G75*
G02*
X135550000Y-99870000I0J140000D01*
G01*
X135550000Y-99530000D01*
G75*
G02*
X135690000Y-99390000I140000J0D01*
G01*
X135970000Y-99390000D01*
G75*
G02*
X136110000Y-99530000I0J-140000D01*
G01*
G37*
G36*
G01*
X135150000Y-99530000D02*
X135150000Y-99870000D01*
G75*
G02*
X135010000Y-100010000I-140000J0D01*
G01*
X134730000Y-100010000D01*
G75*
G02*
X134590000Y-99870000I0J140000D01*
G01*
X134590000Y-99530000D01*
G75*
G02*
X134730000Y-99390000I140000J0D01*
G01*
X135010000Y-99390000D01*
G75*
G02*
X135150000Y-99530000I0J-140000D01*
G01*
G37*
G04 #@! TD*
G04 #@! TO.C,C36*
G36*
G01*
X147660000Y-90080000D02*
X147660000Y-90420000D01*
G75*
G02*
X147520000Y-90560000I-140000J0D01*
G01*
X147240000Y-90560000D01*
G75*
G02*
X147100000Y-90420000I0J140000D01*
G01*
X147100000Y-90080000D01*
G75*
G02*
X147240000Y-89940000I140000J0D01*
G01*
X147520000Y-89940000D01*
G75*
G02*
X147660000Y-90080000I0J-140000D01*
G01*
G37*
G36*
G01*
X146700000Y-90080000D02*
X146700000Y-90420000D01*
G75*
G02*
X146560000Y-90560000I-140000J0D01*
G01*
X146280000Y-90560000D01*
G75*
G02*
X146140000Y-90420000I0J140000D01*
G01*
X146140000Y-90080000D01*
G75*
G02*
X146280000Y-89940000I140000J0D01*
G01*
X146560000Y-89940000D01*
G75*
G02*
X146700000Y-90080000I0J-140000D01*
G01*
G37*
G04 #@! TD*
D15*
G04 #@! TO.C,FL1*
X157275000Y-100125000D03*
X158525000Y-100125000D03*
X158525000Y-100675000D03*
X157275000Y-100675000D03*
G04 #@! TD*
G04 #@! TO.C,C34*
G36*
G01*
X141850000Y-99625000D02*
X142350000Y-99625000D01*
G75*
G02*
X142575000Y-99850000I0J-225000D01*
G01*
X142575000Y-100300000D01*
G75*
G02*
X142350000Y-100525000I-225000J0D01*
G01*
X141850000Y-100525000D01*
G75*
G02*
X141625000Y-100300000I0J225000D01*
G01*
X141625000Y-99850000D01*
G75*
G02*
X141850000Y-99625000I225000J0D01*
G01*
G37*
G36*
G01*
X141850000Y-101175000D02*
X142350000Y-101175000D01*
G75*
G02*
X142575000Y-101400000I0J-225000D01*
G01*
X142575000Y-101850000D01*
G75*
G02*
X142350000Y-102075000I-225000J0D01*
G01*
X141850000Y-102075000D01*
G75*
G02*
X141625000Y-101850000I0J225000D01*
G01*
X141625000Y-101400000D01*
G75*
G02*
X141850000Y-101175000I225000J0D01*
G01*
G37*
G04 #@! TD*
G04 #@! TO.C,C61*
G36*
G01*
X129230000Y-112240000D02*
X129570000Y-112240000D01*
G75*
G02*
X129710000Y-112380000I0J-140000D01*
G01*
X129710000Y-112660000D01*
G75*
G02*
X129570000Y-112800000I-140000J0D01*
G01*
X129230000Y-112800000D01*
G75*
G02*
X129090000Y-112660000I0J140000D01*
G01*
X129090000Y-112380000D01*
G75*
G02*
X129230000Y-112240000I140000J0D01*
G01*
G37*
G36*
G01*
X129230000Y-113200000D02*
X129570000Y-113200000D01*
G75*
G02*
X129710000Y-113340000I0J-140000D01*
G01*
X129710000Y-113620000D01*
G75*
G02*
X129570000Y-113760000I-140000J0D01*
G01*
X129230000Y-113760000D01*
G75*
G02*
X129090000Y-113620000I0J140000D01*
G01*
X129090000Y-113340000D01*
G75*
G02*
X129230000Y-113200000I140000J0D01*
G01*
G37*
G04 #@! TD*
G04 #@! TO.C,C21*
G36*
G01*
X149320000Y-109760000D02*
X148980000Y-109760000D01*
G75*
G02*
X148840000Y-109620000I0J140000D01*
G01*
X148840000Y-109340000D01*
G75*
G02*
X148980000Y-109200000I140000J0D01*
G01*
X149320000Y-109200000D01*
G75*
G02*
X149460000Y-109340000I0J-140000D01*
G01*
X149460000Y-109620000D01*
G75*
G02*
X149320000Y-109760000I-140000J0D01*
G01*
G37*
G36*
G01*
X149320000Y-108800000D02*
X148980000Y-108800000D01*
G75*
G02*
X148840000Y-108660000I0J140000D01*
G01*
X148840000Y-108380000D01*
G75*
G02*
X148980000Y-108240000I140000J0D01*
G01*
X149320000Y-108240000D01*
G75*
G02*
X149460000Y-108380000I0J-140000D01*
G01*
X149460000Y-108660000D01*
G75*
G02*
X149320000Y-108800000I-140000J0D01*
G01*
G37*
G04 #@! TD*
G04 #@! TO.C,C31*
G36*
G01*
X136060000Y-105830000D02*
X136060000Y-106170000D01*
G75*
G02*
X135920000Y-106310000I-140000J0D01*
G01*
X135640000Y-106310000D01*
G75*
G02*
X135500000Y-106170000I0J140000D01*
G01*
X135500000Y-105830000D01*
G75*
G02*
X135640000Y-105690000I140000J0D01*
G01*
X135920000Y-105690000D01*
G75*
G02*
X136060000Y-105830000I0J-140000D01*
G01*
G37*
G36*
G01*
X135100000Y-105830000D02*
X135100000Y-106170000D01*
G75*
G02*
X134960000Y-106310000I-140000J0D01*
G01*
X134680000Y-106310000D01*
G75*
G02*
X134540000Y-106170000I0J140000D01*
G01*
X134540000Y-105830000D01*
G75*
G02*
X134680000Y-105690000I140000J0D01*
G01*
X134960000Y-105690000D01*
G75*
G02*
X135100000Y-105830000I0J-140000D01*
G01*
G37*
G04 #@! TD*
G04 #@! TO.C,C26*
G36*
G01*
X137880000Y-110940000D02*
X138220000Y-110940000D01*
G75*
G02*
X138360000Y-111080000I0J-140000D01*
G01*
X138360000Y-111360000D01*
G75*
G02*
X138220000Y-111500000I-140000J0D01*
G01*
X137880000Y-111500000D01*
G75*
G02*
X137740000Y-111360000I0J140000D01*
G01*
X137740000Y-111080000D01*
G75*
G02*
X137880000Y-110940000I140000J0D01*
G01*
G37*
G36*
G01*
X137880000Y-111900000D02*
X138220000Y-111900000D01*
G75*
G02*
X138360000Y-112040000I0J-140000D01*
G01*
X138360000Y-112320000D01*
G75*
G02*
X138220000Y-112460000I-140000J0D01*
G01*
X137880000Y-112460000D01*
G75*
G02*
X137740000Y-112320000I0J140000D01*
G01*
X137740000Y-112040000D01*
G75*
G02*
X137880000Y-111900000I140000J0D01*
G01*
G37*
G04 #@! TD*
G04 #@! TO.C,U2*
G36*
G01*
X126075000Y-109725000D02*
X125775000Y-109725000D01*
G75*
G02*
X125625000Y-109575000I0J150000D01*
G01*
X125625000Y-108550000D01*
G75*
G02*
X125775000Y-108400000I150000J0D01*
G01*
X126075000Y-108400000D01*
G75*
G02*
X126225000Y-108550000I0J-150000D01*
G01*
X126225000Y-109575000D01*
G75*
G02*
X126075000Y-109725000I-150000J0D01*
G01*
G37*
G36*
G01*
X127025000Y-109725000D02*
X126725000Y-109725000D01*
G75*
G02*
X126575000Y-109575000I0J150000D01*
G01*
X126575000Y-108550000D01*
G75*
G02*
X126725000Y-108400000I150000J0D01*
G01*
X127025000Y-108400000D01*
G75*
G02*
X127175000Y-108550000I0J-150000D01*
G01*
X127175000Y-109575000D01*
G75*
G02*
X127025000Y-109725000I-150000J0D01*
G01*
G37*
G36*
G01*
X127975000Y-109725000D02*
X127675000Y-109725000D01*
G75*
G02*
X127525000Y-109575000I0J150000D01*
G01*
X127525000Y-108550000D01*
G75*
G02*
X127675000Y-108400000I150000J0D01*
G01*
X127975000Y-108400000D01*
G75*
G02*
X128125000Y-108550000I0J-150000D01*
G01*
X128125000Y-109575000D01*
G75*
G02*
X127975000Y-109725000I-150000J0D01*
G01*
G37*
G36*
G01*
X127975000Y-107450000D02*
X127675000Y-107450000D01*
G75*
G02*
X127525000Y-107300000I0J150000D01*
G01*
X127525000Y-106275000D01*
G75*
G02*
X127675000Y-106125000I150000J0D01*
G01*
X127975000Y-106125000D01*
G75*
G02*
X128125000Y-106275000I0J-150000D01*
G01*
X128125000Y-107300000D01*
G75*
G02*
X127975000Y-107450000I-150000J0D01*
G01*
G37*
G36*
G01*
X126075000Y-107450000D02*
X125775000Y-107450000D01*
G75*
G02*
X125625000Y-107300000I0J150000D01*
G01*
X125625000Y-106275000D01*
G75*
G02*
X125775000Y-106125000I150000J0D01*
G01*
X126075000Y-106125000D01*
G75*
G02*
X126225000Y-106275000I0J-150000D01*
G01*
X126225000Y-107300000D01*
G75*
G02*
X126075000Y-107450000I-150000J0D01*
G01*
G37*
G04 #@! TD*
G04 #@! TO.C,C54*
G36*
G01*
X150890000Y-120920000D02*
X150890000Y-120580000D01*
G75*
G02*
X151030000Y-120440000I140000J0D01*
G01*
X151310000Y-120440000D01*
G75*
G02*
X151450000Y-120580000I0J-140000D01*
G01*
X151450000Y-120920000D01*
G75*
G02*
X151310000Y-121060000I-140000J0D01*
G01*
X151030000Y-121060000D01*
G75*
G02*
X150890000Y-120920000I0J140000D01*
G01*
G37*
G36*
G01*
X151850000Y-120920000D02*
X151850000Y-120580000D01*
G75*
G02*
X151990000Y-120440000I140000J0D01*
G01*
X152270000Y-120440000D01*
G75*
G02*
X152410000Y-120580000I0J-140000D01*
G01*
X152410000Y-120920000D01*
G75*
G02*
X152270000Y-121060000I-140000J0D01*
G01*
X151990000Y-121060000D01*
G75*
G02*
X151850000Y-120920000I0J140000D01*
G01*
G37*
G04 #@! TD*
G04 #@! TO.C,FB3*
G36*
G01*
X134925000Y-122806250D02*
X134925000Y-122293750D01*
G75*
G02*
X135143750Y-122075000I218750J0D01*
G01*
X135581250Y-122075000D01*
G75*
G02*
X135800000Y-122293750I0J-218750D01*
G01*
X135800000Y-122806250D01*
G75*
G02*
X135581250Y-123025000I-218750J0D01*
G01*
X135143750Y-123025000D01*
G75*
G02*
X134925000Y-122806250I0J218750D01*
G01*
G37*
G36*
G01*
X136500000Y-122806250D02*
X136500000Y-122293750D01*
G75*
G02*
X136718750Y-122075000I218750J0D01*
G01*
X137156250Y-122075000D01*
G75*
G02*
X137375000Y-122293750I0J-218750D01*
G01*
X137375000Y-122806250D01*
G75*
G02*
X137156250Y-123025000I-218750J0D01*
G01*
X136718750Y-123025000D01*
G75*
G02*
X136500000Y-122806250I0J218750D01*
G01*
G37*
G04 #@! TD*
G04 #@! TO.C,R3*
G36*
G01*
X129590000Y-96695000D02*
X129960000Y-96695000D01*
G75*
G02*
X130095000Y-96830000I0J-135000D01*
G01*
X130095000Y-97100000D01*
G75*
G02*
X129960000Y-97235000I-135000J0D01*
G01*
X129590000Y-97235000D01*
G75*
G02*
X129455000Y-97100000I0J135000D01*
G01*
X129455000Y-96830000D01*
G75*
G02*
X129590000Y-96695000I135000J0D01*
G01*
G37*
G36*
G01*
X129590000Y-97715000D02*
X129960000Y-97715000D01*
G75*
G02*
X130095000Y-97850000I0J-135000D01*
G01*
X130095000Y-98120000D01*
G75*
G02*
X129960000Y-98255000I-135000J0D01*
G01*
X129590000Y-98255000D01*
G75*
G02*
X129455000Y-98120000I0J135000D01*
G01*
X129455000Y-97850000D01*
G75*
G02*
X129590000Y-97715000I135000J0D01*
G01*
G37*
G04 #@! TD*
G04 #@! TO.C,R1*
G36*
G01*
X139930000Y-117865000D02*
X139930000Y-118235000D01*
G75*
G02*
X139795000Y-118370000I-135000J0D01*
G01*
X139525000Y-118370000D01*
G75*
G02*
X139390000Y-118235000I0J135000D01*
G01*
X139390000Y-117865000D01*
G75*
G02*
X139525000Y-117730000I135000J0D01*
G01*
X139795000Y-117730000D01*
G75*
G02*
X139930000Y-117865000I0J-135000D01*
G01*
G37*
G36*
G01*
X138910000Y-117865000D02*
X138910000Y-118235000D01*
G75*
G02*
X138775000Y-118370000I-135000J0D01*
G01*
X138505000Y-118370000D01*
G75*
G02*
X138370000Y-118235000I0J135000D01*
G01*
X138370000Y-117865000D01*
G75*
G02*
X138505000Y-117730000I135000J0D01*
G01*
X138775000Y-117730000D01*
G75*
G02*
X138910000Y-117865000I0J-135000D01*
G01*
G37*
G04 #@! TD*
G04 #@! TO.C,C47*
G36*
G01*
X146430000Y-110940000D02*
X146770000Y-110940000D01*
G75*
G02*
X146910000Y-111080000I0J-140000D01*
G01*
X146910000Y-111360000D01*
G75*
G02*
X146770000Y-111500000I-140000J0D01*
G01*
X146430000Y-111500000D01*
G75*
G02*
X146290000Y-111360000I0J140000D01*
G01*
X146290000Y-111080000D01*
G75*
G02*
X146430000Y-110940000I140000J0D01*
G01*
G37*
G36*
G01*
X146430000Y-111900000D02*
X146770000Y-111900000D01*
G75*
G02*
X146910000Y-112040000I0J-140000D01*
G01*
X146910000Y-112320000D01*
G75*
G02*
X146770000Y-112460000I-140000J0D01*
G01*
X146430000Y-112460000D01*
G75*
G02*
X146290000Y-112320000I0J140000D01*
G01*
X146290000Y-112040000D01*
G75*
G02*
X146430000Y-111900000I140000J0D01*
G01*
G37*
G04 #@! TD*
G04 #@! TO.C,C65*
G36*
G01*
X154047500Y-93430000D02*
X154047500Y-93770000D01*
G75*
G02*
X153907500Y-93910000I-140000J0D01*
G01*
X153627500Y-93910000D01*
G75*
G02*
X153487500Y-93770000I0J140000D01*
G01*
X153487500Y-93430000D01*
G75*
G02*
X153627500Y-93290000I140000J0D01*
G01*
X153907500Y-93290000D01*
G75*
G02*
X154047500Y-93430000I0J-140000D01*
G01*
G37*
G36*
G01*
X153087500Y-93430000D02*
X153087500Y-93770000D01*
G75*
G02*
X152947500Y-93910000I-140000J0D01*
G01*
X152667500Y-93910000D01*
G75*
G02*
X152527500Y-93770000I0J140000D01*
G01*
X152527500Y-93430000D01*
G75*
G02*
X152667500Y-93290000I140000J0D01*
G01*
X152947500Y-93290000D01*
G75*
G02*
X153087500Y-93430000I0J-140000D01*
G01*
G37*
G04 #@! TD*
G04 #@! TO.C,FL2*
X157275000Y-101625000D03*
X158525000Y-101625000D03*
X158525000Y-102175000D03*
X157275000Y-102175000D03*
G04 #@! TD*
G04 #@! TO.C,C63*
G36*
G01*
X154047500Y-92430000D02*
X154047500Y-92770000D01*
G75*
G02*
X153907500Y-92910000I-140000J0D01*
G01*
X153627500Y-92910000D01*
G75*
G02*
X153487500Y-92770000I0J140000D01*
G01*
X153487500Y-92430000D01*
G75*
G02*
X153627500Y-92290000I140000J0D01*
G01*
X153907500Y-92290000D01*
G75*
G02*
X154047500Y-92430000I0J-140000D01*
G01*
G37*
G36*
G01*
X153087500Y-92430000D02*
X153087500Y-92770000D01*
G75*
G02*
X152947500Y-92910000I-140000J0D01*
G01*
X152667500Y-92910000D01*
G75*
G02*
X152527500Y-92770000I0J140000D01*
G01*
X152527500Y-92430000D01*
G75*
G02*
X152667500Y-92290000I140000J0D01*
G01*
X152947500Y-92290000D01*
G75*
G02*
X153087500Y-92430000I0J-140000D01*
G01*
G37*
G04 #@! TD*
G04 #@! TO.C,C55*
G36*
G01*
X155840000Y-89170000D02*
X155840000Y-88830000D01*
G75*
G02*
X155980000Y-88690000I140000J0D01*
G01*
X156260000Y-88690000D01*
G75*
G02*
X156400000Y-88830000I0J-140000D01*
G01*
X156400000Y-89170000D01*
G75*
G02*
X156260000Y-89310000I-140000J0D01*
G01*
X155980000Y-89310000D01*
G75*
G02*
X155840000Y-89170000I0J140000D01*
G01*
G37*
G36*
G01*
X156800000Y-89170000D02*
X156800000Y-88830000D01*
G75*
G02*
X156940000Y-88690000I140000J0D01*
G01*
X157220000Y-88690000D01*
G75*
G02*
X157360000Y-88830000I0J-140000D01*
G01*
X157360000Y-89170000D01*
G75*
G02*
X157220000Y-89310000I-140000J0D01*
G01*
X156940000Y-89310000D01*
G75*
G02*
X156800000Y-89170000I0J140000D01*
G01*
G37*
G04 #@! TD*
G04 #@! TO.C,C9*
G36*
G01*
X148140000Y-105440000D02*
X148140000Y-105100000D01*
G75*
G02*
X148280000Y-104960000I140000J0D01*
G01*
X148560000Y-104960000D01*
G75*
G02*
X148700000Y-105100000I0J-140000D01*
G01*
X148700000Y-105440000D01*
G75*
G02*
X148560000Y-105580000I-140000J0D01*
G01*
X148280000Y-105580000D01*
G75*
G02*
X148140000Y-105440000I0J140000D01*
G01*
G37*
G36*
G01*
X149100000Y-105440000D02*
X149100000Y-105100000D01*
G75*
G02*
X149240000Y-104960000I140000J0D01*
G01*
X149520000Y-104960000D01*
G75*
G02*
X149660000Y-105100000I0J-140000D01*
G01*
X149660000Y-105440000D01*
G75*
G02*
X149520000Y-105580000I-140000J0D01*
G01*
X149240000Y-105580000D01*
G75*
G02*
X149100000Y-105440000I0J140000D01*
G01*
G37*
G04 #@! TD*
D16*
G04 #@! TO.C,TP2*
X126000000Y-103000000D03*
G04 #@! TD*
G04 #@! TO.C,U1*
G36*
G01*
X137100000Y-116150000D02*
X137400000Y-116150000D01*
G75*
G02*
X137550000Y-116300000I0J-150000D01*
G01*
X137550000Y-117325000D01*
G75*
G02*
X137400000Y-117475000I-150000J0D01*
G01*
X137100000Y-117475000D01*
G75*
G02*
X136950000Y-117325000I0J150000D01*
G01*
X136950000Y-116300000D01*
G75*
G02*
X137100000Y-116150000I150000J0D01*
G01*
G37*
G36*
G01*
X136150000Y-116150000D02*
X136450000Y-116150000D01*
G75*
G02*
X136600000Y-116300000I0J-150000D01*
G01*
X136600000Y-117325000D01*
G75*
G02*
X136450000Y-117475000I-150000J0D01*
G01*
X136150000Y-117475000D01*
G75*
G02*
X136000000Y-117325000I0J150000D01*
G01*
X136000000Y-116300000D01*
G75*
G02*
X136150000Y-116150000I150000J0D01*
G01*
G37*
G36*
G01*
X135200000Y-116150000D02*
X135500000Y-116150000D01*
G75*
G02*
X135650000Y-116300000I0J-150000D01*
G01*
X135650000Y-117325000D01*
G75*
G02*
X135500000Y-117475000I-150000J0D01*
G01*
X135200000Y-117475000D01*
G75*
G02*
X135050000Y-117325000I0J150000D01*
G01*
X135050000Y-116300000D01*
G75*
G02*
X135200000Y-116150000I150000J0D01*
G01*
G37*
G36*
G01*
X135200000Y-118425000D02*
X135500000Y-118425000D01*
G75*
G02*
X135650000Y-118575000I0J-150000D01*
G01*
X135650000Y-119600000D01*
G75*
G02*
X135500000Y-119750000I-150000J0D01*
G01*
X135200000Y-119750000D01*
G75*
G02*
X135050000Y-119600000I0J150000D01*
G01*
X135050000Y-118575000D01*
G75*
G02*
X135200000Y-118425000I150000J0D01*
G01*
G37*
G36*
G01*
X137100000Y-118425000D02*
X137400000Y-118425000D01*
G75*
G02*
X137550000Y-118575000I0J-150000D01*
G01*
X137550000Y-119600000D01*
G75*
G02*
X137400000Y-119750000I-150000J0D01*
G01*
X137100000Y-119750000D01*
G75*
G02*
X136950000Y-119600000I0J150000D01*
G01*
X136950000Y-118575000D01*
G75*
G02*
X137100000Y-118425000I150000J0D01*
G01*
G37*
G04 #@! TD*
G04 #@! TO.C,C20*
G36*
G01*
X136060000Y-107930000D02*
X136060000Y-108270000D01*
G75*
G02*
X135920000Y-108410000I-140000J0D01*
G01*
X135640000Y-108410000D01*
G75*
G02*
X135500000Y-108270000I0J140000D01*
G01*
X135500000Y-107930000D01*
G75*
G02*
X135640000Y-107790000I140000J0D01*
G01*
X135920000Y-107790000D01*
G75*
G02*
X136060000Y-107930000I0J-140000D01*
G01*
G37*
G36*
G01*
X135100000Y-107930000D02*
X135100000Y-108270000D01*
G75*
G02*
X134960000Y-108410000I-140000J0D01*
G01*
X134680000Y-108410000D01*
G75*
G02*
X134540000Y-108270000I0J140000D01*
G01*
X134540000Y-107930000D01*
G75*
G02*
X134680000Y-107790000I140000J0D01*
G01*
X134960000Y-107790000D01*
G75*
G02*
X135100000Y-107930000I0J-140000D01*
G01*
G37*
G04 #@! TD*
G04 #@! TO.C,R11*
G36*
G01*
X154670000Y-122535000D02*
X154670000Y-122165000D01*
G75*
G02*
X154805000Y-122030000I135000J0D01*
G01*
X155075000Y-122030000D01*
G75*
G02*
X155210000Y-122165000I0J-135000D01*
G01*
X155210000Y-122535000D01*
G75*
G02*
X155075000Y-122670000I-135000J0D01*
G01*
X154805000Y-122670000D01*
G75*
G02*
X154670000Y-122535000I0J135000D01*
G01*
G37*
G36*
G01*
X155690000Y-122535000D02*
X155690000Y-122165000D01*
G75*
G02*
X155825000Y-122030000I135000J0D01*
G01*
X156095000Y-122030000D01*
G75*
G02*
X156230000Y-122165000I0J-135000D01*
G01*
X156230000Y-122535000D01*
G75*
G02*
X156095000Y-122670000I-135000J0D01*
G01*
X155825000Y-122670000D01*
G75*
G02*
X155690000Y-122535000I0J135000D01*
G01*
G37*
G04 #@! TD*
G04 #@! TO.C,R6*
G36*
G01*
X147885000Y-114180000D02*
X147515000Y-114180000D01*
G75*
G02*
X147380000Y-114045000I0J135000D01*
G01*
X147380000Y-113775000D01*
G75*
G02*
X147515000Y-113640000I135000J0D01*
G01*
X147885000Y-113640000D01*
G75*
G02*
X148020000Y-113775000I0J-135000D01*
G01*
X148020000Y-114045000D01*
G75*
G02*
X147885000Y-114180000I-135000J0D01*
G01*
G37*
G36*
G01*
X147885000Y-113160000D02*
X147515000Y-113160000D01*
G75*
G02*
X147380000Y-113025000I0J135000D01*
G01*
X147380000Y-112755000D01*
G75*
G02*
X147515000Y-112620000I135000J0D01*
G01*
X147885000Y-112620000D01*
G75*
G02*
X148020000Y-112755000I0J-135000D01*
G01*
X148020000Y-113025000D01*
G75*
G02*
X147885000Y-113160000I-135000J0D01*
G01*
G37*
G04 #@! TD*
G04 #@! TO.C,C29*
G36*
G01*
X136880000Y-110940000D02*
X137220000Y-110940000D01*
G75*
G02*
X137360000Y-111080000I0J-140000D01*
G01*
X137360000Y-111360000D01*
G75*
G02*
X137220000Y-111500000I-140000J0D01*
G01*
X136880000Y-111500000D01*
G75*
G02*
X136740000Y-111360000I0J140000D01*
G01*
X136740000Y-111080000D01*
G75*
G02*
X136880000Y-110940000I140000J0D01*
G01*
G37*
G36*
G01*
X136880000Y-111900000D02*
X137220000Y-111900000D01*
G75*
G02*
X137360000Y-112040000I0J-140000D01*
G01*
X137360000Y-112320000D01*
G75*
G02*
X137220000Y-112460000I-140000J0D01*
G01*
X136880000Y-112460000D01*
G75*
G02*
X136740000Y-112320000I0J140000D01*
G01*
X136740000Y-112040000D01*
G75*
G02*
X136880000Y-111900000I140000J0D01*
G01*
G37*
G04 #@! TD*
G04 #@! TO.C,R5*
G36*
G01*
X129960000Y-92255000D02*
X129590000Y-92255000D01*
G75*
G02*
X129455000Y-92120000I0J135000D01*
G01*
X129455000Y-91850000D01*
G75*
G02*
X129590000Y-91715000I135000J0D01*
G01*
X129960000Y-91715000D01*
G75*
G02*
X130095000Y-91850000I0J-135000D01*
G01*
X130095000Y-92120000D01*
G75*
G02*
X129960000Y-92255000I-135000J0D01*
G01*
G37*
G36*
G01*
X129960000Y-91235000D02*
X129590000Y-91235000D01*
G75*
G02*
X129455000Y-91100000I0J135000D01*
G01*
X129455000Y-90830000D01*
G75*
G02*
X129590000Y-90695000I135000J0D01*
G01*
X129960000Y-90695000D01*
G75*
G02*
X130095000Y-90830000I0J-135000D01*
G01*
X130095000Y-91100000D01*
G75*
G02*
X129960000Y-91235000I-135000J0D01*
G01*
G37*
G04 #@! TD*
G04 #@! TO.C,R9*
G36*
G01*
X134570000Y-98885000D02*
X134570000Y-98515000D01*
G75*
G02*
X134705000Y-98380000I135000J0D01*
G01*
X134975000Y-98380000D01*
G75*
G02*
X135110000Y-98515000I0J-135000D01*
G01*
X135110000Y-98885000D01*
G75*
G02*
X134975000Y-99020000I-135000J0D01*
G01*
X134705000Y-99020000D01*
G75*
G02*
X134570000Y-98885000I0J135000D01*
G01*
G37*
G36*
G01*
X135590000Y-98885000D02*
X135590000Y-98515000D01*
G75*
G02*
X135725000Y-98380000I135000J0D01*
G01*
X135995000Y-98380000D01*
G75*
G02*
X136130000Y-98515000I0J-135000D01*
G01*
X136130000Y-98885000D01*
G75*
G02*
X135995000Y-99020000I-135000J0D01*
G01*
X135725000Y-99020000D01*
G75*
G02*
X135590000Y-98885000I0J135000D01*
G01*
G37*
G04 #@! TD*
G04 #@! TO.C,R2*
G36*
G01*
X138370000Y-119285000D02*
X138370000Y-118915000D01*
G75*
G02*
X138505000Y-118780000I135000J0D01*
G01*
X138775000Y-118780000D01*
G75*
G02*
X138910000Y-118915000I0J-135000D01*
G01*
X138910000Y-119285000D01*
G75*
G02*
X138775000Y-119420000I-135000J0D01*
G01*
X138505000Y-119420000D01*
G75*
G02*
X138370000Y-119285000I0J135000D01*
G01*
G37*
G36*
G01*
X139390000Y-119285000D02*
X139390000Y-118915000D01*
G75*
G02*
X139525000Y-118780000I135000J0D01*
G01*
X139795000Y-118780000D01*
G75*
G02*
X139930000Y-118915000I0J-135000D01*
G01*
X139930000Y-119285000D01*
G75*
G02*
X139795000Y-119420000I-135000J0D01*
G01*
X139525000Y-119420000D01*
G75*
G02*
X139390000Y-119285000I0J135000D01*
G01*
G37*
G04 #@! TD*
G04 #@! TO.C,C50*
G36*
G01*
X132450000Y-106275000D02*
X132950000Y-106275000D01*
G75*
G02*
X133175000Y-106500000I0J-225000D01*
G01*
X133175000Y-106950000D01*
G75*
G02*
X132950000Y-107175000I-225000J0D01*
G01*
X132450000Y-107175000D01*
G75*
G02*
X132225000Y-106950000I0J225000D01*
G01*
X132225000Y-106500000D01*
G75*
G02*
X132450000Y-106275000I225000J0D01*
G01*
G37*
G36*
G01*
X132450000Y-107825000D02*
X132950000Y-107825000D01*
G75*
G02*
X133175000Y-108050000I0J-225000D01*
G01*
X133175000Y-108500000D01*
G75*
G02*
X132950000Y-108725000I-225000J0D01*
G01*
X132450000Y-108725000D01*
G75*
G02*
X132225000Y-108500000I0J225000D01*
G01*
X132225000Y-108050000D01*
G75*
G02*
X132450000Y-107825000I225000J0D01*
G01*
G37*
G04 #@! TD*
D13*
G04 #@! TO.C,J5*
X132050000Y-89330000D03*
D14*
X133525000Y-87805000D03*
X130575000Y-87805000D03*
G04 #@! TD*
D16*
G04 #@! TO.C,TP6*
X149100000Y-87000000D03*
G04 #@! TD*
G04 #@! TO.C,J7*
G36*
G01*
X162650000Y-118725000D02*
X161450000Y-118725000D01*
G75*
G02*
X161250000Y-118525000I0J200000D01*
G01*
X161250000Y-118125000D01*
G75*
G02*
X161450000Y-117925000I200000J0D01*
G01*
X162650000Y-117925000D01*
G75*
G02*
X162850000Y-118125000I0J-200000D01*
G01*
X162850000Y-118525000D01*
G75*
G02*
X162650000Y-118725000I-200000J0D01*
G01*
G37*
G36*
G01*
X162650000Y-117475000D02*
X161450000Y-117475000D01*
G75*
G02*
X161250000Y-117275000I0J200000D01*
G01*
X161250000Y-116875000D01*
G75*
G02*
X161450000Y-116675000I200000J0D01*
G01*
X162650000Y-116675000D01*
G75*
G02*
X162850000Y-116875000I0J-200000D01*
G01*
X162850000Y-117275000D01*
G75*
G02*
X162650000Y-117475000I-200000J0D01*
G01*
G37*
G36*
G01*
X166199999Y-115575000D02*
X163700001Y-115575000D01*
G75*
G02*
X163450000Y-115324999I0J250001D01*
G01*
X163450000Y-113725001D01*
G75*
G02*
X163700001Y-113475000I250001J0D01*
G01*
X166199999Y-113475000D01*
G75*
G02*
X166450000Y-113725001I0J-250001D01*
G01*
X166450000Y-115324999D01*
G75*
G02*
X166199999Y-115575000I-250001J0D01*
G01*
G37*
G36*
G01*
X166199999Y-121925000D02*
X163700001Y-121925000D01*
G75*
G02*
X163450000Y-121674999I0J250001D01*
G01*
X163450000Y-120075001D01*
G75*
G02*
X163700001Y-119825000I250001J0D01*
G01*
X166199999Y-119825000D01*
G75*
G02*
X166450000Y-120075001I0J-250001D01*
G01*
X166450000Y-121674999D01*
G75*
G02*
X166199999Y-121925000I-250001J0D01*
G01*
G37*
G04 #@! TD*
G04 #@! TO.C,C6*
G36*
G01*
X139530000Y-100440000D02*
X139870000Y-100440000D01*
G75*
G02*
X140010000Y-100580000I0J-140000D01*
G01*
X140010000Y-100860000D01*
G75*
G02*
X139870000Y-101000000I-140000J0D01*
G01*
X139530000Y-101000000D01*
G75*
G02*
X139390000Y-100860000I0J140000D01*
G01*
X139390000Y-100580000D01*
G75*
G02*
X139530000Y-100440000I140000J0D01*
G01*
G37*
G36*
G01*
X139530000Y-101400000D02*
X139870000Y-101400000D01*
G75*
G02*
X140010000Y-101540000I0J-140000D01*
G01*
X140010000Y-101820000D01*
G75*
G02*
X139870000Y-101960000I-140000J0D01*
G01*
X139530000Y-101960000D01*
G75*
G02*
X139390000Y-101820000I0J140000D01*
G01*
X139390000Y-101540000D01*
G75*
G02*
X139530000Y-101400000I140000J0D01*
G01*
G37*
G04 #@! TD*
G04 #@! TO.C,TP4*
X152600000Y-115200000D03*
G04 #@! TD*
D17*
G04 #@! TO.C,H2*
X126600000Y-121900000D03*
G04 #@! TD*
D11*
G04 #@! TO.C,C60*
X156700000Y-115100000D03*
D12*
X155900000Y-114700000D03*
X155900000Y-115500000D03*
D11*
X155100000Y-115100000D03*
G04 #@! TD*
D18*
G04 #@! TO.C,D1*
X158050000Y-113900000D03*
X161350000Y-113900000D03*
G04 #@! TD*
G04 #@! TO.C,U7*
G36*
G01*
X150200000Y-122525000D02*
X150200000Y-122725000D01*
G75*
G02*
X150100000Y-122825000I-100000J0D01*
G01*
X148825000Y-122825000D01*
G75*
G02*
X148725000Y-122725000I0J100000D01*
G01*
X148725000Y-122525000D01*
G75*
G02*
X148825000Y-122425000I100000J0D01*
G01*
X150100000Y-122425000D01*
G75*
G02*
X150200000Y-122525000I0J-100000D01*
G01*
G37*
G36*
G01*
X150200000Y-121875000D02*
X150200000Y-122075000D01*
G75*
G02*
X150100000Y-122175000I-100000J0D01*
G01*
X148825000Y-122175000D01*
G75*
G02*
X148725000Y-122075000I0J100000D01*
G01*
X148725000Y-121875000D01*
G75*
G02*
X148825000Y-121775000I100000J0D01*
G01*
X150100000Y-121775000D01*
G75*
G02*
X150200000Y-121875000I0J-100000D01*
G01*
G37*
G36*
G01*
X150200000Y-121225000D02*
X150200000Y-121425000D01*
G75*
G02*
X150100000Y-121525000I-100000J0D01*
G01*
X148825000Y-121525000D01*
G75*
G02*
X148725000Y-121425000I0J100000D01*
G01*
X148725000Y-121225000D01*
G75*
G02*
X148825000Y-121125000I100000J0D01*
G01*
X150100000Y-121125000D01*
G75*
G02*
X150200000Y-121225000I0J-100000D01*
G01*
G37*
G36*
G01*
X150200000Y-120575000D02*
X150200000Y-120775000D01*
G75*
G02*
X150100000Y-120875000I-100000J0D01*
G01*
X148825000Y-120875000D01*
G75*
G02*
X148725000Y-120775000I0J100000D01*
G01*
X148725000Y-120575000D01*
G75*
G02*
X148825000Y-120475000I100000J0D01*
G01*
X150100000Y-120475000D01*
G75*
G02*
X150200000Y-120575000I0J-100000D01*
G01*
G37*
G36*
G01*
X150200000Y-119925000D02*
X150200000Y-120125000D01*
G75*
G02*
X150100000Y-120225000I-100000J0D01*
G01*
X148825000Y-120225000D01*
G75*
G02*
X148725000Y-120125000I0J100000D01*
G01*
X148725000Y-119925000D01*
G75*
G02*
X148825000Y-119825000I100000J0D01*
G01*
X150100000Y-119825000D01*
G75*
G02*
X150200000Y-119925000I0J-100000D01*
G01*
G37*
G36*
G01*
X150200000Y-119275000D02*
X150200000Y-119475000D01*
G75*
G02*
X150100000Y-119575000I-100000J0D01*
G01*
X148825000Y-119575000D01*
G75*
G02*
X148725000Y-119475000I0J100000D01*
G01*
X148725000Y-119275000D01*
G75*
G02*
X148825000Y-119175000I100000J0D01*
G01*
X150100000Y-119175000D01*
G75*
G02*
X150200000Y-119275000I0J-100000D01*
G01*
G37*
G36*
G01*
X150200000Y-118625000D02*
X150200000Y-118825000D01*
G75*
G02*
X150100000Y-118925000I-100000J0D01*
G01*
X148825000Y-118925000D01*
G75*
G02*
X148725000Y-118825000I0J100000D01*
G01*
X148725000Y-118625000D01*
G75*
G02*
X148825000Y-118525000I100000J0D01*
G01*
X150100000Y-118525000D01*
G75*
G02*
X150200000Y-118625000I0J-100000D01*
G01*
G37*
G36*
G01*
X150200000Y-117975000D02*
X150200000Y-118175000D01*
G75*
G02*
X150100000Y-118275000I-100000J0D01*
G01*
X148825000Y-118275000D01*
G75*
G02*
X148725000Y-118175000I0J100000D01*
G01*
X148725000Y-117975000D01*
G75*
G02*
X148825000Y-117875000I100000J0D01*
G01*
X150100000Y-117875000D01*
G75*
G02*
X150200000Y-117975000I0J-100000D01*
G01*
G37*
G36*
G01*
X150200000Y-117325000D02*
X150200000Y-117525000D01*
G75*
G02*
X150100000Y-117625000I-100000J0D01*
G01*
X148825000Y-117625000D01*
G75*
G02*
X148725000Y-117525000I0J100000D01*
G01*
X148725000Y-117325000D01*
G75*
G02*
X148825000Y-117225000I100000J0D01*
G01*
X150100000Y-117225000D01*
G75*
G02*
X150200000Y-117325000I0J-100000D01*
G01*
G37*
G36*
G01*
X150200000Y-116675000D02*
X150200000Y-116875000D01*
G75*
G02*
X150100000Y-116975000I-100000J0D01*
G01*
X148825000Y-116975000D01*
G75*
G02*
X148725000Y-116875000I0J100000D01*
G01*
X148725000Y-116675000D01*
G75*
G02*
X148825000Y-116575000I100000J0D01*
G01*
X150100000Y-116575000D01*
G75*
G02*
X150200000Y-116675000I0J-100000D01*
G01*
G37*
G36*
G01*
X144475000Y-116675000D02*
X144475000Y-116875000D01*
G75*
G02*
X144375000Y-116975000I-100000J0D01*
G01*
X143100000Y-116975000D01*
G75*
G02*
X143000000Y-116875000I0J100000D01*
G01*
X143000000Y-116675000D01*
G75*
G02*
X143100000Y-116575000I100000J0D01*
G01*
X144375000Y-116575000D01*
G75*
G02*
X144475000Y-116675000I0J-100000D01*
G01*
G37*
G36*
G01*
X144475000Y-117325000D02*
X144475000Y-117525000D01*
G75*
G02*
X144375000Y-117625000I-100000J0D01*
G01*
X143100000Y-117625000D01*
G75*
G02*
X143000000Y-117525000I0J100000D01*
G01*
X143000000Y-117325000D01*
G75*
G02*
X143100000Y-117225000I100000J0D01*
G01*
X144375000Y-117225000D01*
G75*
G02*
X144475000Y-117325000I0J-100000D01*
G01*
G37*
G36*
G01*
X144475000Y-117975000D02*
X144475000Y-118175000D01*
G75*
G02*
X144375000Y-118275000I-100000J0D01*
G01*
X143100000Y-118275000D01*
G75*
G02*
X143000000Y-118175000I0J100000D01*
G01*
X143000000Y-117975000D01*
G75*
G02*
X143100000Y-117875000I100000J0D01*
G01*
X144375000Y-117875000D01*
G75*
G02*
X144475000Y-117975000I0J-100000D01*
G01*
G37*
G36*
G01*
X144475000Y-118625000D02*
X144475000Y-118825000D01*
G75*
G02*
X144375000Y-118925000I-100000J0D01*
G01*
X143100000Y-118925000D01*
G75*
G02*
X143000000Y-118825000I0J100000D01*
G01*
X143000000Y-118625000D01*
G75*
G02*
X143100000Y-118525000I100000J0D01*
G01*
X144375000Y-118525000D01*
G75*
G02*
X144475000Y-118625000I0J-100000D01*
G01*
G37*
G36*
G01*
X144475000Y-119275000D02*
X144475000Y-119475000D01*
G75*
G02*
X144375000Y-119575000I-100000J0D01*
G01*
X143100000Y-119575000D01*
G75*
G02*
X143000000Y-119475000I0J100000D01*
G01*
X143000000Y-119275000D01*
G75*
G02*
X143100000Y-119175000I100000J0D01*
G01*
X144375000Y-119175000D01*
G75*
G02*
X144475000Y-119275000I0J-100000D01*
G01*
G37*
G36*
G01*
X144475000Y-119925000D02*
X144475000Y-120125000D01*
G75*
G02*
X144375000Y-120225000I-100000J0D01*
G01*
X143100000Y-120225000D01*
G75*
G02*
X143000000Y-120125000I0J100000D01*
G01*
X143000000Y-119925000D01*
G75*
G02*
X143100000Y-119825000I100000J0D01*
G01*
X144375000Y-119825000D01*
G75*
G02*
X144475000Y-119925000I0J-100000D01*
G01*
G37*
G36*
G01*
X144475000Y-120575000D02*
X144475000Y-120775000D01*
G75*
G02*
X144375000Y-120875000I-100000J0D01*
G01*
X143100000Y-120875000D01*
G75*
G02*
X143000000Y-120775000I0J100000D01*
G01*
X143000000Y-120575000D01*
G75*
G02*
X143100000Y-120475000I100000J0D01*
G01*
X144375000Y-120475000D01*
G75*
G02*
X144475000Y-120575000I0J-100000D01*
G01*
G37*
G36*
G01*
X144475000Y-121225000D02*
X144475000Y-121425000D01*
G75*
G02*
X144375000Y-121525000I-100000J0D01*
G01*
X143100000Y-121525000D01*
G75*
G02*
X143000000Y-121425000I0J100000D01*
G01*
X143000000Y-121225000D01*
G75*
G02*
X143100000Y-121125000I100000J0D01*
G01*
X144375000Y-121125000D01*
G75*
G02*
X144475000Y-121225000I0J-100000D01*
G01*
G37*
G36*
G01*
X144475000Y-121875000D02*
X144475000Y-122075000D01*
G75*
G02*
X144375000Y-122175000I-100000J0D01*
G01*
X143100000Y-122175000D01*
G75*
G02*
X143000000Y-122075000I0J100000D01*
G01*
X143000000Y-121875000D01*
G75*
G02*
X143100000Y-121775000I100000J0D01*
G01*
X144375000Y-121775000D01*
G75*
G02*
X144475000Y-121875000I0J-100000D01*
G01*
G37*
G36*
G01*
X144475000Y-122525000D02*
X144475000Y-122725000D01*
G75*
G02*
X144375000Y-122825000I-100000J0D01*
G01*
X143100000Y-122825000D01*
G75*
G02*
X143000000Y-122725000I0J100000D01*
G01*
X143000000Y-122525000D01*
G75*
G02*
X143100000Y-122425000I100000J0D01*
G01*
X144375000Y-122425000D01*
G75*
G02*
X144475000Y-122525000I0J-100000D01*
G01*
G37*
G04 #@! TD*
G04 #@! TO.C,C28*
G36*
G01*
X137460000Y-104780000D02*
X137460000Y-105120000D01*
G75*
G02*
X137320000Y-105260000I-140000J0D01*
G01*
X137040000Y-105260000D01*
G75*
G02*
X136900000Y-105120000I0J140000D01*
G01*
X136900000Y-104780000D01*
G75*
G02*
X137040000Y-104640000I140000J0D01*
G01*
X137320000Y-104640000D01*
G75*
G02*
X137460000Y-104780000I0J-140000D01*
G01*
G37*
G36*
G01*
X136500000Y-104780000D02*
X136500000Y-105120000D01*
G75*
G02*
X136360000Y-105260000I-140000J0D01*
G01*
X136080000Y-105260000D01*
G75*
G02*
X135940000Y-105120000I0J140000D01*
G01*
X135940000Y-104780000D01*
G75*
G02*
X136080000Y-104640000I140000J0D01*
G01*
X136360000Y-104640000D01*
G75*
G02*
X136500000Y-104780000I0J-140000D01*
G01*
G37*
G04 #@! TD*
G04 #@! TO.C,C56*
G36*
G01*
X156690000Y-95020000D02*
X156690000Y-94680000D01*
G75*
G02*
X156830000Y-94540000I140000J0D01*
G01*
X157110000Y-94540000D01*
G75*
G02*
X157250000Y-94680000I0J-140000D01*
G01*
X157250000Y-95020000D01*
G75*
G02*
X157110000Y-95160000I-140000J0D01*
G01*
X156830000Y-95160000D01*
G75*
G02*
X156690000Y-95020000I0J140000D01*
G01*
G37*
G36*
G01*
X157650000Y-95020000D02*
X157650000Y-94680000D01*
G75*
G02*
X157790000Y-94540000I140000J0D01*
G01*
X158070000Y-94540000D01*
G75*
G02*
X158210000Y-94680000I0J-140000D01*
G01*
X158210000Y-95020000D01*
G75*
G02*
X158070000Y-95160000I-140000J0D01*
G01*
X157790000Y-95160000D01*
G75*
G02*
X157650000Y-95020000I0J140000D01*
G01*
G37*
G04 #@! TD*
G04 #@! TO.C,L1*
G36*
G01*
X133981250Y-117600000D02*
X133218750Y-117600000D01*
G75*
G02*
X133000000Y-117381250I0J218750D01*
G01*
X133000000Y-116943750D01*
G75*
G02*
X133218750Y-116725000I218750J0D01*
G01*
X133981250Y-116725000D01*
G75*
G02*
X134200000Y-116943750I0J-218750D01*
G01*
X134200000Y-117381250D01*
G75*
G02*
X133981250Y-117600000I-218750J0D01*
G01*
G37*
G36*
G01*
X133981250Y-115475000D02*
X133218750Y-115475000D01*
G75*
G02*
X133000000Y-115256250I0J218750D01*
G01*
X133000000Y-114818750D01*
G75*
G02*
X133218750Y-114600000I218750J0D01*
G01*
X133981250Y-114600000D01*
G75*
G02*
X134200000Y-114818750I0J-218750D01*
G01*
X134200000Y-115256250D01*
G75*
G02*
X133981250Y-115475000I-218750J0D01*
G01*
G37*
G04 #@! TD*
G04 #@! TO.C,C51*
G36*
G01*
X156720000Y-121660000D02*
X156380000Y-121660000D01*
G75*
G02*
X156240000Y-121520000I0J140000D01*
G01*
X156240000Y-121240000D01*
G75*
G02*
X156380000Y-121100000I140000J0D01*
G01*
X156720000Y-121100000D01*
G75*
G02*
X156860000Y-121240000I0J-140000D01*
G01*
X156860000Y-121520000D01*
G75*
G02*
X156720000Y-121660000I-140000J0D01*
G01*
G37*
G36*
G01*
X156720000Y-120700000D02*
X156380000Y-120700000D01*
G75*
G02*
X156240000Y-120560000I0J140000D01*
G01*
X156240000Y-120280000D01*
G75*
G02*
X156380000Y-120140000I140000J0D01*
G01*
X156720000Y-120140000D01*
G75*
G02*
X156860000Y-120280000I0J-140000D01*
G01*
X156860000Y-120560000D01*
G75*
G02*
X156720000Y-120700000I-140000J0D01*
G01*
G37*
G04 #@! TD*
G04 #@! TO.C,C49*
G36*
G01*
X130160000Y-110830000D02*
X130160000Y-111170000D01*
G75*
G02*
X130020000Y-111310000I-140000J0D01*
G01*
X129740000Y-111310000D01*
G75*
G02*
X129600000Y-111170000I0J140000D01*
G01*
X129600000Y-110830000D01*
G75*
G02*
X129740000Y-110690000I140000J0D01*
G01*
X130020000Y-110690000D01*
G75*
G02*
X130160000Y-110830000I0J-140000D01*
G01*
G37*
G36*
G01*
X129200000Y-110830000D02*
X129200000Y-111170000D01*
G75*
G02*
X129060000Y-111310000I-140000J0D01*
G01*
X128780000Y-111310000D01*
G75*
G02*
X128640000Y-111170000I0J140000D01*
G01*
X128640000Y-110830000D01*
G75*
G02*
X128780000Y-110690000I140000J0D01*
G01*
X129060000Y-110690000D01*
G75*
G02*
X129200000Y-110830000I0J-140000D01*
G01*
G37*
G04 #@! TD*
D19*
G04 #@! TO.C,U8*
X155450000Y-118750000D03*
X154950000Y-118750000D03*
X154450000Y-118750000D03*
X153950000Y-118750000D03*
X153950000Y-120650000D03*
X154450000Y-120650000D03*
X154950000Y-120650000D03*
X155450000Y-120650000D03*
D20*
X154700000Y-119700000D03*
G04 #@! TD*
D21*
G04 #@! TO.C,U5*
X147365000Y-91475000D03*
X145715000Y-91475000D03*
X145715000Y-93025000D03*
X147365000Y-93025000D03*
G04 #@! TD*
G04 #@! TO.C,C24*
G36*
G01*
X134875000Y-121100000D02*
X134875000Y-120600000D01*
G75*
G02*
X135100000Y-120375000I225000J0D01*
G01*
X135550000Y-120375000D01*
G75*
G02*
X135775000Y-120600000I0J-225000D01*
G01*
X135775000Y-121100000D01*
G75*
G02*
X135550000Y-121325000I-225000J0D01*
G01*
X135100000Y-121325000D01*
G75*
G02*
X134875000Y-121100000I0J225000D01*
G01*
G37*
G36*
G01*
X136425000Y-121100000D02*
X136425000Y-120600000D01*
G75*
G02*
X136650000Y-120375000I225000J0D01*
G01*
X137100000Y-120375000D01*
G75*
G02*
X137325000Y-120600000I0J-225000D01*
G01*
X137325000Y-121100000D01*
G75*
G02*
X137100000Y-121325000I-225000J0D01*
G01*
X136650000Y-121325000D01*
G75*
G02*
X136425000Y-121100000I0J225000D01*
G01*
G37*
G04 #@! TD*
D22*
G04 #@! TO.C,U6*
X143874999Y-111650001D03*
X143874999Y-111000000D03*
X143874999Y-110350001D03*
X141925001Y-110350001D03*
X141925001Y-111000000D03*
X141925001Y-111650001D03*
G04 #@! TD*
G04 #@! TO.C,C5*
G36*
G01*
X148140000Y-106420000D02*
X148140000Y-106080000D01*
G75*
G02*
X148280000Y-105940000I140000J0D01*
G01*
X148560000Y-105940000D01*
G75*
G02*
X148700000Y-106080000I0J-140000D01*
G01*
X148700000Y-106420000D01*
G75*
G02*
X148560000Y-106560000I-140000J0D01*
G01*
X148280000Y-106560000D01*
G75*
G02*
X148140000Y-106420000I0J140000D01*
G01*
G37*
G36*
G01*
X149100000Y-106420000D02*
X149100000Y-106080000D01*
G75*
G02*
X149240000Y-105940000I140000J0D01*
G01*
X149520000Y-105940000D01*
G75*
G02*
X149660000Y-106080000I0J-140000D01*
G01*
X149660000Y-106420000D01*
G75*
G02*
X149520000Y-106560000I-140000J0D01*
G01*
X149240000Y-106560000D01*
G75*
G02*
X149100000Y-106420000I0J140000D01*
G01*
G37*
G04 #@! TD*
G04 #@! TO.C,C18*
G36*
G01*
X150320000Y-109760000D02*
X149980000Y-109760000D01*
G75*
G02*
X149840000Y-109620000I0J140000D01*
G01*
X149840000Y-109340000D01*
G75*
G02*
X149980000Y-109200000I140000J0D01*
G01*
X150320000Y-109200000D01*
G75*
G02*
X150460000Y-109340000I0J-140000D01*
G01*
X150460000Y-109620000D01*
G75*
G02*
X150320000Y-109760000I-140000J0D01*
G01*
G37*
G36*
G01*
X150320000Y-108800000D02*
X149980000Y-108800000D01*
G75*
G02*
X149840000Y-108660000I0J140000D01*
G01*
X149840000Y-108380000D01*
G75*
G02*
X149980000Y-108240000I140000J0D01*
G01*
X150320000Y-108240000D01*
G75*
G02*
X150460000Y-108380000I0J-140000D01*
G01*
X150460000Y-108660000D01*
G75*
G02*
X150320000Y-108800000I-140000J0D01*
G01*
G37*
G04 #@! TD*
G04 #@! TO.C,R4*
G36*
G01*
X129960000Y-95255000D02*
X129590000Y-95255000D01*
G75*
G02*
X129455000Y-95120000I0J135000D01*
G01*
X129455000Y-94850000D01*
G75*
G02*
X129590000Y-94715000I135000J0D01*
G01*
X129960000Y-94715000D01*
G75*
G02*
X130095000Y-94850000I0J-135000D01*
G01*
X130095000Y-95120000D01*
G75*
G02*
X129960000Y-95255000I-135000J0D01*
G01*
G37*
G36*
G01*
X129960000Y-94235000D02*
X129590000Y-94235000D01*
G75*
G02*
X129455000Y-94100000I0J135000D01*
G01*
X129455000Y-93830000D01*
G75*
G02*
X129590000Y-93695000I135000J0D01*
G01*
X129960000Y-93695000D01*
G75*
G02*
X130095000Y-93830000I0J-135000D01*
G01*
X130095000Y-94100000D01*
G75*
G02*
X129960000Y-94235000I-135000J0D01*
G01*
G37*
G04 #@! TD*
G04 #@! TO.C,C8*
G36*
G01*
X138530000Y-100440000D02*
X138870000Y-100440000D01*
G75*
G02*
X139010000Y-100580000I0J-140000D01*
G01*
X139010000Y-100860000D01*
G75*
G02*
X138870000Y-101000000I-140000J0D01*
G01*
X138530000Y-101000000D01*
G75*
G02*
X138390000Y-100860000I0J140000D01*
G01*
X138390000Y-100580000D01*
G75*
G02*
X138530000Y-100440000I140000J0D01*
G01*
G37*
G36*
G01*
X138530000Y-101400000D02*
X138870000Y-101400000D01*
G75*
G02*
X139010000Y-101540000I0J-140000D01*
G01*
X139010000Y-101820000D01*
G75*
G02*
X138870000Y-101960000I-140000J0D01*
G01*
X138530000Y-101960000D01*
G75*
G02*
X138390000Y-101820000I0J140000D01*
G01*
X138390000Y-101540000D01*
G75*
G02*
X138530000Y-101400000I140000J0D01*
G01*
G37*
G04 #@! TD*
G04 #@! TO.C,C37*
G36*
G01*
X145090000Y-102070000D02*
X145090000Y-101730000D01*
G75*
G02*
X145230000Y-101590000I140000J0D01*
G01*
X145510000Y-101590000D01*
G75*
G02*
X145650000Y-101730000I0J-140000D01*
G01*
X145650000Y-102070000D01*
G75*
G02*
X145510000Y-102210000I-140000J0D01*
G01*
X145230000Y-102210000D01*
G75*
G02*
X145090000Y-102070000I0J140000D01*
G01*
G37*
G36*
G01*
X146050000Y-102070000D02*
X146050000Y-101730000D01*
G75*
G02*
X146190000Y-101590000I140000J0D01*
G01*
X146470000Y-101590000D01*
G75*
G02*
X146610000Y-101730000I0J-140000D01*
G01*
X146610000Y-102070000D01*
G75*
G02*
X146470000Y-102210000I-140000J0D01*
G01*
X146190000Y-102210000D01*
G75*
G02*
X146050000Y-102070000I0J140000D01*
G01*
G37*
G04 #@! TD*
D16*
G04 #@! TO.C,TP10*
X137300000Y-98650000D03*
G04 #@! TD*
G04 #@! TO.C,TP13*
X130800000Y-100000000D03*
G04 #@! TD*
G04 #@! TO.C,C10*
G36*
G01*
X137540000Y-107070000D02*
X137540000Y-106730000D01*
G75*
G02*
X137680000Y-106590000I140000J0D01*
G01*
X137960000Y-106590000D01*
G75*
G02*
X138100000Y-106730000I0J-140000D01*
G01*
X138100000Y-107070000D01*
G75*
G02*
X137960000Y-107210000I-140000J0D01*
G01*
X137680000Y-107210000D01*
G75*
G02*
X137540000Y-107070000I0J140000D01*
G01*
G37*
G36*
G01*
X138500000Y-107070000D02*
X138500000Y-106730000D01*
G75*
G02*
X138640000Y-106590000I140000J0D01*
G01*
X138920000Y-106590000D01*
G75*
G02*
X139060000Y-106730000I0J-140000D01*
G01*
X139060000Y-107070000D01*
G75*
G02*
X138920000Y-107210000I-140000J0D01*
G01*
X138640000Y-107210000D01*
G75*
G02*
X138500000Y-107070000I0J140000D01*
G01*
G37*
G04 #@! TD*
G04 #@! TO.C,C15*
G36*
G01*
X148140000Y-103520000D02*
X148140000Y-103180000D01*
G75*
G02*
X148280000Y-103040000I140000J0D01*
G01*
X148560000Y-103040000D01*
G75*
G02*
X148700000Y-103180000I0J-140000D01*
G01*
X148700000Y-103520000D01*
G75*
G02*
X148560000Y-103660000I-140000J0D01*
G01*
X148280000Y-103660000D01*
G75*
G02*
X148140000Y-103520000I0J140000D01*
G01*
G37*
G36*
G01*
X149100000Y-103520000D02*
X149100000Y-103180000D01*
G75*
G02*
X149240000Y-103040000I140000J0D01*
G01*
X149520000Y-103040000D01*
G75*
G02*
X149660000Y-103180000I0J-140000D01*
G01*
X149660000Y-103520000D01*
G75*
G02*
X149520000Y-103660000I-140000J0D01*
G01*
X149240000Y-103660000D01*
G75*
G02*
X149100000Y-103520000I0J140000D01*
G01*
G37*
G04 #@! TD*
D23*
G04 #@! TO.C,J2*
X161487500Y-110150000D03*
X161487500Y-109650000D03*
X161487500Y-109150000D03*
X161487500Y-108650000D03*
X161487500Y-108150000D03*
X161487500Y-107650000D03*
X161487500Y-107150000D03*
X161487500Y-106650000D03*
X161487500Y-106150000D03*
X161487500Y-105650000D03*
X161487500Y-105150000D03*
X161487500Y-104650000D03*
X161487500Y-104150000D03*
X161487500Y-103650000D03*
X161487500Y-103150000D03*
X161487500Y-102650000D03*
X161487500Y-102150000D03*
X161487500Y-101650000D03*
X161487500Y-101150000D03*
X161487500Y-100650000D03*
X161487500Y-100150000D03*
X161487500Y-99650000D03*
D24*
X164737500Y-112050000D03*
X164737500Y-97750000D03*
G04 #@! TD*
D16*
G04 #@! TO.C,TP_3V1*
X125900000Y-112850000D03*
G04 #@! TD*
G04 #@! TO.C,C53*
G36*
G01*
X150840000Y-117570000D02*
X150840000Y-117230000D01*
G75*
G02*
X150980000Y-117090000I140000J0D01*
G01*
X151260000Y-117090000D01*
G75*
G02*
X151400000Y-117230000I0J-140000D01*
G01*
X151400000Y-117570000D01*
G75*
G02*
X151260000Y-117710000I-140000J0D01*
G01*
X150980000Y-117710000D01*
G75*
G02*
X150840000Y-117570000I0J140000D01*
G01*
G37*
G36*
G01*
X151800000Y-117570000D02*
X151800000Y-117230000D01*
G75*
G02*
X151940000Y-117090000I140000J0D01*
G01*
X152220000Y-117090000D01*
G75*
G02*
X152360000Y-117230000I0J-140000D01*
G01*
X152360000Y-117570000D01*
G75*
G02*
X152220000Y-117710000I-140000J0D01*
G01*
X151940000Y-117710000D01*
G75*
G02*
X151800000Y-117570000I0J140000D01*
G01*
G37*
G04 #@! TD*
G04 #@! TO.C,C1*
G36*
G01*
X150570000Y-107510000D02*
X150230000Y-107510000D01*
G75*
G02*
X150090000Y-107370000I0J140000D01*
G01*
X150090000Y-107090000D01*
G75*
G02*
X150230000Y-106950000I140000J0D01*
G01*
X150570000Y-106950000D01*
G75*
G02*
X150710000Y-107090000I0J-140000D01*
G01*
X150710000Y-107370000D01*
G75*
G02*
X150570000Y-107510000I-140000J0D01*
G01*
G37*
G36*
G01*
X150570000Y-106550000D02*
X150230000Y-106550000D01*
G75*
G02*
X150090000Y-106410000I0J140000D01*
G01*
X150090000Y-106130000D01*
G75*
G02*
X150230000Y-105990000I140000J0D01*
G01*
X150570000Y-105990000D01*
G75*
G02*
X150710000Y-106130000I0J-140000D01*
G01*
X150710000Y-106410000D01*
G75*
G02*
X150570000Y-106550000I-140000J0D01*
G01*
G37*
G04 #@! TD*
G04 #@! TO.C,R8*
G36*
G01*
X143320000Y-93235000D02*
X143320000Y-92865000D01*
G75*
G02*
X143455000Y-92730000I135000J0D01*
G01*
X143725000Y-92730000D01*
G75*
G02*
X143860000Y-92865000I0J-135000D01*
G01*
X143860000Y-93235000D01*
G75*
G02*
X143725000Y-93370000I-135000J0D01*
G01*
X143455000Y-93370000D01*
G75*
G02*
X143320000Y-93235000I0J135000D01*
G01*
G37*
G36*
G01*
X144340000Y-93235000D02*
X144340000Y-92865000D01*
G75*
G02*
X144475000Y-92730000I135000J0D01*
G01*
X144745000Y-92730000D01*
G75*
G02*
X144880000Y-92865000I0J-135000D01*
G01*
X144880000Y-93235000D01*
G75*
G02*
X144745000Y-93370000I-135000J0D01*
G01*
X144475000Y-93370000D01*
G75*
G02*
X144340000Y-93235000I0J135000D01*
G01*
G37*
G04 #@! TD*
G04 #@! TO.C,C59*
G36*
G01*
X125850000Y-116175000D02*
X126350000Y-116175000D01*
G75*
G02*
X126575000Y-116400000I0J-225000D01*
G01*
X126575000Y-116850000D01*
G75*
G02*
X126350000Y-117075000I-225000J0D01*
G01*
X125850000Y-117075000D01*
G75*
G02*
X125625000Y-116850000I0J225000D01*
G01*
X125625000Y-116400000D01*
G75*
G02*
X125850000Y-116175000I225000J0D01*
G01*
G37*
G36*
G01*
X125850000Y-117725000D02*
X126350000Y-117725000D01*
G75*
G02*
X126575000Y-117950000I0J-225000D01*
G01*
X126575000Y-118400000D01*
G75*
G02*
X126350000Y-118625000I-225000J0D01*
G01*
X125850000Y-118625000D01*
G75*
G02*
X125625000Y-118400000I0J225000D01*
G01*
X125625000Y-117950000D01*
G75*
G02*
X125850000Y-117725000I225000J0D01*
G01*
G37*
G04 #@! TD*
G04 #@! TO.C,FB4*
G36*
G01*
X141222500Y-114230000D02*
X140877500Y-114230000D01*
G75*
G02*
X140730000Y-114082500I0J147500D01*
G01*
X140730000Y-113787500D01*
G75*
G02*
X140877500Y-113640000I147500J0D01*
G01*
X141222500Y-113640000D01*
G75*
G02*
X141370000Y-113787500I0J-147500D01*
G01*
X141370000Y-114082500D01*
G75*
G02*
X141222500Y-114230000I-147500J0D01*
G01*
G37*
G36*
G01*
X141222500Y-113260000D02*
X140877500Y-113260000D01*
G75*
G02*
X140730000Y-113112500I0J147500D01*
G01*
X140730000Y-112817500D01*
G75*
G02*
X140877500Y-112670000I147500J0D01*
G01*
X141222500Y-112670000D01*
G75*
G02*
X141370000Y-112817500I0J-147500D01*
G01*
X141370000Y-113112500D01*
G75*
G02*
X141222500Y-113260000I-147500J0D01*
G01*
G37*
G04 #@! TD*
G04 #@! TO.C,C57*
G36*
G01*
X132470000Y-105760000D02*
X132130000Y-105760000D01*
G75*
G02*
X131990000Y-105620000I0J140000D01*
G01*
X131990000Y-105340000D01*
G75*
G02*
X132130000Y-105200000I140000J0D01*
G01*
X132470000Y-105200000D01*
G75*
G02*
X132610000Y-105340000I0J-140000D01*
G01*
X132610000Y-105620000D01*
G75*
G02*
X132470000Y-105760000I-140000J0D01*
G01*
G37*
G36*
G01*
X132470000Y-104800000D02*
X132130000Y-104800000D01*
G75*
G02*
X131990000Y-104660000I0J140000D01*
G01*
X131990000Y-104380000D01*
G75*
G02*
X132130000Y-104240000I140000J0D01*
G01*
X132470000Y-104240000D01*
G75*
G02*
X132610000Y-104380000I0J-140000D01*
G01*
X132610000Y-104660000D01*
G75*
G02*
X132470000Y-104800000I-140000J0D01*
G01*
G37*
G04 #@! TD*
G04 #@! TO.C,TP11*
X137050000Y-90700000D03*
G04 #@! TD*
G04 #@! TO.C,TP3*
X133500000Y-103100000D03*
G04 #@! TD*
G04 #@! TO.C,JP1*
G36*
X127275000Y-95795000D02*
G01*
X126775000Y-95795000D01*
X126775000Y-95789911D01*
X126703843Y-95789911D01*
X126567292Y-95749816D01*
X126447570Y-95672875D01*
X126354373Y-95565320D01*
X126295254Y-95435866D01*
X126275000Y-95295000D01*
X126275000Y-94795000D01*
X126295254Y-94654134D01*
X126354373Y-94524680D01*
X126447570Y-94417125D01*
X126567292Y-94340184D01*
X126703843Y-94300089D01*
X126775000Y-94300089D01*
X126775000Y-94295000D01*
X127275000Y-94295000D01*
X127275000Y-95795000D01*
G37*
G36*
X128075000Y-94300089D02*
G01*
X128146157Y-94300089D01*
X128282708Y-94340184D01*
X128402430Y-94417125D01*
X128495627Y-94524680D01*
X128554746Y-94654134D01*
X128575000Y-94795000D01*
X128575000Y-95295000D01*
X128554746Y-95435866D01*
X128495627Y-95565320D01*
X128402430Y-95672875D01*
X128282708Y-95749816D01*
X128146157Y-95789911D01*
X128075000Y-95789911D01*
X128075000Y-95795000D01*
X127575000Y-95795000D01*
X127575000Y-94295000D01*
X128075000Y-94295000D01*
X128075000Y-94300089D01*
G37*
G04 #@! TD*
G04 #@! TO.C,TP14*
X131150000Y-121850000D03*
G04 #@! TD*
D15*
G04 #@! TO.C,FL5*
X157275000Y-106100000D03*
X158525000Y-106100000D03*
X158525000Y-106650000D03*
X157275000Y-106650000D03*
G04 #@! TD*
G04 #@! TO.C,C46*
G36*
G01*
X146770000Y-98910000D02*
X146430000Y-98910000D01*
G75*
G02*
X146290000Y-98770000I0J140000D01*
G01*
X146290000Y-98490000D01*
G75*
G02*
X146430000Y-98350000I140000J0D01*
G01*
X146770000Y-98350000D01*
G75*
G02*
X146910000Y-98490000I0J-140000D01*
G01*
X146910000Y-98770000D01*
G75*
G02*
X146770000Y-98910000I-140000J0D01*
G01*
G37*
G36*
G01*
X146770000Y-97950000D02*
X146430000Y-97950000D01*
G75*
G02*
X146290000Y-97810000I0J140000D01*
G01*
X146290000Y-97530000D01*
G75*
G02*
X146430000Y-97390000I140000J0D01*
G01*
X146770000Y-97390000D01*
G75*
G02*
X146910000Y-97530000I0J-140000D01*
G01*
X146910000Y-97810000D01*
G75*
G02*
X146770000Y-97950000I-140000J0D01*
G01*
G37*
G04 #@! TD*
G04 #@! TO.C,C16*
G36*
G01*
X137840000Y-104120000D02*
X137840000Y-103780000D01*
G75*
G02*
X137980000Y-103640000I140000J0D01*
G01*
X138260000Y-103640000D01*
G75*
G02*
X138400000Y-103780000I0J-140000D01*
G01*
X138400000Y-104120000D01*
G75*
G02*
X138260000Y-104260000I-140000J0D01*
G01*
X137980000Y-104260000D01*
G75*
G02*
X137840000Y-104120000I0J140000D01*
G01*
G37*
G36*
G01*
X138800000Y-104120000D02*
X138800000Y-103780000D01*
G75*
G02*
X138940000Y-103640000I140000J0D01*
G01*
X139220000Y-103640000D01*
G75*
G02*
X139360000Y-103780000I0J-140000D01*
G01*
X139360000Y-104120000D01*
G75*
G02*
X139220000Y-104260000I-140000J0D01*
G01*
X138940000Y-104260000D01*
G75*
G02*
X138800000Y-104120000I0J140000D01*
G01*
G37*
G04 #@! TD*
G04 #@! TO.C,C41*
G36*
G01*
X136060000Y-109230000D02*
X136060000Y-109570000D01*
G75*
G02*
X135920000Y-109710000I-140000J0D01*
G01*
X135640000Y-109710000D01*
G75*
G02*
X135500000Y-109570000I0J140000D01*
G01*
X135500000Y-109230000D01*
G75*
G02*
X135640000Y-109090000I140000J0D01*
G01*
X135920000Y-109090000D01*
G75*
G02*
X136060000Y-109230000I0J-140000D01*
G01*
G37*
G36*
G01*
X135100000Y-109230000D02*
X135100000Y-109570000D01*
G75*
G02*
X134960000Y-109710000I-140000J0D01*
G01*
X134680000Y-109710000D01*
G75*
G02*
X134540000Y-109570000I0J140000D01*
G01*
X134540000Y-109230000D01*
G75*
G02*
X134680000Y-109090000I140000J0D01*
G01*
X134960000Y-109090000D01*
G75*
G02*
X135100000Y-109230000I0J-140000D01*
G01*
G37*
G04 #@! TD*
G04 #@! TO.C,FL3*
X157275000Y-103125000D03*
X158525000Y-103125000D03*
X158525000Y-103675000D03*
X157275000Y-103675000D03*
G04 #@! TD*
G04 #@! TO.C,U10*
G36*
G01*
X158056250Y-117575000D02*
X157843750Y-117575000D01*
G75*
G02*
X157750000Y-117481250I0J93750D01*
G01*
X157750000Y-117293750D01*
G75*
G02*
X157843750Y-117200000I93750J0D01*
G01*
X158056250Y-117200000D01*
G75*
G02*
X158150000Y-117293750I0J-93750D01*
G01*
X158150000Y-117481250D01*
G75*
G02*
X158056250Y-117575000I-93750J0D01*
G01*
G37*
G36*
G01*
X158706250Y-117575000D02*
X158493750Y-117575000D01*
G75*
G02*
X158400000Y-117481250I0J93750D01*
G01*
X158400000Y-117293750D01*
G75*
G02*
X158493750Y-117200000I93750J0D01*
G01*
X158706250Y-117200000D01*
G75*
G02*
X158800000Y-117293750I0J-93750D01*
G01*
X158800000Y-117481250D01*
G75*
G02*
X158706250Y-117575000I-93750J0D01*
G01*
G37*
G36*
G01*
X159356250Y-117575000D02*
X159143750Y-117575000D01*
G75*
G02*
X159050000Y-117481250I0J93750D01*
G01*
X159050000Y-117293750D01*
G75*
G02*
X159143750Y-117200000I93750J0D01*
G01*
X159356250Y-117200000D01*
G75*
G02*
X159450000Y-117293750I0J-93750D01*
G01*
X159450000Y-117481250D01*
G75*
G02*
X159356250Y-117575000I-93750J0D01*
G01*
G37*
G36*
G01*
X159356250Y-115800000D02*
X159143750Y-115800000D01*
G75*
G02*
X159050000Y-115706250I0J93750D01*
G01*
X159050000Y-115518750D01*
G75*
G02*
X159143750Y-115425000I93750J0D01*
G01*
X159356250Y-115425000D01*
G75*
G02*
X159450000Y-115518750I0J-93750D01*
G01*
X159450000Y-115706250D01*
G75*
G02*
X159356250Y-115800000I-93750J0D01*
G01*
G37*
G36*
G01*
X158706250Y-115800000D02*
X158493750Y-115800000D01*
G75*
G02*
X158400000Y-115706250I0J93750D01*
G01*
X158400000Y-115518750D01*
G75*
G02*
X158493750Y-115425000I93750J0D01*
G01*
X158706250Y-115425000D01*
G75*
G02*
X158800000Y-115518750I0J-93750D01*
G01*
X158800000Y-115706250D01*
G75*
G02*
X158706250Y-115800000I-93750J0D01*
G01*
G37*
G36*
G01*
X158056250Y-115800000D02*
X157843750Y-115800000D01*
G75*
G02*
X157750000Y-115706250I0J93750D01*
G01*
X157750000Y-115518750D01*
G75*
G02*
X157843750Y-115425000I93750J0D01*
G01*
X158056250Y-115425000D01*
G75*
G02*
X158150000Y-115518750I0J-93750D01*
G01*
X158150000Y-115706250D01*
G75*
G02*
X158056250Y-115800000I-93750J0D01*
G01*
G37*
D25*
X158600000Y-116500000D03*
G04 #@! TD*
G04 #@! TO.C,U3*
G36*
G01*
X131237500Y-106475000D02*
X131362500Y-106475000D01*
G75*
G02*
X131425000Y-106537500I0J-62500D01*
G01*
X131425000Y-107237500D01*
G75*
G02*
X131362500Y-107300000I-62500J0D01*
G01*
X131237500Y-107300000D01*
G75*
G02*
X131175000Y-107237500I0J62500D01*
G01*
X131175000Y-106537500D01*
G75*
G02*
X131237500Y-106475000I62500J0D01*
G01*
G37*
G36*
G01*
X130737500Y-106475000D02*
X130862500Y-106475000D01*
G75*
G02*
X130925000Y-106537500I0J-62500D01*
G01*
X130925000Y-107237500D01*
G75*
G02*
X130862500Y-107300000I-62500J0D01*
G01*
X130737500Y-107300000D01*
G75*
G02*
X130675000Y-107237500I0J62500D01*
G01*
X130675000Y-106537500D01*
G75*
G02*
X130737500Y-106475000I62500J0D01*
G01*
G37*
G36*
G01*
X130237500Y-106475000D02*
X130362500Y-106475000D01*
G75*
G02*
X130425000Y-106537500I0J-62500D01*
G01*
X130425000Y-107237500D01*
G75*
G02*
X130362500Y-107300000I-62500J0D01*
G01*
X130237500Y-107300000D01*
G75*
G02*
X130175000Y-107237500I0J62500D01*
G01*
X130175000Y-106537500D01*
G75*
G02*
X130237500Y-106475000I62500J0D01*
G01*
G37*
G36*
G01*
X129737500Y-106475000D02*
X129862500Y-106475000D01*
G75*
G02*
X129925000Y-106537500I0J-62500D01*
G01*
X129925000Y-107237500D01*
G75*
G02*
X129862500Y-107300000I-62500J0D01*
G01*
X129737500Y-107300000D01*
G75*
G02*
X129675000Y-107237500I0J62500D01*
G01*
X129675000Y-106537500D01*
G75*
G02*
X129737500Y-106475000I62500J0D01*
G01*
G37*
G36*
G01*
X129237500Y-106475000D02*
X129362500Y-106475000D01*
G75*
G02*
X129425000Y-106537500I0J-62500D01*
G01*
X129425000Y-107237500D01*
G75*
G02*
X129362500Y-107300000I-62500J0D01*
G01*
X129237500Y-107300000D01*
G75*
G02*
X129175000Y-107237500I0J62500D01*
G01*
X129175000Y-106537500D01*
G75*
G02*
X129237500Y-106475000I62500J0D01*
G01*
G37*
G36*
G01*
X129237500Y-108900000D02*
X129362500Y-108900000D01*
G75*
G02*
X129425000Y-108962500I0J-62500D01*
G01*
X129425000Y-109662500D01*
G75*
G02*
X129362500Y-109725000I-62500J0D01*
G01*
X129237500Y-109725000D01*
G75*
G02*
X129175000Y-109662500I0J62500D01*
G01*
X129175000Y-108962500D01*
G75*
G02*
X129237500Y-108900000I62500J0D01*
G01*
G37*
G36*
G01*
X129737500Y-108900000D02*
X129862500Y-108900000D01*
G75*
G02*
X129925000Y-108962500I0J-62500D01*
G01*
X129925000Y-109662500D01*
G75*
G02*
X129862500Y-109725000I-62500J0D01*
G01*
X129737500Y-109725000D01*
G75*
G02*
X129675000Y-109662500I0J62500D01*
G01*
X129675000Y-108962500D01*
G75*
G02*
X129737500Y-108900000I62500J0D01*
G01*
G37*
G36*
G01*
X130237500Y-108900000D02*
X130362500Y-108900000D01*
G75*
G02*
X130425000Y-108962500I0J-62500D01*
G01*
X130425000Y-109662500D01*
G75*
G02*
X130362500Y-109725000I-62500J0D01*
G01*
X130237500Y-109725000D01*
G75*
G02*
X130175000Y-109662500I0J62500D01*
G01*
X130175000Y-108962500D01*
G75*
G02*
X130237500Y-108900000I62500J0D01*
G01*
G37*
G36*
G01*
X130737500Y-108900000D02*
X130862500Y-108900000D01*
G75*
G02*
X130925000Y-108962500I0J-62500D01*
G01*
X130925000Y-109662500D01*
G75*
G02*
X130862500Y-109725000I-62500J0D01*
G01*
X130737500Y-109725000D01*
G75*
G02*
X130675000Y-109662500I0J62500D01*
G01*
X130675000Y-108962500D01*
G75*
G02*
X130737500Y-108900000I62500J0D01*
G01*
G37*
G36*
G01*
X131237500Y-108900000D02*
X131362500Y-108900000D01*
G75*
G02*
X131425000Y-108962500I0J-62500D01*
G01*
X131425000Y-109662500D01*
G75*
G02*
X131362500Y-109725000I-62500J0D01*
G01*
X131237500Y-109725000D01*
G75*
G02*
X131175000Y-109662500I0J62500D01*
G01*
X131175000Y-108962500D01*
G75*
G02*
X131237500Y-108900000I62500J0D01*
G01*
G37*
D26*
X130300000Y-108100000D03*
G04 #@! TD*
G04 #@! TO.C,C32*
G36*
G01*
X130775000Y-111200000D02*
X130775000Y-110700000D01*
G75*
G02*
X131000000Y-110475000I225000J0D01*
G01*
X131450000Y-110475000D01*
G75*
G02*
X131675000Y-110700000I0J-225000D01*
G01*
X131675000Y-111200000D01*
G75*
G02*
X131450000Y-111425000I-225000J0D01*
G01*
X131000000Y-111425000D01*
G75*
G02*
X130775000Y-111200000I0J225000D01*
G01*
G37*
G36*
G01*
X132325000Y-111200000D02*
X132325000Y-110700000D01*
G75*
G02*
X132550000Y-110475000I225000J0D01*
G01*
X133000000Y-110475000D01*
G75*
G02*
X133225000Y-110700000I0J-225000D01*
G01*
X133225000Y-111200000D01*
G75*
G02*
X133000000Y-111425000I-225000J0D01*
G01*
X132550000Y-111425000D01*
G75*
G02*
X132325000Y-111200000I0J225000D01*
G01*
G37*
G04 #@! TD*
D17*
G04 #@! TO.C,H1*
X126600000Y-87900000D03*
G04 #@! TD*
G04 #@! TO.C,H3*
X160600000Y-121900000D03*
G04 #@! TD*
G04 #@! TO.C,C7*
G36*
G01*
X148140000Y-104470000D02*
X148140000Y-104130000D01*
G75*
G02*
X148280000Y-103990000I140000J0D01*
G01*
X148560000Y-103990000D01*
G75*
G02*
X148700000Y-104130000I0J-140000D01*
G01*
X148700000Y-104470000D01*
G75*
G02*
X148560000Y-104610000I-140000J0D01*
G01*
X148280000Y-104610000D01*
G75*
G02*
X148140000Y-104470000I0J140000D01*
G01*
G37*
G36*
G01*
X149100000Y-104470000D02*
X149100000Y-104130000D01*
G75*
G02*
X149240000Y-103990000I140000J0D01*
G01*
X149520000Y-103990000D01*
G75*
G02*
X149660000Y-104130000I0J-140000D01*
G01*
X149660000Y-104470000D01*
G75*
G02*
X149520000Y-104610000I-140000J0D01*
G01*
X149240000Y-104610000D01*
G75*
G02*
X149100000Y-104470000I0J140000D01*
G01*
G37*
G04 #@! TD*
G04 #@! TO.C,C58*
G36*
G01*
X138390000Y-117120000D02*
X138390000Y-116780000D01*
G75*
G02*
X138530000Y-116640000I140000J0D01*
G01*
X138810000Y-116640000D01*
G75*
G02*
X138950000Y-116780000I0J-140000D01*
G01*
X138950000Y-117120000D01*
G75*
G02*
X138810000Y-117260000I-140000J0D01*
G01*
X138530000Y-117260000D01*
G75*
G02*
X138390000Y-117120000I0J140000D01*
G01*
G37*
G36*
G01*
X139350000Y-117120000D02*
X139350000Y-116780000D01*
G75*
G02*
X139490000Y-116640000I140000J0D01*
G01*
X139770000Y-116640000D01*
G75*
G02*
X139910000Y-116780000I0J-140000D01*
G01*
X139910000Y-117120000D01*
G75*
G02*
X139770000Y-117260000I-140000J0D01*
G01*
X139490000Y-117260000D01*
G75*
G02*
X139350000Y-117120000I0J140000D01*
G01*
G37*
G04 #@! TD*
D27*
G04 #@! TO.C,U11*
X127400002Y-118149998D03*
X127900001Y-118149998D03*
X128400000Y-118149998D03*
X128899999Y-118149998D03*
X129399998Y-118149998D03*
X129399998Y-116649999D03*
X128899999Y-116649999D03*
X128400000Y-116649999D03*
X127900001Y-116649999D03*
X127400002Y-116649999D03*
G04 #@! TD*
D17*
G04 #@! TO.C,H4*
X160600000Y-87900000D03*
G04 #@! TD*
G04 #@! TO.C,R10*
G36*
G01*
X143785000Y-93230000D02*
X143415000Y-93230000D01*
G75*
G02*
X143280000Y-93095000I0J135000D01*
G01*
X143280000Y-92825000D01*
G75*
G02*
X143415000Y-92690000I135000J0D01*
G01*
X143785000Y-92690000D01*
G75*
G02*
X143920000Y-92825000I0J-135000D01*
G01*
X143920000Y-93095000D01*
G75*
G02*
X143785000Y-93230000I-135000J0D01*
G01*
G37*
G36*
G01*
X143785000Y-92210000D02*
X143415000Y-92210000D01*
G75*
G02*
X143280000Y-92075000I0J135000D01*
G01*
X143280000Y-91805000D01*
G75*
G02*
X143415000Y-91670000I135000J0D01*
G01*
X143785000Y-91670000D01*
G75*
G02*
X143920000Y-91805000I0J-135000D01*
G01*
X143920000Y-92075000D01*
G75*
G02*
X143785000Y-92210000I-135000J0D01*
G01*
G37*
G04 #@! TD*
G04 #@! TO.C,C17*
G36*
G01*
X136060000Y-106930000D02*
X136060000Y-107270000D01*
G75*
G02*
X135920000Y-107410000I-140000J0D01*
G01*
X135640000Y-107410000D01*
G75*
G02*
X135500000Y-107270000I0J140000D01*
G01*
X135500000Y-106930000D01*
G75*
G02*
X135640000Y-106790000I140000J0D01*
G01*
X135920000Y-106790000D01*
G75*
G02*
X136060000Y-106930000I0J-140000D01*
G01*
G37*
G36*
G01*
X135100000Y-106930000D02*
X135100000Y-107270000D01*
G75*
G02*
X134960000Y-107410000I-140000J0D01*
G01*
X134680000Y-107410000D01*
G75*
G02*
X134540000Y-107270000I0J140000D01*
G01*
X134540000Y-106930000D01*
G75*
G02*
X134680000Y-106790000I140000J0D01*
G01*
X134960000Y-106790000D01*
G75*
G02*
X135100000Y-106930000I0J-140000D01*
G01*
G37*
G04 #@! TD*
D28*
G04 #@! TO.C,U9*
X157400001Y-90628400D03*
X156900000Y-90628400D03*
X156400000Y-90628400D03*
X155899999Y-90628400D03*
X155899999Y-93371600D03*
X156400000Y-93371600D03*
X156900000Y-93371600D03*
X157400001Y-93371600D03*
G04 #@! TD*
G04 #@! TO.C,C22*
G36*
G01*
X137325000Y-114750000D02*
X137325000Y-115250000D01*
G75*
G02*
X137100000Y-115475000I-225000J0D01*
G01*
X136650000Y-115475000D01*
G75*
G02*
X136425000Y-115250000I0J225000D01*
G01*
X136425000Y-114750000D01*
G75*
G02*
X136650000Y-114525000I225000J0D01*
G01*
X137100000Y-114525000D01*
G75*
G02*
X137325000Y-114750000I0J-225000D01*
G01*
G37*
G36*
G01*
X135775000Y-114750000D02*
X135775000Y-115250000D01*
G75*
G02*
X135550000Y-115475000I-225000J0D01*
G01*
X135100000Y-115475000D01*
G75*
G02*
X134875000Y-115250000I0J225000D01*
G01*
X134875000Y-114750000D01*
G75*
G02*
X135100000Y-114525000I225000J0D01*
G01*
X135550000Y-114525000D01*
G75*
G02*
X135775000Y-114750000I0J-225000D01*
G01*
G37*
G04 #@! TD*
D13*
G04 #@! TO.C,J3*
X143610000Y-89380000D03*
D14*
X145085000Y-87855000D03*
X142135000Y-87855000D03*
G04 #@! TD*
G04 #@! TO.C,C44*
G36*
G01*
X151140000Y-105070000D02*
X151140000Y-104730000D01*
G75*
G02*
X151280000Y-104590000I140000J0D01*
G01*
X151560000Y-104590000D01*
G75*
G02*
X151700000Y-104730000I0J-140000D01*
G01*
X151700000Y-105070000D01*
G75*
G02*
X151560000Y-105210000I-140000J0D01*
G01*
X151280000Y-105210000D01*
G75*
G02*
X151140000Y-105070000I0J140000D01*
G01*
G37*
G36*
G01*
X152100000Y-105070000D02*
X152100000Y-104730000D01*
G75*
G02*
X152240000Y-104590000I140000J0D01*
G01*
X152520000Y-104590000D01*
G75*
G02*
X152660000Y-104730000I0J-140000D01*
G01*
X152660000Y-105070000D01*
G75*
G02*
X152520000Y-105210000I-140000J0D01*
G01*
X152240000Y-105210000D01*
G75*
G02*
X152100000Y-105070000I0J140000D01*
G01*
G37*
G04 #@! TD*
G04 #@! TO.C,C39*
G36*
G01*
X145090000Y-108070000D02*
X145090000Y-107730000D01*
G75*
G02*
X145230000Y-107590000I140000J0D01*
G01*
X145510000Y-107590000D01*
G75*
G02*
X145650000Y-107730000I0J-140000D01*
G01*
X145650000Y-108070000D01*
G75*
G02*
X145510000Y-108210000I-140000J0D01*
G01*
X145230000Y-108210000D01*
G75*
G02*
X145090000Y-108070000I0J140000D01*
G01*
G37*
G36*
G01*
X146050000Y-108070000D02*
X146050000Y-107730000D01*
G75*
G02*
X146190000Y-107590000I140000J0D01*
G01*
X146470000Y-107590000D01*
G75*
G02*
X146610000Y-107730000I0J-140000D01*
G01*
X146610000Y-108070000D01*
G75*
G02*
X146470000Y-108210000I-140000J0D01*
G01*
X146190000Y-108210000D01*
G75*
G02*
X146050000Y-108070000I0J140000D01*
G01*
G37*
G04 #@! TD*
G04 #@! TO.C,C42*
G36*
G01*
X136110000Y-100480000D02*
X136110000Y-100820000D01*
G75*
G02*
X135970000Y-100960000I-140000J0D01*
G01*
X135690000Y-100960000D01*
G75*
G02*
X135550000Y-100820000I0J140000D01*
G01*
X135550000Y-100480000D01*
G75*
G02*
X135690000Y-100340000I140000J0D01*
G01*
X135970000Y-100340000D01*
G75*
G02*
X136110000Y-100480000I0J-140000D01*
G01*
G37*
G36*
G01*
X135150000Y-100480000D02*
X135150000Y-100820000D01*
G75*
G02*
X135010000Y-100960000I-140000J0D01*
G01*
X134730000Y-100960000D01*
G75*
G02*
X134590000Y-100820000I0J140000D01*
G01*
X134590000Y-100480000D01*
G75*
G02*
X134730000Y-100340000I140000J0D01*
G01*
X135010000Y-100340000D01*
G75*
G02*
X135150000Y-100480000I0J-140000D01*
G01*
G37*
G04 #@! TD*
G04 #@! TO.C,R7*
G36*
G01*
X131485000Y-105780000D02*
X131115000Y-105780000D01*
G75*
G02*
X130980000Y-105645000I0J135000D01*
G01*
X130980000Y-105375000D01*
G75*
G02*
X131115000Y-105240000I135000J0D01*
G01*
X131485000Y-105240000D01*
G75*
G02*
X131620000Y-105375000I0J-135000D01*
G01*
X131620000Y-105645000D01*
G75*
G02*
X131485000Y-105780000I-135000J0D01*
G01*
G37*
G36*
G01*
X131485000Y-104760000D02*
X131115000Y-104760000D01*
G75*
G02*
X130980000Y-104625000I0J135000D01*
G01*
X130980000Y-104355000D01*
G75*
G02*
X131115000Y-104220000I135000J0D01*
G01*
X131485000Y-104220000D01*
G75*
G02*
X131620000Y-104355000I0J-135000D01*
G01*
X131620000Y-104625000D01*
G75*
G02*
X131485000Y-104760000I-135000J0D01*
G01*
G37*
G04 #@! TD*
D16*
G04 #@! TO.C,TP1*
X139050000Y-113500000D03*
G04 #@! TD*
G04 #@! TO.C,C23*
G36*
G01*
X125550000Y-105275000D02*
X125550000Y-104775000D01*
G75*
G02*
X125775000Y-104550000I225000J0D01*
G01*
X126225000Y-104550000D01*
G75*
G02*
X126450000Y-104775000I0J-225000D01*
G01*
X126450000Y-105275000D01*
G75*
G02*
X126225000Y-105500000I-225000J0D01*
G01*
X125775000Y-105500000D01*
G75*
G02*
X125550000Y-105275000I0J225000D01*
G01*
G37*
G36*
G01*
X127100000Y-105275000D02*
X127100000Y-104775000D01*
G75*
G02*
X127325000Y-104550000I225000J0D01*
G01*
X127775000Y-104550000D01*
G75*
G02*
X128000000Y-104775000I0J-225000D01*
G01*
X128000000Y-105275000D01*
G75*
G02*
X127775000Y-105500000I-225000J0D01*
G01*
X127325000Y-105500000D01*
G75*
G02*
X127100000Y-105275000I0J225000D01*
G01*
G37*
G04 #@! TD*
G04 #@! TO.C,C48*
G36*
G01*
X140880000Y-109740000D02*
X141220000Y-109740000D01*
G75*
G02*
X141360000Y-109880000I0J-140000D01*
G01*
X141360000Y-110160000D01*
G75*
G02*
X141220000Y-110300000I-140000J0D01*
G01*
X140880000Y-110300000D01*
G75*
G02*
X140740000Y-110160000I0J140000D01*
G01*
X140740000Y-109880000D01*
G75*
G02*
X140880000Y-109740000I140000J0D01*
G01*
G37*
G36*
G01*
X140880000Y-110700000D02*
X141220000Y-110700000D01*
G75*
G02*
X141360000Y-110840000I0J-140000D01*
G01*
X141360000Y-111120000D01*
G75*
G02*
X141220000Y-111260000I-140000J0D01*
G01*
X140880000Y-111260000D01*
G75*
G02*
X140740000Y-111120000I0J140000D01*
G01*
X140740000Y-110840000D01*
G75*
G02*
X140880000Y-110700000I140000J0D01*
G01*
G37*
G04 #@! TD*
G04 #@! TO.C,JP2*
G36*
X127275000Y-92795000D02*
G01*
X126775000Y-92795000D01*
X126775000Y-92789911D01*
X126703843Y-92789911D01*
X126567292Y-92749816D01*
X126447570Y-92672875D01*
X126354373Y-92565320D01*
X126295254Y-92435866D01*
X126275000Y-92295000D01*
X126275000Y-91795000D01*
X126295254Y-91654134D01*
X126354373Y-91524680D01*
X126447570Y-91417125D01*
X126567292Y-91340184D01*
X126703843Y-91300089D01*
X126775000Y-91300089D01*
X126775000Y-91295000D01*
X127275000Y-91295000D01*
X127275000Y-92795000D01*
G37*
G36*
X128075000Y-91300089D02*
G01*
X128146157Y-91300089D01*
X128282708Y-91340184D01*
X128402430Y-91417125D01*
X128495627Y-91524680D01*
X128554746Y-91654134D01*
X128575000Y-91795000D01*
X128575000Y-92295000D01*
X128554746Y-92435866D01*
X128495627Y-92565320D01*
X128402430Y-92672875D01*
X128282708Y-92749816D01*
X128146157Y-92789911D01*
X128075000Y-92789911D01*
X128075000Y-92795000D01*
X127575000Y-92795000D01*
X127575000Y-91295000D01*
X128075000Y-91295000D01*
X128075000Y-91300089D01*
G37*
G04 #@! TD*
G04 #@! TO.C,C35*
G36*
G01*
X140530000Y-100440000D02*
X140870000Y-100440000D01*
G75*
G02*
X141010000Y-100580000I0J-140000D01*
G01*
X141010000Y-100860000D01*
G75*
G02*
X140870000Y-101000000I-140000J0D01*
G01*
X140530000Y-101000000D01*
G75*
G02*
X140390000Y-100860000I0J140000D01*
G01*
X140390000Y-100580000D01*
G75*
G02*
X140530000Y-100440000I140000J0D01*
G01*
G37*
G36*
G01*
X140530000Y-101400000D02*
X140870000Y-101400000D01*
G75*
G02*
X141010000Y-101540000I0J-140000D01*
G01*
X141010000Y-101820000D01*
G75*
G02*
X140870000Y-101960000I-140000J0D01*
G01*
X140530000Y-101960000D01*
G75*
G02*
X140390000Y-101820000I0J140000D01*
G01*
X140390000Y-101540000D01*
G75*
G02*
X140530000Y-101400000I140000J0D01*
G01*
G37*
G04 #@! TD*
G04 #@! TO.C,C2*
G36*
G01*
X148140000Y-107370000D02*
X148140000Y-107030000D01*
G75*
G02*
X148280000Y-106890000I140000J0D01*
G01*
X148560000Y-106890000D01*
G75*
G02*
X148700000Y-107030000I0J-140000D01*
G01*
X148700000Y-107370000D01*
G75*
G02*
X148560000Y-107510000I-140000J0D01*
G01*
X148280000Y-107510000D01*
G75*
G02*
X148140000Y-107370000I0J140000D01*
G01*
G37*
G36*
G01*
X149100000Y-107370000D02*
X149100000Y-107030000D01*
G75*
G02*
X149240000Y-106890000I140000J0D01*
G01*
X149520000Y-106890000D01*
G75*
G02*
X149660000Y-107030000I0J-140000D01*
G01*
X149660000Y-107370000D01*
G75*
G02*
X149520000Y-107510000I-140000J0D01*
G01*
X149240000Y-107510000D01*
G75*
G02*
X149100000Y-107370000I0J140000D01*
G01*
G37*
G04 #@! TD*
G04 #@! TO.C,TP7*
X141400000Y-121300000D03*
G04 #@! TD*
G04 #@! TO.C,J1*
G36*
G01*
X163575000Y-94100000D02*
X162325000Y-94100000D01*
G75*
G02*
X162175000Y-93950000I0J150000D01*
G01*
X162175000Y-93650000D01*
G75*
G02*
X162325000Y-93500000I150000J0D01*
G01*
X163575000Y-93500000D01*
G75*
G02*
X163725000Y-93650000I0J-150000D01*
G01*
X163725000Y-93950000D01*
G75*
G02*
X163575000Y-94100000I-150000J0D01*
G01*
G37*
G36*
G01*
X163575000Y-93100000D02*
X162325000Y-93100000D01*
G75*
G02*
X162175000Y-92950000I0J150000D01*
G01*
X162175000Y-92650000D01*
G75*
G02*
X162325000Y-92500000I150000J0D01*
G01*
X163575000Y-92500000D01*
G75*
G02*
X163725000Y-92650000I0J-150000D01*
G01*
X163725000Y-92950000D01*
G75*
G02*
X163575000Y-93100000I-150000J0D01*
G01*
G37*
G36*
G01*
X163575000Y-92100000D02*
X162325000Y-92100000D01*
G75*
G02*
X162175000Y-91950000I0J150000D01*
G01*
X162175000Y-91650000D01*
G75*
G02*
X162325000Y-91500000I150000J0D01*
G01*
X163575000Y-91500000D01*
G75*
G02*
X163725000Y-91650000I0J-150000D01*
G01*
X163725000Y-91950000D01*
G75*
G02*
X163575000Y-92100000I-150000J0D01*
G01*
G37*
G36*
G01*
X163575000Y-91100000D02*
X162325000Y-91100000D01*
G75*
G02*
X162175000Y-90950000I0J150000D01*
G01*
X162175000Y-90650000D01*
G75*
G02*
X162325000Y-90500000I150000J0D01*
G01*
X163575000Y-90500000D01*
G75*
G02*
X163725000Y-90650000I0J-150000D01*
G01*
X163725000Y-90950000D01*
G75*
G02*
X163575000Y-91100000I-150000J0D01*
G01*
G37*
G36*
G01*
X167475000Y-90100000D02*
X166175000Y-90100000D01*
G75*
G02*
X165925000Y-89850000I0J250000D01*
G01*
X165925000Y-89150000D01*
G75*
G02*
X166175000Y-88900000I250000J0D01*
G01*
X167475000Y-88900000D01*
G75*
G02*
X167725000Y-89150000I0J-250000D01*
G01*
X167725000Y-89850000D01*
G75*
G02*
X167475000Y-90100000I-250000J0D01*
G01*
G37*
G36*
G01*
X167475000Y-95700000D02*
X166175000Y-95700000D01*
G75*
G02*
X165925000Y-95450000I0J250000D01*
G01*
X165925000Y-94750000D01*
G75*
G02*
X166175000Y-94500000I250000J0D01*
G01*
X167475000Y-94500000D01*
G75*
G02*
X167725000Y-94750000I0J-250000D01*
G01*
X167725000Y-95450000D01*
G75*
G02*
X167475000Y-95700000I-250000J0D01*
G01*
G37*
G04 #@! TD*
G04 #@! TO.C,C14*
G36*
G01*
X137520000Y-106070000D02*
X137520000Y-105730000D01*
G75*
G02*
X137660000Y-105590000I140000J0D01*
G01*
X137940000Y-105590000D01*
G75*
G02*
X138080000Y-105730000I0J-140000D01*
G01*
X138080000Y-106070000D01*
G75*
G02*
X137940000Y-106210000I-140000J0D01*
G01*
X137660000Y-106210000D01*
G75*
G02*
X137520000Y-106070000I0J140000D01*
G01*
G37*
G36*
G01*
X138480000Y-106070000D02*
X138480000Y-105730000D01*
G75*
G02*
X138620000Y-105590000I140000J0D01*
G01*
X138900000Y-105590000D01*
G75*
G02*
X139040000Y-105730000I0J-140000D01*
G01*
X139040000Y-106070000D01*
G75*
G02*
X138900000Y-106210000I-140000J0D01*
G01*
X138620000Y-106210000D01*
G75*
G02*
X138480000Y-106070000I0J140000D01*
G01*
G37*
G04 #@! TD*
G04 #@! TO.C,C11*
G36*
G01*
X148140000Y-102570000D02*
X148140000Y-102230000D01*
G75*
G02*
X148280000Y-102090000I140000J0D01*
G01*
X148560000Y-102090000D01*
G75*
G02*
X148700000Y-102230000I0J-140000D01*
G01*
X148700000Y-102570000D01*
G75*
G02*
X148560000Y-102710000I-140000J0D01*
G01*
X148280000Y-102710000D01*
G75*
G02*
X148140000Y-102570000I0J140000D01*
G01*
G37*
G36*
G01*
X149100000Y-102570000D02*
X149100000Y-102230000D01*
G75*
G02*
X149240000Y-102090000I140000J0D01*
G01*
X149520000Y-102090000D01*
G75*
G02*
X149660000Y-102230000I0J-140000D01*
G01*
X149660000Y-102570000D01*
G75*
G02*
X149520000Y-102710000I-140000J0D01*
G01*
X149240000Y-102710000D01*
G75*
G02*
X149100000Y-102570000I0J140000D01*
G01*
G37*
G04 #@! TD*
G04 #@! TO.C,C45*
G36*
G01*
X136110000Y-101730000D02*
X136110000Y-102070000D01*
G75*
G02*
X135970000Y-102210000I-140000J0D01*
G01*
X135690000Y-102210000D01*
G75*
G02*
X135550000Y-102070000I0J140000D01*
G01*
X135550000Y-101730000D01*
G75*
G02*
X135690000Y-101590000I140000J0D01*
G01*
X135970000Y-101590000D01*
G75*
G02*
X136110000Y-101730000I0J-140000D01*
G01*
G37*
G36*
G01*
X135150000Y-101730000D02*
X135150000Y-102070000D01*
G75*
G02*
X135010000Y-102210000I-140000J0D01*
G01*
X134730000Y-102210000D01*
G75*
G02*
X134590000Y-102070000I0J140000D01*
G01*
X134590000Y-101730000D01*
G75*
G02*
X134730000Y-101590000I140000J0D01*
G01*
X135010000Y-101590000D01*
G75*
G02*
X135150000Y-101730000I0J-140000D01*
G01*
G37*
G04 #@! TD*
G04 #@! TO.C,TP12*
X132050000Y-90700000D03*
G04 #@! TD*
G04 #@! TO.C,C19*
G36*
G01*
X137840000Y-105120000D02*
X137840000Y-104780000D01*
G75*
G02*
X137980000Y-104640000I140000J0D01*
G01*
X138260000Y-104640000D01*
G75*
G02*
X138400000Y-104780000I0J-140000D01*
G01*
X138400000Y-105120000D01*
G75*
G02*
X138260000Y-105260000I-140000J0D01*
G01*
X137980000Y-105260000D01*
G75*
G02*
X137840000Y-105120000I0J140000D01*
G01*
G37*
G36*
G01*
X138800000Y-105120000D02*
X138800000Y-104780000D01*
G75*
G02*
X138940000Y-104640000I140000J0D01*
G01*
X139220000Y-104640000D01*
G75*
G02*
X139360000Y-104780000I0J-140000D01*
G01*
X139360000Y-105120000D01*
G75*
G02*
X139220000Y-105260000I-140000J0D01*
G01*
X138940000Y-105260000D01*
G75*
G02*
X138800000Y-105120000I0J140000D01*
G01*
G37*
G04 #@! TD*
G04 #@! TO.C,TP9*
X149450000Y-113650000D03*
G04 #@! TD*
G04 #@! TO.C,R13*
G36*
G01*
X128585000Y-113780000D02*
X128215000Y-113780000D01*
G75*
G02*
X128080000Y-113645000I0J135000D01*
G01*
X128080000Y-113375000D01*
G75*
G02*
X128215000Y-113240000I135000J0D01*
G01*
X128585000Y-113240000D01*
G75*
G02*
X128720000Y-113375000I0J-135000D01*
G01*
X128720000Y-113645000D01*
G75*
G02*
X128585000Y-113780000I-135000J0D01*
G01*
G37*
G36*
G01*
X128585000Y-112760000D02*
X128215000Y-112760000D01*
G75*
G02*
X128080000Y-112625000I0J135000D01*
G01*
X128080000Y-112355000D01*
G75*
G02*
X128215000Y-112220000I135000J0D01*
G01*
X128585000Y-112220000D01*
G75*
G02*
X128720000Y-112355000I0J-135000D01*
G01*
X128720000Y-112625000D01*
G75*
G02*
X128585000Y-112760000I-135000J0D01*
G01*
G37*
G04 #@! TD*
G04 #@! TO.C,C12*
G36*
G01*
X127900000Y-110525000D02*
X127900000Y-111025000D01*
G75*
G02*
X127675000Y-111250000I-225000J0D01*
G01*
X127225000Y-111250000D01*
G75*
G02*
X127000000Y-111025000I0J225000D01*
G01*
X127000000Y-110525000D01*
G75*
G02*
X127225000Y-110300000I225000J0D01*
G01*
X127675000Y-110300000D01*
G75*
G02*
X127900000Y-110525000I0J-225000D01*
G01*
G37*
G36*
G01*
X126350000Y-110525000D02*
X126350000Y-111025000D01*
G75*
G02*
X126125000Y-111250000I-225000J0D01*
G01*
X125675000Y-111250000D01*
G75*
G02*
X125450000Y-111025000I0J225000D01*
G01*
X125450000Y-110525000D01*
G75*
G02*
X125675000Y-110300000I225000J0D01*
G01*
X126125000Y-110300000D01*
G75*
G02*
X126350000Y-110525000I0J-225000D01*
G01*
G37*
G04 #@! TD*
G04 #@! TO.C,C40*
G36*
G01*
X148270000Y-109760000D02*
X147930000Y-109760000D01*
G75*
G02*
X147790000Y-109620000I0J140000D01*
G01*
X147790000Y-109340000D01*
G75*
G02*
X147930000Y-109200000I140000J0D01*
G01*
X148270000Y-109200000D01*
G75*
G02*
X148410000Y-109340000I0J-140000D01*
G01*
X148410000Y-109620000D01*
G75*
G02*
X148270000Y-109760000I-140000J0D01*
G01*
G37*
G36*
G01*
X148270000Y-108800000D02*
X147930000Y-108800000D01*
G75*
G02*
X147790000Y-108660000I0J140000D01*
G01*
X147790000Y-108380000D01*
G75*
G02*
X147930000Y-108240000I140000J0D01*
G01*
X148270000Y-108240000D01*
G75*
G02*
X148410000Y-108380000I0J-140000D01*
G01*
X148410000Y-108660000D01*
G75*
G02*
X148270000Y-108800000I-140000J0D01*
G01*
G37*
G04 #@! TD*
G04 #@! TO.C,C38*
G36*
G01*
X142010000Y-107730000D02*
X142010000Y-108070000D01*
G75*
G02*
X141870000Y-108210000I-140000J0D01*
G01*
X141590000Y-108210000D01*
G75*
G02*
X141450000Y-108070000I0J140000D01*
G01*
X141450000Y-107730000D01*
G75*
G02*
X141590000Y-107590000I140000J0D01*
G01*
X141870000Y-107590000D01*
G75*
G02*
X142010000Y-107730000I0J-140000D01*
G01*
G37*
G36*
G01*
X141050000Y-107730000D02*
X141050000Y-108070000D01*
G75*
G02*
X140910000Y-108210000I-140000J0D01*
G01*
X140630000Y-108210000D01*
G75*
G02*
X140490000Y-108070000I0J140000D01*
G01*
X140490000Y-107730000D01*
G75*
G02*
X140630000Y-107590000I140000J0D01*
G01*
X140910000Y-107590000D01*
G75*
G02*
X141050000Y-107730000I0J-140000D01*
G01*
G37*
G04 #@! TD*
G04 #@! TO.C,C30*
G36*
G01*
X145270000Y-98910000D02*
X144930000Y-98910000D01*
G75*
G02*
X144790000Y-98770000I0J140000D01*
G01*
X144790000Y-98490000D01*
G75*
G02*
X144930000Y-98350000I140000J0D01*
G01*
X145270000Y-98350000D01*
G75*
G02*
X145410000Y-98490000I0J-140000D01*
G01*
X145410000Y-98770000D01*
G75*
G02*
X145270000Y-98910000I-140000J0D01*
G01*
G37*
G36*
G01*
X145270000Y-97950000D02*
X144930000Y-97950000D01*
G75*
G02*
X144790000Y-97810000I0J140000D01*
G01*
X144790000Y-97530000D01*
G75*
G02*
X144930000Y-97390000I140000J0D01*
G01*
X145270000Y-97390000D01*
G75*
G02*
X145410000Y-97530000I0J-140000D01*
G01*
X145410000Y-97810000D01*
G75*
G02*
X145270000Y-97950000I-140000J0D01*
G01*
G37*
G04 #@! TD*
G04 #@! TO.C,C3*
G36*
G01*
X137540000Y-109120000D02*
X137540000Y-108780000D01*
G75*
G02*
X137680000Y-108640000I140000J0D01*
G01*
X137960000Y-108640000D01*
G75*
G02*
X138100000Y-108780000I0J-140000D01*
G01*
X138100000Y-109120000D01*
G75*
G02*
X137960000Y-109260000I-140000J0D01*
G01*
X137680000Y-109260000D01*
G75*
G02*
X137540000Y-109120000I0J140000D01*
G01*
G37*
G36*
G01*
X138500000Y-109120000D02*
X138500000Y-108780000D01*
G75*
G02*
X138640000Y-108640000I140000J0D01*
G01*
X138920000Y-108640000D01*
G75*
G02*
X139060000Y-108780000I0J-140000D01*
G01*
X139060000Y-109120000D01*
G75*
G02*
X138920000Y-109260000I-140000J0D01*
G01*
X138640000Y-109260000D01*
G75*
G02*
X138500000Y-109120000I0J140000D01*
G01*
G37*
G04 #@! TD*
G04 #@! TO.C,C62*
G36*
G01*
X129850000Y-114425000D02*
X129850000Y-115375000D01*
G75*
G02*
X129600000Y-115625000I-250000J0D01*
G01*
X129100000Y-115625000D01*
G75*
G02*
X128850000Y-115375000I0J250000D01*
G01*
X128850000Y-114425000D01*
G75*
G02*
X129100000Y-114175000I250000J0D01*
G01*
X129600000Y-114175000D01*
G75*
G02*
X129850000Y-114425000I0J-250000D01*
G01*
G37*
G36*
G01*
X127950000Y-114425000D02*
X127950000Y-115375000D01*
G75*
G02*
X127700000Y-115625000I-250000J0D01*
G01*
X127200000Y-115625000D01*
G75*
G02*
X126950000Y-115375000I0J250000D01*
G01*
X126950000Y-114425000D01*
G75*
G02*
X127200000Y-114175000I250000J0D01*
G01*
X127700000Y-114175000D01*
G75*
G02*
X127950000Y-114425000I0J-250000D01*
G01*
G37*
G04 #@! TD*
D15*
G04 #@! TO.C,FL4*
X157275000Y-104600000D03*
X158525000Y-104600000D03*
X158525000Y-105150000D03*
X157275000Y-105150000D03*
G04 #@! TD*
G04 #@! TO.C,JP3*
G36*
X127275000Y-98795000D02*
G01*
X126775000Y-98795000D01*
X126775000Y-98789911D01*
X126703843Y-98789911D01*
X126567292Y-98749816D01*
X126447570Y-98672875D01*
X126354373Y-98565320D01*
X126295254Y-98435866D01*
X126275000Y-98295000D01*
X126275000Y-97795000D01*
X126295254Y-97654134D01*
X126354373Y-97524680D01*
X126447570Y-97417125D01*
X126567292Y-97340184D01*
X126703843Y-97300089D01*
X126775000Y-97300089D01*
X126775000Y-97295000D01*
X127275000Y-97295000D01*
X127275000Y-98795000D01*
G37*
G36*
X128075000Y-97300089D02*
G01*
X128146157Y-97300089D01*
X128282708Y-97340184D01*
X128402430Y-97417125D01*
X128495627Y-97524680D01*
X128554746Y-97654134D01*
X128575000Y-97795000D01*
X128575000Y-98295000D01*
X128554746Y-98435866D01*
X128495627Y-98565320D01*
X128402430Y-98672875D01*
X128282708Y-98749816D01*
X128146157Y-98789911D01*
X128075000Y-98789911D01*
X128075000Y-98795000D01*
X127575000Y-98795000D01*
X127575000Y-97295000D01*
X128075000Y-97295000D01*
X128075000Y-97300089D01*
G37*
G04 #@! TD*
M02*
