G04 #@! TF.GenerationSoftware,KiCad,Pcbnew,8.0.4*
G04 #@! TF.CreationDate,2025-06-24T19:37:56-07:00*
G04 #@! TF.ProjectId,IMX585_MIPI_Breakout_v4,494d5835-3835-45f4-9d49-50495f427265,rev?*
G04 #@! TF.SameCoordinates,Original*
G04 #@! TF.FileFunction,Copper,L2,Inr*
G04 #@! TF.FilePolarity,Positive*
%FSLAX46Y46*%
G04 Gerber Fmt 4.6, Leading zero omitted, Abs format (unit mm)*
G04 Created by KiCad (PCBNEW 8.0.4) date 2025-06-24 19:37:56*
%MOMM*%
%LPD*%
G01*
G04 APERTURE LIST*
G04 #@! TA.AperFunction,ViaPad*
%ADD10C,0.450000*%
G04 #@! TD*
G04 APERTURE END LIST*
D10*
G04 #@! TO.N,GND*
X97300000Y-81062500D03*
X102500000Y-60600000D03*
X114650000Y-88550000D03*
X100200000Y-61400000D03*
X86400000Y-76100000D03*
X98100000Y-87850000D03*
X110200000Y-62600000D03*
X117300000Y-90100000D03*
X95000000Y-55000000D03*
X122100000Y-82000000D03*
X104900000Y-90000000D03*
X90500000Y-90000000D03*
X90500000Y-55800000D03*
X93200000Y-85400000D03*
X108610000Y-81300000D03*
X104900000Y-52000000D03*
X92450000Y-79400000D03*
X89200000Y-60090000D03*
X122100000Y-86200000D03*
X116800000Y-74750000D03*
X103000000Y-65000000D03*
X88900000Y-71500000D03*
X115450000Y-75800000D03*
X122100000Y-73250000D03*
X104500000Y-74000000D03*
X88100000Y-52000000D03*
X86800000Y-71500000D03*
X97050000Y-71050000D03*
X120800000Y-84100000D03*
X117050000Y-80400000D03*
X116100000Y-75150000D03*
X92600000Y-52000000D03*
X92450000Y-78050000D03*
X122100000Y-62200000D03*
X117450000Y-52700000D03*
X122100000Y-78800000D03*
X92200000Y-68000000D03*
X111450000Y-62600000D03*
X91400000Y-52000000D03*
X115600000Y-62800000D03*
X107500000Y-71000000D03*
X89700000Y-69400000D03*
X84000000Y-57200000D03*
X95500000Y-55800000D03*
X89700000Y-68000000D03*
X114450000Y-73500000D03*
X112650000Y-56500000D03*
X117000000Y-52000000D03*
X97500000Y-55800000D03*
X103700000Y-64300000D03*
X88800000Y-74500000D03*
X112500000Y-89000000D03*
X84000000Y-61200000D03*
X88900000Y-70800000D03*
X122100000Y-61000000D03*
X112300000Y-62300000D03*
X115100000Y-63400000D03*
X107500000Y-66000000D03*
X86200000Y-85200000D03*
X106100000Y-60600000D03*
X122100000Y-77300000D03*
X122100000Y-64700000D03*
X84000000Y-82200000D03*
X122100000Y-82800000D03*
X90500000Y-83990000D03*
X89100000Y-80950000D03*
X86400000Y-77500000D03*
X89700000Y-70800000D03*
X87500000Y-71500000D03*
X117300000Y-89400000D03*
X113600000Y-81950000D03*
X111300000Y-89000000D03*
X88900000Y-69400000D03*
X84000000Y-56100000D03*
X86400000Y-76800000D03*
X120100000Y-79100000D03*
X88100000Y-83800000D03*
X90900000Y-74500000D03*
X98400000Y-62600000D03*
X109950000Y-57850000D03*
X89800000Y-79400000D03*
X87500000Y-70100000D03*
X91400000Y-90000000D03*
X98500000Y-61300000D03*
X115950000Y-56000000D03*
X84000000Y-68300000D03*
X84000000Y-71200000D03*
X89500000Y-74500000D03*
X100800000Y-59200000D03*
X102200000Y-62600000D03*
X90600000Y-69400000D03*
X84000000Y-80100000D03*
X111250000Y-67150000D03*
X114000000Y-52000000D03*
X108300000Y-61950000D03*
X103700000Y-62600000D03*
X106800000Y-57700000D03*
X99950000Y-79600000D03*
X92450000Y-83650000D03*
X110100000Y-89900000D03*
X116200000Y-89300000D03*
X92300000Y-75400000D03*
X88750000Y-82600000D03*
X91600000Y-74000000D03*
X97300000Y-73800000D03*
X107500000Y-76100000D03*
X120550000Y-67250000D03*
X106000000Y-77000000D03*
X84000000Y-59700000D03*
X94150000Y-85400000D03*
X95000000Y-53500000D03*
X114200000Y-56200000D03*
X86300000Y-74700000D03*
X84000000Y-69500000D03*
X117700000Y-55700000D03*
X92450000Y-84700000D03*
X89125000Y-80200000D03*
X100800000Y-56500000D03*
X106600000Y-62400000D03*
X104500000Y-65000000D03*
X98100000Y-81912500D03*
X88200000Y-70100000D03*
X118000000Y-90100000D03*
X90000000Y-55000000D03*
X121400000Y-58800000D03*
X104400000Y-55000000D03*
X122100000Y-59800000D03*
X87650000Y-80950000D03*
X104120000Y-56900000D03*
X110800000Y-80930000D03*
X114450000Y-75650000D03*
X84000000Y-65500000D03*
X117300000Y-87100000D03*
X109100000Y-53500000D03*
X100000000Y-66550000D03*
X97300000Y-81912500D03*
X122100000Y-70250000D03*
X110450000Y-54400000D03*
X108800000Y-55100000D03*
X106500000Y-85200000D03*
X93050000Y-81600000D03*
X98000000Y-53500000D03*
X98100000Y-87050000D03*
X98100000Y-81062500D03*
X101500000Y-66550000D03*
X87625000Y-80200000D03*
X117100000Y-53700000D03*
X119700000Y-57300000D03*
X89800000Y-78000000D03*
X91600000Y-75400000D03*
X101300000Y-90000000D03*
X87800000Y-77500000D03*
X89000000Y-89300000D03*
X90900000Y-73900000D03*
X95000000Y-90000000D03*
X103100000Y-56900000D03*
X106000000Y-65000000D03*
X86800000Y-70800000D03*
X89700000Y-70100000D03*
X122100000Y-74650000D03*
X84000000Y-66800000D03*
X99950000Y-81700000D03*
X98500000Y-66550000D03*
X87100000Y-77500000D03*
X111000000Y-61850000D03*
X102500000Y-90000000D03*
X116500000Y-52500000D03*
X97000000Y-77000000D03*
X103580000Y-81300000D03*
X89100000Y-72200000D03*
X114700000Y-76500000D03*
X89700000Y-88700000D03*
X103700000Y-81900000D03*
X93050000Y-83100000D03*
X95500000Y-74050000D03*
X113150000Y-78000000D03*
X116880000Y-58800000D03*
X100100000Y-52000000D03*
X121400000Y-57700000D03*
X88100000Y-72500000D03*
X122100000Y-85100000D03*
X115250000Y-87700000D03*
X108500000Y-52000000D03*
X113100000Y-52000000D03*
X118600000Y-85600000D03*
X113450000Y-75950000D03*
X88200000Y-68700000D03*
X122100000Y-68750000D03*
X84000000Y-72700000D03*
X102250000Y-64300000D03*
X119600000Y-85300000D03*
X105250000Y-67200000D03*
X95100000Y-52000000D03*
X88400000Y-81750000D03*
X103700000Y-52000000D03*
X106000000Y-90000000D03*
X113900000Y-62200000D03*
X107500000Y-72550000D03*
X106200000Y-79500000D03*
X98000000Y-55000000D03*
X103800000Y-60600000D03*
X90200000Y-65750000D03*
X88900000Y-54100000D03*
X97300000Y-87050000D03*
X93000000Y-54950000D03*
X99950000Y-82750000D03*
X115000000Y-62200000D03*
X84000000Y-78800000D03*
X116400000Y-64800000D03*
X113100000Y-62100000D03*
X100400000Y-86150000D03*
X88300000Y-90000000D03*
X102500000Y-58400000D03*
X121200000Y-85100000D03*
X103800000Y-76250000D03*
X113400000Y-69250000D03*
X107500000Y-62600000D03*
X106200000Y-52000000D03*
X117450000Y-74750000D03*
X88100000Y-82600000D03*
X103700000Y-90000000D03*
X88200000Y-71500000D03*
X117850000Y-64750000D03*
X84000000Y-85300000D03*
X116600000Y-64200000D03*
X109850000Y-70300000D03*
X97050000Y-70500000D03*
X115350000Y-73850000D03*
X88400000Y-83200000D03*
X97100000Y-83712500D03*
X112820000Y-57900000D03*
X96400000Y-60950000D03*
X93000000Y-53450000D03*
X101350000Y-60800000D03*
X109600000Y-61900000D03*
X104900000Y-79500000D03*
X106000000Y-55500000D03*
X122100000Y-63500000D03*
X116400000Y-63400000D03*
X90200000Y-73900000D03*
X114050000Y-74850000D03*
X102250000Y-76250000D03*
X88100000Y-74500000D03*
X112000000Y-52000000D03*
X90000000Y-53500000D03*
X88100000Y-73200000D03*
X120100000Y-84700000D03*
X100200000Y-60200000D03*
X89000000Y-88100000D03*
X87500000Y-70800000D03*
X88200000Y-69400000D03*
X116600000Y-87700000D03*
X88800000Y-73900000D03*
X88900000Y-52000000D03*
X100800000Y-57850000D03*
X113950000Y-77200000D03*
X97400000Y-52000000D03*
X120550000Y-73250000D03*
X110920000Y-56900000D03*
X96200000Y-52000000D03*
X115100000Y-74750000D03*
X113700000Y-89000000D03*
X122100000Y-84000000D03*
X110450000Y-55150000D03*
X104400000Y-53500000D03*
X99610000Y-56200000D03*
X84000000Y-64100000D03*
X96300000Y-90000000D03*
X84000000Y-58300000D03*
X122100000Y-80900000D03*
X88400000Y-80950000D03*
X109800000Y-52000000D03*
X113050000Y-75050000D03*
X90100000Y-52000000D03*
X84000000Y-86000000D03*
X113300000Y-62900000D03*
X92500000Y-55800000D03*
X88200000Y-70800000D03*
X88900000Y-68000000D03*
X93800000Y-90000000D03*
X115600000Y-64800000D03*
X103650000Y-79500000D03*
X85100000Y-85200000D03*
X95250000Y-68000000D03*
X93000000Y-68000000D03*
X121400000Y-83400000D03*
X84000000Y-76600000D03*
X111550000Y-57900000D03*
X92300000Y-74700000D03*
X89125000Y-81750000D03*
X97400000Y-90000000D03*
X95200000Y-85400000D03*
X90200000Y-74500000D03*
X93800000Y-52000000D03*
X120800000Y-56800000D03*
X91800000Y-78750000D03*
X102500000Y-57400000D03*
X100000000Y-90000000D03*
X84000000Y-77700000D03*
X110800000Y-52000000D03*
X89200000Y-57190000D03*
X121900000Y-56300000D03*
X88100001Y-84422300D03*
X98700000Y-52000000D03*
X115900000Y-88400000D03*
X118000000Y-52000000D03*
X88100000Y-73900000D03*
X92600000Y-90000000D03*
X90600000Y-68700000D03*
X122100000Y-67250000D03*
X91400000Y-68700000D03*
X109025000Y-83200000D03*
X87500000Y-69400000D03*
X90300000Y-89300000D03*
X97300000Y-72500000D03*
X110200000Y-87650000D03*
X118800000Y-56500000D03*
X104500000Y-77000000D03*
X88400000Y-80200000D03*
X115000000Y-52000000D03*
X92300000Y-74000000D03*
X101500000Y-74000000D03*
X109870000Y-81950000D03*
X93050000Y-78750000D03*
X122100000Y-79900000D03*
X104300000Y-85200000D03*
X88900000Y-68700000D03*
X120600000Y-58100000D03*
X88800000Y-55100000D03*
X112700000Y-81000000D03*
X112750000Y-73500000D03*
X113150000Y-76800000D03*
X116300000Y-90100000D03*
X97700000Y-61900000D03*
X88900000Y-70100000D03*
X87100000Y-76800000D03*
X95250000Y-66300000D03*
X89200000Y-62990000D03*
X122100000Y-65650000D03*
X93200000Y-84700000D03*
X86800000Y-70100000D03*
X97000000Y-69500000D03*
X109000000Y-66000000D03*
X84000000Y-62700000D03*
X92450000Y-80850000D03*
X107100000Y-64250000D03*
X109000000Y-62600000D03*
X116000000Y-52000000D03*
X84000000Y-83500000D03*
X84700000Y-56600000D03*
X116250000Y-73850000D03*
X115400000Y-90100000D03*
X108000000Y-56500000D03*
X117100000Y-55000000D03*
X89700000Y-68700000D03*
X89800000Y-78700000D03*
X101500000Y-55000000D03*
X101500000Y-53500000D03*
X91600000Y-74700000D03*
X97300000Y-87850000D03*
X110520000Y-71000000D03*
X84000000Y-74100000D03*
X108850000Y-87650000D03*
X116900000Y-88700000D03*
X114400000Y-62900000D03*
X88900000Y-53000000D03*
X86300000Y-75500000D03*
X114200000Y-54400000D03*
X117000000Y-77250000D03*
X91400000Y-68000000D03*
X101300000Y-52000000D03*
X122100000Y-58500000D03*
X115700000Y-63900000D03*
X107300000Y-52000000D03*
X120550000Y-70250000D03*
X117796194Y-86397232D03*
X109050000Y-75550000D03*
X102600000Y-52000000D03*
X116380000Y-53200000D03*
X122100000Y-57200000D03*
X115100000Y-89200000D03*
X89500000Y-73900000D03*
X107500000Y-69500000D03*
X90600000Y-68000000D03*
X120550000Y-77250000D03*
X108450000Y-58750000D03*
X87625000Y-81750000D03*
X93050000Y-80250000D03*
X108600000Y-64250000D03*
X92450000Y-82400000D03*
X84000000Y-81200000D03*
X84000000Y-75400000D03*
X89600000Y-90000000D03*
X120550000Y-64750000D03*
X88200000Y-56000000D03*
X98600000Y-90000000D03*
X91600000Y-76100000D03*
X99950000Y-80650000D03*
X99700000Y-53400000D03*
X122100000Y-71750000D03*
X102500000Y-59400000D03*
X106100000Y-59300000D03*
X84400000Y-82800000D03*
X87100000Y-56600000D03*
G04 #@! TO.N,+1V1*
X96350000Y-80737500D03*
X95600000Y-80750000D03*
X109000000Y-69500000D03*
X109000000Y-71000000D03*
X94000000Y-68000000D03*
X97000000Y-78500000D03*
X111750000Y-71000000D03*
X106000000Y-63500000D03*
X104500000Y-78500000D03*
X95600000Y-80100000D03*
X109000000Y-72500000D03*
X100380000Y-84100000D03*
X106000000Y-78500000D03*
X96350000Y-80100000D03*
X94200000Y-74000000D03*
X98450000Y-79800000D03*
G04 #@! TO.N,+3.3VA*
X92300000Y-73100000D03*
X107500000Y-74620000D03*
X98500000Y-72500000D03*
X92300000Y-72400000D03*
X91600000Y-72400000D03*
X98500000Y-74000000D03*
X98500000Y-71050000D03*
X91600000Y-73100000D03*
X106050000Y-68000000D03*
X95500000Y-71050000D03*
X100000000Y-74000000D03*
X91700000Y-70620000D03*
X92700000Y-69200000D03*
X98500000Y-68000000D03*
X106000000Y-74000000D03*
G04 #@! TO.N,+1V8*
X113780000Y-57900000D03*
X94020000Y-75500000D03*
X93950000Y-66550000D03*
X85100000Y-71500000D03*
X86200000Y-58100000D03*
X85100000Y-70700000D03*
X86175000Y-64145000D03*
X86200000Y-61200000D03*
X104500000Y-63500000D03*
X115420000Y-53200000D03*
X85800000Y-71500000D03*
X85400000Y-69100000D03*
X111880000Y-56900000D03*
X105080000Y-56900000D03*
X85800000Y-70700000D03*
X113600000Y-53500000D03*
X109000000Y-74300000D03*
G04 #@! TO.N,Net-(U4-VLOADLM)*
X94000000Y-72300000D03*
G04 #@! TO.N,Net-(U4-VRHT)*
X98500000Y-69250000D03*
G04 #@! TO.N,+3V3*
X100850000Y-80150000D03*
X115920000Y-58800000D03*
X121300000Y-76350000D03*
X102620000Y-81300000D03*
X120050000Y-76350000D03*
X91200000Y-80700000D03*
X92650000Y-87000000D03*
X90400000Y-80000000D03*
X90400000Y-80700000D03*
X90400000Y-82200000D03*
X110800000Y-80100000D03*
X92650000Y-87750000D03*
X90400000Y-81500000D03*
X120650000Y-76350000D03*
X93350000Y-87000000D03*
X91200000Y-82200000D03*
X93350000Y-87750000D03*
X91200000Y-81500000D03*
X91200000Y-80000000D03*
X89000000Y-84400000D03*
X117050000Y-81400000D03*
X114800000Y-79050000D03*
G04 #@! TO.N,SDA_3V3*
X118750000Y-75750000D03*
X104950000Y-85800000D03*
X101950000Y-80750000D03*
X116350000Y-56800000D03*
X118100000Y-82400000D03*
G04 #@! TO.N,SCL_3V3*
X105650000Y-86400000D03*
X119600000Y-75250000D03*
X105650000Y-85200000D03*
X116350000Y-55200000D03*
X102650000Y-80150000D03*
X118050000Y-83400000D03*
G04 #@! TO.N,Net-(U4-VRLST)*
X101500000Y-67350000D03*
G04 #@! TO.N,CAM_EN*
X90200000Y-87100000D03*
X88900000Y-76300000D03*
X98050000Y-83325000D03*
X114300000Y-87100000D03*
X114300000Y-85100000D03*
X118200000Y-73750000D03*
G04 #@! TO.N,Net-(U4-VRLFR)*
X100000000Y-68050000D03*
G04 #@! TO.N,ADDR1*
X97725000Y-62600000D03*
G04 #@! TO.N,ADDR0*
X96400000Y-61700000D03*
G04 #@! TO.N,XMASTER*
X92550000Y-65750000D03*
G04 #@! TO.N,SCL_1V8*
X114849999Y-55850000D03*
G04 #@! TO.N,SDA_1V8*
X114516421Y-52683579D03*
X114849999Y-58300000D03*
G04 #@! TO.N,CLOCK*
X103000000Y-63450000D03*
G04 #@! TO.N,RST_1V8*
X96700000Y-64750000D03*
G04 #@! TO.N,XHS*
X96500000Y-55725000D03*
G04 #@! TO.N,XVS*
X99250000Y-62742500D03*
X100600000Y-60800000D03*
X91500000Y-55725000D03*
X114100000Y-55100000D03*
G04 #@! TO.N,Net-(J6-Pin_1)*
X112100000Y-82950000D03*
X112950000Y-81950000D03*
G04 #@! TO.N,CAM_D2_N*
X107500000Y-63800000D03*
G04 #@! TO.N,CAM_D2_P*
X107500000Y-64700000D03*
G04 #@! TO.N,CAM_D0_N*
X109000000Y-63800000D03*
G04 #@! TO.N,CAM_D0_P*
X109000000Y-64700000D03*
G04 #@! TO.N,CAM_CLK_P*
X114001000Y-69575000D03*
G04 #@! TO.N,CAM_D1_P*
X110900000Y-67800000D03*
G04 #@! TO.N,CAM_D3_P*
X113950000Y-73850000D03*
G04 #@! TO.N,CAM_CLK_N*
X114001000Y-68925000D03*
G04 #@! TO.N,CAM_D1_N*
X111600000Y-67800000D03*
G04 #@! TO.N,CAM_D3_N*
X113300000Y-73850000D03*
G04 #@! TO.N,Net-(U3-SS_CTRL)*
X88100000Y-75400000D03*
X90600000Y-76200000D03*
G04 #@! TO.N,+3.6V*
X100650000Y-89400000D03*
X85150000Y-81800000D03*
G04 #@! TD*
G04 #@! TA.AperFunction,Conductor*
G04 #@! TO.N,GND*
G36*
X119190511Y-51521674D02*
G01*
X119212185Y-51574000D01*
X119190511Y-51626326D01*
X119162626Y-51643847D01*
X119041592Y-51686198D01*
X118788559Y-51808052D01*
X118550751Y-51957477D01*
X118331175Y-52132583D01*
X118132583Y-52331175D01*
X117957477Y-52550751D01*
X117808052Y-52788559D01*
X117686198Y-53041592D01*
X117593442Y-53306674D01*
X117593437Y-53306690D01*
X117530945Y-53580486D01*
X117530945Y-53580487D01*
X117499500Y-53859578D01*
X117499500Y-54140421D01*
X117530945Y-54419512D01*
X117530945Y-54419513D01*
X117593437Y-54693309D01*
X117593442Y-54693325D01*
X117686198Y-54958407D01*
X117808052Y-55211440D01*
X117808054Y-55211444D01*
X117808055Y-55211445D01*
X117897138Y-55353219D01*
X117957477Y-55449248D01*
X118071217Y-55591874D01*
X118132584Y-55668825D01*
X118331175Y-55867416D01*
X118550752Y-56042523D01*
X118788555Y-56191945D01*
X119041592Y-56313801D01*
X119306682Y-56406560D01*
X119306687Y-56406561D01*
X119306690Y-56406562D01*
X119580486Y-56469054D01*
X119580487Y-56469054D01*
X119580491Y-56469055D01*
X119859575Y-56500500D01*
X119859579Y-56500500D01*
X120140421Y-56500500D01*
X120140425Y-56500500D01*
X120419509Y-56469055D01*
X120693318Y-56406560D01*
X120958408Y-56313801D01*
X121211445Y-56191945D01*
X121449248Y-56042523D01*
X121668825Y-55867416D01*
X121867416Y-55668825D01*
X122042523Y-55449248D01*
X122191945Y-55211445D01*
X122313801Y-54958408D01*
X122351220Y-54851471D01*
X122356153Y-54837374D01*
X122393892Y-54795142D01*
X122450440Y-54791967D01*
X122492672Y-54829706D01*
X122500000Y-54861814D01*
X122500000Y-87138185D01*
X122478326Y-87190511D01*
X122426000Y-87212185D01*
X122373674Y-87190511D01*
X122356153Y-87162626D01*
X122313801Y-87041592D01*
X122191947Y-86788559D01*
X122191946Y-86788558D01*
X122191945Y-86788555D01*
X122042523Y-86550752D01*
X121867416Y-86331175D01*
X121668825Y-86132584D01*
X121449248Y-85957477D01*
X121211445Y-85808055D01*
X121211444Y-85808054D01*
X121211440Y-85808052D01*
X120958407Y-85686198D01*
X120693325Y-85593442D01*
X120693309Y-85593437D01*
X120419513Y-85530945D01*
X120279967Y-85515222D01*
X120140425Y-85499500D01*
X119859575Y-85499500D01*
X119720033Y-85515222D01*
X119580487Y-85530945D01*
X119580486Y-85530945D01*
X119306690Y-85593437D01*
X119306674Y-85593442D01*
X119041592Y-85686198D01*
X118788559Y-85808052D01*
X118550751Y-85957477D01*
X118331175Y-86132583D01*
X118132583Y-86331175D01*
X117957477Y-86550751D01*
X117808052Y-86788559D01*
X117686198Y-87041592D01*
X117593442Y-87306674D01*
X117593437Y-87306690D01*
X117530945Y-87580486D01*
X117530945Y-87580487D01*
X117512976Y-87739967D01*
X117499500Y-87859575D01*
X117499500Y-88140425D01*
X117504050Y-88180804D01*
X117530945Y-88419512D01*
X117530945Y-88419513D01*
X117593437Y-88693309D01*
X117593442Y-88693325D01*
X117686198Y-88958407D01*
X117808052Y-89211440D01*
X117808054Y-89211444D01*
X117808055Y-89211445D01*
X117926532Y-89400000D01*
X117957477Y-89449248D01*
X118120138Y-89653219D01*
X118132584Y-89668825D01*
X118331175Y-89867416D01*
X118550752Y-90042523D01*
X118788555Y-90191945D01*
X118788558Y-90191946D01*
X118788559Y-90191947D01*
X119041592Y-90313801D01*
X119162626Y-90356153D01*
X119204857Y-90393893D01*
X119208032Y-90450441D01*
X119170292Y-90492672D01*
X119138185Y-90500000D01*
X115401219Y-90500000D01*
X115398805Y-90499961D01*
X115396533Y-90499886D01*
X115342965Y-90498138D01*
X115326228Y-90495656D01*
X115217243Y-90466454D01*
X115199395Y-90459061D01*
X115102743Y-90403259D01*
X115087417Y-90391499D01*
X115008500Y-90312582D01*
X114996740Y-90297256D01*
X114940938Y-90200604D01*
X114933545Y-90182756D01*
X114904343Y-90073771D01*
X114901861Y-90057032D01*
X114900000Y-90000000D01*
X114897861Y-89934455D01*
X114863933Y-89807833D01*
X114798388Y-89694306D01*
X114705694Y-89601612D01*
X114592171Y-89536069D01*
X114592169Y-89536068D01*
X114592168Y-89536067D01*
X114592167Y-89536067D01*
X114465545Y-89502139D01*
X114400000Y-89500000D01*
X114399988Y-89500000D01*
X111000012Y-89500000D01*
X111000000Y-89500000D01*
X110934455Y-89502139D01*
X110807833Y-89536067D01*
X110807832Y-89536067D01*
X110807830Y-89536068D01*
X110807828Y-89536069D01*
X110694305Y-89601612D01*
X110601612Y-89694305D01*
X110536069Y-89807828D01*
X110536068Y-89807830D01*
X110502139Y-89934455D01*
X110500000Y-90000000D01*
X110500000Y-90000001D01*
X110498138Y-90057034D01*
X110495656Y-90073771D01*
X110466454Y-90182756D01*
X110459061Y-90200604D01*
X110403259Y-90297256D01*
X110391499Y-90312582D01*
X110312582Y-90391499D01*
X110297256Y-90403259D01*
X110200604Y-90459061D01*
X110182756Y-90466454D01*
X110073771Y-90495656D01*
X110057034Y-90498138D01*
X110003371Y-90499889D01*
X110001194Y-90499961D01*
X109998781Y-90500000D01*
X86861815Y-90500000D01*
X86809489Y-90478326D01*
X86787815Y-90426000D01*
X86809489Y-90373674D01*
X86837374Y-90356153D01*
X86899821Y-90334301D01*
X86958408Y-90313801D01*
X87211445Y-90191945D01*
X87449248Y-90042523D01*
X87668825Y-89867416D01*
X87867416Y-89668825D01*
X88042523Y-89449248D01*
X88073468Y-89400000D01*
X100219196Y-89400000D01*
X100240280Y-89533126D01*
X100275176Y-89601612D01*
X100301472Y-89653220D01*
X100396780Y-89748528D01*
X100516873Y-89809718D01*
X100516873Y-89809719D01*
X100535075Y-89812601D01*
X100650000Y-89830804D01*
X100783126Y-89809719D01*
X100903220Y-89748528D01*
X100998528Y-89653220D01*
X101059719Y-89533126D01*
X101080804Y-89400000D01*
X101059719Y-89266874D01*
X101059719Y-89266873D01*
X100998528Y-89146780D01*
X100903219Y-89051471D01*
X100783126Y-88990281D01*
X100783126Y-88990280D01*
X100650000Y-88969196D01*
X100516873Y-88990280D01*
X100516873Y-88990281D01*
X100396780Y-89051471D01*
X100301471Y-89146780D01*
X100240281Y-89266873D01*
X100240280Y-89266873D01*
X100219196Y-89400000D01*
X88073468Y-89400000D01*
X88191945Y-89211445D01*
X88313801Y-88958408D01*
X88406560Y-88693318D01*
X88469055Y-88419509D01*
X88500500Y-88140425D01*
X88500500Y-87859575D01*
X88469055Y-87580491D01*
X88449948Y-87496779D01*
X88406562Y-87306690D01*
X88406557Y-87306674D01*
X88380821Y-87233126D01*
X88334239Y-87100000D01*
X89769196Y-87100000D01*
X89790280Y-87233126D01*
X89849081Y-87348528D01*
X89851472Y-87353220D01*
X89946780Y-87448528D01*
X90066873Y-87509718D01*
X90066873Y-87509719D01*
X90085075Y-87512601D01*
X90200000Y-87530804D01*
X90333126Y-87509719D01*
X90453220Y-87448528D01*
X90548528Y-87353220D01*
X90609719Y-87233126D01*
X90630804Y-87100000D01*
X90614966Y-87000000D01*
X92219196Y-87000000D01*
X92240280Y-87133126D01*
X92301471Y-87253219D01*
X92370926Y-87322674D01*
X92392600Y-87375000D01*
X92370926Y-87427326D01*
X92301472Y-87496779D01*
X92301471Y-87496780D01*
X92240281Y-87616873D01*
X92240280Y-87616873D01*
X92219196Y-87750000D01*
X92240280Y-87883126D01*
X92301471Y-88003219D01*
X92301472Y-88003220D01*
X92396780Y-88098528D01*
X92516873Y-88159718D01*
X92516873Y-88159719D01*
X92535075Y-88162601D01*
X92650000Y-88180804D01*
X92783126Y-88159719D01*
X92903220Y-88098528D01*
X92947674Y-88054074D01*
X93000000Y-88032400D01*
X93052326Y-88054074D01*
X93096780Y-88098528D01*
X93216873Y-88159718D01*
X93216873Y-88159719D01*
X93235075Y-88162601D01*
X93350000Y-88180804D01*
X93483126Y-88159719D01*
X93603220Y-88098528D01*
X93698528Y-88003220D01*
X93759719Y-87883126D01*
X93780804Y-87750000D01*
X93759719Y-87616874D01*
X93759719Y-87616873D01*
X93698528Y-87496780D01*
X93629074Y-87427326D01*
X93607400Y-87375000D01*
X93629074Y-87322674D01*
X93645074Y-87306674D01*
X93698528Y-87253220D01*
X93759719Y-87133126D01*
X93764966Y-87100000D01*
X113869196Y-87100000D01*
X113890280Y-87233126D01*
X113949081Y-87348528D01*
X113951472Y-87353220D01*
X114046780Y-87448528D01*
X114166873Y-87509718D01*
X114166873Y-87509719D01*
X114185075Y-87512601D01*
X114300000Y-87530804D01*
X114433126Y-87509719D01*
X114553220Y-87448528D01*
X114648528Y-87353220D01*
X114709719Y-87233126D01*
X114730804Y-87100000D01*
X114709719Y-86966874D01*
X114709719Y-86966873D01*
X114648528Y-86846780D01*
X114553219Y-86751471D01*
X114433126Y-86690281D01*
X114433126Y-86690280D01*
X114300000Y-86669196D01*
X114166873Y-86690280D01*
X114166873Y-86690281D01*
X114046780Y-86751471D01*
X113951471Y-86846780D01*
X113890281Y-86966873D01*
X113890280Y-86966873D01*
X113869196Y-87100000D01*
X93764966Y-87100000D01*
X93780804Y-87000000D01*
X93759719Y-86866874D01*
X93759719Y-86866873D01*
X93698528Y-86746780D01*
X93603219Y-86651471D01*
X93483126Y-86590281D01*
X93483126Y-86590280D01*
X93350000Y-86569196D01*
X93216873Y-86590280D01*
X93216873Y-86590281D01*
X93096780Y-86651471D01*
X93096779Y-86651472D01*
X93052326Y-86695926D01*
X93000000Y-86717600D01*
X92947674Y-86695926D01*
X92903219Y-86651471D01*
X92783126Y-86590281D01*
X92783126Y-86590280D01*
X92650000Y-86569196D01*
X92516873Y-86590280D01*
X92516873Y-86590281D01*
X92396780Y-86651471D01*
X92301471Y-86746780D01*
X92240281Y-86866873D01*
X92240280Y-86866873D01*
X92219196Y-87000000D01*
X90614966Y-87000000D01*
X90609719Y-86966874D01*
X90609719Y-86966873D01*
X90548528Y-86846780D01*
X90453219Y-86751471D01*
X90333126Y-86690281D01*
X90333126Y-86690280D01*
X90200000Y-86669196D01*
X90066873Y-86690280D01*
X90066873Y-86690281D01*
X89946780Y-86751471D01*
X89851471Y-86846780D01*
X89790281Y-86966873D01*
X89790280Y-86966873D01*
X89769196Y-87100000D01*
X88334239Y-87100000D01*
X88313801Y-87041592D01*
X88191945Y-86788555D01*
X88042523Y-86550752D01*
X87867416Y-86331175D01*
X87668825Y-86132584D01*
X87449248Y-85957477D01*
X87211445Y-85808055D01*
X87211444Y-85808054D01*
X87211440Y-85808052D01*
X87194720Y-85800000D01*
X104519196Y-85800000D01*
X104540280Y-85933126D01*
X104600581Y-86051472D01*
X104601472Y-86053220D01*
X104696780Y-86148528D01*
X104816873Y-86209718D01*
X104816873Y-86209719D01*
X104835075Y-86212601D01*
X104950000Y-86230804D01*
X105083126Y-86209719D01*
X105134539Y-86183522D01*
X105190997Y-86179078D01*
X105234065Y-86215860D01*
X105237795Y-86260584D01*
X105241192Y-86261122D01*
X105219196Y-86400000D01*
X105240280Y-86533126D01*
X105300581Y-86651472D01*
X105301472Y-86653220D01*
X105396780Y-86748528D01*
X105516873Y-86809718D01*
X105516873Y-86809719D01*
X105535075Y-86812601D01*
X105650000Y-86830804D01*
X105783126Y-86809719D01*
X105903220Y-86748528D01*
X105998528Y-86653220D01*
X106059719Y-86533126D01*
X106080804Y-86400000D01*
X106059719Y-86266874D01*
X106059719Y-86266873D01*
X105998528Y-86146780D01*
X105903219Y-86051471D01*
X105783126Y-85990281D01*
X105783126Y-85990280D01*
X105650000Y-85969196D01*
X105516876Y-85990280D01*
X105516874Y-85990280D01*
X105516874Y-85990281D01*
X105465461Y-86016477D01*
X105409001Y-86020920D01*
X105365933Y-85984137D01*
X105362416Y-85939449D01*
X105358808Y-85938878D01*
X105359719Y-85933126D01*
X105380804Y-85800000D01*
X105359719Y-85666874D01*
X105359718Y-85666873D01*
X105358808Y-85661122D01*
X105362430Y-85660548D01*
X105365906Y-85615917D01*
X105408942Y-85579098D01*
X105465406Y-85583494D01*
X105516874Y-85609719D01*
X105516873Y-85609719D01*
X105535075Y-85612601D01*
X105650000Y-85630804D01*
X105783126Y-85609719D01*
X105903220Y-85548528D01*
X105998528Y-85453220D01*
X106059719Y-85333126D01*
X106080804Y-85200000D01*
X106064966Y-85100000D01*
X113869196Y-85100000D01*
X113890280Y-85233126D01*
X113944164Y-85338878D01*
X113951472Y-85353220D01*
X114046780Y-85448528D01*
X114166873Y-85509718D01*
X114166873Y-85509719D01*
X114185075Y-85512601D01*
X114300000Y-85530804D01*
X114433126Y-85509719D01*
X114553220Y-85448528D01*
X114648528Y-85353220D01*
X114709719Y-85233126D01*
X114730804Y-85100000D01*
X114709719Y-84966874D01*
X114709719Y-84966873D01*
X114648528Y-84846780D01*
X114553219Y-84751471D01*
X114433126Y-84690281D01*
X114433126Y-84690280D01*
X114300000Y-84669196D01*
X114166873Y-84690280D01*
X114166873Y-84690281D01*
X114046780Y-84751471D01*
X113951471Y-84846780D01*
X113890281Y-84966873D01*
X113890280Y-84966873D01*
X113869196Y-85100000D01*
X106064966Y-85100000D01*
X106059719Y-85066874D01*
X106059719Y-85066873D01*
X105998528Y-84946780D01*
X105903219Y-84851471D01*
X105783126Y-84790281D01*
X105783126Y-84790280D01*
X105650000Y-84769196D01*
X105516873Y-84790280D01*
X105516873Y-84790281D01*
X105396780Y-84851471D01*
X105301471Y-84946780D01*
X105240281Y-85066873D01*
X105240280Y-85066873D01*
X105219196Y-85200000D01*
X105241192Y-85338878D01*
X105237686Y-85339433D01*
X105233859Y-85384539D01*
X105190568Y-85421059D01*
X105134536Y-85416476D01*
X105083126Y-85390281D01*
X105083124Y-85390280D01*
X105083126Y-85390280D01*
X104950000Y-85369196D01*
X104816873Y-85390280D01*
X104816873Y-85390281D01*
X104696780Y-85451471D01*
X104601471Y-85546780D01*
X104540281Y-85666873D01*
X104540280Y-85666873D01*
X104519196Y-85800000D01*
X87194720Y-85800000D01*
X86958407Y-85686198D01*
X86693325Y-85593442D01*
X86693309Y-85593437D01*
X86419513Y-85530945D01*
X86279967Y-85515222D01*
X86140425Y-85499500D01*
X85859575Y-85499500D01*
X85720033Y-85515222D01*
X85580487Y-85530945D01*
X85580486Y-85530945D01*
X85306690Y-85593437D01*
X85306674Y-85593442D01*
X85041592Y-85686198D01*
X84788559Y-85808052D01*
X84550751Y-85957477D01*
X84331175Y-86132583D01*
X84132583Y-86331175D01*
X83957477Y-86550751D01*
X83808052Y-86788559D01*
X83686198Y-87041592D01*
X83643847Y-87162626D01*
X83606107Y-87204857D01*
X83549559Y-87208032D01*
X83507328Y-87170292D01*
X83500000Y-87138185D01*
X83500000Y-84400000D01*
X88569196Y-84400000D01*
X88590280Y-84533126D01*
X88651471Y-84653219D01*
X88651472Y-84653220D01*
X88746780Y-84748528D01*
X88866873Y-84809718D01*
X88866873Y-84809719D01*
X88885075Y-84812601D01*
X89000000Y-84830804D01*
X89133126Y-84809719D01*
X89253220Y-84748528D01*
X89348528Y-84653220D01*
X89409719Y-84533126D01*
X89430804Y-84400000D01*
X89409719Y-84266874D01*
X89409719Y-84266873D01*
X89348528Y-84146780D01*
X89301748Y-84100000D01*
X99949196Y-84100000D01*
X99970280Y-84233126D01*
X99987476Y-84266874D01*
X100031472Y-84353220D01*
X100126780Y-84448528D01*
X100246873Y-84509718D01*
X100246873Y-84509719D01*
X100265075Y-84512601D01*
X100380000Y-84530804D01*
X100513126Y-84509719D01*
X100633220Y-84448528D01*
X100728528Y-84353220D01*
X100789719Y-84233126D01*
X100810804Y-84100000D01*
X100789719Y-83966874D01*
X100789719Y-83966873D01*
X100728528Y-83846780D01*
X100633219Y-83751471D01*
X100513126Y-83690281D01*
X100513126Y-83690280D01*
X100380000Y-83669196D01*
X100246873Y-83690280D01*
X100246873Y-83690281D01*
X100126780Y-83751471D01*
X100031471Y-83846780D01*
X99970281Y-83966873D01*
X99970280Y-83966873D01*
X99949196Y-84100000D01*
X89301748Y-84100000D01*
X89253219Y-84051471D01*
X89133126Y-83990281D01*
X89133126Y-83990280D01*
X89000000Y-83969196D01*
X88866873Y-83990280D01*
X88866873Y-83990281D01*
X88746780Y-84051471D01*
X88651471Y-84146780D01*
X88590281Y-84266873D01*
X88590280Y-84266873D01*
X88569196Y-84400000D01*
X83500000Y-84400000D01*
X83500000Y-83325000D01*
X97619196Y-83325000D01*
X97640280Y-83458126D01*
X97678495Y-83533126D01*
X97701472Y-83578220D01*
X97796780Y-83673528D01*
X97916873Y-83734718D01*
X97916873Y-83734719D01*
X97935075Y-83737601D01*
X98050000Y-83755804D01*
X98183126Y-83734719D01*
X98303220Y-83673528D01*
X98398528Y-83578220D01*
X98459719Y-83458126D01*
X98468925Y-83400000D01*
X117619196Y-83400000D01*
X117640280Y-83533126D01*
X117701471Y-83653219D01*
X117701472Y-83653220D01*
X117796780Y-83748528D01*
X117916873Y-83809718D01*
X117916873Y-83809719D01*
X117935075Y-83812601D01*
X118050000Y-83830804D01*
X118183126Y-83809719D01*
X118303220Y-83748528D01*
X118398528Y-83653220D01*
X118459719Y-83533126D01*
X118480804Y-83400000D01*
X118459719Y-83266874D01*
X118459719Y-83266873D01*
X118398528Y-83146780D01*
X118303219Y-83051471D01*
X118183126Y-82990281D01*
X118183125Y-82990280D01*
X118099579Y-82977048D01*
X118072041Y-82960172D01*
X118050420Y-82969129D01*
X117916874Y-82990280D01*
X117916873Y-82990281D01*
X117796780Y-83051471D01*
X117701471Y-83146780D01*
X117640281Y-83266873D01*
X117640280Y-83266873D01*
X117619196Y-83400000D01*
X98468925Y-83400000D01*
X98480804Y-83325000D01*
X98459719Y-83191874D01*
X98459719Y-83191873D01*
X98398528Y-83071780D01*
X98303219Y-82976471D01*
X98251266Y-82950000D01*
X111669196Y-82950000D01*
X111690280Y-83083126D01*
X111751471Y-83203219D01*
X111751472Y-83203220D01*
X111846780Y-83298528D01*
X111966873Y-83359718D01*
X111966873Y-83359719D01*
X111985075Y-83362601D01*
X112100000Y-83380804D01*
X112233126Y-83359719D01*
X112353220Y-83298528D01*
X112448528Y-83203220D01*
X112509719Y-83083126D01*
X112530804Y-82950000D01*
X112511925Y-82830804D01*
X112509719Y-82816873D01*
X112448528Y-82696780D01*
X112353219Y-82601471D01*
X112233126Y-82540281D01*
X112233126Y-82540280D01*
X112100000Y-82519196D01*
X111966873Y-82540280D01*
X111966873Y-82540281D01*
X111846780Y-82601471D01*
X111751471Y-82696780D01*
X111690281Y-82816873D01*
X111690280Y-82816873D01*
X111669196Y-82950000D01*
X98251266Y-82950000D01*
X98183126Y-82915281D01*
X98183126Y-82915280D01*
X98050000Y-82894196D01*
X97916873Y-82915280D01*
X97916873Y-82915281D01*
X97796780Y-82976471D01*
X97701471Y-83071780D01*
X97640281Y-83191873D01*
X97640280Y-83191873D01*
X97619196Y-83325000D01*
X83500000Y-83325000D01*
X83500000Y-81800000D01*
X84719196Y-81800000D01*
X84740280Y-81933126D01*
X84800581Y-82051472D01*
X84801472Y-82053220D01*
X84896780Y-82148528D01*
X85016873Y-82209718D01*
X85016873Y-82209719D01*
X85035075Y-82212601D01*
X85150000Y-82230804D01*
X85283126Y-82209719D01*
X85403220Y-82148528D01*
X85498528Y-82053220D01*
X85559719Y-81933126D01*
X85580804Y-81800000D01*
X85559719Y-81666874D01*
X85559719Y-81666873D01*
X85498528Y-81546780D01*
X85403219Y-81451471D01*
X85283126Y-81390281D01*
X85283126Y-81390280D01*
X85150000Y-81369196D01*
X85016873Y-81390280D01*
X85016873Y-81390281D01*
X84896780Y-81451471D01*
X84801471Y-81546780D01*
X84740281Y-81666873D01*
X84740280Y-81666873D01*
X84719196Y-81800000D01*
X83500000Y-81800000D01*
X83500000Y-80000000D01*
X89969196Y-80000000D01*
X89990280Y-80133126D01*
X90051471Y-80253219D01*
X90095926Y-80297674D01*
X90117600Y-80350000D01*
X90095926Y-80402326D01*
X90051472Y-80446779D01*
X90051471Y-80446780D01*
X89990281Y-80566873D01*
X89990280Y-80566873D01*
X89969196Y-80700000D01*
X89990280Y-80833126D01*
X90051471Y-80953219D01*
X90145926Y-81047674D01*
X90167600Y-81100000D01*
X90145926Y-81152326D01*
X90051472Y-81246779D01*
X90051471Y-81246780D01*
X89990281Y-81366873D01*
X89990280Y-81366873D01*
X89969196Y-81500000D01*
X89990280Y-81633126D01*
X90051471Y-81753219D01*
X90095926Y-81797674D01*
X90117600Y-81850000D01*
X90095926Y-81902326D01*
X90051472Y-81946779D01*
X90051471Y-81946780D01*
X89990281Y-82066873D01*
X89990280Y-82066873D01*
X89969196Y-82200000D01*
X89990280Y-82333126D01*
X90051471Y-82453219D01*
X90051472Y-82453220D01*
X90146780Y-82548528D01*
X90266873Y-82609718D01*
X90266873Y-82609719D01*
X90285075Y-82612601D01*
X90400000Y-82630804D01*
X90533126Y-82609719D01*
X90653220Y-82548528D01*
X90747674Y-82454074D01*
X90800000Y-82432400D01*
X90852326Y-82454074D01*
X90946780Y-82548528D01*
X91066873Y-82609718D01*
X91066873Y-82609719D01*
X91085075Y-82612601D01*
X91200000Y-82630804D01*
X91333126Y-82609719D01*
X91453220Y-82548528D01*
X91548528Y-82453220D01*
X91575645Y-82400000D01*
X117669196Y-82400000D01*
X117690280Y-82533126D01*
X117740050Y-82630804D01*
X117751472Y-82653220D01*
X117846780Y-82748528D01*
X117966874Y-82809719D01*
X118050420Y-82822951D01*
X118077957Y-82839826D01*
X118099579Y-82830870D01*
X118099997Y-82830803D01*
X118100000Y-82830804D01*
X118233126Y-82809719D01*
X118353220Y-82748528D01*
X118448528Y-82653220D01*
X118509719Y-82533126D01*
X118530804Y-82400000D01*
X118509719Y-82266874D01*
X118509719Y-82266873D01*
X118448528Y-82146780D01*
X118353219Y-82051471D01*
X118233126Y-81990281D01*
X118233126Y-81990280D01*
X118100000Y-81969196D01*
X117966873Y-81990280D01*
X117966873Y-81990281D01*
X117846780Y-82051471D01*
X117751471Y-82146780D01*
X117690281Y-82266873D01*
X117690280Y-82266873D01*
X117669196Y-82400000D01*
X91575645Y-82400000D01*
X91609719Y-82333126D01*
X91630804Y-82200000D01*
X91609719Y-82066874D01*
X91609719Y-82066873D01*
X91550169Y-81950000D01*
X112519196Y-81950000D01*
X112540280Y-82083126D01*
X112599831Y-82200000D01*
X112601472Y-82203220D01*
X112696780Y-82298528D01*
X112816873Y-82359718D01*
X112816873Y-82359719D01*
X112835075Y-82362601D01*
X112950000Y-82380804D01*
X113083126Y-82359719D01*
X113203220Y-82298528D01*
X113298528Y-82203220D01*
X113359719Y-82083126D01*
X113380804Y-81950000D01*
X113359719Y-81816874D01*
X113359719Y-81816873D01*
X113298528Y-81696780D01*
X113203219Y-81601471D01*
X113083126Y-81540281D01*
X113083126Y-81540280D01*
X112950000Y-81519196D01*
X112816873Y-81540280D01*
X112816873Y-81540281D01*
X112696780Y-81601471D01*
X112601471Y-81696780D01*
X112540281Y-81816873D01*
X112540280Y-81816873D01*
X112519196Y-81950000D01*
X91550169Y-81950000D01*
X91548528Y-81946780D01*
X91504074Y-81902326D01*
X91482400Y-81850000D01*
X91504074Y-81797674D01*
X91548528Y-81753220D01*
X91609719Y-81633126D01*
X91630804Y-81500000D01*
X91609719Y-81366874D01*
X91609719Y-81366873D01*
X91548528Y-81246780D01*
X91454074Y-81152326D01*
X91432400Y-81100000D01*
X91454074Y-81047674D01*
X91500598Y-81001150D01*
X91548528Y-80953220D01*
X91609719Y-80833126D01*
X91630804Y-80700000D01*
X91609719Y-80566874D01*
X91609719Y-80566873D01*
X91548528Y-80446780D01*
X91504074Y-80402326D01*
X91482400Y-80350000D01*
X91504074Y-80297674D01*
X91518622Y-80283126D01*
X91548528Y-80253220D01*
X91609719Y-80133126D01*
X91614966Y-80100000D01*
X95169196Y-80100000D01*
X95190280Y-80233126D01*
X95251471Y-80353219D01*
X95270926Y-80372674D01*
X95292600Y-80425000D01*
X95270926Y-80477326D01*
X95251472Y-80496779D01*
X95251471Y-80496780D01*
X95190281Y-80616873D01*
X95190280Y-80616873D01*
X95169196Y-80750000D01*
X95190280Y-80883126D01*
X95250417Y-81001150D01*
X95251472Y-81003220D01*
X95346780Y-81098528D01*
X95466873Y-81159718D01*
X95466873Y-81159719D01*
X95485075Y-81162601D01*
X95600000Y-81180804D01*
X95733126Y-81159719D01*
X95853220Y-81098528D01*
X95928924Y-81022824D01*
X95981250Y-81001150D01*
X96033576Y-81022824D01*
X96096780Y-81086028D01*
X96216873Y-81147218D01*
X96216873Y-81147219D01*
X96235075Y-81150101D01*
X96350000Y-81168304D01*
X96483126Y-81147219D01*
X96603220Y-81086028D01*
X96698528Y-80990720D01*
X96759719Y-80870626D01*
X96778824Y-80750000D01*
X101519196Y-80750000D01*
X101540280Y-80883126D01*
X101600417Y-81001150D01*
X101601472Y-81003220D01*
X101696780Y-81098528D01*
X101816873Y-81159718D01*
X101816873Y-81159719D01*
X101835075Y-81162601D01*
X101950000Y-81180804D01*
X102083126Y-81159719D01*
X102093273Y-81154548D01*
X102149733Y-81150104D01*
X102192801Y-81186886D01*
X102199956Y-81232058D01*
X102189196Y-81299998D01*
X102189196Y-81299999D01*
X102210280Y-81433126D01*
X102271471Y-81553219D01*
X102271472Y-81553220D01*
X102366780Y-81648528D01*
X102486873Y-81709718D01*
X102486873Y-81709719D01*
X102505075Y-81712601D01*
X102620000Y-81730804D01*
X102753126Y-81709719D01*
X102873220Y-81648528D01*
X102968528Y-81553220D01*
X103029719Y-81433126D01*
X103034966Y-81400000D01*
X116619196Y-81400000D01*
X116640280Y-81533126D01*
X116699081Y-81648528D01*
X116701472Y-81653220D01*
X116796780Y-81748528D01*
X116916873Y-81809718D01*
X116916873Y-81809719D01*
X116935075Y-81812601D01*
X117050000Y-81830804D01*
X117183126Y-81809719D01*
X117303220Y-81748528D01*
X117398528Y-81653220D01*
X117459719Y-81533126D01*
X117480804Y-81400000D01*
X117459719Y-81266874D01*
X117459719Y-81266873D01*
X117398528Y-81146780D01*
X117303219Y-81051471D01*
X117183126Y-80990281D01*
X117183126Y-80990280D01*
X117050000Y-80969196D01*
X116916873Y-80990280D01*
X116916873Y-80990281D01*
X116796780Y-81051471D01*
X116701471Y-81146780D01*
X116640281Y-81266873D01*
X116640280Y-81266873D01*
X116619196Y-81400000D01*
X103034966Y-81400000D01*
X103050804Y-81300000D01*
X103031925Y-81180803D01*
X103029719Y-81166873D01*
X102968528Y-81046780D01*
X102873219Y-80951471D01*
X102753126Y-80890281D01*
X102753126Y-80890280D01*
X102620000Y-80869196D01*
X102486874Y-80890280D01*
X102476724Y-80895452D01*
X102420261Y-80899893D01*
X102377196Y-80863108D01*
X102370043Y-80817940D01*
X102380804Y-80750000D01*
X102359719Y-80616874D01*
X102359718Y-80616873D01*
X102358808Y-80611122D01*
X102362430Y-80610548D01*
X102365906Y-80565917D01*
X102408942Y-80529098D01*
X102465406Y-80533494D01*
X102516874Y-80559719D01*
X102516873Y-80559719D01*
X102535075Y-80562601D01*
X102650000Y-80580804D01*
X102783126Y-80559719D01*
X102903220Y-80498528D01*
X102998528Y-80403220D01*
X103059719Y-80283126D01*
X103080804Y-80150000D01*
X103072885Y-80100000D01*
X110369196Y-80100000D01*
X110390280Y-80233126D01*
X110444879Y-80340281D01*
X110451472Y-80353220D01*
X110546780Y-80448528D01*
X110666873Y-80509718D01*
X110666873Y-80509719D01*
X110685075Y-80512601D01*
X110800000Y-80530804D01*
X110933126Y-80509719D01*
X111053220Y-80448528D01*
X111148528Y-80353220D01*
X111209719Y-80233126D01*
X111230804Y-80100000D01*
X111209719Y-79966874D01*
X111209719Y-79966873D01*
X111148528Y-79846780D01*
X111053219Y-79751471D01*
X110933126Y-79690281D01*
X110933126Y-79690280D01*
X110800000Y-79669196D01*
X110666873Y-79690280D01*
X110666873Y-79690281D01*
X110546780Y-79751471D01*
X110451471Y-79846780D01*
X110390281Y-79966873D01*
X110390280Y-79966873D01*
X110369196Y-80100000D01*
X103072885Y-80100000D01*
X103059719Y-80016874D01*
X103059719Y-80016873D01*
X102998528Y-79896780D01*
X102903219Y-79801471D01*
X102783126Y-79740281D01*
X102783126Y-79740280D01*
X102650000Y-79719196D01*
X102516873Y-79740280D01*
X102516873Y-79740281D01*
X102396780Y-79801471D01*
X102301471Y-79896780D01*
X102240281Y-80016873D01*
X102240280Y-80016873D01*
X102219196Y-80150000D01*
X102241192Y-80288878D01*
X102237686Y-80289433D01*
X102233859Y-80334539D01*
X102190568Y-80371059D01*
X102134536Y-80366476D01*
X102083126Y-80340281D01*
X102083124Y-80340280D01*
X102083126Y-80340280D01*
X101950000Y-80319196D01*
X101816873Y-80340280D01*
X101816873Y-80340281D01*
X101696780Y-80401471D01*
X101601471Y-80496780D01*
X101540281Y-80616873D01*
X101540280Y-80616873D01*
X101519196Y-80750000D01*
X96778824Y-80750000D01*
X96780804Y-80737500D01*
X96759719Y-80604374D01*
X96759719Y-80604373D01*
X96698528Y-80484280D01*
X96685324Y-80471076D01*
X96663650Y-80418750D01*
X96685324Y-80366424D01*
X96698528Y-80353220D01*
X96759719Y-80233126D01*
X96780804Y-80100000D01*
X96759719Y-79966874D01*
X96759719Y-79966873D01*
X96698528Y-79846780D01*
X96651748Y-79800000D01*
X98019196Y-79800000D01*
X98040280Y-79933126D01*
X98101471Y-80053219D01*
X98101472Y-80053220D01*
X98196780Y-80148528D01*
X98316873Y-80209718D01*
X98316873Y-80209719D01*
X98335075Y-80212601D01*
X98450000Y-80230804D01*
X98583126Y-80209719D01*
X98700331Y-80150000D01*
X100419196Y-80150000D01*
X100440280Y-80283126D01*
X100500581Y-80401472D01*
X100501472Y-80403220D01*
X100596780Y-80498528D01*
X100716873Y-80559718D01*
X100716873Y-80559719D01*
X100735075Y-80562601D01*
X100850000Y-80580804D01*
X100983126Y-80559719D01*
X101103220Y-80498528D01*
X101198528Y-80403220D01*
X101259719Y-80283126D01*
X101280804Y-80150000D01*
X101259719Y-80016874D01*
X101259719Y-80016873D01*
X101198528Y-79896780D01*
X101103219Y-79801471D01*
X100983126Y-79740281D01*
X100983126Y-79740280D01*
X100850000Y-79719196D01*
X100716873Y-79740280D01*
X100716873Y-79740281D01*
X100596780Y-79801471D01*
X100501471Y-79896780D01*
X100440281Y-80016873D01*
X100440280Y-80016873D01*
X100419196Y-80150000D01*
X98700331Y-80150000D01*
X98703220Y-80148528D01*
X98798528Y-80053220D01*
X98859719Y-79933126D01*
X98880804Y-79800000D01*
X98859719Y-79666874D01*
X98859719Y-79666873D01*
X98798528Y-79546780D01*
X98703219Y-79451471D01*
X98583126Y-79390281D01*
X98583126Y-79390280D01*
X98450000Y-79369196D01*
X98316873Y-79390280D01*
X98316873Y-79390281D01*
X98196780Y-79451471D01*
X98101471Y-79546780D01*
X98040281Y-79666873D01*
X98040280Y-79666873D01*
X98019196Y-79800000D01*
X96651748Y-79800000D01*
X96603219Y-79751471D01*
X96483126Y-79690281D01*
X96483126Y-79690280D01*
X96350000Y-79669196D01*
X96216873Y-79690280D01*
X96216873Y-79690281D01*
X96096780Y-79751471D01*
X96096779Y-79751472D01*
X96027326Y-79820926D01*
X95975000Y-79842600D01*
X95922674Y-79820926D01*
X95853219Y-79751471D01*
X95733126Y-79690281D01*
X95733126Y-79690280D01*
X95600000Y-79669196D01*
X95466873Y-79690280D01*
X95466873Y-79690281D01*
X95346780Y-79751471D01*
X95251471Y-79846780D01*
X95190281Y-79966873D01*
X95190280Y-79966873D01*
X95169196Y-80100000D01*
X91614966Y-80100000D01*
X91630804Y-80000000D01*
X91609719Y-79866874D01*
X91609719Y-79866873D01*
X91548528Y-79746780D01*
X91453219Y-79651471D01*
X91333126Y-79590281D01*
X91333126Y-79590280D01*
X91200000Y-79569196D01*
X91066873Y-79590280D01*
X91066873Y-79590281D01*
X90946780Y-79651471D01*
X90946779Y-79651472D01*
X90852326Y-79745926D01*
X90800000Y-79767600D01*
X90747674Y-79745926D01*
X90653219Y-79651471D01*
X90533126Y-79590281D01*
X90533126Y-79590280D01*
X90400000Y-79569196D01*
X90266873Y-79590280D01*
X90266873Y-79590281D01*
X90146780Y-79651471D01*
X90051471Y-79746780D01*
X89990281Y-79866873D01*
X89990280Y-79866873D01*
X89969196Y-80000000D01*
X83500000Y-80000000D01*
X83500000Y-79050000D01*
X114369196Y-79050000D01*
X114390280Y-79183126D01*
X114451471Y-79303219D01*
X114451472Y-79303220D01*
X114546780Y-79398528D01*
X114666873Y-79459718D01*
X114666873Y-79459719D01*
X114685075Y-79462601D01*
X114800000Y-79480804D01*
X114933126Y-79459719D01*
X115053220Y-79398528D01*
X115148528Y-79303220D01*
X115209719Y-79183126D01*
X115230804Y-79050000D01*
X115209719Y-78916874D01*
X115209719Y-78916873D01*
X115148528Y-78796780D01*
X115053219Y-78701471D01*
X114933126Y-78640281D01*
X114933126Y-78640280D01*
X114800000Y-78619196D01*
X114666873Y-78640280D01*
X114666873Y-78640281D01*
X114546780Y-78701471D01*
X114451471Y-78796780D01*
X114390281Y-78916873D01*
X114390280Y-78916873D01*
X114369196Y-79050000D01*
X83500000Y-79050000D01*
X83500000Y-78500000D01*
X96569196Y-78500000D01*
X96590280Y-78633126D01*
X96651471Y-78753219D01*
X96651472Y-78753220D01*
X96746780Y-78848528D01*
X96866873Y-78909718D01*
X96866873Y-78909719D01*
X96885075Y-78912601D01*
X97000000Y-78930804D01*
X97133126Y-78909719D01*
X97253220Y-78848528D01*
X97348528Y-78753220D01*
X97409719Y-78633126D01*
X97430804Y-78500000D01*
X104069196Y-78500000D01*
X104090280Y-78633126D01*
X104151471Y-78753219D01*
X104151472Y-78753220D01*
X104246780Y-78848528D01*
X104366873Y-78909718D01*
X104366873Y-78909719D01*
X104385075Y-78912601D01*
X104500000Y-78930804D01*
X104633126Y-78909719D01*
X104753220Y-78848528D01*
X104848528Y-78753220D01*
X104909719Y-78633126D01*
X104930804Y-78500000D01*
X105569196Y-78500000D01*
X105590280Y-78633126D01*
X105651471Y-78753219D01*
X105651472Y-78753220D01*
X105746780Y-78848528D01*
X105866873Y-78909718D01*
X105866873Y-78909719D01*
X105885075Y-78912601D01*
X106000000Y-78930804D01*
X106133126Y-78909719D01*
X106253220Y-78848528D01*
X106348528Y-78753220D01*
X106409719Y-78633126D01*
X106430804Y-78500000D01*
X106409719Y-78366874D01*
X106409719Y-78366873D01*
X106348528Y-78246780D01*
X106253219Y-78151471D01*
X106133126Y-78090281D01*
X106133126Y-78090280D01*
X106000000Y-78069196D01*
X105866873Y-78090280D01*
X105866873Y-78090281D01*
X105746780Y-78151471D01*
X105651471Y-78246780D01*
X105590281Y-78366873D01*
X105590280Y-78366873D01*
X105569196Y-78500000D01*
X104930804Y-78500000D01*
X104909719Y-78366874D01*
X104909719Y-78366873D01*
X104848528Y-78246780D01*
X104753219Y-78151471D01*
X104633126Y-78090281D01*
X104633126Y-78090280D01*
X104500000Y-78069196D01*
X104366873Y-78090280D01*
X104366873Y-78090281D01*
X104246780Y-78151471D01*
X104151471Y-78246780D01*
X104090281Y-78366873D01*
X104090280Y-78366873D01*
X104069196Y-78500000D01*
X97430804Y-78500000D01*
X97409719Y-78366874D01*
X97409719Y-78366873D01*
X97348528Y-78246780D01*
X97253219Y-78151471D01*
X97133126Y-78090281D01*
X97133126Y-78090280D01*
X97000000Y-78069196D01*
X96866873Y-78090280D01*
X96866873Y-78090281D01*
X96746780Y-78151471D01*
X96651471Y-78246780D01*
X96590281Y-78366873D01*
X96590280Y-78366873D01*
X96569196Y-78500000D01*
X83500000Y-78500000D01*
X83500000Y-76300000D01*
X88469196Y-76300000D01*
X88490280Y-76433126D01*
X88515757Y-76483126D01*
X88551472Y-76553220D01*
X88646780Y-76648528D01*
X88766873Y-76709718D01*
X88766873Y-76709719D01*
X88785075Y-76712601D01*
X88900000Y-76730804D01*
X89033126Y-76709719D01*
X89153220Y-76648528D01*
X89248528Y-76553220D01*
X89309719Y-76433126D01*
X89330804Y-76300000D01*
X89314966Y-76200000D01*
X90169196Y-76200000D01*
X90190280Y-76333126D01*
X90251471Y-76453219D01*
X90251472Y-76453220D01*
X90346780Y-76548528D01*
X90466873Y-76609718D01*
X90466873Y-76609719D01*
X90485075Y-76612601D01*
X90600000Y-76630804D01*
X90733126Y-76609719D01*
X90853220Y-76548528D01*
X90948528Y-76453220D01*
X91001121Y-76350000D01*
X119619196Y-76350000D01*
X119640280Y-76483126D01*
X119701471Y-76603219D01*
X119701472Y-76603220D01*
X119796780Y-76698528D01*
X119916873Y-76759718D01*
X119916873Y-76759719D01*
X119935075Y-76762601D01*
X120050000Y-76780804D01*
X120183126Y-76759719D01*
X120303220Y-76698528D01*
X120303226Y-76698521D01*
X120306506Y-76696140D01*
X120361579Y-76682920D01*
X120393494Y-76696140D01*
X120396775Y-76698523D01*
X120396780Y-76698528D01*
X120516873Y-76759718D01*
X120516873Y-76759719D01*
X120535075Y-76762601D01*
X120650000Y-76780804D01*
X120783126Y-76759719D01*
X120903220Y-76698528D01*
X120922674Y-76679074D01*
X120975000Y-76657400D01*
X121027326Y-76679074D01*
X121046780Y-76698528D01*
X121166873Y-76759718D01*
X121166873Y-76759719D01*
X121185075Y-76762601D01*
X121300000Y-76780804D01*
X121433126Y-76759719D01*
X121553220Y-76698528D01*
X121648528Y-76603220D01*
X121709719Y-76483126D01*
X121730804Y-76350000D01*
X121709719Y-76216874D01*
X121709719Y-76216873D01*
X121648528Y-76096780D01*
X121553219Y-76001471D01*
X121433126Y-75940281D01*
X121433126Y-75940280D01*
X121300000Y-75919196D01*
X121166873Y-75940280D01*
X121166873Y-75940281D01*
X121046780Y-76001471D01*
X121046779Y-76001472D01*
X121027326Y-76020926D01*
X120975000Y-76042600D01*
X120922674Y-76020926D01*
X120903219Y-76001471D01*
X120783126Y-75940281D01*
X120783126Y-75940280D01*
X120650000Y-75919196D01*
X120516873Y-75940280D01*
X120516873Y-75940281D01*
X120396777Y-76001473D01*
X120393489Y-76003862D01*
X120338415Y-76017078D01*
X120306511Y-76003862D01*
X120303222Y-76001473D01*
X120183126Y-75940281D01*
X120183126Y-75940280D01*
X120050000Y-75919196D01*
X119916873Y-75940280D01*
X119916873Y-75940281D01*
X119796780Y-76001471D01*
X119701471Y-76096780D01*
X119640281Y-76216873D01*
X119640280Y-76216873D01*
X119619196Y-76350000D01*
X91001121Y-76350000D01*
X91009719Y-76333126D01*
X91030804Y-76200000D01*
X91009719Y-76066874D01*
X91009719Y-76066873D01*
X90948528Y-75946780D01*
X90853219Y-75851471D01*
X90733126Y-75790281D01*
X90733126Y-75790280D01*
X90600000Y-75769196D01*
X90466873Y-75790280D01*
X90466873Y-75790281D01*
X90346780Y-75851471D01*
X90251471Y-75946780D01*
X90190281Y-76066873D01*
X90190280Y-76066873D01*
X90169196Y-76200000D01*
X89314966Y-76200000D01*
X89309719Y-76166874D01*
X89309719Y-76166873D01*
X89248528Y-76046780D01*
X89153219Y-75951471D01*
X89033126Y-75890281D01*
X89033126Y-75890280D01*
X88900000Y-75869196D01*
X88766873Y-75890280D01*
X88766873Y-75890281D01*
X88646780Y-75951471D01*
X88551471Y-76046780D01*
X88490281Y-76166873D01*
X88490280Y-76166873D01*
X88469196Y-76300000D01*
X83500000Y-76300000D01*
X83500000Y-75400000D01*
X87669196Y-75400000D01*
X87690280Y-75533126D01*
X87751471Y-75653219D01*
X87751472Y-75653220D01*
X87846780Y-75748528D01*
X87966873Y-75809718D01*
X87966873Y-75809719D01*
X87985075Y-75812601D01*
X88100000Y-75830804D01*
X88233126Y-75809719D01*
X88353220Y-75748528D01*
X88448528Y-75653220D01*
X88509719Y-75533126D01*
X88514966Y-75500000D01*
X93589196Y-75500000D01*
X93610280Y-75633126D01*
X93669081Y-75748528D01*
X93671472Y-75753220D01*
X93766780Y-75848528D01*
X93886873Y-75909718D01*
X93886873Y-75909719D01*
X93905075Y-75912601D01*
X94020000Y-75930804D01*
X94153126Y-75909719D01*
X94273220Y-75848528D01*
X94368528Y-75753220D01*
X94370169Y-75750000D01*
X118319196Y-75750000D01*
X118340280Y-75883126D01*
X118401471Y-76003219D01*
X118401472Y-76003220D01*
X118496780Y-76098528D01*
X118616873Y-76159718D01*
X118616873Y-76159719D01*
X118635075Y-76162601D01*
X118750000Y-76180804D01*
X118883126Y-76159719D01*
X119003220Y-76098528D01*
X119098528Y-76003220D01*
X119159719Y-75883126D01*
X119180804Y-75750000D01*
X119159719Y-75616874D01*
X119158444Y-75614373D01*
X119158297Y-75612498D01*
X119157920Y-75611338D01*
X119158198Y-75611247D01*
X119154000Y-75557914D01*
X119190782Y-75514845D01*
X119247244Y-75510400D01*
X119276705Y-75528453D01*
X119346780Y-75598528D01*
X119466873Y-75659718D01*
X119466873Y-75659719D01*
X119485075Y-75662601D01*
X119600000Y-75680804D01*
X119733126Y-75659719D01*
X119853220Y-75598528D01*
X119948528Y-75503220D01*
X120009719Y-75383126D01*
X120030804Y-75250000D01*
X120009719Y-75116874D01*
X120009719Y-75116873D01*
X119948528Y-74996780D01*
X119853219Y-74901471D01*
X119733126Y-74840281D01*
X119733126Y-74840280D01*
X119600000Y-74819196D01*
X119466873Y-74840280D01*
X119466873Y-74840281D01*
X119346780Y-74901471D01*
X119251471Y-74996780D01*
X119190281Y-75116873D01*
X119190280Y-75116873D01*
X119169196Y-75250000D01*
X119190280Y-75383125D01*
X119191555Y-75385626D01*
X119191702Y-75387500D01*
X119192080Y-75388662D01*
X119191801Y-75388752D01*
X119195998Y-75442089D01*
X119159214Y-75485155D01*
X119102751Y-75489598D01*
X119073294Y-75471546D01*
X119003219Y-75401471D01*
X118883126Y-75340281D01*
X118883126Y-75340280D01*
X118750000Y-75319196D01*
X118616873Y-75340280D01*
X118616873Y-75340281D01*
X118496780Y-75401471D01*
X118401471Y-75496780D01*
X118340281Y-75616873D01*
X118340280Y-75616873D01*
X118319196Y-75750000D01*
X94370169Y-75750000D01*
X94429719Y-75633126D01*
X94450804Y-75500000D01*
X94429719Y-75366874D01*
X94429719Y-75366873D01*
X94368528Y-75246780D01*
X94273219Y-75151471D01*
X94153126Y-75090281D01*
X94153126Y-75090280D01*
X94020000Y-75069196D01*
X93886873Y-75090280D01*
X93886873Y-75090281D01*
X93766780Y-75151471D01*
X93671471Y-75246780D01*
X93610281Y-75366873D01*
X93610280Y-75366873D01*
X93589196Y-75500000D01*
X88514966Y-75500000D01*
X88530804Y-75400000D01*
X88509719Y-75266874D01*
X88509719Y-75266873D01*
X88448528Y-75146780D01*
X88353219Y-75051471D01*
X88233126Y-74990281D01*
X88233126Y-74990280D01*
X88100000Y-74969196D01*
X87966873Y-74990280D01*
X87966873Y-74990281D01*
X87846780Y-75051471D01*
X87751471Y-75146780D01*
X87690281Y-75266873D01*
X87690280Y-75266873D01*
X87669196Y-75400000D01*
X83500000Y-75400000D01*
X83500000Y-74620000D01*
X107069196Y-74620000D01*
X107090280Y-74753126D01*
X107151471Y-74873219D01*
X107151472Y-74873220D01*
X107246780Y-74968528D01*
X107366873Y-75029718D01*
X107366873Y-75029719D01*
X107385075Y-75032601D01*
X107500000Y-75050804D01*
X107633126Y-75029719D01*
X107753220Y-74968528D01*
X107848528Y-74873220D01*
X107909719Y-74753126D01*
X107930804Y-74620000D01*
X107909719Y-74486874D01*
X107909719Y-74486873D01*
X107848528Y-74366780D01*
X107781748Y-74300000D01*
X108569196Y-74300000D01*
X108590280Y-74433126D01*
X108651471Y-74553219D01*
X108651472Y-74553220D01*
X108746780Y-74648528D01*
X108866873Y-74709718D01*
X108866873Y-74709719D01*
X108885075Y-74712601D01*
X109000000Y-74730804D01*
X109133126Y-74709719D01*
X109253220Y-74648528D01*
X109348528Y-74553220D01*
X109409719Y-74433126D01*
X109430804Y-74300000D01*
X109409719Y-74166874D01*
X109409719Y-74166873D01*
X109348528Y-74046780D01*
X109253219Y-73951471D01*
X109133126Y-73890281D01*
X109133126Y-73890280D01*
X109000000Y-73869196D01*
X108866873Y-73890280D01*
X108866873Y-73890281D01*
X108746780Y-73951471D01*
X108651471Y-74046780D01*
X108590281Y-74166873D01*
X108590280Y-74166873D01*
X108569196Y-74300000D01*
X107781748Y-74300000D01*
X107753219Y-74271471D01*
X107633126Y-74210281D01*
X107633126Y-74210280D01*
X107500000Y-74189196D01*
X107366873Y-74210280D01*
X107366873Y-74210281D01*
X107246780Y-74271471D01*
X107151471Y-74366780D01*
X107090281Y-74486873D01*
X107090280Y-74486873D01*
X107069196Y-74620000D01*
X83500000Y-74620000D01*
X83500000Y-74000000D01*
X93769196Y-74000000D01*
X93790280Y-74133126D01*
X93829593Y-74210281D01*
X93851472Y-74253220D01*
X93946780Y-74348528D01*
X94066873Y-74409718D01*
X94066873Y-74409719D01*
X94085075Y-74412601D01*
X94200000Y-74430804D01*
X94333126Y-74409719D01*
X94453220Y-74348528D01*
X94548528Y-74253220D01*
X94609719Y-74133126D01*
X94630804Y-74000000D01*
X98069196Y-74000000D01*
X98090280Y-74133126D01*
X98129593Y-74210281D01*
X98151472Y-74253220D01*
X98246780Y-74348528D01*
X98366873Y-74409718D01*
X98366873Y-74409719D01*
X98385075Y-74412601D01*
X98500000Y-74430804D01*
X98633126Y-74409719D01*
X98753220Y-74348528D01*
X98848528Y-74253220D01*
X98909719Y-74133126D01*
X98930804Y-74000000D01*
X99569196Y-74000000D01*
X99590280Y-74133126D01*
X99629593Y-74210281D01*
X99651472Y-74253220D01*
X99746780Y-74348528D01*
X99866873Y-74409718D01*
X99866873Y-74409719D01*
X99885075Y-74412601D01*
X100000000Y-74430804D01*
X100133126Y-74409719D01*
X100253220Y-74348528D01*
X100348528Y-74253220D01*
X100409719Y-74133126D01*
X100430804Y-74000000D01*
X105569196Y-74000000D01*
X105590280Y-74133126D01*
X105629593Y-74210281D01*
X105651472Y-74253220D01*
X105746780Y-74348528D01*
X105866873Y-74409718D01*
X105866873Y-74409719D01*
X105885075Y-74412601D01*
X106000000Y-74430804D01*
X106133126Y-74409719D01*
X106253220Y-74348528D01*
X106348528Y-74253220D01*
X106409719Y-74133126D01*
X106430804Y-74000000D01*
X106409719Y-73866874D01*
X106409719Y-73866873D01*
X106401122Y-73850000D01*
X112869196Y-73850000D01*
X112890280Y-73983126D01*
X112922714Y-74046780D01*
X112951472Y-74103220D01*
X113046780Y-74198528D01*
X113166873Y-74259718D01*
X113166873Y-74259719D01*
X113185075Y-74262601D01*
X113300000Y-74280804D01*
X113433126Y-74259719D01*
X113553220Y-74198528D01*
X113572674Y-74179074D01*
X113625000Y-74157400D01*
X113677326Y-74179074D01*
X113696780Y-74198528D01*
X113816873Y-74259718D01*
X113816873Y-74259719D01*
X113835075Y-74262601D01*
X113950000Y-74280804D01*
X114083126Y-74259719D01*
X114203220Y-74198528D01*
X114298528Y-74103220D01*
X114359719Y-73983126D01*
X114380804Y-73850000D01*
X114364966Y-73750000D01*
X117769196Y-73750000D01*
X117790280Y-73883126D01*
X117849831Y-74000000D01*
X117851472Y-74003220D01*
X117946780Y-74098528D01*
X118066873Y-74159718D01*
X118066873Y-74159719D01*
X118085075Y-74162601D01*
X118200000Y-74180804D01*
X118333126Y-74159719D01*
X118453220Y-74098528D01*
X118548528Y-74003220D01*
X118609719Y-73883126D01*
X118630804Y-73750000D01*
X118609719Y-73616874D01*
X118609719Y-73616873D01*
X118548528Y-73496780D01*
X118453219Y-73401471D01*
X118333126Y-73340281D01*
X118333126Y-73340280D01*
X118200000Y-73319196D01*
X118066873Y-73340280D01*
X118066873Y-73340281D01*
X117946780Y-73401471D01*
X117851471Y-73496780D01*
X117790281Y-73616873D01*
X117790280Y-73616873D01*
X117769196Y-73750000D01*
X114364966Y-73750000D01*
X114359719Y-73716874D01*
X114359719Y-73716873D01*
X114298528Y-73596780D01*
X114203219Y-73501471D01*
X114083126Y-73440281D01*
X114083126Y-73440280D01*
X113950000Y-73419196D01*
X113816873Y-73440280D01*
X113816873Y-73440281D01*
X113696780Y-73501471D01*
X113696779Y-73501472D01*
X113677326Y-73520926D01*
X113625000Y-73542600D01*
X113572674Y-73520926D01*
X113553219Y-73501471D01*
X113433126Y-73440281D01*
X113433126Y-73440280D01*
X113300000Y-73419196D01*
X113166873Y-73440280D01*
X113166873Y-73440281D01*
X113046780Y-73501471D01*
X112951471Y-73596780D01*
X112890281Y-73716873D01*
X112890280Y-73716873D01*
X112869196Y-73850000D01*
X106401122Y-73850000D01*
X106348528Y-73746780D01*
X106253219Y-73651471D01*
X106133126Y-73590281D01*
X106133126Y-73590280D01*
X106000000Y-73569196D01*
X105866873Y-73590280D01*
X105866873Y-73590281D01*
X105746780Y-73651471D01*
X105651471Y-73746780D01*
X105590281Y-73866873D01*
X105590280Y-73866873D01*
X105569196Y-74000000D01*
X100430804Y-74000000D01*
X100409719Y-73866874D01*
X100409719Y-73866873D01*
X100348528Y-73746780D01*
X100253219Y-73651471D01*
X100133126Y-73590281D01*
X100133126Y-73590280D01*
X100000000Y-73569196D01*
X99866873Y-73590280D01*
X99866873Y-73590281D01*
X99746780Y-73651471D01*
X99651471Y-73746780D01*
X99590281Y-73866873D01*
X99590280Y-73866873D01*
X99569196Y-74000000D01*
X98930804Y-74000000D01*
X98909719Y-73866874D01*
X98909719Y-73866873D01*
X98848528Y-73746780D01*
X98753219Y-73651471D01*
X98633126Y-73590281D01*
X98633126Y-73590280D01*
X98500000Y-73569196D01*
X98366873Y-73590280D01*
X98366873Y-73590281D01*
X98246780Y-73651471D01*
X98151471Y-73746780D01*
X98090281Y-73866873D01*
X98090280Y-73866873D01*
X98069196Y-74000000D01*
X94630804Y-74000000D01*
X94609719Y-73866874D01*
X94609719Y-73866873D01*
X94548528Y-73746780D01*
X94453219Y-73651471D01*
X94333126Y-73590281D01*
X94333126Y-73590280D01*
X94200000Y-73569196D01*
X94066873Y-73590280D01*
X94066873Y-73590281D01*
X93946780Y-73651471D01*
X93851471Y-73746780D01*
X93790281Y-73866873D01*
X93790280Y-73866873D01*
X93769196Y-74000000D01*
X83500000Y-74000000D01*
X83500000Y-72400000D01*
X91169196Y-72400000D01*
X91190280Y-72533126D01*
X91251471Y-72653219D01*
X91295926Y-72697674D01*
X91317600Y-72750000D01*
X91295926Y-72802326D01*
X91251472Y-72846779D01*
X91251471Y-72846780D01*
X91190281Y-72966873D01*
X91190280Y-72966873D01*
X91169196Y-73100000D01*
X91190280Y-73233126D01*
X91251471Y-73353219D01*
X91251472Y-73353220D01*
X91346780Y-73448528D01*
X91466873Y-73509718D01*
X91466873Y-73509719D01*
X91485075Y-73512601D01*
X91600000Y-73530804D01*
X91733126Y-73509719D01*
X91853220Y-73448528D01*
X91897674Y-73404074D01*
X91950000Y-73382400D01*
X92002326Y-73404074D01*
X92046780Y-73448528D01*
X92166873Y-73509718D01*
X92166873Y-73509719D01*
X92185075Y-73512601D01*
X92300000Y-73530804D01*
X92433126Y-73509719D01*
X92553220Y-73448528D01*
X92648528Y-73353220D01*
X92709719Y-73233126D01*
X92730804Y-73100000D01*
X92709719Y-72966874D01*
X92709719Y-72966873D01*
X92648528Y-72846780D01*
X92604074Y-72802326D01*
X92582400Y-72750000D01*
X92604074Y-72697674D01*
X92609581Y-72692167D01*
X92648528Y-72653220D01*
X92709719Y-72533126D01*
X92730804Y-72400000D01*
X92714966Y-72300000D01*
X93569196Y-72300000D01*
X93590280Y-72433126D01*
X93651471Y-72553219D01*
X93651472Y-72553220D01*
X93746780Y-72648528D01*
X93866873Y-72709718D01*
X93866873Y-72709719D01*
X93885075Y-72712601D01*
X94000000Y-72730804D01*
X94133126Y-72709719D01*
X94253220Y-72648528D01*
X94348528Y-72553220D01*
X94375645Y-72500000D01*
X98069196Y-72500000D01*
X98090280Y-72633126D01*
X98140050Y-72730804D01*
X98151472Y-72753220D01*
X98246780Y-72848528D01*
X98366873Y-72909718D01*
X98366873Y-72909719D01*
X98385075Y-72912601D01*
X98500000Y-72930804D01*
X98633126Y-72909719D01*
X98753220Y-72848528D01*
X98848528Y-72753220D01*
X98909719Y-72633126D01*
X98930804Y-72500000D01*
X98909719Y-72366874D01*
X98909719Y-72366873D01*
X98848528Y-72246780D01*
X98753219Y-72151471D01*
X98633126Y-72090281D01*
X98633126Y-72090280D01*
X98500000Y-72069196D01*
X98366873Y-72090280D01*
X98366873Y-72090281D01*
X98246780Y-72151471D01*
X98151471Y-72246780D01*
X98090281Y-72366873D01*
X98090280Y-72366873D01*
X98069196Y-72500000D01*
X94375645Y-72500000D01*
X94409719Y-72433126D01*
X94430804Y-72300000D01*
X94409719Y-72166874D01*
X94409719Y-72166873D01*
X94348528Y-72046780D01*
X94253219Y-71951471D01*
X94133126Y-71890281D01*
X94133126Y-71890280D01*
X94000000Y-71869196D01*
X93866873Y-71890280D01*
X93866873Y-71890281D01*
X93746780Y-71951471D01*
X93651471Y-72046780D01*
X93590281Y-72166873D01*
X93590280Y-72166873D01*
X93569196Y-72300000D01*
X92714966Y-72300000D01*
X92709719Y-72266874D01*
X92709719Y-72266873D01*
X92648528Y-72146780D01*
X92553219Y-72051471D01*
X92433126Y-71990281D01*
X92433126Y-71990280D01*
X92300000Y-71969196D01*
X92166873Y-71990280D01*
X92166873Y-71990281D01*
X92046780Y-72051471D01*
X92046779Y-72051472D01*
X92002326Y-72095926D01*
X91950000Y-72117600D01*
X91897674Y-72095926D01*
X91853219Y-72051471D01*
X91733126Y-71990281D01*
X91733126Y-71990280D01*
X91600000Y-71969196D01*
X91466873Y-71990280D01*
X91466873Y-71990281D01*
X91346780Y-72051471D01*
X91251471Y-72146780D01*
X91190281Y-72266873D01*
X91190280Y-72266873D01*
X91169196Y-72400000D01*
X83500000Y-72400000D01*
X83500000Y-70700000D01*
X84669196Y-70700000D01*
X84690280Y-70833126D01*
X84751471Y-70953219D01*
X84845926Y-71047674D01*
X84867600Y-71100000D01*
X84845926Y-71152326D01*
X84751472Y-71246779D01*
X84751471Y-71246780D01*
X84690281Y-71366873D01*
X84690280Y-71366873D01*
X84669196Y-71500000D01*
X84690280Y-71633126D01*
X84751471Y-71753219D01*
X84751472Y-71753220D01*
X84846780Y-71848528D01*
X84966873Y-71909718D01*
X84966873Y-71909719D01*
X84985075Y-71912601D01*
X85100000Y-71930804D01*
X85233126Y-71909719D01*
X85353220Y-71848528D01*
X85397674Y-71804074D01*
X85450000Y-71782400D01*
X85502326Y-71804074D01*
X85546780Y-71848528D01*
X85666873Y-71909718D01*
X85666873Y-71909719D01*
X85685075Y-71912601D01*
X85800000Y-71930804D01*
X85933126Y-71909719D01*
X86053220Y-71848528D01*
X86148528Y-71753220D01*
X86209719Y-71633126D01*
X86230804Y-71500000D01*
X86209719Y-71366874D01*
X86209719Y-71366873D01*
X86148528Y-71246780D01*
X86054074Y-71152326D01*
X86032400Y-71100000D01*
X86054074Y-71047674D01*
X86072030Y-71029718D01*
X86148528Y-70953220D01*
X86209719Y-70833126D01*
X86230804Y-70700000D01*
X86218133Y-70620000D01*
X91269196Y-70620000D01*
X91290280Y-70753126D01*
X91351471Y-70873219D01*
X91351472Y-70873220D01*
X91446780Y-70968528D01*
X91566873Y-71029718D01*
X91566873Y-71029719D01*
X91585075Y-71032601D01*
X91700000Y-71050804D01*
X91705076Y-71050000D01*
X95069196Y-71050000D01*
X95090280Y-71183126D01*
X95151471Y-71303219D01*
X95151472Y-71303220D01*
X95246780Y-71398528D01*
X95366873Y-71459718D01*
X95366873Y-71459719D01*
X95385075Y-71462601D01*
X95500000Y-71480804D01*
X95633126Y-71459719D01*
X95753220Y-71398528D01*
X95848528Y-71303220D01*
X95909719Y-71183126D01*
X95930804Y-71050000D01*
X98069196Y-71050000D01*
X98090280Y-71183126D01*
X98151471Y-71303219D01*
X98151472Y-71303220D01*
X98246780Y-71398528D01*
X98366873Y-71459718D01*
X98366873Y-71459719D01*
X98385075Y-71462601D01*
X98500000Y-71480804D01*
X98633126Y-71459719D01*
X98753220Y-71398528D01*
X98848528Y-71303220D01*
X98909719Y-71183126D01*
X98930804Y-71050000D01*
X98909719Y-70916874D01*
X98909719Y-70916873D01*
X98848528Y-70796780D01*
X98753219Y-70701471D01*
X98633126Y-70640281D01*
X98633126Y-70640280D01*
X98500000Y-70619196D01*
X98366873Y-70640280D01*
X98366873Y-70640281D01*
X98246780Y-70701471D01*
X98151471Y-70796780D01*
X98090281Y-70916873D01*
X98090280Y-70916873D01*
X98069196Y-71050000D01*
X95930804Y-71050000D01*
X95909719Y-70916874D01*
X95909719Y-70916873D01*
X95848528Y-70796780D01*
X95753219Y-70701471D01*
X95633126Y-70640281D01*
X95633126Y-70640280D01*
X95500000Y-70619196D01*
X95366873Y-70640280D01*
X95366873Y-70640281D01*
X95246780Y-70701471D01*
X95151471Y-70796780D01*
X95090281Y-70916873D01*
X95090280Y-70916873D01*
X95069196Y-71050000D01*
X91705076Y-71050000D01*
X91833126Y-71029719D01*
X91953220Y-70968528D01*
X92048528Y-70873220D01*
X92109719Y-70753126D01*
X92130804Y-70620000D01*
X92109719Y-70486874D01*
X92109719Y-70486873D01*
X92048528Y-70366780D01*
X91953219Y-70271471D01*
X91833126Y-70210281D01*
X91833126Y-70210280D01*
X91700000Y-70189196D01*
X91566873Y-70210280D01*
X91566873Y-70210281D01*
X91446780Y-70271471D01*
X91351471Y-70366780D01*
X91290281Y-70486873D01*
X91290280Y-70486873D01*
X91269196Y-70620000D01*
X86218133Y-70620000D01*
X86209719Y-70566874D01*
X86209719Y-70566873D01*
X86148528Y-70446780D01*
X86053219Y-70351471D01*
X85933126Y-70290281D01*
X85933126Y-70290280D01*
X85800000Y-70269196D01*
X85666873Y-70290280D01*
X85666873Y-70290281D01*
X85546780Y-70351471D01*
X85546779Y-70351472D01*
X85502326Y-70395926D01*
X85450000Y-70417600D01*
X85397674Y-70395926D01*
X85353219Y-70351471D01*
X85233126Y-70290281D01*
X85233126Y-70290280D01*
X85100000Y-70269196D01*
X84966873Y-70290280D01*
X84966873Y-70290281D01*
X84846780Y-70351471D01*
X84751471Y-70446780D01*
X84690281Y-70566873D01*
X84690280Y-70566873D01*
X84669196Y-70700000D01*
X83500000Y-70700000D01*
X83500000Y-69100000D01*
X84969196Y-69100000D01*
X84990280Y-69233126D01*
X85051471Y-69353219D01*
X85051472Y-69353220D01*
X85146780Y-69448528D01*
X85266873Y-69509718D01*
X85266873Y-69509719D01*
X85285075Y-69512601D01*
X85400000Y-69530804D01*
X85533126Y-69509719D01*
X85653220Y-69448528D01*
X85748528Y-69353220D01*
X85809719Y-69233126D01*
X85814966Y-69200000D01*
X92269196Y-69200000D01*
X92290280Y-69333126D01*
X92349081Y-69448528D01*
X92351472Y-69453220D01*
X92446780Y-69548528D01*
X92566873Y-69609718D01*
X92566873Y-69609719D01*
X92585075Y-69612601D01*
X92700000Y-69630804D01*
X92833126Y-69609719D01*
X92953220Y-69548528D01*
X93048528Y-69453220D01*
X93109719Y-69333126D01*
X93122885Y-69250000D01*
X98069196Y-69250000D01*
X98090280Y-69383126D01*
X98149831Y-69500000D01*
X98151472Y-69503220D01*
X98246780Y-69598528D01*
X98366873Y-69659718D01*
X98366873Y-69659719D01*
X98385075Y-69662601D01*
X98500000Y-69680804D01*
X98633126Y-69659719D01*
X98753220Y-69598528D01*
X98848528Y-69503220D01*
X98850169Y-69500000D01*
X101000000Y-69500000D01*
X101000000Y-72500000D01*
X101002139Y-72565545D01*
X101025631Y-72653220D01*
X101036068Y-72692169D01*
X101036069Y-72692171D01*
X101069457Y-72750000D01*
X101101612Y-72805694D01*
X101194306Y-72898388D01*
X101307833Y-72963933D01*
X101434455Y-72997861D01*
X101500000Y-73000000D01*
X104499988Y-73000000D01*
X104500000Y-73000000D01*
X104565545Y-72997861D01*
X104692167Y-72963933D01*
X104805694Y-72898388D01*
X104898388Y-72805694D01*
X104963933Y-72692167D01*
X104997861Y-72565545D01*
X105000000Y-72500000D01*
X108569196Y-72500000D01*
X108590280Y-72633126D01*
X108640050Y-72730804D01*
X108651472Y-72753220D01*
X108746780Y-72848528D01*
X108866873Y-72909718D01*
X108866873Y-72909719D01*
X108885075Y-72912601D01*
X109000000Y-72930804D01*
X109133126Y-72909719D01*
X109253220Y-72848528D01*
X109348528Y-72753220D01*
X109409719Y-72633126D01*
X109430804Y-72500000D01*
X109409719Y-72366874D01*
X109409719Y-72366873D01*
X109348528Y-72246780D01*
X109253219Y-72151471D01*
X109133126Y-72090281D01*
X109133126Y-72090280D01*
X109000000Y-72069196D01*
X108866873Y-72090280D01*
X108866873Y-72090281D01*
X108746780Y-72151471D01*
X108651471Y-72246780D01*
X108590281Y-72366873D01*
X108590280Y-72366873D01*
X108569196Y-72500000D01*
X105000000Y-72500000D01*
X105000000Y-71000000D01*
X108569196Y-71000000D01*
X108590280Y-71133126D01*
X108649662Y-71249668D01*
X108651472Y-71253220D01*
X108746780Y-71348528D01*
X108866873Y-71409718D01*
X108866873Y-71409719D01*
X108885075Y-71412601D01*
X109000000Y-71430804D01*
X109133126Y-71409719D01*
X109253220Y-71348528D01*
X109348528Y-71253220D01*
X109409719Y-71133126D01*
X109430804Y-71000000D01*
X111319196Y-71000000D01*
X111340280Y-71133126D01*
X111399662Y-71249668D01*
X111401472Y-71253220D01*
X111496780Y-71348528D01*
X111616873Y-71409718D01*
X111616873Y-71409719D01*
X111635075Y-71412601D01*
X111750000Y-71430804D01*
X111883126Y-71409719D01*
X112003220Y-71348528D01*
X112098528Y-71253220D01*
X112159719Y-71133126D01*
X112180804Y-71000000D01*
X112159719Y-70866874D01*
X112159719Y-70866873D01*
X112098528Y-70746780D01*
X112003219Y-70651471D01*
X111883126Y-70590281D01*
X111883126Y-70590280D01*
X111750000Y-70569196D01*
X111616873Y-70590280D01*
X111616873Y-70590281D01*
X111496780Y-70651471D01*
X111401471Y-70746780D01*
X111340281Y-70866873D01*
X111340280Y-70866873D01*
X111319196Y-71000000D01*
X109430804Y-71000000D01*
X109409719Y-70866874D01*
X109409719Y-70866873D01*
X109348528Y-70746780D01*
X109253219Y-70651471D01*
X109133126Y-70590281D01*
X109133126Y-70590280D01*
X109000000Y-70569196D01*
X108866873Y-70590280D01*
X108866873Y-70590281D01*
X108746780Y-70651471D01*
X108651471Y-70746780D01*
X108590281Y-70866873D01*
X108590280Y-70866873D01*
X108569196Y-71000000D01*
X105000000Y-71000000D01*
X105000000Y-69500000D01*
X108569196Y-69500000D01*
X108590280Y-69633126D01*
X108628495Y-69708126D01*
X108651472Y-69753220D01*
X108746780Y-69848528D01*
X108866873Y-69909718D01*
X108866873Y-69909719D01*
X108885075Y-69912601D01*
X109000000Y-69930804D01*
X109133126Y-69909719D01*
X109253220Y-69848528D01*
X109348528Y-69753220D01*
X109409719Y-69633126D01*
X109430804Y-69500000D01*
X109409719Y-69366874D01*
X109409719Y-69366873D01*
X109348528Y-69246780D01*
X109253219Y-69151471D01*
X109133126Y-69090281D01*
X109133126Y-69090280D01*
X109000000Y-69069196D01*
X108866873Y-69090280D01*
X108866873Y-69090281D01*
X108746780Y-69151471D01*
X108651471Y-69246780D01*
X108590281Y-69366873D01*
X108590280Y-69366873D01*
X108569196Y-69500000D01*
X105000000Y-69500000D01*
X104997861Y-69434455D01*
X104963933Y-69307833D01*
X104898388Y-69194306D01*
X104805694Y-69101612D01*
X104786068Y-69090281D01*
X104692171Y-69036069D01*
X104692169Y-69036068D01*
X104692168Y-69036067D01*
X104692167Y-69036067D01*
X104565545Y-69002139D01*
X104500000Y-69000000D01*
X104499988Y-69000000D01*
X101500012Y-69000000D01*
X101500000Y-69000000D01*
X101434455Y-69002139D01*
X101307833Y-69036067D01*
X101307832Y-69036067D01*
X101307830Y-69036068D01*
X101307828Y-69036069D01*
X101194305Y-69101612D01*
X101101612Y-69194305D01*
X101036069Y-69307828D01*
X101036068Y-69307830D01*
X101036067Y-69307832D01*
X101036067Y-69307833D01*
X101002139Y-69434455D01*
X101000000Y-69500000D01*
X98850169Y-69500000D01*
X98909719Y-69383126D01*
X98930804Y-69250000D01*
X98909719Y-69116874D01*
X98909719Y-69116873D01*
X98848528Y-68996780D01*
X98776748Y-68925000D01*
X113570196Y-68925000D01*
X113591280Y-69058126D01*
X113652471Y-69178219D01*
X113671926Y-69197674D01*
X113693600Y-69250000D01*
X113671926Y-69302326D01*
X113652472Y-69321779D01*
X113652471Y-69321780D01*
X113591281Y-69441873D01*
X113591280Y-69441873D01*
X113570196Y-69575000D01*
X113591280Y-69708126D01*
X113652471Y-69828219D01*
X113652472Y-69828220D01*
X113747780Y-69923528D01*
X113867873Y-69984718D01*
X113867873Y-69984719D01*
X113886075Y-69987601D01*
X114001000Y-70005804D01*
X114134126Y-69984719D01*
X114254220Y-69923528D01*
X114349528Y-69828220D01*
X114410719Y-69708126D01*
X114431804Y-69575000D01*
X114410719Y-69441874D01*
X114410719Y-69441873D01*
X114349528Y-69321780D01*
X114330074Y-69302326D01*
X114308400Y-69250000D01*
X114330074Y-69197674D01*
X114333443Y-69194305D01*
X114349528Y-69178220D01*
X114410719Y-69058126D01*
X114431804Y-68925000D01*
X114410719Y-68791874D01*
X114410719Y-68791873D01*
X114349528Y-68671780D01*
X114254219Y-68576471D01*
X114134126Y-68515281D01*
X114134126Y-68515280D01*
X114001000Y-68494196D01*
X113867873Y-68515280D01*
X113867873Y-68515281D01*
X113747780Y-68576471D01*
X113652471Y-68671780D01*
X113591281Y-68791873D01*
X113591280Y-68791873D01*
X113570196Y-68925000D01*
X98776748Y-68925000D01*
X98753219Y-68901471D01*
X98633126Y-68840281D01*
X98633126Y-68840280D01*
X98500000Y-68819196D01*
X98366873Y-68840280D01*
X98366873Y-68840281D01*
X98246780Y-68901471D01*
X98151471Y-68996780D01*
X98090281Y-69116873D01*
X98090280Y-69116873D01*
X98069196Y-69250000D01*
X93122885Y-69250000D01*
X93130804Y-69200000D01*
X93109719Y-69066874D01*
X93109719Y-69066873D01*
X93048528Y-68946780D01*
X92953219Y-68851471D01*
X92833126Y-68790281D01*
X92833126Y-68790280D01*
X92700000Y-68769196D01*
X92566873Y-68790280D01*
X92566873Y-68790281D01*
X92446780Y-68851471D01*
X92351471Y-68946780D01*
X92290281Y-69066873D01*
X92290280Y-69066873D01*
X92269196Y-69200000D01*
X85814966Y-69200000D01*
X85830804Y-69100000D01*
X85809719Y-68966874D01*
X85809719Y-68966873D01*
X85748528Y-68846780D01*
X85653219Y-68751471D01*
X85533126Y-68690281D01*
X85533126Y-68690280D01*
X85400000Y-68669196D01*
X85266873Y-68690280D01*
X85266873Y-68690281D01*
X85146780Y-68751471D01*
X85051471Y-68846780D01*
X84990281Y-68966873D01*
X84990280Y-68966873D01*
X84969196Y-69100000D01*
X83500000Y-69100000D01*
X83500000Y-68000000D01*
X93569196Y-68000000D01*
X93590280Y-68133126D01*
X93640050Y-68230804D01*
X93651472Y-68253220D01*
X93746780Y-68348528D01*
X93866873Y-68409718D01*
X93866873Y-68409719D01*
X93885075Y-68412601D01*
X94000000Y-68430804D01*
X94133126Y-68409719D01*
X94253220Y-68348528D01*
X94348528Y-68253220D01*
X94409719Y-68133126D01*
X94430804Y-68000000D01*
X98069196Y-68000000D01*
X98090280Y-68133126D01*
X98140050Y-68230804D01*
X98151472Y-68253220D01*
X98246780Y-68348528D01*
X98366873Y-68409718D01*
X98366873Y-68409719D01*
X98385075Y-68412601D01*
X98500000Y-68430804D01*
X98633126Y-68409719D01*
X98753220Y-68348528D01*
X98848528Y-68253220D01*
X98909719Y-68133126D01*
X98922885Y-68050000D01*
X99569196Y-68050000D01*
X99590280Y-68183126D01*
X99651471Y-68303219D01*
X99651472Y-68303220D01*
X99746780Y-68398528D01*
X99866873Y-68459718D01*
X99866873Y-68459719D01*
X99885075Y-68462601D01*
X100000000Y-68480804D01*
X100133126Y-68459719D01*
X100253220Y-68398528D01*
X100348528Y-68303220D01*
X100409719Y-68183126D01*
X100430804Y-68050000D01*
X100422885Y-68000000D01*
X105619196Y-68000000D01*
X105640280Y-68133126D01*
X105690050Y-68230804D01*
X105701472Y-68253220D01*
X105796780Y-68348528D01*
X105916873Y-68409718D01*
X105916873Y-68409719D01*
X105935075Y-68412601D01*
X106050000Y-68430804D01*
X106183126Y-68409719D01*
X106303220Y-68348528D01*
X106398528Y-68253220D01*
X106459719Y-68133126D01*
X106480804Y-68000000D01*
X106459719Y-67866874D01*
X106459719Y-67866873D01*
X106425645Y-67800000D01*
X110469196Y-67800000D01*
X110490280Y-67933126D01*
X110551471Y-68053219D01*
X110551472Y-68053220D01*
X110646780Y-68148528D01*
X110766873Y-68209718D01*
X110766873Y-68209719D01*
X110785075Y-68212601D01*
X110900000Y-68230804D01*
X111033126Y-68209719D01*
X111153220Y-68148528D01*
X111197674Y-68104074D01*
X111250000Y-68082400D01*
X111302326Y-68104074D01*
X111346780Y-68148528D01*
X111466873Y-68209718D01*
X111466873Y-68209719D01*
X111485075Y-68212601D01*
X111600000Y-68230804D01*
X111733126Y-68209719D01*
X111853220Y-68148528D01*
X111948528Y-68053220D01*
X112009719Y-67933126D01*
X112030804Y-67800000D01*
X112009719Y-67666874D01*
X112009719Y-67666873D01*
X111948528Y-67546780D01*
X111853219Y-67451471D01*
X111733126Y-67390281D01*
X111733126Y-67390280D01*
X111600000Y-67369196D01*
X111466873Y-67390280D01*
X111466873Y-67390281D01*
X111346780Y-67451471D01*
X111346779Y-67451472D01*
X111302326Y-67495926D01*
X111250000Y-67517600D01*
X111197674Y-67495926D01*
X111153219Y-67451471D01*
X111033126Y-67390281D01*
X111033126Y-67390280D01*
X110900000Y-67369196D01*
X110766873Y-67390280D01*
X110766873Y-67390281D01*
X110646780Y-67451471D01*
X110551471Y-67546780D01*
X110490281Y-67666873D01*
X110490280Y-67666873D01*
X110469196Y-67800000D01*
X106425645Y-67800000D01*
X106398528Y-67746780D01*
X106303219Y-67651471D01*
X106183126Y-67590281D01*
X106183126Y-67590280D01*
X106050000Y-67569196D01*
X105916873Y-67590280D01*
X105916873Y-67590281D01*
X105796780Y-67651471D01*
X105701471Y-67746780D01*
X105640281Y-67866873D01*
X105640280Y-67866873D01*
X105619196Y-68000000D01*
X100422885Y-68000000D01*
X100409719Y-67916874D01*
X100409719Y-67916873D01*
X100348528Y-67796780D01*
X100253219Y-67701471D01*
X100133126Y-67640281D01*
X100133126Y-67640280D01*
X100000000Y-67619196D01*
X99866873Y-67640280D01*
X99866873Y-67640281D01*
X99746780Y-67701471D01*
X99651471Y-67796780D01*
X99590281Y-67916873D01*
X99590280Y-67916873D01*
X99569196Y-68050000D01*
X98922885Y-68050000D01*
X98930804Y-68000000D01*
X98909719Y-67866874D01*
X98909719Y-67866873D01*
X98848528Y-67746780D01*
X98753219Y-67651471D01*
X98633126Y-67590281D01*
X98633126Y-67590280D01*
X98500000Y-67569196D01*
X98366873Y-67590280D01*
X98366873Y-67590281D01*
X98246780Y-67651471D01*
X98151471Y-67746780D01*
X98090281Y-67866873D01*
X98090280Y-67866873D01*
X98069196Y-68000000D01*
X94430804Y-68000000D01*
X94409719Y-67866874D01*
X94409719Y-67866873D01*
X94348528Y-67746780D01*
X94253219Y-67651471D01*
X94133126Y-67590281D01*
X94133126Y-67590280D01*
X94000000Y-67569196D01*
X93866873Y-67590280D01*
X93866873Y-67590281D01*
X93746780Y-67651471D01*
X93651471Y-67746780D01*
X93590281Y-67866873D01*
X93590280Y-67866873D01*
X93569196Y-68000000D01*
X83500000Y-68000000D01*
X83500000Y-67350000D01*
X101069196Y-67350000D01*
X101090280Y-67483126D01*
X101144879Y-67590281D01*
X101151472Y-67603220D01*
X101246780Y-67698528D01*
X101366873Y-67759718D01*
X101366873Y-67759719D01*
X101385075Y-67762601D01*
X101500000Y-67780804D01*
X101633126Y-67759719D01*
X101753220Y-67698528D01*
X101848528Y-67603220D01*
X101909719Y-67483126D01*
X101930804Y-67350000D01*
X101909719Y-67216874D01*
X101909719Y-67216873D01*
X101848528Y-67096780D01*
X101753219Y-67001471D01*
X101633126Y-66940281D01*
X101633126Y-66940280D01*
X101500000Y-66919196D01*
X101366873Y-66940280D01*
X101366873Y-66940281D01*
X101246780Y-67001471D01*
X101151471Y-67096780D01*
X101090281Y-67216873D01*
X101090280Y-67216873D01*
X101069196Y-67350000D01*
X83500000Y-67350000D01*
X83500000Y-66550000D01*
X93519196Y-66550000D01*
X93540280Y-66683126D01*
X93601471Y-66803219D01*
X93601472Y-66803220D01*
X93696780Y-66898528D01*
X93816873Y-66959718D01*
X93816873Y-66959719D01*
X93835075Y-66962601D01*
X93950000Y-66980804D01*
X94083126Y-66959719D01*
X94203220Y-66898528D01*
X94298528Y-66803220D01*
X94359719Y-66683126D01*
X94380804Y-66550000D01*
X94359719Y-66416874D01*
X94359719Y-66416873D01*
X94298528Y-66296780D01*
X94203219Y-66201471D01*
X94083126Y-66140281D01*
X94083126Y-66140280D01*
X93950000Y-66119196D01*
X93816873Y-66140280D01*
X93816873Y-66140281D01*
X93696780Y-66201471D01*
X93601471Y-66296780D01*
X93540281Y-66416873D01*
X93540280Y-66416873D01*
X93519196Y-66550000D01*
X83500000Y-66550000D01*
X83500000Y-65750000D01*
X92119196Y-65750000D01*
X92140280Y-65883126D01*
X92201471Y-66003219D01*
X92201472Y-66003220D01*
X92296780Y-66098528D01*
X92416873Y-66159718D01*
X92416873Y-66159719D01*
X92435075Y-66162601D01*
X92550000Y-66180804D01*
X92683126Y-66159719D01*
X92803220Y-66098528D01*
X92898528Y-66003220D01*
X92959719Y-65883126D01*
X92980804Y-65750000D01*
X92959719Y-65616874D01*
X92959719Y-65616873D01*
X92898528Y-65496780D01*
X92803219Y-65401471D01*
X92683126Y-65340281D01*
X92683126Y-65340280D01*
X92550000Y-65319196D01*
X92416873Y-65340280D01*
X92416873Y-65340281D01*
X92296780Y-65401471D01*
X92201471Y-65496780D01*
X92140281Y-65616873D01*
X92140280Y-65616873D01*
X92119196Y-65750000D01*
X83500000Y-65750000D01*
X83500000Y-64750000D01*
X96269196Y-64750000D01*
X96290280Y-64883126D01*
X96351471Y-65003219D01*
X96351472Y-65003220D01*
X96446780Y-65098528D01*
X96566873Y-65159718D01*
X96566873Y-65159719D01*
X96585075Y-65162601D01*
X96700000Y-65180804D01*
X96833126Y-65159719D01*
X96953220Y-65098528D01*
X97048528Y-65003220D01*
X97109719Y-64883126D01*
X97130804Y-64750000D01*
X97109719Y-64616874D01*
X97109719Y-64616873D01*
X97048528Y-64496780D01*
X96953219Y-64401471D01*
X96833126Y-64340281D01*
X96833126Y-64340280D01*
X96700000Y-64319196D01*
X96566873Y-64340280D01*
X96566873Y-64340281D01*
X96446780Y-64401471D01*
X96351471Y-64496780D01*
X96290281Y-64616873D01*
X96290280Y-64616873D01*
X96269196Y-64750000D01*
X83500000Y-64750000D01*
X83500000Y-64145000D01*
X85744196Y-64145000D01*
X85765280Y-64278126D01*
X85826471Y-64398219D01*
X85826472Y-64398220D01*
X85921780Y-64493528D01*
X86041873Y-64554718D01*
X86041873Y-64554719D01*
X86060075Y-64557601D01*
X86175000Y-64575804D01*
X86308126Y-64554719D01*
X86428220Y-64493528D01*
X86523528Y-64398220D01*
X86584719Y-64278126D01*
X86605804Y-64145000D01*
X86584719Y-64011874D01*
X86584719Y-64011873D01*
X86523528Y-63891780D01*
X86428219Y-63796471D01*
X86308126Y-63735281D01*
X86308126Y-63735280D01*
X86175000Y-63714196D01*
X86041873Y-63735280D01*
X86041873Y-63735281D01*
X85921780Y-63796471D01*
X85826471Y-63891780D01*
X85765281Y-64011873D01*
X85765280Y-64011873D01*
X85744196Y-64145000D01*
X83500000Y-64145000D01*
X83500000Y-63450000D01*
X102569196Y-63450000D01*
X102590280Y-63583126D01*
X102651471Y-63703219D01*
X102651472Y-63703220D01*
X102746780Y-63798528D01*
X102866873Y-63859718D01*
X102866873Y-63859719D01*
X102885075Y-63862601D01*
X103000000Y-63880804D01*
X103133126Y-63859719D01*
X103253220Y-63798528D01*
X103348528Y-63703220D01*
X103409719Y-63583126D01*
X103422885Y-63500000D01*
X104069196Y-63500000D01*
X104090280Y-63633126D01*
X104151471Y-63753219D01*
X104151472Y-63753220D01*
X104246780Y-63848528D01*
X104366873Y-63909718D01*
X104366873Y-63909719D01*
X104385075Y-63912601D01*
X104500000Y-63930804D01*
X104633126Y-63909719D01*
X104753220Y-63848528D01*
X104848528Y-63753220D01*
X104909719Y-63633126D01*
X104930804Y-63500000D01*
X105569196Y-63500000D01*
X105590280Y-63633126D01*
X105651471Y-63753219D01*
X105651472Y-63753220D01*
X105746780Y-63848528D01*
X105866873Y-63909718D01*
X105866873Y-63909719D01*
X105885075Y-63912601D01*
X106000000Y-63930804D01*
X106133126Y-63909719D01*
X106253220Y-63848528D01*
X106301748Y-63800000D01*
X107069196Y-63800000D01*
X107090280Y-63933126D01*
X107151471Y-64053219D01*
X107246780Y-64148528D01*
X107316527Y-64184066D01*
X107353310Y-64227133D01*
X107348866Y-64283595D01*
X107316527Y-64315934D01*
X107246780Y-64351471D01*
X107151471Y-64446780D01*
X107090281Y-64566873D01*
X107090280Y-64566873D01*
X107069196Y-64700000D01*
X107090280Y-64833126D01*
X107115757Y-64883126D01*
X107151472Y-64953220D01*
X107246780Y-65048528D01*
X107366873Y-65109718D01*
X107366873Y-65109719D01*
X107385075Y-65112601D01*
X107500000Y-65130804D01*
X107633126Y-65109719D01*
X107753220Y-65048528D01*
X107848528Y-64953220D01*
X107909719Y-64833126D01*
X107930804Y-64700000D01*
X107909719Y-64566874D01*
X107909719Y-64566873D01*
X107848528Y-64446780D01*
X107753222Y-64351474D01*
X107753220Y-64351472D01*
X107683469Y-64315932D01*
X107646689Y-64272867D01*
X107651132Y-64216405D01*
X107683469Y-64184067D01*
X107753220Y-64148528D01*
X107848528Y-64053220D01*
X107909719Y-63933126D01*
X107930804Y-63800000D01*
X108569196Y-63800000D01*
X108590280Y-63933126D01*
X108651471Y-64053219D01*
X108746780Y-64148528D01*
X108816527Y-64184066D01*
X108853310Y-64227133D01*
X108848866Y-64283595D01*
X108816527Y-64315934D01*
X108746780Y-64351471D01*
X108651471Y-64446780D01*
X108590281Y-64566873D01*
X108590280Y-64566873D01*
X108569196Y-64700000D01*
X108590280Y-64833126D01*
X108615757Y-64883126D01*
X108651472Y-64953220D01*
X108746780Y-65048528D01*
X108866873Y-65109718D01*
X108866873Y-65109719D01*
X108885075Y-65112601D01*
X109000000Y-65130804D01*
X109133126Y-65109719D01*
X109253220Y-65048528D01*
X109348528Y-64953220D01*
X109409719Y-64833126D01*
X109430804Y-64700000D01*
X109409719Y-64566874D01*
X109409719Y-64566873D01*
X109348528Y-64446780D01*
X109253222Y-64351474D01*
X109253220Y-64351472D01*
X109183469Y-64315932D01*
X109146689Y-64272867D01*
X109151132Y-64216405D01*
X109183469Y-64184067D01*
X109253220Y-64148528D01*
X109348528Y-64053220D01*
X109409719Y-63933126D01*
X109430804Y-63800000D01*
X109409719Y-63666874D01*
X109409719Y-63666873D01*
X109348528Y-63546780D01*
X109253219Y-63451471D01*
X109133126Y-63390281D01*
X109133126Y-63390280D01*
X109000000Y-63369196D01*
X108866873Y-63390280D01*
X108866873Y-63390281D01*
X108746780Y-63451471D01*
X108651471Y-63546780D01*
X108590281Y-63666873D01*
X108590280Y-63666873D01*
X108569196Y-63800000D01*
X107930804Y-63800000D01*
X107909719Y-63666874D01*
X107909719Y-63666873D01*
X107848528Y-63546780D01*
X107753219Y-63451471D01*
X107633126Y-63390281D01*
X107633126Y-63390280D01*
X107500000Y-63369196D01*
X107366873Y-63390280D01*
X107366873Y-63390281D01*
X107246780Y-63451471D01*
X107151471Y-63546780D01*
X107090281Y-63666873D01*
X107090280Y-63666873D01*
X107069196Y-63800000D01*
X106301748Y-63800000D01*
X106348528Y-63753220D01*
X106409719Y-63633126D01*
X106430804Y-63500000D01*
X106409719Y-63366874D01*
X106409719Y-63366873D01*
X106348528Y-63246780D01*
X106253219Y-63151471D01*
X106133126Y-63090281D01*
X106133126Y-63090280D01*
X106000000Y-63069196D01*
X105866873Y-63090280D01*
X105866873Y-63090281D01*
X105746780Y-63151471D01*
X105651471Y-63246780D01*
X105590281Y-63366873D01*
X105590280Y-63366873D01*
X105569196Y-63500000D01*
X104930804Y-63500000D01*
X104909719Y-63366874D01*
X104909719Y-63366873D01*
X104848528Y-63246780D01*
X104753219Y-63151471D01*
X104633126Y-63090281D01*
X104633126Y-63090280D01*
X104500000Y-63069196D01*
X104366873Y-63090280D01*
X104366873Y-63090281D01*
X104246780Y-63151471D01*
X104151471Y-63246780D01*
X104090281Y-63366873D01*
X104090280Y-63366873D01*
X104069196Y-63500000D01*
X103422885Y-63500000D01*
X103430804Y-63450000D01*
X103409719Y-63316874D01*
X103409719Y-63316873D01*
X103348528Y-63196780D01*
X103253219Y-63101471D01*
X103133126Y-63040281D01*
X103133126Y-63040280D01*
X103000000Y-63019196D01*
X102866873Y-63040280D01*
X102866873Y-63040281D01*
X102746780Y-63101471D01*
X102651471Y-63196780D01*
X102590281Y-63316873D01*
X102590280Y-63316873D01*
X102569196Y-63450000D01*
X83500000Y-63450000D01*
X83500000Y-62600000D01*
X97294196Y-62600000D01*
X97315280Y-62733126D01*
X97376471Y-62853219D01*
X97376472Y-62853220D01*
X97471780Y-62948528D01*
X97591873Y-63009718D01*
X97591873Y-63009719D01*
X97610075Y-63012601D01*
X97725000Y-63030804D01*
X97858126Y-63009719D01*
X97978220Y-62948528D01*
X98073528Y-62853220D01*
X98129943Y-62742500D01*
X98819196Y-62742500D01*
X98840280Y-62875626D01*
X98877426Y-62948528D01*
X98901472Y-62995720D01*
X98996780Y-63091028D01*
X99116873Y-63152218D01*
X99116873Y-63152219D01*
X99135075Y-63155101D01*
X99250000Y-63173304D01*
X99383126Y-63152219D01*
X99503220Y-63091028D01*
X99598528Y-62995720D01*
X99659719Y-62875626D01*
X99680804Y-62742500D01*
X99659719Y-62609374D01*
X99659719Y-62609373D01*
X99598528Y-62489280D01*
X99503219Y-62393971D01*
X99383126Y-62332781D01*
X99383126Y-62332780D01*
X99250000Y-62311696D01*
X99116873Y-62332780D01*
X99116873Y-62332781D01*
X98996780Y-62393971D01*
X98901471Y-62489280D01*
X98840281Y-62609373D01*
X98840280Y-62609373D01*
X98819196Y-62742500D01*
X98129943Y-62742500D01*
X98134719Y-62733126D01*
X98155804Y-62600000D01*
X98134719Y-62466874D01*
X98134719Y-62466873D01*
X98073528Y-62346780D01*
X97978219Y-62251471D01*
X97858126Y-62190281D01*
X97858126Y-62190280D01*
X97725000Y-62169196D01*
X97591873Y-62190280D01*
X97591873Y-62190281D01*
X97471780Y-62251471D01*
X97376471Y-62346780D01*
X97315281Y-62466873D01*
X97315280Y-62466873D01*
X97294196Y-62600000D01*
X83500000Y-62600000D01*
X83500000Y-61700000D01*
X95969196Y-61700000D01*
X95990280Y-61833126D01*
X96051471Y-61953219D01*
X96051472Y-61953220D01*
X96146780Y-62048528D01*
X96266873Y-62109718D01*
X96266873Y-62109719D01*
X96285075Y-62112601D01*
X96400000Y-62130804D01*
X96533126Y-62109719D01*
X96653220Y-62048528D01*
X96748528Y-61953220D01*
X96809719Y-61833126D01*
X96830804Y-61700000D01*
X96809719Y-61566874D01*
X96809719Y-61566873D01*
X96748528Y-61446780D01*
X96653219Y-61351471D01*
X96533126Y-61290281D01*
X96533126Y-61290280D01*
X96400000Y-61269196D01*
X96266873Y-61290280D01*
X96266873Y-61290281D01*
X96146780Y-61351471D01*
X96051471Y-61446780D01*
X95990281Y-61566873D01*
X95990280Y-61566873D01*
X95969196Y-61700000D01*
X83500000Y-61700000D01*
X83500000Y-61200000D01*
X85769196Y-61200000D01*
X85790280Y-61333126D01*
X85851471Y-61453219D01*
X85851472Y-61453220D01*
X85946780Y-61548528D01*
X86066873Y-61609718D01*
X86066873Y-61609719D01*
X86085075Y-61612601D01*
X86200000Y-61630804D01*
X86333126Y-61609719D01*
X86453220Y-61548528D01*
X86548528Y-61453220D01*
X86609719Y-61333126D01*
X86630804Y-61200000D01*
X86609719Y-61066874D01*
X86609719Y-61066873D01*
X86548528Y-60946780D01*
X86453219Y-60851471D01*
X86352201Y-60800000D01*
X100169196Y-60800000D01*
X100190280Y-60933126D01*
X100251471Y-61053219D01*
X100251472Y-61053220D01*
X100346780Y-61148528D01*
X100466873Y-61209718D01*
X100466873Y-61209719D01*
X100485075Y-61212601D01*
X100600000Y-61230804D01*
X100733126Y-61209719D01*
X100853220Y-61148528D01*
X100948528Y-61053220D01*
X101009719Y-60933126D01*
X101030804Y-60800000D01*
X101009719Y-60666874D01*
X101009719Y-60666873D01*
X100948528Y-60546780D01*
X100853219Y-60451471D01*
X100733126Y-60390281D01*
X100733126Y-60390280D01*
X100600000Y-60369196D01*
X100466873Y-60390280D01*
X100466873Y-60390281D01*
X100346780Y-60451471D01*
X100251471Y-60546780D01*
X100190281Y-60666873D01*
X100190280Y-60666873D01*
X100169196Y-60800000D01*
X86352201Y-60800000D01*
X86333126Y-60790281D01*
X86333126Y-60790280D01*
X86200000Y-60769196D01*
X86066873Y-60790280D01*
X86066873Y-60790281D01*
X85946780Y-60851471D01*
X85851471Y-60946780D01*
X85790281Y-61066873D01*
X85790280Y-61066873D01*
X85769196Y-61200000D01*
X83500000Y-61200000D01*
X83500000Y-58800000D01*
X115489196Y-58800000D01*
X115510280Y-58933126D01*
X115571471Y-59053219D01*
X115571472Y-59053220D01*
X115666780Y-59148528D01*
X115786873Y-59209718D01*
X115786873Y-59209719D01*
X115805075Y-59212601D01*
X115920000Y-59230804D01*
X116053126Y-59209719D01*
X116173220Y-59148528D01*
X116268528Y-59053220D01*
X116329719Y-58933126D01*
X116350804Y-58800000D01*
X116329719Y-58666874D01*
X116329719Y-58666873D01*
X116268528Y-58546780D01*
X116173219Y-58451471D01*
X116053126Y-58390281D01*
X116053126Y-58390280D01*
X115920000Y-58369196D01*
X115786873Y-58390280D01*
X115786873Y-58390281D01*
X115666780Y-58451471D01*
X115571471Y-58546780D01*
X115510281Y-58666873D01*
X115510280Y-58666873D01*
X115489196Y-58800000D01*
X83500000Y-58800000D01*
X83500000Y-58100000D01*
X85769196Y-58100000D01*
X85790280Y-58233126D01*
X85840050Y-58330804D01*
X85851472Y-58353220D01*
X85946780Y-58448528D01*
X86066873Y-58509718D01*
X86066873Y-58509719D01*
X86085075Y-58512601D01*
X86200000Y-58530804D01*
X86333126Y-58509719D01*
X86453220Y-58448528D01*
X86548528Y-58353220D01*
X86609719Y-58233126D01*
X86630804Y-58100000D01*
X86609719Y-57966874D01*
X86609719Y-57966873D01*
X86575645Y-57900000D01*
X113349196Y-57900000D01*
X113370280Y-58033126D01*
X113431471Y-58153219D01*
X113431472Y-58153220D01*
X113526780Y-58248528D01*
X113646873Y-58309718D01*
X113646873Y-58309719D01*
X113665075Y-58312601D01*
X113780000Y-58330804D01*
X113913126Y-58309719D01*
X113932201Y-58300000D01*
X114419195Y-58300000D01*
X114440279Y-58433126D01*
X114501470Y-58553219D01*
X114501471Y-58553220D01*
X114596779Y-58648528D01*
X114716872Y-58709718D01*
X114716872Y-58709719D01*
X114735074Y-58712601D01*
X114849999Y-58730804D01*
X114983125Y-58709719D01*
X115103219Y-58648528D01*
X115198527Y-58553220D01*
X115259718Y-58433126D01*
X115280803Y-58300000D01*
X115259718Y-58166874D01*
X115259718Y-58166873D01*
X115198527Y-58046780D01*
X115103218Y-57951471D01*
X114983125Y-57890281D01*
X114983125Y-57890280D01*
X114849999Y-57869196D01*
X114716872Y-57890280D01*
X114716872Y-57890281D01*
X114596779Y-57951471D01*
X114501470Y-58046780D01*
X114440280Y-58166873D01*
X114440279Y-58166873D01*
X114419195Y-58300000D01*
X113932201Y-58300000D01*
X114033220Y-58248528D01*
X114128528Y-58153220D01*
X114189719Y-58033126D01*
X114210804Y-57900000D01*
X114189719Y-57766874D01*
X114189719Y-57766873D01*
X114128528Y-57646780D01*
X114033219Y-57551471D01*
X113913126Y-57490281D01*
X113913126Y-57490280D01*
X113780000Y-57469196D01*
X113646873Y-57490280D01*
X113646873Y-57490281D01*
X113526780Y-57551471D01*
X113431471Y-57646780D01*
X113370281Y-57766873D01*
X113370280Y-57766873D01*
X113349196Y-57900000D01*
X86575645Y-57900000D01*
X86548528Y-57846780D01*
X86453219Y-57751471D01*
X86333126Y-57690281D01*
X86333126Y-57690280D01*
X86200000Y-57669196D01*
X86066873Y-57690280D01*
X86066873Y-57690281D01*
X85946780Y-57751471D01*
X85851471Y-57846780D01*
X85790281Y-57966873D01*
X85790280Y-57966873D01*
X85769196Y-58100000D01*
X83500000Y-58100000D01*
X83500000Y-56900000D01*
X104649196Y-56900000D01*
X104670280Y-57033126D01*
X104729081Y-57148528D01*
X104731472Y-57153220D01*
X104826780Y-57248528D01*
X104946873Y-57309718D01*
X104946873Y-57309719D01*
X104965075Y-57312601D01*
X105080000Y-57330804D01*
X105213126Y-57309719D01*
X105333220Y-57248528D01*
X105428528Y-57153220D01*
X105489719Y-57033126D01*
X105510804Y-56900000D01*
X111449196Y-56900000D01*
X111470280Y-57033126D01*
X111529081Y-57148528D01*
X111531472Y-57153220D01*
X111626780Y-57248528D01*
X111746873Y-57309718D01*
X111746873Y-57309719D01*
X111765075Y-57312601D01*
X111880000Y-57330804D01*
X112013126Y-57309719D01*
X112133220Y-57248528D01*
X112228528Y-57153220D01*
X112289719Y-57033126D01*
X112310804Y-56900000D01*
X112294966Y-56800000D01*
X115919196Y-56800000D01*
X115940280Y-56933126D01*
X116001471Y-57053219D01*
X116001472Y-57053220D01*
X116096780Y-57148528D01*
X116216873Y-57209718D01*
X116216873Y-57209719D01*
X116235075Y-57212601D01*
X116350000Y-57230804D01*
X116483126Y-57209719D01*
X116603220Y-57148528D01*
X116698528Y-57053220D01*
X116759719Y-56933126D01*
X116780804Y-56800000D01*
X116759719Y-56666874D01*
X116759719Y-56666873D01*
X116698528Y-56546780D01*
X116603219Y-56451471D01*
X116483126Y-56390281D01*
X116483126Y-56390280D01*
X116350000Y-56369196D01*
X116216873Y-56390280D01*
X116216873Y-56390281D01*
X116096780Y-56451471D01*
X116001471Y-56546780D01*
X115940281Y-56666873D01*
X115940280Y-56666873D01*
X115919196Y-56800000D01*
X112294966Y-56800000D01*
X112289719Y-56766874D01*
X112289719Y-56766873D01*
X112228528Y-56646780D01*
X112133219Y-56551471D01*
X112013126Y-56490281D01*
X112013126Y-56490280D01*
X111880000Y-56469196D01*
X111746873Y-56490280D01*
X111746873Y-56490281D01*
X111626780Y-56551471D01*
X111531471Y-56646780D01*
X111470281Y-56766873D01*
X111470280Y-56766873D01*
X111449196Y-56900000D01*
X105510804Y-56900000D01*
X105489719Y-56766874D01*
X105489719Y-56766873D01*
X105428528Y-56646780D01*
X105333219Y-56551471D01*
X105213126Y-56490281D01*
X105213126Y-56490280D01*
X105080000Y-56469196D01*
X104946873Y-56490280D01*
X104946873Y-56490281D01*
X104826780Y-56551471D01*
X104731471Y-56646780D01*
X104670281Y-56766873D01*
X104670280Y-56766873D01*
X104649196Y-56900000D01*
X83500000Y-56900000D01*
X83500000Y-54861814D01*
X83521674Y-54809488D01*
X83574000Y-54787814D01*
X83626326Y-54809488D01*
X83643847Y-54837374D01*
X83686197Y-54958405D01*
X83808052Y-55211440D01*
X83808054Y-55211444D01*
X83808055Y-55211445D01*
X83897138Y-55353219D01*
X83957477Y-55449248D01*
X84071217Y-55591874D01*
X84132584Y-55668825D01*
X84331175Y-55867416D01*
X84550752Y-56042523D01*
X84788555Y-56191945D01*
X85041592Y-56313801D01*
X85306682Y-56406560D01*
X85306687Y-56406561D01*
X85306690Y-56406562D01*
X85580486Y-56469054D01*
X85580487Y-56469054D01*
X85580491Y-56469055D01*
X85859575Y-56500500D01*
X85859579Y-56500500D01*
X86140421Y-56500500D01*
X86140425Y-56500500D01*
X86419509Y-56469055D01*
X86693318Y-56406560D01*
X86958408Y-56313801D01*
X87211445Y-56191945D01*
X87449248Y-56042523D01*
X87668825Y-55867416D01*
X87867416Y-55668825D01*
X88042523Y-55449248D01*
X88191945Y-55211445D01*
X88202272Y-55190000D01*
X90550000Y-55190000D01*
X91304521Y-55190000D01*
X91356847Y-55211674D01*
X91378521Y-55264000D01*
X91356847Y-55316326D01*
X91338116Y-55329934D01*
X91246780Y-55376472D01*
X91246779Y-55376472D01*
X91151471Y-55471780D01*
X91090281Y-55591873D01*
X91090280Y-55591873D01*
X91069196Y-55725000D01*
X91090280Y-55858126D01*
X91095014Y-55867416D01*
X91151472Y-55978220D01*
X91246780Y-56073528D01*
X91366873Y-56134718D01*
X91366873Y-56134719D01*
X91385075Y-56137601D01*
X91500000Y-56155804D01*
X91633126Y-56134719D01*
X91753220Y-56073528D01*
X91848528Y-55978220D01*
X91909719Y-55858126D01*
X91930804Y-55725000D01*
X91909719Y-55591874D01*
X91909719Y-55591873D01*
X91848528Y-55471780D01*
X91753220Y-55376472D01*
X91661884Y-55329934D01*
X91625101Y-55286867D01*
X91629545Y-55230405D01*
X91672612Y-55193622D01*
X91695479Y-55190000D01*
X92450000Y-55190000D01*
X95550000Y-55190000D01*
X96304521Y-55190000D01*
X96356847Y-55211674D01*
X96378521Y-55264000D01*
X96356847Y-55316326D01*
X96338116Y-55329934D01*
X96246780Y-55376472D01*
X96246779Y-55376472D01*
X96151471Y-55471780D01*
X96090281Y-55591873D01*
X96090280Y-55591873D01*
X96069196Y-55725000D01*
X96090280Y-55858126D01*
X96095014Y-55867416D01*
X96151472Y-55978220D01*
X96246780Y-56073528D01*
X96366873Y-56134718D01*
X96366873Y-56134719D01*
X96385075Y-56137601D01*
X96500000Y-56155804D01*
X96633126Y-56134719D01*
X96753220Y-56073528D01*
X96848528Y-55978220D01*
X96909719Y-55858126D01*
X96911006Y-55850000D01*
X114419195Y-55850000D01*
X114440279Y-55983126D01*
X114470544Y-56042523D01*
X114501471Y-56103220D01*
X114596779Y-56198528D01*
X114716872Y-56259718D01*
X114716872Y-56259719D01*
X114735074Y-56262601D01*
X114849999Y-56280804D01*
X114983125Y-56259719D01*
X115103219Y-56198528D01*
X115198527Y-56103220D01*
X115259718Y-55983126D01*
X115280803Y-55850000D01*
X115259718Y-55716874D01*
X115259718Y-55716873D01*
X115198527Y-55596780D01*
X115103218Y-55501471D01*
X114983125Y-55440281D01*
X114983125Y-55440280D01*
X114849999Y-55419196D01*
X114716872Y-55440280D01*
X114716872Y-55440281D01*
X114596779Y-55501471D01*
X114501470Y-55596780D01*
X114440280Y-55716873D01*
X114440279Y-55716873D01*
X114419195Y-55850000D01*
X96911006Y-55850000D01*
X96930804Y-55725000D01*
X96909719Y-55591874D01*
X96909719Y-55591873D01*
X96848528Y-55471780D01*
X96753220Y-55376472D01*
X96661884Y-55329934D01*
X96625101Y-55286867D01*
X96629545Y-55230405D01*
X96672612Y-55193622D01*
X96695479Y-55190000D01*
X97450000Y-55190000D01*
X101950000Y-55190000D01*
X103850000Y-55190000D01*
X103850000Y-55100000D01*
X113669196Y-55100000D01*
X113690280Y-55233126D01*
X113751471Y-55353219D01*
X113751472Y-55353220D01*
X113846780Y-55448528D01*
X113966873Y-55509718D01*
X113966873Y-55509719D01*
X113985075Y-55512601D01*
X114100000Y-55530804D01*
X114233126Y-55509719D01*
X114353220Y-55448528D01*
X114448528Y-55353220D01*
X114509719Y-55233126D01*
X114514966Y-55200000D01*
X115919196Y-55200000D01*
X115940280Y-55333126D01*
X115994879Y-55440281D01*
X116001472Y-55453220D01*
X116096780Y-55548528D01*
X116216873Y-55609718D01*
X116216873Y-55609719D01*
X116235075Y-55612601D01*
X116350000Y-55630804D01*
X116483126Y-55609719D01*
X116603220Y-55548528D01*
X116698528Y-55453220D01*
X116759719Y-55333126D01*
X116780804Y-55200000D01*
X116759719Y-55066874D01*
X116759719Y-55066873D01*
X116698528Y-54946780D01*
X116603219Y-54851471D01*
X116483126Y-54790281D01*
X116483126Y-54790280D01*
X116350000Y-54769196D01*
X116216873Y-54790280D01*
X116216873Y-54790281D01*
X116096780Y-54851471D01*
X116001471Y-54946780D01*
X115940281Y-55066873D01*
X115940280Y-55066873D01*
X115919196Y-55200000D01*
X114514966Y-55200000D01*
X114530804Y-55100000D01*
X114509719Y-54966874D01*
X114509719Y-54966873D01*
X114448528Y-54846780D01*
X114353219Y-54751471D01*
X114233126Y-54690281D01*
X114233126Y-54690280D01*
X114100000Y-54669196D01*
X113966873Y-54690280D01*
X113966873Y-54690281D01*
X113846780Y-54751471D01*
X113751471Y-54846780D01*
X113690281Y-54966873D01*
X113690280Y-54966873D01*
X113669196Y-55100000D01*
X103850000Y-55100000D01*
X103850000Y-53500000D01*
X113169196Y-53500000D01*
X113190280Y-53633126D01*
X113251471Y-53753219D01*
X113251472Y-53753220D01*
X113346780Y-53848528D01*
X113466873Y-53909718D01*
X113466873Y-53909719D01*
X113485075Y-53912601D01*
X113600000Y-53930804D01*
X113733126Y-53909719D01*
X113853220Y-53848528D01*
X113948528Y-53753220D01*
X114009719Y-53633126D01*
X114030804Y-53500000D01*
X114009719Y-53366874D01*
X114009719Y-53366873D01*
X113948528Y-53246780D01*
X113901748Y-53200000D01*
X114989196Y-53200000D01*
X115010280Y-53333126D01*
X115027476Y-53366874D01*
X115071472Y-53453220D01*
X115166780Y-53548528D01*
X115286873Y-53609718D01*
X115286873Y-53609719D01*
X115305075Y-53612601D01*
X115420000Y-53630804D01*
X115553126Y-53609719D01*
X115673220Y-53548528D01*
X115768528Y-53453220D01*
X115829719Y-53333126D01*
X115850804Y-53200000D01*
X115829719Y-53066874D01*
X115829719Y-53066873D01*
X115768528Y-52946780D01*
X115673219Y-52851471D01*
X115553126Y-52790281D01*
X115553126Y-52790280D01*
X115420000Y-52769196D01*
X115286873Y-52790280D01*
X115286873Y-52790281D01*
X115166780Y-52851471D01*
X115071471Y-52946780D01*
X115010281Y-53066873D01*
X115010280Y-53066873D01*
X114989196Y-53200000D01*
X113901748Y-53200000D01*
X113853219Y-53151471D01*
X113733126Y-53090281D01*
X113733126Y-53090280D01*
X113600000Y-53069196D01*
X113466873Y-53090280D01*
X113466873Y-53090281D01*
X113346780Y-53151471D01*
X113251471Y-53246780D01*
X113190281Y-53366873D01*
X113190280Y-53366873D01*
X113169196Y-53500000D01*
X103850000Y-53500000D01*
X103850000Y-53100000D01*
X101950000Y-53100000D01*
X101950000Y-55190000D01*
X97450000Y-55190000D01*
X97450000Y-53100000D01*
X95550000Y-53100000D01*
X95550000Y-55190000D01*
X92450000Y-55190000D01*
X92450000Y-53100000D01*
X90550000Y-53100000D01*
X90550000Y-55190000D01*
X88202272Y-55190000D01*
X88313801Y-54958408D01*
X88406560Y-54693318D01*
X88469055Y-54419509D01*
X88500500Y-54140425D01*
X88500500Y-53859575D01*
X88469055Y-53580491D01*
X88461760Y-53548528D01*
X88406562Y-53306690D01*
X88406557Y-53306674D01*
X88313801Y-53041592D01*
X88191947Y-52788559D01*
X88191946Y-52788558D01*
X88191945Y-52788555D01*
X88125984Y-52683579D01*
X114085617Y-52683579D01*
X114106701Y-52816705D01*
X114167892Y-52936798D01*
X114167893Y-52936799D01*
X114263201Y-53032107D01*
X114383294Y-53093297D01*
X114383294Y-53093298D01*
X114401496Y-53096180D01*
X114516421Y-53114383D01*
X114649547Y-53093298D01*
X114769641Y-53032107D01*
X114864949Y-52936799D01*
X114926140Y-52816705D01*
X114947225Y-52683579D01*
X114929022Y-52568654D01*
X114926140Y-52550452D01*
X114864949Y-52430359D01*
X114769640Y-52335050D01*
X114649547Y-52273860D01*
X114649547Y-52273859D01*
X114516421Y-52252775D01*
X114383294Y-52273859D01*
X114383294Y-52273860D01*
X114263201Y-52335050D01*
X114167892Y-52430359D01*
X114106702Y-52550452D01*
X114106701Y-52550452D01*
X114085617Y-52683579D01*
X88125984Y-52683579D01*
X88042523Y-52550752D01*
X87867416Y-52331175D01*
X87668825Y-52132584D01*
X87449248Y-51957477D01*
X87211445Y-51808055D01*
X87211444Y-51808054D01*
X87211440Y-51808052D01*
X86958407Y-51686198D01*
X86837374Y-51643847D01*
X86795143Y-51606107D01*
X86791968Y-51549559D01*
X86829708Y-51507328D01*
X86861815Y-51500000D01*
X119138185Y-51500000D01*
X119190511Y-51521674D01*
G37*
G04 #@! TD.AperFunction*
G04 #@! TD*
M02*
