G04 #@! TF.GenerationSoftware,KiCad,Pcbnew,(6.0.9)*
G04 #@! TF.CreationDate,2023-04-16T20:23:55-07:00*
G04 #@! TF.ProjectId,IMX585_MIPI_Breakout,494d5835-3835-45f4-9d49-50495f427265,rev?*
G04 #@! TF.SameCoordinates,Original*
G04 #@! TF.FileFunction,Soldermask,Bot*
G04 #@! TF.FilePolarity,Negative*
%FSLAX46Y46*%
G04 Gerber Fmt 4.6, Leading zero omitted, Abs format (unit mm)*
G04 Created by KiCad (PCBNEW (6.0.9)) date 2023-04-16 20:23:55*
%MOMM*%
%LPD*%
G01*
G04 APERTURE LIST*
%ADD10C,0.900000*%
%ADD11R,2.400000X2.400000*%
%ADD12C,4.600000*%
G04 APERTURE END LIST*
D10*
G04 #@! TO.C,U4*
X165500000Y-85400000D03*
X165500000Y-86900000D03*
X165500637Y-88387082D03*
X165500000Y-89900000D03*
X165500000Y-91400000D03*
X165500000Y-92900000D03*
X165500000Y-94400000D03*
X167000000Y-85400000D03*
X167000000Y-86900000D03*
X167000637Y-88387082D03*
X167000000Y-89900000D03*
X167000000Y-91400000D03*
X167000000Y-92900000D03*
X167000000Y-94400000D03*
X168500000Y-82400000D03*
X168500000Y-83900000D03*
X168500000Y-85400000D03*
X168500000Y-86900000D03*
X168500637Y-88387082D03*
X168500000Y-89900000D03*
X168500000Y-91400000D03*
X168500000Y-92900000D03*
X168500000Y-94400000D03*
X168500637Y-95887082D03*
X168500000Y-97400000D03*
X170000000Y-82400000D03*
X170000000Y-83900000D03*
X170000000Y-85400000D03*
X170000000Y-86900000D03*
X170000637Y-88387082D03*
X170000000Y-89900000D03*
X170000000Y-91400000D03*
X170000000Y-92900000D03*
X170000000Y-94400000D03*
X170000637Y-95887082D03*
X170000000Y-97400000D03*
X171500000Y-82400000D03*
X171500000Y-83900000D03*
X171500000Y-85400000D03*
X171500000Y-86900000D03*
X171500637Y-88387082D03*
X171500000Y-89900000D03*
X171500000Y-91400000D03*
X171500000Y-92900000D03*
X171500000Y-94400000D03*
X171500637Y-95887082D03*
X171500000Y-97400000D03*
X173000000Y-82400000D03*
X173000000Y-83900000D03*
X173000000Y-85400000D03*
X173000000Y-86900000D03*
X173000000Y-92900000D03*
X173000000Y-94400000D03*
X173000637Y-95887082D03*
X173000000Y-97400000D03*
X174500000Y-82400000D03*
X174500000Y-83900000D03*
X174500000Y-85400000D03*
X174500000Y-86900000D03*
X174500000Y-92900000D03*
X174500000Y-94400000D03*
X174500637Y-95887082D03*
X174500000Y-97400000D03*
X176000000Y-82400000D03*
X176000000Y-83900000D03*
X176000000Y-85400000D03*
X176000000Y-86900000D03*
X176000000Y-92900000D03*
X176000000Y-94400000D03*
X176000637Y-95887082D03*
X176000000Y-97400000D03*
X177500000Y-82400000D03*
X177500000Y-83900000D03*
X177500000Y-85400000D03*
X177500000Y-86900000D03*
X177500637Y-88387082D03*
X177500000Y-89900000D03*
X177500000Y-91400000D03*
X177500000Y-92900000D03*
X177500000Y-94400000D03*
X177500637Y-95887082D03*
X177500000Y-97400000D03*
X179000000Y-82400000D03*
X179000000Y-83900000D03*
X179000000Y-85400000D03*
X179000000Y-86900000D03*
X179000637Y-88387082D03*
X179000000Y-89900000D03*
X179000000Y-91400000D03*
X179000000Y-92900000D03*
X179000000Y-94400000D03*
X179000637Y-95887082D03*
X179000000Y-97400000D03*
X180500000Y-82400000D03*
X180500000Y-83900000D03*
X180500000Y-85400000D03*
X180500000Y-86900000D03*
X180500637Y-88387082D03*
X180500000Y-89900000D03*
X180500000Y-91400000D03*
X180500000Y-92900000D03*
X180500000Y-94400000D03*
X180500637Y-95887082D03*
X180500000Y-97400000D03*
X182000000Y-85400000D03*
X182000000Y-86900000D03*
X182000637Y-88387082D03*
X182000000Y-89900000D03*
X182000000Y-91400000D03*
X182000000Y-92900000D03*
X182000000Y-94400000D03*
X183500000Y-85400000D03*
X183500000Y-86900000D03*
X183500637Y-88387082D03*
X183500000Y-89900000D03*
X183500000Y-91400000D03*
X183500000Y-92900000D03*
X183500000Y-94400000D03*
D11*
X166250000Y-96650000D03*
G36*
X167450000Y-83870000D02*
G01*
X166970000Y-84350000D01*
X165050000Y-84350000D01*
X165050000Y-81950000D01*
X167450000Y-81950000D01*
X167450000Y-83870000D01*
G37*
X182750000Y-83150000D03*
X182750000Y-96650000D03*
G04 #@! TD*
D12*
G04 #@! TO.C,H1*
X157500000Y-72900000D03*
G04 #@! TD*
G04 #@! TO.C,H4*
X191500000Y-72900000D03*
G04 #@! TD*
G04 #@! TO.C,H2*
X157500000Y-106900000D03*
G04 #@! TD*
G04 #@! TO.C,H3*
X191500000Y-106900000D03*
G04 #@! TD*
M02*
