M48
; DRILL file {KiCad 8.0.4} date 2024-09-15T19:08:52-0700
; FORMAT={-:-/ absolute / inch / decimal}
; #@! TF.CreationDate,2024-09-15T19:08:52-07:00
; #@! TF.GenerationSoftware,Kicad,Pcbnew,8.0.4
; #@! TF.FileFunction,Plated,1,4,PTH
FMAT,2
INCH
; #@! TA.AperFunction,Plated,PTH,ViaDrill
T1C0.0079
%
G90
G05
T1
X4.9055Y-3.5433
X4.9055Y-3.6299
X4.9055Y-3.7441
X4.9055Y-3.8583
X4.9055Y-3.9646
X4.9055Y-4.0709
X4.9055Y-4.1969
X4.9055Y-4.3031
X4.9055Y-4.437
X4.9055Y-4.5984
X4.9134Y-4.7008
X4.9469Y-4.5768
X4.9469Y-4.6102
X4.9488Y-4.1181
X4.9488Y-4.1496
X4.9528Y-4.6417
X4.9528Y-4.6693
X4.9567Y-4.3622
X4.9567Y-4.4429
X4.9606Y-4.0551
X4.9764Y-4.1181
X4.9764Y-4.1496
X4.9803Y-4.6417
X4.9803Y-4.6693
X4.9823Y-4.5768
X4.9823Y-4.6102
X4.9911Y-3.86
X4.9921Y-3.622
X4.9921Y-3.7441
X4.9941Y-4.2953
X4.998Y-4.3327
X5.0118Y-4.6417
X5.0118Y-4.6693
X5.0157Y-4.122
X5.0157Y-4.1496
X5.0157Y-4.4287
X5.0177Y-4.3622
X5.0177Y-4.5394
X5.0236Y-4.5768
X5.0236Y-4.6102
X5.0394Y-4.7047
X5.0433Y-4.0669
X5.0433Y-4.0945
X5.0433Y-4.122
X5.0433Y-4.1496
X5.0453Y-4.6417
X5.0453Y-4.6693
X5.0551Y-4.4291
X5.0669Y-4.189
X5.0669Y-4.2165
X5.0669Y-4.2441
X5.0669Y-4.2677
X5.0709Y-3.3858
X5.0709Y-3.5394
X5.0709Y-4.0669
X5.0709Y-4.0945
X5.0709Y-4.122
X5.0709Y-4.1496
X5.0787Y-4.5059
X5.0787Y-4.5413
X5.0787Y-4.7441
X5.0827Y-4.3036
X5.0945Y-4.2441
X5.0945Y-4.2677
X5.0984Y-4.0669
X5.0984Y-4.0945
X5.0984Y-4.122
X5.0984Y-4.1496
X5.0984Y-4.8701
X5.104Y-4.337
X5.1063Y-4.1772
X5.1093Y-3.5813
X5.1093Y-3.6994
X5.1093Y-3.8175
X5.1122Y-4.5059
X5.1122Y-4.5413
X5.122Y-4.2441
X5.122Y-4.2677
X5.1299Y-4.1138
X5.1339Y-4.4528
X5.1398Y-3.4232
X5.1398Y-3.4587
X5.1398Y-3.4902
X5.1496Y-3.937
X5.1496Y-4.2441
X5.1496Y-4.2677
X5.1535Y-3.563
X5.1614Y-4.3307
X5.1614Y-4.4528
X5.1614Y-4.4843
X5.1634Y-4.7972
X5.1772Y-4.2441
X5.1772Y-4.2677
X5.189Y-4.4528
X5.1894Y-4.1138
X5.1988Y-3.5709
X5.1988Y-3.6142
X5.2047Y-4.185
X5.2047Y-4.2126
X5.2047Y-4.248
X5.2047Y-4.2756
X5.2047Y-4.3031
X5.2126Y-4.4094
X5.2323Y-4.185
X5.2323Y-4.2126
X5.2323Y-4.248
X5.2323Y-4.2756
X5.2323Y-4.3031
X5.2362Y-4.4094
X5.2421Y-3.9232
X5.2441Y-3.563
X5.2461Y-4.4764
X5.2461Y-4.5
X5.248Y-4.0591
X5.2579Y-3.4232
X5.2579Y-3.4567
X5.2579Y-3.4902
X5.2598Y-4.248
X5.2598Y-4.2756
X5.2677Y-4.4882
X5.2913Y-4.4744
X5.2913Y-4.5
X5.2992Y-3.9528
X5.2992Y-4.0118
X5.2992Y-4.1811
X5.2992Y-4.248
X5.3Y-4.3071
X5.315Y-4.4882
X5.3346Y-4.4744
X5.3346Y-4.498
X5.3366Y-3.4252
X5.3366Y-3.4882
X5.3376Y-3.4569
X5.3465Y-3.5709
X5.3484Y-4.0295
X5.3504Y-3.9429
X5.3583Y-4.1299
X5.3661Y-4.5827
X5.3661Y-4.6142
X5.3701Y-4.2224
X5.374Y-4.5098
X5.374Y-4.5433
X5.374Y-4.7441
X5.374Y-4.7756
X5.376Y-4.0118
X5.378Y-4.811
X5.378Y-4.8406
X5.3858Y-4.2421
X5.3957Y-3.5709
X5.3957Y-3.8661
X5.4035Y-4.5989
X5.4055Y-4.5098
X5.4055Y-4.5433
X5.4055Y-4.7441
X5.4055Y-4.7756
X5.4055Y-4.811
X5.4055Y-4.8406
X5.4173Y-3.7756
X5.4173Y-4.1299
X5.4173Y-4.189
X5.4173Y-4.248
X5.4173Y-4.3661
X5.4173Y-4.4252
X5.4173Y-4.0704
X5.4449Y-3.5709
X5.4459Y-3.7992
X5.4537Y-3.4569
X5.4547Y-3.4252
X5.4547Y-3.4882
X5.4744Y-4.4685
X5.4764Y-3.7953
X5.4764Y-3.9528
X5.4764Y-4.0118
X5.4764Y-4.061
X5.4764Y-4.1299
X5.4764Y-4.189
X5.4764Y-4.248
X5.4984Y-4.689
X5.5059Y-3.7854
X5.5354Y-3.9528
X5.5354Y-3.9961
X5.5354Y-4.248
X5.5394Y-3.7047
X5.5531Y-4.4902
X5.5591Y-3.7323
X5.5591Y-3.7638
X5.5925Y-3.4252
X5.5945Y-3.4921
X5.5945Y-3.9528
X5.5945Y-3.9862
X5.5945Y-4.248
X5.5959Y-3.4589
X5.622Y-3.7992
X5.624Y-3.8661
X5.624Y-4.3366
X5.624Y-4.3858
X5.6535Y-3.8346
X5.6535Y-3.8937
X5.6811Y-3.8661
X5.6831Y-3.8012
X5.685Y-4.3366
X5.7106Y-3.4252
X5.7106Y-3.6024
X5.712Y-3.4589
X5.7126Y-3.4921
X5.7126Y-3.8346
X5.7126Y-3.8937
X5.7126Y-4.248
X5.7126Y-4.3661
X5.7126Y-4.4252
X5.7244Y-4.622
X5.7362Y-3.5709
X5.7421Y-3.9803
X5.7441Y-4.5079
X5.7579Y-4.4852
X5.7646Y-3.5531
X5.7717Y-3.8346
X5.7717Y-3.8937
X5.7717Y-4.248
X5.7717Y-4.3661
X5.7717Y-4.4252
X5.7736Y-4.0118
X5.8012Y-3.7953
X5.8024Y-3.5531
X5.811Y-3.8642
X5.8307Y-3.8346
X5.8307Y-3.8937
X5.8307Y-4.1299
X5.8307Y-4.189
X5.8307Y-4.2598
X5.8307Y-4.3071
X5.8307Y-4.0704
X5.8425Y-4.6732
X5.8701Y-3.4252
X5.8701Y-3.8642
X5.8844Y-4.6742
X5.8898Y-3.8346
X5.8898Y-3.8937
X5.8898Y-4.0709
X5.8898Y-4.1299
X5.8898Y-4.189
X5.8898Y-4.2598
X5.8898Y-4.3071
X5.9154Y-3.7953
X5.9154Y-3.9291
X5.9213Y-4.0413
X5.9222Y-4.623
X5.9232Y-4.1024
X5.9252Y-4.6732
X5.9286Y-3.5433
X5.9286Y-3.5728
X5.9431Y-3.6457
X5.9488Y-3.9528
X5.9488Y-4.1299
X5.9488Y-4.0704
X5.9783Y-4.0551
X5.9809Y-3.6457
X5.9874Y-4.622
X5.9882Y-4.7539
X6.0079Y-3.9528
X6.0079Y-4.1299
X6.0079Y-4.5354
X6.0079Y-4.0704
X6.016Y-3.626
X6.016Y-3.6575
X6.016Y-3.685
X6.0433Y-3.9173
X6.0472Y-4.2982
X6.0531Y-3.5079
X6.0538Y-3.6457
X6.0538Y-3.685
X6.063Y-4.7126
X6.0709Y-3.7992
X6.0768Y-4.6476
X6.0787Y-4.563
X6.0822Y-3.5433
X6.0822Y-3.5748
X6.0906Y-4.7126
X6.1033Y-4.6486
X6.1063Y-4.5315
X6.1063Y-4.563
X6.1173Y-3.676
X6.1181Y-4.7126
X6.122Y-3.8504
X6.1339Y-4.2992
X6.1378Y-3.6063
X6.1378Y-4.4685
X6.1378Y-4.5
X6.1378Y-4.5315
X6.1378Y-4.563
X6.1398Y-4.8169
X6.1437Y-4.7205
X6.1465Y-3.5039
X6.1575Y-4.439
X6.1594Y-3.9783
X6.1634Y-4.6661
X6.1634Y-4.7039
X6.1634Y-4.7409
X6.1634Y-4.7787
X6.1693Y-3.9055
X6.1732Y-4.2638
X6.1761Y-3.999
X6.1761Y-4.0246
X6.1799Y-3.7343
X6.1811Y-3.622
X6.1843Y-3.5039
X6.1912Y-3.4055
X6.1929Y-4.4252
X6.2087Y-4.2283
X6.2165Y-3.9823
X6.2165Y-4.0413
X6.2165Y-4.5827
X6.2165Y-4.6535
X6.2185Y-3.7343
X6.2205Y-4.4252
X6.2283Y-4.874
X6.2441Y-4.5827
X6.2441Y-4.6535
X6.248Y-3.9094
X6.248Y-4.2283
X6.248Y-4.4252
X6.2717Y-4.5827
X6.2717Y-4.6535
X6.2756Y-3.5591
X6.2756Y-4.4252
X6.2874Y-4.2283
X6.3071Y-4.4252
X6.3071Y-4.4528
X6.3071Y-4.4803
X6.3071Y-4.5079
X6.311Y-3.6535
X6.313Y-4.2736
X6.3169Y-3.9173
X6.3346Y-4.4252
X6.3445Y-4.3406
X6.3445Y-4.3681
X6.3622Y-4.4252
X6.3622Y-4.5748
X6.372Y-4.3406
X6.372Y-4.3681
X6.3957Y-3.6535
X6.3957Y-3.6929
X6.3976Y-4.5748
X6.4016Y-3.9193
X6.4016Y-3.9823
X6.4016Y-4.0413
X6.4016Y-4.1004
X6.4016Y-4.1594
X6.4016Y-4.2185
X6.4016Y-4.2736
X6.4016Y-4.878
X6.4094Y-4.437
X6.4134Y-3.5354
X6.4134Y-3.5748
X6.435Y-3.6535
X6.437Y-3.6929
X6.4469Y-4.4803
X6.4469Y-4.7343
X6.4469Y-4.7894
X6.4488Y-4.5374
X6.4567Y-4.4331
X6.4921Y-3.5354
X6.5138Y-4.4331
X6.5177Y-4.5233
X6.5177Y-4.7752
X6.5177Y-4.5669
X6.5177Y-4.8189
X6.5413Y-4.4783
X6.5413Y-4.7303
X6.5669Y-3.6063
X6.5669Y-3.7441
X6.5679Y-3.5236
X6.5748Y-4.5236
X6.5748Y-4.5669
X6.5748Y-4.7756
X6.5748Y-4.8189
X6.6102Y-3.8228
X6.6102Y-4.3346
M30
