G04 #@! TF.GenerationSoftware,KiCad,Pcbnew,8.0.4*
G04 #@! TF.CreationDate,2024-09-15T19:08:50-07:00*
G04 #@! TF.ProjectId,IMX585_MIPI_Breakout_v3,494d5835-3835-45f4-9d49-50495f427265,rev?*
G04 #@! TF.SameCoordinates,Original*
G04 #@! TF.FileFunction,Legend,Bot*
G04 #@! TF.FilePolarity,Positive*
%FSLAX46Y46*%
G04 Gerber Fmt 4.6, Leading zero omitted, Abs format (unit mm)*
G04 Created by KiCad (PCBNEW 8.0.4) date 2024-09-15 19:08:50*
%MOMM*%
%LPD*%
G01*
G04 APERTURE LIST*
%ADD10C,0.150000*%
%ADD11C,0.200000*%
%ADD12C,0.050000*%
%ADD13C,0.325000*%
G04 APERTURE END LIST*
D10*
X162554819Y-112564286D02*
X161554819Y-112564286D01*
X162554819Y-113611904D02*
X162078628Y-113278571D01*
X162554819Y-113040476D02*
X161554819Y-113040476D01*
X161554819Y-113040476D02*
X161554819Y-113421428D01*
X161554819Y-113421428D02*
X161602438Y-113516666D01*
X161602438Y-113516666D02*
X161650057Y-113564285D01*
X161650057Y-113564285D02*
X161745295Y-113611904D01*
X161745295Y-113611904D02*
X161888152Y-113611904D01*
X161888152Y-113611904D02*
X161983390Y-113564285D01*
X161983390Y-113564285D02*
X162031009Y-113516666D01*
X162031009Y-113516666D02*
X162078628Y-113421428D01*
X162078628Y-113421428D02*
X162078628Y-113040476D01*
X162507200Y-114754762D02*
X162554819Y-114897619D01*
X162554819Y-114897619D02*
X162554819Y-115135714D01*
X162554819Y-115135714D02*
X162507200Y-115230952D01*
X162507200Y-115230952D02*
X162459580Y-115278571D01*
X162459580Y-115278571D02*
X162364342Y-115326190D01*
X162364342Y-115326190D02*
X162269104Y-115326190D01*
X162269104Y-115326190D02*
X162173866Y-115278571D01*
X162173866Y-115278571D02*
X162126247Y-115230952D01*
X162126247Y-115230952D02*
X162078628Y-115135714D01*
X162078628Y-115135714D02*
X162031009Y-114945238D01*
X162031009Y-114945238D02*
X161983390Y-114850000D01*
X161983390Y-114850000D02*
X161935771Y-114802381D01*
X161935771Y-114802381D02*
X161840533Y-114754762D01*
X161840533Y-114754762D02*
X161745295Y-114754762D01*
X161745295Y-114754762D02*
X161650057Y-114802381D01*
X161650057Y-114802381D02*
X161602438Y-114850000D01*
X161602438Y-114850000D02*
X161554819Y-114945238D01*
X161554819Y-114945238D02*
X161554819Y-115183333D01*
X161554819Y-115183333D02*
X161602438Y-115326190D01*
X161888152Y-115659524D02*
X162554819Y-115850000D01*
X162554819Y-115850000D02*
X162078628Y-116040476D01*
X162078628Y-116040476D02*
X162554819Y-116230952D01*
X162554819Y-116230952D02*
X161888152Y-116421428D01*
X162554819Y-116802381D02*
X161888152Y-116802381D01*
X161554819Y-116802381D02*
X161602438Y-116754762D01*
X161602438Y-116754762D02*
X161650057Y-116802381D01*
X161650057Y-116802381D02*
X161602438Y-116850000D01*
X161602438Y-116850000D02*
X161554819Y-116802381D01*
X161554819Y-116802381D02*
X161650057Y-116802381D01*
X161888152Y-117135714D02*
X161888152Y-117516666D01*
X161554819Y-117278571D02*
X162411961Y-117278571D01*
X162411961Y-117278571D02*
X162507200Y-117326190D01*
X162507200Y-117326190D02*
X162554819Y-117421428D01*
X162554819Y-117421428D02*
X162554819Y-117516666D01*
X162507200Y-118278571D02*
X162554819Y-118183333D01*
X162554819Y-118183333D02*
X162554819Y-117992857D01*
X162554819Y-117992857D02*
X162507200Y-117897619D01*
X162507200Y-117897619D02*
X162459580Y-117850000D01*
X162459580Y-117850000D02*
X162364342Y-117802381D01*
X162364342Y-117802381D02*
X162078628Y-117802381D01*
X162078628Y-117802381D02*
X161983390Y-117850000D01*
X161983390Y-117850000D02*
X161935771Y-117897619D01*
X161935771Y-117897619D02*
X161888152Y-117992857D01*
X161888152Y-117992857D02*
X161888152Y-118183333D01*
X161888152Y-118183333D02*
X161935771Y-118278571D01*
X162554819Y-118707143D02*
X161554819Y-118707143D01*
X162554819Y-119135714D02*
X162031009Y-119135714D01*
X162031009Y-119135714D02*
X161935771Y-119088095D01*
X161935771Y-119088095D02*
X161888152Y-118992857D01*
X161888152Y-118992857D02*
X161888152Y-118850000D01*
X161888152Y-118850000D02*
X161935771Y-118754762D01*
X161935771Y-118754762D02*
X161983390Y-118707143D01*
D11*
X165081482Y-93007142D02*
X165810053Y-93007142D01*
X165810053Y-93007142D02*
X165895767Y-93049999D01*
X165895767Y-93049999D02*
X165938625Y-93092857D01*
X165938625Y-93092857D02*
X165981482Y-93178571D01*
X165981482Y-93178571D02*
X165981482Y-93349999D01*
X165981482Y-93349999D02*
X165938625Y-93435714D01*
X165938625Y-93435714D02*
X165895767Y-93478571D01*
X165895767Y-93478571D02*
X165810053Y-93521428D01*
X165810053Y-93521428D02*
X165081482Y-93521428D01*
X165938625Y-93907142D02*
X165981482Y-93992856D01*
X165981482Y-93992856D02*
X165981482Y-94164285D01*
X165981482Y-94164285D02*
X165938625Y-94249999D01*
X165938625Y-94249999D02*
X165852910Y-94292856D01*
X165852910Y-94292856D02*
X165810053Y-94292856D01*
X165810053Y-94292856D02*
X165724339Y-94249999D01*
X165724339Y-94249999D02*
X165681482Y-94164285D01*
X165681482Y-94164285D02*
X165681482Y-94035714D01*
X165681482Y-94035714D02*
X165638625Y-93949999D01*
X165638625Y-93949999D02*
X165552910Y-93907142D01*
X165552910Y-93907142D02*
X165510053Y-93907142D01*
X165510053Y-93907142D02*
X165424339Y-93949999D01*
X165424339Y-93949999D02*
X165381482Y-94035714D01*
X165381482Y-94035714D02*
X165381482Y-94164285D01*
X165381482Y-94164285D02*
X165424339Y-94249999D01*
X165938625Y-95021427D02*
X165981482Y-94935713D01*
X165981482Y-94935713D02*
X165981482Y-94764285D01*
X165981482Y-94764285D02*
X165938625Y-94678570D01*
X165938625Y-94678570D02*
X165852910Y-94635713D01*
X165852910Y-94635713D02*
X165510053Y-94635713D01*
X165510053Y-94635713D02*
X165424339Y-94678570D01*
X165424339Y-94678570D02*
X165381482Y-94764285D01*
X165381482Y-94764285D02*
X165381482Y-94935713D01*
X165381482Y-94935713D02*
X165424339Y-95021427D01*
X165424339Y-95021427D02*
X165510053Y-95064285D01*
X165510053Y-95064285D02*
X165595767Y-95064285D01*
X165595767Y-95064285D02*
X165681482Y-94635713D01*
X165510053Y-96435713D02*
X165510053Y-96135713D01*
X165981482Y-96135713D02*
X165081482Y-96135713D01*
X165081482Y-96135713D02*
X165081482Y-96564285D01*
X165981482Y-96907142D02*
X165081482Y-96907142D01*
X165081482Y-96907142D02*
X165081482Y-97249999D01*
X165081482Y-97249999D02*
X165124339Y-97335714D01*
X165124339Y-97335714D02*
X165167196Y-97378571D01*
X165167196Y-97378571D02*
X165252910Y-97421428D01*
X165252910Y-97421428D02*
X165381482Y-97421428D01*
X165381482Y-97421428D02*
X165467196Y-97378571D01*
X165467196Y-97378571D02*
X165510053Y-97335714D01*
X165510053Y-97335714D02*
X165552910Y-97249999D01*
X165552910Y-97249999D02*
X165552910Y-96907142D01*
X165895767Y-98321428D02*
X165938625Y-98278571D01*
X165938625Y-98278571D02*
X165981482Y-98149999D01*
X165981482Y-98149999D02*
X165981482Y-98064285D01*
X165981482Y-98064285D02*
X165938625Y-97935714D01*
X165938625Y-97935714D02*
X165852910Y-97849999D01*
X165852910Y-97849999D02*
X165767196Y-97807142D01*
X165767196Y-97807142D02*
X165595767Y-97764285D01*
X165595767Y-97764285D02*
X165467196Y-97764285D01*
X165467196Y-97764285D02*
X165295767Y-97807142D01*
X165295767Y-97807142D02*
X165210053Y-97849999D01*
X165210053Y-97849999D02*
X165124339Y-97935714D01*
X165124339Y-97935714D02*
X165081482Y-98064285D01*
X165081482Y-98064285D02*
X165081482Y-98149999D01*
X165081482Y-98149999D02*
X165124339Y-98278571D01*
X165124339Y-98278571D02*
X165167196Y-98321428D01*
X165381482Y-99307142D02*
X165981482Y-99478571D01*
X165981482Y-99478571D02*
X165552910Y-99649999D01*
X165552910Y-99649999D02*
X165981482Y-99821428D01*
X165981482Y-99821428D02*
X165381482Y-99992856D01*
X165981482Y-100335713D02*
X165381482Y-100335713D01*
X165081482Y-100335713D02*
X165124339Y-100292856D01*
X165124339Y-100292856D02*
X165167196Y-100335713D01*
X165167196Y-100335713D02*
X165124339Y-100378570D01*
X165124339Y-100378570D02*
X165081482Y-100335713D01*
X165081482Y-100335713D02*
X165167196Y-100335713D01*
X165381482Y-100635713D02*
X165381482Y-100978570D01*
X165081482Y-100764284D02*
X165852910Y-100764284D01*
X165852910Y-100764284D02*
X165938625Y-100807141D01*
X165938625Y-100807141D02*
X165981482Y-100892856D01*
X165981482Y-100892856D02*
X165981482Y-100978570D01*
X165981482Y-101278570D02*
X165081482Y-101278570D01*
X165981482Y-101664285D02*
X165510053Y-101664285D01*
X165510053Y-101664285D02*
X165424339Y-101621427D01*
X165424339Y-101621427D02*
X165381482Y-101535713D01*
X165381482Y-101535713D02*
X165381482Y-101407142D01*
X165381482Y-101407142D02*
X165424339Y-101321427D01*
X165424339Y-101321427D02*
X165467196Y-101278570D01*
X165938625Y-103164285D02*
X165981482Y-103078570D01*
X165981482Y-103078570D02*
X165981482Y-102907142D01*
X165981482Y-102907142D02*
X165938625Y-102821427D01*
X165938625Y-102821427D02*
X165895767Y-102778570D01*
X165895767Y-102778570D02*
X165810053Y-102735713D01*
X165810053Y-102735713D02*
X165552910Y-102735713D01*
X165552910Y-102735713D02*
X165467196Y-102778570D01*
X165467196Y-102778570D02*
X165424339Y-102821427D01*
X165424339Y-102821427D02*
X165381482Y-102907142D01*
X165381482Y-102907142D02*
X165381482Y-103078570D01*
X165381482Y-103078570D02*
X165424339Y-103164285D01*
X165981482Y-103678571D02*
X165938625Y-103592856D01*
X165938625Y-103592856D02*
X165895767Y-103549999D01*
X165895767Y-103549999D02*
X165810053Y-103507142D01*
X165810053Y-103507142D02*
X165552910Y-103507142D01*
X165552910Y-103507142D02*
X165467196Y-103549999D01*
X165467196Y-103549999D02*
X165424339Y-103592856D01*
X165424339Y-103592856D02*
X165381482Y-103678571D01*
X165381482Y-103678571D02*
X165381482Y-103807142D01*
X165381482Y-103807142D02*
X165424339Y-103892856D01*
X165424339Y-103892856D02*
X165467196Y-103935714D01*
X165467196Y-103935714D02*
X165552910Y-103978571D01*
X165552910Y-103978571D02*
X165810053Y-103978571D01*
X165810053Y-103978571D02*
X165895767Y-103935714D01*
X165895767Y-103935714D02*
X165938625Y-103892856D01*
X165938625Y-103892856D02*
X165981482Y-103807142D01*
X165981482Y-103807142D02*
X165981482Y-103678571D01*
X165381482Y-104364285D02*
X165981482Y-104364285D01*
X165467196Y-104364285D02*
X165424339Y-104407142D01*
X165424339Y-104407142D02*
X165381482Y-104492857D01*
X165381482Y-104492857D02*
X165381482Y-104621428D01*
X165381482Y-104621428D02*
X165424339Y-104707142D01*
X165424339Y-104707142D02*
X165510053Y-104750000D01*
X165510053Y-104750000D02*
X165981482Y-104750000D01*
X165381482Y-105050000D02*
X165381482Y-105392857D01*
X165081482Y-105178571D02*
X165852910Y-105178571D01*
X165852910Y-105178571D02*
X165938625Y-105221428D01*
X165938625Y-105221428D02*
X165981482Y-105307143D01*
X165981482Y-105307143D02*
X165981482Y-105392857D01*
X165981482Y-106078572D02*
X165510053Y-106078572D01*
X165510053Y-106078572D02*
X165424339Y-106035714D01*
X165424339Y-106035714D02*
X165381482Y-105950000D01*
X165381482Y-105950000D02*
X165381482Y-105778572D01*
X165381482Y-105778572D02*
X165424339Y-105692857D01*
X165938625Y-106078572D02*
X165981482Y-105992857D01*
X165981482Y-105992857D02*
X165981482Y-105778572D01*
X165981482Y-105778572D02*
X165938625Y-105692857D01*
X165938625Y-105692857D02*
X165852910Y-105650000D01*
X165852910Y-105650000D02*
X165767196Y-105650000D01*
X165767196Y-105650000D02*
X165681482Y-105692857D01*
X165681482Y-105692857D02*
X165638625Y-105778572D01*
X165638625Y-105778572D02*
X165638625Y-105992857D01*
X165638625Y-105992857D02*
X165595767Y-106078572D01*
X165938625Y-106892858D02*
X165981482Y-106807143D01*
X165981482Y-106807143D02*
X165981482Y-106635715D01*
X165981482Y-106635715D02*
X165938625Y-106550000D01*
X165938625Y-106550000D02*
X165895767Y-106507143D01*
X165895767Y-106507143D02*
X165810053Y-106464286D01*
X165810053Y-106464286D02*
X165552910Y-106464286D01*
X165552910Y-106464286D02*
X165467196Y-106507143D01*
X165467196Y-106507143D02*
X165424339Y-106550000D01*
X165424339Y-106550000D02*
X165381482Y-106635715D01*
X165381482Y-106635715D02*
X165381482Y-106807143D01*
X165381482Y-106807143D02*
X165424339Y-106892858D01*
X165381482Y-107150001D02*
X165381482Y-107492858D01*
X165081482Y-107278572D02*
X165852910Y-107278572D01*
X165852910Y-107278572D02*
X165938625Y-107321429D01*
X165938625Y-107321429D02*
X165981482Y-107407144D01*
X165981482Y-107407144D02*
X165981482Y-107492858D01*
X165381482Y-108478572D02*
X166281482Y-108478572D01*
X165424339Y-108478572D02*
X165381482Y-108564287D01*
X165381482Y-108564287D02*
X165381482Y-108735715D01*
X165381482Y-108735715D02*
X165424339Y-108821429D01*
X165424339Y-108821429D02*
X165467196Y-108864287D01*
X165467196Y-108864287D02*
X165552910Y-108907144D01*
X165552910Y-108907144D02*
X165810053Y-108907144D01*
X165810053Y-108907144D02*
X165895767Y-108864287D01*
X165895767Y-108864287D02*
X165938625Y-108821429D01*
X165938625Y-108821429D02*
X165981482Y-108735715D01*
X165981482Y-108735715D02*
X165981482Y-108564287D01*
X165981482Y-108564287D02*
X165938625Y-108478572D01*
X165981482Y-109292858D02*
X165381482Y-109292858D01*
X165081482Y-109292858D02*
X165124339Y-109250001D01*
X165124339Y-109250001D02*
X165167196Y-109292858D01*
X165167196Y-109292858D02*
X165124339Y-109335715D01*
X165124339Y-109335715D02*
X165081482Y-109292858D01*
X165081482Y-109292858D02*
X165167196Y-109292858D01*
X165381482Y-109721429D02*
X165981482Y-109721429D01*
X165467196Y-109721429D02*
X165424339Y-109764286D01*
X165424339Y-109764286D02*
X165381482Y-109850001D01*
X165381482Y-109850001D02*
X165381482Y-109978572D01*
X165381482Y-109978572D02*
X165424339Y-110064286D01*
X165424339Y-110064286D02*
X165510053Y-110107144D01*
X165510053Y-110107144D02*
X165981482Y-110107144D01*
X167430432Y-96221428D02*
X167387575Y-96135713D01*
X167387575Y-96135713D02*
X167344717Y-96092856D01*
X167344717Y-96092856D02*
X167259003Y-96049999D01*
X167259003Y-96049999D02*
X167001860Y-96049999D01*
X167001860Y-96049999D02*
X166916146Y-96092856D01*
X166916146Y-96092856D02*
X166873289Y-96135713D01*
X166873289Y-96135713D02*
X166830432Y-96221428D01*
X166830432Y-96221428D02*
X166830432Y-96349999D01*
X166830432Y-96349999D02*
X166873289Y-96435713D01*
X166873289Y-96435713D02*
X166916146Y-96478571D01*
X166916146Y-96478571D02*
X167001860Y-96521428D01*
X167001860Y-96521428D02*
X167259003Y-96521428D01*
X167259003Y-96521428D02*
X167344717Y-96478571D01*
X167344717Y-96478571D02*
X167387575Y-96435713D01*
X167387575Y-96435713D02*
X167430432Y-96349999D01*
X167430432Y-96349999D02*
X167430432Y-96221428D01*
X166830432Y-96907142D02*
X167430432Y-96907142D01*
X166916146Y-96907142D02*
X166873289Y-96949999D01*
X166873289Y-96949999D02*
X166830432Y-97035714D01*
X166830432Y-97035714D02*
X166830432Y-97164285D01*
X166830432Y-97164285D02*
X166873289Y-97249999D01*
X166873289Y-97249999D02*
X166959003Y-97292857D01*
X166959003Y-97292857D02*
X167430432Y-97292857D01*
X166830432Y-98278571D02*
X166830432Y-98621428D01*
X166530432Y-98407142D02*
X167301860Y-98407142D01*
X167301860Y-98407142D02*
X167387575Y-98449999D01*
X167387575Y-98449999D02*
X167430432Y-98535714D01*
X167430432Y-98535714D02*
X167430432Y-98621428D01*
X167430432Y-98921428D02*
X166530432Y-98921428D01*
X167430432Y-99307143D02*
X166959003Y-99307143D01*
X166959003Y-99307143D02*
X166873289Y-99264285D01*
X166873289Y-99264285D02*
X166830432Y-99178571D01*
X166830432Y-99178571D02*
X166830432Y-99050000D01*
X166830432Y-99050000D02*
X166873289Y-98964285D01*
X166873289Y-98964285D02*
X166916146Y-98921428D01*
X167387575Y-100078571D02*
X167430432Y-99992857D01*
X167430432Y-99992857D02*
X167430432Y-99821429D01*
X167430432Y-99821429D02*
X167387575Y-99735714D01*
X167387575Y-99735714D02*
X167301860Y-99692857D01*
X167301860Y-99692857D02*
X166959003Y-99692857D01*
X166959003Y-99692857D02*
X166873289Y-99735714D01*
X166873289Y-99735714D02*
X166830432Y-99821429D01*
X166830432Y-99821429D02*
X166830432Y-99992857D01*
X166830432Y-99992857D02*
X166873289Y-100078571D01*
X166873289Y-100078571D02*
X166959003Y-100121429D01*
X166959003Y-100121429D02*
X167044717Y-100121429D01*
X167044717Y-100121429D02*
X167130432Y-99692857D01*
X167387575Y-101150000D02*
X167430432Y-101235714D01*
X167430432Y-101235714D02*
X167430432Y-101407143D01*
X167430432Y-101407143D02*
X167387575Y-101492857D01*
X167387575Y-101492857D02*
X167301860Y-101535714D01*
X167301860Y-101535714D02*
X167259003Y-101535714D01*
X167259003Y-101535714D02*
X167173289Y-101492857D01*
X167173289Y-101492857D02*
X167130432Y-101407143D01*
X167130432Y-101407143D02*
X167130432Y-101278572D01*
X167130432Y-101278572D02*
X167087575Y-101192857D01*
X167087575Y-101192857D02*
X167001860Y-101150000D01*
X167001860Y-101150000D02*
X166959003Y-101150000D01*
X166959003Y-101150000D02*
X166873289Y-101192857D01*
X166873289Y-101192857D02*
X166830432Y-101278572D01*
X166830432Y-101278572D02*
X166830432Y-101407143D01*
X166830432Y-101407143D02*
X166873289Y-101492857D01*
X167430432Y-102307143D02*
X166959003Y-102307143D01*
X166959003Y-102307143D02*
X166873289Y-102264285D01*
X166873289Y-102264285D02*
X166830432Y-102178571D01*
X166830432Y-102178571D02*
X166830432Y-102007143D01*
X166830432Y-102007143D02*
X166873289Y-101921428D01*
X167387575Y-102307143D02*
X167430432Y-102221428D01*
X167430432Y-102221428D02*
X167430432Y-102007143D01*
X167430432Y-102007143D02*
X167387575Y-101921428D01*
X167387575Y-101921428D02*
X167301860Y-101878571D01*
X167301860Y-101878571D02*
X167216146Y-101878571D01*
X167216146Y-101878571D02*
X167130432Y-101921428D01*
X167130432Y-101921428D02*
X167087575Y-102007143D01*
X167087575Y-102007143D02*
X167087575Y-102221428D01*
X167087575Y-102221428D02*
X167044717Y-102307143D01*
X167430432Y-102735714D02*
X166830432Y-102735714D01*
X166916146Y-102735714D02*
X166873289Y-102778571D01*
X166873289Y-102778571D02*
X166830432Y-102864286D01*
X166830432Y-102864286D02*
X166830432Y-102992857D01*
X166830432Y-102992857D02*
X166873289Y-103078571D01*
X166873289Y-103078571D02*
X166959003Y-103121429D01*
X166959003Y-103121429D02*
X167430432Y-103121429D01*
X166959003Y-103121429D02*
X166873289Y-103164286D01*
X166873289Y-103164286D02*
X166830432Y-103250000D01*
X166830432Y-103250000D02*
X166830432Y-103378571D01*
X166830432Y-103378571D02*
X166873289Y-103464286D01*
X166873289Y-103464286D02*
X166959003Y-103507143D01*
X166959003Y-103507143D02*
X167430432Y-103507143D01*
X167387575Y-104278571D02*
X167430432Y-104192857D01*
X167430432Y-104192857D02*
X167430432Y-104021429D01*
X167430432Y-104021429D02*
X167387575Y-103935714D01*
X167387575Y-103935714D02*
X167301860Y-103892857D01*
X167301860Y-103892857D02*
X166959003Y-103892857D01*
X166959003Y-103892857D02*
X166873289Y-103935714D01*
X166873289Y-103935714D02*
X166830432Y-104021429D01*
X166830432Y-104021429D02*
X166830432Y-104192857D01*
X166830432Y-104192857D02*
X166873289Y-104278571D01*
X166873289Y-104278571D02*
X166959003Y-104321429D01*
X166959003Y-104321429D02*
X167044717Y-104321429D01*
X167044717Y-104321429D02*
X167130432Y-103892857D01*
X167387575Y-105350000D02*
X167430432Y-105435714D01*
X167430432Y-105435714D02*
X167430432Y-105607143D01*
X167430432Y-105607143D02*
X167387575Y-105692857D01*
X167387575Y-105692857D02*
X167301860Y-105735714D01*
X167301860Y-105735714D02*
X167259003Y-105735714D01*
X167259003Y-105735714D02*
X167173289Y-105692857D01*
X167173289Y-105692857D02*
X167130432Y-105607143D01*
X167130432Y-105607143D02*
X167130432Y-105478572D01*
X167130432Y-105478572D02*
X167087575Y-105392857D01*
X167087575Y-105392857D02*
X167001860Y-105350000D01*
X167001860Y-105350000D02*
X166959003Y-105350000D01*
X166959003Y-105350000D02*
X166873289Y-105392857D01*
X166873289Y-105392857D02*
X166830432Y-105478572D01*
X166830432Y-105478572D02*
X166830432Y-105607143D01*
X166830432Y-105607143D02*
X166873289Y-105692857D01*
X167430432Y-106121428D02*
X166830432Y-106121428D01*
X166530432Y-106121428D02*
X166573289Y-106078571D01*
X166573289Y-106078571D02*
X166616146Y-106121428D01*
X166616146Y-106121428D02*
X166573289Y-106164285D01*
X166573289Y-106164285D02*
X166530432Y-106121428D01*
X166530432Y-106121428D02*
X166616146Y-106121428D01*
X167430432Y-106935714D02*
X166530432Y-106935714D01*
X167387575Y-106935714D02*
X167430432Y-106849999D01*
X167430432Y-106849999D02*
X167430432Y-106678571D01*
X167430432Y-106678571D02*
X167387575Y-106592856D01*
X167387575Y-106592856D02*
X167344717Y-106549999D01*
X167344717Y-106549999D02*
X167259003Y-106507142D01*
X167259003Y-106507142D02*
X167001860Y-106507142D01*
X167001860Y-106507142D02*
X166916146Y-106549999D01*
X166916146Y-106549999D02*
X166873289Y-106592856D01*
X166873289Y-106592856D02*
X166830432Y-106678571D01*
X166830432Y-106678571D02*
X166830432Y-106849999D01*
X166830432Y-106849999D02*
X166873289Y-106935714D01*
X167387575Y-107707142D02*
X167430432Y-107621428D01*
X167430432Y-107621428D02*
X167430432Y-107450000D01*
X167430432Y-107450000D02*
X167387575Y-107364285D01*
X167387575Y-107364285D02*
X167301860Y-107321428D01*
X167301860Y-107321428D02*
X166959003Y-107321428D01*
X166959003Y-107321428D02*
X166873289Y-107364285D01*
X166873289Y-107364285D02*
X166830432Y-107450000D01*
X166830432Y-107450000D02*
X166830432Y-107621428D01*
X166830432Y-107621428D02*
X166873289Y-107707142D01*
X166873289Y-107707142D02*
X166959003Y-107750000D01*
X166959003Y-107750000D02*
X167044717Y-107750000D01*
X167044717Y-107750000D02*
X167130432Y-107321428D01*
X161214150Y-96685713D02*
X161257007Y-96814285D01*
X161257007Y-96814285D02*
X161257007Y-97028570D01*
X161257007Y-97028570D02*
X161214150Y-97114285D01*
X161214150Y-97114285D02*
X161171292Y-97157142D01*
X161171292Y-97157142D02*
X161085578Y-97199999D01*
X161085578Y-97199999D02*
X160999864Y-97199999D01*
X160999864Y-97199999D02*
X160914150Y-97157142D01*
X160914150Y-97157142D02*
X160871292Y-97114285D01*
X160871292Y-97114285D02*
X160828435Y-97028570D01*
X160828435Y-97028570D02*
X160785578Y-96857142D01*
X160785578Y-96857142D02*
X160742721Y-96771427D01*
X160742721Y-96771427D02*
X160699864Y-96728570D01*
X160699864Y-96728570D02*
X160614150Y-96685713D01*
X160614150Y-96685713D02*
X160528435Y-96685713D01*
X160528435Y-96685713D02*
X160442721Y-96728570D01*
X160442721Y-96728570D02*
X160399864Y-96771427D01*
X160399864Y-96771427D02*
X160357007Y-96857142D01*
X160357007Y-96857142D02*
X160357007Y-97071427D01*
X160357007Y-97071427D02*
X160399864Y-97199999D01*
X160657007Y-97457142D02*
X160657007Y-97799999D01*
X160357007Y-97585713D02*
X161128435Y-97585713D01*
X161128435Y-97585713D02*
X161214150Y-97628570D01*
X161214150Y-97628570D02*
X161257007Y-97714285D01*
X161257007Y-97714285D02*
X161257007Y-97799999D01*
X161257007Y-98485714D02*
X160785578Y-98485714D01*
X160785578Y-98485714D02*
X160699864Y-98442856D01*
X160699864Y-98442856D02*
X160657007Y-98357142D01*
X160657007Y-98357142D02*
X160657007Y-98185714D01*
X160657007Y-98185714D02*
X160699864Y-98099999D01*
X161214150Y-98485714D02*
X161257007Y-98399999D01*
X161257007Y-98399999D02*
X161257007Y-98185714D01*
X161257007Y-98185714D02*
X161214150Y-98099999D01*
X161214150Y-98099999D02*
X161128435Y-98057142D01*
X161128435Y-98057142D02*
X161042721Y-98057142D01*
X161042721Y-98057142D02*
X160957007Y-98099999D01*
X160957007Y-98099999D02*
X160914150Y-98185714D01*
X160914150Y-98185714D02*
X160914150Y-98399999D01*
X160914150Y-98399999D02*
X160871292Y-98485714D01*
X161257007Y-98914285D02*
X160657007Y-98914285D01*
X160828435Y-98914285D02*
X160742721Y-98957142D01*
X160742721Y-98957142D02*
X160699864Y-99000000D01*
X160699864Y-99000000D02*
X160657007Y-99085714D01*
X160657007Y-99085714D02*
X160657007Y-99171428D01*
X161257007Y-99600000D02*
X161214150Y-99514285D01*
X161214150Y-99514285D02*
X161128435Y-99471428D01*
X161128435Y-99471428D02*
X160357007Y-99471428D01*
X161257007Y-99942857D02*
X160657007Y-99942857D01*
X160357007Y-99942857D02*
X160399864Y-99900000D01*
X160399864Y-99900000D02*
X160442721Y-99942857D01*
X160442721Y-99942857D02*
X160399864Y-99985714D01*
X160399864Y-99985714D02*
X160357007Y-99942857D01*
X160357007Y-99942857D02*
X160442721Y-99942857D01*
X160657007Y-100757143D02*
X161385578Y-100757143D01*
X161385578Y-100757143D02*
X161471292Y-100714285D01*
X161471292Y-100714285D02*
X161514150Y-100671428D01*
X161514150Y-100671428D02*
X161557007Y-100585714D01*
X161557007Y-100585714D02*
X161557007Y-100457143D01*
X161557007Y-100457143D02*
X161514150Y-100371428D01*
X161214150Y-100757143D02*
X161257007Y-100671428D01*
X161257007Y-100671428D02*
X161257007Y-100500000D01*
X161257007Y-100500000D02*
X161214150Y-100414285D01*
X161214150Y-100414285D02*
X161171292Y-100371428D01*
X161171292Y-100371428D02*
X161085578Y-100328571D01*
X161085578Y-100328571D02*
X160828435Y-100328571D01*
X160828435Y-100328571D02*
X160742721Y-100371428D01*
X160742721Y-100371428D02*
X160699864Y-100414285D01*
X160699864Y-100414285D02*
X160657007Y-100500000D01*
X160657007Y-100500000D02*
X160657007Y-100671428D01*
X160657007Y-100671428D02*
X160699864Y-100757143D01*
X161257007Y-101185714D02*
X160357007Y-101185714D01*
X161257007Y-101571429D02*
X160785578Y-101571429D01*
X160785578Y-101571429D02*
X160699864Y-101528571D01*
X160699864Y-101528571D02*
X160657007Y-101442857D01*
X160657007Y-101442857D02*
X160657007Y-101314286D01*
X160657007Y-101314286D02*
X160699864Y-101228571D01*
X160699864Y-101228571D02*
X160742721Y-101185714D01*
X160657007Y-101871429D02*
X160657007Y-102214286D01*
X160357007Y-102000000D02*
X161128435Y-102000000D01*
X161128435Y-102000000D02*
X161214150Y-102042857D01*
X161214150Y-102042857D02*
X161257007Y-102128572D01*
X161257007Y-102128572D02*
X161257007Y-102214286D01*
X160785578Y-102514286D02*
X160785578Y-102814286D01*
X161257007Y-102942858D02*
X161257007Y-102514286D01*
X161257007Y-102514286D02*
X160357007Y-102514286D01*
X160357007Y-102514286D02*
X160357007Y-102942858D01*
X160657007Y-103242858D02*
X161257007Y-103457144D01*
X160657007Y-103671429D02*
X161257007Y-103457144D01*
X161257007Y-103457144D02*
X161471292Y-103371429D01*
X161471292Y-103371429D02*
X161514150Y-103328572D01*
X161514150Y-103328572D02*
X161557007Y-103242858D01*
X161214150Y-104357143D02*
X161257007Y-104271429D01*
X161257007Y-104271429D02*
X161257007Y-104100001D01*
X161257007Y-104100001D02*
X161214150Y-104014286D01*
X161214150Y-104014286D02*
X161128435Y-103971429D01*
X161128435Y-103971429D02*
X160785578Y-103971429D01*
X160785578Y-103971429D02*
X160699864Y-104014286D01*
X160699864Y-104014286D02*
X160657007Y-104100001D01*
X160657007Y-104100001D02*
X160657007Y-104271429D01*
X160657007Y-104271429D02*
X160699864Y-104357143D01*
X160699864Y-104357143D02*
X160785578Y-104400001D01*
X160785578Y-104400001D02*
X160871292Y-104400001D01*
X160871292Y-104400001D02*
X160957007Y-103971429D01*
X160657007Y-105385715D02*
X161257007Y-105600001D01*
X161257007Y-105600001D02*
X160657007Y-105814286D01*
X161257007Y-106628572D02*
X161257007Y-106114286D01*
X161257007Y-106371429D02*
X160357007Y-106371429D01*
X160357007Y-106371429D02*
X160485578Y-106285715D01*
X160485578Y-106285715D02*
X160571292Y-106200000D01*
X160571292Y-106200000D02*
X160614150Y-106114286D01*
X161171292Y-107014286D02*
X161214150Y-107057143D01*
X161214150Y-107057143D02*
X161257007Y-107014286D01*
X161257007Y-107014286D02*
X161214150Y-106971429D01*
X161214150Y-106971429D02*
X161171292Y-107014286D01*
X161171292Y-107014286D02*
X161257007Y-107014286D01*
X160357007Y-107357143D02*
X160357007Y-107957143D01*
X160357007Y-107957143D02*
X161257007Y-107571429D01*
X162705957Y-94371428D02*
X161805957Y-94371428D01*
X161805957Y-94371428D02*
X161805957Y-94585714D01*
X161805957Y-94585714D02*
X161848814Y-94714285D01*
X161848814Y-94714285D02*
X161934528Y-94800000D01*
X161934528Y-94800000D02*
X162020242Y-94842857D01*
X162020242Y-94842857D02*
X162191671Y-94885714D01*
X162191671Y-94885714D02*
X162320242Y-94885714D01*
X162320242Y-94885714D02*
X162491671Y-94842857D01*
X162491671Y-94842857D02*
X162577385Y-94800000D01*
X162577385Y-94800000D02*
X162663100Y-94714285D01*
X162663100Y-94714285D02*
X162705957Y-94585714D01*
X162705957Y-94585714D02*
X162705957Y-94371428D01*
X162663100Y-95614285D02*
X162705957Y-95528571D01*
X162705957Y-95528571D02*
X162705957Y-95357143D01*
X162705957Y-95357143D02*
X162663100Y-95271428D01*
X162663100Y-95271428D02*
X162577385Y-95228571D01*
X162577385Y-95228571D02*
X162234528Y-95228571D01*
X162234528Y-95228571D02*
X162148814Y-95271428D01*
X162148814Y-95271428D02*
X162105957Y-95357143D01*
X162105957Y-95357143D02*
X162105957Y-95528571D01*
X162105957Y-95528571D02*
X162148814Y-95614285D01*
X162148814Y-95614285D02*
X162234528Y-95657143D01*
X162234528Y-95657143D02*
X162320242Y-95657143D01*
X162320242Y-95657143D02*
X162405957Y-95228571D01*
X162663100Y-96000000D02*
X162705957Y-96085714D01*
X162705957Y-96085714D02*
X162705957Y-96257143D01*
X162705957Y-96257143D02*
X162663100Y-96342857D01*
X162663100Y-96342857D02*
X162577385Y-96385714D01*
X162577385Y-96385714D02*
X162534528Y-96385714D01*
X162534528Y-96385714D02*
X162448814Y-96342857D01*
X162448814Y-96342857D02*
X162405957Y-96257143D01*
X162405957Y-96257143D02*
X162405957Y-96128572D01*
X162405957Y-96128572D02*
X162363100Y-96042857D01*
X162363100Y-96042857D02*
X162277385Y-96000000D01*
X162277385Y-96000000D02*
X162234528Y-96000000D01*
X162234528Y-96000000D02*
X162148814Y-96042857D01*
X162148814Y-96042857D02*
X162105957Y-96128572D01*
X162105957Y-96128572D02*
X162105957Y-96257143D01*
X162105957Y-96257143D02*
X162148814Y-96342857D01*
X162705957Y-96771428D02*
X162105957Y-96771428D01*
X161805957Y-96771428D02*
X161848814Y-96728571D01*
X161848814Y-96728571D02*
X161891671Y-96771428D01*
X161891671Y-96771428D02*
X161848814Y-96814285D01*
X161848814Y-96814285D02*
X161805957Y-96771428D01*
X161805957Y-96771428D02*
X161891671Y-96771428D01*
X162105957Y-97585714D02*
X162834528Y-97585714D01*
X162834528Y-97585714D02*
X162920242Y-97542856D01*
X162920242Y-97542856D02*
X162963100Y-97499999D01*
X162963100Y-97499999D02*
X163005957Y-97414285D01*
X163005957Y-97414285D02*
X163005957Y-97285714D01*
X163005957Y-97285714D02*
X162963100Y-97199999D01*
X162663100Y-97585714D02*
X162705957Y-97499999D01*
X162705957Y-97499999D02*
X162705957Y-97328571D01*
X162705957Y-97328571D02*
X162663100Y-97242856D01*
X162663100Y-97242856D02*
X162620242Y-97199999D01*
X162620242Y-97199999D02*
X162534528Y-97157142D01*
X162534528Y-97157142D02*
X162277385Y-97157142D01*
X162277385Y-97157142D02*
X162191671Y-97199999D01*
X162191671Y-97199999D02*
X162148814Y-97242856D01*
X162148814Y-97242856D02*
X162105957Y-97328571D01*
X162105957Y-97328571D02*
X162105957Y-97499999D01*
X162105957Y-97499999D02*
X162148814Y-97585714D01*
X162105957Y-98014285D02*
X162705957Y-98014285D01*
X162191671Y-98014285D02*
X162148814Y-98057142D01*
X162148814Y-98057142D02*
X162105957Y-98142857D01*
X162105957Y-98142857D02*
X162105957Y-98271428D01*
X162105957Y-98271428D02*
X162148814Y-98357142D01*
X162148814Y-98357142D02*
X162234528Y-98400000D01*
X162234528Y-98400000D02*
X162705957Y-98400000D01*
X162663100Y-99171428D02*
X162705957Y-99085714D01*
X162705957Y-99085714D02*
X162705957Y-98914286D01*
X162705957Y-98914286D02*
X162663100Y-98828571D01*
X162663100Y-98828571D02*
X162577385Y-98785714D01*
X162577385Y-98785714D02*
X162234528Y-98785714D01*
X162234528Y-98785714D02*
X162148814Y-98828571D01*
X162148814Y-98828571D02*
X162105957Y-98914286D01*
X162105957Y-98914286D02*
X162105957Y-99085714D01*
X162105957Y-99085714D02*
X162148814Y-99171428D01*
X162148814Y-99171428D02*
X162234528Y-99214286D01*
X162234528Y-99214286D02*
X162320242Y-99214286D01*
X162320242Y-99214286D02*
X162405957Y-98785714D01*
X162705957Y-99985715D02*
X161805957Y-99985715D01*
X162663100Y-99985715D02*
X162705957Y-99900000D01*
X162705957Y-99900000D02*
X162705957Y-99728572D01*
X162705957Y-99728572D02*
X162663100Y-99642857D01*
X162663100Y-99642857D02*
X162620242Y-99600000D01*
X162620242Y-99600000D02*
X162534528Y-99557143D01*
X162534528Y-99557143D02*
X162277385Y-99557143D01*
X162277385Y-99557143D02*
X162191671Y-99600000D01*
X162191671Y-99600000D02*
X162148814Y-99642857D01*
X162148814Y-99642857D02*
X162105957Y-99728572D01*
X162105957Y-99728572D02*
X162105957Y-99900000D01*
X162105957Y-99900000D02*
X162148814Y-99985715D01*
X162705957Y-101100000D02*
X161805957Y-101100000D01*
X162148814Y-101100000D02*
X162105957Y-101185715D01*
X162105957Y-101185715D02*
X162105957Y-101357143D01*
X162105957Y-101357143D02*
X162148814Y-101442857D01*
X162148814Y-101442857D02*
X162191671Y-101485715D01*
X162191671Y-101485715D02*
X162277385Y-101528572D01*
X162277385Y-101528572D02*
X162534528Y-101528572D01*
X162534528Y-101528572D02*
X162620242Y-101485715D01*
X162620242Y-101485715D02*
X162663100Y-101442857D01*
X162663100Y-101442857D02*
X162705957Y-101357143D01*
X162705957Y-101357143D02*
X162705957Y-101185715D01*
X162705957Y-101185715D02*
X162663100Y-101100000D01*
X162105957Y-101828572D02*
X162705957Y-102042858D01*
X162105957Y-102257143D02*
X162705957Y-102042858D01*
X162705957Y-102042858D02*
X162920242Y-101957143D01*
X162920242Y-101957143D02*
X162963100Y-101914286D01*
X162963100Y-101914286D02*
X163005957Y-101828572D01*
X161805957Y-103200000D02*
X162705957Y-103414286D01*
X162705957Y-103414286D02*
X162063100Y-103585714D01*
X162063100Y-103585714D02*
X162705957Y-103757143D01*
X162705957Y-103757143D02*
X161805957Y-103971429D01*
X162705957Y-104314285D02*
X162105957Y-104314285D01*
X161805957Y-104314285D02*
X161848814Y-104271428D01*
X161848814Y-104271428D02*
X161891671Y-104314285D01*
X161891671Y-104314285D02*
X161848814Y-104357142D01*
X161848814Y-104357142D02*
X161805957Y-104314285D01*
X161805957Y-104314285D02*
X161891671Y-104314285D01*
X162705957Y-104871428D02*
X162663100Y-104785713D01*
X162663100Y-104785713D02*
X162577385Y-104742856D01*
X162577385Y-104742856D02*
X161805957Y-104742856D01*
X162705957Y-105342857D02*
X162663100Y-105257142D01*
X162663100Y-105257142D02*
X162577385Y-105214285D01*
X162577385Y-105214285D02*
X161805957Y-105214285D01*
X161805957Y-106285714D02*
X162705957Y-106500000D01*
X162705957Y-106500000D02*
X162063100Y-106671428D01*
X162063100Y-106671428D02*
X162705957Y-106842857D01*
X162705957Y-106842857D02*
X161805957Y-107057143D01*
X162705957Y-107399999D02*
X161805957Y-107399999D01*
X162705957Y-107785714D02*
X162234528Y-107785714D01*
X162234528Y-107785714D02*
X162148814Y-107742856D01*
X162148814Y-107742856D02*
X162105957Y-107657142D01*
X162105957Y-107657142D02*
X162105957Y-107528571D01*
X162105957Y-107528571D02*
X162148814Y-107442856D01*
X162148814Y-107442856D02*
X162191671Y-107399999D01*
X162705957Y-108600000D02*
X162234528Y-108600000D01*
X162234528Y-108600000D02*
X162148814Y-108557142D01*
X162148814Y-108557142D02*
X162105957Y-108471428D01*
X162105957Y-108471428D02*
X162105957Y-108300000D01*
X162105957Y-108300000D02*
X162148814Y-108214285D01*
X162663100Y-108600000D02*
X162705957Y-108514285D01*
X162705957Y-108514285D02*
X162705957Y-108300000D01*
X162705957Y-108300000D02*
X162663100Y-108214285D01*
X162663100Y-108214285D02*
X162577385Y-108171428D01*
X162577385Y-108171428D02*
X162491671Y-108171428D01*
X162491671Y-108171428D02*
X162405957Y-108214285D01*
X162405957Y-108214285D02*
X162363100Y-108300000D01*
X162363100Y-108300000D02*
X162363100Y-108514285D01*
X162363100Y-108514285D02*
X162320242Y-108600000D01*
X162105957Y-109028571D02*
X162705957Y-109028571D01*
X162191671Y-109028571D02*
X162148814Y-109071428D01*
X162148814Y-109071428D02*
X162105957Y-109157143D01*
X162105957Y-109157143D02*
X162105957Y-109285714D01*
X162105957Y-109285714D02*
X162148814Y-109371428D01*
X162148814Y-109371428D02*
X162234528Y-109414286D01*
X162234528Y-109414286D02*
X162705957Y-109414286D01*
X162105957Y-110228572D02*
X162834528Y-110228572D01*
X162834528Y-110228572D02*
X162920242Y-110185714D01*
X162920242Y-110185714D02*
X162963100Y-110142857D01*
X162963100Y-110142857D02*
X163005957Y-110057143D01*
X163005957Y-110057143D02*
X163005957Y-109928572D01*
X163005957Y-109928572D02*
X162963100Y-109842857D01*
X162663100Y-110228572D02*
X162705957Y-110142857D01*
X162705957Y-110142857D02*
X162705957Y-109971429D01*
X162705957Y-109971429D02*
X162663100Y-109885714D01*
X162663100Y-109885714D02*
X162620242Y-109842857D01*
X162620242Y-109842857D02*
X162534528Y-109800000D01*
X162534528Y-109800000D02*
X162277385Y-109800000D01*
X162277385Y-109800000D02*
X162191671Y-109842857D01*
X162191671Y-109842857D02*
X162148814Y-109885714D01*
X162148814Y-109885714D02*
X162105957Y-109971429D01*
X162105957Y-109971429D02*
X162105957Y-110142857D01*
X162105957Y-110142857D02*
X162148814Y-110228572D01*
X163340621Y-98099999D02*
X163297764Y-98142856D01*
X163297764Y-98142856D02*
X163254907Y-98228571D01*
X163254907Y-98228571D02*
X163254907Y-98442856D01*
X163254907Y-98442856D02*
X163297764Y-98528571D01*
X163297764Y-98528571D02*
X163340621Y-98571428D01*
X163340621Y-98571428D02*
X163426335Y-98614285D01*
X163426335Y-98614285D02*
X163512050Y-98614285D01*
X163512050Y-98614285D02*
X163640621Y-98571428D01*
X163640621Y-98571428D02*
X164154907Y-98057142D01*
X164154907Y-98057142D02*
X164154907Y-98614285D01*
X163254907Y-99171428D02*
X163254907Y-99257142D01*
X163254907Y-99257142D02*
X163297764Y-99342856D01*
X163297764Y-99342856D02*
X163340621Y-99385714D01*
X163340621Y-99385714D02*
X163426335Y-99428571D01*
X163426335Y-99428571D02*
X163597764Y-99471428D01*
X163597764Y-99471428D02*
X163812050Y-99471428D01*
X163812050Y-99471428D02*
X163983478Y-99428571D01*
X163983478Y-99428571D02*
X164069192Y-99385714D01*
X164069192Y-99385714D02*
X164112050Y-99342856D01*
X164112050Y-99342856D02*
X164154907Y-99257142D01*
X164154907Y-99257142D02*
X164154907Y-99171428D01*
X164154907Y-99171428D02*
X164112050Y-99085714D01*
X164112050Y-99085714D02*
X164069192Y-99042856D01*
X164069192Y-99042856D02*
X163983478Y-98999999D01*
X163983478Y-98999999D02*
X163812050Y-98957142D01*
X163812050Y-98957142D02*
X163597764Y-98957142D01*
X163597764Y-98957142D02*
X163426335Y-98999999D01*
X163426335Y-98999999D02*
X163340621Y-99042856D01*
X163340621Y-99042856D02*
X163297764Y-99085714D01*
X163297764Y-99085714D02*
X163254907Y-99171428D01*
X163340621Y-99814285D02*
X163297764Y-99857142D01*
X163297764Y-99857142D02*
X163254907Y-99942857D01*
X163254907Y-99942857D02*
X163254907Y-100157142D01*
X163254907Y-100157142D02*
X163297764Y-100242857D01*
X163297764Y-100242857D02*
X163340621Y-100285714D01*
X163340621Y-100285714D02*
X163426335Y-100328571D01*
X163426335Y-100328571D02*
X163512050Y-100328571D01*
X163512050Y-100328571D02*
X163640621Y-100285714D01*
X163640621Y-100285714D02*
X164154907Y-99771428D01*
X164154907Y-99771428D02*
X164154907Y-100328571D01*
X163554907Y-101100000D02*
X164154907Y-101100000D01*
X163212050Y-100885714D02*
X163854907Y-100671428D01*
X163854907Y-100671428D02*
X163854907Y-101228571D01*
X163212050Y-102214285D02*
X164369192Y-101442857D01*
X163254907Y-102685714D02*
X163254907Y-102771428D01*
X163254907Y-102771428D02*
X163297764Y-102857142D01*
X163297764Y-102857142D02*
X163340621Y-102900000D01*
X163340621Y-102900000D02*
X163426335Y-102942857D01*
X163426335Y-102942857D02*
X163597764Y-102985714D01*
X163597764Y-102985714D02*
X163812050Y-102985714D01*
X163812050Y-102985714D02*
X163983478Y-102942857D01*
X163983478Y-102942857D02*
X164069192Y-102900000D01*
X164069192Y-102900000D02*
X164112050Y-102857142D01*
X164112050Y-102857142D02*
X164154907Y-102771428D01*
X164154907Y-102771428D02*
X164154907Y-102685714D01*
X164154907Y-102685714D02*
X164112050Y-102600000D01*
X164112050Y-102600000D02*
X164069192Y-102557142D01*
X164069192Y-102557142D02*
X163983478Y-102514285D01*
X163983478Y-102514285D02*
X163812050Y-102471428D01*
X163812050Y-102471428D02*
X163597764Y-102471428D01*
X163597764Y-102471428D02*
X163426335Y-102514285D01*
X163426335Y-102514285D02*
X163340621Y-102557142D01*
X163340621Y-102557142D02*
X163297764Y-102600000D01*
X163297764Y-102600000D02*
X163254907Y-102685714D01*
X163640621Y-103500000D02*
X163597764Y-103414285D01*
X163597764Y-103414285D02*
X163554907Y-103371428D01*
X163554907Y-103371428D02*
X163469192Y-103328571D01*
X163469192Y-103328571D02*
X163426335Y-103328571D01*
X163426335Y-103328571D02*
X163340621Y-103371428D01*
X163340621Y-103371428D02*
X163297764Y-103414285D01*
X163297764Y-103414285D02*
X163254907Y-103500000D01*
X163254907Y-103500000D02*
X163254907Y-103671428D01*
X163254907Y-103671428D02*
X163297764Y-103757143D01*
X163297764Y-103757143D02*
X163340621Y-103800000D01*
X163340621Y-103800000D02*
X163426335Y-103842857D01*
X163426335Y-103842857D02*
X163469192Y-103842857D01*
X163469192Y-103842857D02*
X163554907Y-103800000D01*
X163554907Y-103800000D02*
X163597764Y-103757143D01*
X163597764Y-103757143D02*
X163640621Y-103671428D01*
X163640621Y-103671428D02*
X163640621Y-103500000D01*
X163640621Y-103500000D02*
X163683478Y-103414285D01*
X163683478Y-103414285D02*
X163726335Y-103371428D01*
X163726335Y-103371428D02*
X163812050Y-103328571D01*
X163812050Y-103328571D02*
X163983478Y-103328571D01*
X163983478Y-103328571D02*
X164069192Y-103371428D01*
X164069192Y-103371428D02*
X164112050Y-103414285D01*
X164112050Y-103414285D02*
X164154907Y-103500000D01*
X164154907Y-103500000D02*
X164154907Y-103671428D01*
X164154907Y-103671428D02*
X164112050Y-103757143D01*
X164112050Y-103757143D02*
X164069192Y-103800000D01*
X164069192Y-103800000D02*
X163983478Y-103842857D01*
X163983478Y-103842857D02*
X163812050Y-103842857D01*
X163812050Y-103842857D02*
X163726335Y-103800000D01*
X163726335Y-103800000D02*
X163683478Y-103757143D01*
X163683478Y-103757143D02*
X163640621Y-103671428D01*
X163212050Y-104871428D02*
X164369192Y-104100000D01*
X163254907Y-105342857D02*
X163254907Y-105428571D01*
X163254907Y-105428571D02*
X163297764Y-105514285D01*
X163297764Y-105514285D02*
X163340621Y-105557143D01*
X163340621Y-105557143D02*
X163426335Y-105600000D01*
X163426335Y-105600000D02*
X163597764Y-105642857D01*
X163597764Y-105642857D02*
X163812050Y-105642857D01*
X163812050Y-105642857D02*
X163983478Y-105600000D01*
X163983478Y-105600000D02*
X164069192Y-105557143D01*
X164069192Y-105557143D02*
X164112050Y-105514285D01*
X164112050Y-105514285D02*
X164154907Y-105428571D01*
X164154907Y-105428571D02*
X164154907Y-105342857D01*
X164154907Y-105342857D02*
X164112050Y-105257143D01*
X164112050Y-105257143D02*
X164069192Y-105214285D01*
X164069192Y-105214285D02*
X163983478Y-105171428D01*
X163983478Y-105171428D02*
X163812050Y-105128571D01*
X163812050Y-105128571D02*
X163597764Y-105128571D01*
X163597764Y-105128571D02*
X163426335Y-105171428D01*
X163426335Y-105171428D02*
X163340621Y-105214285D01*
X163340621Y-105214285D02*
X163297764Y-105257143D01*
X163297764Y-105257143D02*
X163254907Y-105342857D01*
X163254907Y-105942857D02*
X163254907Y-106500000D01*
X163254907Y-106500000D02*
X163597764Y-106200000D01*
X163597764Y-106200000D02*
X163597764Y-106328571D01*
X163597764Y-106328571D02*
X163640621Y-106414286D01*
X163640621Y-106414286D02*
X163683478Y-106457143D01*
X163683478Y-106457143D02*
X163769192Y-106500000D01*
X163769192Y-106500000D02*
X163983478Y-106500000D01*
X163983478Y-106500000D02*
X164069192Y-106457143D01*
X164069192Y-106457143D02*
X164112050Y-106414286D01*
X164112050Y-106414286D02*
X164154907Y-106328571D01*
X164154907Y-106328571D02*
X164154907Y-106071428D01*
X164154907Y-106071428D02*
X164112050Y-105985714D01*
X164112050Y-105985714D02*
X164069192Y-105942857D01*
D10*
X163619771Y-114199999D02*
X164048342Y-114199999D01*
X164048342Y-114199999D02*
X164134057Y-114171428D01*
X164134057Y-114171428D02*
X164191200Y-114114285D01*
X164191200Y-114114285D02*
X164219771Y-114028571D01*
X164219771Y-114028571D02*
X164219771Y-113971428D01*
X163619771Y-114742857D02*
X163619771Y-114628571D01*
X163619771Y-114628571D02*
X163648342Y-114571428D01*
X163648342Y-114571428D02*
X163676914Y-114542857D01*
X163676914Y-114542857D02*
X163762628Y-114485714D01*
X163762628Y-114485714D02*
X163876914Y-114457142D01*
X163876914Y-114457142D02*
X164105485Y-114457142D01*
X164105485Y-114457142D02*
X164162628Y-114485714D01*
X164162628Y-114485714D02*
X164191200Y-114514285D01*
X164191200Y-114514285D02*
X164219771Y-114571428D01*
X164219771Y-114571428D02*
X164219771Y-114685714D01*
X164219771Y-114685714D02*
X164191200Y-114742857D01*
X164191200Y-114742857D02*
X164162628Y-114771428D01*
X164162628Y-114771428D02*
X164105485Y-114799999D01*
X164105485Y-114799999D02*
X163962628Y-114799999D01*
X163962628Y-114799999D02*
X163905485Y-114771428D01*
X163905485Y-114771428D02*
X163876914Y-114742857D01*
X163876914Y-114742857D02*
X163848342Y-114685714D01*
X163848342Y-114685714D02*
X163848342Y-114571428D01*
X163848342Y-114571428D02*
X163876914Y-114514285D01*
X163876914Y-114514285D02*
X163905485Y-114485714D01*
X163905485Y-114485714D02*
X163962628Y-114457142D01*
D12*
G04 #@! TO.C,J6*
X164640000Y-119535000D02*
X163690000Y-119535000D01*
X163690000Y-115065000D02*
X163690000Y-116015000D01*
X167610000Y-115435000D02*
X167610000Y-119165000D01*
X164640000Y-115065000D02*
X163690000Y-115065000D01*
X163690000Y-116015000D02*
X163000000Y-116015000D01*
X163690000Y-119535000D02*
X163690000Y-118585000D01*
G04 #@! TO.C,U4*
D13*
X136862500Y-99500000D02*
G75*
G02*
X136537500Y-99500000I-162500J0D01*
G01*
X136537500Y-99500000D02*
G75*
G02*
X136862500Y-99500000I162500J0D01*
G01*
G04 #@! TD*
M02*
