M48
; DRILL file {KiCad 8.0.4} date 2025-06-24T19:39:12-0700
; FORMAT={-:-/ absolute / inch / decimal}
; #@! TF.CreationDate,2025-06-24T19:39:12-07:00
; #@! TF.GenerationSoftware,Kicad,Pcbnew,8.0.4
; #@! TF.FileFunction,Plated,1,4,PTH
FMAT,2
INCH
; #@! TA.AperFunction,Plated,PTH,ViaDrill
T1C0.0079
%
G90
G05
T1
X3.3071Y-2.2087
X3.3071Y-2.252
X3.3071Y-2.2953
X3.3071Y-2.3504
X3.3071Y-2.4094
X3.3071Y-2.4685
X3.3071Y-2.5236
X3.3071Y-2.5787
X3.3071Y-2.6299
X3.3071Y-2.689
X3.3071Y-2.7362
X3.3071Y-2.8031
X3.3071Y-2.8622
X3.3071Y-2.9173
X3.3071Y-2.9685
X3.3071Y-3.0157
X3.3071Y-3.0591
X3.3071Y-3.1024
X3.3071Y-3.1535
X3.3071Y-3.1969
X3.3071Y-3.2362
X3.3071Y-3.2874
X3.3071Y-3.3583
X3.3071Y-3.3858
X3.3228Y-3.2598
X3.3346Y-2.2283
X3.3504Y-2.7835
X3.3504Y-2.815
X3.3504Y-3.3543
X3.3524Y-3.2205
X3.3622Y-2.7205
X3.378Y-2.7835
X3.378Y-2.815
X3.3927Y-2.5254
X3.3937Y-2.2874
X3.3937Y-2.4094
X3.3937Y-3.3543
X3.3976Y-2.9409
X3.3976Y-2.9724
X3.4016Y-2.9961
X3.4016Y-3.0236
X3.4016Y-3.0512
X3.4173Y-2.7598
X3.4173Y-2.7874
X3.4173Y-2.815
X3.4291Y-2.2283
X3.4291Y-3.0236
X3.4291Y-3.0512
X3.4449Y-2.7323
X3.4449Y-2.7598
X3.4449Y-2.7874
X3.4449Y-2.815
X3.4498Y-3.1575
X3.4498Y-3.2185
X3.4508Y-3.187
X3.4567Y-3.0512
X3.4685Y-2.0472
X3.4685Y-2.8543
X3.4685Y-2.8819
X3.4685Y-2.9094
X3.4685Y-2.9331
X3.4685Y-2.9685
X3.4685Y-3.252
X3.4685Y-3.2992
X3.4685Y-3.3237
X3.4724Y-2.2047
X3.4724Y-2.7047
X3.4724Y-2.7323
X3.4724Y-2.7598
X3.4724Y-2.7874
X3.4724Y-2.815
X3.4764Y-3.5433
X3.4803Y-3.1575
X3.4803Y-3.187
X3.4803Y-3.2185
X3.4803Y-3.2756
X3.4941Y-3.252
X3.4961Y-2.1693
X3.4961Y-2.9094
X3.4961Y-2.9331
X3.5Y-2.0472
X3.5Y-2.0866
X3.5Y-2.1299
X3.5Y-2.6772
X3.5Y-2.7047
X3.5Y-2.7323
X3.5Y-2.7598
X3.5Y-2.7874
X3.5Y-2.815
X3.5Y-3.0039
X3.5039Y-3.3228
X3.5039Y-3.4685
X3.5039Y-3.5157
X3.5079Y-2.8425
X3.5079Y-3.187
X3.5089Y-3.1575
X3.5089Y-3.2185
X3.5118Y-2.2516
X3.5118Y-2.3657
X3.5118Y-2.4799
X3.5236Y-2.9094
X3.5236Y-2.9331
X3.5276Y-3.5433
X3.5315Y-2.6772
X3.5315Y-2.7047
X3.5315Y-2.7323
X3.5315Y-2.7598
X3.5315Y-2.7874
X3.5315Y-3.4921
X3.5354Y-3.0709
X3.5354Y-3.0984
X3.5354Y-3.126
X3.5433Y-2.1063
X3.5433Y-2.1654
X3.5472Y-2.0472
X3.5512Y-2.5886
X3.5512Y-2.9094
X3.5512Y-2.9331
X3.5512Y-3.4291
X3.5551Y-3.5157
X3.5591Y-3.1496
X3.5591Y-3.1772
X3.5591Y-3.2087
X3.5591Y-3.2362
X3.563Y-2.1969
X3.563Y-3.3067
X3.563Y-3.5433
X3.5669Y-2.6772
X3.5669Y-2.7047
X3.5669Y-2.7323
X3.5669Y-3.0
X3.5787Y-2.9094
X3.5787Y-2.9331
X3.5906Y-3.1496
X3.5906Y-3.1772
X3.5906Y-3.2087
X3.5906Y-3.2362
X3.5984Y-2.0472
X3.5984Y-2.6772
X3.5984Y-2.7047
X3.5984Y-3.5433
X3.6024Y-2.1939
X3.6063Y-2.8504
X3.6063Y-2.878
X3.6063Y-2.9134
X3.6063Y-2.9409
X3.6063Y-2.9685
X3.6063Y-2.9961
X3.6102Y-2.7803
X3.6142Y-3.1004
X3.6299Y-2.6772
X3.6339Y-2.8504
X3.6339Y-2.878
X3.6339Y-2.9134
X3.6339Y-2.9409
X3.6339Y-2.9685
X3.6398Y-3.0728
X3.6398Y-3.126
X3.6398Y-3.1831
X3.6398Y-3.2441
X3.6398Y-3.2933
X3.6398Y-3.3346
X3.6417Y-2.1969
X3.6437Y-2.5886
X3.6457Y-2.0472
X3.6457Y-3.5433
X3.6476Y-3.4252
X3.6476Y-3.4547
X3.6496Y-2.7244
X3.6614Y-2.1043
X3.6614Y-2.1634
X3.6614Y-2.6772
X3.6634Y-3.1004
X3.6634Y-3.1594
X3.6634Y-3.2126
X3.6634Y-3.2717
X3.6693Y-3.3346
X3.6693Y-3.3622
X3.6752Y-3.4252
X3.6752Y-3.4547
X3.6929Y-2.0472
X3.6929Y-3.5433
X3.6988Y-2.6201
X3.7008Y-2.6772
X3.7008Y-2.8465
X3.7016Y-2.9724
X3.7067Y-3.3622
X3.7087Y-2.9134
X3.7402Y-2.1063
X3.7402Y-2.1654
X3.7402Y-3.5433
X3.7441Y-2.0472
X3.748Y-3.3622
X3.75Y-2.6102
X3.75Y-2.6772
X3.7598Y-2.1969
X3.7598Y-2.7972
X3.7598Y-2.9154
X3.7638Y-3.1535
X3.7638Y-3.1791
X3.7874Y-2.0472
X3.7913Y-3.5433
X3.7933Y-3.1535
X3.7933Y-3.1786
X3.7953Y-2.3996
X3.7953Y-2.4291
X3.7992Y-2.1939
X3.8071Y-2.5492
X3.8189Y-2.7362
X3.8189Y-3.0315
X3.8189Y-3.0906
X3.8209Y-2.7756
X3.8209Y-2.7972
X3.8228Y-3.2958
X3.8307Y-2.8543
X3.8307Y-2.9055
X3.8307Y-3.1914
X3.8307Y-3.2249
X3.8307Y-3.4272
X3.8307Y-3.4587
X3.8346Y-2.0472
X3.8346Y-3.5433
X3.8386Y-2.1969
X3.8465Y-2.437
X3.8474Y-2.4646
X3.8583Y-2.1063
X3.8583Y-2.1654
X3.8602Y-3.2805
X3.8622Y-3.1914
X3.8622Y-3.2249
X3.8622Y-3.4272
X3.8622Y-3.4587
X3.874Y-2.4646
X3.876Y-3.1417
X3.878Y-2.4134
X3.878Y-2.6201
X3.878Y-2.6772
X3.878Y-2.7264
X3.878Y-2.7972
X3.878Y-2.8543
X3.878Y-2.9134
X3.8819Y-3.5433
X3.8858Y-2.0472
X3.9075Y-2.4702
X3.9217Y-2.2126
X3.9252Y-2.1024
X3.935Y-3.1339
X3.935Y-3.1752
X3.935Y-3.2165
X3.935Y-3.2579
X3.937Y-2.6201
X3.937Y-2.6791
X3.937Y-2.9134
X3.937Y-3.5433
X3.9409Y-2.0472
X3.9449Y-2.3701
X3.9449Y-2.4173
X3.952Y-3.311
X3.9528Y-3.3917
X3.9606Y-2.3937
X3.9626Y-3.5197
X3.9685Y-2.2244
X3.9685Y-2.2776
X3.9685Y-2.3307
X3.9705Y-3.1555
X3.9882Y-2.0472
X3.9882Y-3.5433
X3.9902Y-2.3937
X3.9961Y-2.1063
X3.9961Y-2.1654
X3.9961Y-2.6201
X3.9961Y-2.6516
X3.9961Y-2.9134
X4.0138Y-3.1791
X4.0236Y-2.4646
X4.0256Y-2.5315
X4.0256Y-3.002
X4.0354Y-2.2598
X4.0354Y-2.2992
X4.0354Y-2.3386
X4.0354Y-2.3858
X4.0354Y-3.5433
X4.0394Y-2.0472
X4.0402Y-3.2008
X4.0413Y-3.1555
X4.0551Y-2.498
X4.0551Y-2.5591
X4.0591Y-2.2402
X4.078Y-3.2008
X4.0807Y-3.1299
X4.0827Y-2.0472
X4.0827Y-2.4646
X4.0827Y-2.5315
X4.0827Y-3.2244
X4.0827Y-3.5433
X4.0866Y-2.3858
X4.0866Y-3.002
X4.0992Y-2.2402
X4.1063Y-3.3543
X4.1102Y-2.1063
X4.1102Y-2.1654
X4.1142Y-2.5
X4.1142Y-2.5591
X4.1142Y-2.9134
X4.1142Y-3.0315
X4.1142Y-3.0906
X4.1299Y-2.0472
X4.1299Y-3.1299
X4.1299Y-3.5433
X4.1319Y-3.378
X4.137Y-2.2402
X4.1437Y-2.6457
X4.1594Y-3.3543
X4.1594Y-3.4016
X4.1732Y-2.185
X4.1732Y-2.5
X4.1732Y-2.5591
X4.1732Y-2.9134
X4.1732Y-3.0315
X4.1732Y-3.0906
X4.1732Y-3.5433
X4.1752Y-2.6772
X4.1772Y-2.3346
X4.1772Y-2.3858
X4.1811Y-2.0472
X4.1811Y-3.1299
X4.1929Y-3.3543
X4.1969Y-2.4567
X4.2047Y-2.2717
X4.2165Y-2.5295
X4.2244Y-2.0472
X4.2323Y-2.4646
X4.2323Y-2.5118
X4.2323Y-2.5472
X4.2323Y-2.5984
X4.2323Y-2.7362
X4.2323Y-2.7953
X4.2323Y-2.8563
X4.2323Y-2.9378
X4.2323Y-2.9961
X4.252Y-2.2244
X4.2638Y-2.439
X4.2697Y-2.313
X4.2717Y-2.0472
X4.2756Y-2.5295
X4.276Y-3.2008
X4.2835Y-2.1693
X4.2854Y-3.4508
X4.2913Y-2.4646
X4.2913Y-2.5118
X4.2913Y-2.5472
X4.2913Y-2.5984
X4.2913Y-2.7362
X4.2913Y-2.7953
X4.2913Y-2.8543
X4.2913Y-2.9252
X4.2923Y-3.2756
X4.2933Y-2.9744
X4.2953Y-2.1063
X4.315Y-2.437
X4.3228Y-2.0472
X4.3248Y-2.7677
X4.3256Y-3.2264
X4.3287Y-2.2776
X4.3346Y-3.5394
X4.3386Y-2.4646
X4.3386Y-3.4508
X4.3484Y-2.1417
X4.3484Y-2.1713
X4.3512Y-2.7953
X4.3622Y-2.0472
X4.3622Y-3.1535
X4.3622Y-3.1862
X4.3661Y-2.6693
X4.3669Y-2.2402
X4.3701Y-2.435
X4.3799Y-2.6437
X4.3819Y-3.5039
X4.3878Y-2.4646
X4.3917Y-2.2795
X4.3937Y-2.6693
X4.3996Y-2.7953
X4.4047Y-2.2402
X4.4094Y-2.0472
X4.4134Y-3.2657
X4.4213Y-2.4528
X4.4291Y-3.5039
X4.435Y-2.2244
X4.437Y-3.189
X4.439Y-2.8937
X4.4417Y-2.2795
X4.4469Y-3.2264
X4.4508Y-2.9547
X4.4528Y-2.0472
X4.4528Y-2.4449
X4.4547Y-3.0236
X4.4547Y-3.0709
X4.4606Y-2.4764
X4.4606Y-2.9075
X4.4646Y-2.7264
X4.4665Y-2.9902
X4.4724Y-2.1063
X4.4724Y-3.2264
X4.4764Y-3.5039
X4.4795Y-2.2795
X4.4843Y-2.4488
X4.4862Y-2.9075
X4.4862Y-3.0394
X4.4882Y-2.0472
X4.4882Y-2.7136
X4.4882Y-2.7392
X4.4902Y-2.9469
X4.4921Y-2.1693
X4.4961Y-2.1417
X4.4961Y-2.2126
X4.5Y-3.3504
X4.5Y-3.4291
X4.5039Y-2.4764
X4.5059Y-2.8937
X4.5059Y-2.9783
X4.5085Y-2.0742
X4.5138Y-3.4862
X4.5157Y-3.0118
X4.5197Y-3.1122
X4.5217Y-2.1988
X4.5217Y-2.2953
X4.5276Y-2.0472
X4.5276Y-2.4488
X4.5315Y-2.4961
X4.5315Y-2.9429
X4.5315Y-3.5118
X4.5374Y-3.4528
X4.5413Y-2.9075
X4.5433Y-3.5472
X4.5441Y-2.0945
X4.5453Y-2.9843
X4.5512Y-2.4724
X4.5512Y-2.5512
X4.5551Y-2.5157
X4.563Y-3.4803
X4.5638Y-2.315
X4.565Y-2.2047
X4.5669Y-2.0472
X4.5709Y-2.9587
X4.5748Y-3.5157
X4.5768Y-2.9075
X4.5787Y-3.5472
X4.5807Y-2.1732
X4.5807Y-2.2362
X4.5819Y-2.0945
X4.5827Y-2.4961
X4.5827Y-2.5512
X4.5866Y-2.0669
X4.5906Y-2.5276
X4.5906Y-3.4528
X4.5984Y-2.9429
X4.6016Y-2.315
X4.6024Y-3.4921
X4.6063Y-2.0472
X4.6063Y-3.0413
X4.6083Y-3.1654
X4.6083Y-3.2047
X4.6102Y-2.1142
X4.6102Y-2.1654
X4.6181Y-3.4291
X4.6181Y-3.5197
X4.6181Y-3.5472
X4.624Y-2.0748
X4.624Y-2.9429
X4.6339Y-2.1929
X4.6376Y-3.4015
X4.6398Y-2.5492
X4.6457Y-2.0472
X4.6457Y-3.5472
X4.6476Y-3.2835
X4.6496Y-3.2441
X4.6535Y-2.9035
X4.6693Y-3.3701
X4.6752Y-2.9823
X4.6772Y-2.2244
X4.7087Y-2.9626
X4.7087Y-3.3583
X4.7126Y-2.2559
X4.7264Y-3.0059
X4.7283Y-3.1142
X4.7283Y-3.3346
X4.7461Y-2.5492
X4.7461Y-2.6476
X4.7461Y-2.7657
X4.7461Y-2.8839
X4.7461Y-3.0413
X4.748Y-2.2874
X4.75Y-3.0059
X4.7559Y-2.2362
X4.7559Y-3.311
X4.7717Y-3.3504
X4.7756Y-3.0059
X4.7795Y-2.2717
X4.7795Y-2.315
X4.7795Y-3.2835
X4.7992Y-2.2165
X4.8071Y-2.252
X4.8071Y-2.3031
X4.8071Y-2.3543
X4.8071Y-2.4016
X4.8071Y-2.4488
X4.8071Y-2.5
X4.8071Y-2.5472
X4.8071Y-2.5846
X4.8071Y-2.6476
X4.8071Y-2.7067
X4.8071Y-2.7657
X4.8071Y-2.8248
X4.8071Y-2.8839
X4.8071Y-2.939
X4.8071Y-3.0433
X4.8071Y-3.1024
X4.8071Y-3.1457
X4.8071Y-3.185
X4.8071Y-3.2283
X4.8071Y-3.2598
X4.8071Y-3.3071
X4.8071Y-3.3504
X4.8071Y-3.3937
M30
