M48
; DRILL file {KiCad (6.0.9)} date Sun Apr 16 20:23:56 2023
; FORMAT={-:-/ absolute / inch / decimal}
; #@! TF.CreationDate,2023-04-16T20:23:56-07:00
; #@! TF.GenerationSoftware,Kicad,Pcbnew,(6.0.9)
; #@! TF.FileFunction,Plated,1,4,PTH
FMAT,2
INCH
; #@! TA.AperFunction,Plated,PTH,ViaDrill
T1C0.0079
%
G90
G05
T1
X6.1693Y-3.4409
X6.1693Y-3.4705
X6.1693Y-3.502
X6.1949Y-3.4409
X6.1949Y-3.4705
X6.1949Y-3.502
X6.2087Y-3.063
X6.2087Y-3.1693
X6.2087Y-3.2717
X6.2106Y-3.6673
X6.2106Y-3.7047
X6.2146Y-3.7421
X6.2224Y-3.4409
X6.2224Y-3.4705
X6.2343Y-3.7717
X6.2382Y-3.5453
X6.2657Y-3.5315
X6.2657Y-3.5591
X6.2677Y-3.7598
X6.2677Y-3.7894
X6.2756Y-3.9764
X6.2992Y-3.4843
X6.3031Y-3.5315
X6.3031Y-3.5591
X6.3071Y-3.7598
X6.3071Y-3.7894
X6.3268Y-3.0236
X6.3268Y-3.126
X6.3268Y-3.2283
X6.3425Y-3.5433
X6.3425Y-3.7736
X6.3563Y-2.8681
X6.3642Y-3.6122
X6.3937Y-3.4882
X6.3937Y-3.5197
X6.3937Y-3.5551
X6.4154Y-2.9803
X6.4409Y-3.4882
X6.4409Y-3.5197
X6.4409Y-3.5551
X6.4587Y-3.3327
X6.4744Y-2.8661
X6.4772Y-3.5827
X6.4783Y-3.7165
X6.5138Y-3.3642
X6.5138Y-3.7165
X6.5138Y-3.9803
X6.5157Y-3.4213
X6.5157Y-3.5906
X6.5157Y-3.6594
X6.5531Y-2.8681
X6.5748Y-3.3622
X6.5748Y-3.4213
X6.5748Y-3.5413
X6.5748Y-3.6594
X6.6024Y-3.687
X6.6122Y-2.9803
X6.6201Y-3.8681
X6.6201Y-3.8917
X6.6339Y-3.185
X6.6339Y-3.3031
X6.6339Y-3.4803
X6.6339Y-3.5984
X6.6339Y-3.6594
X6.6339Y-3.7756
X6.6339Y-3.8346
X6.6358Y-3.5197
X6.6358Y-3.5413
X6.6417Y-3.8799
X6.6654Y-3.8661
X6.6654Y-3.8917
X6.6713Y-2.8681
X6.689Y-3.8799
X6.6929Y-3.3031
X6.6929Y-3.3642
X6.6929Y-3.4213
X6.6929Y-3.4705
X6.6929Y-3.5413
X6.6929Y-3.5984
X6.6929Y-3.6575
X6.7087Y-3.8661
X6.7087Y-3.8898
X6.7402Y-4.0315
X6.7441Y-3.9508
X6.7461Y-4.1161
X6.75Y-2.8681
X6.752Y-3.3642
X6.752Y-3.4232
X6.752Y-3.6575
X6.7638Y-3.9193
X6.7638Y-4.1496
X6.7776Y-3.9906
X6.7953Y-3.9193
X6.7992Y-4.1496
X6.811Y-3.3622
X6.811Y-3.4213
X6.811Y-3.6575
X6.8386Y-3.2087
X6.8406Y-3.2756
X6.8445Y-4.1417
X6.8681Y-4.0787
X6.8701Y-2.8681
X6.8701Y-3.0945
X6.8701Y-3.2421
X6.8701Y-3.3031
X6.8976Y-3.0394
X6.8976Y-3.2756
X6.8996Y-3.2106
X6.9291Y-3.2441
X6.9291Y-3.3031
X6.9291Y-3.4213
X6.9291Y-3.6575
X6.9291Y-3.7756
X6.9291Y-3.8346
X6.937Y-3.0394
X6.9882Y-3.2441
X6.9882Y-3.3031
X6.9882Y-3.6575
X6.9882Y-3.7756
X6.9882Y-3.8346
X6.9902Y-3.4213
X7.0118Y-3.8976
X7.0177Y-3.2047
X7.0472Y-3.2441
X7.0472Y-3.3031
X7.0472Y-3.4803
X7.0472Y-3.5394
X7.0472Y-3.6004
X7.0472Y-3.6654
X7.0472Y-3.7185
X7.1063Y-3.2441
X7.1063Y-3.3031
X7.1063Y-3.4803
X7.1063Y-3.5394
X7.1063Y-3.5984
X7.1063Y-3.6654
X7.1083Y-3.7185
X7.1201Y-2.9472
X7.1201Y-3.087
X7.122Y-2.9055
X7.122Y-3.0472
X7.128Y-3.3386
X7.1319Y-3.2047
X7.1378Y-3.4508
X7.1398Y-3.5118
X7.1654Y-3.3622
X7.1654Y-3.5394
X7.1654Y-3.4798
X7.185Y-2.8701
X7.185Y-3.0118
X7.2244Y-3.3622
X7.2244Y-3.5394
X7.2244Y-3.4798
X7.2598Y-3.3268
X7.2756Y-3.0492
X7.376Y-3.3878
X7.3926Y-3.4085
X7.3926Y-3.4341
X7.4331Y-3.3917
X7.4331Y-3.4508
X7.4488Y-3.0354
X7.5059Y-3.6339
X7.5315Y-3.687
X7.5335Y-3.3268
X7.5827Y-3.7559
X7.6122Y-3.1024
X7.6181Y-3.3287
X7.6181Y-3.3917
X7.6181Y-3.4508
X7.6181Y-3.5098
X7.6181Y-3.5689
X7.6181Y-3.628
X7.6181Y-3.6831
X7.6319Y-3.063
X7.6535Y-3.1024
T0
M30
