G04 #@! TF.GenerationSoftware,KiCad,Pcbnew,(6.0.9)*
G04 #@! TF.CreationDate,2023-04-16T20:23:55-07:00*
G04 #@! TF.ProjectId,IMX585_MIPI_Breakout,494d5835-3835-45f4-9d49-50495f427265,rev?*
G04 #@! TF.SameCoordinates,Original*
G04 #@! TF.FileFunction,Copper,L2,Inr*
G04 #@! TF.FilePolarity,Positive*
%FSLAX46Y46*%
G04 Gerber Fmt 4.6, Leading zero omitted, Abs format (unit mm)*
G04 Created by KiCad (PCBNEW (6.0.9)) date 2023-04-16 20:23:55*
%MOMM*%
%LPD*%
G01*
G04 APERTURE LIST*
G04 #@! TA.AperFunction,ViaPad*
%ADD10C,0.450000*%
G04 #@! TD*
G04 APERTURE END LIST*
D10*
G04 #@! TO.N,GND*
X164520000Y-91000000D03*
X184400000Y-84500000D03*
X181150000Y-81400000D03*
X178250000Y-81400000D03*
X181050000Y-84800000D03*
X181350000Y-89200000D03*
X181300000Y-87650000D03*
X173750000Y-83200000D03*
X175200000Y-83200000D03*
X175250000Y-81550000D03*
X173700000Y-81500000D03*
X161450000Y-72850000D03*
X164450000Y-72800000D03*
X166450000Y-72850000D03*
X169450000Y-72850000D03*
X174500000Y-72850000D03*
X171450000Y-72850000D03*
X193350000Y-78800000D03*
X194400000Y-78800000D03*
X191350000Y-84500000D03*
X193500000Y-84550000D03*
X193500000Y-86150000D03*
X193500000Y-87650000D03*
X193500000Y-89150000D03*
X193500000Y-90650000D03*
X193500000Y-92150000D03*
X190650000Y-92300000D03*
X191300000Y-93650000D03*
X193500000Y-93550000D03*
X171500000Y-85450000D03*
X170000000Y-85450000D03*
X173000000Y-92900000D03*
X167000000Y-85400000D03*
X188800000Y-87650000D03*
X188800000Y-86150000D03*
X187350000Y-86050000D03*
G04 #@! TO.N,+1V8*
X164550000Y-94400000D03*
G04 #@! TO.N,+3V3*
X192600000Y-95400000D03*
X193850000Y-77800000D03*
G04 #@! TO.N,SDA_3V3*
X189200000Y-77100000D03*
X184800000Y-77450000D03*
G04 #@! TO.N,CAM_EN*
X173850000Y-105200000D03*
X172150000Y-101362500D03*
X165450000Y-101100000D03*
G04 #@! TO.N,GND*
X159400000Y-101000000D03*
X157750000Y-93150000D03*
X157750000Y-94100000D03*
X157850000Y-95050000D03*
X159200000Y-96250000D03*
X159200000Y-95500000D03*
X160200000Y-96250000D03*
X160200000Y-95500000D03*
X161100000Y-95850000D03*
X158350000Y-95800000D03*
X161650000Y-91750000D03*
X159150000Y-90400000D03*
X159150000Y-89700000D03*
X160100000Y-90400000D03*
X160100000Y-89700000D03*
X161100000Y-90000000D03*
X158450000Y-90050000D03*
X160000000Y-88500000D03*
X178100000Y-99000000D03*
X174450000Y-103600000D03*
X171350000Y-104550000D03*
X172700000Y-105400000D03*
X171800000Y-105400000D03*
X171200000Y-102400000D03*
X171300000Y-100350000D03*
X172600000Y-99550000D03*
X171800000Y-99550000D03*
G04 #@! TO.N,+1V1*
X169900000Y-98550000D03*
X168700000Y-98550000D03*
X168150000Y-98850000D03*
X168150000Y-98250000D03*
X169300000Y-98850000D03*
X169300000Y-98200000D03*
X170400000Y-98800000D03*
X170400000Y-98200000D03*
G04 #@! TO.N,+1V8*
X157350000Y-88950000D03*
X156700000Y-88950000D03*
X156700000Y-88150000D03*
X157350000Y-88150000D03*
X158050000Y-88150000D03*
X158050000Y-87400000D03*
X157350000Y-87400000D03*
X156700000Y-87400000D03*
G04 #@! TO.N,+3.3VA*
X162400000Y-90300000D03*
X162400000Y-89400000D03*
X163600000Y-89400000D03*
X163600000Y-90300000D03*
X163600000Y-88600000D03*
X162400000Y-88600000D03*
G04 #@! TO.N,GND*
X157700000Y-83100000D03*
X157700000Y-80500000D03*
X157700000Y-77800000D03*
G04 #@! TO.N,+1V8*
X182500000Y-72900000D03*
X180900000Y-73800000D03*
X180900000Y-77400000D03*
X182500000Y-76500000D03*
X160700000Y-82000000D03*
X160700000Y-79400000D03*
X160700000Y-76800000D03*
G04 #@! TO.N,Net-(C31-Pad2)*
X165500000Y-91200000D03*
G04 #@! TO.N,RST_1V8*
X168500000Y-83900000D03*
G04 #@! TO.N,XMASTER*
X164050000Y-84650000D03*
G04 #@! TO.N,ADDR0*
X168500000Y-80900000D03*
G04 #@! TO.N,ADDR1*
X170000000Y-83900000D03*
G04 #@! TO.N,XVS*
X162950000Y-75700000D03*
G04 #@! TO.N,XHS*
X167950000Y-75700000D03*
G04 #@! TO.N,SCL_1V8*
X180850000Y-74860000D03*
G04 #@! TO.N,SDA_1V8*
X180850000Y-78410000D03*
G04 #@! TO.N,GND*
X174500000Y-78600000D03*
X175200000Y-77200000D03*
X167700000Y-93650000D03*
G04 #@! TO.N,+1V8*
X165450000Y-94400000D03*
X176200000Y-77200000D03*
X176000000Y-82400000D03*
G04 #@! TO.N,+1V1*
X183500000Y-89900000D03*
G04 #@! TO.N,+1V8*
X180500000Y-93100000D03*
X165450000Y-85450000D03*
G04 #@! TO.N,Net-(C33-Pad2)*
X170000000Y-88150000D03*
G04 #@! TO.N,Net-(C34-Pad2)*
X173000000Y-86900000D03*
G04 #@! TO.N,GND*
X173000000Y-85400000D03*
X174500000Y-83900000D03*
X176000000Y-86900000D03*
X176000000Y-83900000D03*
X177500000Y-83900000D03*
X182000000Y-89900000D03*
X179000000Y-88400000D03*
X179000000Y-89900000D03*
X179000000Y-91450000D03*
X180550000Y-94450000D03*
X179000000Y-94450000D03*
X177500000Y-95900000D03*
X176000000Y-95900000D03*
X176000000Y-92900000D03*
X168500000Y-95900000D03*
X167000000Y-92950000D03*
X168500000Y-92950000D03*
X168500000Y-91400000D03*
X168500000Y-88400000D03*
X168550000Y-89400000D03*
X168550000Y-89950000D03*
X167000000Y-86900000D03*
G04 #@! TO.N,Net-(C35-Pad2)*
X171500000Y-86950000D03*
G04 #@! TO.N,+3.3VA*
X179000000Y-93100000D03*
X177500000Y-92900000D03*
X177550000Y-86900000D03*
X170000000Y-86900000D03*
X167000000Y-89950000D03*
X170000000Y-89950000D03*
X170000000Y-91400000D03*
X170000000Y-92900000D03*
X171500000Y-92900000D03*
G04 #@! TO.N,+1V1*
X180500000Y-91400000D03*
X180500000Y-89900000D03*
X180500000Y-88400000D03*
X177500000Y-82400000D03*
X165500000Y-86900000D03*
X165500000Y-92950000D03*
X177500000Y-97400000D03*
X176000000Y-97400000D03*
X168500000Y-97400000D03*
G04 #@! TO.N,CLOCK*
X174500000Y-82350000D03*
G04 #@! TO.N,CAM_D1_N*
X187771837Y-86575000D03*
G04 #@! TO.N,CAM_D1_P*
X187771837Y-87225000D03*
G04 #@! TO.N,CAM_D0_N*
X180500000Y-82400000D03*
G04 #@! TO.N,CAM_D0_P*
X180500000Y-83900000D03*
G04 #@! TO.N,CAM_D3_N*
X183500637Y-88387082D03*
G04 #@! TO.N,CAM_D3_P*
X182000637Y-88387082D03*
G04 #@! TO.N,CAM_CLK_P*
X182000000Y-85400000D03*
G04 #@! TO.N,CAM_CLK_N*
X183500000Y-85400000D03*
G04 #@! TO.N,CAM_D2_N*
X179000000Y-82400000D03*
G04 #@! TO.N,CAM_D2_P*
X179000000Y-83900000D03*
G04 #@! TD*
G04 #@! TA.AperFunction,Conductor*
G04 #@! TO.N,GND*
G36*
X190174242Y-70619407D02*
G01*
X190210206Y-70668907D01*
X190210206Y-70730093D01*
X190174242Y-70779593D01*
X190169099Y-70783088D01*
X190027337Y-70873053D01*
X190024948Y-70875029D01*
X190024943Y-70875033D01*
X189889056Y-70987449D01*
X189784906Y-71073610D01*
X189569522Y-71302970D01*
X189384584Y-71557516D01*
X189364672Y-71593735D01*
X189236849Y-71826244D01*
X189233006Y-71833234D01*
X189231863Y-71836121D01*
X189131225Y-72090305D01*
X189117181Y-72125775D01*
X189038934Y-72430527D01*
X188999500Y-72742682D01*
X188999500Y-73057318D01*
X189038934Y-73369473D01*
X189039706Y-73372479D01*
X189039706Y-73372480D01*
X189115294Y-73666874D01*
X189117181Y-73674225D01*
X189233006Y-73966766D01*
X189234499Y-73969482D01*
X189234502Y-73969488D01*
X189329904Y-74143022D01*
X189384584Y-74242484D01*
X189569522Y-74497030D01*
X189784906Y-74726390D01*
X189787301Y-74728371D01*
X190024943Y-74924967D01*
X190024948Y-74924971D01*
X190027337Y-74926947D01*
X190292993Y-75095537D01*
X190295793Y-75096854D01*
X190295801Y-75096859D01*
X190521410Y-75203022D01*
X190577685Y-75229503D01*
X190580646Y-75230465D01*
X190873971Y-75325773D01*
X190873979Y-75325775D01*
X190876921Y-75326731D01*
X191185985Y-75385688D01*
X191189088Y-75385883D01*
X191189094Y-75385884D01*
X191419883Y-75400404D01*
X191419899Y-75400405D01*
X191421417Y-75400500D01*
X191578583Y-75400500D01*
X191580101Y-75400405D01*
X191580117Y-75400404D01*
X191810906Y-75385884D01*
X191810912Y-75385883D01*
X191814015Y-75385688D01*
X192123079Y-75326731D01*
X192126021Y-75325775D01*
X192126029Y-75325773D01*
X192419354Y-75230465D01*
X192422315Y-75229503D01*
X192478590Y-75203022D01*
X192704199Y-75096859D01*
X192704207Y-75096854D01*
X192707007Y-75095537D01*
X192972663Y-74926947D01*
X192975052Y-74924971D01*
X192975057Y-74924967D01*
X193212699Y-74728371D01*
X193215094Y-74726390D01*
X193430478Y-74497030D01*
X193615416Y-74242484D01*
X193670096Y-74143022D01*
X193765498Y-73969488D01*
X193765501Y-73969482D01*
X193766994Y-73966766D01*
X193882819Y-73674225D01*
X193884707Y-73666874D01*
X193960294Y-73372480D01*
X193960294Y-73372479D01*
X193961066Y-73369473D01*
X194000500Y-73057318D01*
X194000500Y-72742682D01*
X193961066Y-72430527D01*
X193882819Y-72125775D01*
X193868776Y-72090305D01*
X193768137Y-71836121D01*
X193766994Y-71833234D01*
X193763152Y-71826244D01*
X193635328Y-71593735D01*
X193615416Y-71557516D01*
X193430478Y-71302970D01*
X193215094Y-71073610D01*
X193110944Y-70987449D01*
X192975057Y-70875033D01*
X192975052Y-70875029D01*
X192972663Y-70873053D01*
X192830902Y-70783089D01*
X192791901Y-70735944D01*
X192788059Y-70674880D01*
X192820844Y-70623219D01*
X192877733Y-70600695D01*
X192883949Y-70600500D01*
X196765983Y-70600500D01*
X196788169Y-70603018D01*
X196799641Y-70605656D01*
X196810517Y-70603195D01*
X196821664Y-70603214D01*
X196821664Y-70603243D01*
X196831772Y-70602422D01*
X196961986Y-70610298D01*
X197071204Y-70616905D01*
X197083056Y-70618344D01*
X197344422Y-70666241D01*
X197356015Y-70669098D01*
X197551755Y-70730093D01*
X197609695Y-70748148D01*
X197620873Y-70752387D01*
X197863170Y-70861436D01*
X197873756Y-70866992D01*
X198101142Y-71004452D01*
X198110980Y-71011243D01*
X198320132Y-71175103D01*
X198329081Y-71183030D01*
X198516970Y-71370919D01*
X198524897Y-71379868D01*
X198688757Y-71589020D01*
X198695548Y-71598858D01*
X198833008Y-71826244D01*
X198838564Y-71836830D01*
X198947613Y-72079127D01*
X198951852Y-72090305D01*
X199030900Y-72343977D01*
X199033759Y-72355578D01*
X199081656Y-72616944D01*
X199083095Y-72628796D01*
X199091913Y-72774569D01*
X199097547Y-72867712D01*
X199096724Y-72877628D01*
X199096862Y-72877628D01*
X199096842Y-72888776D01*
X199094344Y-72899641D01*
X199096804Y-72910513D01*
X199097059Y-72911638D01*
X199099500Y-72933488D01*
X199099500Y-106865983D01*
X199096982Y-106888169D01*
X199094344Y-106899641D01*
X199096805Y-106910517D01*
X199096786Y-106921664D01*
X199096757Y-106921664D01*
X199097578Y-106931772D01*
X199083096Y-107171197D01*
X199081656Y-107183056D01*
X199033761Y-107444415D01*
X199030900Y-107456023D01*
X198951852Y-107709695D01*
X198947613Y-107720873D01*
X198838564Y-107963170D01*
X198833008Y-107973756D01*
X198695548Y-108201142D01*
X198688757Y-108210980D01*
X198524897Y-108420132D01*
X198516970Y-108429081D01*
X198329081Y-108616970D01*
X198320132Y-108624897D01*
X198110980Y-108788757D01*
X198101142Y-108795548D01*
X197873756Y-108933008D01*
X197863170Y-108938564D01*
X197620873Y-109047613D01*
X197609695Y-109051852D01*
X197356015Y-109130902D01*
X197344422Y-109133759D01*
X197083056Y-109181656D01*
X197071204Y-109183095D01*
X196832288Y-109197547D01*
X196822372Y-109196724D01*
X196822372Y-109196862D01*
X196811224Y-109196842D01*
X196800359Y-109194344D01*
X196788359Y-109197059D01*
X196766512Y-109199500D01*
X192883949Y-109199500D01*
X192825758Y-109180593D01*
X192789794Y-109131093D01*
X192789794Y-109069907D01*
X192825758Y-109020407D01*
X192830902Y-109016911D01*
X192954357Y-108938564D01*
X192972663Y-108926947D01*
X192975052Y-108924971D01*
X192975057Y-108924967D01*
X193212699Y-108728371D01*
X193215094Y-108726390D01*
X193430478Y-108497030D01*
X193615416Y-108242484D01*
X193708289Y-108073549D01*
X193765498Y-107969488D01*
X193765501Y-107969482D01*
X193766994Y-107966766D01*
X193785806Y-107919253D01*
X193881675Y-107677115D01*
X193881676Y-107677112D01*
X193882819Y-107674225D01*
X193961066Y-107369473D01*
X194000500Y-107057318D01*
X194000500Y-106742682D01*
X193961066Y-106430527D01*
X193882819Y-106125775D01*
X193766994Y-105833234D01*
X193615416Y-105557516D01*
X193430478Y-105302970D01*
X193215094Y-105073610D01*
X193070171Y-104953719D01*
X192975057Y-104875033D01*
X192975052Y-104875029D01*
X192972663Y-104873053D01*
X192707007Y-104704463D01*
X192704207Y-104703146D01*
X192704199Y-104703141D01*
X192425135Y-104571824D01*
X192422315Y-104570497D01*
X192375617Y-104555324D01*
X192126029Y-104474227D01*
X192126021Y-104474225D01*
X192123079Y-104473269D01*
X191814015Y-104414312D01*
X191810912Y-104414117D01*
X191810906Y-104414116D01*
X191580117Y-104399596D01*
X191580101Y-104399595D01*
X191578583Y-104399500D01*
X191421417Y-104399500D01*
X191419899Y-104399595D01*
X191419883Y-104399596D01*
X191189094Y-104414116D01*
X191189088Y-104414117D01*
X191185985Y-104414312D01*
X190876921Y-104473269D01*
X190873979Y-104474225D01*
X190873971Y-104474227D01*
X190624383Y-104555324D01*
X190577685Y-104570497D01*
X190574865Y-104571824D01*
X190295801Y-104703141D01*
X190295793Y-104703146D01*
X190292993Y-104704463D01*
X190027337Y-104873053D01*
X190024948Y-104875029D01*
X190024943Y-104875033D01*
X189929829Y-104953719D01*
X189784906Y-105073610D01*
X189569522Y-105302970D01*
X189384584Y-105557516D01*
X189233006Y-105833234D01*
X189117181Y-106125775D01*
X189038934Y-106430527D01*
X188999500Y-106742682D01*
X188999500Y-107057318D01*
X189038934Y-107369473D01*
X189117181Y-107674225D01*
X189118324Y-107677112D01*
X189118325Y-107677115D01*
X189214194Y-107919253D01*
X189233006Y-107966766D01*
X189234499Y-107969482D01*
X189234502Y-107969488D01*
X189291711Y-108073549D01*
X189384584Y-108242484D01*
X189569522Y-108497030D01*
X189784906Y-108726390D01*
X189787301Y-108728371D01*
X190024943Y-108924967D01*
X190024948Y-108924971D01*
X190027337Y-108926947D01*
X190045643Y-108938564D01*
X190169098Y-109016911D01*
X190208099Y-109064056D01*
X190211941Y-109125120D01*
X190179156Y-109176781D01*
X190122267Y-109199305D01*
X190116051Y-109199500D01*
X158883949Y-109199500D01*
X158825758Y-109180593D01*
X158789794Y-109131093D01*
X158789794Y-109069907D01*
X158825758Y-109020407D01*
X158830902Y-109016911D01*
X158954357Y-108938564D01*
X158972663Y-108926947D01*
X158975052Y-108924971D01*
X158975057Y-108924967D01*
X159212699Y-108728371D01*
X159215094Y-108726390D01*
X159430478Y-108497030D01*
X159615416Y-108242484D01*
X159708289Y-108073549D01*
X159765498Y-107969488D01*
X159765501Y-107969482D01*
X159766994Y-107966766D01*
X159785806Y-107919253D01*
X159881675Y-107677115D01*
X159881676Y-107677112D01*
X159882819Y-107674225D01*
X159961066Y-107369473D01*
X160000500Y-107057318D01*
X160000500Y-106742682D01*
X159961066Y-106430527D01*
X159882819Y-106125775D01*
X159766994Y-105833234D01*
X159615416Y-105557516D01*
X159430478Y-105302970D01*
X159333782Y-105200000D01*
X173419196Y-105200000D01*
X173440281Y-105333126D01*
X173501472Y-105453220D01*
X173596780Y-105548528D01*
X173603717Y-105552063D01*
X173603719Y-105552064D01*
X173696302Y-105599237D01*
X173716874Y-105609719D01*
X173724568Y-105610938D01*
X173724569Y-105610938D01*
X173842304Y-105629585D01*
X173850000Y-105630804D01*
X173857696Y-105629585D01*
X173975431Y-105610938D01*
X173975432Y-105610938D01*
X173983126Y-105609719D01*
X174003698Y-105599237D01*
X174096281Y-105552064D01*
X174096283Y-105552063D01*
X174103220Y-105548528D01*
X174198528Y-105453220D01*
X174259719Y-105333126D01*
X174280804Y-105200000D01*
X174259719Y-105066874D01*
X174198528Y-104946780D01*
X174103220Y-104851472D01*
X174096283Y-104847937D01*
X174096281Y-104847936D01*
X173990066Y-104793817D01*
X173990065Y-104793817D01*
X173983126Y-104790281D01*
X173975432Y-104789062D01*
X173975431Y-104789062D01*
X173857696Y-104770415D01*
X173850000Y-104769196D01*
X173842304Y-104770415D01*
X173724569Y-104789062D01*
X173724568Y-104789062D01*
X173716874Y-104790281D01*
X173709935Y-104793817D01*
X173709934Y-104793817D01*
X173603719Y-104847936D01*
X173603717Y-104847937D01*
X173596780Y-104851472D01*
X173501472Y-104946780D01*
X173440281Y-105066874D01*
X173419196Y-105200000D01*
X159333782Y-105200000D01*
X159215094Y-105073610D01*
X159070171Y-104953719D01*
X158975057Y-104875033D01*
X158975052Y-104875029D01*
X158972663Y-104873053D01*
X158707007Y-104704463D01*
X158704207Y-104703146D01*
X158704199Y-104703141D01*
X158425135Y-104571824D01*
X158422315Y-104570497D01*
X158375617Y-104555324D01*
X158126029Y-104474227D01*
X158126021Y-104474225D01*
X158123079Y-104473269D01*
X157814015Y-104414312D01*
X157810912Y-104414117D01*
X157810906Y-104414116D01*
X157580117Y-104399596D01*
X157580101Y-104399595D01*
X157578583Y-104399500D01*
X157421417Y-104399500D01*
X157419899Y-104399595D01*
X157419883Y-104399596D01*
X157189094Y-104414116D01*
X157189088Y-104414117D01*
X157185985Y-104414312D01*
X156876921Y-104473269D01*
X156873979Y-104474225D01*
X156873971Y-104474227D01*
X156624383Y-104555324D01*
X156577685Y-104570497D01*
X156574865Y-104571824D01*
X156295801Y-104703141D01*
X156295793Y-104703146D01*
X156292993Y-104704463D01*
X156027337Y-104873053D01*
X156024948Y-104875029D01*
X156024943Y-104875033D01*
X155929829Y-104953719D01*
X155784906Y-105073610D01*
X155569522Y-105302970D01*
X155384584Y-105557516D01*
X155383089Y-105560236D01*
X155335947Y-105599237D01*
X155274882Y-105603080D01*
X155223221Y-105570297D01*
X155200696Y-105513409D01*
X155200500Y-105507190D01*
X155200500Y-101100000D01*
X165019196Y-101100000D01*
X165020415Y-101107696D01*
X165038588Y-101222434D01*
X165040281Y-101233126D01*
X165101472Y-101353220D01*
X165196780Y-101448528D01*
X165203717Y-101452063D01*
X165203719Y-101452064D01*
X165289215Y-101495626D01*
X165316874Y-101509719D01*
X165324568Y-101510938D01*
X165324569Y-101510938D01*
X165442304Y-101529585D01*
X165450000Y-101530804D01*
X165457696Y-101529585D01*
X165575431Y-101510938D01*
X165575432Y-101510938D01*
X165583126Y-101509719D01*
X165610785Y-101495626D01*
X165696281Y-101452064D01*
X165696283Y-101452063D01*
X165703220Y-101448528D01*
X165789248Y-101362500D01*
X171719196Y-101362500D01*
X171740281Y-101495626D01*
X171801472Y-101615720D01*
X171896780Y-101711028D01*
X171903717Y-101714563D01*
X171903719Y-101714564D01*
X172009934Y-101768683D01*
X172016874Y-101772219D01*
X172024568Y-101773438D01*
X172024569Y-101773438D01*
X172142304Y-101792085D01*
X172150000Y-101793304D01*
X172157696Y-101792085D01*
X172275431Y-101773438D01*
X172275432Y-101773438D01*
X172283126Y-101772219D01*
X172290066Y-101768683D01*
X172396281Y-101714564D01*
X172396283Y-101714563D01*
X172403220Y-101711028D01*
X172498528Y-101615720D01*
X172559719Y-101495626D01*
X172580804Y-101362500D01*
X172574947Y-101325522D01*
X172560938Y-101237069D01*
X172560938Y-101237068D01*
X172559719Y-101229374D01*
X172498528Y-101109280D01*
X172403220Y-101013972D01*
X172396283Y-101010437D01*
X172396281Y-101010436D01*
X172290066Y-100956317D01*
X172290065Y-100956317D01*
X172283126Y-100952781D01*
X172275432Y-100951562D01*
X172275431Y-100951562D01*
X172157696Y-100932915D01*
X172150000Y-100931696D01*
X172142304Y-100932915D01*
X172024569Y-100951562D01*
X172024568Y-100951562D01*
X172016874Y-100952781D01*
X172009935Y-100956317D01*
X172009934Y-100956317D01*
X171903719Y-101010436D01*
X171903717Y-101010437D01*
X171896780Y-101013972D01*
X171801472Y-101109280D01*
X171740281Y-101229374D01*
X171739062Y-101237068D01*
X171739062Y-101237069D01*
X171725053Y-101325522D01*
X171719196Y-101362500D01*
X165789248Y-101362500D01*
X165798528Y-101353220D01*
X165859719Y-101233126D01*
X165861413Y-101222434D01*
X165879585Y-101107696D01*
X165880804Y-101100000D01*
X165859719Y-100966874D01*
X165798528Y-100846780D01*
X165703220Y-100751472D01*
X165696283Y-100747937D01*
X165696281Y-100747936D01*
X165590066Y-100693817D01*
X165590065Y-100693817D01*
X165583126Y-100690281D01*
X165575432Y-100689062D01*
X165575431Y-100689062D01*
X165457696Y-100670415D01*
X165450000Y-100669196D01*
X165442304Y-100670415D01*
X165324569Y-100689062D01*
X165324568Y-100689062D01*
X165316874Y-100690281D01*
X165309935Y-100693817D01*
X165309934Y-100693817D01*
X165203719Y-100747936D01*
X165203717Y-100747937D01*
X165196780Y-100751472D01*
X165101472Y-100846780D01*
X165040281Y-100966874D01*
X165019196Y-101100000D01*
X155200500Y-101100000D01*
X155200500Y-98850000D01*
X167719196Y-98850000D01*
X167720415Y-98857696D01*
X167738467Y-98971670D01*
X167740281Y-98983126D01*
X167743817Y-98990065D01*
X167743817Y-98990066D01*
X167775996Y-99053220D01*
X167801472Y-99103220D01*
X167896780Y-99198528D01*
X167903717Y-99202063D01*
X167903719Y-99202064D01*
X167960125Y-99230804D01*
X168016874Y-99259719D01*
X168024568Y-99260938D01*
X168024569Y-99260938D01*
X168142304Y-99279585D01*
X168150000Y-99280804D01*
X168157696Y-99279585D01*
X168275431Y-99260938D01*
X168275432Y-99260938D01*
X168283126Y-99259719D01*
X168339875Y-99230804D01*
X168396281Y-99202064D01*
X168396283Y-99202063D01*
X168403220Y-99198528D01*
X168498528Y-99103220D01*
X168524005Y-99053220D01*
X168538635Y-99024506D01*
X168581900Y-98981241D01*
X168642331Y-98971670D01*
X168700000Y-98980804D01*
X168803936Y-98964342D01*
X168864367Y-98973913D01*
X168907631Y-99017177D01*
X168951472Y-99103220D01*
X169046780Y-99198528D01*
X169053717Y-99202063D01*
X169053719Y-99202064D01*
X169110125Y-99230804D01*
X169166874Y-99259719D01*
X169174568Y-99260938D01*
X169174569Y-99260938D01*
X169292304Y-99279585D01*
X169300000Y-99280804D01*
X169307696Y-99279585D01*
X169425431Y-99260938D01*
X169425432Y-99260938D01*
X169433126Y-99259719D01*
X169489875Y-99230804D01*
X169546281Y-99202064D01*
X169546283Y-99202063D01*
X169553220Y-99198528D01*
X169648528Y-99103220D01*
X169692369Y-99017177D01*
X169735632Y-98973914D01*
X169796064Y-98964342D01*
X169900000Y-98980804D01*
X169934976Y-98975264D01*
X169995407Y-98984835D01*
X170038673Y-99028101D01*
X170051472Y-99053220D01*
X170146780Y-99148528D01*
X170153717Y-99152063D01*
X170153719Y-99152064D01*
X170234104Y-99193022D01*
X170266874Y-99209719D01*
X170274568Y-99210938D01*
X170274569Y-99210938D01*
X170392304Y-99229585D01*
X170400000Y-99230804D01*
X170407696Y-99229585D01*
X170525431Y-99210938D01*
X170525432Y-99210938D01*
X170533126Y-99209719D01*
X170565896Y-99193022D01*
X170646281Y-99152064D01*
X170646283Y-99152063D01*
X170653220Y-99148528D01*
X170748528Y-99053220D01*
X170766893Y-99017178D01*
X170806183Y-98940066D01*
X170806183Y-98940065D01*
X170809719Y-98933126D01*
X170830804Y-98800000D01*
X170809719Y-98666874D01*
X170773320Y-98595436D01*
X170748528Y-98546780D01*
X170751167Y-98545436D01*
X170736405Y-98499993D01*
X170751166Y-98454564D01*
X170748528Y-98453220D01*
X170806183Y-98340066D01*
X170806183Y-98340065D01*
X170809719Y-98333126D01*
X170830804Y-98200000D01*
X170821603Y-98141907D01*
X170810938Y-98074569D01*
X170810938Y-98074568D01*
X170809719Y-98066874D01*
X170777540Y-98003719D01*
X170752064Y-97953719D01*
X170752063Y-97953717D01*
X170748528Y-97946780D01*
X170653220Y-97851472D01*
X170646283Y-97847937D01*
X170646281Y-97847936D01*
X170540066Y-97793817D01*
X170540065Y-97793817D01*
X170533126Y-97790281D01*
X170525432Y-97789062D01*
X170525431Y-97789062D01*
X170407696Y-97770415D01*
X170400000Y-97769196D01*
X170392304Y-97770415D01*
X170274569Y-97789062D01*
X170274568Y-97789062D01*
X170266874Y-97790281D01*
X170259935Y-97793817D01*
X170259934Y-97793817D01*
X170153719Y-97847936D01*
X170153717Y-97847937D01*
X170146780Y-97851472D01*
X170051472Y-97946780D01*
X170047937Y-97953717D01*
X170047936Y-97953719D01*
X169990543Y-98066360D01*
X169947278Y-98109625D01*
X169904465Y-98119903D01*
X169900000Y-98119196D01*
X169817494Y-98132264D01*
X169757063Y-98122693D01*
X169713799Y-98079429D01*
X169710413Y-98071254D01*
X169709719Y-98066874D01*
X169677540Y-98003719D01*
X169652064Y-97953719D01*
X169652063Y-97953717D01*
X169648528Y-97946780D01*
X169553220Y-97851472D01*
X169546283Y-97847937D01*
X169546281Y-97847936D01*
X169440066Y-97793817D01*
X169440065Y-97793817D01*
X169433126Y-97790281D01*
X169425432Y-97789062D01*
X169425431Y-97789062D01*
X169307696Y-97770415D01*
X169300000Y-97769196D01*
X169292304Y-97770415D01*
X169174569Y-97789062D01*
X169174568Y-97789062D01*
X169166874Y-97790281D01*
X169159935Y-97793817D01*
X169159934Y-97793817D01*
X169053719Y-97847936D01*
X169053717Y-97847937D01*
X169046780Y-97851472D01*
X168951472Y-97946780D01*
X168947937Y-97953717D01*
X168947936Y-97953719D01*
X168922460Y-98003719D01*
X168890281Y-98066874D01*
X168890125Y-98067858D01*
X168856183Y-98114576D01*
X168797992Y-98133483D01*
X168782513Y-98132265D01*
X168700000Y-98119196D01*
X168642331Y-98128330D01*
X168581900Y-98118759D01*
X168538635Y-98075494D01*
X168502064Y-98003719D01*
X168502063Y-98003717D01*
X168498528Y-97996780D01*
X168492837Y-97991089D01*
X168492718Y-97990856D01*
X168488439Y-97984966D01*
X168489372Y-97984288D01*
X168465060Y-97936572D01*
X168474631Y-97876140D01*
X168517896Y-97832875D01*
X168547354Y-97823304D01*
X168625431Y-97810938D01*
X168625432Y-97810938D01*
X168633126Y-97809719D01*
X168640066Y-97806183D01*
X168746281Y-97752064D01*
X168746283Y-97752063D01*
X168753220Y-97748528D01*
X168848528Y-97653220D01*
X168909719Y-97533126D01*
X168930804Y-97400000D01*
X175569196Y-97400000D01*
X175590281Y-97533126D01*
X175651472Y-97653220D01*
X175746780Y-97748528D01*
X175753717Y-97752063D01*
X175753719Y-97752064D01*
X175859934Y-97806183D01*
X175866874Y-97809719D01*
X175874568Y-97810938D01*
X175874569Y-97810938D01*
X175992304Y-97829585D01*
X176000000Y-97830804D01*
X176007696Y-97829585D01*
X176125431Y-97810938D01*
X176125432Y-97810938D01*
X176133126Y-97809719D01*
X176140066Y-97806183D01*
X176246281Y-97752064D01*
X176246283Y-97752063D01*
X176253220Y-97748528D01*
X176348528Y-97653220D01*
X176409719Y-97533126D01*
X176430804Y-97400000D01*
X177069196Y-97400000D01*
X177090281Y-97533126D01*
X177151472Y-97653220D01*
X177246780Y-97748528D01*
X177253717Y-97752063D01*
X177253719Y-97752064D01*
X177359934Y-97806183D01*
X177366874Y-97809719D01*
X177374568Y-97810938D01*
X177374569Y-97810938D01*
X177492304Y-97829585D01*
X177500000Y-97830804D01*
X177507696Y-97829585D01*
X177625431Y-97810938D01*
X177625432Y-97810938D01*
X177633126Y-97809719D01*
X177640066Y-97806183D01*
X177746281Y-97752064D01*
X177746283Y-97752063D01*
X177753220Y-97748528D01*
X177848528Y-97653220D01*
X177909719Y-97533126D01*
X177930804Y-97400000D01*
X177909719Y-97266874D01*
X177848528Y-97146780D01*
X177753220Y-97051472D01*
X177746283Y-97047937D01*
X177746281Y-97047936D01*
X177640066Y-96993817D01*
X177640065Y-96993817D01*
X177633126Y-96990281D01*
X177625432Y-96989062D01*
X177625431Y-96989062D01*
X177507696Y-96970415D01*
X177500000Y-96969196D01*
X177492304Y-96970415D01*
X177374569Y-96989062D01*
X177374568Y-96989062D01*
X177366874Y-96990281D01*
X177359935Y-96993817D01*
X177359934Y-96993817D01*
X177253719Y-97047936D01*
X177253717Y-97047937D01*
X177246780Y-97051472D01*
X177151472Y-97146780D01*
X177090281Y-97266874D01*
X177069196Y-97400000D01*
X176430804Y-97400000D01*
X176409719Y-97266874D01*
X176348528Y-97146780D01*
X176253220Y-97051472D01*
X176246283Y-97047937D01*
X176246281Y-97047936D01*
X176140066Y-96993817D01*
X176140065Y-96993817D01*
X176133126Y-96990281D01*
X176125432Y-96989062D01*
X176125431Y-96989062D01*
X176007696Y-96970415D01*
X176000000Y-96969196D01*
X175992304Y-96970415D01*
X175874569Y-96989062D01*
X175874568Y-96989062D01*
X175866874Y-96990281D01*
X175859935Y-96993817D01*
X175859934Y-96993817D01*
X175753719Y-97047936D01*
X175753717Y-97047937D01*
X175746780Y-97051472D01*
X175651472Y-97146780D01*
X175590281Y-97266874D01*
X175569196Y-97400000D01*
X168930804Y-97400000D01*
X168909719Y-97266874D01*
X168848528Y-97146780D01*
X168753220Y-97051472D01*
X168746283Y-97047937D01*
X168746281Y-97047936D01*
X168640066Y-96993817D01*
X168640065Y-96993817D01*
X168633126Y-96990281D01*
X168625432Y-96989062D01*
X168625431Y-96989062D01*
X168507696Y-96970415D01*
X168500000Y-96969196D01*
X168492304Y-96970415D01*
X168374569Y-96989062D01*
X168374568Y-96989062D01*
X168366874Y-96990281D01*
X168359935Y-96993817D01*
X168359934Y-96993817D01*
X168253719Y-97047936D01*
X168253717Y-97047937D01*
X168246780Y-97051472D01*
X168151472Y-97146780D01*
X168090281Y-97266874D01*
X168069196Y-97400000D01*
X168090281Y-97533126D01*
X168151472Y-97653220D01*
X168157163Y-97658911D01*
X168157282Y-97659144D01*
X168161561Y-97665034D01*
X168160628Y-97665712D01*
X168184940Y-97713428D01*
X168175369Y-97773860D01*
X168132104Y-97817125D01*
X168102646Y-97826696D01*
X168024569Y-97839062D01*
X168024568Y-97839062D01*
X168016874Y-97840281D01*
X168009935Y-97843817D01*
X168009934Y-97843817D01*
X167903719Y-97897936D01*
X167903717Y-97897937D01*
X167896780Y-97901472D01*
X167801472Y-97996780D01*
X167797937Y-98003717D01*
X167797936Y-98003719D01*
X167743817Y-98109934D01*
X167740281Y-98116874D01*
X167739062Y-98124568D01*
X167739062Y-98124569D01*
X167737843Y-98132264D01*
X167719196Y-98250000D01*
X167740281Y-98383126D01*
X167743817Y-98390065D01*
X167743817Y-98390066D01*
X167801472Y-98503220D01*
X167798833Y-98504564D01*
X167813595Y-98550007D01*
X167798834Y-98595436D01*
X167801472Y-98596780D01*
X167740281Y-98716874D01*
X167719196Y-98850000D01*
X155200500Y-98850000D01*
X155200500Y-95400000D01*
X192169196Y-95400000D01*
X192190281Y-95533126D01*
X192251472Y-95653220D01*
X192346780Y-95748528D01*
X192353717Y-95752063D01*
X192353719Y-95752064D01*
X192459934Y-95806183D01*
X192466874Y-95809719D01*
X192474568Y-95810938D01*
X192474569Y-95810938D01*
X192592304Y-95829585D01*
X192600000Y-95830804D01*
X192607696Y-95829585D01*
X192725431Y-95810938D01*
X192725432Y-95810938D01*
X192733126Y-95809719D01*
X192740066Y-95806183D01*
X192846281Y-95752064D01*
X192846283Y-95752063D01*
X192853220Y-95748528D01*
X192948528Y-95653220D01*
X193009719Y-95533126D01*
X193030804Y-95400000D01*
X193009719Y-95266874D01*
X192948528Y-95146780D01*
X192853220Y-95051472D01*
X192846283Y-95047937D01*
X192846281Y-95047936D01*
X192740066Y-94993817D01*
X192740065Y-94993817D01*
X192733126Y-94990281D01*
X192725432Y-94989062D01*
X192725431Y-94989062D01*
X192607696Y-94970415D01*
X192600000Y-94969196D01*
X192592304Y-94970415D01*
X192474569Y-94989062D01*
X192474568Y-94989062D01*
X192466874Y-94990281D01*
X192459935Y-94993817D01*
X192459934Y-94993817D01*
X192353719Y-95047936D01*
X192353717Y-95047937D01*
X192346780Y-95051472D01*
X192251472Y-95146780D01*
X192190281Y-95266874D01*
X192169196Y-95400000D01*
X155200500Y-95400000D01*
X155200500Y-94400000D01*
X164119196Y-94400000D01*
X164140281Y-94533126D01*
X164201472Y-94653220D01*
X164296780Y-94748528D01*
X164303717Y-94752063D01*
X164303719Y-94752064D01*
X164409934Y-94806183D01*
X164416874Y-94809719D01*
X164424568Y-94810938D01*
X164424569Y-94810938D01*
X164542304Y-94829585D01*
X164550000Y-94830804D01*
X164557696Y-94829585D01*
X164675431Y-94810938D01*
X164675432Y-94810938D01*
X164683126Y-94809719D01*
X164690066Y-94806183D01*
X164796281Y-94752064D01*
X164796283Y-94752063D01*
X164803220Y-94748528D01*
X164898528Y-94653220D01*
X164911790Y-94627192D01*
X164955055Y-94583927D01*
X165015487Y-94574356D01*
X165070004Y-94602134D01*
X165088210Y-94627192D01*
X165101472Y-94653220D01*
X165196780Y-94748528D01*
X165203717Y-94752063D01*
X165203719Y-94752064D01*
X165309934Y-94806183D01*
X165316874Y-94809719D01*
X165324568Y-94810938D01*
X165324569Y-94810938D01*
X165442304Y-94829585D01*
X165450000Y-94830804D01*
X165457696Y-94829585D01*
X165575431Y-94810938D01*
X165575432Y-94810938D01*
X165583126Y-94809719D01*
X165590066Y-94806183D01*
X165696281Y-94752064D01*
X165696283Y-94752063D01*
X165703220Y-94748528D01*
X165798528Y-94653220D01*
X165859719Y-94533126D01*
X165880804Y-94400000D01*
X165859719Y-94266874D01*
X165798528Y-94146780D01*
X165703220Y-94051472D01*
X165696283Y-94047937D01*
X165696281Y-94047936D01*
X165590066Y-93993817D01*
X165590065Y-93993817D01*
X165583126Y-93990281D01*
X165575432Y-93989062D01*
X165575431Y-93989062D01*
X165457696Y-93970415D01*
X165450000Y-93969196D01*
X165442304Y-93970415D01*
X165324569Y-93989062D01*
X165324568Y-93989062D01*
X165316874Y-93990281D01*
X165309935Y-93993817D01*
X165309934Y-93993817D01*
X165203719Y-94047936D01*
X165203717Y-94047937D01*
X165196780Y-94051472D01*
X165101472Y-94146780D01*
X165097937Y-94153717D01*
X165097936Y-94153719D01*
X165088210Y-94172808D01*
X165044945Y-94216073D01*
X164984513Y-94225644D01*
X164929996Y-94197866D01*
X164911790Y-94172808D01*
X164902064Y-94153719D01*
X164902063Y-94153717D01*
X164898528Y-94146780D01*
X164803220Y-94051472D01*
X164796283Y-94047937D01*
X164796281Y-94047936D01*
X164690066Y-93993817D01*
X164690065Y-93993817D01*
X164683126Y-93990281D01*
X164675432Y-93989062D01*
X164675431Y-93989062D01*
X164557696Y-93970415D01*
X164550000Y-93969196D01*
X164542304Y-93970415D01*
X164424569Y-93989062D01*
X164424568Y-93989062D01*
X164416874Y-93990281D01*
X164409935Y-93993817D01*
X164409934Y-93993817D01*
X164303719Y-94047936D01*
X164303717Y-94047937D01*
X164296780Y-94051472D01*
X164201472Y-94146780D01*
X164140281Y-94266874D01*
X164119196Y-94400000D01*
X155200500Y-94400000D01*
X155200500Y-92950000D01*
X165069196Y-92950000D01*
X165090281Y-93083126D01*
X165093817Y-93090065D01*
X165093817Y-93090066D01*
X165125996Y-93153220D01*
X165151472Y-93203220D01*
X165246780Y-93298528D01*
X165253717Y-93302063D01*
X165253719Y-93302064D01*
X165310125Y-93330804D01*
X165366874Y-93359719D01*
X165374568Y-93360938D01*
X165374569Y-93360938D01*
X165492304Y-93379585D01*
X165500000Y-93380804D01*
X165507696Y-93379585D01*
X165625431Y-93360938D01*
X165625432Y-93360938D01*
X165633126Y-93359719D01*
X165689875Y-93330804D01*
X165746281Y-93302064D01*
X165746283Y-93302063D01*
X165753220Y-93298528D01*
X165848528Y-93203220D01*
X165874005Y-93153220D01*
X165906183Y-93090066D01*
X165906183Y-93090065D01*
X165909719Y-93083126D01*
X165930804Y-92950000D01*
X165922885Y-92900000D01*
X169569196Y-92900000D01*
X169570415Y-92907696D01*
X169581007Y-92974569D01*
X169590281Y-93033126D01*
X169593817Y-93040065D01*
X169593817Y-93040066D01*
X169620434Y-93092304D01*
X169651472Y-93153220D01*
X169746780Y-93248528D01*
X169753717Y-93252063D01*
X169753719Y-93252064D01*
X169834104Y-93293022D01*
X169866874Y-93309719D01*
X169874568Y-93310938D01*
X169874569Y-93310938D01*
X169992304Y-93329585D01*
X170000000Y-93330804D01*
X170007696Y-93329585D01*
X170125431Y-93310938D01*
X170125432Y-93310938D01*
X170133126Y-93309719D01*
X170165896Y-93293022D01*
X170246281Y-93252064D01*
X170246283Y-93252063D01*
X170253220Y-93248528D01*
X170348528Y-93153220D01*
X170379567Y-93092304D01*
X170406183Y-93040066D01*
X170406183Y-93040065D01*
X170409719Y-93033126D01*
X170418994Y-92974569D01*
X170429585Y-92907696D01*
X170430804Y-92900000D01*
X171069196Y-92900000D01*
X171070415Y-92907696D01*
X171081007Y-92974569D01*
X171090281Y-93033126D01*
X171093817Y-93040065D01*
X171093817Y-93040066D01*
X171120434Y-93092304D01*
X171151472Y-93153220D01*
X171246780Y-93248528D01*
X171253717Y-93252063D01*
X171253719Y-93252064D01*
X171334104Y-93293022D01*
X171366874Y-93309719D01*
X171374568Y-93310938D01*
X171374569Y-93310938D01*
X171492304Y-93329585D01*
X171500000Y-93330804D01*
X171507696Y-93329585D01*
X171625431Y-93310938D01*
X171625432Y-93310938D01*
X171633126Y-93309719D01*
X171665896Y-93293022D01*
X171746281Y-93252064D01*
X171746283Y-93252063D01*
X171753220Y-93248528D01*
X171848528Y-93153220D01*
X171879567Y-93092304D01*
X171906183Y-93040066D01*
X171906183Y-93040065D01*
X171909719Y-93033126D01*
X171918994Y-92974569D01*
X171929585Y-92907696D01*
X171930804Y-92900000D01*
X177069196Y-92900000D01*
X177070415Y-92907696D01*
X177081007Y-92974569D01*
X177090281Y-93033126D01*
X177093817Y-93040065D01*
X177093817Y-93040066D01*
X177120434Y-93092304D01*
X177151472Y-93153220D01*
X177246780Y-93248528D01*
X177253717Y-93252063D01*
X177253719Y-93252064D01*
X177334104Y-93293022D01*
X177366874Y-93309719D01*
X177374568Y-93310938D01*
X177374569Y-93310938D01*
X177492304Y-93329585D01*
X177500000Y-93330804D01*
X177507696Y-93329585D01*
X177625431Y-93310938D01*
X177625432Y-93310938D01*
X177633126Y-93309719D01*
X177665896Y-93293022D01*
X177746281Y-93252064D01*
X177746283Y-93252063D01*
X177753220Y-93248528D01*
X177848528Y-93153220D01*
X177875646Y-93100000D01*
X178569196Y-93100000D01*
X178590281Y-93233126D01*
X178593817Y-93240065D01*
X178593817Y-93240066D01*
X178625407Y-93302064D01*
X178651472Y-93353220D01*
X178746780Y-93448528D01*
X178753717Y-93452063D01*
X178753719Y-93452064D01*
X178859934Y-93506183D01*
X178866874Y-93509719D01*
X178874568Y-93510938D01*
X178874569Y-93510938D01*
X178992304Y-93529585D01*
X179000000Y-93530804D01*
X179007696Y-93529585D01*
X179125431Y-93510938D01*
X179125432Y-93510938D01*
X179133126Y-93509719D01*
X179140066Y-93506183D01*
X179246281Y-93452064D01*
X179246283Y-93452063D01*
X179253220Y-93448528D01*
X179348528Y-93353220D01*
X179374594Y-93302064D01*
X179406183Y-93240066D01*
X179406183Y-93240065D01*
X179409719Y-93233126D01*
X179430804Y-93100000D01*
X180069196Y-93100000D01*
X180090281Y-93233126D01*
X180093817Y-93240065D01*
X180093817Y-93240066D01*
X180125407Y-93302064D01*
X180151472Y-93353220D01*
X180246780Y-93448528D01*
X180253717Y-93452063D01*
X180253719Y-93452064D01*
X180359934Y-93506183D01*
X180366874Y-93509719D01*
X180374568Y-93510938D01*
X180374569Y-93510938D01*
X180492304Y-93529585D01*
X180500000Y-93530804D01*
X180507696Y-93529585D01*
X180625431Y-93510938D01*
X180625432Y-93510938D01*
X180633126Y-93509719D01*
X180640066Y-93506183D01*
X180746281Y-93452064D01*
X180746283Y-93452063D01*
X180753220Y-93448528D01*
X180848528Y-93353220D01*
X180874594Y-93302064D01*
X180906183Y-93240066D01*
X180906183Y-93240065D01*
X180909719Y-93233126D01*
X180930804Y-93100000D01*
X180920212Y-93033126D01*
X180910938Y-92974569D01*
X180910938Y-92974568D01*
X180909719Y-92966874D01*
X180897200Y-92942304D01*
X180852064Y-92853719D01*
X180852063Y-92853717D01*
X180848528Y-92846780D01*
X180753220Y-92751472D01*
X180746283Y-92747937D01*
X180746281Y-92747936D01*
X180640066Y-92693817D01*
X180640065Y-92693817D01*
X180633126Y-92690281D01*
X180625432Y-92689062D01*
X180625431Y-92689062D01*
X180507696Y-92670415D01*
X180500000Y-92669196D01*
X180492304Y-92670415D01*
X180374569Y-92689062D01*
X180374568Y-92689062D01*
X180366874Y-92690281D01*
X180359935Y-92693817D01*
X180359934Y-92693817D01*
X180253719Y-92747936D01*
X180253717Y-92747937D01*
X180246780Y-92751472D01*
X180151472Y-92846780D01*
X180147937Y-92853717D01*
X180147936Y-92853719D01*
X180102800Y-92942304D01*
X180090281Y-92966874D01*
X180089062Y-92974568D01*
X180089062Y-92974569D01*
X180079788Y-93033126D01*
X180069196Y-93100000D01*
X179430804Y-93100000D01*
X179420212Y-93033126D01*
X179410938Y-92974569D01*
X179410938Y-92974568D01*
X179409719Y-92966874D01*
X179397200Y-92942304D01*
X179352064Y-92853719D01*
X179352063Y-92853717D01*
X179348528Y-92846780D01*
X179253220Y-92751472D01*
X179246283Y-92747937D01*
X179246281Y-92747936D01*
X179140066Y-92693817D01*
X179140065Y-92693817D01*
X179133126Y-92690281D01*
X179125432Y-92689062D01*
X179125431Y-92689062D01*
X179007696Y-92670415D01*
X179000000Y-92669196D01*
X178992304Y-92670415D01*
X178874569Y-92689062D01*
X178874568Y-92689062D01*
X178866874Y-92690281D01*
X178859935Y-92693817D01*
X178859934Y-92693817D01*
X178753719Y-92747936D01*
X178753717Y-92747937D01*
X178746780Y-92751472D01*
X178651472Y-92846780D01*
X178647937Y-92853717D01*
X178647936Y-92853719D01*
X178602800Y-92942304D01*
X178590281Y-92966874D01*
X178589062Y-92974568D01*
X178589062Y-92974569D01*
X178579788Y-93033126D01*
X178569196Y-93100000D01*
X177875646Y-93100000D01*
X177879567Y-93092304D01*
X177906183Y-93040066D01*
X177906183Y-93040065D01*
X177909719Y-93033126D01*
X177918994Y-92974569D01*
X177929585Y-92907696D01*
X177930804Y-92900000D01*
X177909719Y-92766874D01*
X177877540Y-92703719D01*
X177852064Y-92653719D01*
X177852063Y-92653717D01*
X177848528Y-92646780D01*
X177753220Y-92551472D01*
X177746283Y-92547937D01*
X177746281Y-92547936D01*
X177640066Y-92493817D01*
X177640065Y-92493817D01*
X177633126Y-92490281D01*
X177625432Y-92489062D01*
X177625431Y-92489062D01*
X177507696Y-92470415D01*
X177500000Y-92469196D01*
X177492304Y-92470415D01*
X177374569Y-92489062D01*
X177374568Y-92489062D01*
X177366874Y-92490281D01*
X177359935Y-92493817D01*
X177359934Y-92493817D01*
X177253719Y-92547936D01*
X177253717Y-92547937D01*
X177246780Y-92551472D01*
X177151472Y-92646780D01*
X177147937Y-92653717D01*
X177147936Y-92653719D01*
X177122460Y-92703719D01*
X177090281Y-92766874D01*
X177069196Y-92900000D01*
X171930804Y-92900000D01*
X171909719Y-92766874D01*
X171877540Y-92703719D01*
X171852064Y-92653719D01*
X171852063Y-92653717D01*
X171848528Y-92646780D01*
X171753220Y-92551472D01*
X171746283Y-92547937D01*
X171746281Y-92547936D01*
X171640066Y-92493817D01*
X171640065Y-92493817D01*
X171633126Y-92490281D01*
X171625432Y-92489062D01*
X171625431Y-92489062D01*
X171507696Y-92470415D01*
X171500000Y-92469196D01*
X171492304Y-92470415D01*
X171374569Y-92489062D01*
X171374568Y-92489062D01*
X171366874Y-92490281D01*
X171359935Y-92493817D01*
X171359934Y-92493817D01*
X171253719Y-92547936D01*
X171253717Y-92547937D01*
X171246780Y-92551472D01*
X171151472Y-92646780D01*
X171147937Y-92653717D01*
X171147936Y-92653719D01*
X171122460Y-92703719D01*
X171090281Y-92766874D01*
X171069196Y-92900000D01*
X170430804Y-92900000D01*
X170409719Y-92766874D01*
X170377540Y-92703719D01*
X170352064Y-92653719D01*
X170352063Y-92653717D01*
X170348528Y-92646780D01*
X170253220Y-92551472D01*
X170246283Y-92547937D01*
X170246281Y-92547936D01*
X170140066Y-92493817D01*
X170140065Y-92493817D01*
X170133126Y-92490281D01*
X170125432Y-92489062D01*
X170125431Y-92489062D01*
X170007696Y-92470415D01*
X170000000Y-92469196D01*
X169992304Y-92470415D01*
X169874569Y-92489062D01*
X169874568Y-92489062D01*
X169866874Y-92490281D01*
X169859935Y-92493817D01*
X169859934Y-92493817D01*
X169753719Y-92547936D01*
X169753717Y-92547937D01*
X169746780Y-92551472D01*
X169651472Y-92646780D01*
X169647937Y-92653717D01*
X169647936Y-92653719D01*
X169622460Y-92703719D01*
X169590281Y-92766874D01*
X169569196Y-92900000D01*
X165922885Y-92900000D01*
X165909719Y-92816874D01*
X165880707Y-92759934D01*
X165852064Y-92703719D01*
X165852063Y-92703717D01*
X165848528Y-92696780D01*
X165753220Y-92601472D01*
X165746283Y-92597937D01*
X165746281Y-92597936D01*
X165640066Y-92543817D01*
X165640065Y-92543817D01*
X165633126Y-92540281D01*
X165625432Y-92539062D01*
X165625431Y-92539062D01*
X165507696Y-92520415D01*
X165500000Y-92519196D01*
X165492304Y-92520415D01*
X165374569Y-92539062D01*
X165374568Y-92539062D01*
X165366874Y-92540281D01*
X165359935Y-92543817D01*
X165359934Y-92543817D01*
X165253719Y-92597936D01*
X165253717Y-92597937D01*
X165246780Y-92601472D01*
X165151472Y-92696780D01*
X165147937Y-92703717D01*
X165147936Y-92703719D01*
X165119293Y-92759934D01*
X165090281Y-92816874D01*
X165069196Y-92950000D01*
X155200500Y-92950000D01*
X155200500Y-91200000D01*
X165069196Y-91200000D01*
X165070415Y-91207696D01*
X165081007Y-91274569D01*
X165090281Y-91333126D01*
X165093817Y-91340065D01*
X165093817Y-91340066D01*
X165120434Y-91392304D01*
X165151472Y-91453220D01*
X165246780Y-91548528D01*
X165253717Y-91552063D01*
X165253719Y-91552064D01*
X165359934Y-91606183D01*
X165366874Y-91609719D01*
X165374568Y-91610938D01*
X165374569Y-91610938D01*
X165492304Y-91629585D01*
X165500000Y-91630804D01*
X165507696Y-91629585D01*
X165625431Y-91610938D01*
X165625432Y-91610938D01*
X165633126Y-91609719D01*
X165640066Y-91606183D01*
X165746281Y-91552064D01*
X165746283Y-91552063D01*
X165753220Y-91548528D01*
X165848528Y-91453220D01*
X165875646Y-91400000D01*
X169569196Y-91400000D01*
X169590281Y-91533126D01*
X169651472Y-91653220D01*
X169746780Y-91748528D01*
X169753717Y-91752063D01*
X169753719Y-91752064D01*
X169859934Y-91806183D01*
X169866874Y-91809719D01*
X169874568Y-91810938D01*
X169874569Y-91810938D01*
X169992304Y-91829585D01*
X170000000Y-91830804D01*
X170007696Y-91829585D01*
X170125431Y-91810938D01*
X170125432Y-91810938D01*
X170133126Y-91809719D01*
X170140066Y-91806183D01*
X170246281Y-91752064D01*
X170246283Y-91752063D01*
X170253220Y-91748528D01*
X170348528Y-91653220D01*
X170409719Y-91533126D01*
X170430804Y-91400000D01*
X180069196Y-91400000D01*
X180090281Y-91533126D01*
X180151472Y-91653220D01*
X180246780Y-91748528D01*
X180253717Y-91752063D01*
X180253719Y-91752064D01*
X180359934Y-91806183D01*
X180366874Y-91809719D01*
X180374568Y-91810938D01*
X180374569Y-91810938D01*
X180492304Y-91829585D01*
X180500000Y-91830804D01*
X180507696Y-91829585D01*
X180625431Y-91810938D01*
X180625432Y-91810938D01*
X180633126Y-91809719D01*
X180640066Y-91806183D01*
X180746281Y-91752064D01*
X180746283Y-91752063D01*
X180753220Y-91748528D01*
X180848528Y-91653220D01*
X180909719Y-91533126D01*
X180930804Y-91400000D01*
X180920212Y-91333126D01*
X180910938Y-91274569D01*
X180910938Y-91274568D01*
X180909719Y-91266874D01*
X180906183Y-91259934D01*
X180852064Y-91153719D01*
X180852063Y-91153717D01*
X180848528Y-91146780D01*
X180753220Y-91051472D01*
X180746283Y-91047937D01*
X180746281Y-91047936D01*
X180640066Y-90993817D01*
X180640065Y-90993817D01*
X180633126Y-90990281D01*
X180625432Y-90989062D01*
X180625431Y-90989062D01*
X180507696Y-90970415D01*
X180500000Y-90969196D01*
X180492304Y-90970415D01*
X180374569Y-90989062D01*
X180374568Y-90989062D01*
X180366874Y-90990281D01*
X180359935Y-90993817D01*
X180359934Y-90993817D01*
X180253719Y-91047936D01*
X180253717Y-91047937D01*
X180246780Y-91051472D01*
X180151472Y-91146780D01*
X180147937Y-91153717D01*
X180147936Y-91153719D01*
X180093817Y-91259934D01*
X180090281Y-91266874D01*
X180089062Y-91274568D01*
X180089062Y-91274569D01*
X180079788Y-91333126D01*
X180069196Y-91400000D01*
X170430804Y-91400000D01*
X170420212Y-91333126D01*
X170410938Y-91274569D01*
X170410938Y-91274568D01*
X170409719Y-91266874D01*
X170406183Y-91259934D01*
X170352064Y-91153719D01*
X170352063Y-91153717D01*
X170348528Y-91146780D01*
X170253220Y-91051472D01*
X170246283Y-91047937D01*
X170246281Y-91047936D01*
X170140066Y-90993817D01*
X170140065Y-90993817D01*
X170133126Y-90990281D01*
X170125432Y-90989062D01*
X170125431Y-90989062D01*
X170007696Y-90970415D01*
X170000000Y-90969196D01*
X169992304Y-90970415D01*
X169874569Y-90989062D01*
X169874568Y-90989062D01*
X169866874Y-90990281D01*
X169859935Y-90993817D01*
X169859934Y-90993817D01*
X169753719Y-91047936D01*
X169753717Y-91047937D01*
X169746780Y-91051472D01*
X169651472Y-91146780D01*
X169647937Y-91153717D01*
X169647936Y-91153719D01*
X169593817Y-91259934D01*
X169590281Y-91266874D01*
X169589062Y-91274568D01*
X169589062Y-91274569D01*
X169579788Y-91333126D01*
X169569196Y-91400000D01*
X165875646Y-91400000D01*
X165879567Y-91392304D01*
X165906183Y-91340066D01*
X165906183Y-91340065D01*
X165909719Y-91333126D01*
X165918994Y-91274569D01*
X165929585Y-91207696D01*
X165930804Y-91200000D01*
X165909719Y-91066874D01*
X165848528Y-90946780D01*
X165753220Y-90851472D01*
X165746283Y-90847937D01*
X165746281Y-90847936D01*
X165640066Y-90793817D01*
X165640065Y-90793817D01*
X165633126Y-90790281D01*
X165625432Y-90789062D01*
X165625431Y-90789062D01*
X165507696Y-90770415D01*
X165500000Y-90769196D01*
X165492304Y-90770415D01*
X165374569Y-90789062D01*
X165374568Y-90789062D01*
X165366874Y-90790281D01*
X165359935Y-90793817D01*
X165359934Y-90793817D01*
X165253719Y-90847936D01*
X165253717Y-90847937D01*
X165246780Y-90851472D01*
X165151472Y-90946780D01*
X165090281Y-91066874D01*
X165069196Y-91200000D01*
X155200500Y-91200000D01*
X155200500Y-90300000D01*
X161969196Y-90300000D01*
X161970415Y-90307696D01*
X161978655Y-90359719D01*
X161990281Y-90433126D01*
X162051472Y-90553220D01*
X162146780Y-90648528D01*
X162153717Y-90652063D01*
X162153719Y-90652064D01*
X162259934Y-90706183D01*
X162266874Y-90709719D01*
X162274568Y-90710938D01*
X162274569Y-90710938D01*
X162392304Y-90729585D01*
X162400000Y-90730804D01*
X162407696Y-90729585D01*
X162525431Y-90710938D01*
X162525432Y-90710938D01*
X162533126Y-90709719D01*
X162540066Y-90706183D01*
X162646281Y-90652064D01*
X162646283Y-90652063D01*
X162653220Y-90648528D01*
X162748528Y-90553220D01*
X162809719Y-90433126D01*
X162821346Y-90359719D01*
X162829585Y-90307696D01*
X162830804Y-90300000D01*
X163169196Y-90300000D01*
X163170415Y-90307696D01*
X163178655Y-90359719D01*
X163190281Y-90433126D01*
X163251472Y-90553220D01*
X163346780Y-90648528D01*
X163353717Y-90652063D01*
X163353719Y-90652064D01*
X163459934Y-90706183D01*
X163466874Y-90709719D01*
X163474568Y-90710938D01*
X163474569Y-90710938D01*
X163592304Y-90729585D01*
X163600000Y-90730804D01*
X163607696Y-90729585D01*
X163725431Y-90710938D01*
X163725432Y-90710938D01*
X163733126Y-90709719D01*
X163740066Y-90706183D01*
X163846281Y-90652064D01*
X163846283Y-90652063D01*
X163853220Y-90648528D01*
X163948528Y-90553220D01*
X164009719Y-90433126D01*
X164021346Y-90359719D01*
X164029585Y-90307696D01*
X164030804Y-90300000D01*
X164009719Y-90166874D01*
X163999226Y-90146281D01*
X163952064Y-90053719D01*
X163952063Y-90053717D01*
X163948528Y-90046780D01*
X163853220Y-89951472D01*
X163850331Y-89950000D01*
X166569196Y-89950000D01*
X166590281Y-90083126D01*
X166593817Y-90090065D01*
X166593817Y-90090066D01*
X166636874Y-90174569D01*
X166651472Y-90203220D01*
X166746780Y-90298528D01*
X166753717Y-90302063D01*
X166753719Y-90302064D01*
X166810125Y-90330804D01*
X166866874Y-90359719D01*
X166874568Y-90360938D01*
X166874569Y-90360938D01*
X166992304Y-90379585D01*
X167000000Y-90380804D01*
X167007696Y-90379585D01*
X167125431Y-90360938D01*
X167125432Y-90360938D01*
X167133126Y-90359719D01*
X167189875Y-90330804D01*
X167246281Y-90302064D01*
X167246283Y-90302063D01*
X167253220Y-90298528D01*
X167348528Y-90203220D01*
X167363127Y-90174569D01*
X167406183Y-90090066D01*
X167406183Y-90090065D01*
X167409719Y-90083126D01*
X167430804Y-89950000D01*
X169569196Y-89950000D01*
X169590281Y-90083126D01*
X169593817Y-90090065D01*
X169593817Y-90090066D01*
X169636874Y-90174569D01*
X169651472Y-90203220D01*
X169746780Y-90298528D01*
X169753717Y-90302063D01*
X169753719Y-90302064D01*
X169810125Y-90330804D01*
X169866874Y-90359719D01*
X169874568Y-90360938D01*
X169874569Y-90360938D01*
X169992304Y-90379585D01*
X170000000Y-90380804D01*
X170007696Y-90379585D01*
X170125431Y-90360938D01*
X170125432Y-90360938D01*
X170133126Y-90359719D01*
X170189875Y-90330804D01*
X170246281Y-90302064D01*
X170246283Y-90302063D01*
X170253220Y-90298528D01*
X170348528Y-90203220D01*
X170363127Y-90174569D01*
X170406183Y-90090066D01*
X170406183Y-90090065D01*
X170409719Y-90083126D01*
X170430804Y-89950000D01*
X170422885Y-89900000D01*
X180069196Y-89900000D01*
X180090281Y-90033126D01*
X180151472Y-90153220D01*
X180246780Y-90248528D01*
X180253717Y-90252063D01*
X180253719Y-90252064D01*
X180332695Y-90292304D01*
X180366874Y-90309719D01*
X180374568Y-90310938D01*
X180374569Y-90310938D01*
X180492304Y-90329585D01*
X180500000Y-90330804D01*
X180507696Y-90329585D01*
X180625431Y-90310938D01*
X180625432Y-90310938D01*
X180633126Y-90309719D01*
X180667305Y-90292304D01*
X180746281Y-90252064D01*
X180746283Y-90252063D01*
X180753220Y-90248528D01*
X180848528Y-90153220D01*
X180909719Y-90033126D01*
X180930804Y-89900000D01*
X183069196Y-89900000D01*
X183090281Y-90033126D01*
X183151472Y-90153220D01*
X183246780Y-90248528D01*
X183253717Y-90252063D01*
X183253719Y-90252064D01*
X183332695Y-90292304D01*
X183366874Y-90309719D01*
X183374568Y-90310938D01*
X183374569Y-90310938D01*
X183492304Y-90329585D01*
X183500000Y-90330804D01*
X183507696Y-90329585D01*
X183625431Y-90310938D01*
X183625432Y-90310938D01*
X183633126Y-90309719D01*
X183667305Y-90292304D01*
X183746281Y-90252064D01*
X183746283Y-90252063D01*
X183753220Y-90248528D01*
X183848528Y-90153220D01*
X183909719Y-90033126D01*
X183930804Y-89900000D01*
X183920432Y-89834513D01*
X183910938Y-89774569D01*
X183910938Y-89774568D01*
X183909719Y-89766874D01*
X183877540Y-89703719D01*
X183852064Y-89653719D01*
X183852063Y-89653717D01*
X183848528Y-89646780D01*
X183753220Y-89551472D01*
X183746283Y-89547937D01*
X183746281Y-89547936D01*
X183640066Y-89493817D01*
X183640065Y-89493817D01*
X183633126Y-89490281D01*
X183625432Y-89489062D01*
X183625431Y-89489062D01*
X183507696Y-89470415D01*
X183500000Y-89469196D01*
X183492304Y-89470415D01*
X183374569Y-89489062D01*
X183374568Y-89489062D01*
X183366874Y-89490281D01*
X183359935Y-89493817D01*
X183359934Y-89493817D01*
X183253719Y-89547936D01*
X183253717Y-89547937D01*
X183246780Y-89551472D01*
X183151472Y-89646780D01*
X183147937Y-89653717D01*
X183147936Y-89653719D01*
X183122460Y-89703719D01*
X183090281Y-89766874D01*
X183089062Y-89774568D01*
X183089062Y-89774569D01*
X183079568Y-89834513D01*
X183069196Y-89900000D01*
X180930804Y-89900000D01*
X180920432Y-89834513D01*
X180910938Y-89774569D01*
X180910938Y-89774568D01*
X180909719Y-89766874D01*
X180877540Y-89703719D01*
X180852064Y-89653719D01*
X180852063Y-89653717D01*
X180848528Y-89646780D01*
X180753220Y-89551472D01*
X180746283Y-89547937D01*
X180746281Y-89547936D01*
X180640066Y-89493817D01*
X180640065Y-89493817D01*
X180633126Y-89490281D01*
X180625432Y-89489062D01*
X180625431Y-89489062D01*
X180507696Y-89470415D01*
X180500000Y-89469196D01*
X180492304Y-89470415D01*
X180374569Y-89489062D01*
X180374568Y-89489062D01*
X180366874Y-89490281D01*
X180359935Y-89493817D01*
X180359934Y-89493817D01*
X180253719Y-89547936D01*
X180253717Y-89547937D01*
X180246780Y-89551472D01*
X180151472Y-89646780D01*
X180147937Y-89653717D01*
X180147936Y-89653719D01*
X180122460Y-89703719D01*
X180090281Y-89766874D01*
X180089062Y-89774568D01*
X180089062Y-89774569D01*
X180079568Y-89834513D01*
X180069196Y-89900000D01*
X170422885Y-89900000D01*
X170421666Y-89892304D01*
X170410938Y-89824569D01*
X170410938Y-89824568D01*
X170409719Y-89816874D01*
X170384243Y-89766874D01*
X170352064Y-89703719D01*
X170352063Y-89703717D01*
X170348528Y-89696780D01*
X170253220Y-89601472D01*
X170246283Y-89597937D01*
X170246281Y-89597936D01*
X170140066Y-89543817D01*
X170140065Y-89543817D01*
X170133126Y-89540281D01*
X170125432Y-89539062D01*
X170125431Y-89539062D01*
X170007696Y-89520415D01*
X170000000Y-89519196D01*
X169992304Y-89520415D01*
X169874569Y-89539062D01*
X169874568Y-89539062D01*
X169866874Y-89540281D01*
X169859935Y-89543817D01*
X169859934Y-89543817D01*
X169753719Y-89597936D01*
X169753717Y-89597937D01*
X169746780Y-89601472D01*
X169651472Y-89696780D01*
X169647937Y-89703717D01*
X169647936Y-89703719D01*
X169615757Y-89766874D01*
X169590281Y-89816874D01*
X169589062Y-89824568D01*
X169589062Y-89824569D01*
X169578334Y-89892304D01*
X169569196Y-89950000D01*
X167430804Y-89950000D01*
X167421666Y-89892304D01*
X167410938Y-89824569D01*
X167410938Y-89824568D01*
X167409719Y-89816874D01*
X167384243Y-89766874D01*
X167352064Y-89703719D01*
X167352063Y-89703717D01*
X167348528Y-89696780D01*
X167253220Y-89601472D01*
X167246283Y-89597937D01*
X167246281Y-89597936D01*
X167140066Y-89543817D01*
X167140065Y-89543817D01*
X167133126Y-89540281D01*
X167125432Y-89539062D01*
X167125431Y-89539062D01*
X167007696Y-89520415D01*
X167000000Y-89519196D01*
X166992304Y-89520415D01*
X166874569Y-89539062D01*
X166874568Y-89539062D01*
X166866874Y-89540281D01*
X166859935Y-89543817D01*
X166859934Y-89543817D01*
X166753719Y-89597936D01*
X166753717Y-89597937D01*
X166746780Y-89601472D01*
X166651472Y-89696780D01*
X166647937Y-89703717D01*
X166647936Y-89703719D01*
X166615757Y-89766874D01*
X166590281Y-89816874D01*
X166589062Y-89824568D01*
X166589062Y-89824569D01*
X166578334Y-89892304D01*
X166569196Y-89950000D01*
X163850331Y-89950000D01*
X163846283Y-89947937D01*
X163846281Y-89947936D01*
X163827192Y-89938210D01*
X163783927Y-89894945D01*
X163774356Y-89834513D01*
X163802134Y-89779996D01*
X163827192Y-89761790D01*
X163846281Y-89752064D01*
X163846283Y-89752063D01*
X163853220Y-89748528D01*
X163948528Y-89653220D01*
X163972090Y-89606978D01*
X164006183Y-89540066D01*
X164006183Y-89540065D01*
X164009719Y-89533126D01*
X164011926Y-89519196D01*
X164029585Y-89407696D01*
X164030804Y-89400000D01*
X164015293Y-89302064D01*
X164010938Y-89274569D01*
X164010938Y-89274568D01*
X164009719Y-89266874D01*
X163948528Y-89146780D01*
X163871752Y-89070004D01*
X163843975Y-89015487D01*
X163853546Y-88955055D01*
X163871752Y-88929996D01*
X163948528Y-88853220D01*
X163963127Y-88824569D01*
X164006183Y-88740066D01*
X164006183Y-88740065D01*
X164009719Y-88733126D01*
X164030804Y-88600000D01*
X164020212Y-88533126D01*
X164010938Y-88474569D01*
X164010938Y-88474568D01*
X164009719Y-88466874D01*
X164002928Y-88453546D01*
X163952064Y-88353719D01*
X163952063Y-88353717D01*
X163948528Y-88346780D01*
X163853220Y-88251472D01*
X163846283Y-88247937D01*
X163846281Y-88247936D01*
X163740066Y-88193817D01*
X163740065Y-88193817D01*
X163733126Y-88190281D01*
X163725432Y-88189062D01*
X163725431Y-88189062D01*
X163607696Y-88170415D01*
X163600000Y-88169196D01*
X163592304Y-88170415D01*
X163474569Y-88189062D01*
X163474568Y-88189062D01*
X163466874Y-88190281D01*
X163459935Y-88193817D01*
X163459934Y-88193817D01*
X163353719Y-88247936D01*
X163353717Y-88247937D01*
X163346780Y-88251472D01*
X163251472Y-88346780D01*
X163247937Y-88353717D01*
X163247936Y-88353719D01*
X163197072Y-88453546D01*
X163190281Y-88466874D01*
X163189062Y-88474568D01*
X163189062Y-88474569D01*
X163179788Y-88533126D01*
X163169196Y-88600000D01*
X163190281Y-88733126D01*
X163193817Y-88740065D01*
X163193817Y-88740066D01*
X163236874Y-88824569D01*
X163251472Y-88853220D01*
X163328248Y-88929996D01*
X163356025Y-88984513D01*
X163346454Y-89044945D01*
X163328248Y-89070004D01*
X163251472Y-89146780D01*
X163190281Y-89266874D01*
X163189062Y-89274568D01*
X163189062Y-89274569D01*
X163184707Y-89302064D01*
X163169196Y-89400000D01*
X163170415Y-89407696D01*
X163188075Y-89519196D01*
X163190281Y-89533126D01*
X163193817Y-89540065D01*
X163193817Y-89540066D01*
X163227911Y-89606978D01*
X163251472Y-89653220D01*
X163346780Y-89748528D01*
X163353717Y-89752063D01*
X163353719Y-89752064D01*
X163372808Y-89761790D01*
X163416073Y-89805055D01*
X163425644Y-89865487D01*
X163397866Y-89920004D01*
X163372808Y-89938210D01*
X163353719Y-89947936D01*
X163353717Y-89947937D01*
X163346780Y-89951472D01*
X163251472Y-90046780D01*
X163247937Y-90053717D01*
X163247936Y-90053719D01*
X163200774Y-90146281D01*
X163190281Y-90166874D01*
X163169196Y-90300000D01*
X162830804Y-90300000D01*
X162809719Y-90166874D01*
X162799226Y-90146281D01*
X162752064Y-90053719D01*
X162752063Y-90053717D01*
X162748528Y-90046780D01*
X162653220Y-89951472D01*
X162646283Y-89947937D01*
X162646281Y-89947936D01*
X162627192Y-89938210D01*
X162583927Y-89894945D01*
X162574356Y-89834513D01*
X162602134Y-89779996D01*
X162627192Y-89761790D01*
X162646281Y-89752064D01*
X162646283Y-89752063D01*
X162653220Y-89748528D01*
X162748528Y-89653220D01*
X162772090Y-89606978D01*
X162806183Y-89540066D01*
X162806183Y-89540065D01*
X162809719Y-89533126D01*
X162811926Y-89519196D01*
X162829585Y-89407696D01*
X162830804Y-89400000D01*
X162815293Y-89302064D01*
X162810938Y-89274569D01*
X162810938Y-89274568D01*
X162809719Y-89266874D01*
X162748528Y-89146780D01*
X162671752Y-89070004D01*
X162643975Y-89015487D01*
X162653546Y-88955055D01*
X162671752Y-88929996D01*
X162748528Y-88853220D01*
X162763127Y-88824569D01*
X162806183Y-88740066D01*
X162806183Y-88740065D01*
X162809719Y-88733126D01*
X162830804Y-88600000D01*
X162820212Y-88533126D01*
X162810938Y-88474569D01*
X162810938Y-88474568D01*
X162809719Y-88466874D01*
X162802928Y-88453546D01*
X162752064Y-88353719D01*
X162752063Y-88353717D01*
X162748528Y-88346780D01*
X162653220Y-88251472D01*
X162646283Y-88247937D01*
X162646281Y-88247936D01*
X162540066Y-88193817D01*
X162540065Y-88193817D01*
X162533126Y-88190281D01*
X162525432Y-88189062D01*
X162525431Y-88189062D01*
X162407696Y-88170415D01*
X162400000Y-88169196D01*
X162392304Y-88170415D01*
X162274569Y-88189062D01*
X162274568Y-88189062D01*
X162266874Y-88190281D01*
X162259935Y-88193817D01*
X162259934Y-88193817D01*
X162153719Y-88247936D01*
X162153717Y-88247937D01*
X162146780Y-88251472D01*
X162051472Y-88346780D01*
X162047937Y-88353717D01*
X162047936Y-88353719D01*
X161997072Y-88453546D01*
X161990281Y-88466874D01*
X161989062Y-88474568D01*
X161989062Y-88474569D01*
X161979788Y-88533126D01*
X161969196Y-88600000D01*
X161990281Y-88733126D01*
X161993817Y-88740065D01*
X161993817Y-88740066D01*
X162036874Y-88824569D01*
X162051472Y-88853220D01*
X162128248Y-88929996D01*
X162156025Y-88984513D01*
X162146454Y-89044945D01*
X162128248Y-89070004D01*
X162051472Y-89146780D01*
X161990281Y-89266874D01*
X161989062Y-89274568D01*
X161989062Y-89274569D01*
X161984707Y-89302064D01*
X161969196Y-89400000D01*
X161970415Y-89407696D01*
X161988075Y-89519196D01*
X161990281Y-89533126D01*
X161993817Y-89540065D01*
X161993817Y-89540066D01*
X162027911Y-89606978D01*
X162051472Y-89653220D01*
X162146780Y-89748528D01*
X162153717Y-89752063D01*
X162153719Y-89752064D01*
X162172808Y-89761790D01*
X162216073Y-89805055D01*
X162225644Y-89865487D01*
X162197866Y-89920004D01*
X162172808Y-89938210D01*
X162153719Y-89947936D01*
X162153717Y-89947937D01*
X162146780Y-89951472D01*
X162051472Y-90046780D01*
X162047937Y-90053717D01*
X162047936Y-90053719D01*
X162000774Y-90146281D01*
X161990281Y-90166874D01*
X161969196Y-90300000D01*
X155200500Y-90300000D01*
X155200500Y-88950000D01*
X156269196Y-88950000D01*
X156270415Y-88957696D01*
X156288203Y-89070004D01*
X156290281Y-89083126D01*
X156351472Y-89203220D01*
X156446780Y-89298528D01*
X156453717Y-89302063D01*
X156453719Y-89302064D01*
X156559934Y-89356183D01*
X156566874Y-89359719D01*
X156574568Y-89360938D01*
X156574569Y-89360938D01*
X156692304Y-89379585D01*
X156700000Y-89380804D01*
X156707696Y-89379585D01*
X156825431Y-89360938D01*
X156825432Y-89360938D01*
X156833126Y-89359719D01*
X156840066Y-89356183D01*
X156946281Y-89302064D01*
X156946283Y-89302063D01*
X156953220Y-89298528D01*
X156958726Y-89293022D01*
X156965034Y-89288439D01*
X156966730Y-89290773D01*
X157009513Y-89268975D01*
X157069945Y-89278546D01*
X157084481Y-89289107D01*
X157084966Y-89288439D01*
X157091274Y-89293022D01*
X157096780Y-89298528D01*
X157103717Y-89302063D01*
X157103719Y-89302064D01*
X157209934Y-89356183D01*
X157216874Y-89359719D01*
X157224568Y-89360938D01*
X157224569Y-89360938D01*
X157342304Y-89379585D01*
X157350000Y-89380804D01*
X157357696Y-89379585D01*
X157475431Y-89360938D01*
X157475432Y-89360938D01*
X157483126Y-89359719D01*
X157490066Y-89356183D01*
X157596281Y-89302064D01*
X157596283Y-89302063D01*
X157603220Y-89298528D01*
X157698528Y-89203220D01*
X157759719Y-89083126D01*
X157761798Y-89070004D01*
X157779585Y-88957696D01*
X157780804Y-88950000D01*
X157764377Y-88846281D01*
X157760938Y-88824569D01*
X157760938Y-88824568D01*
X157759719Y-88816874D01*
X157754272Y-88806183D01*
X157702064Y-88703719D01*
X157702063Y-88703717D01*
X157698528Y-88696780D01*
X157621752Y-88620004D01*
X157593975Y-88565487D01*
X157603546Y-88505055D01*
X157621752Y-88479996D01*
X157629996Y-88471752D01*
X157684513Y-88443975D01*
X157744945Y-88453546D01*
X157770004Y-88471752D01*
X157796780Y-88498528D01*
X157803717Y-88502063D01*
X157803719Y-88502064D01*
X157897799Y-88550000D01*
X157916874Y-88559719D01*
X157924568Y-88560938D01*
X157924569Y-88560938D01*
X158042304Y-88579585D01*
X158050000Y-88580804D01*
X158057696Y-88579585D01*
X158175431Y-88560938D01*
X158175432Y-88560938D01*
X158183126Y-88559719D01*
X158202201Y-88550000D01*
X158296281Y-88502064D01*
X158296283Y-88502063D01*
X158303220Y-88498528D01*
X158398528Y-88403220D01*
X158402830Y-88394778D01*
X158456183Y-88290066D01*
X158456183Y-88290065D01*
X158459719Y-88283126D01*
X158461075Y-88274569D01*
X158479585Y-88157696D01*
X158480804Y-88150000D01*
X169569196Y-88150000D01*
X169570415Y-88157696D01*
X169588926Y-88274569D01*
X169590281Y-88283126D01*
X169593817Y-88290065D01*
X169593817Y-88290066D01*
X169647171Y-88394778D01*
X169651472Y-88403220D01*
X169746780Y-88498528D01*
X169753717Y-88502063D01*
X169753719Y-88502064D01*
X169847799Y-88550000D01*
X169866874Y-88559719D01*
X169874568Y-88560938D01*
X169874569Y-88560938D01*
X169992304Y-88579585D01*
X170000000Y-88580804D01*
X170007696Y-88579585D01*
X170125431Y-88560938D01*
X170125432Y-88560938D01*
X170133126Y-88559719D01*
X170152201Y-88550000D01*
X170246281Y-88502064D01*
X170246283Y-88502063D01*
X170253220Y-88498528D01*
X170348528Y-88403220D01*
X170350169Y-88400000D01*
X180069196Y-88400000D01*
X180070415Y-88407696D01*
X180081007Y-88474569D01*
X180090281Y-88533126D01*
X180093817Y-88540065D01*
X180093817Y-88540066D01*
X180134548Y-88620004D01*
X180151472Y-88653220D01*
X180246780Y-88748528D01*
X180253717Y-88752063D01*
X180253719Y-88752064D01*
X180334581Y-88793265D01*
X180366874Y-88809719D01*
X180374568Y-88810938D01*
X180374569Y-88810938D01*
X180492304Y-88829585D01*
X180500000Y-88830804D01*
X180507696Y-88829585D01*
X180625431Y-88810938D01*
X180625432Y-88810938D01*
X180633126Y-88809719D01*
X180665419Y-88793265D01*
X180746281Y-88752064D01*
X180746283Y-88752063D01*
X180753220Y-88748528D01*
X180848528Y-88653220D01*
X180865453Y-88620004D01*
X180906183Y-88540066D01*
X180906183Y-88540065D01*
X180909719Y-88533126D01*
X180918994Y-88474569D01*
X180929585Y-88407696D01*
X180930804Y-88400000D01*
X180928758Y-88387082D01*
X181569833Y-88387082D01*
X181571052Y-88394778D01*
X181583690Y-88474569D01*
X181590918Y-88520208D01*
X181594454Y-88527147D01*
X181594454Y-88527148D01*
X181641767Y-88620004D01*
X181652109Y-88640302D01*
X181747417Y-88735610D01*
X181754354Y-88739145D01*
X181754356Y-88739146D01*
X181860571Y-88793265D01*
X181867511Y-88796801D01*
X181875205Y-88798020D01*
X181875206Y-88798020D01*
X181992941Y-88816667D01*
X182000637Y-88817886D01*
X182008333Y-88816667D01*
X182126068Y-88798020D01*
X182126069Y-88798020D01*
X182133763Y-88796801D01*
X182140703Y-88793265D01*
X182246918Y-88739146D01*
X182246920Y-88739145D01*
X182253857Y-88735610D01*
X182349165Y-88640302D01*
X182359508Y-88620004D01*
X182406820Y-88527148D01*
X182406820Y-88527147D01*
X182410356Y-88520208D01*
X182417585Y-88474569D01*
X182430222Y-88394778D01*
X182431441Y-88387082D01*
X183069833Y-88387082D01*
X183071052Y-88394778D01*
X183083690Y-88474569D01*
X183090918Y-88520208D01*
X183094454Y-88527147D01*
X183094454Y-88527148D01*
X183141767Y-88620004D01*
X183152109Y-88640302D01*
X183247417Y-88735610D01*
X183254354Y-88739145D01*
X183254356Y-88739146D01*
X183360571Y-88793265D01*
X183367511Y-88796801D01*
X183375205Y-88798020D01*
X183375206Y-88798020D01*
X183492941Y-88816667D01*
X183500637Y-88817886D01*
X183508333Y-88816667D01*
X183626068Y-88798020D01*
X183626069Y-88798020D01*
X183633763Y-88796801D01*
X183640703Y-88793265D01*
X183746918Y-88739146D01*
X183746920Y-88739145D01*
X183753857Y-88735610D01*
X183849165Y-88640302D01*
X183859508Y-88620004D01*
X183906820Y-88527148D01*
X183906820Y-88527147D01*
X183910356Y-88520208D01*
X183917585Y-88474569D01*
X183930222Y-88394778D01*
X183931441Y-88387082D01*
X183910356Y-88253956D01*
X183855747Y-88146780D01*
X183852701Y-88140801D01*
X183852700Y-88140799D01*
X183849165Y-88133862D01*
X183753857Y-88038554D01*
X183746920Y-88035019D01*
X183746918Y-88035018D01*
X183640703Y-87980899D01*
X183640702Y-87980899D01*
X183633763Y-87977363D01*
X183626069Y-87976144D01*
X183626068Y-87976144D01*
X183508333Y-87957497D01*
X183500637Y-87956278D01*
X183492941Y-87957497D01*
X183375206Y-87976144D01*
X183375205Y-87976144D01*
X183367511Y-87977363D01*
X183360572Y-87980899D01*
X183360571Y-87980899D01*
X183254356Y-88035018D01*
X183254354Y-88035019D01*
X183247417Y-88038554D01*
X183152109Y-88133862D01*
X183148574Y-88140799D01*
X183148573Y-88140801D01*
X183145527Y-88146780D01*
X183090918Y-88253956D01*
X183069833Y-88387082D01*
X182431441Y-88387082D01*
X182410356Y-88253956D01*
X182355747Y-88146780D01*
X182352701Y-88140801D01*
X182352700Y-88140799D01*
X182349165Y-88133862D01*
X182253857Y-88038554D01*
X182246920Y-88035019D01*
X182246918Y-88035018D01*
X182140703Y-87980899D01*
X182140702Y-87980899D01*
X182133763Y-87977363D01*
X182126069Y-87976144D01*
X182126068Y-87976144D01*
X182008333Y-87957497D01*
X182000637Y-87956278D01*
X181992941Y-87957497D01*
X181875206Y-87976144D01*
X181875205Y-87976144D01*
X181867511Y-87977363D01*
X181860572Y-87980899D01*
X181860571Y-87980899D01*
X181754356Y-88035018D01*
X181754354Y-88035019D01*
X181747417Y-88038554D01*
X181652109Y-88133862D01*
X181648574Y-88140799D01*
X181648573Y-88140801D01*
X181645527Y-88146780D01*
X181590918Y-88253956D01*
X181569833Y-88387082D01*
X180928758Y-88387082D01*
X180912293Y-88283126D01*
X180910938Y-88274569D01*
X180910938Y-88274568D01*
X180909719Y-88266874D01*
X180848528Y-88146780D01*
X180753220Y-88051472D01*
X180746283Y-88047937D01*
X180746281Y-88047936D01*
X180640066Y-87993817D01*
X180640065Y-87993817D01*
X180633126Y-87990281D01*
X180625432Y-87989062D01*
X180625431Y-87989062D01*
X180507696Y-87970415D01*
X180500000Y-87969196D01*
X180492304Y-87970415D01*
X180374569Y-87989062D01*
X180374568Y-87989062D01*
X180366874Y-87990281D01*
X180359935Y-87993817D01*
X180359934Y-87993817D01*
X180253719Y-88047936D01*
X180253717Y-88047937D01*
X180246780Y-88051472D01*
X180151472Y-88146780D01*
X180090281Y-88266874D01*
X180089062Y-88274568D01*
X180089062Y-88274569D01*
X180087707Y-88283126D01*
X180069196Y-88400000D01*
X170350169Y-88400000D01*
X170352830Y-88394778D01*
X170406183Y-88290066D01*
X170406183Y-88290065D01*
X170409719Y-88283126D01*
X170411075Y-88274569D01*
X170429585Y-88157696D01*
X170430804Y-88150000D01*
X170409719Y-88016874D01*
X170348528Y-87896780D01*
X170253220Y-87801472D01*
X170246283Y-87797937D01*
X170246281Y-87797936D01*
X170140066Y-87743817D01*
X170140065Y-87743817D01*
X170133126Y-87740281D01*
X170125432Y-87739062D01*
X170125431Y-87739062D01*
X170007696Y-87720415D01*
X170000000Y-87719196D01*
X169992304Y-87720415D01*
X169874569Y-87739062D01*
X169874568Y-87739062D01*
X169866874Y-87740281D01*
X169859935Y-87743817D01*
X169859934Y-87743817D01*
X169753719Y-87797936D01*
X169753717Y-87797937D01*
X169746780Y-87801472D01*
X169651472Y-87896780D01*
X169590281Y-88016874D01*
X169569196Y-88150000D01*
X158480804Y-88150000D01*
X158459719Y-88016874D01*
X158398528Y-87896780D01*
X158346752Y-87845004D01*
X158318975Y-87790487D01*
X158328546Y-87730055D01*
X158346752Y-87704996D01*
X158398528Y-87653220D01*
X158409757Y-87631183D01*
X158456183Y-87540066D01*
X158456183Y-87540065D01*
X158459719Y-87533126D01*
X158480804Y-87400000D01*
X158472953Y-87350431D01*
X158460938Y-87274569D01*
X158460938Y-87274568D01*
X158459719Y-87266874D01*
X158447566Y-87243022D01*
X158402064Y-87153719D01*
X158402063Y-87153717D01*
X158398528Y-87146780D01*
X158303220Y-87051472D01*
X158296283Y-87047937D01*
X158296281Y-87047936D01*
X158190066Y-86993817D01*
X158190065Y-86993817D01*
X158183126Y-86990281D01*
X158175432Y-86989062D01*
X158175431Y-86989062D01*
X158086978Y-86975053D01*
X158050000Y-86969196D01*
X158013022Y-86975053D01*
X157924569Y-86989062D01*
X157924568Y-86989062D01*
X157916874Y-86990281D01*
X157909935Y-86993817D01*
X157909934Y-86993817D01*
X157803719Y-87047936D01*
X157803717Y-87047937D01*
X157796780Y-87051472D01*
X157770004Y-87078248D01*
X157715487Y-87106025D01*
X157655055Y-87096454D01*
X157629996Y-87078248D01*
X157603220Y-87051472D01*
X157596283Y-87047937D01*
X157596281Y-87047936D01*
X157490066Y-86993817D01*
X157490065Y-86993817D01*
X157483126Y-86990281D01*
X157475432Y-86989062D01*
X157475431Y-86989062D01*
X157386978Y-86975053D01*
X157350000Y-86969196D01*
X157313022Y-86975053D01*
X157224569Y-86989062D01*
X157224568Y-86989062D01*
X157216874Y-86990281D01*
X157209935Y-86993817D01*
X157209934Y-86993817D01*
X157103719Y-87047936D01*
X157103717Y-87047937D01*
X157096780Y-87051472D01*
X157091274Y-87056978D01*
X157084966Y-87061561D01*
X157083270Y-87059227D01*
X157040487Y-87081025D01*
X156980055Y-87071454D01*
X156965519Y-87060893D01*
X156965034Y-87061561D01*
X156958726Y-87056978D01*
X156953220Y-87051472D01*
X156946283Y-87047937D01*
X156946281Y-87047936D01*
X156840066Y-86993817D01*
X156840065Y-86993817D01*
X156833126Y-86990281D01*
X156825432Y-86989062D01*
X156825431Y-86989062D01*
X156736978Y-86975053D01*
X156700000Y-86969196D01*
X156663022Y-86975053D01*
X156574569Y-86989062D01*
X156574568Y-86989062D01*
X156566874Y-86990281D01*
X156559935Y-86993817D01*
X156559934Y-86993817D01*
X156453719Y-87047936D01*
X156453717Y-87047937D01*
X156446780Y-87051472D01*
X156351472Y-87146780D01*
X156347937Y-87153717D01*
X156347936Y-87153719D01*
X156302434Y-87243022D01*
X156290281Y-87266874D01*
X156289062Y-87274568D01*
X156289062Y-87274569D01*
X156277047Y-87350431D01*
X156269196Y-87400000D01*
X156290281Y-87533126D01*
X156293817Y-87540065D01*
X156293817Y-87540066D01*
X156340244Y-87631183D01*
X156351472Y-87653220D01*
X156403248Y-87704996D01*
X156431025Y-87759513D01*
X156421454Y-87819945D01*
X156403248Y-87845004D01*
X156351472Y-87896780D01*
X156290281Y-88016874D01*
X156269196Y-88150000D01*
X156270415Y-88157696D01*
X156288926Y-88274569D01*
X156290281Y-88283126D01*
X156293817Y-88290065D01*
X156293817Y-88290066D01*
X156347171Y-88394778D01*
X156351472Y-88403220D01*
X156428248Y-88479996D01*
X156456025Y-88534513D01*
X156446454Y-88594945D01*
X156428248Y-88620004D01*
X156351472Y-88696780D01*
X156347937Y-88703717D01*
X156347936Y-88703719D01*
X156295728Y-88806183D01*
X156290281Y-88816874D01*
X156289062Y-88824568D01*
X156289062Y-88824569D01*
X156285623Y-88846281D01*
X156269196Y-88950000D01*
X155200500Y-88950000D01*
X155200500Y-86900000D01*
X165069196Y-86900000D01*
X165070415Y-86907696D01*
X165080156Y-86969196D01*
X165090281Y-87033126D01*
X165093817Y-87040065D01*
X165093817Y-87040066D01*
X165136203Y-87123252D01*
X165151472Y-87153220D01*
X165246780Y-87248528D01*
X165253717Y-87252063D01*
X165253719Y-87252064D01*
X165297888Y-87274569D01*
X165366874Y-87309719D01*
X165374568Y-87310938D01*
X165374569Y-87310938D01*
X165492304Y-87329585D01*
X165500000Y-87330804D01*
X165507696Y-87329585D01*
X165625431Y-87310938D01*
X165625432Y-87310938D01*
X165633126Y-87309719D01*
X165702112Y-87274569D01*
X165746281Y-87252064D01*
X165746283Y-87252063D01*
X165753220Y-87248528D01*
X165848528Y-87153220D01*
X165863798Y-87123252D01*
X165906183Y-87040066D01*
X165906183Y-87040065D01*
X165909719Y-87033126D01*
X165919845Y-86969196D01*
X165929585Y-86907696D01*
X165930804Y-86900000D01*
X169569196Y-86900000D01*
X169570415Y-86907696D01*
X169580156Y-86969196D01*
X169590281Y-87033126D01*
X169593817Y-87040065D01*
X169593817Y-87040066D01*
X169636203Y-87123252D01*
X169651472Y-87153220D01*
X169746780Y-87248528D01*
X169753717Y-87252063D01*
X169753719Y-87252064D01*
X169797888Y-87274569D01*
X169866874Y-87309719D01*
X169874568Y-87310938D01*
X169874569Y-87310938D01*
X169992304Y-87329585D01*
X170000000Y-87330804D01*
X170007696Y-87329585D01*
X170125431Y-87310938D01*
X170125432Y-87310938D01*
X170133126Y-87309719D01*
X170202112Y-87274569D01*
X170246281Y-87252064D01*
X170246283Y-87252063D01*
X170253220Y-87248528D01*
X170348528Y-87153220D01*
X170363798Y-87123252D01*
X170406183Y-87040066D01*
X170406183Y-87040065D01*
X170409719Y-87033126D01*
X170419845Y-86969196D01*
X170422885Y-86950000D01*
X171069196Y-86950000D01*
X171072236Y-86969196D01*
X171086760Y-87060893D01*
X171090281Y-87083126D01*
X171093817Y-87090065D01*
X171093817Y-87090066D01*
X171125996Y-87153220D01*
X171151472Y-87203220D01*
X171246780Y-87298528D01*
X171253717Y-87302063D01*
X171253719Y-87302064D01*
X171310125Y-87330804D01*
X171366874Y-87359719D01*
X171374568Y-87360938D01*
X171374569Y-87360938D01*
X171492304Y-87379585D01*
X171500000Y-87380804D01*
X171507696Y-87379585D01*
X171625431Y-87360938D01*
X171625432Y-87360938D01*
X171633126Y-87359719D01*
X171689875Y-87330804D01*
X171746281Y-87302064D01*
X171746283Y-87302063D01*
X171753220Y-87298528D01*
X171848528Y-87203220D01*
X171874005Y-87153220D01*
X171906183Y-87090066D01*
X171906183Y-87090065D01*
X171909719Y-87083126D01*
X171913241Y-87060893D01*
X171927764Y-86969196D01*
X171930804Y-86950000D01*
X171922885Y-86900000D01*
X172569196Y-86900000D01*
X172570415Y-86907696D01*
X172580156Y-86969196D01*
X172590281Y-87033126D01*
X172593817Y-87040065D01*
X172593817Y-87040066D01*
X172636203Y-87123252D01*
X172651472Y-87153220D01*
X172746780Y-87248528D01*
X172753717Y-87252063D01*
X172753719Y-87252064D01*
X172797888Y-87274569D01*
X172866874Y-87309719D01*
X172874568Y-87310938D01*
X172874569Y-87310938D01*
X172992304Y-87329585D01*
X173000000Y-87330804D01*
X173007696Y-87329585D01*
X173125431Y-87310938D01*
X173125432Y-87310938D01*
X173133126Y-87309719D01*
X173202112Y-87274569D01*
X173246281Y-87252064D01*
X173246283Y-87252063D01*
X173253220Y-87248528D01*
X173348528Y-87153220D01*
X173363798Y-87123252D01*
X173406183Y-87040066D01*
X173406183Y-87040065D01*
X173409719Y-87033126D01*
X173419845Y-86969196D01*
X173429585Y-86907696D01*
X173430804Y-86900000D01*
X177119196Y-86900000D01*
X177120415Y-86907696D01*
X177130156Y-86969196D01*
X177140281Y-87033126D01*
X177143817Y-87040065D01*
X177143817Y-87040066D01*
X177186203Y-87123252D01*
X177201472Y-87153220D01*
X177296780Y-87248528D01*
X177303717Y-87252063D01*
X177303719Y-87252064D01*
X177347888Y-87274569D01*
X177416874Y-87309719D01*
X177424568Y-87310938D01*
X177424569Y-87310938D01*
X177542304Y-87329585D01*
X177550000Y-87330804D01*
X177557696Y-87329585D01*
X177675431Y-87310938D01*
X177675432Y-87310938D01*
X177683126Y-87309719D01*
X177752112Y-87274569D01*
X177796281Y-87252064D01*
X177796283Y-87252063D01*
X177803220Y-87248528D01*
X177826748Y-87225000D01*
X187341033Y-87225000D01*
X187346566Y-87259934D01*
X187357791Y-87330804D01*
X187362118Y-87358126D01*
X187365654Y-87365065D01*
X187365654Y-87365066D01*
X187379533Y-87392304D01*
X187423309Y-87478220D01*
X187518617Y-87573528D01*
X187525554Y-87577063D01*
X187525556Y-87577064D01*
X187631771Y-87631183D01*
X187638711Y-87634719D01*
X187646405Y-87635938D01*
X187646406Y-87635938D01*
X187711711Y-87646281D01*
X187755523Y-87653220D01*
X187764141Y-87654585D01*
X187771837Y-87655804D01*
X187779533Y-87654585D01*
X187788152Y-87653220D01*
X187831963Y-87646281D01*
X187897268Y-87635938D01*
X187897269Y-87635938D01*
X187904963Y-87634719D01*
X187911903Y-87631183D01*
X188018118Y-87577064D01*
X188018120Y-87577063D01*
X188025057Y-87573528D01*
X188120365Y-87478220D01*
X188164142Y-87392304D01*
X188178020Y-87365066D01*
X188178020Y-87365065D01*
X188181556Y-87358126D01*
X188185884Y-87330804D01*
X188197108Y-87259934D01*
X188202641Y-87225000D01*
X188186526Y-87123252D01*
X188182775Y-87099569D01*
X188182775Y-87099568D01*
X188181556Y-87091874D01*
X188173178Y-87075431D01*
X188123901Y-86978719D01*
X188123900Y-86978717D01*
X188120365Y-86971780D01*
X188114859Y-86966274D01*
X188110276Y-86959966D01*
X188112610Y-86958270D01*
X188090812Y-86915487D01*
X188100383Y-86855055D01*
X188110944Y-86840519D01*
X188110276Y-86840034D01*
X188114859Y-86833726D01*
X188120365Y-86828220D01*
X188129683Y-86809934D01*
X188178020Y-86715066D01*
X188178020Y-86715065D01*
X188181556Y-86708126D01*
X188202641Y-86575000D01*
X188189030Y-86489062D01*
X188182775Y-86449569D01*
X188182775Y-86449568D01*
X188181556Y-86441874D01*
X188120365Y-86321780D01*
X188025057Y-86226472D01*
X188018120Y-86222937D01*
X188018118Y-86222936D01*
X187911903Y-86168817D01*
X187911902Y-86168817D01*
X187904963Y-86165281D01*
X187897269Y-86164062D01*
X187897268Y-86164062D01*
X187779533Y-86145415D01*
X187771837Y-86144196D01*
X187764141Y-86145415D01*
X187646406Y-86164062D01*
X187646405Y-86164062D01*
X187638711Y-86165281D01*
X187631772Y-86168817D01*
X187631771Y-86168817D01*
X187525556Y-86222936D01*
X187525554Y-86222937D01*
X187518617Y-86226472D01*
X187423309Y-86321780D01*
X187362118Y-86441874D01*
X187360899Y-86449568D01*
X187360899Y-86449569D01*
X187354644Y-86489062D01*
X187341033Y-86575000D01*
X187362118Y-86708126D01*
X187365654Y-86715065D01*
X187365654Y-86715066D01*
X187413992Y-86809934D01*
X187423309Y-86828220D01*
X187428815Y-86833726D01*
X187433398Y-86840034D01*
X187431064Y-86841730D01*
X187452862Y-86884513D01*
X187443291Y-86944945D01*
X187432730Y-86959481D01*
X187433398Y-86959966D01*
X187428815Y-86966274D01*
X187423309Y-86971780D01*
X187419774Y-86978717D01*
X187419773Y-86978719D01*
X187370496Y-87075431D01*
X187362118Y-87091874D01*
X187360899Y-87099568D01*
X187360899Y-87099569D01*
X187357148Y-87123252D01*
X187341033Y-87225000D01*
X177826748Y-87225000D01*
X177898528Y-87153220D01*
X177913798Y-87123252D01*
X177956183Y-87040066D01*
X177956183Y-87040065D01*
X177959719Y-87033126D01*
X177969845Y-86969196D01*
X177979585Y-86907696D01*
X177980804Y-86900000D01*
X177959719Y-86766874D01*
X177956183Y-86759934D01*
X177902064Y-86653719D01*
X177902063Y-86653717D01*
X177898528Y-86646780D01*
X177803220Y-86551472D01*
X177796283Y-86547937D01*
X177796281Y-86547936D01*
X177690066Y-86493817D01*
X177690065Y-86493817D01*
X177683126Y-86490281D01*
X177675432Y-86489062D01*
X177675431Y-86489062D01*
X177557696Y-86470415D01*
X177550000Y-86469196D01*
X177542304Y-86470415D01*
X177424569Y-86489062D01*
X177424568Y-86489062D01*
X177416874Y-86490281D01*
X177409935Y-86493817D01*
X177409934Y-86493817D01*
X177303719Y-86547936D01*
X177303717Y-86547937D01*
X177296780Y-86551472D01*
X177201472Y-86646780D01*
X177197937Y-86653717D01*
X177197936Y-86653719D01*
X177143817Y-86759934D01*
X177140281Y-86766874D01*
X177119196Y-86900000D01*
X173430804Y-86900000D01*
X173409719Y-86766874D01*
X173406183Y-86759934D01*
X173352064Y-86653719D01*
X173352063Y-86653717D01*
X173348528Y-86646780D01*
X173253220Y-86551472D01*
X173246283Y-86547937D01*
X173246281Y-86547936D01*
X173140066Y-86493817D01*
X173140065Y-86493817D01*
X173133126Y-86490281D01*
X173125432Y-86489062D01*
X173125431Y-86489062D01*
X173007696Y-86470415D01*
X173000000Y-86469196D01*
X172992304Y-86470415D01*
X172874569Y-86489062D01*
X172874568Y-86489062D01*
X172866874Y-86490281D01*
X172859935Y-86493817D01*
X172859934Y-86493817D01*
X172753719Y-86547936D01*
X172753717Y-86547937D01*
X172746780Y-86551472D01*
X172651472Y-86646780D01*
X172647937Y-86653717D01*
X172647936Y-86653719D01*
X172593817Y-86759934D01*
X172590281Y-86766874D01*
X172569196Y-86900000D01*
X171922885Y-86900000D01*
X171909719Y-86816874D01*
X171880707Y-86759934D01*
X171852064Y-86703719D01*
X171852063Y-86703717D01*
X171848528Y-86696780D01*
X171753220Y-86601472D01*
X171746283Y-86597937D01*
X171746281Y-86597936D01*
X171640066Y-86543817D01*
X171640065Y-86543817D01*
X171633126Y-86540281D01*
X171625432Y-86539062D01*
X171625431Y-86539062D01*
X171507696Y-86520415D01*
X171500000Y-86519196D01*
X171492304Y-86520415D01*
X171374569Y-86539062D01*
X171374568Y-86539062D01*
X171366874Y-86540281D01*
X171359935Y-86543817D01*
X171359934Y-86543817D01*
X171253719Y-86597936D01*
X171253717Y-86597937D01*
X171246780Y-86601472D01*
X171151472Y-86696780D01*
X171147937Y-86703717D01*
X171147936Y-86703719D01*
X171119293Y-86759934D01*
X171090281Y-86816874D01*
X171069196Y-86950000D01*
X170422885Y-86950000D01*
X170429585Y-86907696D01*
X170430804Y-86900000D01*
X170409719Y-86766874D01*
X170406183Y-86759934D01*
X170352064Y-86653719D01*
X170352063Y-86653717D01*
X170348528Y-86646780D01*
X170253220Y-86551472D01*
X170246283Y-86547937D01*
X170246281Y-86547936D01*
X170140066Y-86493817D01*
X170140065Y-86493817D01*
X170133126Y-86490281D01*
X170125432Y-86489062D01*
X170125431Y-86489062D01*
X170007696Y-86470415D01*
X170000000Y-86469196D01*
X169992304Y-86470415D01*
X169874569Y-86489062D01*
X169874568Y-86489062D01*
X169866874Y-86490281D01*
X169859935Y-86493817D01*
X169859934Y-86493817D01*
X169753719Y-86547936D01*
X169753717Y-86547937D01*
X169746780Y-86551472D01*
X169651472Y-86646780D01*
X169647937Y-86653717D01*
X169647936Y-86653719D01*
X169593817Y-86759934D01*
X169590281Y-86766874D01*
X169569196Y-86900000D01*
X165930804Y-86900000D01*
X165909719Y-86766874D01*
X165906183Y-86759934D01*
X165852064Y-86653719D01*
X165852063Y-86653717D01*
X165848528Y-86646780D01*
X165753220Y-86551472D01*
X165746283Y-86547937D01*
X165746281Y-86547936D01*
X165640066Y-86493817D01*
X165640065Y-86493817D01*
X165633126Y-86490281D01*
X165625432Y-86489062D01*
X165625431Y-86489062D01*
X165507696Y-86470415D01*
X165500000Y-86469196D01*
X165492304Y-86470415D01*
X165374569Y-86489062D01*
X165374568Y-86489062D01*
X165366874Y-86490281D01*
X165359935Y-86493817D01*
X165359934Y-86493817D01*
X165253719Y-86547936D01*
X165253717Y-86547937D01*
X165246780Y-86551472D01*
X165151472Y-86646780D01*
X165147937Y-86653717D01*
X165147936Y-86653719D01*
X165093817Y-86759934D01*
X165090281Y-86766874D01*
X165069196Y-86900000D01*
X155200500Y-86900000D01*
X155200500Y-85450000D01*
X165019196Y-85450000D01*
X165040281Y-85583126D01*
X165043817Y-85590065D01*
X165043817Y-85590066D01*
X165075996Y-85653220D01*
X165101472Y-85703220D01*
X165196780Y-85798528D01*
X165203717Y-85802063D01*
X165203719Y-85802064D01*
X165260125Y-85830804D01*
X165316874Y-85859719D01*
X165324568Y-85860938D01*
X165324569Y-85860938D01*
X165442304Y-85879585D01*
X165450000Y-85880804D01*
X165457696Y-85879585D01*
X165575431Y-85860938D01*
X165575432Y-85860938D01*
X165583126Y-85859719D01*
X165639875Y-85830804D01*
X165696281Y-85802064D01*
X165696283Y-85802063D01*
X165703220Y-85798528D01*
X165798528Y-85703220D01*
X165824005Y-85653220D01*
X165856183Y-85590066D01*
X165856183Y-85590065D01*
X165859719Y-85583126D01*
X165880804Y-85450000D01*
X165872885Y-85400000D01*
X181569196Y-85400000D01*
X181590281Y-85533126D01*
X181651472Y-85653220D01*
X181746780Y-85748528D01*
X181753717Y-85752063D01*
X181753719Y-85752064D01*
X181834104Y-85793022D01*
X181866874Y-85809719D01*
X181874568Y-85810938D01*
X181874569Y-85810938D01*
X181992304Y-85829585D01*
X182000000Y-85830804D01*
X182007696Y-85829585D01*
X182125431Y-85810938D01*
X182125432Y-85810938D01*
X182133126Y-85809719D01*
X182165896Y-85793022D01*
X182246281Y-85752064D01*
X182246283Y-85752063D01*
X182253220Y-85748528D01*
X182348528Y-85653220D01*
X182409719Y-85533126D01*
X182430804Y-85400000D01*
X183069196Y-85400000D01*
X183090281Y-85533126D01*
X183151472Y-85653220D01*
X183246780Y-85748528D01*
X183253717Y-85752063D01*
X183253719Y-85752064D01*
X183334104Y-85793022D01*
X183366874Y-85809719D01*
X183374568Y-85810938D01*
X183374569Y-85810938D01*
X183492304Y-85829585D01*
X183500000Y-85830804D01*
X183507696Y-85829585D01*
X183625431Y-85810938D01*
X183625432Y-85810938D01*
X183633126Y-85809719D01*
X183665896Y-85793022D01*
X183746281Y-85752064D01*
X183746283Y-85752063D01*
X183753220Y-85748528D01*
X183848528Y-85653220D01*
X183909719Y-85533126D01*
X183930804Y-85400000D01*
X183909719Y-85266874D01*
X183877540Y-85203719D01*
X183852064Y-85153719D01*
X183852063Y-85153717D01*
X183848528Y-85146780D01*
X183753220Y-85051472D01*
X183746283Y-85047937D01*
X183746281Y-85047936D01*
X183640066Y-84993817D01*
X183640065Y-84993817D01*
X183633126Y-84990281D01*
X183625432Y-84989062D01*
X183625431Y-84989062D01*
X183507696Y-84970415D01*
X183500000Y-84969196D01*
X183492304Y-84970415D01*
X183374569Y-84989062D01*
X183374568Y-84989062D01*
X183366874Y-84990281D01*
X183359935Y-84993817D01*
X183359934Y-84993817D01*
X183253719Y-85047936D01*
X183253717Y-85047937D01*
X183246780Y-85051472D01*
X183151472Y-85146780D01*
X183147937Y-85153717D01*
X183147936Y-85153719D01*
X183122460Y-85203719D01*
X183090281Y-85266874D01*
X183069196Y-85400000D01*
X182430804Y-85400000D01*
X182409719Y-85266874D01*
X182377540Y-85203719D01*
X182352064Y-85153719D01*
X182352063Y-85153717D01*
X182348528Y-85146780D01*
X182253220Y-85051472D01*
X182246283Y-85047937D01*
X182246281Y-85047936D01*
X182140066Y-84993817D01*
X182140065Y-84993817D01*
X182133126Y-84990281D01*
X182125432Y-84989062D01*
X182125431Y-84989062D01*
X182007696Y-84970415D01*
X182000000Y-84969196D01*
X181992304Y-84970415D01*
X181874569Y-84989062D01*
X181874568Y-84989062D01*
X181866874Y-84990281D01*
X181859935Y-84993817D01*
X181859934Y-84993817D01*
X181753719Y-85047936D01*
X181753717Y-85047937D01*
X181746780Y-85051472D01*
X181651472Y-85146780D01*
X181647937Y-85153717D01*
X181647936Y-85153719D01*
X181622460Y-85203719D01*
X181590281Y-85266874D01*
X181569196Y-85400000D01*
X165872885Y-85400000D01*
X165859719Y-85316874D01*
X165798528Y-85196780D01*
X165703220Y-85101472D01*
X165696283Y-85097937D01*
X165696281Y-85097936D01*
X165590066Y-85043817D01*
X165590065Y-85043817D01*
X165583126Y-85040281D01*
X165575432Y-85039062D01*
X165575431Y-85039062D01*
X165457696Y-85020415D01*
X165450000Y-85019196D01*
X165442304Y-85020415D01*
X165324569Y-85039062D01*
X165324568Y-85039062D01*
X165316874Y-85040281D01*
X165309935Y-85043817D01*
X165309934Y-85043817D01*
X165203719Y-85097936D01*
X165203717Y-85097937D01*
X165196780Y-85101472D01*
X165101472Y-85196780D01*
X165040281Y-85316874D01*
X165019196Y-85450000D01*
X155200500Y-85450000D01*
X155200500Y-84650000D01*
X163619196Y-84650000D01*
X163640281Y-84783126D01*
X163701472Y-84903220D01*
X163796780Y-84998528D01*
X163803717Y-85002063D01*
X163803719Y-85002064D01*
X163900688Y-85051472D01*
X163916874Y-85059719D01*
X163924568Y-85060938D01*
X163924569Y-85060938D01*
X164042304Y-85079585D01*
X164050000Y-85080804D01*
X164057696Y-85079585D01*
X164175431Y-85060938D01*
X164175432Y-85060938D01*
X164183126Y-85059719D01*
X164199312Y-85051472D01*
X164296281Y-85002064D01*
X164296283Y-85002063D01*
X164303220Y-84998528D01*
X164398528Y-84903220D01*
X164459719Y-84783126D01*
X164480804Y-84650000D01*
X164459719Y-84516874D01*
X164398528Y-84396780D01*
X164303220Y-84301472D01*
X164296283Y-84297937D01*
X164296281Y-84297936D01*
X164190066Y-84243817D01*
X164190065Y-84243817D01*
X164183126Y-84240281D01*
X164175432Y-84239062D01*
X164175431Y-84239062D01*
X164057696Y-84220415D01*
X164050000Y-84219196D01*
X164042304Y-84220415D01*
X163924569Y-84239062D01*
X163924568Y-84239062D01*
X163916874Y-84240281D01*
X163909935Y-84243817D01*
X163909934Y-84243817D01*
X163803719Y-84297936D01*
X163803717Y-84297937D01*
X163796780Y-84301472D01*
X163701472Y-84396780D01*
X163640281Y-84516874D01*
X163619196Y-84650000D01*
X155200500Y-84650000D01*
X155200500Y-83900000D01*
X168069196Y-83900000D01*
X168090281Y-84033126D01*
X168151472Y-84153220D01*
X168246780Y-84248528D01*
X168253717Y-84252063D01*
X168253719Y-84252064D01*
X168350688Y-84301472D01*
X168366874Y-84309719D01*
X168374568Y-84310938D01*
X168374569Y-84310938D01*
X168492304Y-84329585D01*
X168500000Y-84330804D01*
X168507696Y-84329585D01*
X168625431Y-84310938D01*
X168625432Y-84310938D01*
X168633126Y-84309719D01*
X168649312Y-84301472D01*
X168746281Y-84252064D01*
X168746283Y-84252063D01*
X168753220Y-84248528D01*
X168848528Y-84153220D01*
X168909719Y-84033126D01*
X168930804Y-83900000D01*
X169569196Y-83900000D01*
X169590281Y-84033126D01*
X169651472Y-84153220D01*
X169746780Y-84248528D01*
X169753717Y-84252063D01*
X169753719Y-84252064D01*
X169850688Y-84301472D01*
X169866874Y-84309719D01*
X169874568Y-84310938D01*
X169874569Y-84310938D01*
X169992304Y-84329585D01*
X170000000Y-84330804D01*
X170007696Y-84329585D01*
X170125431Y-84310938D01*
X170125432Y-84310938D01*
X170133126Y-84309719D01*
X170149312Y-84301472D01*
X170246281Y-84252064D01*
X170246283Y-84252063D01*
X170253220Y-84248528D01*
X170348528Y-84153220D01*
X170409719Y-84033126D01*
X170430804Y-83900000D01*
X178569196Y-83900000D01*
X178590281Y-84033126D01*
X178651472Y-84153220D01*
X178746780Y-84248528D01*
X178753717Y-84252063D01*
X178753719Y-84252064D01*
X178850688Y-84301472D01*
X178866874Y-84309719D01*
X178874568Y-84310938D01*
X178874569Y-84310938D01*
X178992304Y-84329585D01*
X179000000Y-84330804D01*
X179007696Y-84329585D01*
X179125431Y-84310938D01*
X179125432Y-84310938D01*
X179133126Y-84309719D01*
X179149312Y-84301472D01*
X179246281Y-84252064D01*
X179246283Y-84252063D01*
X179253220Y-84248528D01*
X179348528Y-84153220D01*
X179409719Y-84033126D01*
X179430804Y-83900000D01*
X180069196Y-83900000D01*
X180090281Y-84033126D01*
X180151472Y-84153220D01*
X180246780Y-84248528D01*
X180253717Y-84252063D01*
X180253719Y-84252064D01*
X180350688Y-84301472D01*
X180366874Y-84309719D01*
X180374568Y-84310938D01*
X180374569Y-84310938D01*
X180492304Y-84329585D01*
X180500000Y-84330804D01*
X180507696Y-84329585D01*
X180625431Y-84310938D01*
X180625432Y-84310938D01*
X180633126Y-84309719D01*
X180649312Y-84301472D01*
X180746281Y-84252064D01*
X180746283Y-84252063D01*
X180753220Y-84248528D01*
X180848528Y-84153220D01*
X180909719Y-84033126D01*
X180930804Y-83900000D01*
X180909719Y-83766874D01*
X180848528Y-83646780D01*
X180753220Y-83551472D01*
X180746283Y-83547937D01*
X180746281Y-83547936D01*
X180640066Y-83493817D01*
X180640065Y-83493817D01*
X180633126Y-83490281D01*
X180625432Y-83489062D01*
X180625431Y-83489062D01*
X180507696Y-83470415D01*
X180500000Y-83469196D01*
X180492304Y-83470415D01*
X180374569Y-83489062D01*
X180374568Y-83489062D01*
X180366874Y-83490281D01*
X180359935Y-83493817D01*
X180359934Y-83493817D01*
X180253719Y-83547936D01*
X180253717Y-83547937D01*
X180246780Y-83551472D01*
X180151472Y-83646780D01*
X180090281Y-83766874D01*
X180069196Y-83900000D01*
X179430804Y-83900000D01*
X179409719Y-83766874D01*
X179348528Y-83646780D01*
X179253220Y-83551472D01*
X179246283Y-83547937D01*
X179246281Y-83547936D01*
X179140066Y-83493817D01*
X179140065Y-83493817D01*
X179133126Y-83490281D01*
X179125432Y-83489062D01*
X179125431Y-83489062D01*
X179007696Y-83470415D01*
X179000000Y-83469196D01*
X178992304Y-83470415D01*
X178874569Y-83489062D01*
X178874568Y-83489062D01*
X178866874Y-83490281D01*
X178859935Y-83493817D01*
X178859934Y-83493817D01*
X178753719Y-83547936D01*
X178753717Y-83547937D01*
X178746780Y-83551472D01*
X178651472Y-83646780D01*
X178590281Y-83766874D01*
X178569196Y-83900000D01*
X170430804Y-83900000D01*
X170409719Y-83766874D01*
X170348528Y-83646780D01*
X170253220Y-83551472D01*
X170246283Y-83547937D01*
X170246281Y-83547936D01*
X170140066Y-83493817D01*
X170140065Y-83493817D01*
X170133126Y-83490281D01*
X170125432Y-83489062D01*
X170125431Y-83489062D01*
X170007696Y-83470415D01*
X170000000Y-83469196D01*
X169992304Y-83470415D01*
X169874569Y-83489062D01*
X169874568Y-83489062D01*
X169866874Y-83490281D01*
X169859935Y-83493817D01*
X169859934Y-83493817D01*
X169753719Y-83547936D01*
X169753717Y-83547937D01*
X169746780Y-83551472D01*
X169651472Y-83646780D01*
X169590281Y-83766874D01*
X169569196Y-83900000D01*
X168930804Y-83900000D01*
X168909719Y-83766874D01*
X168848528Y-83646780D01*
X168753220Y-83551472D01*
X168746283Y-83547937D01*
X168746281Y-83547936D01*
X168640066Y-83493817D01*
X168640065Y-83493817D01*
X168633126Y-83490281D01*
X168625432Y-83489062D01*
X168625431Y-83489062D01*
X168507696Y-83470415D01*
X168500000Y-83469196D01*
X168492304Y-83470415D01*
X168374569Y-83489062D01*
X168374568Y-83489062D01*
X168366874Y-83490281D01*
X168359935Y-83493817D01*
X168359934Y-83493817D01*
X168253719Y-83547936D01*
X168253717Y-83547937D01*
X168246780Y-83551472D01*
X168151472Y-83646780D01*
X168090281Y-83766874D01*
X168069196Y-83900000D01*
X155200500Y-83900000D01*
X155200500Y-82000000D01*
X160269196Y-82000000D01*
X160290281Y-82133126D01*
X160293817Y-82140065D01*
X160293817Y-82140066D01*
X160336874Y-82224569D01*
X160351472Y-82253220D01*
X160446780Y-82348528D01*
X160453717Y-82352063D01*
X160453719Y-82352064D01*
X160532695Y-82392304D01*
X160566874Y-82409719D01*
X160574568Y-82410938D01*
X160574569Y-82410938D01*
X160692304Y-82429585D01*
X160700000Y-82430804D01*
X160707696Y-82429585D01*
X160825431Y-82410938D01*
X160825432Y-82410938D01*
X160833126Y-82409719D01*
X160867305Y-82392304D01*
X160946281Y-82352064D01*
X160946283Y-82352063D01*
X160950331Y-82350000D01*
X174069196Y-82350000D01*
X174070415Y-82357696D01*
X174078655Y-82409719D01*
X174090281Y-82483126D01*
X174151472Y-82603220D01*
X174246780Y-82698528D01*
X174253717Y-82702063D01*
X174253719Y-82702064D01*
X174334104Y-82743022D01*
X174366874Y-82759719D01*
X174374568Y-82760938D01*
X174374569Y-82760938D01*
X174492304Y-82779585D01*
X174500000Y-82780804D01*
X174507696Y-82779585D01*
X174625431Y-82760938D01*
X174625432Y-82760938D01*
X174633126Y-82759719D01*
X174665896Y-82743022D01*
X174746281Y-82702064D01*
X174746283Y-82702063D01*
X174753220Y-82698528D01*
X174848528Y-82603220D01*
X174909719Y-82483126D01*
X174921346Y-82409719D01*
X174922885Y-82400000D01*
X175569196Y-82400000D01*
X175590281Y-82533126D01*
X175593817Y-82540065D01*
X175593817Y-82540066D01*
X175625996Y-82603220D01*
X175651472Y-82653220D01*
X175746780Y-82748528D01*
X175753717Y-82752063D01*
X175753719Y-82752064D01*
X175810125Y-82780804D01*
X175866874Y-82809719D01*
X175874568Y-82810938D01*
X175874569Y-82810938D01*
X175992304Y-82829585D01*
X176000000Y-82830804D01*
X176007696Y-82829585D01*
X176125431Y-82810938D01*
X176125432Y-82810938D01*
X176133126Y-82809719D01*
X176189875Y-82780804D01*
X176246281Y-82752064D01*
X176246283Y-82752063D01*
X176253220Y-82748528D01*
X176348528Y-82653220D01*
X176374005Y-82603220D01*
X176406183Y-82540066D01*
X176406183Y-82540065D01*
X176409719Y-82533126D01*
X176430804Y-82400000D01*
X177069196Y-82400000D01*
X177090281Y-82533126D01*
X177093817Y-82540065D01*
X177093817Y-82540066D01*
X177125996Y-82603220D01*
X177151472Y-82653220D01*
X177246780Y-82748528D01*
X177253717Y-82752063D01*
X177253719Y-82752064D01*
X177310125Y-82780804D01*
X177366874Y-82809719D01*
X177374568Y-82810938D01*
X177374569Y-82810938D01*
X177492304Y-82829585D01*
X177500000Y-82830804D01*
X177507696Y-82829585D01*
X177625431Y-82810938D01*
X177625432Y-82810938D01*
X177633126Y-82809719D01*
X177689875Y-82780804D01*
X177746281Y-82752064D01*
X177746283Y-82752063D01*
X177753220Y-82748528D01*
X177848528Y-82653220D01*
X177874005Y-82603220D01*
X177906183Y-82540066D01*
X177906183Y-82540065D01*
X177909719Y-82533126D01*
X177930804Y-82400000D01*
X178569196Y-82400000D01*
X178590281Y-82533126D01*
X178593817Y-82540065D01*
X178593817Y-82540066D01*
X178625996Y-82603220D01*
X178651472Y-82653220D01*
X178746780Y-82748528D01*
X178753717Y-82752063D01*
X178753719Y-82752064D01*
X178810125Y-82780804D01*
X178866874Y-82809719D01*
X178874568Y-82810938D01*
X178874569Y-82810938D01*
X178992304Y-82829585D01*
X179000000Y-82830804D01*
X179007696Y-82829585D01*
X179125431Y-82810938D01*
X179125432Y-82810938D01*
X179133126Y-82809719D01*
X179189875Y-82780804D01*
X179246281Y-82752064D01*
X179246283Y-82752063D01*
X179253220Y-82748528D01*
X179348528Y-82653220D01*
X179374005Y-82603220D01*
X179406183Y-82540066D01*
X179406183Y-82540065D01*
X179409719Y-82533126D01*
X179430804Y-82400000D01*
X180069196Y-82400000D01*
X180090281Y-82533126D01*
X180093817Y-82540065D01*
X180093817Y-82540066D01*
X180125996Y-82603220D01*
X180151472Y-82653220D01*
X180246780Y-82748528D01*
X180253717Y-82752063D01*
X180253719Y-82752064D01*
X180310125Y-82780804D01*
X180366874Y-82809719D01*
X180374568Y-82810938D01*
X180374569Y-82810938D01*
X180492304Y-82829585D01*
X180500000Y-82830804D01*
X180507696Y-82829585D01*
X180625431Y-82810938D01*
X180625432Y-82810938D01*
X180633126Y-82809719D01*
X180689875Y-82780804D01*
X180746281Y-82752064D01*
X180746283Y-82752063D01*
X180753220Y-82748528D01*
X180848528Y-82653220D01*
X180874005Y-82603220D01*
X180906183Y-82540066D01*
X180906183Y-82540065D01*
X180909719Y-82533126D01*
X180930804Y-82400000D01*
X180909719Y-82266874D01*
X180848528Y-82146780D01*
X180753220Y-82051472D01*
X180746283Y-82047937D01*
X180746281Y-82047936D01*
X180640066Y-81993817D01*
X180640065Y-81993817D01*
X180633126Y-81990281D01*
X180625432Y-81989062D01*
X180625431Y-81989062D01*
X180507696Y-81970415D01*
X180500000Y-81969196D01*
X180492304Y-81970415D01*
X180374569Y-81989062D01*
X180374568Y-81989062D01*
X180366874Y-81990281D01*
X180359935Y-81993817D01*
X180359934Y-81993817D01*
X180253719Y-82047936D01*
X180253717Y-82047937D01*
X180246780Y-82051472D01*
X180151472Y-82146780D01*
X180090281Y-82266874D01*
X180069196Y-82400000D01*
X179430804Y-82400000D01*
X179409719Y-82266874D01*
X179348528Y-82146780D01*
X179253220Y-82051472D01*
X179246283Y-82047937D01*
X179246281Y-82047936D01*
X179140066Y-81993817D01*
X179140065Y-81993817D01*
X179133126Y-81990281D01*
X179125432Y-81989062D01*
X179125431Y-81989062D01*
X179007696Y-81970415D01*
X179000000Y-81969196D01*
X178992304Y-81970415D01*
X178874569Y-81989062D01*
X178874568Y-81989062D01*
X178866874Y-81990281D01*
X178859935Y-81993817D01*
X178859934Y-81993817D01*
X178753719Y-82047936D01*
X178753717Y-82047937D01*
X178746780Y-82051472D01*
X178651472Y-82146780D01*
X178590281Y-82266874D01*
X178569196Y-82400000D01*
X177930804Y-82400000D01*
X177909719Y-82266874D01*
X177848528Y-82146780D01*
X177753220Y-82051472D01*
X177746283Y-82047937D01*
X177746281Y-82047936D01*
X177640066Y-81993817D01*
X177640065Y-81993817D01*
X177633126Y-81990281D01*
X177625432Y-81989062D01*
X177625431Y-81989062D01*
X177507696Y-81970415D01*
X177500000Y-81969196D01*
X177492304Y-81970415D01*
X177374569Y-81989062D01*
X177374568Y-81989062D01*
X177366874Y-81990281D01*
X177359935Y-81993817D01*
X177359934Y-81993817D01*
X177253719Y-82047936D01*
X177253717Y-82047937D01*
X177246780Y-82051472D01*
X177151472Y-82146780D01*
X177090281Y-82266874D01*
X177069196Y-82400000D01*
X176430804Y-82400000D01*
X176409719Y-82266874D01*
X176348528Y-82146780D01*
X176253220Y-82051472D01*
X176246283Y-82047937D01*
X176246281Y-82047936D01*
X176140066Y-81993817D01*
X176140065Y-81993817D01*
X176133126Y-81990281D01*
X176125432Y-81989062D01*
X176125431Y-81989062D01*
X176007696Y-81970415D01*
X176000000Y-81969196D01*
X175992304Y-81970415D01*
X175874569Y-81989062D01*
X175874568Y-81989062D01*
X175866874Y-81990281D01*
X175859935Y-81993817D01*
X175859934Y-81993817D01*
X175753719Y-82047936D01*
X175753717Y-82047937D01*
X175746780Y-82051472D01*
X175651472Y-82146780D01*
X175590281Y-82266874D01*
X175569196Y-82400000D01*
X174922885Y-82400000D01*
X174929585Y-82357696D01*
X174930804Y-82350000D01*
X174909719Y-82216874D01*
X174877540Y-82153719D01*
X174852064Y-82103719D01*
X174852063Y-82103717D01*
X174848528Y-82096780D01*
X174753220Y-82001472D01*
X174746283Y-81997937D01*
X174746281Y-81997936D01*
X174640066Y-81943817D01*
X174640065Y-81943817D01*
X174633126Y-81940281D01*
X174625432Y-81939062D01*
X174625431Y-81939062D01*
X174507696Y-81920415D01*
X174500000Y-81919196D01*
X174492304Y-81920415D01*
X174374569Y-81939062D01*
X174374568Y-81939062D01*
X174366874Y-81940281D01*
X174359935Y-81943817D01*
X174359934Y-81943817D01*
X174253719Y-81997936D01*
X174253717Y-81997937D01*
X174246780Y-82001472D01*
X174151472Y-82096780D01*
X174147937Y-82103717D01*
X174147936Y-82103719D01*
X174122460Y-82153719D01*
X174090281Y-82216874D01*
X174069196Y-82350000D01*
X160950331Y-82350000D01*
X160953220Y-82348528D01*
X161048528Y-82253220D01*
X161063127Y-82224569D01*
X161106183Y-82140066D01*
X161106183Y-82140065D01*
X161109719Y-82133126D01*
X161130804Y-82000000D01*
X161121906Y-81943817D01*
X161110938Y-81874569D01*
X161110938Y-81874568D01*
X161109719Y-81866874D01*
X161048528Y-81746780D01*
X160953220Y-81651472D01*
X160946283Y-81647937D01*
X160946281Y-81647936D01*
X160840066Y-81593817D01*
X160840065Y-81593817D01*
X160833126Y-81590281D01*
X160825432Y-81589062D01*
X160825431Y-81589062D01*
X160707696Y-81570415D01*
X160700000Y-81569196D01*
X160692304Y-81570415D01*
X160574569Y-81589062D01*
X160574568Y-81589062D01*
X160566874Y-81590281D01*
X160559935Y-81593817D01*
X160559934Y-81593817D01*
X160453719Y-81647936D01*
X160453717Y-81647937D01*
X160446780Y-81651472D01*
X160351472Y-81746780D01*
X160290281Y-81866874D01*
X160289062Y-81874568D01*
X160289062Y-81874569D01*
X160278094Y-81943817D01*
X160269196Y-82000000D01*
X155200500Y-82000000D01*
X155200500Y-80900000D01*
X168069196Y-80900000D01*
X168090281Y-81033126D01*
X168151472Y-81153220D01*
X168246780Y-81248528D01*
X168253717Y-81252063D01*
X168253719Y-81252064D01*
X168359934Y-81306183D01*
X168366874Y-81309719D01*
X168374568Y-81310938D01*
X168374569Y-81310938D01*
X168492304Y-81329585D01*
X168500000Y-81330804D01*
X168507696Y-81329585D01*
X168625431Y-81310938D01*
X168625432Y-81310938D01*
X168633126Y-81309719D01*
X168640066Y-81306183D01*
X168746281Y-81252064D01*
X168746283Y-81252063D01*
X168753220Y-81248528D01*
X168848528Y-81153220D01*
X168909719Y-81033126D01*
X168930804Y-80900000D01*
X168909719Y-80766874D01*
X168848528Y-80646780D01*
X168753220Y-80551472D01*
X168746283Y-80547937D01*
X168746281Y-80547936D01*
X168640066Y-80493817D01*
X168640065Y-80493817D01*
X168633126Y-80490281D01*
X168625432Y-80489062D01*
X168625431Y-80489062D01*
X168507696Y-80470415D01*
X168500000Y-80469196D01*
X168492304Y-80470415D01*
X168374569Y-80489062D01*
X168374568Y-80489062D01*
X168366874Y-80490281D01*
X168359935Y-80493817D01*
X168359934Y-80493817D01*
X168253719Y-80547936D01*
X168253717Y-80547937D01*
X168246780Y-80551472D01*
X168151472Y-80646780D01*
X168090281Y-80766874D01*
X168069196Y-80900000D01*
X155200500Y-80900000D01*
X155200500Y-79400000D01*
X160269196Y-79400000D01*
X160290281Y-79533126D01*
X160351472Y-79653220D01*
X160446780Y-79748528D01*
X160453717Y-79752063D01*
X160453719Y-79752064D01*
X160559934Y-79806183D01*
X160566874Y-79809719D01*
X160574568Y-79810938D01*
X160574569Y-79810938D01*
X160692304Y-79829585D01*
X160700000Y-79830804D01*
X160707696Y-79829585D01*
X160825431Y-79810938D01*
X160825432Y-79810938D01*
X160833126Y-79809719D01*
X160840066Y-79806183D01*
X160946281Y-79752064D01*
X160946283Y-79752063D01*
X160953220Y-79748528D01*
X161048528Y-79653220D01*
X161109719Y-79533126D01*
X161130804Y-79400000D01*
X161109719Y-79266874D01*
X161048528Y-79146780D01*
X160953220Y-79051472D01*
X160946283Y-79047937D01*
X160946281Y-79047936D01*
X160840066Y-78993817D01*
X160840065Y-78993817D01*
X160833126Y-78990281D01*
X160825432Y-78989062D01*
X160825431Y-78989062D01*
X160707696Y-78970415D01*
X160700000Y-78969196D01*
X160692304Y-78970415D01*
X160574569Y-78989062D01*
X160574568Y-78989062D01*
X160566874Y-78990281D01*
X160559935Y-78993817D01*
X160559934Y-78993817D01*
X160453719Y-79047936D01*
X160453717Y-79047937D01*
X160446780Y-79051472D01*
X160351472Y-79146780D01*
X160290281Y-79266874D01*
X160269196Y-79400000D01*
X155200500Y-79400000D01*
X155200500Y-78410000D01*
X180419196Y-78410000D01*
X180440281Y-78543126D01*
X180501472Y-78663220D01*
X180596780Y-78758528D01*
X180603717Y-78762063D01*
X180603719Y-78762064D01*
X180709934Y-78816183D01*
X180716874Y-78819719D01*
X180724568Y-78820938D01*
X180724569Y-78820938D01*
X180842304Y-78839585D01*
X180850000Y-78840804D01*
X180857696Y-78839585D01*
X180975431Y-78820938D01*
X180975432Y-78820938D01*
X180983126Y-78819719D01*
X180990066Y-78816183D01*
X181096281Y-78762064D01*
X181096283Y-78762063D01*
X181103220Y-78758528D01*
X181198528Y-78663220D01*
X181259719Y-78543126D01*
X181280804Y-78410000D01*
X181259719Y-78276874D01*
X181198528Y-78156780D01*
X181103220Y-78061472D01*
X181096283Y-78057937D01*
X181096281Y-78057936D01*
X180983126Y-78000281D01*
X180984385Y-77997810D01*
X180945247Y-77969369D01*
X180926345Y-77911176D01*
X180945258Y-77852987D01*
X180994761Y-77817028D01*
X181009858Y-77813404D01*
X181017525Y-77812190D01*
X181025431Y-77810938D01*
X181025432Y-77810938D01*
X181033126Y-77809719D01*
X181067305Y-77792304D01*
X181146281Y-77752064D01*
X181146283Y-77752063D01*
X181153220Y-77748528D01*
X181248528Y-77653220D01*
X181309719Y-77533126D01*
X181313987Y-77506183D01*
X181322885Y-77450000D01*
X184369196Y-77450000D01*
X184370415Y-77457696D01*
X184378655Y-77509719D01*
X184390281Y-77583126D01*
X184393817Y-77590065D01*
X184393817Y-77590066D01*
X184436874Y-77674569D01*
X184451472Y-77703220D01*
X184546780Y-77798528D01*
X184553717Y-77802063D01*
X184553719Y-77802064D01*
X184659934Y-77856183D01*
X184666874Y-77859719D01*
X184674568Y-77860938D01*
X184674569Y-77860938D01*
X184792304Y-77879585D01*
X184800000Y-77880804D01*
X184807696Y-77879585D01*
X184925431Y-77860938D01*
X184925432Y-77860938D01*
X184933126Y-77859719D01*
X184940066Y-77856183D01*
X185046281Y-77802064D01*
X185046283Y-77802063D01*
X185050331Y-77800000D01*
X193419196Y-77800000D01*
X193420415Y-77807696D01*
X193428655Y-77859719D01*
X193440281Y-77933126D01*
X193443817Y-77940065D01*
X193443817Y-77940066D01*
X193472621Y-77996596D01*
X193501472Y-78053220D01*
X193596780Y-78148528D01*
X193603717Y-78152063D01*
X193603719Y-78152064D01*
X193709934Y-78206183D01*
X193716874Y-78209719D01*
X193724568Y-78210938D01*
X193724569Y-78210938D01*
X193842304Y-78229585D01*
X193850000Y-78230804D01*
X193857696Y-78229585D01*
X193975431Y-78210938D01*
X193975432Y-78210938D01*
X193983126Y-78209719D01*
X193990066Y-78206183D01*
X194096281Y-78152064D01*
X194096283Y-78152063D01*
X194103220Y-78148528D01*
X194198528Y-78053220D01*
X194227380Y-77996596D01*
X194256183Y-77940066D01*
X194256183Y-77940065D01*
X194259719Y-77933126D01*
X194271346Y-77859719D01*
X194279585Y-77807696D01*
X194280804Y-77800000D01*
X194259719Y-77666874D01*
X194249226Y-77646281D01*
X194202064Y-77553719D01*
X194202063Y-77553717D01*
X194198528Y-77546780D01*
X194103220Y-77451472D01*
X194096283Y-77447937D01*
X194096281Y-77447936D01*
X193990066Y-77393817D01*
X193990065Y-77393817D01*
X193983126Y-77390281D01*
X193975432Y-77389062D01*
X193975431Y-77389062D01*
X193857696Y-77370415D01*
X193850000Y-77369196D01*
X193842304Y-77370415D01*
X193724569Y-77389062D01*
X193724568Y-77389062D01*
X193716874Y-77390281D01*
X193709935Y-77393817D01*
X193709934Y-77393817D01*
X193603719Y-77447936D01*
X193603717Y-77447937D01*
X193596780Y-77451472D01*
X193501472Y-77546780D01*
X193497937Y-77553717D01*
X193497936Y-77553719D01*
X193450774Y-77646281D01*
X193440281Y-77666874D01*
X193419196Y-77800000D01*
X185050331Y-77800000D01*
X185053220Y-77798528D01*
X185148528Y-77703220D01*
X185163127Y-77674569D01*
X185206183Y-77590066D01*
X185206183Y-77590065D01*
X185209719Y-77583126D01*
X185221346Y-77509719D01*
X185229585Y-77457696D01*
X185230804Y-77450000D01*
X185221666Y-77392304D01*
X185210938Y-77324569D01*
X185210938Y-77324568D01*
X185209719Y-77316874D01*
X185180707Y-77259934D01*
X185152064Y-77203719D01*
X185152063Y-77203717D01*
X185148528Y-77196780D01*
X185053220Y-77101472D01*
X185050331Y-77100000D01*
X188769196Y-77100000D01*
X188770415Y-77107696D01*
X188786014Y-77206183D01*
X188790281Y-77233126D01*
X188793817Y-77240065D01*
X188793817Y-77240066D01*
X188844770Y-77340066D01*
X188851472Y-77353220D01*
X188946780Y-77448528D01*
X188953717Y-77452063D01*
X188953719Y-77452064D01*
X189059934Y-77506183D01*
X189066874Y-77509719D01*
X189074568Y-77510938D01*
X189074569Y-77510938D01*
X189192304Y-77529585D01*
X189200000Y-77530804D01*
X189207696Y-77529585D01*
X189325431Y-77510938D01*
X189325432Y-77510938D01*
X189333126Y-77509719D01*
X189340066Y-77506183D01*
X189446281Y-77452064D01*
X189446283Y-77452063D01*
X189453220Y-77448528D01*
X189548528Y-77353220D01*
X189555231Y-77340066D01*
X189606183Y-77240066D01*
X189606183Y-77240065D01*
X189609719Y-77233126D01*
X189613987Y-77206183D01*
X189629585Y-77107696D01*
X189630804Y-77100000D01*
X189621906Y-77043817D01*
X189610938Y-76974569D01*
X189610938Y-76974568D01*
X189609719Y-76966874D01*
X189592524Y-76933126D01*
X189552064Y-76853719D01*
X189552063Y-76853717D01*
X189548528Y-76846780D01*
X189453220Y-76751472D01*
X189446283Y-76747937D01*
X189446281Y-76747936D01*
X189340066Y-76693817D01*
X189340065Y-76693817D01*
X189333126Y-76690281D01*
X189325432Y-76689062D01*
X189325431Y-76689062D01*
X189207696Y-76670415D01*
X189200000Y-76669196D01*
X189192304Y-76670415D01*
X189074569Y-76689062D01*
X189074568Y-76689062D01*
X189066874Y-76690281D01*
X189059935Y-76693817D01*
X189059934Y-76693817D01*
X188953719Y-76747936D01*
X188953717Y-76747937D01*
X188946780Y-76751472D01*
X188851472Y-76846780D01*
X188847937Y-76853717D01*
X188847936Y-76853719D01*
X188807476Y-76933126D01*
X188790281Y-76966874D01*
X188789062Y-76974568D01*
X188789062Y-76974569D01*
X188778094Y-77043817D01*
X188769196Y-77100000D01*
X185050331Y-77100000D01*
X185046283Y-77097937D01*
X185046281Y-77097936D01*
X184940066Y-77043817D01*
X184940065Y-77043817D01*
X184933126Y-77040281D01*
X184925432Y-77039062D01*
X184925431Y-77039062D01*
X184807696Y-77020415D01*
X184800000Y-77019196D01*
X184792304Y-77020415D01*
X184674569Y-77039062D01*
X184674568Y-77039062D01*
X184666874Y-77040281D01*
X184659935Y-77043817D01*
X184659934Y-77043817D01*
X184553719Y-77097936D01*
X184553717Y-77097937D01*
X184546780Y-77101472D01*
X184451472Y-77196780D01*
X184447937Y-77203717D01*
X184447936Y-77203719D01*
X184419293Y-77259934D01*
X184390281Y-77316874D01*
X184389062Y-77324568D01*
X184389062Y-77324569D01*
X184378334Y-77392304D01*
X184369196Y-77450000D01*
X181322885Y-77450000D01*
X181329585Y-77407696D01*
X181330804Y-77400000D01*
X181320212Y-77333126D01*
X181310938Y-77274569D01*
X181310938Y-77274568D01*
X181309719Y-77266874D01*
X181292524Y-77233126D01*
X181252064Y-77153719D01*
X181252063Y-77153717D01*
X181248528Y-77146780D01*
X181153220Y-77051472D01*
X181146283Y-77047937D01*
X181146281Y-77047936D01*
X181040066Y-76993817D01*
X181040065Y-76993817D01*
X181033126Y-76990281D01*
X181025432Y-76989062D01*
X181025431Y-76989062D01*
X180907696Y-76970415D01*
X180900000Y-76969196D01*
X180892304Y-76970415D01*
X180774569Y-76989062D01*
X180774568Y-76989062D01*
X180766874Y-76990281D01*
X180759935Y-76993817D01*
X180759934Y-76993817D01*
X180653719Y-77047936D01*
X180653717Y-77047937D01*
X180646780Y-77051472D01*
X180551472Y-77146780D01*
X180547937Y-77153717D01*
X180547936Y-77153719D01*
X180507476Y-77233126D01*
X180490281Y-77266874D01*
X180489062Y-77274568D01*
X180489062Y-77274569D01*
X180479788Y-77333126D01*
X180469196Y-77400000D01*
X180470415Y-77407696D01*
X180486014Y-77506183D01*
X180490281Y-77533126D01*
X180551472Y-77653220D01*
X180646780Y-77748528D01*
X180653717Y-77752063D01*
X180653719Y-77752064D01*
X180766874Y-77809719D01*
X180765615Y-77812190D01*
X180804753Y-77840631D01*
X180823655Y-77898824D01*
X180804742Y-77957013D01*
X180755239Y-77992972D01*
X180740142Y-77996596D01*
X180735033Y-77997405D01*
X180724569Y-77999062D01*
X180724568Y-77999062D01*
X180716874Y-78000281D01*
X180709935Y-78003817D01*
X180709934Y-78003817D01*
X180603719Y-78057936D01*
X180603717Y-78057937D01*
X180596780Y-78061472D01*
X180501472Y-78156780D01*
X180440281Y-78276874D01*
X180419196Y-78410000D01*
X155200500Y-78410000D01*
X155200500Y-76800000D01*
X160269196Y-76800000D01*
X160270415Y-76807696D01*
X160286014Y-76906183D01*
X160290281Y-76933126D01*
X160293817Y-76940065D01*
X160293817Y-76940066D01*
X160321205Y-76993817D01*
X160351472Y-77053220D01*
X160446780Y-77148528D01*
X160453717Y-77152063D01*
X160453719Y-77152064D01*
X160547799Y-77200000D01*
X160566874Y-77209719D01*
X160574568Y-77210938D01*
X160574569Y-77210938D01*
X160692304Y-77229585D01*
X160700000Y-77230804D01*
X160707696Y-77229585D01*
X160825431Y-77210938D01*
X160825432Y-77210938D01*
X160833126Y-77209719D01*
X160852201Y-77200000D01*
X175769196Y-77200000D01*
X175770415Y-77207696D01*
X175788926Y-77324569D01*
X175790281Y-77333126D01*
X175793817Y-77340065D01*
X175793817Y-77340066D01*
X175846276Y-77443022D01*
X175851472Y-77453220D01*
X175946780Y-77548528D01*
X175953717Y-77552063D01*
X175953719Y-77552064D01*
X176059934Y-77606183D01*
X176066874Y-77609719D01*
X176074568Y-77610938D01*
X176074569Y-77610938D01*
X176192304Y-77629585D01*
X176200000Y-77630804D01*
X176207696Y-77629585D01*
X176325431Y-77610938D01*
X176325432Y-77610938D01*
X176333126Y-77609719D01*
X176340066Y-77606183D01*
X176446281Y-77552064D01*
X176446283Y-77552063D01*
X176453220Y-77548528D01*
X176548528Y-77453220D01*
X176553725Y-77443022D01*
X176606183Y-77340066D01*
X176606183Y-77340065D01*
X176609719Y-77333126D01*
X176611075Y-77324569D01*
X176629585Y-77207696D01*
X176630804Y-77200000D01*
X176609719Y-77066874D01*
X176570072Y-76989062D01*
X176552064Y-76953719D01*
X176552063Y-76953717D01*
X176548528Y-76946780D01*
X176453220Y-76851472D01*
X176446283Y-76847937D01*
X176446281Y-76847936D01*
X176340066Y-76793817D01*
X176340065Y-76793817D01*
X176333126Y-76790281D01*
X176325432Y-76789062D01*
X176325431Y-76789062D01*
X176207696Y-76770415D01*
X176200000Y-76769196D01*
X176192304Y-76770415D01*
X176074569Y-76789062D01*
X176074568Y-76789062D01*
X176066874Y-76790281D01*
X176059935Y-76793817D01*
X176059934Y-76793817D01*
X175953719Y-76847936D01*
X175953717Y-76847937D01*
X175946780Y-76851472D01*
X175851472Y-76946780D01*
X175847937Y-76953717D01*
X175847936Y-76953719D01*
X175829928Y-76989062D01*
X175790281Y-77066874D01*
X175769196Y-77200000D01*
X160852201Y-77200000D01*
X160946281Y-77152064D01*
X160946283Y-77152063D01*
X160953220Y-77148528D01*
X161048528Y-77053220D01*
X161078796Y-76993817D01*
X161106183Y-76940066D01*
X161106183Y-76940065D01*
X161109719Y-76933126D01*
X161113987Y-76906183D01*
X161129585Y-76807696D01*
X161130804Y-76800000D01*
X161122296Y-76746281D01*
X161110938Y-76674569D01*
X161110938Y-76674568D01*
X161109719Y-76666874D01*
X161048528Y-76546780D01*
X161001748Y-76500000D01*
X182069196Y-76500000D01*
X182090281Y-76633126D01*
X182093817Y-76640065D01*
X182093817Y-76640066D01*
X182121205Y-76693817D01*
X182151472Y-76753220D01*
X182246780Y-76848528D01*
X182253717Y-76852063D01*
X182253719Y-76852064D01*
X182359934Y-76906183D01*
X182366874Y-76909719D01*
X182374568Y-76910938D01*
X182374569Y-76910938D01*
X182492304Y-76929585D01*
X182500000Y-76930804D01*
X182507696Y-76929585D01*
X182625431Y-76910938D01*
X182625432Y-76910938D01*
X182633126Y-76909719D01*
X182640066Y-76906183D01*
X182746281Y-76852064D01*
X182746283Y-76852063D01*
X182753220Y-76848528D01*
X182848528Y-76753220D01*
X182878796Y-76693817D01*
X182906183Y-76640066D01*
X182906183Y-76640065D01*
X182909719Y-76633126D01*
X182930804Y-76500000D01*
X182922558Y-76447936D01*
X182910938Y-76374569D01*
X182910938Y-76374568D01*
X182909719Y-76366874D01*
X182848528Y-76246780D01*
X182753220Y-76151472D01*
X182746283Y-76147937D01*
X182746281Y-76147936D01*
X182640066Y-76093817D01*
X182640065Y-76093817D01*
X182633126Y-76090281D01*
X182625432Y-76089062D01*
X182625431Y-76089062D01*
X182507696Y-76070415D01*
X182500000Y-76069196D01*
X182492304Y-76070415D01*
X182374569Y-76089062D01*
X182374568Y-76089062D01*
X182366874Y-76090281D01*
X182359935Y-76093817D01*
X182359934Y-76093817D01*
X182253719Y-76147936D01*
X182253717Y-76147937D01*
X182246780Y-76151472D01*
X182151472Y-76246780D01*
X182090281Y-76366874D01*
X182089062Y-76374568D01*
X182089062Y-76374569D01*
X182077442Y-76447936D01*
X182069196Y-76500000D01*
X161001748Y-76500000D01*
X160953220Y-76451472D01*
X160946283Y-76447937D01*
X160946281Y-76447936D01*
X160840066Y-76393817D01*
X160840065Y-76393817D01*
X160833126Y-76390281D01*
X160825432Y-76389062D01*
X160825431Y-76389062D01*
X160707696Y-76370415D01*
X160700000Y-76369196D01*
X160692304Y-76370415D01*
X160574569Y-76389062D01*
X160574568Y-76389062D01*
X160566874Y-76390281D01*
X160559935Y-76393817D01*
X160559934Y-76393817D01*
X160453719Y-76447936D01*
X160453717Y-76447937D01*
X160446780Y-76451472D01*
X160351472Y-76546780D01*
X160290281Y-76666874D01*
X160289062Y-76674568D01*
X160289062Y-76674569D01*
X160277704Y-76746281D01*
X160269196Y-76800000D01*
X155200500Y-76800000D01*
X155200500Y-75700000D01*
X162519196Y-75700000D01*
X162540281Y-75833126D01*
X162601472Y-75953220D01*
X162696780Y-76048528D01*
X162703717Y-76052063D01*
X162703719Y-76052064D01*
X162809934Y-76106183D01*
X162816874Y-76109719D01*
X162824568Y-76110938D01*
X162824569Y-76110938D01*
X162942304Y-76129585D01*
X162950000Y-76130804D01*
X162957696Y-76129585D01*
X163075431Y-76110938D01*
X163075432Y-76110938D01*
X163083126Y-76109719D01*
X163090066Y-76106183D01*
X163196281Y-76052064D01*
X163196283Y-76052063D01*
X163203220Y-76048528D01*
X163298528Y-75953220D01*
X163359719Y-75833126D01*
X163380804Y-75700000D01*
X167519196Y-75700000D01*
X167540281Y-75833126D01*
X167601472Y-75953220D01*
X167696780Y-76048528D01*
X167703717Y-76052063D01*
X167703719Y-76052064D01*
X167809934Y-76106183D01*
X167816874Y-76109719D01*
X167824568Y-76110938D01*
X167824569Y-76110938D01*
X167942304Y-76129585D01*
X167950000Y-76130804D01*
X167957696Y-76129585D01*
X168075431Y-76110938D01*
X168075432Y-76110938D01*
X168083126Y-76109719D01*
X168090066Y-76106183D01*
X168196281Y-76052064D01*
X168196283Y-76052063D01*
X168203220Y-76048528D01*
X168298528Y-75953220D01*
X168359719Y-75833126D01*
X168380804Y-75700000D01*
X168359719Y-75566874D01*
X168298528Y-75446780D01*
X168203220Y-75351472D01*
X168196283Y-75347937D01*
X168196281Y-75347936D01*
X168090066Y-75293817D01*
X168090065Y-75293817D01*
X168083126Y-75290281D01*
X168075432Y-75289062D01*
X168075431Y-75289062D01*
X167986978Y-75275053D01*
X167950000Y-75269196D01*
X167913022Y-75275053D01*
X167824569Y-75289062D01*
X167824568Y-75289062D01*
X167816874Y-75290281D01*
X167809935Y-75293817D01*
X167809934Y-75293817D01*
X167703719Y-75347936D01*
X167703717Y-75347937D01*
X167696780Y-75351472D01*
X167601472Y-75446780D01*
X167540281Y-75566874D01*
X167519196Y-75700000D01*
X163380804Y-75700000D01*
X163359719Y-75566874D01*
X163298528Y-75446780D01*
X163203220Y-75351472D01*
X163196283Y-75347937D01*
X163196281Y-75347936D01*
X163090066Y-75293817D01*
X163090065Y-75293817D01*
X163083126Y-75290281D01*
X163075432Y-75289062D01*
X163075431Y-75289062D01*
X162986978Y-75275053D01*
X162950000Y-75269196D01*
X162913022Y-75275053D01*
X162824569Y-75289062D01*
X162824568Y-75289062D01*
X162816874Y-75290281D01*
X162809935Y-75293817D01*
X162809934Y-75293817D01*
X162703719Y-75347936D01*
X162703717Y-75347937D01*
X162696780Y-75351472D01*
X162601472Y-75446780D01*
X162540281Y-75566874D01*
X162519196Y-75700000D01*
X155200500Y-75700000D01*
X155200500Y-74292810D01*
X155219407Y-74234619D01*
X155268907Y-74198655D01*
X155330093Y-74198655D01*
X155379593Y-74234619D01*
X155383085Y-74239757D01*
X155384584Y-74242484D01*
X155569522Y-74497030D01*
X155784906Y-74726390D01*
X155787301Y-74728371D01*
X156024943Y-74924967D01*
X156024948Y-74924971D01*
X156027337Y-74926947D01*
X156292993Y-75095537D01*
X156295793Y-75096854D01*
X156295801Y-75096859D01*
X156521410Y-75203022D01*
X156577685Y-75229503D01*
X156580646Y-75230465D01*
X156873971Y-75325773D01*
X156873979Y-75325775D01*
X156876921Y-75326731D01*
X157185985Y-75385688D01*
X157189088Y-75385883D01*
X157189094Y-75385884D01*
X157419883Y-75400404D01*
X157419899Y-75400405D01*
X157421417Y-75400500D01*
X157578583Y-75400500D01*
X157580101Y-75400405D01*
X157580117Y-75400404D01*
X157810906Y-75385884D01*
X157810912Y-75385883D01*
X157814015Y-75385688D01*
X158123079Y-75326731D01*
X158126021Y-75325775D01*
X158126029Y-75325773D01*
X158419354Y-75230465D01*
X158422315Y-75229503D01*
X158478590Y-75203022D01*
X158704199Y-75096859D01*
X158704207Y-75096854D01*
X158707007Y-75095537D01*
X158972663Y-74926947D01*
X158975052Y-74924971D01*
X158975057Y-74924967D01*
X159053588Y-74860000D01*
X180419196Y-74860000D01*
X180440281Y-74993126D01*
X180443817Y-75000065D01*
X180443817Y-75000066D01*
X180493136Y-75096859D01*
X180501472Y-75113220D01*
X180596780Y-75208528D01*
X180603717Y-75212063D01*
X180603719Y-75212064D01*
X180709934Y-75266183D01*
X180716874Y-75269719D01*
X180724568Y-75270938D01*
X180724569Y-75270938D01*
X180813022Y-75284947D01*
X180839002Y-75289062D01*
X180842304Y-75289585D01*
X180850000Y-75290804D01*
X180857696Y-75289585D01*
X180860999Y-75289062D01*
X180886978Y-75284947D01*
X180975431Y-75270938D01*
X180975432Y-75270938D01*
X180983126Y-75269719D01*
X180990066Y-75266183D01*
X181096281Y-75212064D01*
X181096283Y-75212063D01*
X181103220Y-75208528D01*
X181198528Y-75113220D01*
X181206865Y-75096859D01*
X181256183Y-75000066D01*
X181256183Y-75000065D01*
X181259719Y-74993126D01*
X181280804Y-74860000D01*
X181259719Y-74726874D01*
X181198528Y-74606780D01*
X181103220Y-74511472D01*
X181096283Y-74507937D01*
X181096281Y-74507936D01*
X180990066Y-74453817D01*
X180990065Y-74453817D01*
X180983126Y-74450281D01*
X180975432Y-74449062D01*
X180975431Y-74449062D01*
X180857696Y-74430415D01*
X180850000Y-74429196D01*
X180842304Y-74430415D01*
X180724569Y-74449062D01*
X180724568Y-74449062D01*
X180716874Y-74450281D01*
X180709935Y-74453817D01*
X180709934Y-74453817D01*
X180603719Y-74507936D01*
X180603717Y-74507937D01*
X180596780Y-74511472D01*
X180501472Y-74606780D01*
X180440281Y-74726874D01*
X180419196Y-74860000D01*
X159053588Y-74860000D01*
X159212699Y-74728371D01*
X159215094Y-74726390D01*
X159430478Y-74497030D01*
X159615416Y-74242484D01*
X159670096Y-74143022D01*
X159765498Y-73969488D01*
X159765501Y-73969482D01*
X159766994Y-73966766D01*
X159833021Y-73800000D01*
X180469196Y-73800000D01*
X180470415Y-73807696D01*
X180482606Y-73884665D01*
X180490281Y-73933126D01*
X180551472Y-74053220D01*
X180646780Y-74148528D01*
X180653717Y-74152063D01*
X180653719Y-74152064D01*
X180759934Y-74206183D01*
X180766874Y-74209719D01*
X180774568Y-74210938D01*
X180774569Y-74210938D01*
X180892304Y-74229585D01*
X180900000Y-74230804D01*
X180907696Y-74229585D01*
X181025431Y-74210938D01*
X181025432Y-74210938D01*
X181033126Y-74209719D01*
X181040066Y-74206183D01*
X181146281Y-74152064D01*
X181146283Y-74152063D01*
X181153220Y-74148528D01*
X181248528Y-74053220D01*
X181309719Y-73933126D01*
X181317395Y-73884665D01*
X181329585Y-73807696D01*
X181330804Y-73800000D01*
X181309719Y-73666874D01*
X181248528Y-73546780D01*
X181153220Y-73451472D01*
X181146283Y-73447937D01*
X181146281Y-73447936D01*
X181040066Y-73393817D01*
X181040065Y-73393817D01*
X181033126Y-73390281D01*
X181025432Y-73389062D01*
X181025431Y-73389062D01*
X180907696Y-73370415D01*
X180900000Y-73369196D01*
X180892304Y-73370415D01*
X180774569Y-73389062D01*
X180774568Y-73389062D01*
X180766874Y-73390281D01*
X180759935Y-73393817D01*
X180759934Y-73393817D01*
X180653719Y-73447936D01*
X180653717Y-73447937D01*
X180646780Y-73451472D01*
X180551472Y-73546780D01*
X180490281Y-73666874D01*
X180469196Y-73800000D01*
X159833021Y-73800000D01*
X159882819Y-73674225D01*
X159884707Y-73666874D01*
X159960294Y-73372480D01*
X159960294Y-73372479D01*
X159961066Y-73369473D01*
X160000500Y-73057318D01*
X160000500Y-72900000D01*
X182069196Y-72900000D01*
X182090281Y-73033126D01*
X182151472Y-73153220D01*
X182246780Y-73248528D01*
X182253717Y-73252063D01*
X182253719Y-73252064D01*
X182359934Y-73306183D01*
X182366874Y-73309719D01*
X182374568Y-73310938D01*
X182374569Y-73310938D01*
X182492304Y-73329585D01*
X182500000Y-73330804D01*
X182507696Y-73329585D01*
X182625431Y-73310938D01*
X182625432Y-73310938D01*
X182633126Y-73309719D01*
X182640066Y-73306183D01*
X182746281Y-73252064D01*
X182746283Y-73252063D01*
X182753220Y-73248528D01*
X182848528Y-73153220D01*
X182909719Y-73033126D01*
X182930804Y-72900000D01*
X182909719Y-72766874D01*
X182848528Y-72646780D01*
X182753220Y-72551472D01*
X182746283Y-72547937D01*
X182746281Y-72547936D01*
X182640066Y-72493817D01*
X182640065Y-72493817D01*
X182633126Y-72490281D01*
X182625432Y-72489062D01*
X182625431Y-72489062D01*
X182507696Y-72470415D01*
X182500000Y-72469196D01*
X182492304Y-72470415D01*
X182374569Y-72489062D01*
X182374568Y-72489062D01*
X182366874Y-72490281D01*
X182359935Y-72493817D01*
X182359934Y-72493817D01*
X182253719Y-72547936D01*
X182253717Y-72547937D01*
X182246780Y-72551472D01*
X182151472Y-72646780D01*
X182090281Y-72766874D01*
X182069196Y-72900000D01*
X160000500Y-72900000D01*
X160000500Y-72742682D01*
X159961066Y-72430527D01*
X159882819Y-72125775D01*
X159868776Y-72090305D01*
X159768137Y-71836121D01*
X159766994Y-71833234D01*
X159763152Y-71826244D01*
X159635328Y-71593735D01*
X159615416Y-71557516D01*
X159430478Y-71302970D01*
X159215094Y-71073610D01*
X159110944Y-70987449D01*
X158975057Y-70875033D01*
X158975052Y-70875029D01*
X158972663Y-70873053D01*
X158830902Y-70783089D01*
X158791901Y-70735944D01*
X158788059Y-70674880D01*
X158820844Y-70623219D01*
X158877733Y-70600695D01*
X158883949Y-70600500D01*
X190116051Y-70600500D01*
X190174242Y-70619407D01*
G37*
G04 #@! TD.AperFunction*
G04 #@! TD*
M02*
