G04 #@! TF.GenerationSoftware,KiCad,Pcbnew,8.0.4*
G04 #@! TF.CreationDate,2025-06-24T19:37:56-07:00*
G04 #@! TF.ProjectId,IMX585_MIPI_Breakout_v4,494d5835-3835-45f4-9d49-50495f427265,rev?*
G04 #@! TF.SameCoordinates,Original*
G04 #@! TF.FileFunction,Paste,Top*
G04 #@! TF.FilePolarity,Positive*
%FSLAX46Y46*%
G04 Gerber Fmt 4.6, Leading zero omitted, Abs format (unit mm)*
G04 Created by KiCad (PCBNEW 8.0.4) date 2025-06-24 19:37:56*
%MOMM*%
%LPD*%
G01*
G04 APERTURE LIST*
%ADD10R,0.600000X0.600000*%
%ADD11R,0.400000X0.400000*%
%ADD12R,0.300000X0.230000*%
%ADD13R,0.650000X0.750000*%
%ADD14R,0.250000X0.500000*%
%ADD15R,0.650000X0.850000*%
%ADD16R,0.449999X0.299999*%
%ADD17R,0.254000X1.168400*%
%ADD18R,1.800000X0.300000*%
%ADD19R,0.254000X0.482600*%
G04 APERTURE END LIST*
D10*
G04 #@! TO.C,C13*
X89000000Y-78700000D03*
D11*
X89800000Y-78300000D03*
X89800000Y-79100000D03*
D10*
X90600000Y-78700000D03*
G04 #@! TD*
G04 #@! TO.C,C33*
G36*
G01*
X96990000Y-69220000D02*
X96990000Y-68880000D01*
G75*
G02*
X97130000Y-68740000I140000J0D01*
G01*
X97410000Y-68740000D01*
G75*
G02*
X97550000Y-68880000I0J-140000D01*
G01*
X97550000Y-69220000D01*
G75*
G02*
X97410000Y-69360000I-140000J0D01*
G01*
X97130000Y-69360000D01*
G75*
G02*
X96990000Y-69220000I0J140000D01*
G01*
G37*
G36*
G01*
X97950000Y-69220000D02*
X97950000Y-68880000D01*
G75*
G02*
X98090000Y-68740000I140000J0D01*
G01*
X98370000Y-68740000D01*
G75*
G02*
X98510000Y-68880000I0J-140000D01*
G01*
X98510000Y-69220000D01*
G75*
G02*
X98370000Y-69360000I-140000J0D01*
G01*
X98090000Y-69360000D01*
G75*
G02*
X97950000Y-69220000I0J140000D01*
G01*
G37*
G04 #@! TD*
D12*
G04 #@! TO.C,FL4*
X115150000Y-71010000D03*
X115650000Y-71010000D03*
X115650000Y-71490000D03*
X115150000Y-71490000D03*
G04 #@! TD*
G04 #@! TO.C,C43*
G36*
G01*
X104330000Y-77040000D02*
X104670000Y-77040000D01*
G75*
G02*
X104810000Y-77180000I0J-140000D01*
G01*
X104810000Y-77460000D01*
G75*
G02*
X104670000Y-77600000I-140000J0D01*
G01*
X104330000Y-77600000D01*
G75*
G02*
X104190000Y-77460000I0J140000D01*
G01*
X104190000Y-77180000D01*
G75*
G02*
X104330000Y-77040000I140000J0D01*
G01*
G37*
G36*
G01*
X104330000Y-78000000D02*
X104670000Y-78000000D01*
G75*
G02*
X104810000Y-78140000I0J-140000D01*
G01*
X104810000Y-78420000D01*
G75*
G02*
X104670000Y-78560000I-140000J0D01*
G01*
X104330000Y-78560000D01*
G75*
G02*
X104190000Y-78420000I0J140000D01*
G01*
X104190000Y-78140000D01*
G75*
G02*
X104330000Y-78000000I140000J0D01*
G01*
G37*
G04 #@! TD*
G04 #@! TO.C,J1*
G36*
G01*
X116950000Y-80100000D02*
X118200000Y-80100000D01*
G75*
G02*
X118350000Y-80250000I0J-150000D01*
G01*
X118350000Y-80550000D01*
G75*
G02*
X118200000Y-80700000I-150000J0D01*
G01*
X116950000Y-80700000D01*
G75*
G02*
X116800000Y-80550000I0J150000D01*
G01*
X116800000Y-80250000D01*
G75*
G02*
X116950000Y-80100000I150000J0D01*
G01*
G37*
G36*
G01*
X116950000Y-81100000D02*
X118200000Y-81100000D01*
G75*
G02*
X118350000Y-81250000I0J-150000D01*
G01*
X118350000Y-81550000D01*
G75*
G02*
X118200000Y-81700000I-150000J0D01*
G01*
X116950000Y-81700000D01*
G75*
G02*
X116800000Y-81550000I0J150000D01*
G01*
X116800000Y-81250000D01*
G75*
G02*
X116950000Y-81100000I150000J0D01*
G01*
G37*
G36*
G01*
X116950000Y-82100000D02*
X118200000Y-82100000D01*
G75*
G02*
X118350000Y-82250000I0J-150000D01*
G01*
X118350000Y-82550000D01*
G75*
G02*
X118200000Y-82700000I-150000J0D01*
G01*
X116950000Y-82700000D01*
G75*
G02*
X116800000Y-82550000I0J150000D01*
G01*
X116800000Y-82250000D01*
G75*
G02*
X116950000Y-82100000I150000J0D01*
G01*
G37*
G36*
G01*
X116950000Y-83100000D02*
X118200000Y-83100000D01*
G75*
G02*
X118350000Y-83250000I0J-150000D01*
G01*
X118350000Y-83550000D01*
G75*
G02*
X118200000Y-83700000I-150000J0D01*
G01*
X116950000Y-83700000D01*
G75*
G02*
X116800000Y-83550000I0J150000D01*
G01*
X116800000Y-83250000D01*
G75*
G02*
X116950000Y-83100000I150000J0D01*
G01*
G37*
G36*
G01*
X119450000Y-78500000D02*
X120750000Y-78500000D01*
G75*
G02*
X121000000Y-78750000I0J-250000D01*
G01*
X121000000Y-79450000D01*
G75*
G02*
X120750000Y-79700000I-250000J0D01*
G01*
X119450000Y-79700000D01*
G75*
G02*
X119200000Y-79450000I0J250000D01*
G01*
X119200000Y-78750000D01*
G75*
G02*
X119450000Y-78500000I250000J0D01*
G01*
G37*
G36*
G01*
X119450000Y-84100000D02*
X120750000Y-84100000D01*
G75*
G02*
X121000000Y-84350000I0J-250000D01*
G01*
X121000000Y-85050000D01*
G75*
G02*
X120750000Y-85300000I-250000J0D01*
G01*
X119450000Y-85300000D01*
G75*
G02*
X119200000Y-85050000I0J250000D01*
G01*
X119200000Y-84350000D01*
G75*
G02*
X119450000Y-84100000I250000J0D01*
G01*
G37*
G04 #@! TD*
G04 #@! TO.C,C52*
G36*
G01*
X109590000Y-82120000D02*
X109590000Y-81780000D01*
G75*
G02*
X109730000Y-81640000I140000J0D01*
G01*
X110010000Y-81640000D01*
G75*
G02*
X110150000Y-81780000I0J-140000D01*
G01*
X110150000Y-82120000D01*
G75*
G02*
X110010000Y-82260000I-140000J0D01*
G01*
X109730000Y-82260000D01*
G75*
G02*
X109590000Y-82120000I0J140000D01*
G01*
G37*
G36*
G01*
X110550000Y-82120000D02*
X110550000Y-81780000D01*
G75*
G02*
X110690000Y-81640000I140000J0D01*
G01*
X110970000Y-81640000D01*
G75*
G02*
X111110000Y-81780000I0J-140000D01*
G01*
X111110000Y-82120000D01*
G75*
G02*
X110970000Y-82260000I-140000J0D01*
G01*
X110690000Y-82260000D01*
G75*
G02*
X110550000Y-82120000I0J140000D01*
G01*
G37*
G04 #@! TD*
G04 #@! TO.C,C4*
G36*
G01*
X96940000Y-74220000D02*
X96940000Y-73880000D01*
G75*
G02*
X97080000Y-73740000I140000J0D01*
G01*
X97360000Y-73740000D01*
G75*
G02*
X97500000Y-73880000I0J-140000D01*
G01*
X97500000Y-74220000D01*
G75*
G02*
X97360000Y-74360000I-140000J0D01*
G01*
X97080000Y-74360000D01*
G75*
G02*
X96940000Y-74220000I0J140000D01*
G01*
G37*
G36*
G01*
X97900000Y-74220000D02*
X97900000Y-73880000D01*
G75*
G02*
X98040000Y-73740000I140000J0D01*
G01*
X98320000Y-73740000D01*
G75*
G02*
X98460000Y-73880000I0J-140000D01*
G01*
X98460000Y-74220000D01*
G75*
G02*
X98320000Y-74360000I-140000J0D01*
G01*
X98040000Y-74360000D01*
G75*
G02*
X97900000Y-74220000I0J140000D01*
G01*
G37*
G04 #@! TD*
G04 #@! TO.C,R12*
G36*
G01*
X89515000Y-70320000D02*
X89885000Y-70320000D01*
G75*
G02*
X90020000Y-70455000I0J-135000D01*
G01*
X90020000Y-70725000D01*
G75*
G02*
X89885000Y-70860000I-135000J0D01*
G01*
X89515000Y-70860000D01*
G75*
G02*
X89380000Y-70725000I0J135000D01*
G01*
X89380000Y-70455000D01*
G75*
G02*
X89515000Y-70320000I135000J0D01*
G01*
G37*
G36*
G01*
X89515000Y-71340000D02*
X89885000Y-71340000D01*
G75*
G02*
X90020000Y-71475000I0J-135000D01*
G01*
X90020000Y-71745000D01*
G75*
G02*
X89885000Y-71880000I-135000J0D01*
G01*
X89515000Y-71880000D01*
G75*
G02*
X89380000Y-71745000I0J135000D01*
G01*
X89380000Y-71475000D01*
G75*
G02*
X89515000Y-71340000I135000J0D01*
G01*
G37*
G04 #@! TD*
G04 #@! TO.C,C25*
G36*
G01*
X96860000Y-69880000D02*
X96860000Y-70220000D01*
G75*
G02*
X96720000Y-70360000I-140000J0D01*
G01*
X96440000Y-70360000D01*
G75*
G02*
X96300000Y-70220000I0J140000D01*
G01*
X96300000Y-69880000D01*
G75*
G02*
X96440000Y-69740000I140000J0D01*
G01*
X96720000Y-69740000D01*
G75*
G02*
X96860000Y-69880000I0J-140000D01*
G01*
G37*
G36*
G01*
X95900000Y-69880000D02*
X95900000Y-70220000D01*
G75*
G02*
X95760000Y-70360000I-140000J0D01*
G01*
X95480000Y-70360000D01*
G75*
G02*
X95340000Y-70220000I0J140000D01*
G01*
X95340000Y-69880000D01*
G75*
G02*
X95480000Y-69740000I140000J0D01*
G01*
X95760000Y-69740000D01*
G75*
G02*
X95900000Y-69880000I0J-140000D01*
G01*
G37*
G04 #@! TD*
G04 #@! TO.C,J4*
G36*
G01*
X96750000Y-56250000D02*
X96250000Y-56250000D01*
G75*
G02*
X96000000Y-56000000I0J250000D01*
G01*
X96000000Y-55450000D01*
G75*
G02*
X96250000Y-55200000I250000J0D01*
G01*
X96750000Y-55200000D01*
G75*
G02*
X97000000Y-55450000I0J-250000D01*
G01*
X97000000Y-56000000D01*
G75*
G02*
X96750000Y-56250000I-250000J0D01*
G01*
G37*
G36*
G01*
X95300000Y-55300000D02*
X94750000Y-55300000D01*
G75*
G02*
X94500000Y-55050000I0J250000D01*
G01*
X94500000Y-53350000D01*
G75*
G02*
X94750000Y-53100000I250000J0D01*
G01*
X95300000Y-53100000D01*
G75*
G02*
X95550000Y-53350000I0J-250000D01*
G01*
X95550000Y-55050000D01*
G75*
G02*
X95300000Y-55300000I-250000J0D01*
G01*
G37*
G36*
G01*
X98250000Y-55300000D02*
X97700000Y-55300000D01*
G75*
G02*
X97450000Y-55050000I0J250000D01*
G01*
X97450000Y-53350000D01*
G75*
G02*
X97700000Y-53100000I250000J0D01*
G01*
X98250000Y-53100000D01*
G75*
G02*
X98500000Y-53350000I0J-250000D01*
G01*
X98500000Y-55050000D01*
G75*
G02*
X98250000Y-55300000I-250000J0D01*
G01*
G37*
G04 #@! TD*
G04 #@! TO.C,C27*
G36*
G01*
X95510000Y-65630000D02*
X95510000Y-65970000D01*
G75*
G02*
X95370000Y-66110000I-140000J0D01*
G01*
X95090000Y-66110000D01*
G75*
G02*
X94950000Y-65970000I0J140000D01*
G01*
X94950000Y-65630000D01*
G75*
G02*
X95090000Y-65490000I140000J0D01*
G01*
X95370000Y-65490000D01*
G75*
G02*
X95510000Y-65630000I0J-140000D01*
G01*
G37*
G36*
G01*
X94550000Y-65630000D02*
X94550000Y-65970000D01*
G75*
G02*
X94410000Y-66110000I-140000J0D01*
G01*
X94130000Y-66110000D01*
G75*
G02*
X93990000Y-65970000I0J140000D01*
G01*
X93990000Y-65630000D01*
G75*
G02*
X94130000Y-65490000I140000J0D01*
G01*
X94410000Y-65490000D01*
G75*
G02*
X94550000Y-65630000I0J-140000D01*
G01*
G37*
G04 #@! TD*
G04 #@! TO.C,C36*
G36*
G01*
X105360000Y-56730000D02*
X105360000Y-57070000D01*
G75*
G02*
X105220000Y-57210000I-140000J0D01*
G01*
X104940000Y-57210000D01*
G75*
G02*
X104800000Y-57070000I0J140000D01*
G01*
X104800000Y-56730000D01*
G75*
G02*
X104940000Y-56590000I140000J0D01*
G01*
X105220000Y-56590000D01*
G75*
G02*
X105360000Y-56730000I0J-140000D01*
G01*
G37*
G36*
G01*
X104400000Y-56730000D02*
X104400000Y-57070000D01*
G75*
G02*
X104260000Y-57210000I-140000J0D01*
G01*
X103980000Y-57210000D01*
G75*
G02*
X103840000Y-57070000I0J140000D01*
G01*
X103840000Y-56730000D01*
G75*
G02*
X103980000Y-56590000I140000J0D01*
G01*
X104260000Y-56590000D01*
G75*
G02*
X104400000Y-56730000I0J-140000D01*
G01*
G37*
G04 #@! TD*
G04 #@! TO.C,C34*
G36*
G01*
X101250000Y-65725000D02*
X101750000Y-65725000D01*
G75*
G02*
X101975000Y-65950000I0J-225000D01*
G01*
X101975000Y-66400000D01*
G75*
G02*
X101750000Y-66625000I-225000J0D01*
G01*
X101250000Y-66625000D01*
G75*
G02*
X101025000Y-66400000I0J225000D01*
G01*
X101025000Y-65950000D01*
G75*
G02*
X101250000Y-65725000I225000J0D01*
G01*
G37*
G36*
G01*
X101250000Y-67275000D02*
X101750000Y-67275000D01*
G75*
G02*
X101975000Y-67500000I0J-225000D01*
G01*
X101975000Y-67950000D01*
G75*
G02*
X101750000Y-68175000I-225000J0D01*
G01*
X101250000Y-68175000D01*
G75*
G02*
X101025000Y-67950000I0J225000D01*
G01*
X101025000Y-67500000D01*
G75*
G02*
X101250000Y-67275000I225000J0D01*
G01*
G37*
G04 #@! TD*
G04 #@! TO.C,C21*
G36*
G01*
X108770000Y-75860000D02*
X108430000Y-75860000D01*
G75*
G02*
X108290000Y-75720000I0J140000D01*
G01*
X108290000Y-75440000D01*
G75*
G02*
X108430000Y-75300000I140000J0D01*
G01*
X108770000Y-75300000D01*
G75*
G02*
X108910000Y-75440000I0J-140000D01*
G01*
X108910000Y-75720000D01*
G75*
G02*
X108770000Y-75860000I-140000J0D01*
G01*
G37*
G36*
G01*
X108770000Y-74900000D02*
X108430000Y-74900000D01*
G75*
G02*
X108290000Y-74760000I0J140000D01*
G01*
X108290000Y-74480000D01*
G75*
G02*
X108430000Y-74340000I140000J0D01*
G01*
X108770000Y-74340000D01*
G75*
G02*
X108910000Y-74480000I0J-140000D01*
G01*
X108910000Y-74760000D01*
G75*
G02*
X108770000Y-74900000I-140000J0D01*
G01*
G37*
G04 #@! TD*
G04 #@! TO.C,C31*
G36*
G01*
X95460000Y-71930000D02*
X95460000Y-72270000D01*
G75*
G02*
X95320000Y-72410000I-140000J0D01*
G01*
X95040000Y-72410000D01*
G75*
G02*
X94900000Y-72270000I0J140000D01*
G01*
X94900000Y-71930000D01*
G75*
G02*
X95040000Y-71790000I140000J0D01*
G01*
X95320000Y-71790000D01*
G75*
G02*
X95460000Y-71930000I0J-140000D01*
G01*
G37*
G36*
G01*
X94500000Y-71930000D02*
X94500000Y-72270000D01*
G75*
G02*
X94360000Y-72410000I-140000J0D01*
G01*
X94080000Y-72410000D01*
G75*
G02*
X93940000Y-72270000I0J140000D01*
G01*
X93940000Y-71930000D01*
G75*
G02*
X94080000Y-71790000I140000J0D01*
G01*
X94360000Y-71790000D01*
G75*
G02*
X94500000Y-71930000I0J-140000D01*
G01*
G37*
G04 #@! TD*
G04 #@! TO.C,U11*
G36*
G01*
X110940000Y-54237500D02*
X110940000Y-54062500D01*
G75*
G02*
X111027500Y-53975000I87500J0D01*
G01*
X111442500Y-53975000D01*
G75*
G02*
X111530000Y-54062500I0J-87500D01*
G01*
X111530000Y-54237500D01*
G75*
G02*
X111442500Y-54325000I-87500J0D01*
G01*
X111027500Y-54325000D01*
G75*
G02*
X110940000Y-54237500I0J87500D01*
G01*
G37*
G36*
G01*
X110940000Y-54737500D02*
X110940000Y-54562500D01*
G75*
G02*
X111027500Y-54475000I87500J0D01*
G01*
X111442500Y-54475000D01*
G75*
G02*
X111530000Y-54562500I0J-87500D01*
G01*
X111530000Y-54737500D01*
G75*
G02*
X111442500Y-54825000I-87500J0D01*
G01*
X111027500Y-54825000D01*
G75*
G02*
X110940000Y-54737500I0J87500D01*
G01*
G37*
G36*
G01*
X110940000Y-55237500D02*
X110940000Y-55062500D01*
G75*
G02*
X111027500Y-54975000I87500J0D01*
G01*
X111442500Y-54975000D01*
G75*
G02*
X111530000Y-55062500I0J-87500D01*
G01*
X111530000Y-55237500D01*
G75*
G02*
X111442500Y-55325000I-87500J0D01*
G01*
X111027500Y-55325000D01*
G75*
G02*
X110940000Y-55237500I0J87500D01*
G01*
G37*
G36*
G01*
X110940000Y-55737500D02*
X110940000Y-55562500D01*
G75*
G02*
X111027500Y-55475000I87500J0D01*
G01*
X111442500Y-55475000D01*
G75*
G02*
X111530000Y-55562500I0J-87500D01*
G01*
X111530000Y-55737500D01*
G75*
G02*
X111442500Y-55825000I-87500J0D01*
G01*
X111027500Y-55825000D01*
G75*
G02*
X110940000Y-55737500I0J87500D01*
G01*
G37*
G36*
G01*
X111987500Y-56110000D02*
X111812500Y-56110000D01*
G75*
G02*
X111725000Y-56022500I0J87500D01*
G01*
X111725000Y-55607500D01*
G75*
G02*
X111812500Y-55520000I87500J0D01*
G01*
X111987500Y-55520000D01*
G75*
G02*
X112075000Y-55607500I0J-87500D01*
G01*
X112075000Y-56022500D01*
G75*
G02*
X111987500Y-56110000I-87500J0D01*
G01*
G37*
G36*
G01*
X112487500Y-56110000D02*
X112312500Y-56110000D01*
G75*
G02*
X112225000Y-56022500I0J87500D01*
G01*
X112225000Y-55607500D01*
G75*
G02*
X112312500Y-55520000I87500J0D01*
G01*
X112487500Y-55520000D01*
G75*
G02*
X112575000Y-55607500I0J-87500D01*
G01*
X112575000Y-56022500D01*
G75*
G02*
X112487500Y-56110000I-87500J0D01*
G01*
G37*
G36*
G01*
X112987500Y-56110000D02*
X112812500Y-56110000D01*
G75*
G02*
X112725000Y-56022500I0J87500D01*
G01*
X112725000Y-55607500D01*
G75*
G02*
X112812500Y-55520000I87500J0D01*
G01*
X112987500Y-55520000D01*
G75*
G02*
X113075000Y-55607500I0J-87500D01*
G01*
X113075000Y-56022500D01*
G75*
G02*
X112987500Y-56110000I-87500J0D01*
G01*
G37*
G36*
G01*
X113860000Y-55562500D02*
X113860000Y-55737500D01*
G75*
G02*
X113772500Y-55825000I-87500J0D01*
G01*
X113357500Y-55825000D01*
G75*
G02*
X113270000Y-55737500I0J87500D01*
G01*
X113270000Y-55562500D01*
G75*
G02*
X113357500Y-55475000I87500J0D01*
G01*
X113772500Y-55475000D01*
G75*
G02*
X113860000Y-55562500I0J-87500D01*
G01*
G37*
G36*
G01*
X113860000Y-55062500D02*
X113860000Y-55237500D01*
G75*
G02*
X113772500Y-55325000I-87500J0D01*
G01*
X113357500Y-55325000D01*
G75*
G02*
X113270000Y-55237500I0J87500D01*
G01*
X113270000Y-55062500D01*
G75*
G02*
X113357500Y-54975000I87500J0D01*
G01*
X113772500Y-54975000D01*
G75*
G02*
X113860000Y-55062500I0J-87500D01*
G01*
G37*
G36*
G01*
X113860000Y-54562500D02*
X113860000Y-54737500D01*
G75*
G02*
X113772500Y-54825000I-87500J0D01*
G01*
X113357500Y-54825000D01*
G75*
G02*
X113270000Y-54737500I0J87500D01*
G01*
X113270000Y-54562500D01*
G75*
G02*
X113357500Y-54475000I87500J0D01*
G01*
X113772500Y-54475000D01*
G75*
G02*
X113860000Y-54562500I0J-87500D01*
G01*
G37*
G36*
G01*
X113860000Y-54062500D02*
X113860000Y-54237500D01*
G75*
G02*
X113772500Y-54325000I-87500J0D01*
G01*
X113357500Y-54325000D01*
G75*
G02*
X113270000Y-54237500I0J87500D01*
G01*
X113270000Y-54062500D01*
G75*
G02*
X113357500Y-53975000I87500J0D01*
G01*
X113772500Y-53975000D01*
G75*
G02*
X113860000Y-54062500I0J-87500D01*
G01*
G37*
G36*
G01*
X112812500Y-53690000D02*
X112987500Y-53690000D01*
G75*
G02*
X113075000Y-53777500I0J-87500D01*
G01*
X113075000Y-54192500D01*
G75*
G02*
X112987500Y-54280000I-87500J0D01*
G01*
X112812500Y-54280000D01*
G75*
G02*
X112725000Y-54192500I0J87500D01*
G01*
X112725000Y-53777500D01*
G75*
G02*
X112812500Y-53690000I87500J0D01*
G01*
G37*
G36*
G01*
X112312500Y-53690000D02*
X112487500Y-53690000D01*
G75*
G02*
X112575000Y-53777500I0J-87500D01*
G01*
X112575000Y-54192500D01*
G75*
G02*
X112487500Y-54280000I-87500J0D01*
G01*
X112312500Y-54280000D01*
G75*
G02*
X112225000Y-54192500I0J87500D01*
G01*
X112225000Y-53777500D01*
G75*
G02*
X112312500Y-53690000I87500J0D01*
G01*
G37*
G36*
G01*
X111812500Y-53690000D02*
X111987500Y-53690000D01*
G75*
G02*
X112075000Y-53777500I0J-87500D01*
G01*
X112075000Y-54192500D01*
G75*
G02*
X111987500Y-54280000I-87500J0D01*
G01*
X111812500Y-54280000D01*
G75*
G02*
X111725000Y-54192500I0J87500D01*
G01*
X111725000Y-53777500D01*
G75*
G02*
X111812500Y-53690000I87500J0D01*
G01*
G37*
G04 #@! TD*
G04 #@! TO.C,C26*
G36*
G01*
X97280000Y-77040000D02*
X97620000Y-77040000D01*
G75*
G02*
X97760000Y-77180000I0J-140000D01*
G01*
X97760000Y-77460000D01*
G75*
G02*
X97620000Y-77600000I-140000J0D01*
G01*
X97280000Y-77600000D01*
G75*
G02*
X97140000Y-77460000I0J140000D01*
G01*
X97140000Y-77180000D01*
G75*
G02*
X97280000Y-77040000I140000J0D01*
G01*
G37*
G36*
G01*
X97280000Y-78000000D02*
X97620000Y-78000000D01*
G75*
G02*
X97760000Y-78140000I0J-140000D01*
G01*
X97760000Y-78420000D01*
G75*
G02*
X97620000Y-78560000I-140000J0D01*
G01*
X97280000Y-78560000D01*
G75*
G02*
X97140000Y-78420000I0J140000D01*
G01*
X97140000Y-78140000D01*
G75*
G02*
X97280000Y-78000000I140000J0D01*
G01*
G37*
G04 #@! TD*
G04 #@! TO.C,U2*
G36*
G01*
X85500000Y-75800000D02*
X85200000Y-75800000D01*
G75*
G02*
X85050000Y-75650000I0J150000D01*
G01*
X85050000Y-74625000D01*
G75*
G02*
X85200000Y-74475000I150000J0D01*
G01*
X85500000Y-74475000D01*
G75*
G02*
X85650000Y-74625000I0J-150000D01*
G01*
X85650000Y-75650000D01*
G75*
G02*
X85500000Y-75800000I-150000J0D01*
G01*
G37*
G36*
G01*
X86450000Y-75800000D02*
X86150000Y-75800000D01*
G75*
G02*
X86000000Y-75650000I0J150000D01*
G01*
X86000000Y-74625000D01*
G75*
G02*
X86150000Y-74475000I150000J0D01*
G01*
X86450000Y-74475000D01*
G75*
G02*
X86600000Y-74625000I0J-150000D01*
G01*
X86600000Y-75650000D01*
G75*
G02*
X86450000Y-75800000I-150000J0D01*
G01*
G37*
G36*
G01*
X87400000Y-75800000D02*
X87100000Y-75800000D01*
G75*
G02*
X86950000Y-75650000I0J150000D01*
G01*
X86950000Y-74625000D01*
G75*
G02*
X87100000Y-74475000I150000J0D01*
G01*
X87400000Y-74475000D01*
G75*
G02*
X87550000Y-74625000I0J-150000D01*
G01*
X87550000Y-75650000D01*
G75*
G02*
X87400000Y-75800000I-150000J0D01*
G01*
G37*
G36*
G01*
X87400000Y-73525000D02*
X87100000Y-73525000D01*
G75*
G02*
X86950000Y-73375000I0J150000D01*
G01*
X86950000Y-72350000D01*
G75*
G02*
X87100000Y-72200000I150000J0D01*
G01*
X87400000Y-72200000D01*
G75*
G02*
X87550000Y-72350000I0J-150000D01*
G01*
X87550000Y-73375000D01*
G75*
G02*
X87400000Y-73525000I-150000J0D01*
G01*
G37*
G36*
G01*
X85500000Y-73525000D02*
X85200000Y-73525000D01*
G75*
G02*
X85050000Y-73375000I0J150000D01*
G01*
X85050000Y-72350000D01*
G75*
G02*
X85200000Y-72200000I150000J0D01*
G01*
X85500000Y-72200000D01*
G75*
G02*
X85650000Y-72350000I0J-150000D01*
G01*
X85650000Y-73375000D01*
G75*
G02*
X85500000Y-73525000I-150000J0D01*
G01*
G37*
G04 #@! TD*
G04 #@! TO.C,C54*
G36*
G01*
X105860000Y-81130000D02*
X105860000Y-81470000D01*
G75*
G02*
X105720000Y-81610000I-140000J0D01*
G01*
X105440000Y-81610000D01*
G75*
G02*
X105300000Y-81470000I0J140000D01*
G01*
X105300000Y-81130000D01*
G75*
G02*
X105440000Y-80990000I140000J0D01*
G01*
X105720000Y-80990000D01*
G75*
G02*
X105860000Y-81130000I0J-140000D01*
G01*
G37*
G36*
G01*
X104900000Y-81130000D02*
X104900000Y-81470000D01*
G75*
G02*
X104760000Y-81610000I-140000J0D01*
G01*
X104480000Y-81610000D01*
G75*
G02*
X104340000Y-81470000I0J140000D01*
G01*
X104340000Y-81130000D01*
G75*
G02*
X104480000Y-80990000I140000J0D01*
G01*
X104760000Y-80990000D01*
G75*
G02*
X104900000Y-81130000I0J-140000D01*
G01*
G37*
G04 #@! TD*
G04 #@! TO.C,FB3*
G36*
G01*
X92575000Y-87656250D02*
X92575000Y-87143750D01*
G75*
G02*
X92793750Y-86925000I218750J0D01*
G01*
X93231250Y-86925000D01*
G75*
G02*
X93450000Y-87143750I0J-218750D01*
G01*
X93450000Y-87656250D01*
G75*
G02*
X93231250Y-87875000I-218750J0D01*
G01*
X92793750Y-87875000D01*
G75*
G02*
X92575000Y-87656250I0J218750D01*
G01*
G37*
G36*
G01*
X94150000Y-87656250D02*
X94150000Y-87143750D01*
G75*
G02*
X94368750Y-86925000I218750J0D01*
G01*
X94806250Y-86925000D01*
G75*
G02*
X95025000Y-87143750I0J-218750D01*
G01*
X95025000Y-87656250D01*
G75*
G02*
X94806250Y-87875000I-218750J0D01*
G01*
X94368750Y-87875000D01*
G75*
G02*
X94150000Y-87656250I0J218750D01*
G01*
G37*
G04 #@! TD*
G04 #@! TO.C,R3*
G36*
G01*
X89015000Y-62720000D02*
X89385000Y-62720000D01*
G75*
G02*
X89520000Y-62855000I0J-135000D01*
G01*
X89520000Y-63125000D01*
G75*
G02*
X89385000Y-63260000I-135000J0D01*
G01*
X89015000Y-63260000D01*
G75*
G02*
X88880000Y-63125000I0J135000D01*
G01*
X88880000Y-62855000D01*
G75*
G02*
X89015000Y-62720000I135000J0D01*
G01*
G37*
G36*
G01*
X89015000Y-63740000D02*
X89385000Y-63740000D01*
G75*
G02*
X89520000Y-63875000I0J-135000D01*
G01*
X89520000Y-64145000D01*
G75*
G02*
X89385000Y-64280000I-135000J0D01*
G01*
X89015000Y-64280000D01*
G75*
G02*
X88880000Y-64145000I0J135000D01*
G01*
X88880000Y-63875000D01*
G75*
G02*
X89015000Y-63740000I135000J0D01*
G01*
G37*
G04 #@! TD*
G04 #@! TO.C,R1*
G36*
G01*
X100680000Y-84915000D02*
X100680000Y-85285000D01*
G75*
G02*
X100545000Y-85420000I-135000J0D01*
G01*
X100275000Y-85420000D01*
G75*
G02*
X100140000Y-85285000I0J135000D01*
G01*
X100140000Y-84915000D01*
G75*
G02*
X100275000Y-84780000I135000J0D01*
G01*
X100545000Y-84780000D01*
G75*
G02*
X100680000Y-84915000I0J-135000D01*
G01*
G37*
G36*
G01*
X99660000Y-84915000D02*
X99660000Y-85285000D01*
G75*
G02*
X99525000Y-85420000I-135000J0D01*
G01*
X99255000Y-85420000D01*
G75*
G02*
X99120000Y-85285000I0J135000D01*
G01*
X99120000Y-84915000D01*
G75*
G02*
X99255000Y-84780000I135000J0D01*
G01*
X99525000Y-84780000D01*
G75*
G02*
X99660000Y-84915000I0J-135000D01*
G01*
G37*
G04 #@! TD*
G04 #@! TO.C,C47*
G36*
G01*
X105830000Y-77040000D02*
X106170000Y-77040000D01*
G75*
G02*
X106310000Y-77180000I0J-140000D01*
G01*
X106310000Y-77460000D01*
G75*
G02*
X106170000Y-77600000I-140000J0D01*
G01*
X105830000Y-77600000D01*
G75*
G02*
X105690000Y-77460000I0J140000D01*
G01*
X105690000Y-77180000D01*
G75*
G02*
X105830000Y-77040000I140000J0D01*
G01*
G37*
G36*
G01*
X105830000Y-78000000D02*
X106170000Y-78000000D01*
G75*
G02*
X106310000Y-78140000I0J-140000D01*
G01*
X106310000Y-78420000D01*
G75*
G02*
X106170000Y-78560000I-140000J0D01*
G01*
X105830000Y-78560000D01*
G75*
G02*
X105690000Y-78420000I0J140000D01*
G01*
X105690000Y-78140000D01*
G75*
G02*
X105830000Y-78000000I140000J0D01*
G01*
G37*
G04 #@! TD*
G04 #@! TO.C,FL3*
X115150000Y-69010000D03*
X115650000Y-69010000D03*
X115650000Y-69490000D03*
X115150000Y-69490000D03*
G04 #@! TD*
G04 #@! TO.C,C64*
G36*
G01*
X108575000Y-83450000D02*
X108575000Y-82950000D01*
G75*
G02*
X108800000Y-82725000I225000J0D01*
G01*
X109250000Y-82725000D01*
G75*
G02*
X109475000Y-82950000I0J-225000D01*
G01*
X109475000Y-83450000D01*
G75*
G02*
X109250000Y-83675000I-225000J0D01*
G01*
X108800000Y-83675000D01*
G75*
G02*
X108575000Y-83450000I0J225000D01*
G01*
G37*
G36*
G01*
X110125000Y-83450000D02*
X110125000Y-82950000D01*
G75*
G02*
X110350000Y-82725000I225000J0D01*
G01*
X110800000Y-82725000D01*
G75*
G02*
X111025000Y-82950000I0J-225000D01*
G01*
X111025000Y-83450000D01*
G75*
G02*
X110800000Y-83675000I-225000J0D01*
G01*
X110350000Y-83675000D01*
G75*
G02*
X110125000Y-83450000I0J225000D01*
G01*
G37*
G04 #@! TD*
G04 #@! TO.C,C59*
G36*
G01*
X88675000Y-81950000D02*
X88675000Y-81450000D01*
G75*
G02*
X88900000Y-81225000I225000J0D01*
G01*
X89350000Y-81225000D01*
G75*
G02*
X89575000Y-81450000I0J-225000D01*
G01*
X89575000Y-81950000D01*
G75*
G02*
X89350000Y-82175000I-225000J0D01*
G01*
X88900000Y-82175000D01*
G75*
G02*
X88675000Y-81950000I0J225000D01*
G01*
G37*
G36*
G01*
X90225000Y-81950000D02*
X90225000Y-81450000D01*
G75*
G02*
X90450000Y-81225000I225000J0D01*
G01*
X90900000Y-81225000D01*
G75*
G02*
X91125000Y-81450000I0J-225000D01*
G01*
X91125000Y-81950000D01*
G75*
G02*
X90900000Y-82175000I-225000J0D01*
G01*
X90450000Y-82175000D01*
G75*
G02*
X90225000Y-81950000I0J225000D01*
G01*
G37*
G04 #@! TD*
G04 #@! TO.C,C55*
G36*
G01*
X115140000Y-53370000D02*
X115140000Y-53030000D01*
G75*
G02*
X115280000Y-52890000I140000J0D01*
G01*
X115560000Y-52890000D01*
G75*
G02*
X115700000Y-53030000I0J-140000D01*
G01*
X115700000Y-53370000D01*
G75*
G02*
X115560000Y-53510000I-140000J0D01*
G01*
X115280000Y-53510000D01*
G75*
G02*
X115140000Y-53370000I0J140000D01*
G01*
G37*
G36*
G01*
X116100000Y-53370000D02*
X116100000Y-53030000D01*
G75*
G02*
X116240000Y-52890000I140000J0D01*
G01*
X116520000Y-52890000D01*
G75*
G02*
X116660000Y-53030000I0J-140000D01*
G01*
X116660000Y-53370000D01*
G75*
G02*
X116520000Y-53510000I-140000J0D01*
G01*
X116240000Y-53510000D01*
G75*
G02*
X116100000Y-53370000I0J140000D01*
G01*
G37*
G04 #@! TD*
G04 #@! TO.C,C9*
G36*
G01*
X107540000Y-71570000D02*
X107540000Y-71230000D01*
G75*
G02*
X107680000Y-71090000I140000J0D01*
G01*
X107960000Y-71090000D01*
G75*
G02*
X108100000Y-71230000I0J-140000D01*
G01*
X108100000Y-71570000D01*
G75*
G02*
X107960000Y-71710000I-140000J0D01*
G01*
X107680000Y-71710000D01*
G75*
G02*
X107540000Y-71570000I0J140000D01*
G01*
G37*
G36*
G01*
X108500000Y-71570000D02*
X108500000Y-71230000D01*
G75*
G02*
X108640000Y-71090000I140000J0D01*
G01*
X108920000Y-71090000D01*
G75*
G02*
X109060000Y-71230000I0J-140000D01*
G01*
X109060000Y-71570000D01*
G75*
G02*
X108920000Y-71710000I-140000J0D01*
G01*
X108640000Y-71710000D01*
G75*
G02*
X108500000Y-71570000I0J140000D01*
G01*
G37*
G04 #@! TD*
G04 #@! TO.C,U1*
G36*
G01*
X97900000Y-82700000D02*
X98200000Y-82700000D01*
G75*
G02*
X98350000Y-82850000I0J-150000D01*
G01*
X98350000Y-83875000D01*
G75*
G02*
X98200000Y-84025000I-150000J0D01*
G01*
X97900000Y-84025000D01*
G75*
G02*
X97750000Y-83875000I0J150000D01*
G01*
X97750000Y-82850000D01*
G75*
G02*
X97900000Y-82700000I150000J0D01*
G01*
G37*
G36*
G01*
X96950000Y-82700000D02*
X97250000Y-82700000D01*
G75*
G02*
X97400000Y-82850000I0J-150000D01*
G01*
X97400000Y-83875000D01*
G75*
G02*
X97250000Y-84025000I-150000J0D01*
G01*
X96950000Y-84025000D01*
G75*
G02*
X96800000Y-83875000I0J150000D01*
G01*
X96800000Y-82850000D01*
G75*
G02*
X96950000Y-82700000I150000J0D01*
G01*
G37*
G36*
G01*
X96000000Y-82700000D02*
X96300000Y-82700000D01*
G75*
G02*
X96450000Y-82850000I0J-150000D01*
G01*
X96450000Y-83875000D01*
G75*
G02*
X96300000Y-84025000I-150000J0D01*
G01*
X96000000Y-84025000D01*
G75*
G02*
X95850000Y-83875000I0J150000D01*
G01*
X95850000Y-82850000D01*
G75*
G02*
X96000000Y-82700000I150000J0D01*
G01*
G37*
G36*
G01*
X96000000Y-84975000D02*
X96300000Y-84975000D01*
G75*
G02*
X96450000Y-85125000I0J-150000D01*
G01*
X96450000Y-86150000D01*
G75*
G02*
X96300000Y-86300000I-150000J0D01*
G01*
X96000000Y-86300000D01*
G75*
G02*
X95850000Y-86150000I0J150000D01*
G01*
X95850000Y-85125000D01*
G75*
G02*
X96000000Y-84975000I150000J0D01*
G01*
G37*
G36*
G01*
X97900000Y-84975000D02*
X98200000Y-84975000D01*
G75*
G02*
X98350000Y-85125000I0J-150000D01*
G01*
X98350000Y-86150000D01*
G75*
G02*
X98200000Y-86300000I-150000J0D01*
G01*
X97900000Y-86300000D01*
G75*
G02*
X97750000Y-86150000I0J150000D01*
G01*
X97750000Y-85125000D01*
G75*
G02*
X97900000Y-84975000I150000J0D01*
G01*
G37*
G04 #@! TD*
G04 #@! TO.C,C20*
G36*
G01*
X95460000Y-74030000D02*
X95460000Y-74370000D01*
G75*
G02*
X95320000Y-74510000I-140000J0D01*
G01*
X95040000Y-74510000D01*
G75*
G02*
X94900000Y-74370000I0J140000D01*
G01*
X94900000Y-74030000D01*
G75*
G02*
X95040000Y-73890000I140000J0D01*
G01*
X95320000Y-73890000D01*
G75*
G02*
X95460000Y-74030000I0J-140000D01*
G01*
G37*
G36*
G01*
X94500000Y-74030000D02*
X94500000Y-74370000D01*
G75*
G02*
X94360000Y-74510000I-140000J0D01*
G01*
X94080000Y-74510000D01*
G75*
G02*
X93940000Y-74370000I0J140000D01*
G01*
X93940000Y-74030000D01*
G75*
G02*
X94080000Y-73890000I140000J0D01*
G01*
X94360000Y-73890000D01*
G75*
G02*
X94500000Y-74030000I0J-140000D01*
G01*
G37*
G04 #@! TD*
G04 #@! TO.C,R11*
G36*
G01*
X107320000Y-81485000D02*
X107320000Y-81115000D01*
G75*
G02*
X107455000Y-80980000I135000J0D01*
G01*
X107725000Y-80980000D01*
G75*
G02*
X107860000Y-81115000I0J-135000D01*
G01*
X107860000Y-81485000D01*
G75*
G02*
X107725000Y-81620000I-135000J0D01*
G01*
X107455000Y-81620000D01*
G75*
G02*
X107320000Y-81485000I0J135000D01*
G01*
G37*
G36*
G01*
X108340000Y-81485000D02*
X108340000Y-81115000D01*
G75*
G02*
X108475000Y-80980000I135000J0D01*
G01*
X108745000Y-80980000D01*
G75*
G02*
X108880000Y-81115000I0J-135000D01*
G01*
X108880000Y-81485000D01*
G75*
G02*
X108745000Y-81620000I-135000J0D01*
G01*
X108475000Y-81620000D01*
G75*
G02*
X108340000Y-81485000I0J135000D01*
G01*
G37*
G04 #@! TD*
G04 #@! TO.C,R6*
G36*
G01*
X90685000Y-85280000D02*
X90315000Y-85280000D01*
G75*
G02*
X90180000Y-85145000I0J135000D01*
G01*
X90180000Y-84875000D01*
G75*
G02*
X90315000Y-84740000I135000J0D01*
G01*
X90685000Y-84740000D01*
G75*
G02*
X90820000Y-84875000I0J-135000D01*
G01*
X90820000Y-85145000D01*
G75*
G02*
X90685000Y-85280000I-135000J0D01*
G01*
G37*
G36*
G01*
X90685000Y-84260000D02*
X90315000Y-84260000D01*
G75*
G02*
X90180000Y-84125000I0J135000D01*
G01*
X90180000Y-83855000D01*
G75*
G02*
X90315000Y-83720000I135000J0D01*
G01*
X90685000Y-83720000D01*
G75*
G02*
X90820000Y-83855000I0J-135000D01*
G01*
X90820000Y-84125000D01*
G75*
G02*
X90685000Y-84260000I-135000J0D01*
G01*
G37*
G04 #@! TD*
G04 #@! TO.C,C29*
G36*
G01*
X96280000Y-77040000D02*
X96620000Y-77040000D01*
G75*
G02*
X96760000Y-77180000I0J-140000D01*
G01*
X96760000Y-77460000D01*
G75*
G02*
X96620000Y-77600000I-140000J0D01*
G01*
X96280000Y-77600000D01*
G75*
G02*
X96140000Y-77460000I0J140000D01*
G01*
X96140000Y-77180000D01*
G75*
G02*
X96280000Y-77040000I140000J0D01*
G01*
G37*
G36*
G01*
X96280000Y-78000000D02*
X96620000Y-78000000D01*
G75*
G02*
X96760000Y-78140000I0J-140000D01*
G01*
X96760000Y-78420000D01*
G75*
G02*
X96620000Y-78560000I-140000J0D01*
G01*
X96280000Y-78560000D01*
G75*
G02*
X96140000Y-78420000I0J140000D01*
G01*
X96140000Y-78140000D01*
G75*
G02*
X96280000Y-78000000I140000J0D01*
G01*
G37*
G04 #@! TD*
G04 #@! TO.C,R5*
G36*
G01*
X89385000Y-58480000D02*
X89015000Y-58480000D01*
G75*
G02*
X88880000Y-58345000I0J135000D01*
G01*
X88880000Y-58075000D01*
G75*
G02*
X89015000Y-57940000I135000J0D01*
G01*
X89385000Y-57940000D01*
G75*
G02*
X89520000Y-58075000I0J-135000D01*
G01*
X89520000Y-58345000D01*
G75*
G02*
X89385000Y-58480000I-135000J0D01*
G01*
G37*
G36*
G01*
X89385000Y-57460000D02*
X89015000Y-57460000D01*
G75*
G02*
X88880000Y-57325000I0J135000D01*
G01*
X88880000Y-57055000D01*
G75*
G02*
X89015000Y-56920000I135000J0D01*
G01*
X89385000Y-56920000D01*
G75*
G02*
X89520000Y-57055000I0J-135000D01*
G01*
X89520000Y-57325000D01*
G75*
G02*
X89385000Y-57460000I-135000J0D01*
G01*
G37*
G04 #@! TD*
G04 #@! TO.C,R9*
G36*
G01*
X93970000Y-64985000D02*
X93970000Y-64615000D01*
G75*
G02*
X94105000Y-64480000I135000J0D01*
G01*
X94375000Y-64480000D01*
G75*
G02*
X94510000Y-64615000I0J-135000D01*
G01*
X94510000Y-64985000D01*
G75*
G02*
X94375000Y-65120000I-135000J0D01*
G01*
X94105000Y-65120000D01*
G75*
G02*
X93970000Y-64985000I0J135000D01*
G01*
G37*
G36*
G01*
X94990000Y-64985000D02*
X94990000Y-64615000D01*
G75*
G02*
X95125000Y-64480000I135000J0D01*
G01*
X95395000Y-64480000D01*
G75*
G02*
X95530000Y-64615000I0J-135000D01*
G01*
X95530000Y-64985000D01*
G75*
G02*
X95395000Y-65120000I-135000J0D01*
G01*
X95125000Y-65120000D01*
G75*
G02*
X94990000Y-64985000I0J135000D01*
G01*
G37*
G04 #@! TD*
G04 #@! TO.C,R2*
G36*
G01*
X99120000Y-86285000D02*
X99120000Y-85915000D01*
G75*
G02*
X99255000Y-85780000I135000J0D01*
G01*
X99525000Y-85780000D01*
G75*
G02*
X99660000Y-85915000I0J-135000D01*
G01*
X99660000Y-86285000D01*
G75*
G02*
X99525000Y-86420000I-135000J0D01*
G01*
X99255000Y-86420000D01*
G75*
G02*
X99120000Y-86285000I0J135000D01*
G01*
G37*
G36*
G01*
X100140000Y-86285000D02*
X100140000Y-85915000D01*
G75*
G02*
X100275000Y-85780000I135000J0D01*
G01*
X100545000Y-85780000D01*
G75*
G02*
X100680000Y-85915000I0J-135000D01*
G01*
X100680000Y-86285000D01*
G75*
G02*
X100545000Y-86420000I-135000J0D01*
G01*
X100275000Y-86420000D01*
G75*
G02*
X100140000Y-86285000I0J135000D01*
G01*
G37*
G04 #@! TD*
G04 #@! TO.C,C50*
G36*
G01*
X91850000Y-72375000D02*
X92350000Y-72375000D01*
G75*
G02*
X92575000Y-72600000I0J-225000D01*
G01*
X92575000Y-73050000D01*
G75*
G02*
X92350000Y-73275000I-225000J0D01*
G01*
X91850000Y-73275000D01*
G75*
G02*
X91625000Y-73050000I0J225000D01*
G01*
X91625000Y-72600000D01*
G75*
G02*
X91850000Y-72375000I225000J0D01*
G01*
G37*
G36*
G01*
X91850000Y-73925000D02*
X92350000Y-73925000D01*
G75*
G02*
X92575000Y-74150000I0J-225000D01*
G01*
X92575000Y-74600000D01*
G75*
G02*
X92350000Y-74825000I-225000J0D01*
G01*
X91850000Y-74825000D01*
G75*
G02*
X91625000Y-74600000I0J225000D01*
G01*
X91625000Y-74150000D01*
G75*
G02*
X91850000Y-73925000I225000J0D01*
G01*
G37*
G04 #@! TD*
G04 #@! TO.C,C61*
G36*
G01*
X86230000Y-83240000D02*
X86570000Y-83240000D01*
G75*
G02*
X86710000Y-83380000I0J-140000D01*
G01*
X86710000Y-83660000D01*
G75*
G02*
X86570000Y-83800000I-140000J0D01*
G01*
X86230000Y-83800000D01*
G75*
G02*
X86090000Y-83660000I0J140000D01*
G01*
X86090000Y-83380000D01*
G75*
G02*
X86230000Y-83240000I140000J0D01*
G01*
G37*
G36*
G01*
X86230000Y-84200000D02*
X86570000Y-84200000D01*
G75*
G02*
X86710000Y-84340000I0J-140000D01*
G01*
X86710000Y-84620000D01*
G75*
G02*
X86570000Y-84760000I-140000J0D01*
G01*
X86230000Y-84760000D01*
G75*
G02*
X86090000Y-84620000I0J140000D01*
G01*
X86090000Y-84340000D01*
G75*
G02*
X86230000Y-84200000I140000J0D01*
G01*
G37*
G04 #@! TD*
G04 #@! TO.C,J5*
G36*
G01*
X91750000Y-56250000D02*
X91250000Y-56250000D01*
G75*
G02*
X91000000Y-56000000I0J250000D01*
G01*
X91000000Y-55450000D01*
G75*
G02*
X91250000Y-55200000I250000J0D01*
G01*
X91750000Y-55200000D01*
G75*
G02*
X92000000Y-55450000I0J-250000D01*
G01*
X92000000Y-56000000D01*
G75*
G02*
X91750000Y-56250000I-250000J0D01*
G01*
G37*
G36*
G01*
X90300000Y-55300000D02*
X89750000Y-55300000D01*
G75*
G02*
X89500000Y-55050000I0J250000D01*
G01*
X89500000Y-53350000D01*
G75*
G02*
X89750000Y-53100000I250000J0D01*
G01*
X90300000Y-53100000D01*
G75*
G02*
X90550000Y-53350000I0J-250000D01*
G01*
X90550000Y-55050000D01*
G75*
G02*
X90300000Y-55300000I-250000J0D01*
G01*
G37*
G36*
G01*
X93250000Y-55300000D02*
X92700000Y-55300000D01*
G75*
G02*
X92450000Y-55050000I0J250000D01*
G01*
X92450000Y-53350000D01*
G75*
G02*
X92700000Y-53100000I250000J0D01*
G01*
X93250000Y-53100000D01*
G75*
G02*
X93500000Y-53350000I0J-250000D01*
G01*
X93500000Y-55050000D01*
G75*
G02*
X93250000Y-55300000I-250000J0D01*
G01*
G37*
G04 #@! TD*
G04 #@! TO.C,C6*
G36*
G01*
X98930000Y-66540000D02*
X99270000Y-66540000D01*
G75*
G02*
X99410000Y-66680000I0J-140000D01*
G01*
X99410000Y-66960000D01*
G75*
G02*
X99270000Y-67100000I-140000J0D01*
G01*
X98930000Y-67100000D01*
G75*
G02*
X98790000Y-66960000I0J140000D01*
G01*
X98790000Y-66680000D01*
G75*
G02*
X98930000Y-66540000I140000J0D01*
G01*
G37*
G36*
G01*
X98930000Y-67500000D02*
X99270000Y-67500000D01*
G75*
G02*
X99410000Y-67640000I0J-140000D01*
G01*
X99410000Y-67920000D01*
G75*
G02*
X99270000Y-68060000I-140000J0D01*
G01*
X98930000Y-68060000D01*
G75*
G02*
X98790000Y-67920000I0J140000D01*
G01*
X98790000Y-67640000D01*
G75*
G02*
X98930000Y-67500000I140000J0D01*
G01*
G37*
G04 #@! TD*
G04 #@! TO.C,R14*
G36*
G01*
X84215000Y-83220000D02*
X84585000Y-83220000D01*
G75*
G02*
X84720000Y-83355000I0J-135000D01*
G01*
X84720000Y-83625000D01*
G75*
G02*
X84585000Y-83760000I-135000J0D01*
G01*
X84215000Y-83760000D01*
G75*
G02*
X84080000Y-83625000I0J135000D01*
G01*
X84080000Y-83355000D01*
G75*
G02*
X84215000Y-83220000I135000J0D01*
G01*
G37*
G36*
G01*
X84215000Y-84240000D02*
X84585000Y-84240000D01*
G75*
G02*
X84720000Y-84375000I0J-135000D01*
G01*
X84720000Y-84645000D01*
G75*
G02*
X84585000Y-84780000I-135000J0D01*
G01*
X84215000Y-84780000D01*
G75*
G02*
X84080000Y-84645000I0J135000D01*
G01*
X84080000Y-84375000D01*
G75*
G02*
X84215000Y-84240000I135000J0D01*
G01*
G37*
G04 #@! TD*
G04 #@! TO.C,C60*
G36*
G01*
X85575000Y-80450000D02*
X85575000Y-79950000D01*
G75*
G02*
X85800000Y-79725000I225000J0D01*
G01*
X86250000Y-79725000D01*
G75*
G02*
X86475000Y-79950000I0J-225000D01*
G01*
X86475000Y-80450000D01*
G75*
G02*
X86250000Y-80675000I-225000J0D01*
G01*
X85800000Y-80675000D01*
G75*
G02*
X85575000Y-80450000I0J225000D01*
G01*
G37*
G36*
G01*
X87125000Y-80450000D02*
X87125000Y-79950000D01*
G75*
G02*
X87350000Y-79725000I225000J0D01*
G01*
X87800000Y-79725000D01*
G75*
G02*
X88025000Y-79950000I0J-225000D01*
G01*
X88025000Y-80450000D01*
G75*
G02*
X87800000Y-80675000I-225000J0D01*
G01*
X87350000Y-80675000D01*
G75*
G02*
X87125000Y-80450000I0J225000D01*
G01*
G37*
G04 #@! TD*
G04 #@! TO.C,C65*
G36*
G01*
X114060000Y-56730000D02*
X114060000Y-57070000D01*
G75*
G02*
X113920000Y-57210000I-140000J0D01*
G01*
X113640000Y-57210000D01*
G75*
G02*
X113500000Y-57070000I0J140000D01*
G01*
X113500000Y-56730000D01*
G75*
G02*
X113640000Y-56590000I140000J0D01*
G01*
X113920000Y-56590000D01*
G75*
G02*
X114060000Y-56730000I0J-140000D01*
G01*
G37*
G36*
G01*
X113100000Y-56730000D02*
X113100000Y-57070000D01*
G75*
G02*
X112960000Y-57210000I-140000J0D01*
G01*
X112680000Y-57210000D01*
G75*
G02*
X112540000Y-57070000I0J140000D01*
G01*
X112540000Y-56730000D01*
G75*
G02*
X112680000Y-56590000I140000J0D01*
G01*
X112960000Y-56590000D01*
G75*
G02*
X113100000Y-56730000I0J-140000D01*
G01*
G37*
G04 #@! TD*
G04 #@! TO.C,U7*
G36*
G01*
X107525000Y-82100000D02*
X107725000Y-82100000D01*
G75*
G02*
X107825000Y-82200000I0J-100000D01*
G01*
X107825000Y-83475000D01*
G75*
G02*
X107725000Y-83575000I-100000J0D01*
G01*
X107525000Y-83575000D01*
G75*
G02*
X107425000Y-83475000I0J100000D01*
G01*
X107425000Y-82200000D01*
G75*
G02*
X107525000Y-82100000I100000J0D01*
G01*
G37*
G36*
G01*
X106875000Y-82100000D02*
X107075000Y-82100000D01*
G75*
G02*
X107175000Y-82200000I0J-100000D01*
G01*
X107175000Y-83475000D01*
G75*
G02*
X107075000Y-83575000I-100000J0D01*
G01*
X106875000Y-83575000D01*
G75*
G02*
X106775000Y-83475000I0J100000D01*
G01*
X106775000Y-82200000D01*
G75*
G02*
X106875000Y-82100000I100000J0D01*
G01*
G37*
G36*
G01*
X106225000Y-82100000D02*
X106425000Y-82100000D01*
G75*
G02*
X106525000Y-82200000I0J-100000D01*
G01*
X106525000Y-83475000D01*
G75*
G02*
X106425000Y-83575000I-100000J0D01*
G01*
X106225000Y-83575000D01*
G75*
G02*
X106125000Y-83475000I0J100000D01*
G01*
X106125000Y-82200000D01*
G75*
G02*
X106225000Y-82100000I100000J0D01*
G01*
G37*
G36*
G01*
X105575000Y-82100000D02*
X105775000Y-82100000D01*
G75*
G02*
X105875000Y-82200000I0J-100000D01*
G01*
X105875000Y-83475000D01*
G75*
G02*
X105775000Y-83575000I-100000J0D01*
G01*
X105575000Y-83575000D01*
G75*
G02*
X105475000Y-83475000I0J100000D01*
G01*
X105475000Y-82200000D01*
G75*
G02*
X105575000Y-82100000I100000J0D01*
G01*
G37*
G36*
G01*
X104925000Y-82100000D02*
X105125000Y-82100000D01*
G75*
G02*
X105225000Y-82200000I0J-100000D01*
G01*
X105225000Y-83475000D01*
G75*
G02*
X105125000Y-83575000I-100000J0D01*
G01*
X104925000Y-83575000D01*
G75*
G02*
X104825000Y-83475000I0J100000D01*
G01*
X104825000Y-82200000D01*
G75*
G02*
X104925000Y-82100000I100000J0D01*
G01*
G37*
G36*
G01*
X104275000Y-82100000D02*
X104475000Y-82100000D01*
G75*
G02*
X104575000Y-82200000I0J-100000D01*
G01*
X104575000Y-83475000D01*
G75*
G02*
X104475000Y-83575000I-100000J0D01*
G01*
X104275000Y-83575000D01*
G75*
G02*
X104175000Y-83475000I0J100000D01*
G01*
X104175000Y-82200000D01*
G75*
G02*
X104275000Y-82100000I100000J0D01*
G01*
G37*
G36*
G01*
X103625000Y-82100000D02*
X103825000Y-82100000D01*
G75*
G02*
X103925000Y-82200000I0J-100000D01*
G01*
X103925000Y-83475000D01*
G75*
G02*
X103825000Y-83575000I-100000J0D01*
G01*
X103625000Y-83575000D01*
G75*
G02*
X103525000Y-83475000I0J100000D01*
G01*
X103525000Y-82200000D01*
G75*
G02*
X103625000Y-82100000I100000J0D01*
G01*
G37*
G36*
G01*
X102975000Y-82100000D02*
X103175000Y-82100000D01*
G75*
G02*
X103275000Y-82200000I0J-100000D01*
G01*
X103275000Y-83475000D01*
G75*
G02*
X103175000Y-83575000I-100000J0D01*
G01*
X102975000Y-83575000D01*
G75*
G02*
X102875000Y-83475000I0J100000D01*
G01*
X102875000Y-82200000D01*
G75*
G02*
X102975000Y-82100000I100000J0D01*
G01*
G37*
G36*
G01*
X102325000Y-82100000D02*
X102525000Y-82100000D01*
G75*
G02*
X102625000Y-82200000I0J-100000D01*
G01*
X102625000Y-83475000D01*
G75*
G02*
X102525000Y-83575000I-100000J0D01*
G01*
X102325000Y-83575000D01*
G75*
G02*
X102225000Y-83475000I0J100000D01*
G01*
X102225000Y-82200000D01*
G75*
G02*
X102325000Y-82100000I100000J0D01*
G01*
G37*
G36*
G01*
X101675000Y-82100000D02*
X101875000Y-82100000D01*
G75*
G02*
X101975000Y-82200000I0J-100000D01*
G01*
X101975000Y-83475000D01*
G75*
G02*
X101875000Y-83575000I-100000J0D01*
G01*
X101675000Y-83575000D01*
G75*
G02*
X101575000Y-83475000I0J100000D01*
G01*
X101575000Y-82200000D01*
G75*
G02*
X101675000Y-82100000I100000J0D01*
G01*
G37*
G36*
G01*
X101675000Y-87825000D02*
X101875000Y-87825000D01*
G75*
G02*
X101975000Y-87925000I0J-100000D01*
G01*
X101975000Y-89200000D01*
G75*
G02*
X101875000Y-89300000I-100000J0D01*
G01*
X101675000Y-89300000D01*
G75*
G02*
X101575000Y-89200000I0J100000D01*
G01*
X101575000Y-87925000D01*
G75*
G02*
X101675000Y-87825000I100000J0D01*
G01*
G37*
G36*
G01*
X102325000Y-87825000D02*
X102525000Y-87825000D01*
G75*
G02*
X102625000Y-87925000I0J-100000D01*
G01*
X102625000Y-89200000D01*
G75*
G02*
X102525000Y-89300000I-100000J0D01*
G01*
X102325000Y-89300000D01*
G75*
G02*
X102225000Y-89200000I0J100000D01*
G01*
X102225000Y-87925000D01*
G75*
G02*
X102325000Y-87825000I100000J0D01*
G01*
G37*
G36*
G01*
X102975000Y-87825000D02*
X103175000Y-87825000D01*
G75*
G02*
X103275000Y-87925000I0J-100000D01*
G01*
X103275000Y-89200000D01*
G75*
G02*
X103175000Y-89300000I-100000J0D01*
G01*
X102975000Y-89300000D01*
G75*
G02*
X102875000Y-89200000I0J100000D01*
G01*
X102875000Y-87925000D01*
G75*
G02*
X102975000Y-87825000I100000J0D01*
G01*
G37*
G36*
G01*
X103625000Y-87825000D02*
X103825000Y-87825000D01*
G75*
G02*
X103925000Y-87925000I0J-100000D01*
G01*
X103925000Y-89200000D01*
G75*
G02*
X103825000Y-89300000I-100000J0D01*
G01*
X103625000Y-89300000D01*
G75*
G02*
X103525000Y-89200000I0J100000D01*
G01*
X103525000Y-87925000D01*
G75*
G02*
X103625000Y-87825000I100000J0D01*
G01*
G37*
G36*
G01*
X104275000Y-87825000D02*
X104475000Y-87825000D01*
G75*
G02*
X104575000Y-87925000I0J-100000D01*
G01*
X104575000Y-89200000D01*
G75*
G02*
X104475000Y-89300000I-100000J0D01*
G01*
X104275000Y-89300000D01*
G75*
G02*
X104175000Y-89200000I0J100000D01*
G01*
X104175000Y-87925000D01*
G75*
G02*
X104275000Y-87825000I100000J0D01*
G01*
G37*
G36*
G01*
X104925000Y-87825000D02*
X105125000Y-87825000D01*
G75*
G02*
X105225000Y-87925000I0J-100000D01*
G01*
X105225000Y-89200000D01*
G75*
G02*
X105125000Y-89300000I-100000J0D01*
G01*
X104925000Y-89300000D01*
G75*
G02*
X104825000Y-89200000I0J100000D01*
G01*
X104825000Y-87925000D01*
G75*
G02*
X104925000Y-87825000I100000J0D01*
G01*
G37*
G36*
G01*
X105575000Y-87825000D02*
X105775000Y-87825000D01*
G75*
G02*
X105875000Y-87925000I0J-100000D01*
G01*
X105875000Y-89200000D01*
G75*
G02*
X105775000Y-89300000I-100000J0D01*
G01*
X105575000Y-89300000D01*
G75*
G02*
X105475000Y-89200000I0J100000D01*
G01*
X105475000Y-87925000D01*
G75*
G02*
X105575000Y-87825000I100000J0D01*
G01*
G37*
G36*
G01*
X106225000Y-87825000D02*
X106425000Y-87825000D01*
G75*
G02*
X106525000Y-87925000I0J-100000D01*
G01*
X106525000Y-89200000D01*
G75*
G02*
X106425000Y-89300000I-100000J0D01*
G01*
X106225000Y-89300000D01*
G75*
G02*
X106125000Y-89200000I0J100000D01*
G01*
X106125000Y-87925000D01*
G75*
G02*
X106225000Y-87825000I100000J0D01*
G01*
G37*
G36*
G01*
X106875000Y-87825000D02*
X107075000Y-87825000D01*
G75*
G02*
X107175000Y-87925000I0J-100000D01*
G01*
X107175000Y-89200000D01*
G75*
G02*
X107075000Y-89300000I-100000J0D01*
G01*
X106875000Y-89300000D01*
G75*
G02*
X106775000Y-89200000I0J100000D01*
G01*
X106775000Y-87925000D01*
G75*
G02*
X106875000Y-87825000I100000J0D01*
G01*
G37*
G36*
G01*
X107525000Y-87825000D02*
X107725000Y-87825000D01*
G75*
G02*
X107825000Y-87925000I0J-100000D01*
G01*
X107825000Y-89200000D01*
G75*
G02*
X107725000Y-89300000I-100000J0D01*
G01*
X107525000Y-89300000D01*
G75*
G02*
X107425000Y-89200000I0J100000D01*
G01*
X107425000Y-87925000D01*
G75*
G02*
X107525000Y-87825000I100000J0D01*
G01*
G37*
G04 #@! TD*
G04 #@! TO.C,C28*
G36*
G01*
X96860000Y-70880000D02*
X96860000Y-71220000D01*
G75*
G02*
X96720000Y-71360000I-140000J0D01*
G01*
X96440000Y-71360000D01*
G75*
G02*
X96300000Y-71220000I0J140000D01*
G01*
X96300000Y-70880000D01*
G75*
G02*
X96440000Y-70740000I140000J0D01*
G01*
X96720000Y-70740000D01*
G75*
G02*
X96860000Y-70880000I0J-140000D01*
G01*
G37*
G36*
G01*
X95900000Y-70880000D02*
X95900000Y-71220000D01*
G75*
G02*
X95760000Y-71360000I-140000J0D01*
G01*
X95480000Y-71360000D01*
G75*
G02*
X95340000Y-71220000I0J140000D01*
G01*
X95340000Y-70880000D01*
G75*
G02*
X95480000Y-70740000I140000J0D01*
G01*
X95760000Y-70740000D01*
G75*
G02*
X95900000Y-70880000I0J-140000D01*
G01*
G37*
G04 #@! TD*
G04 #@! TO.C,C56*
G36*
G01*
X115640000Y-58970000D02*
X115640000Y-58630000D01*
G75*
G02*
X115780000Y-58490000I140000J0D01*
G01*
X116060000Y-58490000D01*
G75*
G02*
X116200000Y-58630000I0J-140000D01*
G01*
X116200000Y-58970000D01*
G75*
G02*
X116060000Y-59110000I-140000J0D01*
G01*
X115780000Y-59110000D01*
G75*
G02*
X115640000Y-58970000I0J140000D01*
G01*
G37*
G36*
G01*
X116600000Y-58970000D02*
X116600000Y-58630000D01*
G75*
G02*
X116740000Y-58490000I140000J0D01*
G01*
X117020000Y-58490000D01*
G75*
G02*
X117160000Y-58630000I0J-140000D01*
G01*
X117160000Y-58970000D01*
G75*
G02*
X117020000Y-59110000I-140000J0D01*
G01*
X116740000Y-59110000D01*
G75*
G02*
X116600000Y-58970000I0J140000D01*
G01*
G37*
G04 #@! TD*
G04 #@! TO.C,L1*
G36*
G01*
X94781250Y-84100000D02*
X94018750Y-84100000D01*
G75*
G02*
X93800000Y-83881250I0J218750D01*
G01*
X93800000Y-83443750D01*
G75*
G02*
X94018750Y-83225000I218750J0D01*
G01*
X94781250Y-83225000D01*
G75*
G02*
X95000000Y-83443750I0J-218750D01*
G01*
X95000000Y-83881250D01*
G75*
G02*
X94781250Y-84100000I-218750J0D01*
G01*
G37*
G36*
G01*
X94781250Y-81975000D02*
X94018750Y-81975000D01*
G75*
G02*
X93800000Y-81756250I0J218750D01*
G01*
X93800000Y-81318750D01*
G75*
G02*
X94018750Y-81100000I218750J0D01*
G01*
X94781250Y-81100000D01*
G75*
G02*
X95000000Y-81318750I0J-218750D01*
G01*
X95000000Y-81756250D01*
G75*
G02*
X94781250Y-81975000I-218750J0D01*
G01*
G37*
G04 #@! TD*
G04 #@! TO.C,C51*
G36*
G01*
X110630000Y-79740000D02*
X110970000Y-79740000D01*
G75*
G02*
X111110000Y-79880000I0J-140000D01*
G01*
X111110000Y-80160000D01*
G75*
G02*
X110970000Y-80300000I-140000J0D01*
G01*
X110630000Y-80300000D01*
G75*
G02*
X110490000Y-80160000I0J140000D01*
G01*
X110490000Y-79880000D01*
G75*
G02*
X110630000Y-79740000I140000J0D01*
G01*
G37*
G36*
G01*
X110630000Y-80700000D02*
X110970000Y-80700000D01*
G75*
G02*
X111110000Y-80840000I0J-140000D01*
G01*
X111110000Y-81120000D01*
G75*
G02*
X110970000Y-81260000I-140000J0D01*
G01*
X110630000Y-81260000D01*
G75*
G02*
X110490000Y-81120000I0J140000D01*
G01*
X110490000Y-80840000D01*
G75*
G02*
X110630000Y-80700000I140000J0D01*
G01*
G37*
G04 #@! TD*
G04 #@! TO.C,C49*
G36*
G01*
X89560000Y-76930000D02*
X89560000Y-77270000D01*
G75*
G02*
X89420000Y-77410000I-140000J0D01*
G01*
X89140000Y-77410000D01*
G75*
G02*
X89000000Y-77270000I0J140000D01*
G01*
X89000000Y-76930000D01*
G75*
G02*
X89140000Y-76790000I140000J0D01*
G01*
X89420000Y-76790000D01*
G75*
G02*
X89560000Y-76930000I0J-140000D01*
G01*
G37*
G36*
G01*
X88600000Y-76930000D02*
X88600000Y-77270000D01*
G75*
G02*
X88460000Y-77410000I-140000J0D01*
G01*
X88180000Y-77410000D01*
G75*
G02*
X88040000Y-77270000I0J140000D01*
G01*
X88040000Y-76930000D01*
G75*
G02*
X88180000Y-76790000I140000J0D01*
G01*
X88460000Y-76790000D01*
G75*
G02*
X88600000Y-76930000I0J-140000D01*
G01*
G37*
G04 #@! TD*
D13*
G04 #@! TO.C,U8*
X112300000Y-81000000D03*
X113100000Y-81000000D03*
D14*
X111950000Y-81950000D03*
X112450000Y-81950000D03*
X112950000Y-81950000D03*
X113450000Y-81950000D03*
X113450000Y-80050000D03*
X112950000Y-80050000D03*
X112450000Y-80050000D03*
X111950000Y-80050000D03*
G04 #@! TD*
D15*
G04 #@! TO.C,U5*
X105025000Y-58225000D03*
X103375000Y-58225000D03*
X103375000Y-59775000D03*
X105025000Y-59775000D03*
G04 #@! TD*
G04 #@! TO.C,C24*
G36*
G01*
X95675000Y-87650000D02*
X95675000Y-87150000D01*
G75*
G02*
X95900000Y-86925000I225000J0D01*
G01*
X96350000Y-86925000D01*
G75*
G02*
X96575000Y-87150000I0J-225000D01*
G01*
X96575000Y-87650000D01*
G75*
G02*
X96350000Y-87875000I-225000J0D01*
G01*
X95900000Y-87875000D01*
G75*
G02*
X95675000Y-87650000I0J225000D01*
G01*
G37*
G36*
G01*
X97225000Y-87650000D02*
X97225000Y-87150000D01*
G75*
G02*
X97450000Y-86925000I225000J0D01*
G01*
X97900000Y-86925000D01*
G75*
G02*
X98125000Y-87150000I0J-225000D01*
G01*
X98125000Y-87650000D01*
G75*
G02*
X97900000Y-87875000I-225000J0D01*
G01*
X97450000Y-87875000D01*
G75*
G02*
X97225000Y-87650000I0J225000D01*
G01*
G37*
G04 #@! TD*
D16*
G04 #@! TO.C,U6*
X103274999Y-77450001D03*
X103274999Y-76800000D03*
X103274999Y-76150001D03*
X101325001Y-76150001D03*
X101325001Y-76800000D03*
X101325001Y-77450001D03*
G04 #@! TD*
G04 #@! TO.C,C5*
G36*
G01*
X107540000Y-72520000D02*
X107540000Y-72180000D01*
G75*
G02*
X107680000Y-72040000I140000J0D01*
G01*
X107960000Y-72040000D01*
G75*
G02*
X108100000Y-72180000I0J-140000D01*
G01*
X108100000Y-72520000D01*
G75*
G02*
X107960000Y-72660000I-140000J0D01*
G01*
X107680000Y-72660000D01*
G75*
G02*
X107540000Y-72520000I0J140000D01*
G01*
G37*
G36*
G01*
X108500000Y-72520000D02*
X108500000Y-72180000D01*
G75*
G02*
X108640000Y-72040000I140000J0D01*
G01*
X108920000Y-72040000D01*
G75*
G02*
X109060000Y-72180000I0J-140000D01*
G01*
X109060000Y-72520000D01*
G75*
G02*
X108920000Y-72660000I-140000J0D01*
G01*
X108640000Y-72660000D01*
G75*
G02*
X108500000Y-72520000I0J140000D01*
G01*
G37*
G04 #@! TD*
G04 #@! TO.C,C18*
G36*
G01*
X109770000Y-75860000D02*
X109430000Y-75860000D01*
G75*
G02*
X109290000Y-75720000I0J140000D01*
G01*
X109290000Y-75440000D01*
G75*
G02*
X109430000Y-75300000I140000J0D01*
G01*
X109770000Y-75300000D01*
G75*
G02*
X109910000Y-75440000I0J-140000D01*
G01*
X109910000Y-75720000D01*
G75*
G02*
X109770000Y-75860000I-140000J0D01*
G01*
G37*
G36*
G01*
X109770000Y-74900000D02*
X109430000Y-74900000D01*
G75*
G02*
X109290000Y-74760000I0J140000D01*
G01*
X109290000Y-74480000D01*
G75*
G02*
X109430000Y-74340000I140000J0D01*
G01*
X109770000Y-74340000D01*
G75*
G02*
X109910000Y-74480000I0J-140000D01*
G01*
X109910000Y-74760000D01*
G75*
G02*
X109770000Y-74900000I-140000J0D01*
G01*
G37*
G04 #@! TD*
G04 #@! TO.C,R4*
G36*
G01*
X89385000Y-61380000D02*
X89015000Y-61380000D01*
G75*
G02*
X88880000Y-61245000I0J135000D01*
G01*
X88880000Y-60975000D01*
G75*
G02*
X89015000Y-60840000I135000J0D01*
G01*
X89385000Y-60840000D01*
G75*
G02*
X89520000Y-60975000I0J-135000D01*
G01*
X89520000Y-61245000D01*
G75*
G02*
X89385000Y-61380000I-135000J0D01*
G01*
G37*
G36*
G01*
X89385000Y-60360000D02*
X89015000Y-60360000D01*
G75*
G02*
X88880000Y-60225000I0J135000D01*
G01*
X88880000Y-59955000D01*
G75*
G02*
X89015000Y-59820000I135000J0D01*
G01*
X89385000Y-59820000D01*
G75*
G02*
X89520000Y-59955000I0J-135000D01*
G01*
X89520000Y-60225000D01*
G75*
G02*
X89385000Y-60360000I-135000J0D01*
G01*
G37*
G04 #@! TD*
G04 #@! TO.C,C8*
G36*
G01*
X97930000Y-66540000D02*
X98270000Y-66540000D01*
G75*
G02*
X98410000Y-66680000I0J-140000D01*
G01*
X98410000Y-66960000D01*
G75*
G02*
X98270000Y-67100000I-140000J0D01*
G01*
X97930000Y-67100000D01*
G75*
G02*
X97790000Y-66960000I0J140000D01*
G01*
X97790000Y-66680000D01*
G75*
G02*
X97930000Y-66540000I140000J0D01*
G01*
G37*
G36*
G01*
X97930000Y-67500000D02*
X98270000Y-67500000D01*
G75*
G02*
X98410000Y-67640000I0J-140000D01*
G01*
X98410000Y-67920000D01*
G75*
G02*
X98270000Y-68060000I-140000J0D01*
G01*
X97930000Y-68060000D01*
G75*
G02*
X97790000Y-67920000I0J140000D01*
G01*
X97790000Y-67640000D01*
G75*
G02*
X97930000Y-67500000I140000J0D01*
G01*
G37*
G04 #@! TD*
G04 #@! TO.C,C37*
G36*
G01*
X104490000Y-68170000D02*
X104490000Y-67830000D01*
G75*
G02*
X104630000Y-67690000I140000J0D01*
G01*
X104910000Y-67690000D01*
G75*
G02*
X105050000Y-67830000I0J-140000D01*
G01*
X105050000Y-68170000D01*
G75*
G02*
X104910000Y-68310000I-140000J0D01*
G01*
X104630000Y-68310000D01*
G75*
G02*
X104490000Y-68170000I0J140000D01*
G01*
G37*
G36*
G01*
X105450000Y-68170000D02*
X105450000Y-67830000D01*
G75*
G02*
X105590000Y-67690000I140000J0D01*
G01*
X105870000Y-67690000D01*
G75*
G02*
X106010000Y-67830000I0J-140000D01*
G01*
X106010000Y-68170000D01*
G75*
G02*
X105870000Y-68310000I-140000J0D01*
G01*
X105590000Y-68310000D01*
G75*
G02*
X105450000Y-68170000I0J140000D01*
G01*
G37*
G04 #@! TD*
G04 #@! TO.C,C10*
G36*
G01*
X96940000Y-73170000D02*
X96940000Y-72830000D01*
G75*
G02*
X97080000Y-72690000I140000J0D01*
G01*
X97360000Y-72690000D01*
G75*
G02*
X97500000Y-72830000I0J-140000D01*
G01*
X97500000Y-73170000D01*
G75*
G02*
X97360000Y-73310000I-140000J0D01*
G01*
X97080000Y-73310000D01*
G75*
G02*
X96940000Y-73170000I0J140000D01*
G01*
G37*
G36*
G01*
X97900000Y-73170000D02*
X97900000Y-72830000D01*
G75*
G02*
X98040000Y-72690000I140000J0D01*
G01*
X98320000Y-72690000D01*
G75*
G02*
X98460000Y-72830000I0J-140000D01*
G01*
X98460000Y-73170000D01*
G75*
G02*
X98320000Y-73310000I-140000J0D01*
G01*
X98040000Y-73310000D01*
G75*
G02*
X97900000Y-73170000I0J140000D01*
G01*
G37*
G04 #@! TD*
G04 #@! TO.C,C15*
G36*
G01*
X107540000Y-69620000D02*
X107540000Y-69280000D01*
G75*
G02*
X107680000Y-69140000I140000J0D01*
G01*
X107960000Y-69140000D01*
G75*
G02*
X108100000Y-69280000I0J-140000D01*
G01*
X108100000Y-69620000D01*
G75*
G02*
X107960000Y-69760000I-140000J0D01*
G01*
X107680000Y-69760000D01*
G75*
G02*
X107540000Y-69620000I0J140000D01*
G01*
G37*
G36*
G01*
X108500000Y-69620000D02*
X108500000Y-69280000D01*
G75*
G02*
X108640000Y-69140000I140000J0D01*
G01*
X108920000Y-69140000D01*
G75*
G02*
X109060000Y-69280000I0J-140000D01*
G01*
X109060000Y-69620000D01*
G75*
G02*
X108920000Y-69760000I-140000J0D01*
G01*
X108640000Y-69760000D01*
G75*
G02*
X108500000Y-69620000I0J140000D01*
G01*
G37*
G04 #@! TD*
G04 #@! TO.C,C53*
G36*
G01*
X102340000Y-81470000D02*
X102340000Y-81130000D01*
G75*
G02*
X102480000Y-80990000I140000J0D01*
G01*
X102760000Y-80990000D01*
G75*
G02*
X102900000Y-81130000I0J-140000D01*
G01*
X102900000Y-81470000D01*
G75*
G02*
X102760000Y-81610000I-140000J0D01*
G01*
X102480000Y-81610000D01*
G75*
G02*
X102340000Y-81470000I0J140000D01*
G01*
G37*
G36*
G01*
X103300000Y-81470000D02*
X103300000Y-81130000D01*
G75*
G02*
X103440000Y-80990000I140000J0D01*
G01*
X103720000Y-80990000D01*
G75*
G02*
X103860000Y-81130000I0J-140000D01*
G01*
X103860000Y-81470000D01*
G75*
G02*
X103720000Y-81610000I-140000J0D01*
G01*
X103440000Y-81610000D01*
G75*
G02*
X103300000Y-81470000I0J140000D01*
G01*
G37*
G04 #@! TD*
G04 #@! TO.C,C1*
G36*
G01*
X109970000Y-73610000D02*
X109630000Y-73610000D01*
G75*
G02*
X109490000Y-73470000I0J140000D01*
G01*
X109490000Y-73190000D01*
G75*
G02*
X109630000Y-73050000I140000J0D01*
G01*
X109970000Y-73050000D01*
G75*
G02*
X110110000Y-73190000I0J-140000D01*
G01*
X110110000Y-73470000D01*
G75*
G02*
X109970000Y-73610000I-140000J0D01*
G01*
G37*
G36*
G01*
X109970000Y-72650000D02*
X109630000Y-72650000D01*
G75*
G02*
X109490000Y-72510000I0J140000D01*
G01*
X109490000Y-72230000D01*
G75*
G02*
X109630000Y-72090000I140000J0D01*
G01*
X109970000Y-72090000D01*
G75*
G02*
X110110000Y-72230000I0J-140000D01*
G01*
X110110000Y-72510000D01*
G75*
G02*
X109970000Y-72650000I-140000J0D01*
G01*
G37*
G04 #@! TD*
G04 #@! TO.C,R8*
G36*
G01*
X103185000Y-63680000D02*
X102815000Y-63680000D01*
G75*
G02*
X102680000Y-63545000I0J135000D01*
G01*
X102680000Y-63275000D01*
G75*
G02*
X102815000Y-63140000I135000J0D01*
G01*
X103185000Y-63140000D01*
G75*
G02*
X103320000Y-63275000I0J-135000D01*
G01*
X103320000Y-63545000D01*
G75*
G02*
X103185000Y-63680000I-135000J0D01*
G01*
G37*
G36*
G01*
X103185000Y-62660000D02*
X102815000Y-62660000D01*
G75*
G02*
X102680000Y-62525000I0J135000D01*
G01*
X102680000Y-62255000D01*
G75*
G02*
X102815000Y-62120000I135000J0D01*
G01*
X103185000Y-62120000D01*
G75*
G02*
X103320000Y-62255000I0J-135000D01*
G01*
X103320000Y-62525000D01*
G75*
G02*
X103185000Y-62660000I-135000J0D01*
G01*
G37*
G04 #@! TD*
G04 #@! TO.C,FB4*
G36*
G01*
X100972500Y-80280000D02*
X100627500Y-80280000D01*
G75*
G02*
X100480000Y-80132500I0J147500D01*
G01*
X100480000Y-79837500D01*
G75*
G02*
X100627500Y-79690000I147500J0D01*
G01*
X100972500Y-79690000D01*
G75*
G02*
X101120000Y-79837500I0J-147500D01*
G01*
X101120000Y-80132500D01*
G75*
G02*
X100972500Y-80280000I-147500J0D01*
G01*
G37*
G36*
G01*
X100972500Y-79310000D02*
X100627500Y-79310000D01*
G75*
G02*
X100480000Y-79162500I0J147500D01*
G01*
X100480000Y-78867500D01*
G75*
G02*
X100627500Y-78720000I147500J0D01*
G01*
X100972500Y-78720000D01*
G75*
G02*
X101120000Y-78867500I0J-147500D01*
G01*
X101120000Y-79162500D01*
G75*
G02*
X100972500Y-79310000I-147500J0D01*
G01*
G37*
G04 #@! TD*
G04 #@! TO.C,C57*
G36*
G01*
X91870000Y-71860000D02*
X91530000Y-71860000D01*
G75*
G02*
X91390000Y-71720000I0J140000D01*
G01*
X91390000Y-71440000D01*
G75*
G02*
X91530000Y-71300000I140000J0D01*
G01*
X91870000Y-71300000D01*
G75*
G02*
X92010000Y-71440000I0J-140000D01*
G01*
X92010000Y-71720000D01*
G75*
G02*
X91870000Y-71860000I-140000J0D01*
G01*
G37*
G36*
G01*
X91870000Y-70900000D02*
X91530000Y-70900000D01*
G75*
G02*
X91390000Y-70760000I0J140000D01*
G01*
X91390000Y-70480000D01*
G75*
G02*
X91530000Y-70340000I140000J0D01*
G01*
X91870000Y-70340000D01*
G75*
G02*
X92010000Y-70480000I0J-140000D01*
G01*
X92010000Y-70760000D01*
G75*
G02*
X91870000Y-70900000I-140000J0D01*
G01*
G37*
G04 #@! TD*
G04 #@! TO.C,C62*
G36*
G01*
X85575000Y-81950000D02*
X85575000Y-81450000D01*
G75*
G02*
X85800000Y-81225000I225000J0D01*
G01*
X86250000Y-81225000D01*
G75*
G02*
X86475000Y-81450000I0J-225000D01*
G01*
X86475000Y-81950000D01*
G75*
G02*
X86250000Y-82175000I-225000J0D01*
G01*
X85800000Y-82175000D01*
G75*
G02*
X85575000Y-81950000I0J225000D01*
G01*
G37*
G36*
G01*
X87125000Y-81950000D02*
X87125000Y-81450000D01*
G75*
G02*
X87350000Y-81225000I225000J0D01*
G01*
X87800000Y-81225000D01*
G75*
G02*
X88025000Y-81450000I0J-225000D01*
G01*
X88025000Y-81950000D01*
G75*
G02*
X87800000Y-82175000I-225000J0D01*
G01*
X87350000Y-82175000D01*
G75*
G02*
X87125000Y-81950000I0J225000D01*
G01*
G37*
G04 #@! TD*
G04 #@! TO.C,C46*
G36*
G01*
X106170000Y-65010000D02*
X105830000Y-65010000D01*
G75*
G02*
X105690000Y-64870000I0J140000D01*
G01*
X105690000Y-64590000D01*
G75*
G02*
X105830000Y-64450000I140000J0D01*
G01*
X106170000Y-64450000D01*
G75*
G02*
X106310000Y-64590000I0J-140000D01*
G01*
X106310000Y-64870000D01*
G75*
G02*
X106170000Y-65010000I-140000J0D01*
G01*
G37*
G36*
G01*
X106170000Y-64050000D02*
X105830000Y-64050000D01*
G75*
G02*
X105690000Y-63910000I0J140000D01*
G01*
X105690000Y-63630000D01*
G75*
G02*
X105830000Y-63490000I140000J0D01*
G01*
X106170000Y-63490000D01*
G75*
G02*
X106310000Y-63630000I0J-140000D01*
G01*
X106310000Y-63910000D01*
G75*
G02*
X106170000Y-64050000I-140000J0D01*
G01*
G37*
G04 #@! TD*
G04 #@! TO.C,C16*
G36*
G01*
X97240000Y-70220000D02*
X97240000Y-69880000D01*
G75*
G02*
X97380000Y-69740000I140000J0D01*
G01*
X97660000Y-69740000D01*
G75*
G02*
X97800000Y-69880000I0J-140000D01*
G01*
X97800000Y-70220000D01*
G75*
G02*
X97660000Y-70360000I-140000J0D01*
G01*
X97380000Y-70360000D01*
G75*
G02*
X97240000Y-70220000I0J140000D01*
G01*
G37*
G36*
G01*
X98200000Y-70220000D02*
X98200000Y-69880000D01*
G75*
G02*
X98340000Y-69740000I140000J0D01*
G01*
X98620000Y-69740000D01*
G75*
G02*
X98760000Y-69880000I0J-140000D01*
G01*
X98760000Y-70220000D01*
G75*
G02*
X98620000Y-70360000I-140000J0D01*
G01*
X98340000Y-70360000D01*
G75*
G02*
X98200000Y-70220000I0J140000D01*
G01*
G37*
G04 #@! TD*
G04 #@! TO.C,C41*
G36*
G01*
X95260000Y-75330000D02*
X95260000Y-75670000D01*
G75*
G02*
X95120000Y-75810000I-140000J0D01*
G01*
X94840000Y-75810000D01*
G75*
G02*
X94700000Y-75670000I0J140000D01*
G01*
X94700000Y-75330000D01*
G75*
G02*
X94840000Y-75190000I140000J0D01*
G01*
X95120000Y-75190000D01*
G75*
G02*
X95260000Y-75330000I0J-140000D01*
G01*
G37*
G36*
G01*
X94300000Y-75330000D02*
X94300000Y-75670000D01*
G75*
G02*
X94160000Y-75810000I-140000J0D01*
G01*
X93880000Y-75810000D01*
G75*
G02*
X93740000Y-75670000I0J140000D01*
G01*
X93740000Y-75330000D01*
G75*
G02*
X93880000Y-75190000I140000J0D01*
G01*
X94160000Y-75190000D01*
G75*
G02*
X94300000Y-75330000I0J-140000D01*
G01*
G37*
G04 #@! TD*
G04 #@! TO.C,U3*
G36*
G01*
X89915000Y-73660000D02*
X90485000Y-73660000D01*
G75*
G02*
X90605000Y-73780000I0J-120000D01*
G01*
X90605000Y-74020000D01*
G75*
G02*
X90485000Y-74140000I-120000J0D01*
G01*
X89915000Y-74140000D01*
G75*
G02*
X89795000Y-74020000I0J120000D01*
G01*
X89795000Y-73780000D01*
G75*
G02*
X89915000Y-73660000I120000J0D01*
G01*
G37*
G36*
G01*
X88915000Y-73660000D02*
X89485000Y-73660000D01*
G75*
G02*
X89605000Y-73780000I0J-120000D01*
G01*
X89605000Y-74020000D01*
G75*
G02*
X89485000Y-74140000I-120000J0D01*
G01*
X88915000Y-74140000D01*
G75*
G02*
X88795000Y-74020000I0J120000D01*
G01*
X88795000Y-73780000D01*
G75*
G02*
X88915000Y-73660000I120000J0D01*
G01*
G37*
G36*
G01*
X89915000Y-74260000D02*
X90485000Y-74260000D01*
G75*
G02*
X90605000Y-74380000I0J-120000D01*
G01*
X90605000Y-74620000D01*
G75*
G02*
X90485000Y-74740000I-120000J0D01*
G01*
X89915000Y-74740000D01*
G75*
G02*
X89795000Y-74620000I0J120000D01*
G01*
X89795000Y-74380000D01*
G75*
G02*
X89915000Y-74260000I120000J0D01*
G01*
G37*
G36*
G01*
X88915000Y-74260000D02*
X89485000Y-74260000D01*
G75*
G02*
X89605000Y-74380000I0J-120000D01*
G01*
X89605000Y-74620000D01*
G75*
G02*
X89485000Y-74740000I-120000J0D01*
G01*
X88915000Y-74740000D01*
G75*
G02*
X88795000Y-74620000I0J120000D01*
G01*
X88795000Y-74380000D01*
G75*
G02*
X88915000Y-74260000I120000J0D01*
G01*
G37*
G36*
G01*
X90637500Y-72575000D02*
X90762500Y-72575000D01*
G75*
G02*
X90825000Y-72637500I0J-62500D01*
G01*
X90825000Y-73337500D01*
G75*
G02*
X90762500Y-73400000I-62500J0D01*
G01*
X90637500Y-73400000D01*
G75*
G02*
X90575000Y-73337500I0J62500D01*
G01*
X90575000Y-72637500D01*
G75*
G02*
X90637500Y-72575000I62500J0D01*
G01*
G37*
G36*
G01*
X90137500Y-72575000D02*
X90262500Y-72575000D01*
G75*
G02*
X90325000Y-72637500I0J-62500D01*
G01*
X90325000Y-73337500D01*
G75*
G02*
X90262500Y-73400000I-62500J0D01*
G01*
X90137500Y-73400000D01*
G75*
G02*
X90075000Y-73337500I0J62500D01*
G01*
X90075000Y-72637500D01*
G75*
G02*
X90137500Y-72575000I62500J0D01*
G01*
G37*
G36*
G01*
X89637500Y-72575000D02*
X89762500Y-72575000D01*
G75*
G02*
X89825000Y-72637500I0J-62500D01*
G01*
X89825000Y-73337500D01*
G75*
G02*
X89762500Y-73400000I-62500J0D01*
G01*
X89637500Y-73400000D01*
G75*
G02*
X89575000Y-73337500I0J62500D01*
G01*
X89575000Y-72637500D01*
G75*
G02*
X89637500Y-72575000I62500J0D01*
G01*
G37*
G36*
G01*
X89137500Y-72575000D02*
X89262500Y-72575000D01*
G75*
G02*
X89325000Y-72637500I0J-62500D01*
G01*
X89325000Y-73337500D01*
G75*
G02*
X89262500Y-73400000I-62500J0D01*
G01*
X89137500Y-73400000D01*
G75*
G02*
X89075000Y-73337500I0J62500D01*
G01*
X89075000Y-72637500D01*
G75*
G02*
X89137500Y-72575000I62500J0D01*
G01*
G37*
G36*
G01*
X88637500Y-72575000D02*
X88762500Y-72575000D01*
G75*
G02*
X88825000Y-72637500I0J-62500D01*
G01*
X88825000Y-73337500D01*
G75*
G02*
X88762500Y-73400000I-62500J0D01*
G01*
X88637500Y-73400000D01*
G75*
G02*
X88575000Y-73337500I0J62500D01*
G01*
X88575000Y-72637500D01*
G75*
G02*
X88637500Y-72575000I62500J0D01*
G01*
G37*
G36*
G01*
X88637500Y-75000000D02*
X88762500Y-75000000D01*
G75*
G02*
X88825000Y-75062500I0J-62500D01*
G01*
X88825000Y-75762500D01*
G75*
G02*
X88762500Y-75825000I-62500J0D01*
G01*
X88637500Y-75825000D01*
G75*
G02*
X88575000Y-75762500I0J62500D01*
G01*
X88575000Y-75062500D01*
G75*
G02*
X88637500Y-75000000I62500J0D01*
G01*
G37*
G36*
G01*
X89137500Y-75000000D02*
X89262500Y-75000000D01*
G75*
G02*
X89325000Y-75062500I0J-62500D01*
G01*
X89325000Y-75762500D01*
G75*
G02*
X89262500Y-75825000I-62500J0D01*
G01*
X89137500Y-75825000D01*
G75*
G02*
X89075000Y-75762500I0J62500D01*
G01*
X89075000Y-75062500D01*
G75*
G02*
X89137500Y-75000000I62500J0D01*
G01*
G37*
G36*
G01*
X89637500Y-75000000D02*
X89762500Y-75000000D01*
G75*
G02*
X89825000Y-75062500I0J-62500D01*
G01*
X89825000Y-75762500D01*
G75*
G02*
X89762500Y-75825000I-62500J0D01*
G01*
X89637500Y-75825000D01*
G75*
G02*
X89575000Y-75762500I0J62500D01*
G01*
X89575000Y-75062500D01*
G75*
G02*
X89637500Y-75000000I62500J0D01*
G01*
G37*
G36*
G01*
X90137500Y-75000000D02*
X90262500Y-75000000D01*
G75*
G02*
X90325000Y-75062500I0J-62500D01*
G01*
X90325000Y-75762500D01*
G75*
G02*
X90262500Y-75825000I-62500J0D01*
G01*
X90137500Y-75825000D01*
G75*
G02*
X90075000Y-75762500I0J62500D01*
G01*
X90075000Y-75062500D01*
G75*
G02*
X90137500Y-75000000I62500J0D01*
G01*
G37*
G36*
G01*
X90637500Y-75000000D02*
X90762500Y-75000000D01*
G75*
G02*
X90825000Y-75062500I0J-62500D01*
G01*
X90825000Y-75762500D01*
G75*
G02*
X90762500Y-75825000I-62500J0D01*
G01*
X90637500Y-75825000D01*
G75*
G02*
X90575000Y-75762500I0J62500D01*
G01*
X90575000Y-75062500D01*
G75*
G02*
X90637500Y-75000000I62500J0D01*
G01*
G37*
G04 #@! TD*
G04 #@! TO.C,C32*
G36*
G01*
X90175000Y-77300000D02*
X90175000Y-76800000D01*
G75*
G02*
X90400000Y-76575000I225000J0D01*
G01*
X90850000Y-76575000D01*
G75*
G02*
X91075000Y-76800000I0J-225000D01*
G01*
X91075000Y-77300000D01*
G75*
G02*
X90850000Y-77525000I-225000J0D01*
G01*
X90400000Y-77525000D01*
G75*
G02*
X90175000Y-77300000I0J225000D01*
G01*
G37*
G36*
G01*
X91725000Y-77300000D02*
X91725000Y-76800000D01*
G75*
G02*
X91950000Y-76575000I225000J0D01*
G01*
X92400000Y-76575000D01*
G75*
G02*
X92625000Y-76800000I0J-225000D01*
G01*
X92625000Y-77300000D01*
G75*
G02*
X92400000Y-77525000I-225000J0D01*
G01*
X91950000Y-77525000D01*
G75*
G02*
X91725000Y-77300000I0J225000D01*
G01*
G37*
G04 #@! TD*
G04 #@! TO.C,C66*
G36*
G01*
X112160000Y-56730000D02*
X112160000Y-57070000D01*
G75*
G02*
X112020000Y-57210000I-140000J0D01*
G01*
X111740000Y-57210000D01*
G75*
G02*
X111600000Y-57070000I0J140000D01*
G01*
X111600000Y-56730000D01*
G75*
G02*
X111740000Y-56590000I140000J0D01*
G01*
X112020000Y-56590000D01*
G75*
G02*
X112160000Y-56730000I0J-140000D01*
G01*
G37*
G36*
G01*
X111200000Y-56730000D02*
X111200000Y-57070000D01*
G75*
G02*
X111060000Y-57210000I-140000J0D01*
G01*
X110780000Y-57210000D01*
G75*
G02*
X110640000Y-57070000I0J140000D01*
G01*
X110640000Y-56730000D01*
G75*
G02*
X110780000Y-56590000I140000J0D01*
G01*
X111060000Y-56590000D01*
G75*
G02*
X111200000Y-56730000I0J-140000D01*
G01*
G37*
G04 #@! TD*
G04 #@! TO.C,C7*
G36*
G01*
X107540000Y-70570000D02*
X107540000Y-70230000D01*
G75*
G02*
X107680000Y-70090000I140000J0D01*
G01*
X107960000Y-70090000D01*
G75*
G02*
X108100000Y-70230000I0J-140000D01*
G01*
X108100000Y-70570000D01*
G75*
G02*
X107960000Y-70710000I-140000J0D01*
G01*
X107680000Y-70710000D01*
G75*
G02*
X107540000Y-70570000I0J140000D01*
G01*
G37*
G36*
G01*
X108500000Y-70570000D02*
X108500000Y-70230000D01*
G75*
G02*
X108640000Y-70090000I140000J0D01*
G01*
X108920000Y-70090000D01*
G75*
G02*
X109060000Y-70230000I0J-140000D01*
G01*
X109060000Y-70570000D01*
G75*
G02*
X108920000Y-70710000I-140000J0D01*
G01*
X108640000Y-70710000D01*
G75*
G02*
X108500000Y-70570000I0J140000D01*
G01*
G37*
G04 #@! TD*
G04 #@! TO.C,C58*
G36*
G01*
X99140000Y-84270000D02*
X99140000Y-83930000D01*
G75*
G02*
X99280000Y-83790000I140000J0D01*
G01*
X99560000Y-83790000D01*
G75*
G02*
X99700000Y-83930000I0J-140000D01*
G01*
X99700000Y-84270000D01*
G75*
G02*
X99560000Y-84410000I-140000J0D01*
G01*
X99280000Y-84410000D01*
G75*
G02*
X99140000Y-84270000I0J140000D01*
G01*
G37*
G36*
G01*
X100100000Y-84270000D02*
X100100000Y-83930000D01*
G75*
G02*
X100240000Y-83790000I140000J0D01*
G01*
X100520000Y-83790000D01*
G75*
G02*
X100660000Y-83930000I0J-140000D01*
G01*
X100660000Y-84270000D01*
G75*
G02*
X100520000Y-84410000I-140000J0D01*
G01*
X100240000Y-84410000D01*
G75*
G02*
X100100000Y-84270000I0J140000D01*
G01*
G37*
G04 #@! TD*
G04 #@! TO.C,C67*
G36*
G01*
X114060000Y-57730000D02*
X114060000Y-58070000D01*
G75*
G02*
X113920000Y-58210000I-140000J0D01*
G01*
X113640000Y-58210000D01*
G75*
G02*
X113500000Y-58070000I0J140000D01*
G01*
X113500000Y-57730000D01*
G75*
G02*
X113640000Y-57590000I140000J0D01*
G01*
X113920000Y-57590000D01*
G75*
G02*
X114060000Y-57730000I0J-140000D01*
G01*
G37*
G36*
G01*
X113100000Y-57730000D02*
X113100000Y-58070000D01*
G75*
G02*
X112960000Y-58210000I-140000J0D01*
G01*
X112680000Y-58210000D01*
G75*
G02*
X112540000Y-58070000I0J140000D01*
G01*
X112540000Y-57730000D01*
G75*
G02*
X112680000Y-57590000I140000J0D01*
G01*
X112960000Y-57590000D01*
G75*
G02*
X113100000Y-57730000I0J-140000D01*
G01*
G37*
G04 #@! TD*
G04 #@! TO.C,J6*
G36*
G01*
X111675000Y-84300000D02*
X111675000Y-83100000D01*
G75*
G02*
X111875000Y-82900000I200000J0D01*
G01*
X112275000Y-82900000D01*
G75*
G02*
X112475000Y-83100000I0J-200000D01*
G01*
X112475000Y-84300000D01*
G75*
G02*
X112275000Y-84500000I-200000J0D01*
G01*
X111875000Y-84500000D01*
G75*
G02*
X111675000Y-84300000I0J200000D01*
G01*
G37*
G36*
G01*
X112925000Y-84300000D02*
X112925000Y-83100000D01*
G75*
G02*
X113125000Y-82900000I200000J0D01*
G01*
X113525000Y-82900000D01*
G75*
G02*
X113725000Y-83100000I0J-200000D01*
G01*
X113725000Y-84300000D01*
G75*
G02*
X113525000Y-84500000I-200000J0D01*
G01*
X113125000Y-84500000D01*
G75*
G02*
X112925000Y-84300000I0J200000D01*
G01*
G37*
G36*
G01*
X108475000Y-87849999D02*
X108475000Y-85350001D01*
G75*
G02*
X108725001Y-85100000I250001J0D01*
G01*
X110324999Y-85100000D01*
G75*
G02*
X110575000Y-85350001I0J-250001D01*
G01*
X110575000Y-87849999D01*
G75*
G02*
X110324999Y-88100000I-250001J0D01*
G01*
X108725001Y-88100000D01*
G75*
G02*
X108475000Y-87849999I0J250001D01*
G01*
G37*
G36*
G01*
X114825000Y-87849999D02*
X114825000Y-85350001D01*
G75*
G02*
X115075001Y-85100000I250001J0D01*
G01*
X116674999Y-85100000D01*
G75*
G02*
X116925000Y-85350001I0J-250001D01*
G01*
X116925000Y-87849999D01*
G75*
G02*
X116674999Y-88100000I-250001J0D01*
G01*
X115075001Y-88100000D01*
G75*
G02*
X114825000Y-87849999I0J250001D01*
G01*
G37*
G04 #@! TD*
G04 #@! TO.C,C17*
G36*
G01*
X95460000Y-73030000D02*
X95460000Y-73370000D01*
G75*
G02*
X95320000Y-73510000I-140000J0D01*
G01*
X95040000Y-73510000D01*
G75*
G02*
X94900000Y-73370000I0J140000D01*
G01*
X94900000Y-73030000D01*
G75*
G02*
X95040000Y-72890000I140000J0D01*
G01*
X95320000Y-72890000D01*
G75*
G02*
X95460000Y-73030000I0J-140000D01*
G01*
G37*
G36*
G01*
X94500000Y-73030000D02*
X94500000Y-73370000D01*
G75*
G02*
X94360000Y-73510000I-140000J0D01*
G01*
X94080000Y-73510000D01*
G75*
G02*
X93940000Y-73370000I0J140000D01*
G01*
X93940000Y-73030000D01*
G75*
G02*
X94080000Y-72890000I140000J0D01*
G01*
X94360000Y-72890000D01*
G75*
G02*
X94500000Y-73030000I0J-140000D01*
G01*
G37*
G04 #@! TD*
D17*
G04 #@! TO.C,U9*
X116350001Y-54628400D03*
X115850000Y-54628400D03*
X115350000Y-54628400D03*
X114849999Y-54628400D03*
X114849999Y-57371600D03*
X115350000Y-57371600D03*
X115850000Y-57371600D03*
X116350001Y-57371600D03*
G04 #@! TD*
G04 #@! TO.C,C22*
G36*
G01*
X98125000Y-81250000D02*
X98125000Y-81750000D01*
G75*
G02*
X97900000Y-81975000I-225000J0D01*
G01*
X97450000Y-81975000D01*
G75*
G02*
X97225000Y-81750000I0J225000D01*
G01*
X97225000Y-81250000D01*
G75*
G02*
X97450000Y-81025000I225000J0D01*
G01*
X97900000Y-81025000D01*
G75*
G02*
X98125000Y-81250000I0J-225000D01*
G01*
G37*
G36*
G01*
X96575000Y-81250000D02*
X96575000Y-81750000D01*
G75*
G02*
X96350000Y-81975000I-225000J0D01*
G01*
X95900000Y-81975000D01*
G75*
G02*
X95675000Y-81750000I0J225000D01*
G01*
X95675000Y-81250000D01*
G75*
G02*
X95900000Y-81025000I225000J0D01*
G01*
X96350000Y-81025000D01*
G75*
G02*
X96575000Y-81250000I0J-225000D01*
G01*
G37*
G04 #@! TD*
D12*
G04 #@! TO.C,FL5*
X115150000Y-72010000D03*
X115650000Y-72010000D03*
X115650000Y-72490000D03*
X115150000Y-72490000D03*
G04 #@! TD*
G04 #@! TO.C,C44*
G36*
G01*
X110290000Y-71170000D02*
X110290000Y-70830000D01*
G75*
G02*
X110430000Y-70690000I140000J0D01*
G01*
X110710000Y-70690000D01*
G75*
G02*
X110850000Y-70830000I0J-140000D01*
G01*
X110850000Y-71170000D01*
G75*
G02*
X110710000Y-71310000I-140000J0D01*
G01*
X110430000Y-71310000D01*
G75*
G02*
X110290000Y-71170000I0J140000D01*
G01*
G37*
G36*
G01*
X111250000Y-71170000D02*
X111250000Y-70830000D01*
G75*
G02*
X111390000Y-70690000I140000J0D01*
G01*
X111670000Y-70690000D01*
G75*
G02*
X111810000Y-70830000I0J-140000D01*
G01*
X111810000Y-71170000D01*
G75*
G02*
X111670000Y-71310000I-140000J0D01*
G01*
X111390000Y-71310000D01*
G75*
G02*
X111250000Y-71170000I0J140000D01*
G01*
G37*
G04 #@! TD*
G04 #@! TO.C,C39*
G36*
G01*
X104490000Y-74170000D02*
X104490000Y-73830000D01*
G75*
G02*
X104630000Y-73690000I140000J0D01*
G01*
X104910000Y-73690000D01*
G75*
G02*
X105050000Y-73830000I0J-140000D01*
G01*
X105050000Y-74170000D01*
G75*
G02*
X104910000Y-74310000I-140000J0D01*
G01*
X104630000Y-74310000D01*
G75*
G02*
X104490000Y-74170000I0J140000D01*
G01*
G37*
G36*
G01*
X105450000Y-74170000D02*
X105450000Y-73830000D01*
G75*
G02*
X105590000Y-73690000I140000J0D01*
G01*
X105870000Y-73690000D01*
G75*
G02*
X106010000Y-73830000I0J-140000D01*
G01*
X106010000Y-74170000D01*
G75*
G02*
X105870000Y-74310000I-140000J0D01*
G01*
X105590000Y-74310000D01*
G75*
G02*
X105450000Y-74170000I0J140000D01*
G01*
G37*
G04 #@! TD*
G04 #@! TO.C,C42*
G36*
G01*
X95510000Y-66580000D02*
X95510000Y-66920000D01*
G75*
G02*
X95370000Y-67060000I-140000J0D01*
G01*
X95090000Y-67060000D01*
G75*
G02*
X94950000Y-66920000I0J140000D01*
G01*
X94950000Y-66580000D01*
G75*
G02*
X95090000Y-66440000I140000J0D01*
G01*
X95370000Y-66440000D01*
G75*
G02*
X95510000Y-66580000I0J-140000D01*
G01*
G37*
G36*
G01*
X94550000Y-66580000D02*
X94550000Y-66920000D01*
G75*
G02*
X94410000Y-67060000I-140000J0D01*
G01*
X94130000Y-67060000D01*
G75*
G02*
X93990000Y-66920000I0J140000D01*
G01*
X93990000Y-66580000D01*
G75*
G02*
X94130000Y-66440000I140000J0D01*
G01*
X94410000Y-66440000D01*
G75*
G02*
X94550000Y-66580000I0J-140000D01*
G01*
G37*
G04 #@! TD*
G04 #@! TO.C,R7*
G36*
G01*
X90885000Y-71880000D02*
X90515000Y-71880000D01*
G75*
G02*
X90380000Y-71745000I0J135000D01*
G01*
X90380000Y-71475000D01*
G75*
G02*
X90515000Y-71340000I135000J0D01*
G01*
X90885000Y-71340000D01*
G75*
G02*
X91020000Y-71475000I0J-135000D01*
G01*
X91020000Y-71745000D01*
G75*
G02*
X90885000Y-71880000I-135000J0D01*
G01*
G37*
G36*
G01*
X90885000Y-70860000D02*
X90515000Y-70860000D01*
G75*
G02*
X90380000Y-70725000I0J135000D01*
G01*
X90380000Y-70455000D01*
G75*
G02*
X90515000Y-70320000I135000J0D01*
G01*
X90885000Y-70320000D01*
G75*
G02*
X91020000Y-70455000I0J-135000D01*
G01*
X91020000Y-70725000D01*
G75*
G02*
X90885000Y-70860000I-135000J0D01*
G01*
G37*
G04 #@! TD*
G04 #@! TO.C,J3*
G36*
G01*
X103150000Y-56250000D02*
X102650000Y-56250000D01*
G75*
G02*
X102400000Y-56000000I0J250000D01*
G01*
X102400000Y-55450000D01*
G75*
G02*
X102650000Y-55200000I250000J0D01*
G01*
X103150000Y-55200000D01*
G75*
G02*
X103400000Y-55450000I0J-250000D01*
G01*
X103400000Y-56000000D01*
G75*
G02*
X103150000Y-56250000I-250000J0D01*
G01*
G37*
G36*
G01*
X101700000Y-55300000D02*
X101150000Y-55300000D01*
G75*
G02*
X100900000Y-55050000I0J250000D01*
G01*
X100900000Y-53350000D01*
G75*
G02*
X101150000Y-53100000I250000J0D01*
G01*
X101700000Y-53100000D01*
G75*
G02*
X101950000Y-53350000I0J-250000D01*
G01*
X101950000Y-55050000D01*
G75*
G02*
X101700000Y-55300000I-250000J0D01*
G01*
G37*
G36*
G01*
X104650000Y-55300000D02*
X104100000Y-55300000D01*
G75*
G02*
X103850000Y-55050000I0J250000D01*
G01*
X103850000Y-53350000D01*
G75*
G02*
X104100000Y-53100000I250000J0D01*
G01*
X104650000Y-53100000D01*
G75*
G02*
X104900000Y-53350000I0J-250000D01*
G01*
X104900000Y-55050000D01*
G75*
G02*
X104650000Y-55300000I-250000J0D01*
G01*
G37*
G04 #@! TD*
G04 #@! TO.C,R21*
G36*
G01*
X106885000Y-53780000D02*
X106515000Y-53780000D01*
G75*
G02*
X106380000Y-53645000I0J135000D01*
G01*
X106380000Y-53375000D01*
G75*
G02*
X106515000Y-53240000I135000J0D01*
G01*
X106885000Y-53240000D01*
G75*
G02*
X107020000Y-53375000I0J-135000D01*
G01*
X107020000Y-53645000D01*
G75*
G02*
X106885000Y-53780000I-135000J0D01*
G01*
G37*
G36*
G01*
X106885000Y-53140000D02*
X106515000Y-53140000D01*
G75*
G02*
X106380000Y-53005000I0J135000D01*
G01*
X106380000Y-52735000D01*
G75*
G02*
X106515000Y-52600000I135000J0D01*
G01*
X106885000Y-52600000D01*
G75*
G02*
X107020000Y-52735000I0J-135000D01*
G01*
X107020000Y-53005000D01*
G75*
G02*
X106885000Y-53140000I-135000J0D01*
G01*
G37*
G04 #@! TD*
G04 #@! TO.C,FL1*
X115150000Y-66010000D03*
X115650000Y-66010000D03*
X115650000Y-66490000D03*
X115150000Y-66490000D03*
G04 #@! TD*
G04 #@! TO.C,R10*
G36*
G01*
X101720000Y-63685000D02*
X101720000Y-63315000D01*
G75*
G02*
X101855000Y-63180000I135000J0D01*
G01*
X102125000Y-63180000D01*
G75*
G02*
X102260000Y-63315000I0J-135000D01*
G01*
X102260000Y-63685000D01*
G75*
G02*
X102125000Y-63820000I-135000J0D01*
G01*
X101855000Y-63820000D01*
G75*
G02*
X101720000Y-63685000I0J135000D01*
G01*
G37*
G36*
G01*
X102740000Y-63685000D02*
X102740000Y-63315000D01*
G75*
G02*
X102875000Y-63180000I135000J0D01*
G01*
X103145000Y-63180000D01*
G75*
G02*
X103280000Y-63315000I0J-135000D01*
G01*
X103280000Y-63685000D01*
G75*
G02*
X103145000Y-63820000I-135000J0D01*
G01*
X102875000Y-63820000D01*
G75*
G02*
X102740000Y-63685000I0J135000D01*
G01*
G37*
G04 #@! TD*
G04 #@! TO.C,C23*
G36*
G01*
X84975000Y-71350000D02*
X84975000Y-70850000D01*
G75*
G02*
X85200000Y-70625000I225000J0D01*
G01*
X85650000Y-70625000D01*
G75*
G02*
X85875000Y-70850000I0J-225000D01*
G01*
X85875000Y-71350000D01*
G75*
G02*
X85650000Y-71575000I-225000J0D01*
G01*
X85200000Y-71575000D01*
G75*
G02*
X84975000Y-71350000I0J225000D01*
G01*
G37*
G36*
G01*
X86525000Y-71350000D02*
X86525000Y-70850000D01*
G75*
G02*
X86750000Y-70625000I225000J0D01*
G01*
X87200000Y-70625000D01*
G75*
G02*
X87425000Y-70850000I0J-225000D01*
G01*
X87425000Y-71350000D01*
G75*
G02*
X87200000Y-71575000I-225000J0D01*
G01*
X86750000Y-71575000D01*
G75*
G02*
X86525000Y-71350000I0J225000D01*
G01*
G37*
G04 #@! TD*
G04 #@! TO.C,C48*
G36*
G01*
X100230000Y-75840000D02*
X100570000Y-75840000D01*
G75*
G02*
X100710000Y-75980000I0J-140000D01*
G01*
X100710000Y-76260000D01*
G75*
G02*
X100570000Y-76400000I-140000J0D01*
G01*
X100230000Y-76400000D01*
G75*
G02*
X100090000Y-76260000I0J140000D01*
G01*
X100090000Y-75980000D01*
G75*
G02*
X100230000Y-75840000I140000J0D01*
G01*
G37*
G36*
G01*
X100230000Y-76800000D02*
X100570000Y-76800000D01*
G75*
G02*
X100710000Y-76940000I0J-140000D01*
G01*
X100710000Y-77220000D01*
G75*
G02*
X100570000Y-77360000I-140000J0D01*
G01*
X100230000Y-77360000D01*
G75*
G02*
X100090000Y-77220000I0J140000D01*
G01*
X100090000Y-76940000D01*
G75*
G02*
X100230000Y-76800000I140000J0D01*
G01*
G37*
G04 #@! TD*
G04 #@! TO.C,C63*
G36*
G01*
X88675000Y-80450000D02*
X88675000Y-79950000D01*
G75*
G02*
X88900000Y-79725000I225000J0D01*
G01*
X89350000Y-79725000D01*
G75*
G02*
X89575000Y-79950000I0J-225000D01*
G01*
X89575000Y-80450000D01*
G75*
G02*
X89350000Y-80675000I-225000J0D01*
G01*
X88900000Y-80675000D01*
G75*
G02*
X88675000Y-80450000I0J225000D01*
G01*
G37*
G36*
G01*
X90225000Y-80450000D02*
X90225000Y-79950000D01*
G75*
G02*
X90450000Y-79725000I225000J0D01*
G01*
X90900000Y-79725000D01*
G75*
G02*
X91125000Y-79950000I0J-225000D01*
G01*
X91125000Y-80450000D01*
G75*
G02*
X90900000Y-80675000I-225000J0D01*
G01*
X90450000Y-80675000D01*
G75*
G02*
X90225000Y-80450000I0J225000D01*
G01*
G37*
G04 #@! TD*
G04 #@! TO.C,C35*
G36*
G01*
X99930000Y-66540000D02*
X100270000Y-66540000D01*
G75*
G02*
X100410000Y-66680000I0J-140000D01*
G01*
X100410000Y-66960000D01*
G75*
G02*
X100270000Y-67100000I-140000J0D01*
G01*
X99930000Y-67100000D01*
G75*
G02*
X99790000Y-66960000I0J140000D01*
G01*
X99790000Y-66680000D01*
G75*
G02*
X99930000Y-66540000I140000J0D01*
G01*
G37*
G36*
G01*
X99930000Y-67500000D02*
X100270000Y-67500000D01*
G75*
G02*
X100410000Y-67640000I0J-140000D01*
G01*
X100410000Y-67920000D01*
G75*
G02*
X100270000Y-68060000I-140000J0D01*
G01*
X99930000Y-68060000D01*
G75*
G02*
X99790000Y-67920000I0J140000D01*
G01*
X99790000Y-67640000D01*
G75*
G02*
X99930000Y-67500000I140000J0D01*
G01*
G37*
G04 #@! TD*
G04 #@! TO.C,C2*
G36*
G01*
X107540000Y-73470000D02*
X107540000Y-73130000D01*
G75*
G02*
X107680000Y-72990000I140000J0D01*
G01*
X107960000Y-72990000D01*
G75*
G02*
X108100000Y-73130000I0J-140000D01*
G01*
X108100000Y-73470000D01*
G75*
G02*
X107960000Y-73610000I-140000J0D01*
G01*
X107680000Y-73610000D01*
G75*
G02*
X107540000Y-73470000I0J140000D01*
G01*
G37*
G36*
G01*
X108500000Y-73470000D02*
X108500000Y-73130000D01*
G75*
G02*
X108640000Y-72990000I140000J0D01*
G01*
X108920000Y-72990000D01*
G75*
G02*
X109060000Y-73130000I0J-140000D01*
G01*
X109060000Y-73470000D01*
G75*
G02*
X108920000Y-73610000I-140000J0D01*
G01*
X108640000Y-73610000D01*
G75*
G02*
X108500000Y-73470000I0J140000D01*
G01*
G37*
G04 #@! TD*
G04 #@! TO.C,C14*
G36*
G01*
X96940000Y-72170000D02*
X96940000Y-71830000D01*
G75*
G02*
X97080000Y-71690000I140000J0D01*
G01*
X97360000Y-71690000D01*
G75*
G02*
X97500000Y-71830000I0J-140000D01*
G01*
X97500000Y-72170000D01*
G75*
G02*
X97360000Y-72310000I-140000J0D01*
G01*
X97080000Y-72310000D01*
G75*
G02*
X96940000Y-72170000I0J140000D01*
G01*
G37*
G36*
G01*
X97900000Y-72170000D02*
X97900000Y-71830000D01*
G75*
G02*
X98040000Y-71690000I140000J0D01*
G01*
X98320000Y-71690000D01*
G75*
G02*
X98460000Y-71830000I0J-140000D01*
G01*
X98460000Y-72170000D01*
G75*
G02*
X98320000Y-72310000I-140000J0D01*
G01*
X98040000Y-72310000D01*
G75*
G02*
X97900000Y-72170000I0J140000D01*
G01*
G37*
G04 #@! TD*
G04 #@! TO.C,FL2*
X115150000Y-68010000D03*
X115650000Y-68010000D03*
X115650000Y-68490000D03*
X115150000Y-68490000D03*
G04 #@! TD*
G04 #@! TO.C,C11*
G36*
G01*
X107540000Y-68670000D02*
X107540000Y-68330000D01*
G75*
G02*
X107680000Y-68190000I140000J0D01*
G01*
X107960000Y-68190000D01*
G75*
G02*
X108100000Y-68330000I0J-140000D01*
G01*
X108100000Y-68670000D01*
G75*
G02*
X107960000Y-68810000I-140000J0D01*
G01*
X107680000Y-68810000D01*
G75*
G02*
X107540000Y-68670000I0J140000D01*
G01*
G37*
G36*
G01*
X108500000Y-68670000D02*
X108500000Y-68330000D01*
G75*
G02*
X108640000Y-68190000I140000J0D01*
G01*
X108920000Y-68190000D01*
G75*
G02*
X109060000Y-68330000I0J-140000D01*
G01*
X109060000Y-68670000D01*
G75*
G02*
X108920000Y-68810000I-140000J0D01*
G01*
X108640000Y-68810000D01*
G75*
G02*
X108500000Y-68670000I0J140000D01*
G01*
G37*
G04 #@! TD*
G04 #@! TO.C,C45*
G36*
G01*
X95510000Y-67830000D02*
X95510000Y-68170000D01*
G75*
G02*
X95370000Y-68310000I-140000J0D01*
G01*
X95090000Y-68310000D01*
G75*
G02*
X94950000Y-68170000I0J140000D01*
G01*
X94950000Y-67830000D01*
G75*
G02*
X95090000Y-67690000I140000J0D01*
G01*
X95370000Y-67690000D01*
G75*
G02*
X95510000Y-67830000I0J-140000D01*
G01*
G37*
G36*
G01*
X94550000Y-67830000D02*
X94550000Y-68170000D01*
G75*
G02*
X94410000Y-68310000I-140000J0D01*
G01*
X94130000Y-68310000D01*
G75*
G02*
X93990000Y-68170000I0J140000D01*
G01*
X93990000Y-67830000D01*
G75*
G02*
X94130000Y-67690000I140000J0D01*
G01*
X94410000Y-67690000D01*
G75*
G02*
X94550000Y-67830000I0J-140000D01*
G01*
G37*
G04 #@! TD*
D18*
G04 #@! TO.C,J2*
X120550000Y-76250000D03*
X117850000Y-75750000D03*
X120550000Y-75250000D03*
X117850000Y-74750000D03*
X120550000Y-74250000D03*
X117850000Y-73750000D03*
X120550000Y-73250000D03*
X117850000Y-72750000D03*
X120550000Y-72250000D03*
X117850000Y-71750000D03*
X120550000Y-71250000D03*
X117850000Y-70750000D03*
X120550000Y-70250000D03*
X117850000Y-69750000D03*
X120550000Y-69250000D03*
X117850000Y-68750000D03*
X120550000Y-68250000D03*
X117850000Y-67750000D03*
X120550000Y-67250000D03*
X117850000Y-66750000D03*
X120550000Y-66250000D03*
X117850000Y-65750000D03*
X120550000Y-64750000D03*
X117850000Y-64750000D03*
X120550000Y-77250000D03*
X117850000Y-77250000D03*
G04 #@! TD*
G04 #@! TO.C,C19*
G36*
G01*
X97240000Y-71220000D02*
X97240000Y-70880000D01*
G75*
G02*
X97380000Y-70740000I140000J0D01*
G01*
X97660000Y-70740000D01*
G75*
G02*
X97800000Y-70880000I0J-140000D01*
G01*
X97800000Y-71220000D01*
G75*
G02*
X97660000Y-71360000I-140000J0D01*
G01*
X97380000Y-71360000D01*
G75*
G02*
X97240000Y-71220000I0J140000D01*
G01*
G37*
G36*
G01*
X98200000Y-71220000D02*
X98200000Y-70880000D01*
G75*
G02*
X98340000Y-70740000I140000J0D01*
G01*
X98620000Y-70740000D01*
G75*
G02*
X98760000Y-70880000I0J-140000D01*
G01*
X98760000Y-71220000D01*
G75*
G02*
X98620000Y-71360000I-140000J0D01*
G01*
X98340000Y-71360000D01*
G75*
G02*
X98200000Y-71220000I0J140000D01*
G01*
G37*
G04 #@! TD*
G04 #@! TO.C,R13*
G36*
G01*
X85585000Y-84780000D02*
X85215000Y-84780000D01*
G75*
G02*
X85080000Y-84645000I0J135000D01*
G01*
X85080000Y-84375000D01*
G75*
G02*
X85215000Y-84240000I135000J0D01*
G01*
X85585000Y-84240000D01*
G75*
G02*
X85720000Y-84375000I0J-135000D01*
G01*
X85720000Y-84645000D01*
G75*
G02*
X85585000Y-84780000I-135000J0D01*
G01*
G37*
G36*
G01*
X85585000Y-83760000D02*
X85215000Y-83760000D01*
G75*
G02*
X85080000Y-83625000I0J135000D01*
G01*
X85080000Y-83355000D01*
G75*
G02*
X85215000Y-83220000I135000J0D01*
G01*
X85585000Y-83220000D01*
G75*
G02*
X85720000Y-83355000I0J-135000D01*
G01*
X85720000Y-83625000D01*
G75*
G02*
X85585000Y-83760000I-135000J0D01*
G01*
G37*
G04 #@! TD*
D19*
G04 #@! TO.C,U10*
X89300001Y-83177700D03*
X88699999Y-83177700D03*
X88100001Y-83177700D03*
X87499999Y-83177700D03*
X87499999Y-84422300D03*
X88100001Y-84422300D03*
X88699999Y-84422300D03*
X89300001Y-84422300D03*
G04 #@! TD*
G04 #@! TO.C,C12*
G36*
G01*
X87425000Y-76650000D02*
X87425000Y-77150000D01*
G75*
G02*
X87200000Y-77375000I-225000J0D01*
G01*
X86750000Y-77375000D01*
G75*
G02*
X86525000Y-77150000I0J225000D01*
G01*
X86525000Y-76650000D01*
G75*
G02*
X86750000Y-76425000I225000J0D01*
G01*
X87200000Y-76425000D01*
G75*
G02*
X87425000Y-76650000I0J-225000D01*
G01*
G37*
G36*
G01*
X85875000Y-76650000D02*
X85875000Y-77150000D01*
G75*
G02*
X85650000Y-77375000I-225000J0D01*
G01*
X85200000Y-77375000D01*
G75*
G02*
X84975000Y-77150000I0J225000D01*
G01*
X84975000Y-76650000D01*
G75*
G02*
X85200000Y-76425000I225000J0D01*
G01*
X85650000Y-76425000D01*
G75*
G02*
X85875000Y-76650000I0J-225000D01*
G01*
G37*
G04 #@! TD*
G04 #@! TO.C,C40*
G36*
G01*
X107670000Y-75860000D02*
X107330000Y-75860000D01*
G75*
G02*
X107190000Y-75720000I0J140000D01*
G01*
X107190000Y-75440000D01*
G75*
G02*
X107330000Y-75300000I140000J0D01*
G01*
X107670000Y-75300000D01*
G75*
G02*
X107810000Y-75440000I0J-140000D01*
G01*
X107810000Y-75720000D01*
G75*
G02*
X107670000Y-75860000I-140000J0D01*
G01*
G37*
G36*
G01*
X107670000Y-74900000D02*
X107330000Y-74900000D01*
G75*
G02*
X107190000Y-74760000I0J140000D01*
G01*
X107190000Y-74480000D01*
G75*
G02*
X107330000Y-74340000I140000J0D01*
G01*
X107670000Y-74340000D01*
G75*
G02*
X107810000Y-74480000I0J-140000D01*
G01*
X107810000Y-74760000D01*
G75*
G02*
X107670000Y-74900000I-140000J0D01*
G01*
G37*
G04 #@! TD*
G04 #@! TO.C,C38*
G36*
G01*
X101410000Y-73830000D02*
X101410000Y-74170000D01*
G75*
G02*
X101270000Y-74310000I-140000J0D01*
G01*
X100990000Y-74310000D01*
G75*
G02*
X100850000Y-74170000I0J140000D01*
G01*
X100850000Y-73830000D01*
G75*
G02*
X100990000Y-73690000I140000J0D01*
G01*
X101270000Y-73690000D01*
G75*
G02*
X101410000Y-73830000I0J-140000D01*
G01*
G37*
G36*
G01*
X100450000Y-73830000D02*
X100450000Y-74170000D01*
G75*
G02*
X100310000Y-74310000I-140000J0D01*
G01*
X100030000Y-74310000D01*
G75*
G02*
X99890000Y-74170000I0J140000D01*
G01*
X99890000Y-73830000D01*
G75*
G02*
X100030000Y-73690000I140000J0D01*
G01*
X100310000Y-73690000D01*
G75*
G02*
X100450000Y-73830000I0J-140000D01*
G01*
G37*
G04 #@! TD*
G04 #@! TO.C,C30*
G36*
G01*
X104670000Y-65010000D02*
X104330000Y-65010000D01*
G75*
G02*
X104190000Y-64870000I0J140000D01*
G01*
X104190000Y-64590000D01*
G75*
G02*
X104330000Y-64450000I140000J0D01*
G01*
X104670000Y-64450000D01*
G75*
G02*
X104810000Y-64590000I0J-140000D01*
G01*
X104810000Y-64870000D01*
G75*
G02*
X104670000Y-65010000I-140000J0D01*
G01*
G37*
G36*
G01*
X104670000Y-64050000D02*
X104330000Y-64050000D01*
G75*
G02*
X104190000Y-63910000I0J140000D01*
G01*
X104190000Y-63630000D01*
G75*
G02*
X104330000Y-63490000I140000J0D01*
G01*
X104670000Y-63490000D01*
G75*
G02*
X104810000Y-63630000I0J-140000D01*
G01*
X104810000Y-63910000D01*
G75*
G02*
X104670000Y-64050000I-140000J0D01*
G01*
G37*
G04 #@! TD*
G04 #@! TO.C,C3*
G36*
G01*
X96940000Y-75220000D02*
X96940000Y-74880000D01*
G75*
G02*
X97080000Y-74740000I140000J0D01*
G01*
X97360000Y-74740000D01*
G75*
G02*
X97500000Y-74880000I0J-140000D01*
G01*
X97500000Y-75220000D01*
G75*
G02*
X97360000Y-75360000I-140000J0D01*
G01*
X97080000Y-75360000D01*
G75*
G02*
X96940000Y-75220000I0J140000D01*
G01*
G37*
G36*
G01*
X97900000Y-75220000D02*
X97900000Y-74880000D01*
G75*
G02*
X98040000Y-74740000I140000J0D01*
G01*
X98320000Y-74740000D01*
G75*
G02*
X98460000Y-74880000I0J-140000D01*
G01*
X98460000Y-75220000D01*
G75*
G02*
X98320000Y-75360000I-140000J0D01*
G01*
X98040000Y-75360000D01*
G75*
G02*
X97900000Y-75220000I0J140000D01*
G01*
G37*
G04 #@! TD*
G04 #@! TO.C,R22*
G36*
G01*
X108285000Y-53780000D02*
X107915000Y-53780000D01*
G75*
G02*
X107780000Y-53645000I0J135000D01*
G01*
X107780000Y-53375000D01*
G75*
G02*
X107915000Y-53240000I135000J0D01*
G01*
X108285000Y-53240000D01*
G75*
G02*
X108420000Y-53375000I0J-135000D01*
G01*
X108420000Y-53645000D01*
G75*
G02*
X108285000Y-53780000I-135000J0D01*
G01*
G37*
G36*
G01*
X108285000Y-53140000D02*
X107915000Y-53140000D01*
G75*
G02*
X107780000Y-53005000I0J135000D01*
G01*
X107780000Y-52735000D01*
G75*
G02*
X107915000Y-52600000I135000J0D01*
G01*
X108285000Y-52600000D01*
G75*
G02*
X108420000Y-52735000I0J-135000D01*
G01*
X108420000Y-53005000D01*
G75*
G02*
X108285000Y-53140000I-135000J0D01*
G01*
G37*
G04 #@! TD*
M02*
