G04 #@! TF.GenerationSoftware,KiCad,Pcbnew,(6.0.9)*
G04 #@! TF.CreationDate,2024-03-06T21:09:06-08:00*
G04 #@! TF.ProjectId,IMX585_MIPI_Breakout_v3,494d5835-3835-45f4-9d49-50495f427265,rev?*
G04 #@! TF.SameCoordinates,Original*
G04 #@! TF.FileFunction,Soldermask,Top*
G04 #@! TF.FilePolarity,Negative*
%FSLAX46Y46*%
G04 Gerber Fmt 4.6, Leading zero omitted, Abs format (unit mm)*
G04 Created by KiCad (PCBNEW (6.0.9)) date 2024-03-06 21:09:06*
%MOMM*%
%LPD*%
G01*
G04 APERTURE LIST*
%ADD10R,0.600000X0.600000*%
%ADD11R,0.400000X0.400000*%
%ADD12R,1.000000X1.050000*%
%ADD13R,1.050000X2.200000*%
%ADD14R,0.700000X0.300000*%
%ADD15C,1.000000*%
%ADD16C,4.600000*%
%ADD17R,0.900000X1.200000*%
%ADD18R,0.250000X0.500000*%
%ADD19R,1.600000X0.900000*%
%ADD20R,0.650000X0.850000*%
%ADD21R,0.449999X0.299999*%
%ADD22R,1.300000X0.300000*%
%ADD23R,2.200000X1.800000*%
%ADD24R,1.600000X1.000000*%
%ADD25R,2.000000X1.200000*%
%ADD26R,0.349999X1.000001*%
%ADD27R,0.254000X1.168400*%
G04 APERTURE END LIST*
D10*
G04 #@! TO.C,C13*
X131100000Y-113900000D03*
D11*
X130700000Y-113100000D03*
X131500000Y-113100000D03*
D10*
X131100000Y-112300000D03*
G04 #@! TD*
G04 #@! TO.C,C33*
G36*
G01*
X137590000Y-103120000D02*
X137590000Y-102780000D01*
G75*
G02*
X137730000Y-102640000I140000J0D01*
G01*
X138010000Y-102640000D01*
G75*
G02*
X138150000Y-102780000I0J-140000D01*
G01*
X138150000Y-103120000D01*
G75*
G02*
X138010000Y-103260000I-140000J0D01*
G01*
X137730000Y-103260000D01*
G75*
G02*
X137590000Y-103120000I0J140000D01*
G01*
G37*
G36*
G01*
X138550000Y-103120000D02*
X138550000Y-102780000D01*
G75*
G02*
X138690000Y-102640000I140000J0D01*
G01*
X138970000Y-102640000D01*
G75*
G02*
X139110000Y-102780000I0J-140000D01*
G01*
X139110000Y-103120000D01*
G75*
G02*
X138970000Y-103260000I-140000J0D01*
G01*
X138690000Y-103260000D01*
G75*
G02*
X138550000Y-103120000I0J140000D01*
G01*
G37*
G04 #@! TD*
G04 #@! TO.C,C43*
G36*
G01*
X144930000Y-110940000D02*
X145270000Y-110940000D01*
G75*
G02*
X145410000Y-111080000I0J-140000D01*
G01*
X145410000Y-111360000D01*
G75*
G02*
X145270000Y-111500000I-140000J0D01*
G01*
X144930000Y-111500000D01*
G75*
G02*
X144790000Y-111360000I0J140000D01*
G01*
X144790000Y-111080000D01*
G75*
G02*
X144930000Y-110940000I140000J0D01*
G01*
G37*
G36*
G01*
X144930000Y-111900000D02*
X145270000Y-111900000D01*
G75*
G02*
X145410000Y-112040000I0J-140000D01*
G01*
X145410000Y-112320000D01*
G75*
G02*
X145270000Y-112460000I-140000J0D01*
G01*
X144930000Y-112460000D01*
G75*
G02*
X144790000Y-112320000I0J140000D01*
G01*
X144790000Y-112040000D01*
G75*
G02*
X144930000Y-111900000I140000J0D01*
G01*
G37*
G04 #@! TD*
G04 #@! TO.C,R14*
G36*
G01*
X127215000Y-112220000D02*
X127585000Y-112220000D01*
G75*
G02*
X127720000Y-112355000I0J-135000D01*
G01*
X127720000Y-112625000D01*
G75*
G02*
X127585000Y-112760000I-135000J0D01*
G01*
X127215000Y-112760000D01*
G75*
G02*
X127080000Y-112625000I0J135000D01*
G01*
X127080000Y-112355000D01*
G75*
G02*
X127215000Y-112220000I135000J0D01*
G01*
G37*
G36*
G01*
X127215000Y-113240000D02*
X127585000Y-113240000D01*
G75*
G02*
X127720000Y-113375000I0J-135000D01*
G01*
X127720000Y-113645000D01*
G75*
G02*
X127585000Y-113780000I-135000J0D01*
G01*
X127215000Y-113780000D01*
G75*
G02*
X127080000Y-113645000I0J135000D01*
G01*
X127080000Y-113375000D01*
G75*
G02*
X127215000Y-113240000I135000J0D01*
G01*
G37*
G04 #@! TD*
G04 #@! TO.C,C52*
G36*
G01*
X156720000Y-119760000D02*
X156380000Y-119760000D01*
G75*
G02*
X156240000Y-119620000I0J140000D01*
G01*
X156240000Y-119340000D01*
G75*
G02*
X156380000Y-119200000I140000J0D01*
G01*
X156720000Y-119200000D01*
G75*
G02*
X156860000Y-119340000I0J-140000D01*
G01*
X156860000Y-119620000D01*
G75*
G02*
X156720000Y-119760000I-140000J0D01*
G01*
G37*
G36*
G01*
X156720000Y-118800000D02*
X156380000Y-118800000D01*
G75*
G02*
X156240000Y-118660000I0J140000D01*
G01*
X156240000Y-118380000D01*
G75*
G02*
X156380000Y-118240000I140000J0D01*
G01*
X156720000Y-118240000D01*
G75*
G02*
X156860000Y-118380000I0J-140000D01*
G01*
X156860000Y-118660000D01*
G75*
G02*
X156720000Y-118800000I-140000J0D01*
G01*
G37*
G04 #@! TD*
G04 #@! TO.C,C4*
G36*
G01*
X137540000Y-108120000D02*
X137540000Y-107780000D01*
G75*
G02*
X137680000Y-107640000I140000J0D01*
G01*
X137960000Y-107640000D01*
G75*
G02*
X138100000Y-107780000I0J-140000D01*
G01*
X138100000Y-108120000D01*
G75*
G02*
X137960000Y-108260000I-140000J0D01*
G01*
X137680000Y-108260000D01*
G75*
G02*
X137540000Y-108120000I0J140000D01*
G01*
G37*
G36*
G01*
X138500000Y-108120000D02*
X138500000Y-107780000D01*
G75*
G02*
X138640000Y-107640000I140000J0D01*
G01*
X138920000Y-107640000D01*
G75*
G02*
X139060000Y-107780000I0J-140000D01*
G01*
X139060000Y-108120000D01*
G75*
G02*
X138920000Y-108260000I-140000J0D01*
G01*
X138640000Y-108260000D01*
G75*
G02*
X138500000Y-108120000I0J140000D01*
G01*
G37*
G04 #@! TD*
G04 #@! TO.C,R12*
G36*
G01*
X130115000Y-104220000D02*
X130485000Y-104220000D01*
G75*
G02*
X130620000Y-104355000I0J-135000D01*
G01*
X130620000Y-104625000D01*
G75*
G02*
X130485000Y-104760000I-135000J0D01*
G01*
X130115000Y-104760000D01*
G75*
G02*
X129980000Y-104625000I0J135000D01*
G01*
X129980000Y-104355000D01*
G75*
G02*
X130115000Y-104220000I135000J0D01*
G01*
G37*
G36*
G01*
X130115000Y-105240000D02*
X130485000Y-105240000D01*
G75*
G02*
X130620000Y-105375000I0J-135000D01*
G01*
X130620000Y-105645000D01*
G75*
G02*
X130485000Y-105780000I-135000J0D01*
G01*
X130115000Y-105780000D01*
G75*
G02*
X129980000Y-105645000I0J135000D01*
G01*
X129980000Y-105375000D01*
G75*
G02*
X130115000Y-105240000I135000J0D01*
G01*
G37*
G04 #@! TD*
G04 #@! TO.C,C25*
G36*
G01*
X137460000Y-103780000D02*
X137460000Y-104120000D01*
G75*
G02*
X137320000Y-104260000I-140000J0D01*
G01*
X137040000Y-104260000D01*
G75*
G02*
X136900000Y-104120000I0J140000D01*
G01*
X136900000Y-103780000D01*
G75*
G02*
X137040000Y-103640000I140000J0D01*
G01*
X137320000Y-103640000D01*
G75*
G02*
X137460000Y-103780000I0J-140000D01*
G01*
G37*
G36*
G01*
X136500000Y-103780000D02*
X136500000Y-104120000D01*
G75*
G02*
X136360000Y-104260000I-140000J0D01*
G01*
X136080000Y-104260000D01*
G75*
G02*
X135940000Y-104120000I0J140000D01*
G01*
X135940000Y-103780000D01*
G75*
G02*
X136080000Y-103640000I140000J0D01*
G01*
X136360000Y-103640000D01*
G75*
G02*
X136500000Y-103780000I0J-140000D01*
G01*
G37*
G04 #@! TD*
D12*
G04 #@! TO.C,J4*
X137050000Y-89330000D03*
D13*
X135575000Y-87805000D03*
X138525000Y-87805000D03*
G04 #@! TD*
G04 #@! TO.C,C27*
G36*
G01*
X136110000Y-99530000D02*
X136110000Y-99870000D01*
G75*
G02*
X135970000Y-100010000I-140000J0D01*
G01*
X135690000Y-100010000D01*
G75*
G02*
X135550000Y-99870000I0J140000D01*
G01*
X135550000Y-99530000D01*
G75*
G02*
X135690000Y-99390000I140000J0D01*
G01*
X135970000Y-99390000D01*
G75*
G02*
X136110000Y-99530000I0J-140000D01*
G01*
G37*
G36*
G01*
X135150000Y-99530000D02*
X135150000Y-99870000D01*
G75*
G02*
X135010000Y-100010000I-140000J0D01*
G01*
X134730000Y-100010000D01*
G75*
G02*
X134590000Y-99870000I0J140000D01*
G01*
X134590000Y-99530000D01*
G75*
G02*
X134730000Y-99390000I140000J0D01*
G01*
X135010000Y-99390000D01*
G75*
G02*
X135150000Y-99530000I0J-140000D01*
G01*
G37*
G04 #@! TD*
G04 #@! TO.C,C36*
G36*
G01*
X148145000Y-88680000D02*
X148145000Y-89020000D01*
G75*
G02*
X148005000Y-89160000I-140000J0D01*
G01*
X147725000Y-89160000D01*
G75*
G02*
X147585000Y-89020000I0J140000D01*
G01*
X147585000Y-88680000D01*
G75*
G02*
X147725000Y-88540000I140000J0D01*
G01*
X148005000Y-88540000D01*
G75*
G02*
X148145000Y-88680000I0J-140000D01*
G01*
G37*
G36*
G01*
X147185000Y-88680000D02*
X147185000Y-89020000D01*
G75*
G02*
X147045000Y-89160000I-140000J0D01*
G01*
X146765000Y-89160000D01*
G75*
G02*
X146625000Y-89020000I0J140000D01*
G01*
X146625000Y-88680000D01*
G75*
G02*
X146765000Y-88540000I140000J0D01*
G01*
X147045000Y-88540000D01*
G75*
G02*
X147185000Y-88680000I0J-140000D01*
G01*
G37*
G04 #@! TD*
D14*
G04 #@! TO.C,FL1*
X157275000Y-100125000D03*
X158525000Y-100125000D03*
X158525000Y-100675000D03*
X157275000Y-100675000D03*
G04 #@! TD*
G04 #@! TO.C,C34*
G36*
G01*
X141850000Y-99625000D02*
X142350000Y-99625000D01*
G75*
G02*
X142575000Y-99850000I0J-225000D01*
G01*
X142575000Y-100300000D01*
G75*
G02*
X142350000Y-100525000I-225000J0D01*
G01*
X141850000Y-100525000D01*
G75*
G02*
X141625000Y-100300000I0J225000D01*
G01*
X141625000Y-99850000D01*
G75*
G02*
X141850000Y-99625000I225000J0D01*
G01*
G37*
G36*
G01*
X141850000Y-101175000D02*
X142350000Y-101175000D01*
G75*
G02*
X142575000Y-101400000I0J-225000D01*
G01*
X142575000Y-101850000D01*
G75*
G02*
X142350000Y-102075000I-225000J0D01*
G01*
X141850000Y-102075000D01*
G75*
G02*
X141625000Y-101850000I0J225000D01*
G01*
X141625000Y-101400000D01*
G75*
G02*
X141850000Y-101175000I225000J0D01*
G01*
G37*
G04 #@! TD*
G04 #@! TO.C,C61*
G36*
G01*
X129230000Y-112240000D02*
X129570000Y-112240000D01*
G75*
G02*
X129710000Y-112380000I0J-140000D01*
G01*
X129710000Y-112660000D01*
G75*
G02*
X129570000Y-112800000I-140000J0D01*
G01*
X129230000Y-112800000D01*
G75*
G02*
X129090000Y-112660000I0J140000D01*
G01*
X129090000Y-112380000D01*
G75*
G02*
X129230000Y-112240000I140000J0D01*
G01*
G37*
G36*
G01*
X129230000Y-113200000D02*
X129570000Y-113200000D01*
G75*
G02*
X129710000Y-113340000I0J-140000D01*
G01*
X129710000Y-113620000D01*
G75*
G02*
X129570000Y-113760000I-140000J0D01*
G01*
X129230000Y-113760000D01*
G75*
G02*
X129090000Y-113620000I0J140000D01*
G01*
X129090000Y-113340000D01*
G75*
G02*
X129230000Y-113200000I140000J0D01*
G01*
G37*
G04 #@! TD*
G04 #@! TO.C,C21*
G36*
G01*
X149320000Y-109760000D02*
X148980000Y-109760000D01*
G75*
G02*
X148840000Y-109620000I0J140000D01*
G01*
X148840000Y-109340000D01*
G75*
G02*
X148980000Y-109200000I140000J0D01*
G01*
X149320000Y-109200000D01*
G75*
G02*
X149460000Y-109340000I0J-140000D01*
G01*
X149460000Y-109620000D01*
G75*
G02*
X149320000Y-109760000I-140000J0D01*
G01*
G37*
G36*
G01*
X149320000Y-108800000D02*
X148980000Y-108800000D01*
G75*
G02*
X148840000Y-108660000I0J140000D01*
G01*
X148840000Y-108380000D01*
G75*
G02*
X148980000Y-108240000I140000J0D01*
G01*
X149320000Y-108240000D01*
G75*
G02*
X149460000Y-108380000I0J-140000D01*
G01*
X149460000Y-108660000D01*
G75*
G02*
X149320000Y-108800000I-140000J0D01*
G01*
G37*
G04 #@! TD*
G04 #@! TO.C,C31*
G36*
G01*
X136060000Y-105830000D02*
X136060000Y-106170000D01*
G75*
G02*
X135920000Y-106310000I-140000J0D01*
G01*
X135640000Y-106310000D01*
G75*
G02*
X135500000Y-106170000I0J140000D01*
G01*
X135500000Y-105830000D01*
G75*
G02*
X135640000Y-105690000I140000J0D01*
G01*
X135920000Y-105690000D01*
G75*
G02*
X136060000Y-105830000I0J-140000D01*
G01*
G37*
G36*
G01*
X135100000Y-105830000D02*
X135100000Y-106170000D01*
G75*
G02*
X134960000Y-106310000I-140000J0D01*
G01*
X134680000Y-106310000D01*
G75*
G02*
X134540000Y-106170000I0J140000D01*
G01*
X134540000Y-105830000D01*
G75*
G02*
X134680000Y-105690000I140000J0D01*
G01*
X134960000Y-105690000D01*
G75*
G02*
X135100000Y-105830000I0J-140000D01*
G01*
G37*
G04 #@! TD*
G04 #@! TO.C,C26*
G36*
G01*
X137880000Y-110940000D02*
X138220000Y-110940000D01*
G75*
G02*
X138360000Y-111080000I0J-140000D01*
G01*
X138360000Y-111360000D01*
G75*
G02*
X138220000Y-111500000I-140000J0D01*
G01*
X137880000Y-111500000D01*
G75*
G02*
X137740000Y-111360000I0J140000D01*
G01*
X137740000Y-111080000D01*
G75*
G02*
X137880000Y-110940000I140000J0D01*
G01*
G37*
G36*
G01*
X137880000Y-111900000D02*
X138220000Y-111900000D01*
G75*
G02*
X138360000Y-112040000I0J-140000D01*
G01*
X138360000Y-112320000D01*
G75*
G02*
X138220000Y-112460000I-140000J0D01*
G01*
X137880000Y-112460000D01*
G75*
G02*
X137740000Y-112320000I0J140000D01*
G01*
X137740000Y-112040000D01*
G75*
G02*
X137880000Y-111900000I140000J0D01*
G01*
G37*
G04 #@! TD*
G04 #@! TO.C,U2*
G36*
G01*
X126075000Y-109725000D02*
X125775000Y-109725000D01*
G75*
G02*
X125625000Y-109575000I0J150000D01*
G01*
X125625000Y-108550000D01*
G75*
G02*
X125775000Y-108400000I150000J0D01*
G01*
X126075000Y-108400000D01*
G75*
G02*
X126225000Y-108550000I0J-150000D01*
G01*
X126225000Y-109575000D01*
G75*
G02*
X126075000Y-109725000I-150000J0D01*
G01*
G37*
G36*
G01*
X127025000Y-109725000D02*
X126725000Y-109725000D01*
G75*
G02*
X126575000Y-109575000I0J150000D01*
G01*
X126575000Y-108550000D01*
G75*
G02*
X126725000Y-108400000I150000J0D01*
G01*
X127025000Y-108400000D01*
G75*
G02*
X127175000Y-108550000I0J-150000D01*
G01*
X127175000Y-109575000D01*
G75*
G02*
X127025000Y-109725000I-150000J0D01*
G01*
G37*
G36*
G01*
X127975000Y-109725000D02*
X127675000Y-109725000D01*
G75*
G02*
X127525000Y-109575000I0J150000D01*
G01*
X127525000Y-108550000D01*
G75*
G02*
X127675000Y-108400000I150000J0D01*
G01*
X127975000Y-108400000D01*
G75*
G02*
X128125000Y-108550000I0J-150000D01*
G01*
X128125000Y-109575000D01*
G75*
G02*
X127975000Y-109725000I-150000J0D01*
G01*
G37*
G36*
G01*
X127975000Y-107450000D02*
X127675000Y-107450000D01*
G75*
G02*
X127525000Y-107300000I0J150000D01*
G01*
X127525000Y-106275000D01*
G75*
G02*
X127675000Y-106125000I150000J0D01*
G01*
X127975000Y-106125000D01*
G75*
G02*
X128125000Y-106275000I0J-150000D01*
G01*
X128125000Y-107300000D01*
G75*
G02*
X127975000Y-107450000I-150000J0D01*
G01*
G37*
G36*
G01*
X126075000Y-107450000D02*
X125775000Y-107450000D01*
G75*
G02*
X125625000Y-107300000I0J150000D01*
G01*
X125625000Y-106275000D01*
G75*
G02*
X125775000Y-106125000I150000J0D01*
G01*
X126075000Y-106125000D01*
G75*
G02*
X126225000Y-106275000I0J-150000D01*
G01*
X126225000Y-107300000D01*
G75*
G02*
X126075000Y-107450000I-150000J0D01*
G01*
G37*
G04 #@! TD*
G04 #@! TO.C,C54*
G36*
G01*
X150890000Y-120920000D02*
X150890000Y-120580000D01*
G75*
G02*
X151030000Y-120440000I140000J0D01*
G01*
X151310000Y-120440000D01*
G75*
G02*
X151450000Y-120580000I0J-140000D01*
G01*
X151450000Y-120920000D01*
G75*
G02*
X151310000Y-121060000I-140000J0D01*
G01*
X151030000Y-121060000D01*
G75*
G02*
X150890000Y-120920000I0J140000D01*
G01*
G37*
G36*
G01*
X151850000Y-120920000D02*
X151850000Y-120580000D01*
G75*
G02*
X151990000Y-120440000I140000J0D01*
G01*
X152270000Y-120440000D01*
G75*
G02*
X152410000Y-120580000I0J-140000D01*
G01*
X152410000Y-120920000D01*
G75*
G02*
X152270000Y-121060000I-140000J0D01*
G01*
X151990000Y-121060000D01*
G75*
G02*
X151850000Y-120920000I0J140000D01*
G01*
G37*
G04 #@! TD*
G04 #@! TO.C,FB3*
G36*
G01*
X134925000Y-122806250D02*
X134925000Y-122293750D01*
G75*
G02*
X135143750Y-122075000I218750J0D01*
G01*
X135581250Y-122075000D01*
G75*
G02*
X135800000Y-122293750I0J-218750D01*
G01*
X135800000Y-122806250D01*
G75*
G02*
X135581250Y-123025000I-218750J0D01*
G01*
X135143750Y-123025000D01*
G75*
G02*
X134925000Y-122806250I0J218750D01*
G01*
G37*
G36*
G01*
X136500000Y-122806250D02*
X136500000Y-122293750D01*
G75*
G02*
X136718750Y-122075000I218750J0D01*
G01*
X137156250Y-122075000D01*
G75*
G02*
X137375000Y-122293750I0J-218750D01*
G01*
X137375000Y-122806250D01*
G75*
G02*
X137156250Y-123025000I-218750J0D01*
G01*
X136718750Y-123025000D01*
G75*
G02*
X136500000Y-122806250I0J218750D01*
G01*
G37*
G04 #@! TD*
G04 #@! TO.C,R3*
G36*
G01*
X129960000Y-98255000D02*
X129590000Y-98255000D01*
G75*
G02*
X129455000Y-98120000I0J135000D01*
G01*
X129455000Y-97850000D01*
G75*
G02*
X129590000Y-97715000I135000J0D01*
G01*
X129960000Y-97715000D01*
G75*
G02*
X130095000Y-97850000I0J-135000D01*
G01*
X130095000Y-98120000D01*
G75*
G02*
X129960000Y-98255000I-135000J0D01*
G01*
G37*
G36*
G01*
X129960000Y-97235000D02*
X129590000Y-97235000D01*
G75*
G02*
X129455000Y-97100000I0J135000D01*
G01*
X129455000Y-96830000D01*
G75*
G02*
X129590000Y-96695000I135000J0D01*
G01*
X129960000Y-96695000D01*
G75*
G02*
X130095000Y-96830000I0J-135000D01*
G01*
X130095000Y-97100000D01*
G75*
G02*
X129960000Y-97235000I-135000J0D01*
G01*
G37*
G04 #@! TD*
G04 #@! TO.C,R1*
G36*
G01*
X139930000Y-117865000D02*
X139930000Y-118235000D01*
G75*
G02*
X139795000Y-118370000I-135000J0D01*
G01*
X139525000Y-118370000D01*
G75*
G02*
X139390000Y-118235000I0J135000D01*
G01*
X139390000Y-117865000D01*
G75*
G02*
X139525000Y-117730000I135000J0D01*
G01*
X139795000Y-117730000D01*
G75*
G02*
X139930000Y-117865000I0J-135000D01*
G01*
G37*
G36*
G01*
X138910000Y-117865000D02*
X138910000Y-118235000D01*
G75*
G02*
X138775000Y-118370000I-135000J0D01*
G01*
X138505000Y-118370000D01*
G75*
G02*
X138370000Y-118235000I0J135000D01*
G01*
X138370000Y-117865000D01*
G75*
G02*
X138505000Y-117730000I135000J0D01*
G01*
X138775000Y-117730000D01*
G75*
G02*
X138910000Y-117865000I0J-135000D01*
G01*
G37*
G04 #@! TD*
G04 #@! TO.C,C47*
G36*
G01*
X146430000Y-110940000D02*
X146770000Y-110940000D01*
G75*
G02*
X146910000Y-111080000I0J-140000D01*
G01*
X146910000Y-111360000D01*
G75*
G02*
X146770000Y-111500000I-140000J0D01*
G01*
X146430000Y-111500000D01*
G75*
G02*
X146290000Y-111360000I0J140000D01*
G01*
X146290000Y-111080000D01*
G75*
G02*
X146430000Y-110940000I140000J0D01*
G01*
G37*
G36*
G01*
X146430000Y-111900000D02*
X146770000Y-111900000D01*
G75*
G02*
X146910000Y-112040000I0J-140000D01*
G01*
X146910000Y-112320000D01*
G75*
G02*
X146770000Y-112460000I-140000J0D01*
G01*
X146430000Y-112460000D01*
G75*
G02*
X146290000Y-112320000I0J140000D01*
G01*
X146290000Y-112040000D01*
G75*
G02*
X146430000Y-111900000I140000J0D01*
G01*
G37*
G04 #@! TD*
G04 #@! TO.C,FL2*
X157275000Y-101625000D03*
X158525000Y-101625000D03*
X158525000Y-102175000D03*
X157275000Y-102175000D03*
G04 #@! TD*
G04 #@! TO.C,C55*
G36*
G01*
X152640000Y-89170000D02*
X152640000Y-88830000D01*
G75*
G02*
X152780000Y-88690000I140000J0D01*
G01*
X153060000Y-88690000D01*
G75*
G02*
X153200000Y-88830000I0J-140000D01*
G01*
X153200000Y-89170000D01*
G75*
G02*
X153060000Y-89310000I-140000J0D01*
G01*
X152780000Y-89310000D01*
G75*
G02*
X152640000Y-89170000I0J140000D01*
G01*
G37*
G36*
G01*
X153600000Y-89170000D02*
X153600000Y-88830000D01*
G75*
G02*
X153740000Y-88690000I140000J0D01*
G01*
X154020000Y-88690000D01*
G75*
G02*
X154160000Y-88830000I0J-140000D01*
G01*
X154160000Y-89170000D01*
G75*
G02*
X154020000Y-89310000I-140000J0D01*
G01*
X153740000Y-89310000D01*
G75*
G02*
X153600000Y-89170000I0J140000D01*
G01*
G37*
G04 #@! TD*
G04 #@! TO.C,C9*
G36*
G01*
X148140000Y-105440000D02*
X148140000Y-105100000D01*
G75*
G02*
X148280000Y-104960000I140000J0D01*
G01*
X148560000Y-104960000D01*
G75*
G02*
X148700000Y-105100000I0J-140000D01*
G01*
X148700000Y-105440000D01*
G75*
G02*
X148560000Y-105580000I-140000J0D01*
G01*
X148280000Y-105580000D01*
G75*
G02*
X148140000Y-105440000I0J140000D01*
G01*
G37*
G36*
G01*
X149100000Y-105440000D02*
X149100000Y-105100000D01*
G75*
G02*
X149240000Y-104960000I140000J0D01*
G01*
X149520000Y-104960000D01*
G75*
G02*
X149660000Y-105100000I0J-140000D01*
G01*
X149660000Y-105440000D01*
G75*
G02*
X149520000Y-105580000I-140000J0D01*
G01*
X149240000Y-105580000D01*
G75*
G02*
X149100000Y-105440000I0J140000D01*
G01*
G37*
G04 #@! TD*
D15*
G04 #@! TO.C,TP2*
X126000000Y-103000000D03*
G04 #@! TD*
G04 #@! TO.C,U1*
G36*
G01*
X137100000Y-116150000D02*
X137400000Y-116150000D01*
G75*
G02*
X137550000Y-116300000I0J-150000D01*
G01*
X137550000Y-117325000D01*
G75*
G02*
X137400000Y-117475000I-150000J0D01*
G01*
X137100000Y-117475000D01*
G75*
G02*
X136950000Y-117325000I0J150000D01*
G01*
X136950000Y-116300000D01*
G75*
G02*
X137100000Y-116150000I150000J0D01*
G01*
G37*
G36*
G01*
X136150000Y-116150000D02*
X136450000Y-116150000D01*
G75*
G02*
X136600000Y-116300000I0J-150000D01*
G01*
X136600000Y-117325000D01*
G75*
G02*
X136450000Y-117475000I-150000J0D01*
G01*
X136150000Y-117475000D01*
G75*
G02*
X136000000Y-117325000I0J150000D01*
G01*
X136000000Y-116300000D01*
G75*
G02*
X136150000Y-116150000I150000J0D01*
G01*
G37*
G36*
G01*
X135200000Y-116150000D02*
X135500000Y-116150000D01*
G75*
G02*
X135650000Y-116300000I0J-150000D01*
G01*
X135650000Y-117325000D01*
G75*
G02*
X135500000Y-117475000I-150000J0D01*
G01*
X135200000Y-117475000D01*
G75*
G02*
X135050000Y-117325000I0J150000D01*
G01*
X135050000Y-116300000D01*
G75*
G02*
X135200000Y-116150000I150000J0D01*
G01*
G37*
G36*
G01*
X135200000Y-118425000D02*
X135500000Y-118425000D01*
G75*
G02*
X135650000Y-118575000I0J-150000D01*
G01*
X135650000Y-119600000D01*
G75*
G02*
X135500000Y-119750000I-150000J0D01*
G01*
X135200000Y-119750000D01*
G75*
G02*
X135050000Y-119600000I0J150000D01*
G01*
X135050000Y-118575000D01*
G75*
G02*
X135200000Y-118425000I150000J0D01*
G01*
G37*
G36*
G01*
X137100000Y-118425000D02*
X137400000Y-118425000D01*
G75*
G02*
X137550000Y-118575000I0J-150000D01*
G01*
X137550000Y-119600000D01*
G75*
G02*
X137400000Y-119750000I-150000J0D01*
G01*
X137100000Y-119750000D01*
G75*
G02*
X136950000Y-119600000I0J150000D01*
G01*
X136950000Y-118575000D01*
G75*
G02*
X137100000Y-118425000I150000J0D01*
G01*
G37*
G04 #@! TD*
G04 #@! TO.C,C20*
G36*
G01*
X136060000Y-107930000D02*
X136060000Y-108270000D01*
G75*
G02*
X135920000Y-108410000I-140000J0D01*
G01*
X135640000Y-108410000D01*
G75*
G02*
X135500000Y-108270000I0J140000D01*
G01*
X135500000Y-107930000D01*
G75*
G02*
X135640000Y-107790000I140000J0D01*
G01*
X135920000Y-107790000D01*
G75*
G02*
X136060000Y-107930000I0J-140000D01*
G01*
G37*
G36*
G01*
X135100000Y-107930000D02*
X135100000Y-108270000D01*
G75*
G02*
X134960000Y-108410000I-140000J0D01*
G01*
X134680000Y-108410000D01*
G75*
G02*
X134540000Y-108270000I0J140000D01*
G01*
X134540000Y-107930000D01*
G75*
G02*
X134680000Y-107790000I140000J0D01*
G01*
X134960000Y-107790000D01*
G75*
G02*
X135100000Y-107930000I0J-140000D01*
G01*
G37*
G04 #@! TD*
G04 #@! TO.C,R11*
G36*
G01*
X154670000Y-122535000D02*
X154670000Y-122165000D01*
G75*
G02*
X154805000Y-122030000I135000J0D01*
G01*
X155075000Y-122030000D01*
G75*
G02*
X155210000Y-122165000I0J-135000D01*
G01*
X155210000Y-122535000D01*
G75*
G02*
X155075000Y-122670000I-135000J0D01*
G01*
X154805000Y-122670000D01*
G75*
G02*
X154670000Y-122535000I0J135000D01*
G01*
G37*
G36*
G01*
X155690000Y-122535000D02*
X155690000Y-122165000D01*
G75*
G02*
X155825000Y-122030000I135000J0D01*
G01*
X156095000Y-122030000D01*
G75*
G02*
X156230000Y-122165000I0J-135000D01*
G01*
X156230000Y-122535000D01*
G75*
G02*
X156095000Y-122670000I-135000J0D01*
G01*
X155825000Y-122670000D01*
G75*
G02*
X155690000Y-122535000I0J135000D01*
G01*
G37*
G04 #@! TD*
G04 #@! TO.C,R6*
G36*
G01*
X147885000Y-114180000D02*
X147515000Y-114180000D01*
G75*
G02*
X147380000Y-114045000I0J135000D01*
G01*
X147380000Y-113775000D01*
G75*
G02*
X147515000Y-113640000I135000J0D01*
G01*
X147885000Y-113640000D01*
G75*
G02*
X148020000Y-113775000I0J-135000D01*
G01*
X148020000Y-114045000D01*
G75*
G02*
X147885000Y-114180000I-135000J0D01*
G01*
G37*
G36*
G01*
X147885000Y-113160000D02*
X147515000Y-113160000D01*
G75*
G02*
X147380000Y-113025000I0J135000D01*
G01*
X147380000Y-112755000D01*
G75*
G02*
X147515000Y-112620000I135000J0D01*
G01*
X147885000Y-112620000D01*
G75*
G02*
X148020000Y-112755000I0J-135000D01*
G01*
X148020000Y-113025000D01*
G75*
G02*
X147885000Y-113160000I-135000J0D01*
G01*
G37*
G04 #@! TD*
G04 #@! TO.C,C29*
G36*
G01*
X136880000Y-110940000D02*
X137220000Y-110940000D01*
G75*
G02*
X137360000Y-111080000I0J-140000D01*
G01*
X137360000Y-111360000D01*
G75*
G02*
X137220000Y-111500000I-140000J0D01*
G01*
X136880000Y-111500000D01*
G75*
G02*
X136740000Y-111360000I0J140000D01*
G01*
X136740000Y-111080000D01*
G75*
G02*
X136880000Y-110940000I140000J0D01*
G01*
G37*
G36*
G01*
X136880000Y-111900000D02*
X137220000Y-111900000D01*
G75*
G02*
X137360000Y-112040000I0J-140000D01*
G01*
X137360000Y-112320000D01*
G75*
G02*
X137220000Y-112460000I-140000J0D01*
G01*
X136880000Y-112460000D01*
G75*
G02*
X136740000Y-112320000I0J140000D01*
G01*
X136740000Y-112040000D01*
G75*
G02*
X136880000Y-111900000I140000J0D01*
G01*
G37*
G04 #@! TD*
G04 #@! TO.C,R5*
G36*
G01*
X129960000Y-92255000D02*
X129590000Y-92255000D01*
G75*
G02*
X129455000Y-92120000I0J135000D01*
G01*
X129455000Y-91850000D01*
G75*
G02*
X129590000Y-91715000I135000J0D01*
G01*
X129960000Y-91715000D01*
G75*
G02*
X130095000Y-91850000I0J-135000D01*
G01*
X130095000Y-92120000D01*
G75*
G02*
X129960000Y-92255000I-135000J0D01*
G01*
G37*
G36*
G01*
X129960000Y-91235000D02*
X129590000Y-91235000D01*
G75*
G02*
X129455000Y-91100000I0J135000D01*
G01*
X129455000Y-90830000D01*
G75*
G02*
X129590000Y-90695000I135000J0D01*
G01*
X129960000Y-90695000D01*
G75*
G02*
X130095000Y-90830000I0J-135000D01*
G01*
X130095000Y-91100000D01*
G75*
G02*
X129960000Y-91235000I-135000J0D01*
G01*
G37*
G04 #@! TD*
G04 #@! TO.C,R9*
G36*
G01*
X134570000Y-98885000D02*
X134570000Y-98515000D01*
G75*
G02*
X134705000Y-98380000I135000J0D01*
G01*
X134975000Y-98380000D01*
G75*
G02*
X135110000Y-98515000I0J-135000D01*
G01*
X135110000Y-98885000D01*
G75*
G02*
X134975000Y-99020000I-135000J0D01*
G01*
X134705000Y-99020000D01*
G75*
G02*
X134570000Y-98885000I0J135000D01*
G01*
G37*
G36*
G01*
X135590000Y-98885000D02*
X135590000Y-98515000D01*
G75*
G02*
X135725000Y-98380000I135000J0D01*
G01*
X135995000Y-98380000D01*
G75*
G02*
X136130000Y-98515000I0J-135000D01*
G01*
X136130000Y-98885000D01*
G75*
G02*
X135995000Y-99020000I-135000J0D01*
G01*
X135725000Y-99020000D01*
G75*
G02*
X135590000Y-98885000I0J135000D01*
G01*
G37*
G04 #@! TD*
G04 #@! TO.C,R2*
G36*
G01*
X138370000Y-119285000D02*
X138370000Y-118915000D01*
G75*
G02*
X138505000Y-118780000I135000J0D01*
G01*
X138775000Y-118780000D01*
G75*
G02*
X138910000Y-118915000I0J-135000D01*
G01*
X138910000Y-119285000D01*
G75*
G02*
X138775000Y-119420000I-135000J0D01*
G01*
X138505000Y-119420000D01*
G75*
G02*
X138370000Y-119285000I0J135000D01*
G01*
G37*
G36*
G01*
X139390000Y-119285000D02*
X139390000Y-118915000D01*
G75*
G02*
X139525000Y-118780000I135000J0D01*
G01*
X139795000Y-118780000D01*
G75*
G02*
X139930000Y-118915000I0J-135000D01*
G01*
X139930000Y-119285000D01*
G75*
G02*
X139795000Y-119420000I-135000J0D01*
G01*
X139525000Y-119420000D01*
G75*
G02*
X139390000Y-119285000I0J135000D01*
G01*
G37*
G04 #@! TD*
G04 #@! TO.C,C50*
G36*
G01*
X132450000Y-106275000D02*
X132950000Y-106275000D01*
G75*
G02*
X133175000Y-106500000I0J-225000D01*
G01*
X133175000Y-106950000D01*
G75*
G02*
X132950000Y-107175000I-225000J0D01*
G01*
X132450000Y-107175000D01*
G75*
G02*
X132225000Y-106950000I0J225000D01*
G01*
X132225000Y-106500000D01*
G75*
G02*
X132450000Y-106275000I225000J0D01*
G01*
G37*
G36*
G01*
X132450000Y-107825000D02*
X132950000Y-107825000D01*
G75*
G02*
X133175000Y-108050000I0J-225000D01*
G01*
X133175000Y-108500000D01*
G75*
G02*
X132950000Y-108725000I-225000J0D01*
G01*
X132450000Y-108725000D01*
G75*
G02*
X132225000Y-108500000I0J225000D01*
G01*
X132225000Y-108050000D01*
G75*
G02*
X132450000Y-107825000I225000J0D01*
G01*
G37*
G04 #@! TD*
D12*
G04 #@! TO.C,J5*
X132050000Y-89330000D03*
D13*
X130575000Y-87805000D03*
X133525000Y-87805000D03*
G04 #@! TD*
D15*
G04 #@! TO.C,TP6*
X152700000Y-87000000D03*
G04 #@! TD*
G04 #@! TO.C,J7*
G36*
G01*
X162650000Y-118725000D02*
X161450000Y-118725000D01*
G75*
G02*
X161250000Y-118525000I0J200000D01*
G01*
X161250000Y-118125000D01*
G75*
G02*
X161450000Y-117925000I200000J0D01*
G01*
X162650000Y-117925000D01*
G75*
G02*
X162850000Y-118125000I0J-200000D01*
G01*
X162850000Y-118525000D01*
G75*
G02*
X162650000Y-118725000I-200000J0D01*
G01*
G37*
G36*
G01*
X162650000Y-117475000D02*
X161450000Y-117475000D01*
G75*
G02*
X161250000Y-117275000I0J200000D01*
G01*
X161250000Y-116875000D01*
G75*
G02*
X161450000Y-116675000I200000J0D01*
G01*
X162650000Y-116675000D01*
G75*
G02*
X162850000Y-116875000I0J-200000D01*
G01*
X162850000Y-117275000D01*
G75*
G02*
X162650000Y-117475000I-200000J0D01*
G01*
G37*
G36*
G01*
X166199999Y-115575000D02*
X163700001Y-115575000D01*
G75*
G02*
X163450000Y-115324999I0J250001D01*
G01*
X163450000Y-113725001D01*
G75*
G02*
X163700001Y-113475000I250001J0D01*
G01*
X166199999Y-113475000D01*
G75*
G02*
X166450000Y-113725001I0J-250001D01*
G01*
X166450000Y-115324999D01*
G75*
G02*
X166199999Y-115575000I-250001J0D01*
G01*
G37*
G36*
G01*
X166199999Y-121925000D02*
X163700001Y-121925000D01*
G75*
G02*
X163450000Y-121674999I0J250001D01*
G01*
X163450000Y-120075001D01*
G75*
G02*
X163700001Y-119825000I250001J0D01*
G01*
X166199999Y-119825000D01*
G75*
G02*
X166450000Y-120075001I0J-250001D01*
G01*
X166450000Y-121674999D01*
G75*
G02*
X166199999Y-121925000I-250001J0D01*
G01*
G37*
G04 #@! TD*
G04 #@! TO.C,C6*
G36*
G01*
X139530000Y-100440000D02*
X139870000Y-100440000D01*
G75*
G02*
X140010000Y-100580000I0J-140000D01*
G01*
X140010000Y-100860000D01*
G75*
G02*
X139870000Y-101000000I-140000J0D01*
G01*
X139530000Y-101000000D01*
G75*
G02*
X139390000Y-100860000I0J140000D01*
G01*
X139390000Y-100580000D01*
G75*
G02*
X139530000Y-100440000I140000J0D01*
G01*
G37*
G36*
G01*
X139530000Y-101400000D02*
X139870000Y-101400000D01*
G75*
G02*
X140010000Y-101540000I0J-140000D01*
G01*
X140010000Y-101820000D01*
G75*
G02*
X139870000Y-101960000I-140000J0D01*
G01*
X139530000Y-101960000D01*
G75*
G02*
X139390000Y-101820000I0J140000D01*
G01*
X139390000Y-101540000D01*
G75*
G02*
X139530000Y-101400000I140000J0D01*
G01*
G37*
G04 #@! TD*
G04 #@! TO.C,TP4*
X155600000Y-89200000D03*
G04 #@! TD*
D16*
G04 #@! TO.C,H2*
X126600000Y-121900000D03*
G04 #@! TD*
D10*
G04 #@! TO.C,C60*
X156700000Y-115100000D03*
D11*
X155900000Y-114700000D03*
X155900000Y-115500000D03*
D10*
X155100000Y-115100000D03*
G04 #@! TD*
D17*
G04 #@! TO.C,D1*
X158050000Y-113900000D03*
X161350000Y-113900000D03*
G04 #@! TD*
G04 #@! TO.C,U7*
G36*
G01*
X150200000Y-122525000D02*
X150200000Y-122725000D01*
G75*
G02*
X150100000Y-122825000I-100000J0D01*
G01*
X148825000Y-122825000D01*
G75*
G02*
X148725000Y-122725000I0J100000D01*
G01*
X148725000Y-122525000D01*
G75*
G02*
X148825000Y-122425000I100000J0D01*
G01*
X150100000Y-122425000D01*
G75*
G02*
X150200000Y-122525000I0J-100000D01*
G01*
G37*
G36*
G01*
X150200000Y-121875000D02*
X150200000Y-122075000D01*
G75*
G02*
X150100000Y-122175000I-100000J0D01*
G01*
X148825000Y-122175000D01*
G75*
G02*
X148725000Y-122075000I0J100000D01*
G01*
X148725000Y-121875000D01*
G75*
G02*
X148825000Y-121775000I100000J0D01*
G01*
X150100000Y-121775000D01*
G75*
G02*
X150200000Y-121875000I0J-100000D01*
G01*
G37*
G36*
G01*
X150200000Y-121225000D02*
X150200000Y-121425000D01*
G75*
G02*
X150100000Y-121525000I-100000J0D01*
G01*
X148825000Y-121525000D01*
G75*
G02*
X148725000Y-121425000I0J100000D01*
G01*
X148725000Y-121225000D01*
G75*
G02*
X148825000Y-121125000I100000J0D01*
G01*
X150100000Y-121125000D01*
G75*
G02*
X150200000Y-121225000I0J-100000D01*
G01*
G37*
G36*
G01*
X150200000Y-120575000D02*
X150200000Y-120775000D01*
G75*
G02*
X150100000Y-120875000I-100000J0D01*
G01*
X148825000Y-120875000D01*
G75*
G02*
X148725000Y-120775000I0J100000D01*
G01*
X148725000Y-120575000D01*
G75*
G02*
X148825000Y-120475000I100000J0D01*
G01*
X150100000Y-120475000D01*
G75*
G02*
X150200000Y-120575000I0J-100000D01*
G01*
G37*
G36*
G01*
X150200000Y-119925000D02*
X150200000Y-120125000D01*
G75*
G02*
X150100000Y-120225000I-100000J0D01*
G01*
X148825000Y-120225000D01*
G75*
G02*
X148725000Y-120125000I0J100000D01*
G01*
X148725000Y-119925000D01*
G75*
G02*
X148825000Y-119825000I100000J0D01*
G01*
X150100000Y-119825000D01*
G75*
G02*
X150200000Y-119925000I0J-100000D01*
G01*
G37*
G36*
G01*
X150200000Y-119275000D02*
X150200000Y-119475000D01*
G75*
G02*
X150100000Y-119575000I-100000J0D01*
G01*
X148825000Y-119575000D01*
G75*
G02*
X148725000Y-119475000I0J100000D01*
G01*
X148725000Y-119275000D01*
G75*
G02*
X148825000Y-119175000I100000J0D01*
G01*
X150100000Y-119175000D01*
G75*
G02*
X150200000Y-119275000I0J-100000D01*
G01*
G37*
G36*
G01*
X150200000Y-118625000D02*
X150200000Y-118825000D01*
G75*
G02*
X150100000Y-118925000I-100000J0D01*
G01*
X148825000Y-118925000D01*
G75*
G02*
X148725000Y-118825000I0J100000D01*
G01*
X148725000Y-118625000D01*
G75*
G02*
X148825000Y-118525000I100000J0D01*
G01*
X150100000Y-118525000D01*
G75*
G02*
X150200000Y-118625000I0J-100000D01*
G01*
G37*
G36*
G01*
X150200000Y-117975000D02*
X150200000Y-118175000D01*
G75*
G02*
X150100000Y-118275000I-100000J0D01*
G01*
X148825000Y-118275000D01*
G75*
G02*
X148725000Y-118175000I0J100000D01*
G01*
X148725000Y-117975000D01*
G75*
G02*
X148825000Y-117875000I100000J0D01*
G01*
X150100000Y-117875000D01*
G75*
G02*
X150200000Y-117975000I0J-100000D01*
G01*
G37*
G36*
G01*
X150200000Y-117325000D02*
X150200000Y-117525000D01*
G75*
G02*
X150100000Y-117625000I-100000J0D01*
G01*
X148825000Y-117625000D01*
G75*
G02*
X148725000Y-117525000I0J100000D01*
G01*
X148725000Y-117325000D01*
G75*
G02*
X148825000Y-117225000I100000J0D01*
G01*
X150100000Y-117225000D01*
G75*
G02*
X150200000Y-117325000I0J-100000D01*
G01*
G37*
G36*
G01*
X150200000Y-116675000D02*
X150200000Y-116875000D01*
G75*
G02*
X150100000Y-116975000I-100000J0D01*
G01*
X148825000Y-116975000D01*
G75*
G02*
X148725000Y-116875000I0J100000D01*
G01*
X148725000Y-116675000D01*
G75*
G02*
X148825000Y-116575000I100000J0D01*
G01*
X150100000Y-116575000D01*
G75*
G02*
X150200000Y-116675000I0J-100000D01*
G01*
G37*
G36*
G01*
X144475000Y-116675000D02*
X144475000Y-116875000D01*
G75*
G02*
X144375000Y-116975000I-100000J0D01*
G01*
X143100000Y-116975000D01*
G75*
G02*
X143000000Y-116875000I0J100000D01*
G01*
X143000000Y-116675000D01*
G75*
G02*
X143100000Y-116575000I100000J0D01*
G01*
X144375000Y-116575000D01*
G75*
G02*
X144475000Y-116675000I0J-100000D01*
G01*
G37*
G36*
G01*
X144475000Y-117325000D02*
X144475000Y-117525000D01*
G75*
G02*
X144375000Y-117625000I-100000J0D01*
G01*
X143100000Y-117625000D01*
G75*
G02*
X143000000Y-117525000I0J100000D01*
G01*
X143000000Y-117325000D01*
G75*
G02*
X143100000Y-117225000I100000J0D01*
G01*
X144375000Y-117225000D01*
G75*
G02*
X144475000Y-117325000I0J-100000D01*
G01*
G37*
G36*
G01*
X144475000Y-117975000D02*
X144475000Y-118175000D01*
G75*
G02*
X144375000Y-118275000I-100000J0D01*
G01*
X143100000Y-118275000D01*
G75*
G02*
X143000000Y-118175000I0J100000D01*
G01*
X143000000Y-117975000D01*
G75*
G02*
X143100000Y-117875000I100000J0D01*
G01*
X144375000Y-117875000D01*
G75*
G02*
X144475000Y-117975000I0J-100000D01*
G01*
G37*
G36*
G01*
X144475000Y-118625000D02*
X144475000Y-118825000D01*
G75*
G02*
X144375000Y-118925000I-100000J0D01*
G01*
X143100000Y-118925000D01*
G75*
G02*
X143000000Y-118825000I0J100000D01*
G01*
X143000000Y-118625000D01*
G75*
G02*
X143100000Y-118525000I100000J0D01*
G01*
X144375000Y-118525000D01*
G75*
G02*
X144475000Y-118625000I0J-100000D01*
G01*
G37*
G36*
G01*
X144475000Y-119275000D02*
X144475000Y-119475000D01*
G75*
G02*
X144375000Y-119575000I-100000J0D01*
G01*
X143100000Y-119575000D01*
G75*
G02*
X143000000Y-119475000I0J100000D01*
G01*
X143000000Y-119275000D01*
G75*
G02*
X143100000Y-119175000I100000J0D01*
G01*
X144375000Y-119175000D01*
G75*
G02*
X144475000Y-119275000I0J-100000D01*
G01*
G37*
G36*
G01*
X144475000Y-119925000D02*
X144475000Y-120125000D01*
G75*
G02*
X144375000Y-120225000I-100000J0D01*
G01*
X143100000Y-120225000D01*
G75*
G02*
X143000000Y-120125000I0J100000D01*
G01*
X143000000Y-119925000D01*
G75*
G02*
X143100000Y-119825000I100000J0D01*
G01*
X144375000Y-119825000D01*
G75*
G02*
X144475000Y-119925000I0J-100000D01*
G01*
G37*
G36*
G01*
X144475000Y-120575000D02*
X144475000Y-120775000D01*
G75*
G02*
X144375000Y-120875000I-100000J0D01*
G01*
X143100000Y-120875000D01*
G75*
G02*
X143000000Y-120775000I0J100000D01*
G01*
X143000000Y-120575000D01*
G75*
G02*
X143100000Y-120475000I100000J0D01*
G01*
X144375000Y-120475000D01*
G75*
G02*
X144475000Y-120575000I0J-100000D01*
G01*
G37*
G36*
G01*
X144475000Y-121225000D02*
X144475000Y-121425000D01*
G75*
G02*
X144375000Y-121525000I-100000J0D01*
G01*
X143100000Y-121525000D01*
G75*
G02*
X143000000Y-121425000I0J100000D01*
G01*
X143000000Y-121225000D01*
G75*
G02*
X143100000Y-121125000I100000J0D01*
G01*
X144375000Y-121125000D01*
G75*
G02*
X144475000Y-121225000I0J-100000D01*
G01*
G37*
G36*
G01*
X144475000Y-121875000D02*
X144475000Y-122075000D01*
G75*
G02*
X144375000Y-122175000I-100000J0D01*
G01*
X143100000Y-122175000D01*
G75*
G02*
X143000000Y-122075000I0J100000D01*
G01*
X143000000Y-121875000D01*
G75*
G02*
X143100000Y-121775000I100000J0D01*
G01*
X144375000Y-121775000D01*
G75*
G02*
X144475000Y-121875000I0J-100000D01*
G01*
G37*
G36*
G01*
X144475000Y-122525000D02*
X144475000Y-122725000D01*
G75*
G02*
X144375000Y-122825000I-100000J0D01*
G01*
X143100000Y-122825000D01*
G75*
G02*
X143000000Y-122725000I0J100000D01*
G01*
X143000000Y-122525000D01*
G75*
G02*
X143100000Y-122425000I100000J0D01*
G01*
X144375000Y-122425000D01*
G75*
G02*
X144475000Y-122525000I0J-100000D01*
G01*
G37*
G04 #@! TD*
G04 #@! TO.C,C28*
G36*
G01*
X137460000Y-104780000D02*
X137460000Y-105120000D01*
G75*
G02*
X137320000Y-105260000I-140000J0D01*
G01*
X137040000Y-105260000D01*
G75*
G02*
X136900000Y-105120000I0J140000D01*
G01*
X136900000Y-104780000D01*
G75*
G02*
X137040000Y-104640000I140000J0D01*
G01*
X137320000Y-104640000D01*
G75*
G02*
X137460000Y-104780000I0J-140000D01*
G01*
G37*
G36*
G01*
X136500000Y-104780000D02*
X136500000Y-105120000D01*
G75*
G02*
X136360000Y-105260000I-140000J0D01*
G01*
X136080000Y-105260000D01*
G75*
G02*
X135940000Y-105120000I0J140000D01*
G01*
X135940000Y-104780000D01*
G75*
G02*
X136080000Y-104640000I140000J0D01*
G01*
X136360000Y-104640000D01*
G75*
G02*
X136500000Y-104780000I0J-140000D01*
G01*
G37*
G04 #@! TD*
G04 #@! TO.C,C56*
G36*
G01*
X153490000Y-95020000D02*
X153490000Y-94680000D01*
G75*
G02*
X153630000Y-94540000I140000J0D01*
G01*
X153910000Y-94540000D01*
G75*
G02*
X154050000Y-94680000I0J-140000D01*
G01*
X154050000Y-95020000D01*
G75*
G02*
X153910000Y-95160000I-140000J0D01*
G01*
X153630000Y-95160000D01*
G75*
G02*
X153490000Y-95020000I0J140000D01*
G01*
G37*
G36*
G01*
X154450000Y-95020000D02*
X154450000Y-94680000D01*
G75*
G02*
X154590000Y-94540000I140000J0D01*
G01*
X154870000Y-94540000D01*
G75*
G02*
X155010000Y-94680000I0J-140000D01*
G01*
X155010000Y-95020000D01*
G75*
G02*
X154870000Y-95160000I-140000J0D01*
G01*
X154590000Y-95160000D01*
G75*
G02*
X154450000Y-95020000I0J140000D01*
G01*
G37*
G04 #@! TD*
G04 #@! TO.C,L1*
G36*
G01*
X133981250Y-117600000D02*
X133218750Y-117600000D01*
G75*
G02*
X133000000Y-117381250I0J218750D01*
G01*
X133000000Y-116943750D01*
G75*
G02*
X133218750Y-116725000I218750J0D01*
G01*
X133981250Y-116725000D01*
G75*
G02*
X134200000Y-116943750I0J-218750D01*
G01*
X134200000Y-117381250D01*
G75*
G02*
X133981250Y-117600000I-218750J0D01*
G01*
G37*
G36*
G01*
X133981250Y-115475000D02*
X133218750Y-115475000D01*
G75*
G02*
X133000000Y-115256250I0J218750D01*
G01*
X133000000Y-114818750D01*
G75*
G02*
X133218750Y-114600000I218750J0D01*
G01*
X133981250Y-114600000D01*
G75*
G02*
X134200000Y-114818750I0J-218750D01*
G01*
X134200000Y-115256250D01*
G75*
G02*
X133981250Y-115475000I-218750J0D01*
G01*
G37*
G04 #@! TD*
G04 #@! TO.C,C51*
G36*
G01*
X156720000Y-121660000D02*
X156380000Y-121660000D01*
G75*
G02*
X156240000Y-121520000I0J140000D01*
G01*
X156240000Y-121240000D01*
G75*
G02*
X156380000Y-121100000I140000J0D01*
G01*
X156720000Y-121100000D01*
G75*
G02*
X156860000Y-121240000I0J-140000D01*
G01*
X156860000Y-121520000D01*
G75*
G02*
X156720000Y-121660000I-140000J0D01*
G01*
G37*
G36*
G01*
X156720000Y-120700000D02*
X156380000Y-120700000D01*
G75*
G02*
X156240000Y-120560000I0J140000D01*
G01*
X156240000Y-120280000D01*
G75*
G02*
X156380000Y-120140000I140000J0D01*
G01*
X156720000Y-120140000D01*
G75*
G02*
X156860000Y-120280000I0J-140000D01*
G01*
X156860000Y-120560000D01*
G75*
G02*
X156720000Y-120700000I-140000J0D01*
G01*
G37*
G04 #@! TD*
G04 #@! TO.C,C49*
G36*
G01*
X130160000Y-110830000D02*
X130160000Y-111170000D01*
G75*
G02*
X130020000Y-111310000I-140000J0D01*
G01*
X129740000Y-111310000D01*
G75*
G02*
X129600000Y-111170000I0J140000D01*
G01*
X129600000Y-110830000D01*
G75*
G02*
X129740000Y-110690000I140000J0D01*
G01*
X130020000Y-110690000D01*
G75*
G02*
X130160000Y-110830000I0J-140000D01*
G01*
G37*
G36*
G01*
X129200000Y-110830000D02*
X129200000Y-111170000D01*
G75*
G02*
X129060000Y-111310000I-140000J0D01*
G01*
X128780000Y-111310000D01*
G75*
G02*
X128640000Y-111170000I0J140000D01*
G01*
X128640000Y-110830000D01*
G75*
G02*
X128780000Y-110690000I140000J0D01*
G01*
X129060000Y-110690000D01*
G75*
G02*
X129200000Y-110830000I0J-140000D01*
G01*
G37*
G04 #@! TD*
D18*
G04 #@! TO.C,U8*
X155450000Y-118750000D03*
X154950000Y-118750000D03*
X154450000Y-118750000D03*
X153950000Y-118750000D03*
X153950000Y-120650000D03*
X154450000Y-120650000D03*
X154950000Y-120650000D03*
X155450000Y-120650000D03*
D19*
X154700000Y-119700000D03*
G04 #@! TD*
D20*
G04 #@! TO.C,U5*
X147860000Y-90225000D03*
X146210000Y-90225000D03*
X146210000Y-91775000D03*
X147860000Y-91775000D03*
G04 #@! TD*
G04 #@! TO.C,C24*
G36*
G01*
X134875000Y-121100000D02*
X134875000Y-120600000D01*
G75*
G02*
X135100000Y-120375000I225000J0D01*
G01*
X135550000Y-120375000D01*
G75*
G02*
X135775000Y-120600000I0J-225000D01*
G01*
X135775000Y-121100000D01*
G75*
G02*
X135550000Y-121325000I-225000J0D01*
G01*
X135100000Y-121325000D01*
G75*
G02*
X134875000Y-121100000I0J225000D01*
G01*
G37*
G36*
G01*
X136425000Y-121100000D02*
X136425000Y-120600000D01*
G75*
G02*
X136650000Y-120375000I225000J0D01*
G01*
X137100000Y-120375000D01*
G75*
G02*
X137325000Y-120600000I0J-225000D01*
G01*
X137325000Y-121100000D01*
G75*
G02*
X137100000Y-121325000I-225000J0D01*
G01*
X136650000Y-121325000D01*
G75*
G02*
X136425000Y-121100000I0J225000D01*
G01*
G37*
G04 #@! TD*
D21*
G04 #@! TO.C,U6*
X143874999Y-111400001D03*
X143874999Y-110750000D03*
X143874999Y-110100001D03*
X141925001Y-110100001D03*
X141925001Y-110750000D03*
X141925001Y-111400001D03*
G04 #@! TD*
G04 #@! TO.C,C5*
G36*
G01*
X148140000Y-106420000D02*
X148140000Y-106080000D01*
G75*
G02*
X148280000Y-105940000I140000J0D01*
G01*
X148560000Y-105940000D01*
G75*
G02*
X148700000Y-106080000I0J-140000D01*
G01*
X148700000Y-106420000D01*
G75*
G02*
X148560000Y-106560000I-140000J0D01*
G01*
X148280000Y-106560000D01*
G75*
G02*
X148140000Y-106420000I0J140000D01*
G01*
G37*
G36*
G01*
X149100000Y-106420000D02*
X149100000Y-106080000D01*
G75*
G02*
X149240000Y-105940000I140000J0D01*
G01*
X149520000Y-105940000D01*
G75*
G02*
X149660000Y-106080000I0J-140000D01*
G01*
X149660000Y-106420000D01*
G75*
G02*
X149520000Y-106560000I-140000J0D01*
G01*
X149240000Y-106560000D01*
G75*
G02*
X149100000Y-106420000I0J140000D01*
G01*
G37*
G04 #@! TD*
G04 #@! TO.C,C18*
G36*
G01*
X150320000Y-109760000D02*
X149980000Y-109760000D01*
G75*
G02*
X149840000Y-109620000I0J140000D01*
G01*
X149840000Y-109340000D01*
G75*
G02*
X149980000Y-109200000I140000J0D01*
G01*
X150320000Y-109200000D01*
G75*
G02*
X150460000Y-109340000I0J-140000D01*
G01*
X150460000Y-109620000D01*
G75*
G02*
X150320000Y-109760000I-140000J0D01*
G01*
G37*
G36*
G01*
X150320000Y-108800000D02*
X149980000Y-108800000D01*
G75*
G02*
X149840000Y-108660000I0J140000D01*
G01*
X149840000Y-108380000D01*
G75*
G02*
X149980000Y-108240000I140000J0D01*
G01*
X150320000Y-108240000D01*
G75*
G02*
X150460000Y-108380000I0J-140000D01*
G01*
X150460000Y-108660000D01*
G75*
G02*
X150320000Y-108800000I-140000J0D01*
G01*
G37*
G04 #@! TD*
G04 #@! TO.C,R4*
G36*
G01*
X129960000Y-95255000D02*
X129590000Y-95255000D01*
G75*
G02*
X129455000Y-95120000I0J135000D01*
G01*
X129455000Y-94850000D01*
G75*
G02*
X129590000Y-94715000I135000J0D01*
G01*
X129960000Y-94715000D01*
G75*
G02*
X130095000Y-94850000I0J-135000D01*
G01*
X130095000Y-95120000D01*
G75*
G02*
X129960000Y-95255000I-135000J0D01*
G01*
G37*
G36*
G01*
X129960000Y-94235000D02*
X129590000Y-94235000D01*
G75*
G02*
X129455000Y-94100000I0J135000D01*
G01*
X129455000Y-93830000D01*
G75*
G02*
X129590000Y-93695000I135000J0D01*
G01*
X129960000Y-93695000D01*
G75*
G02*
X130095000Y-93830000I0J-135000D01*
G01*
X130095000Y-94100000D01*
G75*
G02*
X129960000Y-94235000I-135000J0D01*
G01*
G37*
G04 #@! TD*
G04 #@! TO.C,C8*
G36*
G01*
X138530000Y-100440000D02*
X138870000Y-100440000D01*
G75*
G02*
X139010000Y-100580000I0J-140000D01*
G01*
X139010000Y-100860000D01*
G75*
G02*
X138870000Y-101000000I-140000J0D01*
G01*
X138530000Y-101000000D01*
G75*
G02*
X138390000Y-100860000I0J140000D01*
G01*
X138390000Y-100580000D01*
G75*
G02*
X138530000Y-100440000I140000J0D01*
G01*
G37*
G36*
G01*
X138530000Y-101400000D02*
X138870000Y-101400000D01*
G75*
G02*
X139010000Y-101540000I0J-140000D01*
G01*
X139010000Y-101820000D01*
G75*
G02*
X138870000Y-101960000I-140000J0D01*
G01*
X138530000Y-101960000D01*
G75*
G02*
X138390000Y-101820000I0J140000D01*
G01*
X138390000Y-101540000D01*
G75*
G02*
X138530000Y-101400000I140000J0D01*
G01*
G37*
G04 #@! TD*
G04 #@! TO.C,C37*
G36*
G01*
X145090000Y-102070000D02*
X145090000Y-101730000D01*
G75*
G02*
X145230000Y-101590000I140000J0D01*
G01*
X145510000Y-101590000D01*
G75*
G02*
X145650000Y-101730000I0J-140000D01*
G01*
X145650000Y-102070000D01*
G75*
G02*
X145510000Y-102210000I-140000J0D01*
G01*
X145230000Y-102210000D01*
G75*
G02*
X145090000Y-102070000I0J140000D01*
G01*
G37*
G36*
G01*
X146050000Y-102070000D02*
X146050000Y-101730000D01*
G75*
G02*
X146190000Y-101590000I140000J0D01*
G01*
X146470000Y-101590000D01*
G75*
G02*
X146610000Y-101730000I0J-140000D01*
G01*
X146610000Y-102070000D01*
G75*
G02*
X146470000Y-102210000I-140000J0D01*
G01*
X146190000Y-102210000D01*
G75*
G02*
X146050000Y-102070000I0J140000D01*
G01*
G37*
G04 #@! TD*
D15*
G04 #@! TO.C,TP10*
X137300000Y-98650000D03*
G04 #@! TD*
G04 #@! TO.C,TP13*
X130800000Y-99650000D03*
G04 #@! TD*
G04 #@! TO.C,C10*
G36*
G01*
X137540000Y-107070000D02*
X137540000Y-106730000D01*
G75*
G02*
X137680000Y-106590000I140000J0D01*
G01*
X137960000Y-106590000D01*
G75*
G02*
X138100000Y-106730000I0J-140000D01*
G01*
X138100000Y-107070000D01*
G75*
G02*
X137960000Y-107210000I-140000J0D01*
G01*
X137680000Y-107210000D01*
G75*
G02*
X137540000Y-107070000I0J140000D01*
G01*
G37*
G36*
G01*
X138500000Y-107070000D02*
X138500000Y-106730000D01*
G75*
G02*
X138640000Y-106590000I140000J0D01*
G01*
X138920000Y-106590000D01*
G75*
G02*
X139060000Y-106730000I0J-140000D01*
G01*
X139060000Y-107070000D01*
G75*
G02*
X138920000Y-107210000I-140000J0D01*
G01*
X138640000Y-107210000D01*
G75*
G02*
X138500000Y-107070000I0J140000D01*
G01*
G37*
G04 #@! TD*
G04 #@! TO.C,C15*
G36*
G01*
X148140000Y-103520000D02*
X148140000Y-103180000D01*
G75*
G02*
X148280000Y-103040000I140000J0D01*
G01*
X148560000Y-103040000D01*
G75*
G02*
X148700000Y-103180000I0J-140000D01*
G01*
X148700000Y-103520000D01*
G75*
G02*
X148560000Y-103660000I-140000J0D01*
G01*
X148280000Y-103660000D01*
G75*
G02*
X148140000Y-103520000I0J140000D01*
G01*
G37*
G36*
G01*
X149100000Y-103520000D02*
X149100000Y-103180000D01*
G75*
G02*
X149240000Y-103040000I140000J0D01*
G01*
X149520000Y-103040000D01*
G75*
G02*
X149660000Y-103180000I0J-140000D01*
G01*
X149660000Y-103520000D01*
G75*
G02*
X149520000Y-103660000I-140000J0D01*
G01*
X149240000Y-103660000D01*
G75*
G02*
X149100000Y-103520000I0J140000D01*
G01*
G37*
G04 #@! TD*
D22*
G04 #@! TO.C,J2*
X161487500Y-110150000D03*
X161487500Y-109650000D03*
X161487500Y-109150000D03*
X161487500Y-108650000D03*
X161487500Y-108150000D03*
X161487500Y-107650000D03*
X161487500Y-107150000D03*
X161487500Y-106650000D03*
X161487500Y-106150000D03*
X161487500Y-105650000D03*
X161487500Y-105150000D03*
X161487500Y-104650000D03*
X161487500Y-104150000D03*
X161487500Y-103650000D03*
X161487500Y-103150000D03*
X161487500Y-102650000D03*
X161487500Y-102150000D03*
X161487500Y-101650000D03*
X161487500Y-101150000D03*
X161487500Y-100650000D03*
X161487500Y-100150000D03*
X161487500Y-99650000D03*
D23*
X164737500Y-112050000D03*
X164737500Y-97750000D03*
G04 #@! TD*
D15*
G04 #@! TO.C,TP_3V1*
X125900000Y-112850000D03*
G04 #@! TD*
G04 #@! TO.C,C53*
G36*
G01*
X150840000Y-117570000D02*
X150840000Y-117230000D01*
G75*
G02*
X150980000Y-117090000I140000J0D01*
G01*
X151260000Y-117090000D01*
G75*
G02*
X151400000Y-117230000I0J-140000D01*
G01*
X151400000Y-117570000D01*
G75*
G02*
X151260000Y-117710000I-140000J0D01*
G01*
X150980000Y-117710000D01*
G75*
G02*
X150840000Y-117570000I0J140000D01*
G01*
G37*
G36*
G01*
X151800000Y-117570000D02*
X151800000Y-117230000D01*
G75*
G02*
X151940000Y-117090000I140000J0D01*
G01*
X152220000Y-117090000D01*
G75*
G02*
X152360000Y-117230000I0J-140000D01*
G01*
X152360000Y-117570000D01*
G75*
G02*
X152220000Y-117710000I-140000J0D01*
G01*
X151940000Y-117710000D01*
G75*
G02*
X151800000Y-117570000I0J140000D01*
G01*
G37*
G04 #@! TD*
G04 #@! TO.C,C1*
G36*
G01*
X150570000Y-107510000D02*
X150230000Y-107510000D01*
G75*
G02*
X150090000Y-107370000I0J140000D01*
G01*
X150090000Y-107090000D01*
G75*
G02*
X150230000Y-106950000I140000J0D01*
G01*
X150570000Y-106950000D01*
G75*
G02*
X150710000Y-107090000I0J-140000D01*
G01*
X150710000Y-107370000D01*
G75*
G02*
X150570000Y-107510000I-140000J0D01*
G01*
G37*
G36*
G01*
X150570000Y-106550000D02*
X150230000Y-106550000D01*
G75*
G02*
X150090000Y-106410000I0J140000D01*
G01*
X150090000Y-106130000D01*
G75*
G02*
X150230000Y-105990000I140000J0D01*
G01*
X150570000Y-105990000D01*
G75*
G02*
X150710000Y-106130000I0J-140000D01*
G01*
X150710000Y-106410000D01*
G75*
G02*
X150570000Y-106550000I-140000J0D01*
G01*
G37*
G04 #@! TD*
G04 #@! TO.C,R8*
G36*
G01*
X143330000Y-91985000D02*
X143330000Y-91615000D01*
G75*
G02*
X143465000Y-91480000I135000J0D01*
G01*
X143735000Y-91480000D01*
G75*
G02*
X143870000Y-91615000I0J-135000D01*
G01*
X143870000Y-91985000D01*
G75*
G02*
X143735000Y-92120000I-135000J0D01*
G01*
X143465000Y-92120000D01*
G75*
G02*
X143330000Y-91985000I0J135000D01*
G01*
G37*
G36*
G01*
X144350000Y-91985000D02*
X144350000Y-91615000D01*
G75*
G02*
X144485000Y-91480000I135000J0D01*
G01*
X144755000Y-91480000D01*
G75*
G02*
X144890000Y-91615000I0J-135000D01*
G01*
X144890000Y-91985000D01*
G75*
G02*
X144755000Y-92120000I-135000J0D01*
G01*
X144485000Y-92120000D01*
G75*
G02*
X144350000Y-91985000I0J135000D01*
G01*
G37*
G04 #@! TD*
G04 #@! TO.C,C59*
G36*
G01*
X125850000Y-116175000D02*
X126350000Y-116175000D01*
G75*
G02*
X126575000Y-116400000I0J-225000D01*
G01*
X126575000Y-116850000D01*
G75*
G02*
X126350000Y-117075000I-225000J0D01*
G01*
X125850000Y-117075000D01*
G75*
G02*
X125625000Y-116850000I0J225000D01*
G01*
X125625000Y-116400000D01*
G75*
G02*
X125850000Y-116175000I225000J0D01*
G01*
G37*
G36*
G01*
X125850000Y-117725000D02*
X126350000Y-117725000D01*
G75*
G02*
X126575000Y-117950000I0J-225000D01*
G01*
X126575000Y-118400000D01*
G75*
G02*
X126350000Y-118625000I-225000J0D01*
G01*
X125850000Y-118625000D01*
G75*
G02*
X125625000Y-118400000I0J225000D01*
G01*
X125625000Y-117950000D01*
G75*
G02*
X125850000Y-117725000I225000J0D01*
G01*
G37*
G04 #@! TD*
G04 #@! TO.C,FB4*
G36*
G01*
X141222500Y-114230000D02*
X140877500Y-114230000D01*
G75*
G02*
X140730000Y-114082500I0J147500D01*
G01*
X140730000Y-113787500D01*
G75*
G02*
X140877500Y-113640000I147500J0D01*
G01*
X141222500Y-113640000D01*
G75*
G02*
X141370000Y-113787500I0J-147500D01*
G01*
X141370000Y-114082500D01*
G75*
G02*
X141222500Y-114230000I-147500J0D01*
G01*
G37*
G36*
G01*
X141222500Y-113260000D02*
X140877500Y-113260000D01*
G75*
G02*
X140730000Y-113112500I0J147500D01*
G01*
X140730000Y-112817500D01*
G75*
G02*
X140877500Y-112670000I147500J0D01*
G01*
X141222500Y-112670000D01*
G75*
G02*
X141370000Y-112817500I0J-147500D01*
G01*
X141370000Y-113112500D01*
G75*
G02*
X141222500Y-113260000I-147500J0D01*
G01*
G37*
G04 #@! TD*
G04 #@! TO.C,C57*
G36*
G01*
X132470000Y-105760000D02*
X132130000Y-105760000D01*
G75*
G02*
X131990000Y-105620000I0J140000D01*
G01*
X131990000Y-105340000D01*
G75*
G02*
X132130000Y-105200000I140000J0D01*
G01*
X132470000Y-105200000D01*
G75*
G02*
X132610000Y-105340000I0J-140000D01*
G01*
X132610000Y-105620000D01*
G75*
G02*
X132470000Y-105760000I-140000J0D01*
G01*
G37*
G36*
G01*
X132470000Y-104800000D02*
X132130000Y-104800000D01*
G75*
G02*
X131990000Y-104660000I0J140000D01*
G01*
X131990000Y-104380000D01*
G75*
G02*
X132130000Y-104240000I140000J0D01*
G01*
X132470000Y-104240000D01*
G75*
G02*
X132610000Y-104380000I0J-140000D01*
G01*
X132610000Y-104660000D01*
G75*
G02*
X132470000Y-104800000I-140000J0D01*
G01*
G37*
G04 #@! TD*
G04 #@! TO.C,TP11*
X137050000Y-90700000D03*
G04 #@! TD*
G04 #@! TO.C,TP3*
X133500000Y-103100000D03*
G04 #@! TD*
G04 #@! TO.C,JP1*
G36*
X127275000Y-95795000D02*
G01*
X126775000Y-95795000D01*
X126775000Y-95790033D01*
X126695059Y-95788568D01*
X126559744Y-95746293D01*
X126441734Y-95667738D01*
X126350514Y-95559219D01*
X126293419Y-95429460D01*
X126275836Y-95295000D01*
X126275000Y-95295000D01*
X126275000Y-94795000D01*
X126275836Y-94795000D01*
X126275037Y-94788891D01*
X126296848Y-94648814D01*
X126357096Y-94520489D01*
X126450940Y-94414231D01*
X126570835Y-94338583D01*
X126707142Y-94299626D01*
X126775000Y-94300041D01*
X126775000Y-94295000D01*
X127275000Y-94295000D01*
X127275000Y-95795000D01*
G37*
G36*
X128075000Y-94300041D02*
G01*
X128148905Y-94300492D01*
X128284726Y-94341111D01*
X128403688Y-94418218D01*
X128496226Y-94525615D01*
X128554903Y-94654667D01*
X128575000Y-94795000D01*
X128575000Y-95295000D01*
X128574851Y-95307216D01*
X128551331Y-95447017D01*
X128489519Y-95574596D01*
X128394384Y-95679700D01*
X128273574Y-95753877D01*
X128136801Y-95791166D01*
X128075000Y-95790033D01*
X128075000Y-95795000D01*
X127575000Y-95795000D01*
X127575000Y-94295000D01*
X128075000Y-94295000D01*
X128075000Y-94300041D01*
G37*
G04 #@! TD*
G04 #@! TO.C,TP14*
X131150000Y-121850000D03*
G04 #@! TD*
D14*
G04 #@! TO.C,FL5*
X157275000Y-106100000D03*
X158525000Y-106100000D03*
X158525000Y-106650000D03*
X157275000Y-106650000D03*
G04 #@! TD*
G04 #@! TO.C,C46*
G36*
G01*
X146770000Y-98910000D02*
X146430000Y-98910000D01*
G75*
G02*
X146290000Y-98770000I0J140000D01*
G01*
X146290000Y-98490000D01*
G75*
G02*
X146430000Y-98350000I140000J0D01*
G01*
X146770000Y-98350000D01*
G75*
G02*
X146910000Y-98490000I0J-140000D01*
G01*
X146910000Y-98770000D01*
G75*
G02*
X146770000Y-98910000I-140000J0D01*
G01*
G37*
G36*
G01*
X146770000Y-97950000D02*
X146430000Y-97950000D01*
G75*
G02*
X146290000Y-97810000I0J140000D01*
G01*
X146290000Y-97530000D01*
G75*
G02*
X146430000Y-97390000I140000J0D01*
G01*
X146770000Y-97390000D01*
G75*
G02*
X146910000Y-97530000I0J-140000D01*
G01*
X146910000Y-97810000D01*
G75*
G02*
X146770000Y-97950000I-140000J0D01*
G01*
G37*
G04 #@! TD*
G04 #@! TO.C,C16*
G36*
G01*
X137840000Y-104120000D02*
X137840000Y-103780000D01*
G75*
G02*
X137980000Y-103640000I140000J0D01*
G01*
X138260000Y-103640000D01*
G75*
G02*
X138400000Y-103780000I0J-140000D01*
G01*
X138400000Y-104120000D01*
G75*
G02*
X138260000Y-104260000I-140000J0D01*
G01*
X137980000Y-104260000D01*
G75*
G02*
X137840000Y-104120000I0J140000D01*
G01*
G37*
G36*
G01*
X138800000Y-104120000D02*
X138800000Y-103780000D01*
G75*
G02*
X138940000Y-103640000I140000J0D01*
G01*
X139220000Y-103640000D01*
G75*
G02*
X139360000Y-103780000I0J-140000D01*
G01*
X139360000Y-104120000D01*
G75*
G02*
X139220000Y-104260000I-140000J0D01*
G01*
X138940000Y-104260000D01*
G75*
G02*
X138800000Y-104120000I0J140000D01*
G01*
G37*
G04 #@! TD*
G04 #@! TO.C,C41*
G36*
G01*
X135860000Y-109230000D02*
X135860000Y-109570000D01*
G75*
G02*
X135720000Y-109710000I-140000J0D01*
G01*
X135440000Y-109710000D01*
G75*
G02*
X135300000Y-109570000I0J140000D01*
G01*
X135300000Y-109230000D01*
G75*
G02*
X135440000Y-109090000I140000J0D01*
G01*
X135720000Y-109090000D01*
G75*
G02*
X135860000Y-109230000I0J-140000D01*
G01*
G37*
G36*
G01*
X134900000Y-109230000D02*
X134900000Y-109570000D01*
G75*
G02*
X134760000Y-109710000I-140000J0D01*
G01*
X134480000Y-109710000D01*
G75*
G02*
X134340000Y-109570000I0J140000D01*
G01*
X134340000Y-109230000D01*
G75*
G02*
X134480000Y-109090000I140000J0D01*
G01*
X134760000Y-109090000D01*
G75*
G02*
X134900000Y-109230000I0J-140000D01*
G01*
G37*
G04 #@! TD*
G04 #@! TO.C,FL3*
X157275000Y-103125000D03*
X158525000Y-103125000D03*
X158525000Y-103675000D03*
X157275000Y-103675000D03*
G04 #@! TD*
G04 #@! TO.C,U10*
G36*
G01*
X158056250Y-117575000D02*
X157843750Y-117575000D01*
G75*
G02*
X157750000Y-117481250I0J93750D01*
G01*
X157750000Y-117293750D01*
G75*
G02*
X157843750Y-117200000I93750J0D01*
G01*
X158056250Y-117200000D01*
G75*
G02*
X158150000Y-117293750I0J-93750D01*
G01*
X158150000Y-117481250D01*
G75*
G02*
X158056250Y-117575000I-93750J0D01*
G01*
G37*
G36*
G01*
X158706250Y-117575000D02*
X158493750Y-117575000D01*
G75*
G02*
X158400000Y-117481250I0J93750D01*
G01*
X158400000Y-117293750D01*
G75*
G02*
X158493750Y-117200000I93750J0D01*
G01*
X158706250Y-117200000D01*
G75*
G02*
X158800000Y-117293750I0J-93750D01*
G01*
X158800000Y-117481250D01*
G75*
G02*
X158706250Y-117575000I-93750J0D01*
G01*
G37*
G36*
G01*
X159356250Y-117575000D02*
X159143750Y-117575000D01*
G75*
G02*
X159050000Y-117481250I0J93750D01*
G01*
X159050000Y-117293750D01*
G75*
G02*
X159143750Y-117200000I93750J0D01*
G01*
X159356250Y-117200000D01*
G75*
G02*
X159450000Y-117293750I0J-93750D01*
G01*
X159450000Y-117481250D01*
G75*
G02*
X159356250Y-117575000I-93750J0D01*
G01*
G37*
G36*
G01*
X159356250Y-115800000D02*
X159143750Y-115800000D01*
G75*
G02*
X159050000Y-115706250I0J93750D01*
G01*
X159050000Y-115518750D01*
G75*
G02*
X159143750Y-115425000I93750J0D01*
G01*
X159356250Y-115425000D01*
G75*
G02*
X159450000Y-115518750I0J-93750D01*
G01*
X159450000Y-115706250D01*
G75*
G02*
X159356250Y-115800000I-93750J0D01*
G01*
G37*
G36*
G01*
X158706250Y-115800000D02*
X158493750Y-115800000D01*
G75*
G02*
X158400000Y-115706250I0J93750D01*
G01*
X158400000Y-115518750D01*
G75*
G02*
X158493750Y-115425000I93750J0D01*
G01*
X158706250Y-115425000D01*
G75*
G02*
X158800000Y-115518750I0J-93750D01*
G01*
X158800000Y-115706250D01*
G75*
G02*
X158706250Y-115800000I-93750J0D01*
G01*
G37*
G36*
G01*
X158056250Y-115800000D02*
X157843750Y-115800000D01*
G75*
G02*
X157750000Y-115706250I0J93750D01*
G01*
X157750000Y-115518750D01*
G75*
G02*
X157843750Y-115425000I93750J0D01*
G01*
X158056250Y-115425000D01*
G75*
G02*
X158150000Y-115518750I0J-93750D01*
G01*
X158150000Y-115706250D01*
G75*
G02*
X158056250Y-115800000I-93750J0D01*
G01*
G37*
D24*
X158600000Y-116500000D03*
G04 #@! TD*
G04 #@! TO.C,U3*
G36*
G01*
X131237500Y-106475000D02*
X131362500Y-106475000D01*
G75*
G02*
X131425000Y-106537500I0J-62500D01*
G01*
X131425000Y-107237500D01*
G75*
G02*
X131362500Y-107300000I-62500J0D01*
G01*
X131237500Y-107300000D01*
G75*
G02*
X131175000Y-107237500I0J62500D01*
G01*
X131175000Y-106537500D01*
G75*
G02*
X131237500Y-106475000I62500J0D01*
G01*
G37*
G36*
G01*
X130737500Y-106475000D02*
X130862500Y-106475000D01*
G75*
G02*
X130925000Y-106537500I0J-62500D01*
G01*
X130925000Y-107237500D01*
G75*
G02*
X130862500Y-107300000I-62500J0D01*
G01*
X130737500Y-107300000D01*
G75*
G02*
X130675000Y-107237500I0J62500D01*
G01*
X130675000Y-106537500D01*
G75*
G02*
X130737500Y-106475000I62500J0D01*
G01*
G37*
G36*
G01*
X130237500Y-106475000D02*
X130362500Y-106475000D01*
G75*
G02*
X130425000Y-106537500I0J-62500D01*
G01*
X130425000Y-107237500D01*
G75*
G02*
X130362500Y-107300000I-62500J0D01*
G01*
X130237500Y-107300000D01*
G75*
G02*
X130175000Y-107237500I0J62500D01*
G01*
X130175000Y-106537500D01*
G75*
G02*
X130237500Y-106475000I62500J0D01*
G01*
G37*
G36*
G01*
X129737500Y-106475000D02*
X129862500Y-106475000D01*
G75*
G02*
X129925000Y-106537500I0J-62500D01*
G01*
X129925000Y-107237500D01*
G75*
G02*
X129862500Y-107300000I-62500J0D01*
G01*
X129737500Y-107300000D01*
G75*
G02*
X129675000Y-107237500I0J62500D01*
G01*
X129675000Y-106537500D01*
G75*
G02*
X129737500Y-106475000I62500J0D01*
G01*
G37*
G36*
G01*
X129237500Y-106475000D02*
X129362500Y-106475000D01*
G75*
G02*
X129425000Y-106537500I0J-62500D01*
G01*
X129425000Y-107237500D01*
G75*
G02*
X129362500Y-107300000I-62500J0D01*
G01*
X129237500Y-107300000D01*
G75*
G02*
X129175000Y-107237500I0J62500D01*
G01*
X129175000Y-106537500D01*
G75*
G02*
X129237500Y-106475000I62500J0D01*
G01*
G37*
G36*
G01*
X129237500Y-108900000D02*
X129362500Y-108900000D01*
G75*
G02*
X129425000Y-108962500I0J-62500D01*
G01*
X129425000Y-109662500D01*
G75*
G02*
X129362500Y-109725000I-62500J0D01*
G01*
X129237500Y-109725000D01*
G75*
G02*
X129175000Y-109662500I0J62500D01*
G01*
X129175000Y-108962500D01*
G75*
G02*
X129237500Y-108900000I62500J0D01*
G01*
G37*
G36*
G01*
X129737500Y-108900000D02*
X129862500Y-108900000D01*
G75*
G02*
X129925000Y-108962500I0J-62500D01*
G01*
X129925000Y-109662500D01*
G75*
G02*
X129862500Y-109725000I-62500J0D01*
G01*
X129737500Y-109725000D01*
G75*
G02*
X129675000Y-109662500I0J62500D01*
G01*
X129675000Y-108962500D01*
G75*
G02*
X129737500Y-108900000I62500J0D01*
G01*
G37*
G36*
G01*
X130237500Y-108900000D02*
X130362500Y-108900000D01*
G75*
G02*
X130425000Y-108962500I0J-62500D01*
G01*
X130425000Y-109662500D01*
G75*
G02*
X130362500Y-109725000I-62500J0D01*
G01*
X130237500Y-109725000D01*
G75*
G02*
X130175000Y-109662500I0J62500D01*
G01*
X130175000Y-108962500D01*
G75*
G02*
X130237500Y-108900000I62500J0D01*
G01*
G37*
G36*
G01*
X130737500Y-108900000D02*
X130862500Y-108900000D01*
G75*
G02*
X130925000Y-108962500I0J-62500D01*
G01*
X130925000Y-109662500D01*
G75*
G02*
X130862500Y-109725000I-62500J0D01*
G01*
X130737500Y-109725000D01*
G75*
G02*
X130675000Y-109662500I0J62500D01*
G01*
X130675000Y-108962500D01*
G75*
G02*
X130737500Y-108900000I62500J0D01*
G01*
G37*
G36*
G01*
X131237500Y-108900000D02*
X131362500Y-108900000D01*
G75*
G02*
X131425000Y-108962500I0J-62500D01*
G01*
X131425000Y-109662500D01*
G75*
G02*
X131362500Y-109725000I-62500J0D01*
G01*
X131237500Y-109725000D01*
G75*
G02*
X131175000Y-109662500I0J62500D01*
G01*
X131175000Y-108962500D01*
G75*
G02*
X131237500Y-108900000I62500J0D01*
G01*
G37*
D25*
X130300000Y-108100000D03*
G04 #@! TD*
G04 #@! TO.C,C32*
G36*
G01*
X130775000Y-111200000D02*
X130775000Y-110700000D01*
G75*
G02*
X131000000Y-110475000I225000J0D01*
G01*
X131450000Y-110475000D01*
G75*
G02*
X131675000Y-110700000I0J-225000D01*
G01*
X131675000Y-111200000D01*
G75*
G02*
X131450000Y-111425000I-225000J0D01*
G01*
X131000000Y-111425000D01*
G75*
G02*
X130775000Y-111200000I0J225000D01*
G01*
G37*
G36*
G01*
X132325000Y-111200000D02*
X132325000Y-110700000D01*
G75*
G02*
X132550000Y-110475000I225000J0D01*
G01*
X133000000Y-110475000D01*
G75*
G02*
X133225000Y-110700000I0J-225000D01*
G01*
X133225000Y-111200000D01*
G75*
G02*
X133000000Y-111425000I-225000J0D01*
G01*
X132550000Y-111425000D01*
G75*
G02*
X132325000Y-111200000I0J225000D01*
G01*
G37*
G04 #@! TD*
D16*
G04 #@! TO.C,H1*
X126600000Y-87900000D03*
G04 #@! TD*
G04 #@! TO.C,H3*
X160600000Y-121900000D03*
G04 #@! TD*
G04 #@! TO.C,C7*
G36*
G01*
X148140000Y-104470000D02*
X148140000Y-104130000D01*
G75*
G02*
X148280000Y-103990000I140000J0D01*
G01*
X148560000Y-103990000D01*
G75*
G02*
X148700000Y-104130000I0J-140000D01*
G01*
X148700000Y-104470000D01*
G75*
G02*
X148560000Y-104610000I-140000J0D01*
G01*
X148280000Y-104610000D01*
G75*
G02*
X148140000Y-104470000I0J140000D01*
G01*
G37*
G36*
G01*
X149100000Y-104470000D02*
X149100000Y-104130000D01*
G75*
G02*
X149240000Y-103990000I140000J0D01*
G01*
X149520000Y-103990000D01*
G75*
G02*
X149660000Y-104130000I0J-140000D01*
G01*
X149660000Y-104470000D01*
G75*
G02*
X149520000Y-104610000I-140000J0D01*
G01*
X149240000Y-104610000D01*
G75*
G02*
X149100000Y-104470000I0J140000D01*
G01*
G37*
G04 #@! TD*
G04 #@! TO.C,C58*
G36*
G01*
X138390000Y-117120000D02*
X138390000Y-116780000D01*
G75*
G02*
X138530000Y-116640000I140000J0D01*
G01*
X138810000Y-116640000D01*
G75*
G02*
X138950000Y-116780000I0J-140000D01*
G01*
X138950000Y-117120000D01*
G75*
G02*
X138810000Y-117260000I-140000J0D01*
G01*
X138530000Y-117260000D01*
G75*
G02*
X138390000Y-117120000I0J140000D01*
G01*
G37*
G36*
G01*
X139350000Y-117120000D02*
X139350000Y-116780000D01*
G75*
G02*
X139490000Y-116640000I140000J0D01*
G01*
X139770000Y-116640000D01*
G75*
G02*
X139910000Y-116780000I0J-140000D01*
G01*
X139910000Y-117120000D01*
G75*
G02*
X139770000Y-117260000I-140000J0D01*
G01*
X139490000Y-117260000D01*
G75*
G02*
X139350000Y-117120000I0J140000D01*
G01*
G37*
G04 #@! TD*
D26*
G04 #@! TO.C,U11*
X127400002Y-118149998D03*
X127900001Y-118149998D03*
X128400000Y-118149998D03*
X128899999Y-118149998D03*
X129399998Y-118149998D03*
X129399998Y-116649999D03*
X128899999Y-116649999D03*
X128400000Y-116649999D03*
X127900001Y-116649999D03*
X127400002Y-116649999D03*
G04 #@! TD*
D16*
G04 #@! TO.C,H4*
X160600000Y-87900000D03*
G04 #@! TD*
G04 #@! TO.C,R10*
G36*
G01*
X143795000Y-91980000D02*
X143425000Y-91980000D01*
G75*
G02*
X143290000Y-91845000I0J135000D01*
G01*
X143290000Y-91575000D01*
G75*
G02*
X143425000Y-91440000I135000J0D01*
G01*
X143795000Y-91440000D01*
G75*
G02*
X143930000Y-91575000I0J-135000D01*
G01*
X143930000Y-91845000D01*
G75*
G02*
X143795000Y-91980000I-135000J0D01*
G01*
G37*
G36*
G01*
X143795000Y-90960000D02*
X143425000Y-90960000D01*
G75*
G02*
X143290000Y-90825000I0J135000D01*
G01*
X143290000Y-90555000D01*
G75*
G02*
X143425000Y-90420000I135000J0D01*
G01*
X143795000Y-90420000D01*
G75*
G02*
X143930000Y-90555000I0J-135000D01*
G01*
X143930000Y-90825000D01*
G75*
G02*
X143795000Y-90960000I-135000J0D01*
G01*
G37*
G04 #@! TD*
G04 #@! TO.C,C17*
G36*
G01*
X136060000Y-106930000D02*
X136060000Y-107270000D01*
G75*
G02*
X135920000Y-107410000I-140000J0D01*
G01*
X135640000Y-107410000D01*
G75*
G02*
X135500000Y-107270000I0J140000D01*
G01*
X135500000Y-106930000D01*
G75*
G02*
X135640000Y-106790000I140000J0D01*
G01*
X135920000Y-106790000D01*
G75*
G02*
X136060000Y-106930000I0J-140000D01*
G01*
G37*
G36*
G01*
X135100000Y-106930000D02*
X135100000Y-107270000D01*
G75*
G02*
X134960000Y-107410000I-140000J0D01*
G01*
X134680000Y-107410000D01*
G75*
G02*
X134540000Y-107270000I0J140000D01*
G01*
X134540000Y-106930000D01*
G75*
G02*
X134680000Y-106790000I140000J0D01*
G01*
X134960000Y-106790000D01*
G75*
G02*
X135100000Y-106930000I0J-140000D01*
G01*
G37*
G04 #@! TD*
D27*
G04 #@! TO.C,U9*
X154200001Y-90628400D03*
X153700000Y-90628400D03*
X153200000Y-90628400D03*
X152699999Y-90628400D03*
X152699999Y-93371600D03*
X153200000Y-93371600D03*
X153700000Y-93371600D03*
X154200001Y-93371600D03*
G04 #@! TD*
G04 #@! TO.C,C22*
G36*
G01*
X137325000Y-114750000D02*
X137325000Y-115250000D01*
G75*
G02*
X137100000Y-115475000I-225000J0D01*
G01*
X136650000Y-115475000D01*
G75*
G02*
X136425000Y-115250000I0J225000D01*
G01*
X136425000Y-114750000D01*
G75*
G02*
X136650000Y-114525000I225000J0D01*
G01*
X137100000Y-114525000D01*
G75*
G02*
X137325000Y-114750000I0J-225000D01*
G01*
G37*
G36*
G01*
X135775000Y-114750000D02*
X135775000Y-115250000D01*
G75*
G02*
X135550000Y-115475000I-225000J0D01*
G01*
X135100000Y-115475000D01*
G75*
G02*
X134875000Y-115250000I0J225000D01*
G01*
X134875000Y-114750000D01*
G75*
G02*
X135100000Y-114525000I225000J0D01*
G01*
X135550000Y-114525000D01*
G75*
G02*
X135775000Y-114750000I0J-225000D01*
G01*
G37*
G04 #@! TD*
D12*
G04 #@! TO.C,J3*
X143610000Y-89380000D03*
D13*
X142135000Y-87855000D03*
X145085000Y-87855000D03*
G04 #@! TD*
G04 #@! TO.C,C44*
G36*
G01*
X151140000Y-105070000D02*
X151140000Y-104730000D01*
G75*
G02*
X151280000Y-104590000I140000J0D01*
G01*
X151560000Y-104590000D01*
G75*
G02*
X151700000Y-104730000I0J-140000D01*
G01*
X151700000Y-105070000D01*
G75*
G02*
X151560000Y-105210000I-140000J0D01*
G01*
X151280000Y-105210000D01*
G75*
G02*
X151140000Y-105070000I0J140000D01*
G01*
G37*
G36*
G01*
X152100000Y-105070000D02*
X152100000Y-104730000D01*
G75*
G02*
X152240000Y-104590000I140000J0D01*
G01*
X152520000Y-104590000D01*
G75*
G02*
X152660000Y-104730000I0J-140000D01*
G01*
X152660000Y-105070000D01*
G75*
G02*
X152520000Y-105210000I-140000J0D01*
G01*
X152240000Y-105210000D01*
G75*
G02*
X152100000Y-105070000I0J140000D01*
G01*
G37*
G04 #@! TD*
G04 #@! TO.C,C39*
G36*
G01*
X145090000Y-108070000D02*
X145090000Y-107730000D01*
G75*
G02*
X145230000Y-107590000I140000J0D01*
G01*
X145510000Y-107590000D01*
G75*
G02*
X145650000Y-107730000I0J-140000D01*
G01*
X145650000Y-108070000D01*
G75*
G02*
X145510000Y-108210000I-140000J0D01*
G01*
X145230000Y-108210000D01*
G75*
G02*
X145090000Y-108070000I0J140000D01*
G01*
G37*
G36*
G01*
X146050000Y-108070000D02*
X146050000Y-107730000D01*
G75*
G02*
X146190000Y-107590000I140000J0D01*
G01*
X146470000Y-107590000D01*
G75*
G02*
X146610000Y-107730000I0J-140000D01*
G01*
X146610000Y-108070000D01*
G75*
G02*
X146470000Y-108210000I-140000J0D01*
G01*
X146190000Y-108210000D01*
G75*
G02*
X146050000Y-108070000I0J140000D01*
G01*
G37*
G04 #@! TD*
G04 #@! TO.C,C42*
G36*
G01*
X136110000Y-100480000D02*
X136110000Y-100820000D01*
G75*
G02*
X135970000Y-100960000I-140000J0D01*
G01*
X135690000Y-100960000D01*
G75*
G02*
X135550000Y-100820000I0J140000D01*
G01*
X135550000Y-100480000D01*
G75*
G02*
X135690000Y-100340000I140000J0D01*
G01*
X135970000Y-100340000D01*
G75*
G02*
X136110000Y-100480000I0J-140000D01*
G01*
G37*
G36*
G01*
X135150000Y-100480000D02*
X135150000Y-100820000D01*
G75*
G02*
X135010000Y-100960000I-140000J0D01*
G01*
X134730000Y-100960000D01*
G75*
G02*
X134590000Y-100820000I0J140000D01*
G01*
X134590000Y-100480000D01*
G75*
G02*
X134730000Y-100340000I140000J0D01*
G01*
X135010000Y-100340000D01*
G75*
G02*
X135150000Y-100480000I0J-140000D01*
G01*
G37*
G04 #@! TD*
G04 #@! TO.C,R7*
G36*
G01*
X131485000Y-105780000D02*
X131115000Y-105780000D01*
G75*
G02*
X130980000Y-105645000I0J135000D01*
G01*
X130980000Y-105375000D01*
G75*
G02*
X131115000Y-105240000I135000J0D01*
G01*
X131485000Y-105240000D01*
G75*
G02*
X131620000Y-105375000I0J-135000D01*
G01*
X131620000Y-105645000D01*
G75*
G02*
X131485000Y-105780000I-135000J0D01*
G01*
G37*
G36*
G01*
X131485000Y-104760000D02*
X131115000Y-104760000D01*
G75*
G02*
X130980000Y-104625000I0J135000D01*
G01*
X130980000Y-104355000D01*
G75*
G02*
X131115000Y-104220000I135000J0D01*
G01*
X131485000Y-104220000D01*
G75*
G02*
X131620000Y-104355000I0J-135000D01*
G01*
X131620000Y-104625000D01*
G75*
G02*
X131485000Y-104760000I-135000J0D01*
G01*
G37*
G04 #@! TD*
D15*
G04 #@! TO.C,TP1*
X139050000Y-113500000D03*
G04 #@! TD*
G04 #@! TO.C,C23*
G36*
G01*
X125550000Y-105275000D02*
X125550000Y-104775000D01*
G75*
G02*
X125775000Y-104550000I225000J0D01*
G01*
X126225000Y-104550000D01*
G75*
G02*
X126450000Y-104775000I0J-225000D01*
G01*
X126450000Y-105275000D01*
G75*
G02*
X126225000Y-105500000I-225000J0D01*
G01*
X125775000Y-105500000D01*
G75*
G02*
X125550000Y-105275000I0J225000D01*
G01*
G37*
G36*
G01*
X127100000Y-105275000D02*
X127100000Y-104775000D01*
G75*
G02*
X127325000Y-104550000I225000J0D01*
G01*
X127775000Y-104550000D01*
G75*
G02*
X128000000Y-104775000I0J-225000D01*
G01*
X128000000Y-105275000D01*
G75*
G02*
X127775000Y-105500000I-225000J0D01*
G01*
X127325000Y-105500000D01*
G75*
G02*
X127100000Y-105275000I0J225000D01*
G01*
G37*
G04 #@! TD*
G04 #@! TO.C,C48*
G36*
G01*
X140880000Y-109690000D02*
X141220000Y-109690000D01*
G75*
G02*
X141360000Y-109830000I0J-140000D01*
G01*
X141360000Y-110110000D01*
G75*
G02*
X141220000Y-110250000I-140000J0D01*
G01*
X140880000Y-110250000D01*
G75*
G02*
X140740000Y-110110000I0J140000D01*
G01*
X140740000Y-109830000D01*
G75*
G02*
X140880000Y-109690000I140000J0D01*
G01*
G37*
G36*
G01*
X140880000Y-110650000D02*
X141220000Y-110650000D01*
G75*
G02*
X141360000Y-110790000I0J-140000D01*
G01*
X141360000Y-111070000D01*
G75*
G02*
X141220000Y-111210000I-140000J0D01*
G01*
X140880000Y-111210000D01*
G75*
G02*
X140740000Y-111070000I0J140000D01*
G01*
X140740000Y-110790000D01*
G75*
G02*
X140880000Y-110650000I140000J0D01*
G01*
G37*
G04 #@! TD*
G04 #@! TO.C,JP2*
G36*
X127275000Y-92795000D02*
G01*
X126775000Y-92795000D01*
X126775000Y-92790033D01*
X126695059Y-92788568D01*
X126559744Y-92746293D01*
X126441734Y-92667738D01*
X126350514Y-92559219D01*
X126293419Y-92429460D01*
X126275836Y-92295000D01*
X126275000Y-92295000D01*
X126275000Y-91795000D01*
X126275836Y-91795000D01*
X126275037Y-91788891D01*
X126296848Y-91648814D01*
X126357096Y-91520489D01*
X126450940Y-91414231D01*
X126570835Y-91338583D01*
X126707142Y-91299626D01*
X126775000Y-91300041D01*
X126775000Y-91295000D01*
X127275000Y-91295000D01*
X127275000Y-92795000D01*
G37*
G36*
X128075000Y-91300041D02*
G01*
X128148905Y-91300492D01*
X128284726Y-91341111D01*
X128403688Y-91418218D01*
X128496226Y-91525615D01*
X128554903Y-91654667D01*
X128575000Y-91795000D01*
X128575000Y-92295000D01*
X128574851Y-92307216D01*
X128551331Y-92447017D01*
X128489519Y-92574596D01*
X128394384Y-92679700D01*
X128273574Y-92753877D01*
X128136801Y-92791166D01*
X128075000Y-92790033D01*
X128075000Y-92795000D01*
X127575000Y-92795000D01*
X127575000Y-91295000D01*
X128075000Y-91295000D01*
X128075000Y-91300041D01*
G37*
G04 #@! TD*
G04 #@! TO.C,C35*
G36*
G01*
X140530000Y-100440000D02*
X140870000Y-100440000D01*
G75*
G02*
X141010000Y-100580000I0J-140000D01*
G01*
X141010000Y-100860000D01*
G75*
G02*
X140870000Y-101000000I-140000J0D01*
G01*
X140530000Y-101000000D01*
G75*
G02*
X140390000Y-100860000I0J140000D01*
G01*
X140390000Y-100580000D01*
G75*
G02*
X140530000Y-100440000I140000J0D01*
G01*
G37*
G36*
G01*
X140530000Y-101400000D02*
X140870000Y-101400000D01*
G75*
G02*
X141010000Y-101540000I0J-140000D01*
G01*
X141010000Y-101820000D01*
G75*
G02*
X140870000Y-101960000I-140000J0D01*
G01*
X140530000Y-101960000D01*
G75*
G02*
X140390000Y-101820000I0J140000D01*
G01*
X140390000Y-101540000D01*
G75*
G02*
X140530000Y-101400000I140000J0D01*
G01*
G37*
G04 #@! TD*
G04 #@! TO.C,C2*
G36*
G01*
X148140000Y-107370000D02*
X148140000Y-107030000D01*
G75*
G02*
X148280000Y-106890000I140000J0D01*
G01*
X148560000Y-106890000D01*
G75*
G02*
X148700000Y-107030000I0J-140000D01*
G01*
X148700000Y-107370000D01*
G75*
G02*
X148560000Y-107510000I-140000J0D01*
G01*
X148280000Y-107510000D01*
G75*
G02*
X148140000Y-107370000I0J140000D01*
G01*
G37*
G36*
G01*
X149100000Y-107370000D02*
X149100000Y-107030000D01*
G75*
G02*
X149240000Y-106890000I140000J0D01*
G01*
X149520000Y-106890000D01*
G75*
G02*
X149660000Y-107030000I0J-140000D01*
G01*
X149660000Y-107370000D01*
G75*
G02*
X149520000Y-107510000I-140000J0D01*
G01*
X149240000Y-107510000D01*
G75*
G02*
X149100000Y-107370000I0J140000D01*
G01*
G37*
G04 #@! TD*
G04 #@! TO.C,TP7*
X141400000Y-121300000D03*
G04 #@! TD*
G04 #@! TO.C,J1*
G36*
G01*
X163575000Y-94100000D02*
X162325000Y-94100000D01*
G75*
G02*
X162175000Y-93950000I0J150000D01*
G01*
X162175000Y-93650000D01*
G75*
G02*
X162325000Y-93500000I150000J0D01*
G01*
X163575000Y-93500000D01*
G75*
G02*
X163725000Y-93650000I0J-150000D01*
G01*
X163725000Y-93950000D01*
G75*
G02*
X163575000Y-94100000I-150000J0D01*
G01*
G37*
G36*
G01*
X163575000Y-93100000D02*
X162325000Y-93100000D01*
G75*
G02*
X162175000Y-92950000I0J150000D01*
G01*
X162175000Y-92650000D01*
G75*
G02*
X162325000Y-92500000I150000J0D01*
G01*
X163575000Y-92500000D01*
G75*
G02*
X163725000Y-92650000I0J-150000D01*
G01*
X163725000Y-92950000D01*
G75*
G02*
X163575000Y-93100000I-150000J0D01*
G01*
G37*
G36*
G01*
X163575000Y-92100000D02*
X162325000Y-92100000D01*
G75*
G02*
X162175000Y-91950000I0J150000D01*
G01*
X162175000Y-91650000D01*
G75*
G02*
X162325000Y-91500000I150000J0D01*
G01*
X163575000Y-91500000D01*
G75*
G02*
X163725000Y-91650000I0J-150000D01*
G01*
X163725000Y-91950000D01*
G75*
G02*
X163575000Y-92100000I-150000J0D01*
G01*
G37*
G36*
G01*
X163575000Y-91100000D02*
X162325000Y-91100000D01*
G75*
G02*
X162175000Y-90950000I0J150000D01*
G01*
X162175000Y-90650000D01*
G75*
G02*
X162325000Y-90500000I150000J0D01*
G01*
X163575000Y-90500000D01*
G75*
G02*
X163725000Y-90650000I0J-150000D01*
G01*
X163725000Y-90950000D01*
G75*
G02*
X163575000Y-91100000I-150000J0D01*
G01*
G37*
G36*
G01*
X167475000Y-90100000D02*
X166175000Y-90100000D01*
G75*
G02*
X165925000Y-89850000I0J250000D01*
G01*
X165925000Y-89150000D01*
G75*
G02*
X166175000Y-88900000I250000J0D01*
G01*
X167475000Y-88900000D01*
G75*
G02*
X167725000Y-89150000I0J-250000D01*
G01*
X167725000Y-89850000D01*
G75*
G02*
X167475000Y-90100000I-250000J0D01*
G01*
G37*
G36*
G01*
X167475000Y-95700000D02*
X166175000Y-95700000D01*
G75*
G02*
X165925000Y-95450000I0J250000D01*
G01*
X165925000Y-94750000D01*
G75*
G02*
X166175000Y-94500000I250000J0D01*
G01*
X167475000Y-94500000D01*
G75*
G02*
X167725000Y-94750000I0J-250000D01*
G01*
X167725000Y-95450000D01*
G75*
G02*
X167475000Y-95700000I-250000J0D01*
G01*
G37*
G04 #@! TD*
G04 #@! TO.C,C14*
G36*
G01*
X137520000Y-106070000D02*
X137520000Y-105730000D01*
G75*
G02*
X137660000Y-105590000I140000J0D01*
G01*
X137940000Y-105590000D01*
G75*
G02*
X138080000Y-105730000I0J-140000D01*
G01*
X138080000Y-106070000D01*
G75*
G02*
X137940000Y-106210000I-140000J0D01*
G01*
X137660000Y-106210000D01*
G75*
G02*
X137520000Y-106070000I0J140000D01*
G01*
G37*
G36*
G01*
X138480000Y-106070000D02*
X138480000Y-105730000D01*
G75*
G02*
X138620000Y-105590000I140000J0D01*
G01*
X138900000Y-105590000D01*
G75*
G02*
X139040000Y-105730000I0J-140000D01*
G01*
X139040000Y-106070000D01*
G75*
G02*
X138900000Y-106210000I-140000J0D01*
G01*
X138620000Y-106210000D01*
G75*
G02*
X138480000Y-106070000I0J140000D01*
G01*
G37*
G04 #@! TD*
G04 #@! TO.C,C11*
G36*
G01*
X148140000Y-102570000D02*
X148140000Y-102230000D01*
G75*
G02*
X148280000Y-102090000I140000J0D01*
G01*
X148560000Y-102090000D01*
G75*
G02*
X148700000Y-102230000I0J-140000D01*
G01*
X148700000Y-102570000D01*
G75*
G02*
X148560000Y-102710000I-140000J0D01*
G01*
X148280000Y-102710000D01*
G75*
G02*
X148140000Y-102570000I0J140000D01*
G01*
G37*
G36*
G01*
X149100000Y-102570000D02*
X149100000Y-102230000D01*
G75*
G02*
X149240000Y-102090000I140000J0D01*
G01*
X149520000Y-102090000D01*
G75*
G02*
X149660000Y-102230000I0J-140000D01*
G01*
X149660000Y-102570000D01*
G75*
G02*
X149520000Y-102710000I-140000J0D01*
G01*
X149240000Y-102710000D01*
G75*
G02*
X149100000Y-102570000I0J140000D01*
G01*
G37*
G04 #@! TD*
G04 #@! TO.C,C45*
G36*
G01*
X136110000Y-101730000D02*
X136110000Y-102070000D01*
G75*
G02*
X135970000Y-102210000I-140000J0D01*
G01*
X135690000Y-102210000D01*
G75*
G02*
X135550000Y-102070000I0J140000D01*
G01*
X135550000Y-101730000D01*
G75*
G02*
X135690000Y-101590000I140000J0D01*
G01*
X135970000Y-101590000D01*
G75*
G02*
X136110000Y-101730000I0J-140000D01*
G01*
G37*
G36*
G01*
X135150000Y-101730000D02*
X135150000Y-102070000D01*
G75*
G02*
X135010000Y-102210000I-140000J0D01*
G01*
X134730000Y-102210000D01*
G75*
G02*
X134590000Y-102070000I0J140000D01*
G01*
X134590000Y-101730000D01*
G75*
G02*
X134730000Y-101590000I140000J0D01*
G01*
X135010000Y-101590000D01*
G75*
G02*
X135150000Y-101730000I0J-140000D01*
G01*
G37*
G04 #@! TD*
G04 #@! TO.C,TP12*
X132050000Y-90700000D03*
G04 #@! TD*
G04 #@! TO.C,C19*
G36*
G01*
X137840000Y-105120000D02*
X137840000Y-104780000D01*
G75*
G02*
X137980000Y-104640000I140000J0D01*
G01*
X138260000Y-104640000D01*
G75*
G02*
X138400000Y-104780000I0J-140000D01*
G01*
X138400000Y-105120000D01*
G75*
G02*
X138260000Y-105260000I-140000J0D01*
G01*
X137980000Y-105260000D01*
G75*
G02*
X137840000Y-105120000I0J140000D01*
G01*
G37*
G36*
G01*
X138800000Y-105120000D02*
X138800000Y-104780000D01*
G75*
G02*
X138940000Y-104640000I140000J0D01*
G01*
X139220000Y-104640000D01*
G75*
G02*
X139360000Y-104780000I0J-140000D01*
G01*
X139360000Y-105120000D01*
G75*
G02*
X139220000Y-105260000I-140000J0D01*
G01*
X138940000Y-105260000D01*
G75*
G02*
X138800000Y-105120000I0J140000D01*
G01*
G37*
G04 #@! TD*
G04 #@! TO.C,TP9*
X149450000Y-113650000D03*
G04 #@! TD*
G04 #@! TO.C,R13*
G36*
G01*
X128585000Y-113780000D02*
X128215000Y-113780000D01*
G75*
G02*
X128080000Y-113645000I0J135000D01*
G01*
X128080000Y-113375000D01*
G75*
G02*
X128215000Y-113240000I135000J0D01*
G01*
X128585000Y-113240000D01*
G75*
G02*
X128720000Y-113375000I0J-135000D01*
G01*
X128720000Y-113645000D01*
G75*
G02*
X128585000Y-113780000I-135000J0D01*
G01*
G37*
G36*
G01*
X128585000Y-112760000D02*
X128215000Y-112760000D01*
G75*
G02*
X128080000Y-112625000I0J135000D01*
G01*
X128080000Y-112355000D01*
G75*
G02*
X128215000Y-112220000I135000J0D01*
G01*
X128585000Y-112220000D01*
G75*
G02*
X128720000Y-112355000I0J-135000D01*
G01*
X128720000Y-112625000D01*
G75*
G02*
X128585000Y-112760000I-135000J0D01*
G01*
G37*
G04 #@! TD*
G04 #@! TO.C,C12*
G36*
G01*
X127900000Y-110525000D02*
X127900000Y-111025000D01*
G75*
G02*
X127675000Y-111250000I-225000J0D01*
G01*
X127225000Y-111250000D01*
G75*
G02*
X127000000Y-111025000I0J225000D01*
G01*
X127000000Y-110525000D01*
G75*
G02*
X127225000Y-110300000I225000J0D01*
G01*
X127675000Y-110300000D01*
G75*
G02*
X127900000Y-110525000I0J-225000D01*
G01*
G37*
G36*
G01*
X126350000Y-110525000D02*
X126350000Y-111025000D01*
G75*
G02*
X126125000Y-111250000I-225000J0D01*
G01*
X125675000Y-111250000D01*
G75*
G02*
X125450000Y-111025000I0J225000D01*
G01*
X125450000Y-110525000D01*
G75*
G02*
X125675000Y-110300000I225000J0D01*
G01*
X126125000Y-110300000D01*
G75*
G02*
X126350000Y-110525000I0J-225000D01*
G01*
G37*
G04 #@! TD*
G04 #@! TO.C,C40*
G36*
G01*
X148270000Y-109760000D02*
X147930000Y-109760000D01*
G75*
G02*
X147790000Y-109620000I0J140000D01*
G01*
X147790000Y-109340000D01*
G75*
G02*
X147930000Y-109200000I140000J0D01*
G01*
X148270000Y-109200000D01*
G75*
G02*
X148410000Y-109340000I0J-140000D01*
G01*
X148410000Y-109620000D01*
G75*
G02*
X148270000Y-109760000I-140000J0D01*
G01*
G37*
G36*
G01*
X148270000Y-108800000D02*
X147930000Y-108800000D01*
G75*
G02*
X147790000Y-108660000I0J140000D01*
G01*
X147790000Y-108380000D01*
G75*
G02*
X147930000Y-108240000I140000J0D01*
G01*
X148270000Y-108240000D01*
G75*
G02*
X148410000Y-108380000I0J-140000D01*
G01*
X148410000Y-108660000D01*
G75*
G02*
X148270000Y-108800000I-140000J0D01*
G01*
G37*
G04 #@! TD*
G04 #@! TO.C,C38*
G36*
G01*
X142010000Y-107730000D02*
X142010000Y-108070000D01*
G75*
G02*
X141870000Y-108210000I-140000J0D01*
G01*
X141590000Y-108210000D01*
G75*
G02*
X141450000Y-108070000I0J140000D01*
G01*
X141450000Y-107730000D01*
G75*
G02*
X141590000Y-107590000I140000J0D01*
G01*
X141870000Y-107590000D01*
G75*
G02*
X142010000Y-107730000I0J-140000D01*
G01*
G37*
G36*
G01*
X141050000Y-107730000D02*
X141050000Y-108070000D01*
G75*
G02*
X140910000Y-108210000I-140000J0D01*
G01*
X140630000Y-108210000D01*
G75*
G02*
X140490000Y-108070000I0J140000D01*
G01*
X140490000Y-107730000D01*
G75*
G02*
X140630000Y-107590000I140000J0D01*
G01*
X140910000Y-107590000D01*
G75*
G02*
X141050000Y-107730000I0J-140000D01*
G01*
G37*
G04 #@! TD*
G04 #@! TO.C,C30*
G36*
G01*
X145270000Y-98910000D02*
X144930000Y-98910000D01*
G75*
G02*
X144790000Y-98770000I0J140000D01*
G01*
X144790000Y-98490000D01*
G75*
G02*
X144930000Y-98350000I140000J0D01*
G01*
X145270000Y-98350000D01*
G75*
G02*
X145410000Y-98490000I0J-140000D01*
G01*
X145410000Y-98770000D01*
G75*
G02*
X145270000Y-98910000I-140000J0D01*
G01*
G37*
G36*
G01*
X145270000Y-97950000D02*
X144930000Y-97950000D01*
G75*
G02*
X144790000Y-97810000I0J140000D01*
G01*
X144790000Y-97530000D01*
G75*
G02*
X144930000Y-97390000I140000J0D01*
G01*
X145270000Y-97390000D01*
G75*
G02*
X145410000Y-97530000I0J-140000D01*
G01*
X145410000Y-97810000D01*
G75*
G02*
X145270000Y-97950000I-140000J0D01*
G01*
G37*
G04 #@! TD*
G04 #@! TO.C,C3*
G36*
G01*
X137540000Y-109120000D02*
X137540000Y-108780000D01*
G75*
G02*
X137680000Y-108640000I140000J0D01*
G01*
X137960000Y-108640000D01*
G75*
G02*
X138100000Y-108780000I0J-140000D01*
G01*
X138100000Y-109120000D01*
G75*
G02*
X137960000Y-109260000I-140000J0D01*
G01*
X137680000Y-109260000D01*
G75*
G02*
X137540000Y-109120000I0J140000D01*
G01*
G37*
G36*
G01*
X138500000Y-109120000D02*
X138500000Y-108780000D01*
G75*
G02*
X138640000Y-108640000I140000J0D01*
G01*
X138920000Y-108640000D01*
G75*
G02*
X139060000Y-108780000I0J-140000D01*
G01*
X139060000Y-109120000D01*
G75*
G02*
X138920000Y-109260000I-140000J0D01*
G01*
X138640000Y-109260000D01*
G75*
G02*
X138500000Y-109120000I0J140000D01*
G01*
G37*
G04 #@! TD*
G04 #@! TO.C,C62*
G36*
G01*
X129850000Y-114425000D02*
X129850000Y-115375000D01*
G75*
G02*
X129600000Y-115625000I-250000J0D01*
G01*
X129100000Y-115625000D01*
G75*
G02*
X128850000Y-115375000I0J250000D01*
G01*
X128850000Y-114425000D01*
G75*
G02*
X129100000Y-114175000I250000J0D01*
G01*
X129600000Y-114175000D01*
G75*
G02*
X129850000Y-114425000I0J-250000D01*
G01*
G37*
G36*
G01*
X127950000Y-114425000D02*
X127950000Y-115375000D01*
G75*
G02*
X127700000Y-115625000I-250000J0D01*
G01*
X127200000Y-115625000D01*
G75*
G02*
X126950000Y-115375000I0J250000D01*
G01*
X126950000Y-114425000D01*
G75*
G02*
X127200000Y-114175000I250000J0D01*
G01*
X127700000Y-114175000D01*
G75*
G02*
X127950000Y-114425000I0J-250000D01*
G01*
G37*
G04 #@! TD*
D14*
G04 #@! TO.C,FL4*
X157275000Y-104600000D03*
X158525000Y-104600000D03*
X158525000Y-105150000D03*
X157275000Y-105150000D03*
G04 #@! TD*
G04 #@! TO.C,JP3*
G36*
X127275000Y-98795000D02*
G01*
X126775000Y-98795000D01*
X126775000Y-98790033D01*
X126695059Y-98788568D01*
X126559744Y-98746293D01*
X126441734Y-98667738D01*
X126350514Y-98559219D01*
X126293419Y-98429460D01*
X126275836Y-98295000D01*
X126275000Y-98295000D01*
X126275000Y-97795000D01*
X126275836Y-97795000D01*
X126275037Y-97788891D01*
X126296848Y-97648814D01*
X126357096Y-97520489D01*
X126450940Y-97414231D01*
X126570835Y-97338583D01*
X126707142Y-97299626D01*
X126775000Y-97300041D01*
X126775000Y-97295000D01*
X127275000Y-97295000D01*
X127275000Y-98795000D01*
G37*
G36*
X128075000Y-97300041D02*
G01*
X128148905Y-97300492D01*
X128284726Y-97341111D01*
X128403688Y-97418218D01*
X128496226Y-97525615D01*
X128554903Y-97654667D01*
X128575000Y-97795000D01*
X128575000Y-98295000D01*
X128574851Y-98307216D01*
X128551331Y-98447017D01*
X128489519Y-98574596D01*
X128394384Y-98679700D01*
X128273574Y-98753877D01*
X128136801Y-98791166D01*
X128075000Y-98790033D01*
X128075000Y-98795000D01*
X127575000Y-98795000D01*
X127575000Y-97295000D01*
X128075000Y-97295000D01*
X128075000Y-97300041D01*
G37*
G04 #@! TD*
M02*
